M48
METRIC,LZ,000.000
;FILE_FORMAT=3:3
;TYPE=PLATED
;Layer: PTH_Through
;EasyEDA v6.5.40, 2024-06-27 16:13:32
;1bb4523bb94a4e3199f7f8869f766872,df7e7e3c38a3447abd37b529b333d242,10
;Gerber Generator version 0.2
;Holesize 1 = 0.501 mm
T01C0.501
;Holesize 2 = 0.722 mm
T02C0.722
;Holesize 3 = 0.813 mm
T03C0.813
;Holesize 4 = 0.840 mm
T04C0.840
;Holesize 5 = 0.889 mm
T05C0.889
;Holesize 6 = 0.901 mm
T06C0.901
;Holesize 7 = 0.914 mm
T07C0.914
;Holesize 8 = 0.915 mm
T08C0.915
;Holesize 9 = 1.000 mm
T09C1.000
;Holesize 10 = 1.060 mm
T10C1.060
%
G05
G90
T01
X027556Y097917G85X027562Y097917
X037716Y097917G85X037722Y097917
X037849Y092964G85X037843Y092964
X027689Y092964G85X027683Y092964
T02
X020813Y033386
X022813Y033386
X024813Y033386
X026813Y033386
X028813Y033386
X030813Y033386
X032813Y033386
X034813Y033386
X034813Y047386
X032813Y047386
X030813Y047386
X028813Y047386
X026813Y047386
X024813Y047386
X022813Y047386
X020813Y047386
T03
X030480Y014732
X033274Y014732
X036322Y014732
T04
X014479Y088011
X014479Y099187
X022479Y089011
X022479Y098187
X021590Y029346
X024130Y029346
X026670Y029346
X029210Y029346
X031750Y029346
X034290Y029346
T05
X022733Y013081
X022733Y015621
T06
X045847Y084452G85X045847Y084458
X045847Y086992G85X045847Y086998
X045847Y089534G85X045847Y089536
X045847Y092072G85X045847Y092078
T07
X044450Y054430
X044450Y051890
X044450Y049350
X044450Y046810
X044450Y044270
X044450Y041730
T08
X010414Y049530
X010414Y057150
T09
X016501Y067000
X016501Y064460
X016501Y061920
X016501Y059380
X016501Y056840
X016501Y054300
X016501Y051760
X016501Y049220
X016501Y046680
X016501Y044140
X016501Y041600
X016501Y039060
X016501Y036520
X016501Y033980
X016501Y031440
X016501Y028900
X016501Y026360
X016501Y023820
X016501Y021280
X016501Y018740
X016501Y016200
X016501Y013660
X039501Y013660
X039501Y016200
X039501Y018740
X039501Y021280
X039501Y023820
X039501Y026360
X039501Y028900
X039501Y031440
X039501Y033980
X039501Y036520
X039501Y039060
X039501Y041600
X039501Y044140
X039501Y046680
X039501Y049220
X039501Y051760
X039501Y054300
X039501Y056840
X039501Y059380
X039501Y061920
X039501Y064460
X039501Y067000
T10
X019177Y084434
X021717Y084434
X024257Y084434
X026797Y084434
X029337Y084434
X031877Y084434
X034417Y084434
X036957Y084434
M30
