G04 Layer: BottomSilkscreenLayer*
G04 EasyEDA v6.5.40, 2024-06-27 16:13:32*
G04 1bb4523bb94a4e3199f7f8869f766872,df7e7e3c38a3447abd37b529b333d242,10*
G04 Gerber Generator version 0.2*
G04 Scale: 100 percent, Rotated: No, Reflected: No *
G04 Dimensions in millimeters *
G04 leading zeros omitted , absolute positions ,4 integer and 5 decimal *
%FSLAX45Y45*%
%MOMM*%

%ADD10C,0.1524*%
%ADD11C,0.2032*%
%ADD12C,0.1520*%
%ADD13C,0.2150*%

%LPD*%
D10*
X1040231Y6451650D02*
G01*
X1118209Y6451650D01*
X1133703Y6446316D01*
X1144117Y6435902D01*
X1149451Y6420408D01*
X1149451Y6409994D01*
X1144117Y6394500D01*
X1133703Y6384086D01*
X1118209Y6378752D01*
X1040231Y6378752D01*
X1061059Y6344462D02*
G01*
X1055725Y6334048D01*
X1040231Y6318554D01*
X1149451Y6318554D01*
D11*
X2155952Y8203437D02*
G01*
X2142490Y8210295D01*
X2128774Y8224012D01*
X2121915Y8237728D01*
X2121915Y8264905D01*
X2128774Y8278621D01*
X2142490Y8292084D01*
X2155952Y8298942D01*
X2176525Y8305800D01*
X2210561Y8305800D01*
X2231136Y8298942D01*
X2244597Y8292084D01*
X2258313Y8278621D01*
X2265172Y8264905D01*
X2265172Y8237728D01*
X2258313Y8224012D01*
X2244597Y8210295D01*
X2231136Y8203437D01*
X2142490Y8062976D02*
G01*
X2128774Y8076692D01*
X2121915Y8097265D01*
X2121915Y8124444D01*
X2128774Y8145018D01*
X2142490Y8158479D01*
X2155952Y8158479D01*
X2169668Y8151621D01*
X2176525Y8145018D01*
X2183384Y8131302D01*
X2196845Y8090408D01*
X2203704Y8076692D01*
X2210561Y8069834D01*
X2224277Y8062976D01*
X2244597Y8062976D01*
X2258313Y8076692D01*
X2265172Y8097265D01*
X2265172Y8124444D01*
X2258313Y8145018D01*
X2244597Y8158479D01*
X2375915Y8305800D02*
G01*
X2519172Y8305800D01*
X2375915Y8305800D02*
G01*
X2375915Y8258047D01*
X2382774Y8237728D01*
X2396490Y8224012D01*
X2409952Y8217154D01*
X2430525Y8210295D01*
X2464561Y8210295D01*
X2485136Y8217154D01*
X2498597Y8224012D01*
X2512313Y8237728D01*
X2519172Y8258047D01*
X2519172Y8305800D01*
X2409952Y8062976D02*
G01*
X2396490Y8069834D01*
X2382774Y8083550D01*
X2375915Y8097265D01*
X2375915Y8124444D01*
X2382774Y8138160D01*
X2396490Y8151621D01*
X2409952Y8158479D01*
X2430525Y8165337D01*
X2464561Y8165337D01*
X2485136Y8158479D01*
X2498597Y8151621D01*
X2512313Y8138160D01*
X2519172Y8124444D01*
X2519172Y8097265D01*
X2512313Y8083550D01*
X2498597Y8069834D01*
X2485136Y8062976D01*
X3679952Y8178037D02*
G01*
X3666490Y8184895D01*
X3652774Y8198612D01*
X3645915Y8212328D01*
X3645915Y8239505D01*
X3652774Y8253221D01*
X3666490Y8266684D01*
X3679952Y8273542D01*
X3700525Y8280400D01*
X3734561Y8280400D01*
X3755136Y8273542D01*
X3768597Y8266684D01*
X3782313Y8253221D01*
X3789172Y8239505D01*
X3789172Y8212328D01*
X3782313Y8198612D01*
X3768597Y8184895D01*
X3755136Y8178037D01*
X3734561Y8178037D01*
X3734561Y8212328D02*
G01*
X3734561Y8178037D01*
X3645915Y8133079D02*
G01*
X3789172Y8133079D01*
X3645915Y8133079D02*
G01*
X3789172Y8037576D01*
X3645915Y8037576D02*
G01*
X3789172Y8037576D01*
X3645915Y7992618D02*
G01*
X3789172Y7992618D01*
X3645915Y7992618D02*
G01*
X3645915Y7944865D01*
X3652774Y7924545D01*
X3666490Y7910829D01*
X3679952Y7903971D01*
X3700525Y7897113D01*
X3734561Y7897113D01*
X3755136Y7903971D01*
X3768597Y7910829D01*
X3782313Y7924545D01*
X3789172Y7944865D01*
X3789172Y7992618D01*
X3391915Y8280400D02*
G01*
X3535172Y8225789D01*
X3391915Y8171434D02*
G01*
X3535172Y8225789D01*
X3425952Y8024113D02*
G01*
X3412490Y8030971D01*
X3398774Y8044434D01*
X3391915Y8058150D01*
X3391915Y8085328D01*
X3398774Y8099044D01*
X3412490Y8112760D01*
X3425952Y8119618D01*
X3446525Y8126221D01*
X3480561Y8126221D01*
X3501136Y8119618D01*
X3514597Y8112760D01*
X3528313Y8099044D01*
X3535172Y8085328D01*
X3535172Y8058150D01*
X3528313Y8044434D01*
X3514597Y8030971D01*
X3501136Y8024113D01*
X3425952Y7876794D02*
G01*
X3412490Y7883652D01*
X3398774Y7897113D01*
X3391915Y7910829D01*
X3391915Y7938008D01*
X3398774Y7951723D01*
X3412490Y7965439D01*
X3425952Y7972297D01*
X3446525Y7979155D01*
X3480561Y7979155D01*
X3501136Y7972297D01*
X3514597Y7965439D01*
X3528313Y7951723D01*
X3535172Y7938008D01*
X3535172Y7910829D01*
X3528313Y7897113D01*
X3514597Y7883652D01*
X3501136Y7876794D01*
X3158490Y8184895D02*
G01*
X3144774Y8198612D01*
X3137915Y8218931D01*
X3137915Y8246363D01*
X3144774Y8266684D01*
X3158490Y8280400D01*
X3171952Y8280400D01*
X3185668Y8273542D01*
X3192525Y8266684D01*
X3199384Y8253221D01*
X3212845Y8212328D01*
X3219704Y8198612D01*
X3226561Y8191754D01*
X3240277Y8184895D01*
X3260597Y8184895D01*
X3274313Y8198612D01*
X3281172Y8218931D01*
X3281172Y8246363D01*
X3274313Y8266684D01*
X3260597Y8280400D01*
X3171952Y8037576D02*
G01*
X3158490Y8044434D01*
X3144774Y8058150D01*
X3137915Y8071865D01*
X3137915Y8099044D01*
X3144774Y8112760D01*
X3158490Y8126221D01*
X3171952Y8133079D01*
X3192525Y8139937D01*
X3226561Y8139937D01*
X3247136Y8133079D01*
X3260597Y8126221D01*
X3274313Y8112760D01*
X3281172Y8099044D01*
X3281172Y8071865D01*
X3274313Y8058150D01*
X3260597Y8044434D01*
X3247136Y8037576D01*
X3137915Y7992618D02*
G01*
X3281172Y7992618D01*
X3281172Y7992618D02*
G01*
X3281172Y7910829D01*
X2929890Y8210295D02*
G01*
X2916174Y8224012D01*
X2909315Y8244331D01*
X2909315Y8271763D01*
X2916174Y8292084D01*
X2929890Y8305800D01*
X2943352Y8305800D01*
X2957068Y8298942D01*
X2963925Y8292084D01*
X2970784Y8278621D01*
X2984245Y8237728D01*
X2991104Y8224012D01*
X2997961Y8217154D01*
X3011677Y8210295D01*
X3031997Y8210295D01*
X3045713Y8224012D01*
X3052572Y8244331D01*
X3052572Y8271763D01*
X3045713Y8292084D01*
X3031997Y8305800D01*
X2909315Y8165337D02*
G01*
X3052572Y8165337D01*
X2909315Y8165337D02*
G01*
X2909315Y8117586D01*
X2916174Y8097265D01*
X2929890Y8083550D01*
X2943352Y8076692D01*
X2963925Y8069834D01*
X2997961Y8069834D01*
X3018536Y8076692D01*
X3031997Y8083550D01*
X3045713Y8097265D01*
X3052572Y8117586D01*
X3052572Y8165337D01*
X2909315Y7970265D02*
G01*
X3052572Y8024876D01*
X2909315Y7970265D02*
G01*
X3052572Y7915910D01*
X3004820Y8004555D02*
G01*
X3004820Y7936229D01*
X2629915Y8305800D02*
G01*
X2773172Y8305800D01*
X2629915Y8305800D02*
G01*
X2629915Y8244331D01*
X2636774Y8224012D01*
X2643631Y8217154D01*
X2657093Y8210295D01*
X2670809Y8210295D01*
X2684525Y8217154D01*
X2691384Y8224012D01*
X2698241Y8244331D01*
X2698241Y8305800D01*
X2698241Y8258047D02*
G01*
X2773172Y8210295D01*
X2650490Y8069834D02*
G01*
X2636774Y8083550D01*
X2629915Y8103870D01*
X2629915Y8131302D01*
X2636774Y8151621D01*
X2650490Y8165337D01*
X2663952Y8165337D01*
X2677668Y8158479D01*
X2684525Y8151621D01*
X2691384Y8138160D01*
X2704845Y8097265D01*
X2711704Y8083550D01*
X2718561Y8076692D01*
X2732277Y8069834D01*
X2752597Y8069834D01*
X2766313Y8083550D01*
X2773172Y8103870D01*
X2773172Y8131302D01*
X2766313Y8151621D01*
X2752597Y8165337D01*
X2629915Y7977123D02*
G01*
X2773172Y7977123D01*
X2629915Y8024876D02*
G01*
X2629915Y7929371D01*
X1842515Y8305800D02*
G01*
X1985772Y8305800D01*
X1842515Y8305800D02*
G01*
X1842515Y8244331D01*
X1849373Y8224012D01*
X1856231Y8217154D01*
X1869694Y8210295D01*
X1883410Y8210295D01*
X1897126Y8217154D01*
X1903984Y8224012D01*
X1910842Y8244331D01*
X1910842Y8305800D02*
G01*
X1910842Y8244331D01*
X1917445Y8224012D01*
X1924304Y8217154D01*
X1938020Y8210295D01*
X1958340Y8210295D01*
X1972056Y8217154D01*
X1978913Y8224012D01*
X1985772Y8244331D01*
X1985772Y8305800D01*
X1842515Y8165337D02*
G01*
X1985772Y8165337D01*
X1985772Y8165337D02*
G01*
X1985772Y8083550D01*
X1842515Y8038592D02*
G01*
X1985772Y8038592D01*
X1842515Y7943087D02*
G01*
X1938020Y8038592D01*
X1903984Y8004555D02*
G01*
X1985772Y7943087D01*
D12*
X2985515Y2476500D02*
G01*
X2876550Y2476500D01*
X2985515Y2476500D02*
G01*
X2876550Y2518155D01*
X2985515Y2559557D02*
G01*
X2876550Y2518155D01*
X2985515Y2559557D02*
G01*
X2876550Y2559557D01*
X2985515Y2625089D02*
G01*
X2980436Y2614676D01*
X2970022Y2604262D01*
X2959608Y2599181D01*
X2943859Y2593847D01*
X2917952Y2593847D01*
X2902458Y2599181D01*
X2892043Y2604262D01*
X2881629Y2614676D01*
X2876550Y2625089D01*
X2876550Y2645918D01*
X2881629Y2656331D01*
X2892043Y2666745D01*
X2902458Y2671826D01*
X2917952Y2677160D01*
X2943859Y2677160D01*
X2959608Y2671826D01*
X2970022Y2666745D01*
X2980436Y2656331D01*
X2985515Y2645918D01*
X2985515Y2625089D01*
X2970022Y2784094D02*
G01*
X2980436Y2773679D01*
X2985515Y2758186D01*
X2985515Y2737357D01*
X2980436Y2721610D01*
X2970022Y2711450D01*
X2959608Y2711450D01*
X2949193Y2716529D01*
X2943859Y2721610D01*
X2938779Y2732023D01*
X2928365Y2763265D01*
X2923286Y2773679D01*
X2917952Y2778760D01*
X2907538Y2784094D01*
X2892043Y2784094D01*
X2881629Y2773679D01*
X2876550Y2758186D01*
X2876550Y2737357D01*
X2881629Y2721610D01*
X2892043Y2711450D01*
X2985515Y2818384D02*
G01*
X2876550Y2818384D01*
X3226308Y2706878D02*
G01*
X3236722Y2701544D01*
X3247136Y2691129D01*
X3252215Y2680970D01*
X3252215Y2660142D01*
X3247136Y2649728D01*
X3236722Y2639313D01*
X3226308Y2633979D01*
X3210559Y2628900D01*
X3184652Y2628900D01*
X3169158Y2633979D01*
X3158743Y2639313D01*
X3148329Y2649728D01*
X3143250Y2660142D01*
X3143250Y2680970D01*
X3148329Y2691129D01*
X3158743Y2701544D01*
X3169158Y2706878D01*
X3236722Y2813812D02*
G01*
X3247136Y2803397D01*
X3252215Y2787904D01*
X3252215Y2767076D01*
X3247136Y2751581D01*
X3236722Y2741168D01*
X3226308Y2741168D01*
X3215893Y2746247D01*
X3210559Y2751581D01*
X3205479Y2761995D01*
X3195065Y2792984D01*
X3189986Y2803397D01*
X3184652Y2808731D01*
X3174238Y2813812D01*
X3158743Y2813812D01*
X3148329Y2803397D01*
X3143250Y2787904D01*
X3143250Y2767076D01*
X3148329Y2751581D01*
X3158743Y2741168D01*
X3480815Y2537713D02*
G01*
X3480815Y2594863D01*
X3439159Y2563621D01*
X3439159Y2579370D01*
X3434079Y2589529D01*
X3429000Y2594863D01*
X3413252Y2599944D01*
X3402838Y2599944D01*
X3387343Y2594863D01*
X3376929Y2584450D01*
X3371850Y2568955D01*
X3371850Y2553207D01*
X3376929Y2537713D01*
X3382009Y2532379D01*
X3392424Y2527300D01*
X3480815Y2634234D02*
G01*
X3371850Y2675889D01*
X3480815Y2717545D02*
G01*
X3371850Y2675889D01*
X3480815Y2762250D02*
G01*
X3480815Y2819400D01*
X3439159Y2788157D01*
X3439159Y2803652D01*
X3434079Y2814065D01*
X3429000Y2819400D01*
X3413252Y2824479D01*
X3402838Y2824479D01*
X3387343Y2819400D01*
X3376929Y2808986D01*
X3371850Y2793237D01*
X3371850Y2777744D01*
X3376929Y2762250D01*
X3382009Y2756915D01*
X3392424Y2751836D01*
X2741422Y2599944D02*
G01*
X2751836Y2589529D01*
X2756915Y2574036D01*
X2756915Y2553207D01*
X2751836Y2537713D01*
X2741422Y2527300D01*
X2731008Y2527300D01*
X2720593Y2532379D01*
X2715259Y2537713D01*
X2710179Y2548128D01*
X2699765Y2579370D01*
X2694686Y2589529D01*
X2689352Y2594863D01*
X2678938Y2599944D01*
X2663443Y2599944D01*
X2653029Y2589529D01*
X2647950Y2574036D01*
X2647950Y2553207D01*
X2653029Y2537713D01*
X2663443Y2527300D01*
X2731008Y2712212D02*
G01*
X2741422Y2707131D01*
X2751836Y2696718D01*
X2756915Y2686304D01*
X2756915Y2665476D01*
X2751836Y2655062D01*
X2741422Y2644647D01*
X2731008Y2639568D01*
X2715259Y2634234D01*
X2689352Y2634234D01*
X2673858Y2639568D01*
X2663443Y2644647D01*
X2653029Y2655062D01*
X2647950Y2665476D01*
X2647950Y2686304D01*
X2653029Y2696718D01*
X2663443Y2707131D01*
X2673858Y2712212D01*
X2756915Y2746502D02*
G01*
X2647950Y2746502D01*
X2756915Y2819400D02*
G01*
X2684272Y2746502D01*
X2710179Y2772410D02*
G01*
X2647950Y2819400D01*
X2464815Y2476500D02*
G01*
X2355850Y2476500D01*
X2464815Y2476500D02*
G01*
X2355850Y2518155D01*
X2464815Y2559557D02*
G01*
X2355850Y2518155D01*
X2464815Y2559557D02*
G01*
X2355850Y2559557D01*
X2464815Y2593847D02*
G01*
X2355850Y2593847D01*
X2449322Y2701036D02*
G01*
X2459736Y2690621D01*
X2464815Y2674873D01*
X2464815Y2654300D01*
X2459736Y2638552D01*
X2449322Y2628137D01*
X2438908Y2628137D01*
X2428493Y2633471D01*
X2423159Y2638552D01*
X2418079Y2648965D01*
X2407665Y2680207D01*
X2402586Y2690621D01*
X2397252Y2695702D01*
X2386838Y2701036D01*
X2371343Y2701036D01*
X2360929Y2690621D01*
X2355850Y2674873D01*
X2355850Y2654300D01*
X2360929Y2638552D01*
X2371343Y2628137D01*
X2464815Y2766313D02*
G01*
X2459736Y2755900D01*
X2449322Y2745739D01*
X2438908Y2740405D01*
X2423159Y2735326D01*
X2397252Y2735326D01*
X2381758Y2740405D01*
X2371343Y2745739D01*
X2360929Y2755900D01*
X2355850Y2766313D01*
X2355850Y2787142D01*
X2360929Y2797555D01*
X2371343Y2807970D01*
X2381758Y2813050D01*
X2397252Y2818384D01*
X2423159Y2818384D01*
X2438908Y2813050D01*
X2449322Y2807970D01*
X2459736Y2797555D01*
X2464815Y2787142D01*
X2464815Y2766313D01*
X2184908Y2605278D02*
G01*
X2195322Y2599944D01*
X2205736Y2589529D01*
X2210815Y2579370D01*
X2210815Y2558542D01*
X2205736Y2548128D01*
X2195322Y2537713D01*
X2184908Y2532379D01*
X2169159Y2527300D01*
X2143252Y2527300D01*
X2127758Y2532379D01*
X2117343Y2537713D01*
X2106929Y2548128D01*
X2101850Y2558542D01*
X2101850Y2579370D01*
X2106929Y2589529D01*
X2117343Y2599944D01*
X2127758Y2605278D01*
X2143252Y2605278D01*
X2143252Y2579370D02*
G01*
X2143252Y2605278D01*
X2210815Y2639568D02*
G01*
X2101850Y2639568D01*
X2210815Y2639568D02*
G01*
X2101850Y2712212D01*
X2210815Y2712212D02*
G01*
X2101850Y2712212D01*
X2210815Y2746502D02*
G01*
X2101850Y2746502D01*
X2210815Y2746502D02*
G01*
X2210815Y2782823D01*
X2205736Y2798571D01*
X2195322Y2808986D01*
X2184908Y2814065D01*
X2169159Y2819400D01*
X2143252Y2819400D01*
X2127758Y2814065D01*
X2117343Y2808986D01*
X2106929Y2798571D01*
X2101850Y2782823D01*
X2101850Y2746502D01*
D10*
X3073374Y3188639D02*
G01*
X3073374Y3079673D01*
X3073374Y3188639D02*
G01*
X3031718Y3079673D01*
X2990316Y3188639D02*
G01*
X3031718Y3079673D01*
X2990316Y3188639D02*
G01*
X2990316Y3079673D01*
X2956026Y3188639D02*
G01*
X2956026Y3079673D01*
X2843758Y3162731D02*
G01*
X2848838Y3173145D01*
X2859252Y3183559D01*
X2869666Y3188639D01*
X2890494Y3188639D01*
X2900908Y3183559D01*
X2911322Y3173145D01*
X2916402Y3162731D01*
X2921736Y3147237D01*
X2921736Y3121075D01*
X2916402Y3105581D01*
X2911322Y3095167D01*
X2900908Y3084753D01*
X2890494Y3079673D01*
X2869666Y3079673D01*
X2859252Y3084753D01*
X2848838Y3095167D01*
X2843758Y3105581D01*
X2809468Y3188639D02*
G01*
X2809468Y3079673D01*
X2809468Y3188639D02*
G01*
X2762732Y3188639D01*
X2747238Y3183559D01*
X2741904Y3178225D01*
X2736824Y3168065D01*
X2736824Y3157651D01*
X2741904Y3147237D01*
X2747238Y3141903D01*
X2762732Y3136823D01*
X2809468Y3136823D01*
X2773146Y3136823D02*
G01*
X2736824Y3079673D01*
X2671292Y3188639D02*
G01*
X2681706Y3183559D01*
X2692120Y3173145D01*
X2697200Y3162731D01*
X2702534Y3147237D01*
X2702534Y3121075D01*
X2697200Y3105581D01*
X2692120Y3095167D01*
X2681706Y3084753D01*
X2671292Y3079673D01*
X2650464Y3079673D01*
X2640050Y3084753D01*
X2629636Y3095167D01*
X2624556Y3105581D01*
X2619222Y3121075D01*
X2619222Y3147237D01*
X2624556Y3162731D01*
X2629636Y3173145D01*
X2640050Y3183559D01*
X2650464Y3188639D01*
X2671292Y3188639D01*
X2512288Y3173145D02*
G01*
X2522702Y3183559D01*
X2538196Y3188639D01*
X2559024Y3188639D01*
X2574518Y3183559D01*
X2584932Y3173145D01*
X2584932Y3162731D01*
X2579852Y3152317D01*
X2574518Y3147237D01*
X2564358Y3141903D01*
X2533116Y3131489D01*
X2522702Y3126409D01*
X2517368Y3121075D01*
X2512288Y3110915D01*
X2512288Y3095167D01*
X2522702Y3084753D01*
X2538196Y3079673D01*
X2559024Y3079673D01*
X2574518Y3084753D01*
X2584932Y3095167D01*
X2477998Y3188639D02*
G01*
X2477998Y3079673D01*
X2477998Y3188639D02*
G01*
X2441676Y3188639D01*
X2425928Y3183559D01*
X2415768Y3173145D01*
X2410434Y3162731D01*
X2405354Y3147237D01*
X2405354Y3121075D01*
X2410434Y3105581D01*
X2415768Y3095167D01*
X2425928Y3084753D01*
X2441676Y3079673D01*
X2477998Y3079673D01*
D13*
G75*
G01
X3706444Y8657920D02*
G03X3706444Y8657920I-10744J0D01*
M02*
