G04 Layer: TopSilkscreenLayer*
G04 EasyEDA v6.5.40, 2024-06-27 16:13:32*
G04 1bb4523bb94a4e3199f7f8869f766872,df7e7e3c38a3447abd37b529b333d242,10*
G04 Gerber Generator version 0.2*
G04 Scale: 100 percent, Rotated: No, Reflected: No *
G04 Dimensions in millimeters *
G04 leading zeros omitted , absolute positions ,4 integer and 5 decimal *
%FSLAX45Y45*%
%MOMM*%

%ADD10C,0.1524*%
%ADD11C,0.2032*%
%ADD12C,0.2000*%
%ADD13C,0.2540*%
%ADD14C,0.1200*%
%ADD15C,0.1600*%
%ADD16C,0.0119*%

%LPD*%
D10*
X4800091Y6961378D02*
G01*
X4789677Y6956044D01*
X4779263Y6945629D01*
X4774184Y6935470D01*
X4774184Y6914642D01*
X4779263Y6904228D01*
X4789677Y6893813D01*
X4800091Y6888479D01*
X4815840Y6883400D01*
X4841747Y6883400D01*
X4857241Y6888479D01*
X4867656Y6893813D01*
X4878070Y6904228D01*
X4883150Y6914642D01*
X4883150Y6935470D01*
X4878070Y6945629D01*
X4867656Y6956044D01*
X4857241Y6961378D01*
X4810506Y7057897D02*
G01*
X4883150Y7057897D01*
X4826000Y7057897D02*
G01*
X4815840Y7047484D01*
X4810506Y7037070D01*
X4810506Y7021576D01*
X4815840Y7011162D01*
X4826000Y7000747D01*
X4841747Y6995668D01*
X4852161Y6995668D01*
X4867656Y7000747D01*
X4878070Y7011162D01*
X4883150Y7021576D01*
X4883150Y7037070D01*
X4878070Y7047484D01*
X4867656Y7057897D01*
X4810506Y7092187D02*
G01*
X4919725Y7092187D01*
X4826000Y7092187D02*
G01*
X4815840Y7102602D01*
X4810506Y7113015D01*
X4810506Y7128510D01*
X4815840Y7138923D01*
X4826000Y7149337D01*
X4841747Y7154671D01*
X4852161Y7154671D01*
X4867656Y7149337D01*
X4878070Y7138923D01*
X4883150Y7128510D01*
X4883150Y7113015D01*
X4878070Y7102602D01*
X4867656Y7092187D01*
X4774184Y7188962D02*
G01*
X4779263Y7194042D01*
X4774184Y7199376D01*
X4768850Y7194042D01*
X4774184Y7188962D01*
X4810506Y7194042D02*
G01*
X4883150Y7194042D01*
X4774184Y7233665D02*
G01*
X4883150Y7233665D01*
X4826000Y7233665D02*
G01*
X4815840Y7244079D01*
X4810506Y7254239D01*
X4810506Y7269987D01*
X4815840Y7280402D01*
X4826000Y7290815D01*
X4841747Y7295895D01*
X4852161Y7295895D01*
X4867656Y7290815D01*
X4878070Y7280402D01*
X4883150Y7269987D01*
X4883150Y7254239D01*
X4878070Y7244079D01*
X4867656Y7233665D01*
X4810506Y7392670D02*
G01*
X4883150Y7392670D01*
X4826000Y7392670D02*
G01*
X4815840Y7382255D01*
X4810506Y7371842D01*
X4810506Y7356094D01*
X4815840Y7345679D01*
X4826000Y7335520D01*
X4841747Y7330186D01*
X4852161Y7330186D01*
X4867656Y7335520D01*
X4878070Y7345679D01*
X4883150Y7356094D01*
X4883150Y7371842D01*
X4878070Y7382255D01*
X4867656Y7392670D01*
X4810506Y7426960D02*
G01*
X4883150Y7426960D01*
X4841747Y7426960D02*
G01*
X4826000Y7432039D01*
X4815840Y7442454D01*
X4810506Y7452868D01*
X4810506Y7468362D01*
X4810506Y7565136D02*
G01*
X4883150Y7565136D01*
X4826000Y7565136D02*
G01*
X4815840Y7554721D01*
X4810506Y7544308D01*
X4810506Y7528560D01*
X4815840Y7518400D01*
X4826000Y7507986D01*
X4841747Y7502652D01*
X4852161Y7502652D01*
X4867656Y7507986D01*
X4878070Y7518400D01*
X4883150Y7528560D01*
X4883150Y7544308D01*
X4878070Y7554721D01*
X4867656Y7565136D01*
X4774184Y7672070D02*
G01*
X4883150Y7599426D01*
X4774184Y7599426D02*
G01*
X4774184Y7672070D01*
X4883150Y7599426D02*
G01*
X4883150Y7672070D01*
X4841747Y7706360D02*
G01*
X4841747Y7768589D01*
X4831334Y7768589D01*
X4820920Y7763510D01*
X4815840Y7758429D01*
X4810506Y7748015D01*
X4810506Y7732268D01*
X4815840Y7721854D01*
X4826000Y7711439D01*
X4841747Y7706360D01*
X4852161Y7706360D01*
X4867656Y7711439D01*
X4878070Y7721854D01*
X4883150Y7732268D01*
X4883150Y7748015D01*
X4878070Y7758429D01*
X4867656Y7768589D01*
X4810506Y7802879D02*
G01*
X4883150Y7802879D01*
X4841747Y7802879D02*
G01*
X4826000Y7808213D01*
X4815840Y7818628D01*
X4810506Y7829042D01*
X4810506Y7844536D01*
X4810506Y7904734D02*
G01*
X4815840Y7894320D01*
X4826000Y7884160D01*
X4841747Y7878826D01*
X4852161Y7878826D01*
X4867656Y7884160D01*
X4878070Y7894320D01*
X4883150Y7904734D01*
X4883150Y7920481D01*
X4878070Y7930895D01*
X4867656Y7941310D01*
X4852161Y7946389D01*
X4841747Y7946389D01*
X4826000Y7941310D01*
X4815840Y7930895D01*
X4810506Y7920481D01*
X4810506Y7904734D01*
X697484Y3149600D02*
G01*
X806450Y3149600D01*
X697484Y3149600D02*
G01*
X697484Y3196336D01*
X702563Y3211829D01*
X707897Y3217163D01*
X718312Y3222244D01*
X733805Y3222244D01*
X744220Y3217163D01*
X749300Y3211829D01*
X754634Y3196336D01*
X754634Y3149600D01*
X723392Y3334512D02*
G01*
X712978Y3329431D01*
X702563Y3319018D01*
X697484Y3308604D01*
X697484Y3287776D01*
X702563Y3277362D01*
X712978Y3266947D01*
X723392Y3261868D01*
X739139Y3256534D01*
X765047Y3256534D01*
X780542Y3261868D01*
X790955Y3266947D01*
X801370Y3277362D01*
X806450Y3287776D01*
X806450Y3308604D01*
X801370Y3319018D01*
X790955Y3329431D01*
X780542Y3334512D01*
X697484Y3368802D02*
G01*
X806450Y3368802D01*
X697484Y3368802D02*
G01*
X697484Y3415537D01*
X702563Y3431286D01*
X707897Y3436365D01*
X718312Y3441700D01*
X728726Y3441700D01*
X739139Y3436365D01*
X744220Y3431286D01*
X749300Y3415537D01*
X749300Y3368802D02*
G01*
X749300Y3415537D01*
X754634Y3431286D01*
X759713Y3436365D01*
X770128Y3441700D01*
X785876Y3441700D01*
X796289Y3436365D01*
X801370Y3431286D01*
X806450Y3415537D01*
X806450Y3368802D01*
X697484Y3556000D02*
G01*
X806450Y3597402D01*
X697484Y3639057D02*
G01*
X806450Y3597402D01*
X765047Y3673347D02*
G01*
X765047Y3735578D01*
X754634Y3735578D01*
X744220Y3730497D01*
X739139Y3725163D01*
X733805Y3714750D01*
X733805Y3699255D01*
X739139Y3688842D01*
X749300Y3678428D01*
X765047Y3673347D01*
X775462Y3673347D01*
X790955Y3678428D01*
X801370Y3688842D01*
X806450Y3699255D01*
X806450Y3714750D01*
X801370Y3725163D01*
X790955Y3735578D01*
X733805Y3769868D02*
G01*
X806450Y3769868D01*
X765047Y3769868D02*
G01*
X749300Y3775202D01*
X739139Y3785615D01*
X733805Y3796029D01*
X733805Y3811523D01*
X780542Y3850894D02*
G01*
X785876Y3845813D01*
X790955Y3850894D01*
X785876Y3856228D01*
X780542Y3850894D01*
X718312Y3970528D02*
G01*
X712978Y3980942D01*
X697484Y3996436D01*
X806450Y3996436D01*
X780542Y4036060D02*
G01*
X785876Y4030726D01*
X790955Y4036060D01*
X785876Y4041139D01*
X780542Y4036060D01*
X718312Y4075429D02*
G01*
X712978Y4085844D01*
X697484Y4101337D01*
X806450Y4101337D01*
X780542Y4140962D02*
G01*
X785876Y4135628D01*
X790955Y4140962D01*
X785876Y4146042D01*
X780542Y4140962D01*
X697484Y4211573D02*
G01*
X702563Y4196079D01*
X718312Y4185665D01*
X744220Y4180331D01*
X759713Y4180331D01*
X785876Y4185665D01*
X801370Y4196079D01*
X806450Y4211573D01*
X806450Y4221987D01*
X801370Y4237481D01*
X785876Y4247895D01*
X759713Y4253229D01*
X744220Y4253229D01*
X718312Y4247895D01*
X702563Y4237481D01*
X697484Y4221987D01*
X697484Y4211573D01*
X1714500Y9424415D02*
G01*
X1714500Y9315450D01*
X1714500Y9315450D02*
G01*
X1776729Y9315450D01*
X1811020Y9424415D02*
G01*
X1883918Y9315450D01*
X1883918Y9424415D02*
G01*
X1811020Y9315450D01*
X1918207Y9362186D02*
G01*
X2011679Y9362186D01*
X2045970Y9424415D02*
G01*
X2045970Y9315450D01*
X2045970Y9315450D02*
G01*
X2108200Y9315450D01*
X2142490Y9424415D02*
G01*
X2142490Y9315450D01*
X2142490Y9424415D02*
G01*
X2189479Y9424415D01*
X2204974Y9419336D01*
X2210054Y9414002D01*
X2215388Y9403587D01*
X2215388Y9393174D01*
X2210054Y9382760D01*
X2204974Y9377679D01*
X2189479Y9372600D01*
X2142490Y9372600D02*
G01*
X2189479Y9372600D01*
X2204974Y9367265D01*
X2210054Y9362186D01*
X2215388Y9351771D01*
X2215388Y9336024D01*
X2210054Y9325610D01*
X2204974Y9320529D01*
X2189479Y9315450D01*
X2142490Y9315450D01*
X2327656Y9398508D02*
G01*
X2322322Y9408921D01*
X2311908Y9419336D01*
X2301493Y9424415D01*
X2280920Y9424415D01*
X2270506Y9419336D01*
X2260091Y9408921D01*
X2254758Y9398508D01*
X2249677Y9382760D01*
X2249677Y9356852D01*
X2254758Y9341358D01*
X2260091Y9330944D01*
X2270506Y9320529D01*
X2280920Y9315450D01*
X2301493Y9315450D01*
X2311908Y9320529D01*
X2322322Y9330944D01*
X2327656Y9341358D01*
X2372359Y9424415D02*
G01*
X2429509Y9424415D01*
X2398268Y9382760D01*
X2413761Y9382760D01*
X2424175Y9377679D01*
X2429509Y9372600D01*
X2434590Y9356852D01*
X2434590Y9346437D01*
X2429509Y9330944D01*
X2419095Y9320529D01*
X2403347Y9315450D01*
X2387854Y9315450D01*
X2372359Y9320529D01*
X2367025Y9325610D01*
X2361945Y9336024D01*
X2781300Y5042915D02*
G01*
X2781300Y4964937D01*
X2786379Y4949444D01*
X2796793Y4939029D01*
X2812541Y4933950D01*
X2822956Y4933950D01*
X2838450Y4939029D01*
X2848863Y4949444D01*
X2853943Y4964937D01*
X2853943Y5042915D01*
X2893568Y5017007D02*
G01*
X2893568Y5022087D01*
X2898647Y5032502D01*
X2903981Y5037836D01*
X2914395Y5042915D01*
X2934970Y5042915D01*
X2945384Y5037836D01*
X2950718Y5032502D01*
X2955797Y5022087D01*
X2955797Y5011673D01*
X2950718Y5001260D01*
X2940304Y4985765D01*
X2888234Y4933950D01*
X2961131Y4933950D01*
X3187700Y10034015D02*
G01*
X3187700Y9925050D01*
X3187700Y10034015D02*
G01*
X3234436Y10034015D01*
X3249929Y10028936D01*
X3255263Y10023602D01*
X3260343Y10013187D01*
X3260343Y10002774D01*
X3255263Y9992360D01*
X3249929Y9987279D01*
X3234436Y9982200D01*
X3187700Y9982200D01*
X3224022Y9982200D02*
G01*
X3260343Y9925050D01*
X3294634Y10013187D02*
G01*
X3305047Y10018521D01*
X3320795Y10034015D01*
X3320795Y9925050D01*
X3340100Y9003284D02*
G01*
X3340100Y9112250D01*
X3340100Y9003284D02*
G01*
X3293363Y9003284D01*
X3277870Y9008363D01*
X3272536Y9013697D01*
X3267456Y9024112D01*
X3267456Y9034526D01*
X3272536Y9044939D01*
X3277870Y9050020D01*
X3293363Y9055100D01*
X3340100Y9055100D01*
X3303777Y9055100D02*
G01*
X3267456Y9112250D01*
X3227831Y9029192D02*
G01*
X3227831Y9024112D01*
X3222752Y9013697D01*
X3217418Y9008363D01*
X3207004Y9003284D01*
X3186429Y9003284D01*
X3176015Y9008363D01*
X3170681Y9013697D01*
X3165602Y9024112D01*
X3165602Y9034526D01*
X3170681Y9044939D01*
X3181095Y9060434D01*
X3233165Y9112250D01*
X3160268Y9112250D01*
X2082800Y1842515D02*
G01*
X2082800Y1733550D01*
X2117090Y1842515D02*
G01*
X2117090Y1733550D01*
X2117090Y1842515D02*
G01*
X2163825Y1842515D01*
X2179320Y1837436D01*
X2184654Y1832102D01*
X2189734Y1821687D01*
X2189734Y1811273D01*
X2184654Y1800860D01*
X2179320Y1795779D01*
X2163825Y1790700D01*
X2117090Y1790700D01*
X2153411Y1790700D02*
G01*
X2189734Y1733550D01*
X2224024Y1696973D02*
G01*
X2317750Y1696973D01*
X2388361Y1842515D02*
G01*
X2388361Y1733550D01*
X2352040Y1842515D02*
G01*
X2424684Y1842515D01*
X2458974Y1842515D02*
G01*
X2531618Y1733550D01*
X2531618Y1842515D02*
G01*
X2458974Y1733550D01*
X4941315Y5125491D02*
G01*
X4832350Y5125491D01*
X4941315Y5125491D02*
G01*
X4941315Y5078755D01*
X4936236Y5063261D01*
X4930902Y5057927D01*
X4920488Y5052847D01*
X4910074Y5052847D01*
X4899659Y5057927D01*
X4894579Y5063261D01*
X4889500Y5078755D01*
X4889500Y5125491D02*
G01*
X4889500Y5078755D01*
X4884165Y5063261D01*
X4879086Y5057927D01*
X4868672Y5052847D01*
X4852924Y5052847D01*
X4842509Y5057927D01*
X4837429Y5063261D01*
X4832350Y5078755D01*
X4832350Y5125491D01*
X4941315Y5018557D02*
G01*
X4863338Y5018557D01*
X4847843Y5013223D01*
X4837429Y5002809D01*
X4832350Y4987315D01*
X4832350Y4976901D01*
X4837429Y4961407D01*
X4847843Y4950993D01*
X4863338Y4945659D01*
X4941315Y4945659D01*
X4941315Y4875047D02*
G01*
X4832350Y4875047D01*
X4941315Y4911369D02*
G01*
X4941315Y4838725D01*
X4941315Y4768113D02*
G01*
X4832350Y4768113D01*
X4941315Y4804435D02*
G01*
X4941315Y4731791D01*
X4941315Y4666259D02*
G01*
X4936236Y4676673D01*
X4925822Y4687087D01*
X4915408Y4692167D01*
X4899659Y4697501D01*
X4873752Y4697501D01*
X4858258Y4692167D01*
X4847843Y4687087D01*
X4837429Y4676673D01*
X4832350Y4666259D01*
X4832350Y4645431D01*
X4837429Y4635017D01*
X4847843Y4624603D01*
X4858258Y4619523D01*
X4873752Y4614189D01*
X4899659Y4614189D01*
X4915408Y4619523D01*
X4925822Y4624603D01*
X4936236Y4635017D01*
X4941315Y4645431D01*
X4941315Y4666259D01*
X4941315Y4579899D02*
G01*
X4832350Y4579899D01*
X4941315Y4579899D02*
G01*
X4832350Y4507255D01*
X4941315Y4507255D02*
G01*
X4832350Y4507255D01*
X1917801Y7037908D02*
G01*
X1917801Y6928688D01*
X1917801Y7037908D02*
G01*
X1985365Y7037908D01*
X1917801Y6985838D02*
G01*
X1959203Y6985838D01*
X1917801Y6928688D02*
G01*
X1985365Y6928688D01*
X2092299Y7022160D02*
G01*
X2081885Y7032574D01*
X2066391Y7037908D01*
X2045563Y7037908D01*
X2029815Y7032574D01*
X2019655Y7022160D01*
X2019655Y7011746D01*
X2024735Y7001586D01*
X2029815Y6996252D01*
X2040229Y6991172D01*
X2071471Y6980758D01*
X2081885Y6975424D01*
X2086965Y6970344D01*
X2092299Y6959930D01*
X2092299Y6944436D01*
X2081885Y6934022D01*
X2066391Y6928688D01*
X2045563Y6928688D01*
X2029815Y6934022D01*
X2019655Y6944436D01*
X2126589Y7037908D02*
G01*
X2126589Y6928688D01*
X2126589Y7037908D02*
G01*
X2173325Y7037908D01*
X2188819Y7032574D01*
X2194153Y7027494D01*
X2199233Y7017080D01*
X2199233Y7001586D01*
X2194153Y6991172D01*
X2188819Y6985838D01*
X2173325Y6980758D01*
X2126589Y6980758D01*
X2243937Y7037908D02*
G01*
X2301087Y7037908D01*
X2269845Y6996252D01*
X2285593Y6996252D01*
X2296007Y6991172D01*
X2301087Y6985838D01*
X2306421Y6970344D01*
X2306421Y6959930D01*
X2301087Y6944436D01*
X2290673Y6934022D01*
X2275179Y6928688D01*
X2259685Y6928688D01*
X2243937Y6934022D01*
X2238857Y6939102D01*
X2233523Y6949516D01*
X2345791Y7011746D02*
G01*
X2345791Y7017080D01*
X2351125Y7027494D01*
X2356205Y7032574D01*
X2366619Y7037908D01*
X2387447Y7037908D01*
X2397861Y7032574D01*
X2402941Y7027494D01*
X2408275Y7017080D01*
X2408275Y7006666D01*
X2402941Y6996252D01*
X2392527Y6980758D01*
X2340711Y6928688D01*
X2413355Y6928688D01*
X2447645Y6975424D02*
G01*
X2541117Y6975424D01*
X2648305Y7022160D02*
G01*
X2637891Y7032574D01*
X2622143Y7037908D01*
X2601315Y7037908D01*
X2585821Y7032574D01*
X2575407Y7022160D01*
X2575407Y7011746D01*
X2580741Y7001586D01*
X2585821Y6996252D01*
X2596235Y6991172D01*
X2627477Y6980758D01*
X2637891Y6975424D01*
X2642971Y6970344D01*
X2648305Y6959930D01*
X2648305Y6944436D01*
X2637891Y6934022D01*
X2622143Y6928688D01*
X2601315Y6928688D01*
X2585821Y6934022D01*
X2575407Y6944436D01*
X2692755Y7037908D02*
G01*
X2749905Y7037908D01*
X2718917Y6996252D01*
X2734411Y6996252D01*
X2744825Y6991172D01*
X2749905Y6985838D01*
X2755239Y6970344D01*
X2755239Y6959930D01*
X2749905Y6944436D01*
X2739745Y6934022D01*
X2723997Y6928688D01*
X2708503Y6928688D01*
X2692755Y6934022D01*
X2687675Y6939102D01*
X2682595Y6949516D01*
X2789529Y6975424D02*
G01*
X2883001Y6975424D01*
X2917291Y7037908D02*
G01*
X2917291Y6928688D01*
X2917291Y7037908D02*
G01*
X2953613Y7037908D01*
X2969361Y7032574D01*
X2979775Y7022160D01*
X2984855Y7011746D01*
X2989935Y6996252D01*
X2989935Y6970344D01*
X2984855Y6954596D01*
X2979775Y6944436D01*
X2969361Y6934022D01*
X2953613Y6928688D01*
X2917291Y6928688D01*
X3024225Y7037908D02*
G01*
X3024225Y6928688D01*
X3024225Y7037908D02*
G01*
X3091789Y7037908D01*
X3024225Y6985838D02*
G01*
X3065881Y6985838D01*
X3024225Y6928688D02*
G01*
X3091789Y6928688D01*
X3126079Y7037908D02*
G01*
X3167735Y6928688D01*
X3209391Y7037908D02*
G01*
X3167735Y6928688D01*
X3243681Y7037908D02*
G01*
X3243681Y6928688D01*
X3316325Y7037908D02*
G01*
X3243681Y6965010D01*
X3269589Y6991172D02*
G01*
X3316325Y6928688D01*
X3350615Y7037908D02*
G01*
X3350615Y6928688D01*
X3421227Y7037908D02*
G01*
X3421227Y6928688D01*
X3384905Y7037908D02*
G01*
X3457549Y7037908D01*
X3569817Y7011746D02*
G01*
X3564737Y7022160D01*
X3554323Y7032574D01*
X3543909Y7037908D01*
X3523081Y7037908D01*
X3512667Y7032574D01*
X3502253Y7022160D01*
X3497173Y7011746D01*
X3491839Y6996252D01*
X3491839Y6970344D01*
X3497173Y6954596D01*
X3502253Y6944436D01*
X3512667Y6934022D01*
X3523081Y6928688D01*
X3543909Y6928688D01*
X3554323Y6934022D01*
X3564737Y6944436D01*
X3569817Y6954596D01*
X3604107Y6975424D02*
G01*
X3697579Y6975424D01*
X3731869Y7017080D02*
G01*
X3742283Y7022160D01*
X3758031Y7037908D01*
X3758031Y6928688D01*
D11*
X2716027Y2514610D02*
G01*
X2909829Y2514610D01*
X2716027Y2514610D02*
G01*
X2716027Y2634752D01*
X2808229Y2514610D02*
G01*
X2808229Y2588524D01*
X2909829Y2514610D02*
G01*
X2909829Y2634752D01*
X2743713Y2824998D02*
G01*
X2725171Y2806456D01*
X2716027Y2778770D01*
X2716027Y2741940D01*
X2725171Y2714000D01*
X2743713Y2695712D01*
X2762255Y2695712D01*
X2780543Y2704856D01*
X2789941Y2714000D01*
X2799085Y2732542D01*
X2817627Y2787914D01*
X2826771Y2806456D01*
X2835915Y2815600D01*
X2854457Y2824998D01*
X2882143Y2824998D01*
X2900685Y2806456D01*
X2909829Y2778770D01*
X2909829Y2741940D01*
X2900685Y2714000D01*
X2882143Y2695712D01*
X2716027Y2885958D02*
G01*
X2909829Y2885958D01*
X2716027Y2885958D02*
G01*
X2716027Y2969016D01*
X2725171Y2996702D01*
X2734315Y3006100D01*
X2752857Y3015244D01*
X2780543Y3015244D01*
X2799085Y3006100D01*
X2808229Y2996702D01*
X2817627Y2969016D01*
X2817627Y2885958D01*
X2716027Y3094746D02*
G01*
X2716027Y3196346D01*
X2789941Y3140720D01*
X2789941Y3168660D01*
X2799085Y3186948D01*
X2808229Y3196346D01*
X2835915Y3205490D01*
X2854457Y3205490D01*
X2882143Y3196346D01*
X2900685Y3177804D01*
X2909829Y3150118D01*
X2909829Y3122432D01*
X2900685Y3094746D01*
X2891541Y3085348D01*
X2872999Y3076204D01*
X2762255Y3275594D02*
G01*
X2752857Y3275594D01*
X2734315Y3284992D01*
X2725171Y3294136D01*
X2716027Y3312678D01*
X2716027Y3349508D01*
X2725171Y3368050D01*
X2734315Y3377194D01*
X2752857Y3386592D01*
X2771399Y3386592D01*
X2789941Y3377194D01*
X2817627Y3358906D01*
X2909829Y3266450D01*
X2909829Y3395736D01*
X2826771Y3456696D02*
G01*
X2826771Y3623066D01*
X2743713Y3813312D02*
G01*
X2725171Y3794770D01*
X2716027Y3767084D01*
X2716027Y3730000D01*
X2725171Y3702314D01*
X2743713Y3684026D01*
X2762255Y3684026D01*
X2780543Y3693170D01*
X2789941Y3702314D01*
X2799085Y3720856D01*
X2817627Y3776228D01*
X2826771Y3794770D01*
X2835915Y3803914D01*
X2854457Y3813312D01*
X2882143Y3813312D01*
X2900685Y3794770D01*
X2909829Y3767084D01*
X2909829Y3730000D01*
X2900685Y3702314D01*
X2882143Y3684026D01*
X2716027Y3892560D02*
G01*
X2716027Y3994160D01*
X2789941Y3938788D01*
X2789941Y3966474D01*
X2799085Y3985016D01*
X2808229Y3994160D01*
X2835915Y4003558D01*
X2854457Y4003558D01*
X2882143Y3994160D01*
X2900685Y3975872D01*
X2909829Y3948186D01*
X2909829Y3920500D01*
X2900685Y3892560D01*
X2891541Y3883416D01*
X2872999Y3874272D01*
X2826771Y4064518D02*
G01*
X2826771Y4230634D01*
X2716027Y4291594D02*
G01*
X2909829Y4291594D01*
X2716027Y4291594D02*
G01*
X2716027Y4356364D01*
X2725171Y4384050D01*
X2743713Y4402592D01*
X2762255Y4411736D01*
X2789941Y4420880D01*
X2835915Y4420880D01*
X2863855Y4411736D01*
X2882143Y4402592D01*
X2900685Y4384050D01*
X2909829Y4356364D01*
X2909829Y4291594D01*
X2835915Y4481840D02*
G01*
X2835915Y4592838D01*
X2817627Y4592838D01*
X2799085Y4583440D01*
X2789941Y4574296D01*
X2780543Y4555754D01*
X2780543Y4528068D01*
X2789941Y4509780D01*
X2808229Y4491238D01*
X2835915Y4481840D01*
X2854457Y4481840D01*
X2882143Y4491238D01*
X2900685Y4509780D01*
X2909829Y4528068D01*
X2909829Y4555754D01*
X2900685Y4574296D01*
X2882143Y4592838D01*
X2780543Y4653798D02*
G01*
X2909829Y4709170D01*
X2780543Y4764542D02*
G01*
X2909829Y4709170D01*
X2716027Y4825502D02*
G01*
X2909829Y4825502D01*
X2716027Y4954788D02*
G01*
X2845313Y4825502D01*
X2799085Y4871730D02*
G01*
X2909829Y4954788D01*
X2716027Y5015748D02*
G01*
X2725171Y5025146D01*
X2716027Y5034290D01*
X2706629Y5025146D01*
X2716027Y5015748D01*
X2780543Y5025146D02*
G01*
X2909829Y5025146D01*
X2716027Y5122936D02*
G01*
X2872999Y5122936D01*
X2900685Y5132080D01*
X2909829Y5150622D01*
X2909829Y5169164D01*
X2780543Y5095250D02*
G01*
X2780543Y5160020D01*
X2762255Y5368554D02*
G01*
X2743713Y5359410D01*
X2725171Y5340868D01*
X2716027Y5322580D01*
X2716027Y5285496D01*
X2725171Y5266954D01*
X2743713Y5248666D01*
X2762255Y5239268D01*
X2789941Y5230124D01*
X2835915Y5230124D01*
X2863855Y5239268D01*
X2882143Y5248666D01*
X2900685Y5266954D01*
X2909829Y5285496D01*
X2909829Y5322580D01*
X2900685Y5340868D01*
X2882143Y5359410D01*
X2863855Y5368554D01*
X2826771Y5429514D02*
G01*
X2826771Y5595884D01*
X2752857Y5656844D02*
G01*
X2743713Y5675386D01*
X2716027Y5703072D01*
X2909829Y5703072D01*
X2780543Y5906272D02*
G01*
X2909829Y5961644D01*
X2780543Y6017016D02*
G01*
X2909829Y5961644D01*
X2752857Y6077976D02*
G01*
X2743713Y6096518D01*
X2716027Y6124204D01*
X2909829Y6124204D01*
X2863855Y6194308D02*
G01*
X2872999Y6185164D01*
X2882143Y6194308D01*
X2872999Y6203706D01*
X2863855Y6194308D01*
X2716027Y6320038D02*
G01*
X2725171Y6292352D01*
X2752857Y6273810D01*
X2799085Y6264666D01*
X2826771Y6264666D01*
X2872999Y6273810D01*
X2900685Y6292352D01*
X2909829Y6320038D01*
X2909829Y6338580D01*
X2900685Y6366266D01*
X2872999Y6384554D01*
X2826771Y6393952D01*
X2799085Y6393952D01*
X2752857Y6384554D01*
X2725171Y6366266D01*
X2716027Y6338580D01*
X2716027Y6320038D01*
D12*
X1805939Y6737324D02*
G01*
X1855978Y6737324D01*
X1828545Y6701002D01*
X1842262Y6701002D01*
X1851405Y6696430D01*
X1855978Y6691858D01*
X1860550Y6678396D01*
X1860550Y6669252D01*
X1855978Y6655536D01*
X1846834Y6646392D01*
X1833118Y6641820D01*
X1819402Y6641820D01*
X1805939Y6646392D01*
X1801368Y6650964D01*
X1796795Y6660108D01*
X1890521Y6737324D02*
G01*
X1926844Y6641820D01*
X1963165Y6737324D02*
G01*
X1926844Y6641820D01*
X2002281Y6737324D02*
G01*
X2052320Y6737324D01*
X2024888Y6701002D01*
X2038604Y6701002D01*
X2047747Y6696430D01*
X2052320Y6691858D01*
X2056891Y6678396D01*
X2056891Y6669252D01*
X2052320Y6655536D01*
X2043175Y6646392D01*
X2029459Y6641820D01*
X2015997Y6641820D01*
X2002281Y6646392D01*
X1997709Y6650964D01*
X1993138Y6660108D01*
X1805939Y6483324D02*
G01*
X1855978Y6483324D01*
X1828545Y6447002D01*
X1842262Y6447002D01*
X1851405Y6442430D01*
X1855978Y6437858D01*
X1860550Y6424396D01*
X1860550Y6415252D01*
X1855978Y6401536D01*
X1846834Y6392392D01*
X1833118Y6387820D01*
X1819402Y6387820D01*
X1805939Y6392392D01*
X1801368Y6396964D01*
X1796795Y6406108D01*
X1890521Y6483324D02*
G01*
X1926844Y6387820D01*
X1963165Y6483324D02*
G01*
X1926844Y6387820D01*
X2002281Y6483324D02*
G01*
X2052320Y6483324D01*
X2024888Y6447002D01*
X2038604Y6447002D01*
X2047747Y6442430D01*
X2052320Y6437858D01*
X2056891Y6424396D01*
X2056891Y6415252D01*
X2052320Y6401536D01*
X2043175Y6392392D01*
X2029459Y6387820D01*
X2015997Y6387820D01*
X2002281Y6392392D01*
X1997709Y6396964D01*
X1993138Y6406108D01*
X1842262Y5975324D02*
G01*
X1796795Y5911824D01*
X1864868Y5911824D01*
X1842262Y5975324D02*
G01*
X1842262Y5879820D01*
X1851405Y5721324D02*
G01*
X1805939Y5721324D01*
X1801368Y5680430D01*
X1805939Y5685002D01*
X1819402Y5689574D01*
X1833118Y5689574D01*
X1846834Y5685002D01*
X1855978Y5675858D01*
X1860550Y5662396D01*
X1860550Y5653252D01*
X1855978Y5639536D01*
X1846834Y5630392D01*
X1833118Y5625820D01*
X1819402Y5625820D01*
X1805939Y5630392D01*
X1801368Y5634964D01*
X1796795Y5644108D01*
X1851405Y5453862D02*
G01*
X1846834Y5462752D01*
X1833118Y5467324D01*
X1823973Y5467324D01*
X1810512Y5462752D01*
X1801368Y5449290D01*
X1796795Y5426430D01*
X1796795Y5403824D01*
X1801368Y5385536D01*
X1810512Y5376392D01*
X1823973Y5371820D01*
X1828545Y5371820D01*
X1842262Y5376392D01*
X1851405Y5385536D01*
X1855978Y5399252D01*
X1855978Y5403824D01*
X1851405Y5417286D01*
X1842262Y5426430D01*
X1828545Y5431002D01*
X1823973Y5431002D01*
X1810512Y5426430D01*
X1801368Y5417286D01*
X1796795Y5403824D01*
X1860550Y5213324D02*
G01*
X1815084Y5117820D01*
X1796795Y5213324D02*
G01*
X1860550Y5213324D01*
X1796795Y4941290D02*
G01*
X1805939Y4945862D01*
X1819402Y4959324D01*
X1819402Y4863820D01*
X1903984Y4959324D02*
G01*
X1858518Y4959324D01*
X1853945Y4918430D01*
X1858518Y4923002D01*
X1872234Y4927574D01*
X1885950Y4927574D01*
X1899412Y4923002D01*
X1908555Y4913858D01*
X1913128Y4900396D01*
X1913128Y4891252D01*
X1908555Y4877536D01*
X1899412Y4868392D01*
X1885950Y4863820D01*
X1872234Y4863820D01*
X1858518Y4868392D01*
X1853945Y4872964D01*
X1849628Y4882108D01*
X1796795Y4687290D02*
G01*
X1805939Y4691862D01*
X1819402Y4705324D01*
X1819402Y4609820D01*
X1903984Y4691862D02*
G01*
X1899412Y4700752D01*
X1885950Y4705324D01*
X1876805Y4705324D01*
X1863089Y4700752D01*
X1853945Y4687290D01*
X1849628Y4664430D01*
X1849628Y4641824D01*
X1853945Y4623536D01*
X1863089Y4614392D01*
X1876805Y4609820D01*
X1881378Y4609820D01*
X1895094Y4614392D01*
X1903984Y4623536D01*
X1908555Y4637252D01*
X1908555Y4641824D01*
X1903984Y4655286D01*
X1895094Y4664430D01*
X1881378Y4669002D01*
X1876805Y4669002D01*
X1863089Y4664430D01*
X1853945Y4655286D01*
X1849628Y4641824D01*
X1796795Y4433290D02*
G01*
X1805939Y4437862D01*
X1819402Y4451324D01*
X1819402Y4355820D01*
X1913128Y4451324D02*
G01*
X1867662Y4355820D01*
X1849628Y4451324D02*
G01*
X1913128Y4451324D01*
X1796795Y4179290D02*
G01*
X1805939Y4183862D01*
X1819402Y4197324D01*
X1819402Y4101820D01*
X1872234Y4197324D02*
G01*
X1858518Y4192752D01*
X1853945Y4183862D01*
X1853945Y4174718D01*
X1858518Y4165574D01*
X1867662Y4161002D01*
X1885950Y4156430D01*
X1899412Y4151858D01*
X1908555Y4142968D01*
X1913128Y4133824D01*
X1913128Y4120108D01*
X1908555Y4110964D01*
X1903984Y4106392D01*
X1890521Y4101820D01*
X1872234Y4101820D01*
X1858518Y4106392D01*
X1853945Y4110964D01*
X1849628Y4120108D01*
X1849628Y4133824D01*
X1853945Y4142968D01*
X1863089Y4151858D01*
X1876805Y4156430D01*
X1895094Y4161002D01*
X1903984Y4165574D01*
X1908555Y4174718D01*
X1908555Y4183862D01*
X1903984Y4192752D01*
X1890521Y4197324D01*
X1872234Y4197324D01*
X1819402Y3943324D02*
G01*
X1805939Y3938752D01*
X1801368Y3929862D01*
X1801368Y3920718D01*
X1805939Y3911574D01*
X1815084Y3907002D01*
X1833118Y3902430D01*
X1846834Y3897858D01*
X1855978Y3888968D01*
X1860550Y3879824D01*
X1860550Y3866108D01*
X1855978Y3856964D01*
X1851405Y3852392D01*
X1837689Y3847820D01*
X1819402Y3847820D01*
X1805939Y3852392D01*
X1801368Y3856964D01*
X1796795Y3866108D01*
X1796795Y3879824D01*
X1801368Y3888968D01*
X1810512Y3897858D01*
X1823973Y3902430D01*
X1842262Y3907002D01*
X1851405Y3911574D01*
X1855978Y3920718D01*
X1855978Y3929862D01*
X1851405Y3938752D01*
X1837689Y3943324D01*
X1819402Y3943324D01*
X1805939Y3689324D02*
G01*
X1855978Y3689324D01*
X1828545Y3653002D01*
X1842262Y3653002D01*
X1851405Y3648430D01*
X1855978Y3643858D01*
X1860550Y3630396D01*
X1860550Y3621252D01*
X1855978Y3607536D01*
X1846834Y3598392D01*
X1833118Y3593820D01*
X1819402Y3593820D01*
X1805939Y3598392D01*
X1801368Y3602964D01*
X1796795Y3612108D01*
X1842262Y3435324D02*
G01*
X1796795Y3371824D01*
X1864868Y3371824D01*
X1842262Y3435324D02*
G01*
X1842262Y3339820D01*
X1949450Y3421862D02*
G01*
X1944877Y3430752D01*
X1931415Y3435324D01*
X1922271Y3435324D01*
X1908555Y3430752D01*
X1899412Y3417290D01*
X1895094Y3394430D01*
X1895094Y3371824D01*
X1899412Y3353536D01*
X1908555Y3344392D01*
X1922271Y3339820D01*
X1926844Y3339820D01*
X1940559Y3344392D01*
X1949450Y3353536D01*
X1954022Y3367252D01*
X1954022Y3371824D01*
X1949450Y3385286D01*
X1940559Y3394430D01*
X1926844Y3399002D01*
X1922271Y3399002D01*
X1908555Y3394430D01*
X1899412Y3385286D01*
X1895094Y3371824D01*
X1855978Y3136874D02*
G01*
X1851405Y3123158D01*
X1842262Y3114268D01*
X1828545Y3109696D01*
X1823973Y3109696D01*
X1810512Y3114268D01*
X1801368Y3123158D01*
X1796795Y3136874D01*
X1796795Y3141446D01*
X1801368Y3155162D01*
X1810512Y3164052D01*
X1823973Y3168624D01*
X1828545Y3168624D01*
X1842262Y3164052D01*
X1851405Y3155162D01*
X1855978Y3136874D01*
X1855978Y3114268D01*
X1851405Y3091408D01*
X1842262Y3077692D01*
X1828545Y3073374D01*
X1819402Y3073374D01*
X1805939Y3077692D01*
X1801368Y3086836D01*
X1796795Y2909290D02*
G01*
X1805939Y2913862D01*
X1819402Y2927324D01*
X1819402Y2832074D01*
X1876805Y2927324D02*
G01*
X1863089Y2922752D01*
X1853945Y2909290D01*
X1849628Y2886430D01*
X1849628Y2872968D01*
X1853945Y2850108D01*
X1863089Y2836392D01*
X1876805Y2832074D01*
X1885950Y2832074D01*
X1899412Y2836392D01*
X1908555Y2850108D01*
X1913128Y2872968D01*
X1913128Y2886430D01*
X1908555Y2909290D01*
X1899412Y2922752D01*
X1885950Y2927324D01*
X1876805Y2927324D01*
X1796795Y2655290D02*
G01*
X1805939Y2659862D01*
X1819402Y2673324D01*
X1819402Y2578074D01*
X1849628Y2655290D02*
G01*
X1858518Y2659862D01*
X1872234Y2673324D01*
X1872234Y2578074D01*
X1796795Y2401290D02*
G01*
X1805939Y2405862D01*
X1819402Y2419324D01*
X1819402Y2324074D01*
X1853945Y2396718D02*
G01*
X1853945Y2401290D01*
X1858518Y2410434D01*
X1863089Y2414752D01*
X1872234Y2419324D01*
X1890521Y2419324D01*
X1899412Y2414752D01*
X1903984Y2410434D01*
X1908555Y2401290D01*
X1908555Y2392146D01*
X1903984Y2383002D01*
X1895094Y2369286D01*
X1849628Y2324074D01*
X1913128Y2324074D01*
X1796795Y2147290D02*
G01*
X1805939Y2151862D01*
X1819402Y2165324D01*
X1819402Y2070074D01*
X1858518Y2165324D02*
G01*
X1908555Y2165324D01*
X1881378Y2129002D01*
X1895094Y2129002D01*
X1903984Y2124430D01*
X1908555Y2119858D01*
X1913128Y2106396D01*
X1913128Y2097252D01*
X1908555Y2083536D01*
X1899412Y2074392D01*
X1885950Y2070074D01*
X1872234Y2070074D01*
X1858518Y2074392D01*
X1853945Y2078964D01*
X1849628Y2088108D01*
X1796795Y1893290D02*
G01*
X1805939Y1897862D01*
X1819402Y1911324D01*
X1819402Y1816074D01*
X1895094Y1911324D02*
G01*
X1849628Y1847824D01*
X1917700Y1847824D01*
X1895094Y1911324D02*
G01*
X1895094Y1816074D01*
X1851405Y1644624D02*
G01*
X1805939Y1644624D01*
X1801368Y1603730D01*
X1805939Y1608302D01*
X1819402Y1612874D01*
X1833118Y1612874D01*
X1846834Y1608302D01*
X1855978Y1599158D01*
X1860550Y1585696D01*
X1860550Y1576552D01*
X1855978Y1562836D01*
X1846834Y1553692D01*
X1833118Y1549374D01*
X1819402Y1549374D01*
X1805939Y1553692D01*
X1801368Y1558264D01*
X1796795Y1567408D01*
X1890521Y1644624D02*
G01*
X1926844Y1549374D01*
X1963165Y1644624D02*
G01*
X1926844Y1549374D01*
X1864868Y1380718D02*
G01*
X1860550Y1389862D01*
X1851405Y1398752D01*
X1842262Y1403324D01*
X1823973Y1403324D01*
X1815084Y1398752D01*
X1805939Y1389862D01*
X1801368Y1380718D01*
X1796795Y1367002D01*
X1796795Y1344396D01*
X1801368Y1330680D01*
X1805939Y1321536D01*
X1815084Y1312392D01*
X1823973Y1308074D01*
X1842262Y1308074D01*
X1851405Y1312392D01*
X1860550Y1321536D01*
X1864868Y1330680D01*
X1864868Y1344396D01*
X1842262Y1344396D02*
G01*
X1864868Y1344396D01*
X1895094Y1403324D02*
G01*
X1895094Y1308074D01*
X1895094Y1403324D02*
G01*
X1958593Y1308074D01*
X1958593Y1403324D02*
G01*
X1958593Y1308074D01*
X1988565Y1403324D02*
G01*
X1988565Y1308074D01*
X1988565Y1403324D02*
G01*
X2020315Y1403324D01*
X2034031Y1398752D01*
X2043175Y1389862D01*
X2047747Y1380718D01*
X2052320Y1367002D01*
X2052320Y1344396D01*
X2047747Y1330680D01*
X2043175Y1321536D01*
X2034031Y1312392D01*
X2020315Y1308074D01*
X1988565Y1308074D01*
X1796795Y6229324D02*
G01*
X1796795Y6133820D01*
X1796795Y6229324D02*
G01*
X1837689Y6229324D01*
X1851405Y6224752D01*
X1855978Y6220180D01*
X1860550Y6211290D01*
X1860550Y6202146D01*
X1855978Y6193002D01*
X1851405Y6188430D01*
X1837689Y6183858D01*
X1796795Y6183858D01*
X1828545Y6183858D02*
G01*
X1860550Y6133820D01*
X1954022Y6215862D02*
G01*
X1944877Y6224752D01*
X1931415Y6229324D01*
X1913128Y6229324D01*
X1899412Y6224752D01*
X1890521Y6215862D01*
X1890521Y6206718D01*
X1895094Y6197574D01*
X1899412Y6193002D01*
X1908555Y6188430D01*
X1935988Y6179286D01*
X1944877Y6174968D01*
X1949450Y6170396D01*
X1954022Y6161252D01*
X1954022Y6147536D01*
X1944877Y6138392D01*
X1931415Y6133820D01*
X1913128Y6133820D01*
X1899412Y6138392D01*
X1890521Y6147536D01*
X2015997Y6229324D02*
G01*
X2015997Y6133820D01*
X1983993Y6229324D02*
G01*
X2047747Y6229324D01*
X3617468Y6714718D02*
G01*
X3613150Y6723862D01*
X3604006Y6732752D01*
X3594861Y6737324D01*
X3576574Y6737324D01*
X3567684Y6732752D01*
X3558540Y6723862D01*
X3553968Y6714718D01*
X3549395Y6701002D01*
X3549395Y6678396D01*
X3553968Y6664680D01*
X3558540Y6655536D01*
X3567684Y6646392D01*
X3576574Y6641820D01*
X3594861Y6641820D01*
X3604006Y6646392D01*
X3613150Y6655536D01*
X3617468Y6664680D01*
X3617468Y6678396D01*
X3594861Y6678396D02*
G01*
X3617468Y6678396D01*
X3647693Y6737324D02*
G01*
X3647693Y6641820D01*
X3647693Y6737324D02*
G01*
X3711193Y6641820D01*
X3711193Y6737324D02*
G01*
X3711193Y6641820D01*
X3741165Y6737324D02*
G01*
X3741165Y6641820D01*
X3741165Y6737324D02*
G01*
X3772915Y6737324D01*
X3786631Y6732752D01*
X3795775Y6723862D01*
X3800347Y6714718D01*
X3804920Y6701002D01*
X3804920Y6678396D01*
X3800347Y6664680D01*
X3795775Y6655536D01*
X3786631Y6646392D01*
X3772915Y6641820D01*
X3741165Y6641820D01*
X3670045Y6496024D02*
G01*
X3670045Y6400520D01*
X3638295Y6496024D02*
G01*
X3702050Y6496024D01*
X3732022Y6496024D02*
G01*
X3795522Y6400520D01*
X3795522Y6496024D02*
G01*
X3732022Y6400520D01*
X3638295Y6242024D02*
G01*
X3638295Y6146520D01*
X3638295Y6242024D02*
G01*
X3679190Y6242024D01*
X3692906Y6237452D01*
X3697477Y6232880D01*
X3702050Y6223990D01*
X3702050Y6214846D01*
X3697477Y6205702D01*
X3692906Y6201130D01*
X3679190Y6196558D01*
X3638295Y6196558D01*
X3670045Y6196558D02*
G01*
X3702050Y6146520D01*
X3732022Y6242024D02*
G01*
X3795522Y6146520D01*
X3795522Y6242024D02*
G01*
X3732022Y6146520D01*
X3777995Y5969990D02*
G01*
X3787140Y5974562D01*
X3800602Y5988024D01*
X3800602Y5892520D01*
X3744468Y5711418D02*
G01*
X3744468Y5715990D01*
X3749040Y5724880D01*
X3753611Y5729452D01*
X3762502Y5734024D01*
X3780790Y5734024D01*
X3789934Y5729452D01*
X3794506Y5724880D01*
X3799077Y5715990D01*
X3799077Y5706846D01*
X3794506Y5697702D01*
X3785361Y5683986D01*
X3739895Y5638520D01*
X3803650Y5638520D01*
X3683761Y5480024D02*
G01*
X3638295Y5416524D01*
X3706368Y5416524D01*
X3683761Y5480024D02*
G01*
X3683761Y5384520D01*
X3740911Y5457418D02*
G01*
X3740911Y5461990D01*
X3745484Y5470880D01*
X3750056Y5475452D01*
X3759200Y5480024D01*
X3777488Y5480024D01*
X3786377Y5475452D01*
X3790950Y5470880D01*
X3795522Y5461990D01*
X3795522Y5452846D01*
X3790950Y5443702D01*
X3781806Y5429986D01*
X3736593Y5384520D01*
X3800093Y5384520D01*
X3721861Y5226024D02*
G01*
X3676395Y5162524D01*
X3744468Y5162524D01*
X3721861Y5226024D02*
G01*
X3721861Y5130520D01*
X3774693Y5207990D02*
G01*
X3783584Y5212562D01*
X3797300Y5226024D01*
X3797300Y5130520D01*
X3683761Y4972024D02*
G01*
X3638295Y4908524D01*
X3706368Y4908524D01*
X3683761Y4972024D02*
G01*
X3683761Y4876520D01*
X3763772Y4972024D02*
G01*
X3750056Y4967452D01*
X3740911Y4953990D01*
X3736593Y4931130D01*
X3736593Y4917668D01*
X3740911Y4894808D01*
X3750056Y4881092D01*
X3763772Y4876520D01*
X3772915Y4876520D01*
X3786377Y4881092D01*
X3795522Y4894808D01*
X3800093Y4917668D01*
X3800093Y4931130D01*
X3795522Y4953990D01*
X3786377Y4967452D01*
X3772915Y4972024D01*
X3763772Y4972024D01*
X3660140Y4718024D02*
G01*
X3710177Y4718024D01*
X3682745Y4681702D01*
X3696461Y4681702D01*
X3705606Y4677130D01*
X3710177Y4672558D01*
X3714750Y4659096D01*
X3714750Y4649952D01*
X3710177Y4636236D01*
X3701034Y4627092D01*
X3687318Y4622520D01*
X3673602Y4622520D01*
X3660140Y4627092D01*
X3655568Y4631664D01*
X3650995Y4640808D01*
X3803650Y4686274D02*
G01*
X3799077Y4672558D01*
X3790188Y4663668D01*
X3776472Y4659096D01*
X3771900Y4659096D01*
X3758184Y4663668D01*
X3749293Y4672558D01*
X3744722Y4686274D01*
X3744722Y4690846D01*
X3749293Y4704562D01*
X3758184Y4713452D01*
X3771900Y4718024D01*
X3776472Y4718024D01*
X3790188Y4713452D01*
X3799077Y4704562D01*
X3803650Y4686274D01*
X3803650Y4663668D01*
X3799077Y4640808D01*
X3790188Y4627092D01*
X3776472Y4622520D01*
X3767327Y4622520D01*
X3753611Y4627092D01*
X3749293Y4636236D01*
X3647440Y4464024D02*
G01*
X3697477Y4464024D01*
X3670045Y4427702D01*
X3683761Y4427702D01*
X3692906Y4423130D01*
X3697477Y4418558D01*
X3702050Y4405096D01*
X3702050Y4395952D01*
X3697477Y4382236D01*
X3688334Y4373092D01*
X3674618Y4368520D01*
X3660902Y4368520D01*
X3647440Y4373092D01*
X3642868Y4377664D01*
X3638295Y4386808D01*
X3754627Y4464024D02*
G01*
X3740911Y4459452D01*
X3736593Y4450562D01*
X3736593Y4441418D01*
X3740911Y4432274D01*
X3750056Y4427702D01*
X3768343Y4423130D01*
X3781806Y4418558D01*
X3790950Y4409668D01*
X3795522Y4400524D01*
X3795522Y4386808D01*
X3790950Y4377664D01*
X3786377Y4373092D01*
X3772915Y4368520D01*
X3754627Y4368520D01*
X3740911Y4373092D01*
X3736593Y4377664D01*
X3732022Y4386808D01*
X3732022Y4400524D01*
X3736593Y4409668D01*
X3745484Y4418558D01*
X3759200Y4423130D01*
X3777488Y4427702D01*
X3786377Y4432274D01*
X3790950Y4441418D01*
X3790950Y4450562D01*
X3786377Y4459452D01*
X3772915Y4464024D01*
X3754627Y4464024D01*
X3647440Y4210024D02*
G01*
X3697477Y4210024D01*
X3670045Y4173702D01*
X3683761Y4173702D01*
X3692906Y4169130D01*
X3697477Y4164558D01*
X3702050Y4151096D01*
X3702050Y4141952D01*
X3697477Y4128236D01*
X3688334Y4119092D01*
X3674618Y4114520D01*
X3660902Y4114520D01*
X3647440Y4119092D01*
X3642868Y4123664D01*
X3638295Y4132808D01*
X3795522Y4210024D02*
G01*
X3750056Y4114520D01*
X3732022Y4210024D02*
G01*
X3795522Y4210024D01*
X3660140Y3956024D02*
G01*
X3710177Y3956024D01*
X3682745Y3919702D01*
X3696461Y3919702D01*
X3705606Y3915130D01*
X3710177Y3910558D01*
X3714750Y3897096D01*
X3714750Y3887952D01*
X3710177Y3874236D01*
X3701034Y3865092D01*
X3687318Y3860520D01*
X3673602Y3860520D01*
X3660140Y3865092D01*
X3655568Y3869664D01*
X3650995Y3878808D01*
X3799077Y3942562D02*
G01*
X3794506Y3951452D01*
X3781043Y3956024D01*
X3771900Y3956024D01*
X3758184Y3951452D01*
X3749293Y3937990D01*
X3744722Y3915130D01*
X3744722Y3892524D01*
X3749293Y3874236D01*
X3758184Y3865092D01*
X3771900Y3860520D01*
X3776472Y3860520D01*
X3790188Y3865092D01*
X3799077Y3874236D01*
X3803650Y3887952D01*
X3803650Y3892524D01*
X3799077Y3905986D01*
X3790188Y3915130D01*
X3776472Y3919702D01*
X3771900Y3919702D01*
X3758184Y3915130D01*
X3749293Y3905986D01*
X3744722Y3892524D01*
X3660140Y3702024D02*
G01*
X3710177Y3702024D01*
X3682745Y3665702D01*
X3696461Y3665702D01*
X3705606Y3661130D01*
X3710177Y3656558D01*
X3714750Y3643096D01*
X3714750Y3633952D01*
X3710177Y3620236D01*
X3701034Y3611092D01*
X3687318Y3606520D01*
X3673602Y3606520D01*
X3660140Y3611092D01*
X3655568Y3615664D01*
X3650995Y3624808D01*
X3799077Y3702024D02*
G01*
X3753611Y3702024D01*
X3749293Y3661130D01*
X3753611Y3665702D01*
X3767327Y3670274D01*
X3781043Y3670274D01*
X3794506Y3665702D01*
X3803650Y3656558D01*
X3808222Y3643096D01*
X3808222Y3633952D01*
X3803650Y3620236D01*
X3794506Y3611092D01*
X3781043Y3606520D01*
X3767327Y3606520D01*
X3753611Y3611092D01*
X3749293Y3615664D01*
X3744722Y3624808D01*
X3767074Y3448024D02*
G01*
X3753611Y3443452D01*
X3744468Y3429990D01*
X3739895Y3407130D01*
X3739895Y3393668D01*
X3744468Y3370808D01*
X3753611Y3357092D01*
X3767074Y3352774D01*
X3776218Y3352774D01*
X3789934Y3357092D01*
X3799077Y3370808D01*
X3803650Y3393668D01*
X3803650Y3407130D01*
X3799077Y3429990D01*
X3789934Y3443452D01*
X3776218Y3448024D01*
X3767074Y3448024D01*
X3683761Y3194024D02*
G01*
X3638295Y3130524D01*
X3706368Y3130524D01*
X3683761Y3194024D02*
G01*
X3683761Y3098774D01*
X3790950Y3194024D02*
G01*
X3745484Y3194024D01*
X3740911Y3153130D01*
X3745484Y3157702D01*
X3759200Y3162274D01*
X3772915Y3162274D01*
X3786377Y3157702D01*
X3795522Y3148558D01*
X3800093Y3135096D01*
X3800093Y3125952D01*
X3795522Y3112236D01*
X3786377Y3103092D01*
X3772915Y3098774D01*
X3759200Y3098774D01*
X3745484Y3103092D01*
X3740911Y3107664D01*
X3736593Y3116808D01*
X3683761Y2940024D02*
G01*
X3638295Y2876524D01*
X3706368Y2876524D01*
X3683761Y2940024D02*
G01*
X3683761Y2844774D01*
X3759200Y2940024D02*
G01*
X3745484Y2935452D01*
X3740911Y2926562D01*
X3740911Y2917418D01*
X3745484Y2908274D01*
X3754627Y2903702D01*
X3772915Y2899130D01*
X3786377Y2894558D01*
X3795522Y2885668D01*
X3800093Y2876524D01*
X3800093Y2862808D01*
X3795522Y2853664D01*
X3790950Y2849092D01*
X3777488Y2844774D01*
X3759200Y2844774D01*
X3745484Y2849092D01*
X3740911Y2853664D01*
X3736593Y2862808D01*
X3736593Y2876524D01*
X3740911Y2885668D01*
X3750056Y2894558D01*
X3763772Y2899130D01*
X3781806Y2903702D01*
X3790950Y2908274D01*
X3795522Y2917418D01*
X3795522Y2926562D01*
X3790950Y2935452D01*
X3777488Y2940024D01*
X3759200Y2940024D01*
X3683761Y2686024D02*
G01*
X3638295Y2622524D01*
X3706368Y2622524D01*
X3683761Y2686024D02*
G01*
X3683761Y2590774D01*
X3800093Y2686024D02*
G01*
X3754627Y2590774D01*
X3736593Y2686024D02*
G01*
X3800093Y2686024D01*
X3693668Y2422118D02*
G01*
X3693668Y2426690D01*
X3698240Y2435834D01*
X3702811Y2440152D01*
X3711702Y2444724D01*
X3729990Y2444724D01*
X3739134Y2440152D01*
X3743706Y2435834D01*
X3748277Y2426690D01*
X3748277Y2417546D01*
X3743706Y2408402D01*
X3734561Y2394686D01*
X3689095Y2349474D01*
X3752850Y2349474D01*
X3782822Y2426690D02*
G01*
X3791711Y2431262D01*
X3805427Y2444724D01*
X3805427Y2349474D01*
X3655568Y2155418D02*
G01*
X3655568Y2159990D01*
X3660140Y2169134D01*
X3664711Y2173452D01*
X3673602Y2178024D01*
X3691890Y2178024D01*
X3701034Y2173452D01*
X3705606Y2169134D01*
X3710177Y2159990D01*
X3710177Y2150846D01*
X3705606Y2141702D01*
X3696461Y2127986D01*
X3650995Y2082774D01*
X3714750Y2082774D01*
X3771900Y2178024D02*
G01*
X3758184Y2173452D01*
X3749293Y2159990D01*
X3744722Y2137130D01*
X3744722Y2123668D01*
X3749293Y2100808D01*
X3758184Y2087092D01*
X3771900Y2082774D01*
X3781043Y2082774D01*
X3794506Y2087092D01*
X3803650Y2100808D01*
X3808222Y2123668D01*
X3808222Y2137130D01*
X3803650Y2159990D01*
X3794506Y2173452D01*
X3781043Y2178024D01*
X3771900Y2178024D01*
X3689095Y1905990D02*
G01*
X3698240Y1910562D01*
X3711702Y1924024D01*
X3711702Y1828774D01*
X3800856Y1892274D02*
G01*
X3796284Y1878558D01*
X3787393Y1869668D01*
X3773677Y1865096D01*
X3769106Y1865096D01*
X3755390Y1869668D01*
X3746245Y1878558D01*
X3741927Y1892274D01*
X3741927Y1896846D01*
X3746245Y1910562D01*
X3755390Y1919452D01*
X3769106Y1924024D01*
X3773677Y1924024D01*
X3787393Y1919452D01*
X3796284Y1910562D01*
X3800856Y1892274D01*
X3800856Y1869668D01*
X3796284Y1846808D01*
X3787393Y1833092D01*
X3773677Y1828774D01*
X3764534Y1828774D01*
X3750818Y1833092D01*
X3746245Y1842236D01*
X3617468Y1647418D02*
G01*
X3613150Y1656562D01*
X3604006Y1665452D01*
X3594861Y1670024D01*
X3576574Y1670024D01*
X3567684Y1665452D01*
X3558540Y1656562D01*
X3553968Y1647418D01*
X3549395Y1633702D01*
X3549395Y1611096D01*
X3553968Y1597380D01*
X3558540Y1588236D01*
X3567684Y1579092D01*
X3576574Y1574774D01*
X3594861Y1574774D01*
X3604006Y1579092D01*
X3613150Y1588236D01*
X3617468Y1597380D01*
X3617468Y1611096D01*
X3594861Y1611096D02*
G01*
X3617468Y1611096D01*
X3647693Y1670024D02*
G01*
X3647693Y1574774D01*
X3647693Y1670024D02*
G01*
X3711193Y1574774D01*
X3711193Y1670024D02*
G01*
X3711193Y1574774D01*
X3741165Y1670024D02*
G01*
X3741165Y1574774D01*
X3741165Y1670024D02*
G01*
X3772915Y1670024D01*
X3786631Y1665452D01*
X3795775Y1656562D01*
X3800347Y1647418D01*
X3804920Y1633702D01*
X3804920Y1611096D01*
X3800347Y1597380D01*
X3795775Y1588236D01*
X3786631Y1579092D01*
X3772915Y1574774D01*
X3741165Y1574774D01*
X3617468Y1393418D02*
G01*
X3613150Y1402562D01*
X3604006Y1411452D01*
X3594861Y1416024D01*
X3576574Y1416024D01*
X3567684Y1411452D01*
X3558540Y1402562D01*
X3553968Y1393418D01*
X3549395Y1379702D01*
X3549395Y1357096D01*
X3553968Y1343380D01*
X3558540Y1334236D01*
X3567684Y1325092D01*
X3576574Y1320774D01*
X3594861Y1320774D01*
X3604006Y1325092D01*
X3613150Y1334236D01*
X3617468Y1343380D01*
X3617468Y1357096D01*
X3594861Y1357096D02*
G01*
X3617468Y1357096D01*
X3647693Y1416024D02*
G01*
X3647693Y1320774D01*
X3647693Y1416024D02*
G01*
X3711193Y1320774D01*
X3711193Y1416024D02*
G01*
X3711193Y1320774D01*
X3741165Y1416024D02*
G01*
X3741165Y1320774D01*
X3741165Y1416024D02*
G01*
X3772915Y1416024D01*
X3786631Y1411452D01*
X3795775Y1402562D01*
X3800347Y1393418D01*
X3804920Y1379702D01*
X3804920Y1357096D01*
X3800347Y1343380D01*
X3795775Y1334236D01*
X3786631Y1325092D01*
X3772915Y1320774D01*
X3741165Y1320774D01*
X2050795Y1009370D02*
G01*
X2050795Y907008D01*
X2057654Y886688D01*
X2071370Y872972D01*
X2091690Y866114D01*
X2105406Y866114D01*
X2125725Y872972D01*
X2139441Y886688D01*
X2146300Y907008D01*
X2146300Y1009370D01*
X2245868Y1009370D02*
G01*
X2191258Y866114D01*
X2245868Y1009370D02*
G01*
X2300224Y866114D01*
X2211831Y913866D02*
G01*
X2279904Y913866D01*
X2345436Y1009370D02*
G01*
X2345436Y866114D01*
X2345436Y1009370D02*
G01*
X2406650Y1009370D01*
X2427224Y1002512D01*
X2434081Y995654D01*
X2440686Y982192D01*
X2440686Y968476D01*
X2434081Y954760D01*
X2427224Y947902D01*
X2406650Y941298D01*
X2345436Y941298D01*
X2393188Y941298D02*
G01*
X2440686Y866114D01*
X2533650Y1009370D02*
G01*
X2533650Y866114D01*
X2485897Y1009370D02*
G01*
X2581147Y1009370D01*
X3181095Y1009370D02*
G01*
X3181095Y907008D01*
X3187954Y886688D01*
X3201670Y872972D01*
X3221990Y866114D01*
X3235706Y866114D01*
X3256025Y872972D01*
X3269741Y886688D01*
X3276600Y907008D01*
X3276600Y1009370D01*
X3417061Y988796D02*
G01*
X3403345Y1002512D01*
X3383025Y1009370D01*
X3355593Y1009370D01*
X3335274Y1002512D01*
X3321558Y988796D01*
X3321558Y975334D01*
X3328415Y961618D01*
X3335274Y954760D01*
X3348736Y947902D01*
X3389629Y934440D01*
X3403345Y927582D01*
X3410204Y920724D01*
X3417061Y907008D01*
X3417061Y886688D01*
X3403345Y872972D01*
X3383025Y866114D01*
X3355593Y866114D01*
X3335274Y872972D01*
X3321558Y886688D01*
X3462020Y1009370D02*
G01*
X3462020Y866114D01*
X3462020Y1009370D02*
G01*
X3523488Y1009370D01*
X3543808Y1002512D01*
X3550665Y995654D01*
X3557524Y982192D01*
X3557524Y968476D01*
X3550665Y954760D01*
X3543808Y947902D01*
X3523488Y941298D01*
X3462020Y941298D02*
G01*
X3523488Y941298D01*
X3543808Y934440D01*
X3550665Y927582D01*
X3557524Y913866D01*
X3557524Y893546D01*
X3550665Y879830D01*
X3543808Y872972D01*
X3523488Y866114D01*
X3462020Y866114D01*
D10*
X3111500Y1842515D02*
G01*
X3111500Y1733550D01*
X3145790Y1842515D02*
G01*
X3145790Y1733550D01*
X3145790Y1842515D02*
G01*
X3192525Y1842515D01*
X3208020Y1837436D01*
X3213354Y1832102D01*
X3218434Y1821687D01*
X3218434Y1811273D01*
X3213354Y1800860D01*
X3208020Y1795779D01*
X3192525Y1790700D01*
X3145790Y1790700D01*
X3182111Y1790700D02*
G01*
X3218434Y1733550D01*
X3252724Y1696973D02*
G01*
X3346450Y1696973D01*
X3380740Y1842515D02*
G01*
X3380740Y1733550D01*
X3380740Y1842515D02*
G01*
X3427475Y1842515D01*
X3442970Y1837436D01*
X3448050Y1832102D01*
X3453384Y1821687D01*
X3453384Y1811273D01*
X3448050Y1800860D01*
X3442970Y1795779D01*
X3427475Y1790700D01*
X3380740Y1790700D01*
X3417061Y1790700D02*
G01*
X3453384Y1733550D01*
X3487674Y1842515D02*
G01*
X3560318Y1733550D01*
X3560318Y1842515D02*
G01*
X3487674Y1733550D01*
X4164584Y8674100D02*
G01*
X4273550Y8674100D01*
X4164584Y8674100D02*
G01*
X4273550Y8746744D01*
X4164584Y8746744D02*
G01*
X4273550Y8746744D01*
X4164584Y8781034D02*
G01*
X4273550Y8781034D01*
X4164584Y8781034D02*
G01*
X4164584Y8848597D01*
X4216400Y8781034D02*
G01*
X4216400Y8822689D01*
X4190491Y8960865D02*
G01*
X4180077Y8955786D01*
X4169663Y8945371D01*
X4164584Y8934958D01*
X4164584Y8914129D01*
X4169663Y8903715D01*
X4180077Y8893302D01*
X4190491Y8888221D01*
X4206240Y8882887D01*
X4232147Y8882887D01*
X4247641Y8888221D01*
X4258056Y8893302D01*
X4268470Y8903715D01*
X4273550Y8914129D01*
X4273550Y8934958D01*
X4268470Y8945371D01*
X4258056Y8955786D01*
X4247641Y8960865D01*
X1369821Y5553455D02*
G01*
X1380236Y5563870D01*
X1385315Y5579363D01*
X1385315Y5600192D01*
X1380236Y5615686D01*
X1369821Y5626100D01*
X1359407Y5626100D01*
X1348994Y5621020D01*
X1343660Y5615686D01*
X1338579Y5605271D01*
X1328165Y5574029D01*
X1323086Y5563870D01*
X1317752Y5558536D01*
X1307337Y5553455D01*
X1291844Y5553455D01*
X1281429Y5563870D01*
X1276350Y5579363D01*
X1276350Y5600192D01*
X1281429Y5615686D01*
X1291844Y5626100D01*
X1385315Y5519165D02*
G01*
X1276350Y5493004D01*
X1385315Y5467095D02*
G01*
X1276350Y5493004D01*
X1385315Y5467095D02*
G01*
X1276350Y5441187D01*
X1385315Y5415279D02*
G01*
X1276350Y5441187D01*
X1385315Y5380989D02*
G01*
X1276350Y5380989D01*
X1385315Y5310123D02*
G01*
X1276350Y5310123D01*
X1385315Y5346700D02*
G01*
X1385315Y5273802D01*
X1359407Y5161534D02*
G01*
X1369821Y5166868D01*
X1380236Y5177281D01*
X1385315Y5187695D01*
X1385315Y5208270D01*
X1380236Y5218684D01*
X1369821Y5229097D01*
X1359407Y5234431D01*
X1343660Y5239512D01*
X1317752Y5239512D01*
X1302257Y5234431D01*
X1291844Y5229097D01*
X1281429Y5218684D01*
X1276350Y5208270D01*
X1276350Y5187695D01*
X1281429Y5177281D01*
X1291844Y5166868D01*
X1302257Y5161534D01*
X1385315Y5127244D02*
G01*
X1276350Y5127244D01*
X1385315Y5054600D02*
G01*
X1276350Y5054600D01*
X1333500Y5127244D02*
G01*
X1333500Y5054600D01*
X526694Y9917506D02*
G01*
X2241905Y9917506D01*
X2241905Y8959519D01*
X2241905Y8802293D01*
X526694Y8802293D01*
X526694Y9917506D01*
D13*
X1981301Y4888611D02*
G01*
X3581298Y4888611D01*
X3581298Y3188614D01*
X1981301Y3188614D01*
X1981301Y4888611D01*
X3573099Y9690097D02*
G01*
X2943097Y9690097D01*
X3583940Y9890757D02*
G01*
X3583940Y9690762D01*
X2943859Y9890760D02*
G01*
X3573861Y9890760D01*
X2943859Y9692637D02*
G01*
X2943859Y9892639D01*
X2967400Y9398002D02*
G01*
X3597402Y9398002D01*
X2956559Y9197342D02*
G01*
X2956559Y9397337D01*
X3596640Y9197339D02*
G01*
X2966638Y9197339D01*
X3596640Y9395462D02*
G01*
X3596640Y9195460D01*
X2372359Y1356360D02*
G01*
X2423159Y1356360D01*
X2473959Y1356360D01*
X2372359Y1435100D02*
G01*
X2423159Y1435100D01*
X2473959Y1435100D01*
X2423159Y1435100D02*
G01*
X2423159Y1534160D01*
X2423159Y1254760D02*
G01*
X2423159Y1356360D01*
X2344420Y1414779D02*
G01*
X2293620Y1465579D01*
X2293620Y1414779D01*
X2344420Y1465579D01*
X2293620Y1465579D01*
X2082800Y1625600D02*
G01*
X2202179Y1625600D01*
X2463800Y1625600D02*
G01*
X2362200Y1625600D01*
X4445000Y4045991D02*
G01*
X4445000Y4045991D01*
X4699000Y4045991D01*
X4710988Y5609361D01*
X4409643Y5609361D01*
X4406468Y5677712D01*
X4781550Y5689980D02*
G01*
X4781550Y3989984D01*
X4186758Y3989984D01*
X4186758Y5689980D01*
X4781550Y5689980D01*
X4262729Y5685129D02*
G01*
X4262729Y5505221D01*
X4188637Y5505221D01*
X4188637Y5685129D01*
X4262729Y5685129D01*
X4318000Y5315991D02*
G01*
X4318000Y4335983D01*
X4192320Y4335983D01*
X4192320Y5315991D01*
X4318000Y5315991D01*
X4264990Y4172991D02*
G01*
X4264990Y3993083D01*
X4190898Y3993083D01*
X4190898Y4172991D01*
X4264990Y4172991D01*
X1550111Y7449286D02*
G01*
X4057395Y7449286D01*
X4057395Y578612D01*
X1550111Y578612D01*
X1550111Y7449286D01*
X3078479Y1270000D02*
G01*
X3027679Y1470660D01*
X3027679Y1470660D02*
G01*
X3078479Y1671320D01*
X3078479Y1671320D02*
G01*
X3576320Y1671320D01*
X3576320Y1671320D02*
G01*
X3627120Y1470660D01*
X3627120Y1470660D02*
G01*
X3576320Y1270000D01*
X3576320Y1270000D02*
G01*
X3528059Y1270000D01*
X3528059Y1270000D02*
G01*
X3126740Y1270000D01*
X3126740Y1270000D02*
G01*
X3078479Y1270000D01*
D10*
X3696616Y2934616D02*
G01*
X3696616Y1129380D01*
X1891380Y1129380D01*
X1891380Y2934616D01*
X3696616Y2934616D01*
D14*
X4330700Y9359900D02*
G01*
X4406900Y9359900D01*
X4406900Y9563100D01*
X4330700Y9563100D01*
X4330700Y9359900D01*
X4406900Y8039100D02*
G01*
X4330700Y8039100D01*
X4330700Y8216900D01*
X4406900Y8216900D01*
X4406900Y8039100D01*
X4940300Y8039100D01*
X4940300Y9563100D01*
X4330700Y9563100D01*
X4330700Y8039100D01*
X4330700Y8369300D02*
G01*
X4406900Y8369300D01*
X4406900Y9207500D01*
X4330700Y9207500D01*
X4330700Y8369300D01*
X4559300Y8039100D02*
G01*
X4559300Y8115300D01*
X4864100Y8115300D01*
X4864100Y9486900D01*
X4559300Y9486900D01*
X4559300Y9563100D01*
X4309618Y8258047D02*
G01*
X4309618Y8008112D01*
X4559808Y8008112D01*
D13*
X1241399Y5904992D02*
G01*
X1241399Y4763007D01*
X841400Y5904992D02*
G01*
X841400Y4763007D01*
X1241399Y5905500D02*
G01*
X841400Y5905500D01*
X1241399Y4763007D02*
G01*
X841400Y4763007D01*
G75*
G01*
X2463800Y1625600D02*
G02*
X2082800Y1625600I-190500J-177798D01*
G75*
G01*
X3127281Y1270541D02*
G03*
X3527280Y1270541I200000J75041D01*
D15*
G75*
G01
X486689Y9232900D02*
G03X486689Y9232900I-8001J0D01*
G75*
G01
X2167001Y2982620D02*
G03X2167001Y2982620I-8001J0D01*
M02*
