M48
METRIC,LZ,000.000
;FILE_FORMAT=3:3
;TYPE=PLATED
;Layer: PTH_Through
;EasyEDA v6.5.40, 2024-05-09 08:25:39
;18a0beea18964d5d8ca67f77cddb8664,df7e7e3c38a3447abd37b529b333d242,10
;Gerber Generator version 0.2
;Holesize 1 = 0.501 mm
T01C0.501
;Holesize 2 = 0.813 mm
T02C0.813
;Holesize 3 = 0.840 mm
T03C0.840
;Holesize 4 = 0.889 mm
T04C0.889
;Holesize 5 = 0.901 mm
T05C0.901
;Holesize 6 = 0.915 mm
T06C0.915
;Holesize 7 = 1.524 mm
T07C1.524
%
G05
G90
T01
X029207Y064516G85X029213Y064516
X039367Y064516G85X039373Y064516
X039373Y058166G85X039367Y058166
X029213Y058166G85X029207Y058166
T02
X009271Y013335
X009271Y010541
X009271Y007493
T03
X022733Y056706
X022733Y064706
X015677Y066802
X015677Y054864
X006477Y062230
X006477Y058928
X020066Y011820
X022606Y011820
X025146Y011820
X027686Y011820
X030226Y011820
X032766Y011820
T04
X008001Y017653
X010541Y017653
T05
X042164Y021082
X042164Y023622
X042164Y026162
X042164Y028702
X042164Y031242
X042164Y033782
X042291Y012977G85X042291Y012931
X042291Y010417G85X042291Y010411
X042291Y007875G85X042291Y007873
X042291Y005337G85X042291Y005331
T06
X030226Y042418
X027686Y042418
X025146Y042418
X022606Y042418
X022606Y044958
X025146Y044958
X027686Y044958
X030226Y044958
X034417Y051943
X031877Y051943
X026797Y051943
X024257Y051943
X029337Y051943
X021717Y051943
X019177Y051943
X018796Y035814
X018796Y033274
X018796Y030734
X018796Y028194
X018796Y025654
X018796Y023114
X018796Y020574
X018796Y018034
X018796Y015494
X018796Y012954
X018796Y010414
X018796Y007874
X018796Y005334
X018796Y002794
X018796Y000254
X034036Y000254
X034036Y002794
X034036Y005334
X034036Y007874
X034036Y010414
X034036Y012954
X034036Y015494
X034036Y018034
X034036Y020574
X034036Y023114
X034036Y025654
X034036Y028194
X034036Y030734
X034036Y033274
X034036Y035814
X041656Y038862
X041656Y046482
T07
X034036Y038354
X018796Y038354
X018796Y-002286
X034036Y-002286
M30
