G04 Layer: BottomLayer*
G04 EasyEDA v6.5.40, 2024-05-09 08:25:39*
G04 18a0beea18964d5d8ca67f77cddb8664,df7e7e3c38a3447abd37b529b333d242,10*
G04 Gerber Generator version 0.2*
G04 Scale: 100 percent, Rotated: No, Reflected: No *
G04 Dimensions in millimeters *
G04 leading zeros omitted , absolute positions ,4 integer and 5 decimal *
%FSLAX45Y45*%
%MOMM*%

%ADD10C,0.2540*%
%ADD11C,1.2600*%
%ADD12C,1.5240*%
%ADD13O,1.5400019999999999X1.9999959999999999*%
%ADD14C,1.5000*%
%ADD15C,1.7500*%
%ADD16R,2.5400X2.5400*%
%ADD17C,1.2116*%
%ADD18R,1.6510X1.6510*%
%ADD19C,1.6510*%
%ADD20C,1.7500*%
%ADD21C,0.0134*%

%LPD*%
G36*
X581660Y-660400D02*
G01*
X577748Y-659638D01*
X574497Y-657402D01*
X572262Y-654151D01*
X571500Y-650240D01*
X571500Y5819089D01*
X572262Y5823000D01*
X574497Y5826252D01*
X577748Y5828487D01*
X581660Y5829249D01*
X585571Y5828487D01*
X599643Y5818022D01*
X610768Y5811926D01*
X622655Y5807506D01*
X635050Y5804814D01*
X647700Y5803900D01*
X660349Y5804814D01*
X672744Y5807506D01*
X684631Y5811926D01*
X695756Y5818022D01*
X705916Y5825642D01*
X714857Y5834583D01*
X722477Y5844743D01*
X728522Y5855868D01*
X732993Y5867755D01*
X735685Y5880150D01*
X736600Y5892800D01*
X735685Y5905449D01*
X732993Y5917844D01*
X728522Y5929731D01*
X722477Y5940856D01*
X714857Y5951016D01*
X705916Y5959957D01*
X695756Y5967577D01*
X684631Y5973673D01*
X672744Y5978093D01*
X660349Y5980785D01*
X647700Y5981700D01*
X635050Y5980785D01*
X622655Y5978093D01*
X610768Y5973673D01*
X599643Y5967577D01*
X585571Y5957112D01*
X581660Y5956350D01*
X577748Y5957112D01*
X574497Y5959348D01*
X572262Y5962599D01*
X571500Y5966510D01*
X571500Y6149289D01*
X572262Y6153200D01*
X574497Y6156452D01*
X577748Y6158687D01*
X581660Y6159449D01*
X585571Y6158687D01*
X599643Y6148222D01*
X610768Y6142126D01*
X622655Y6137706D01*
X635050Y6135014D01*
X647700Y6134100D01*
X660349Y6135014D01*
X672744Y6137706D01*
X684631Y6142126D01*
X695756Y6148222D01*
X705916Y6155842D01*
X714857Y6164783D01*
X722477Y6174943D01*
X728522Y6186068D01*
X732993Y6197955D01*
X735685Y6210350D01*
X736600Y6223000D01*
X735685Y6235649D01*
X732993Y6248044D01*
X728522Y6259931D01*
X722477Y6271056D01*
X714857Y6281216D01*
X705916Y6290157D01*
X695756Y6297777D01*
X684631Y6303873D01*
X672744Y6308293D01*
X660349Y6310985D01*
X647700Y6311900D01*
X635050Y6310985D01*
X622655Y6308293D01*
X610768Y6303873D01*
X599643Y6297777D01*
X585571Y6287312D01*
X581660Y6286550D01*
X577748Y6287312D01*
X574497Y6289548D01*
X572262Y6292799D01*
X571500Y6296710D01*
X571500Y6797040D01*
X572262Y6800951D01*
X574497Y6804202D01*
X577748Y6806438D01*
X581660Y6807200D01*
X1481683Y6807200D01*
X1485595Y6806438D01*
X1488897Y6804202D01*
X1497888Y6795211D01*
X1499616Y6794500D01*
X4650740Y6794500D01*
X4654651Y6793738D01*
X4657902Y6791502D01*
X4660138Y6788251D01*
X4660900Y6784340D01*
X4660900Y-650240D01*
X4660138Y-654151D01*
X4657902Y-657402D01*
X4654651Y-659638D01*
X4650740Y-660400D01*
G37*

%LPC*%
G36*
X1676907Y-572008D02*
G01*
X3593592Y-572008D01*
X3601618Y-571195D01*
X3608832Y-569010D01*
X3615537Y-565454D01*
X3621735Y-560324D01*
X3773424Y-408635D01*
X3778554Y-402437D01*
X3782110Y-395732D01*
X3784295Y-388518D01*
X3785108Y-380492D01*
X3785108Y-25908D01*
X3784295Y-17881D01*
X3782110Y-10668D01*
X3778554Y-3962D01*
X3773424Y2235D01*
X3583635Y192024D01*
X3577437Y197154D01*
X3570732Y200710D01*
X3563518Y202895D01*
X3555492Y203708D01*
X3493008Y203708D01*
X3488740Y204673D01*
X3485286Y207314D01*
X3483254Y211175D01*
X3483000Y215544D01*
X3484676Y219608D01*
X3490417Y227990D01*
X3496462Y240029D01*
X3500882Y252729D01*
X3503574Y265938D01*
X3504488Y279400D01*
X3503574Y292862D01*
X3500882Y306070D01*
X3496462Y318770D01*
X3490417Y330809D01*
X3482797Y341934D01*
X3473754Y351942D01*
X3463442Y360629D01*
X3452063Y367893D01*
X3439871Y373532D01*
X3426968Y377545D01*
X3413709Y379780D01*
X3400247Y380238D01*
X3386836Y378866D01*
X3373729Y375767D01*
X3361131Y370890D01*
X3349294Y364439D01*
X3338474Y356463D01*
X3328771Y347065D01*
X3320440Y336499D01*
X3313582Y324916D01*
X3308299Y312470D01*
X3304743Y299516D01*
X3302965Y286156D01*
X3302965Y272643D01*
X3304743Y259283D01*
X3308299Y246329D01*
X3313582Y233883D01*
X3320440Y222300D01*
X3322116Y220167D01*
X3324047Y216103D01*
X3324047Y211582D01*
X3322065Y207517D01*
X3318560Y204724D01*
X3314141Y203708D01*
X3207918Y203708D01*
X3204006Y204470D01*
X3200704Y206705D01*
X3051505Y355904D01*
X3049270Y359206D01*
X3048508Y363118D01*
X3048508Y1089964D01*
X3049320Y1093978D01*
X3051657Y1097330D01*
X3055112Y1099515D01*
X3059531Y1101140D01*
X3070656Y1107236D01*
X3080816Y1114806D01*
X3089757Y1123797D01*
X3097377Y1133957D01*
X3103422Y1145082D01*
X3107893Y1156970D01*
X3110585Y1169365D01*
X3111500Y1182014D01*
X3110585Y1194663D01*
X3107893Y1207058D01*
X3103422Y1218946D01*
X3097377Y1230071D01*
X3089757Y1240180D01*
X3080816Y1249172D01*
X3070656Y1256792D01*
X3059531Y1262837D01*
X3047644Y1267256D01*
X3035249Y1270000D01*
X3022600Y1270863D01*
X3009950Y1270000D01*
X2997555Y1267256D01*
X2985668Y1262837D01*
X2974543Y1256792D01*
X2964383Y1249172D01*
X2955442Y1240180D01*
X2947822Y1230071D01*
X2941726Y1218946D01*
X2937306Y1207058D01*
X2934614Y1194663D01*
X2933700Y1182014D01*
X2934614Y1169365D01*
X2937306Y1156970D01*
X2941726Y1145082D01*
X2947822Y1133957D01*
X2955442Y1123797D01*
X2964383Y1114806D01*
X2967228Y1112723D01*
X2969412Y1110488D01*
X2970834Y1107694D01*
X2971292Y1104595D01*
X2971292Y343408D01*
X2972104Y335381D01*
X2974289Y328168D01*
X2977845Y321462D01*
X2982976Y315264D01*
X3160064Y138176D01*
X3166262Y133045D01*
X3172968Y129489D01*
X3180181Y127304D01*
X3188208Y126492D01*
X3340201Y126492D01*
X3344316Y125628D01*
X3347720Y123139D01*
X3349853Y119481D01*
X3350310Y115316D01*
X3349040Y111302D01*
X3346196Y108153D01*
X3338474Y102463D01*
X3328771Y93065D01*
X3320440Y82499D01*
X3311042Y66954D01*
X3307791Y64769D01*
X3303930Y64008D01*
X2623718Y64008D01*
X2619806Y64769D01*
X2616504Y67005D01*
X2556205Y127304D01*
X2553970Y130606D01*
X2553208Y134518D01*
X2553208Y1096060D01*
X2553868Y1099616D01*
X2555697Y1102715D01*
X2558491Y1104950D01*
X2562656Y1107236D01*
X2572816Y1114806D01*
X2581757Y1123797D01*
X2589377Y1133957D01*
X2595473Y1145082D01*
X2599893Y1156970D01*
X2602585Y1169365D01*
X2603500Y1182014D01*
X2602585Y1194663D01*
X2599893Y1207058D01*
X2595473Y1218946D01*
X2589377Y1230071D01*
X2581757Y1240180D01*
X2572816Y1249172D01*
X2562656Y1256792D01*
X2551531Y1262837D01*
X2539644Y1267256D01*
X2527249Y1270000D01*
X2514600Y1270863D01*
X2501950Y1270000D01*
X2489555Y1267256D01*
X2477668Y1262837D01*
X2466543Y1256792D01*
X2456383Y1249172D01*
X2447442Y1240180D01*
X2439822Y1230071D01*
X2433726Y1218946D01*
X2429306Y1207058D01*
X2426614Y1194663D01*
X2425700Y1182014D01*
X2426614Y1169365D01*
X2429306Y1156970D01*
X2433726Y1145082D01*
X2439822Y1133957D01*
X2447442Y1123797D01*
X2456383Y1114806D01*
X2466543Y1107236D01*
X2470708Y1104950D01*
X2473502Y1102715D01*
X2475331Y1099616D01*
X2475992Y1096060D01*
X2475992Y114808D01*
X2476804Y106781D01*
X2478989Y99568D01*
X2482545Y92862D01*
X2487676Y86664D01*
X2575864Y-1524D01*
X2582062Y-6654D01*
X2588768Y-10210D01*
X2595981Y-12395D01*
X2604008Y-13208D01*
X3303930Y-13208D01*
X3307791Y-13970D01*
X3311042Y-16154D01*
X3320440Y-31699D01*
X3328771Y-42265D01*
X3338474Y-51663D01*
X3346196Y-57353D01*
X3349040Y-60502D01*
X3350310Y-64516D01*
X3349853Y-68681D01*
X3347720Y-72339D01*
X3344316Y-74828D01*
X3340201Y-75692D01*
X3277158Y-75692D01*
X3270859Y-76403D01*
X3265373Y-78333D01*
X3260496Y-81381D01*
X3256381Y-85496D01*
X3253333Y-90373D01*
X3251403Y-95859D01*
X3250692Y-102158D01*
X3250692Y-355041D01*
X3251403Y-361340D01*
X3253333Y-366826D01*
X3256381Y-371703D01*
X3260496Y-375818D01*
X3265373Y-378866D01*
X3270859Y-380796D01*
X3277158Y-381508D01*
X3530041Y-381508D01*
X3536340Y-380796D01*
X3541826Y-378866D01*
X3546703Y-375818D01*
X3550818Y-371703D01*
X3553866Y-366826D01*
X3555796Y-361340D01*
X3556508Y-355041D01*
X3556508Y-102158D01*
X3555796Y-95859D01*
X3553866Y-90373D01*
X3550818Y-85496D01*
X3546703Y-81381D01*
X3541826Y-78333D01*
X3536340Y-76403D01*
X3530041Y-75692D01*
X3467100Y-75692D01*
X3462883Y-74777D01*
X3459429Y-72186D01*
X3457346Y-68376D01*
X3457041Y-64058D01*
X3458565Y-59994D01*
X3461664Y-56946D01*
X3463442Y-55829D01*
X3473754Y-47142D01*
X3482797Y-37134D01*
X3490417Y-26009D01*
X3496462Y-13970D01*
X3500882Y-1270D01*
X3503574Y11938D01*
X3504488Y25400D01*
X3503574Y38862D01*
X3500882Y52069D01*
X3496462Y64769D01*
X3490417Y76809D01*
X3482797Y87934D01*
X3473754Y97942D01*
X3463442Y106629D01*
X3461664Y107746D01*
X3458565Y110794D01*
X3457041Y114858D01*
X3457346Y119176D01*
X3459429Y122986D01*
X3462883Y125577D01*
X3467100Y126492D01*
X3535781Y126492D01*
X3539693Y125730D01*
X3542995Y123494D01*
X3704894Y-38404D01*
X3707129Y-41706D01*
X3707892Y-45618D01*
X3707892Y-360781D01*
X3707129Y-364693D01*
X3704894Y-367995D01*
X3581095Y-491794D01*
X3577793Y-494030D01*
X3573881Y-494792D01*
X1696618Y-494792D01*
X1692706Y-494030D01*
X1689404Y-491794D01*
X1502105Y-304495D01*
X1499870Y-301193D01*
X1499108Y-297281D01*
X1499108Y335381D01*
X1499870Y339293D01*
X1502105Y342595D01*
X1651304Y491794D01*
X1654606Y494030D01*
X1658518Y494792D01*
X1779930Y494792D01*
X1783791Y494030D01*
X1787042Y491845D01*
X1796440Y476300D01*
X1804771Y465734D01*
X1814474Y456336D01*
X1825294Y448360D01*
X1837131Y441909D01*
X1849729Y437032D01*
X1862836Y433933D01*
X1876247Y432562D01*
X1889709Y433019D01*
X1902968Y435254D01*
X1915871Y439267D01*
X1928063Y444906D01*
X1939442Y452170D01*
X1949754Y460857D01*
X1958797Y470865D01*
X1966417Y481990D01*
X1972462Y494030D01*
X1976882Y506730D01*
X1979574Y519938D01*
X1980488Y533400D01*
X1979574Y546862D01*
X1976882Y560070D01*
X1972462Y572770D01*
X1966417Y584809D01*
X1958797Y595934D01*
X1949754Y605942D01*
X1939442Y614629D01*
X1928063Y621893D01*
X1915871Y627532D01*
X1902968Y631545D01*
X1889709Y633780D01*
X1876247Y634238D01*
X1862836Y632866D01*
X1849729Y629767D01*
X1837131Y624890D01*
X1825294Y618439D01*
X1814474Y610463D01*
X1804771Y601065D01*
X1796440Y590499D01*
X1787042Y574954D01*
X1783791Y572770D01*
X1779930Y572008D01*
X1638807Y572008D01*
X1630781Y571195D01*
X1623568Y569010D01*
X1616862Y565454D01*
X1610664Y560324D01*
X1433576Y383235D01*
X1428445Y377037D01*
X1424889Y370332D01*
X1422704Y363118D01*
X1421892Y355092D01*
X1421892Y-316992D01*
X1422704Y-325018D01*
X1424889Y-332232D01*
X1428445Y-338937D01*
X1433576Y-345135D01*
X1648764Y-560324D01*
X1654962Y-565454D01*
X1661668Y-569010D01*
X1668881Y-571195D01*
G37*
G36*
X1753158Y-381508D02*
G01*
X2006041Y-381508D01*
X2012340Y-380796D01*
X2017826Y-378866D01*
X2022703Y-375818D01*
X2026818Y-371703D01*
X2029866Y-366826D01*
X2031796Y-361340D01*
X2032507Y-355041D01*
X2032507Y-102158D01*
X2031796Y-95859D01*
X2029866Y-90373D01*
X2026818Y-85496D01*
X2022703Y-81381D01*
X2017826Y-78333D01*
X2012340Y-76403D01*
X2006041Y-75692D01*
X1943100Y-75692D01*
X1938883Y-74777D01*
X1935429Y-72186D01*
X1933346Y-68376D01*
X1933041Y-64058D01*
X1934565Y-59994D01*
X1937664Y-56946D01*
X1939442Y-55829D01*
X1949754Y-47142D01*
X1958797Y-37134D01*
X1966417Y-26009D01*
X1970074Y-18796D01*
X1972310Y-15849D01*
X1975459Y-13868D01*
X1979117Y-13208D01*
X2183892Y-13208D01*
X2191918Y-12395D01*
X2199132Y-10210D01*
X2205837Y-6654D01*
X2212035Y-1524D01*
X2300224Y86664D01*
X2305354Y92862D01*
X2308910Y99568D01*
X2311095Y106781D01*
X2311908Y114808D01*
X2311908Y1104595D01*
X2312365Y1107694D01*
X2313787Y1110488D01*
X2315972Y1112723D01*
X2318816Y1114806D01*
X2327757Y1123797D01*
X2335377Y1133957D01*
X2341473Y1145082D01*
X2345893Y1156970D01*
X2348585Y1169365D01*
X2349500Y1182014D01*
X2348585Y1194663D01*
X2345893Y1207058D01*
X2341473Y1218946D01*
X2335377Y1230071D01*
X2327757Y1240180D01*
X2318816Y1249172D01*
X2308656Y1256792D01*
X2297531Y1262837D01*
X2285644Y1267256D01*
X2273249Y1270000D01*
X2260600Y1270863D01*
X2247950Y1270000D01*
X2235555Y1267256D01*
X2223668Y1262837D01*
X2212543Y1256792D01*
X2202383Y1249172D01*
X2193442Y1240180D01*
X2185822Y1230071D01*
X2179726Y1218946D01*
X2175306Y1207058D01*
X2172614Y1194663D01*
X2171700Y1182014D01*
X2172614Y1169365D01*
X2175306Y1156970D01*
X2179726Y1145082D01*
X2185822Y1133957D01*
X2193442Y1123797D01*
X2202383Y1114806D01*
X2212543Y1107236D01*
X2223668Y1101140D01*
X2228088Y1099515D01*
X2231542Y1097330D01*
X2233879Y1093978D01*
X2234692Y1089964D01*
X2234692Y134518D01*
X2233930Y130606D01*
X2231694Y127304D01*
X2171395Y67005D01*
X2168093Y64769D01*
X2164181Y64008D01*
X1979117Y64008D01*
X1975459Y64668D01*
X1972310Y66649D01*
X1970074Y69596D01*
X1966417Y76809D01*
X1958797Y87934D01*
X1949754Y97942D01*
X1939442Y106629D01*
X1928063Y113893D01*
X1915871Y119532D01*
X1902968Y123545D01*
X1889709Y125780D01*
X1876247Y126237D01*
X1862836Y124866D01*
X1849729Y121767D01*
X1837131Y116890D01*
X1825294Y110439D01*
X1814474Y102463D01*
X1804771Y93065D01*
X1796440Y82499D01*
X1789582Y70916D01*
X1784299Y58470D01*
X1780743Y45516D01*
X1778965Y32156D01*
X1778965Y18643D01*
X1780743Y5283D01*
X1784299Y-7670D01*
X1789582Y-20116D01*
X1796440Y-31699D01*
X1804771Y-42265D01*
X1814474Y-51663D01*
X1822196Y-57353D01*
X1825040Y-60502D01*
X1826310Y-64516D01*
X1825853Y-68681D01*
X1823720Y-72339D01*
X1820316Y-74828D01*
X1816201Y-75692D01*
X1753158Y-75692D01*
X1746859Y-76403D01*
X1741373Y-78333D01*
X1736496Y-81381D01*
X1732381Y-85496D01*
X1729333Y-90373D01*
X1727403Y-95859D01*
X1726692Y-102158D01*
X1726692Y-355041D01*
X1727403Y-361340D01*
X1729333Y-366826D01*
X1732381Y-371703D01*
X1736496Y-375818D01*
X1741373Y-378866D01*
X1746859Y-380796D01*
G37*
G36*
X1876247Y178562D02*
G01*
X1889709Y179019D01*
X1902968Y181254D01*
X1915871Y185267D01*
X1928063Y190906D01*
X1939442Y198170D01*
X1949754Y206857D01*
X1958797Y216865D01*
X1966417Y227990D01*
X1972462Y240029D01*
X1976882Y252729D01*
X1979574Y265938D01*
X1980488Y279400D01*
X1979574Y292862D01*
X1976882Y306070D01*
X1972462Y318770D01*
X1966417Y330809D01*
X1958797Y341934D01*
X1949754Y351942D01*
X1939442Y360629D01*
X1928063Y367893D01*
X1915871Y373532D01*
X1902968Y377545D01*
X1889709Y379780D01*
X1876247Y380238D01*
X1862836Y378866D01*
X1849729Y375767D01*
X1837131Y370890D01*
X1825294Y364439D01*
X1814474Y356463D01*
X1804771Y347065D01*
X1796440Y336499D01*
X1789582Y324916D01*
X1784299Y312470D01*
X1780743Y299516D01*
X1778965Y286156D01*
X1778965Y272643D01*
X1780743Y259283D01*
X1784299Y246329D01*
X1789582Y233883D01*
X1796440Y222300D01*
X1804771Y211734D01*
X1814474Y202336D01*
X1825294Y194360D01*
X1837131Y187909D01*
X1849729Y183032D01*
X1862836Y179933D01*
G37*
G36*
X4179011Y431952D02*
G01*
X4179011Y483311D01*
X4127601Y483311D01*
X4132122Y474624D01*
X4140454Y462686D01*
X4150207Y451967D01*
X4161282Y442518D01*
X4173474Y434593D01*
G37*
G36*
X4279188Y431952D02*
G01*
X4284726Y434593D01*
X4296918Y442518D01*
X4307992Y451967D01*
X4317746Y462686D01*
X4326077Y474624D01*
X4330598Y483311D01*
X4279188Y483311D01*
G37*
G36*
X3400247Y432562D02*
G01*
X3413709Y433019D01*
X3426968Y435254D01*
X3439871Y439267D01*
X3452063Y444906D01*
X3463442Y452170D01*
X3473754Y460857D01*
X3482797Y470865D01*
X3490417Y481990D01*
X3496462Y494030D01*
X3500882Y506730D01*
X3503574Y519938D01*
X3504488Y533400D01*
X3503574Y546862D01*
X3500882Y560070D01*
X3496462Y572770D01*
X3490417Y584809D01*
X3482797Y595934D01*
X3473754Y605942D01*
X3463442Y614629D01*
X3452063Y621893D01*
X3439871Y627532D01*
X3426968Y631545D01*
X3413709Y633780D01*
X3400247Y634238D01*
X3386836Y632866D01*
X3373729Y629767D01*
X3361131Y624890D01*
X3349294Y618439D01*
X3338474Y610463D01*
X3328771Y601065D01*
X3320440Y590499D01*
X3313582Y578916D01*
X3308299Y566470D01*
X3304743Y553516D01*
X3302965Y540156D01*
X3302965Y526643D01*
X3304743Y513283D01*
X3308299Y500329D01*
X3313582Y487883D01*
X3320440Y476300D01*
X3328771Y465734D01*
X3338474Y456336D01*
X3349294Y448360D01*
X3361131Y441909D01*
X3373729Y437032D01*
X3386836Y433933D01*
G37*
G36*
X4279188Y583488D02*
G01*
X4330649Y583488D01*
X4329633Y585825D01*
X4322114Y598271D01*
X4313021Y609650D01*
X4302607Y619760D01*
X4290974Y628446D01*
X4279188Y635050D01*
G37*
G36*
X4127550Y583488D02*
G01*
X4179011Y583488D01*
X4179011Y635050D01*
X4167225Y628446D01*
X4155592Y619760D01*
X4145178Y609650D01*
X4136085Y598271D01*
X4128566Y585825D01*
G37*
G36*
X927100Y662838D02*
G01*
X939393Y663702D01*
X951484Y666343D01*
X963015Y670661D01*
X973836Y676554D01*
X983742Y683971D01*
X992428Y692658D01*
X999845Y702564D01*
X1005738Y713384D01*
X1010056Y724916D01*
X1012698Y737006D01*
X1013561Y749300D01*
X1012698Y761593D01*
X1010056Y773684D01*
X1005738Y785215D01*
X999845Y796036D01*
X992428Y805942D01*
X983742Y814628D01*
X973836Y822045D01*
X963015Y827938D01*
X951484Y832256D01*
X939393Y834898D01*
X927100Y835761D01*
X914806Y834898D01*
X902716Y832256D01*
X891184Y827938D01*
X880364Y822045D01*
X870458Y814628D01*
X861771Y805942D01*
X854354Y796036D01*
X848461Y785215D01*
X844143Y773684D01*
X841502Y761593D01*
X840638Y749300D01*
X841502Y737006D01*
X844143Y724916D01*
X848461Y713384D01*
X854354Y702564D01*
X861771Y692658D01*
X870458Y683971D01*
X880364Y676554D01*
X891184Y670661D01*
X902716Y666343D01*
X914806Y663702D01*
G37*
G36*
X4229100Y674014D02*
G01*
X4243578Y674928D01*
X4257852Y677722D01*
X4271670Y682294D01*
X4284726Y688594D01*
X4296918Y696518D01*
X4307992Y705967D01*
X4317746Y716686D01*
X4326077Y728624D01*
X4332782Y741527D01*
X4337812Y755142D01*
X4341012Y769315D01*
X4342434Y783742D01*
X4341977Y798271D01*
X4339640Y812647D01*
X4335526Y826566D01*
X4329633Y839825D01*
X4322114Y852271D01*
X4313021Y863650D01*
X4302607Y873760D01*
X4290974Y882446D01*
X4278274Y889558D01*
X4264812Y894994D01*
X4250791Y898702D01*
X4236364Y900531D01*
X4221835Y900531D01*
X4207408Y898702D01*
X4193387Y894994D01*
X4179925Y889558D01*
X4167225Y882446D01*
X4155592Y873760D01*
X4145178Y863650D01*
X4136085Y852271D01*
X4128566Y839825D01*
X4122674Y826566D01*
X4118559Y812647D01*
X4116222Y798271D01*
X4115765Y783742D01*
X4117187Y769315D01*
X4120387Y755142D01*
X4125417Y741527D01*
X4132122Y728624D01*
X4140454Y716686D01*
X4150207Y705967D01*
X4161282Y696518D01*
X4173474Y688594D01*
X4186529Y682294D01*
X4200347Y677722D01*
X4214622Y674928D01*
G37*
G36*
X1876247Y686562D02*
G01*
X1889709Y687019D01*
X1902968Y689254D01*
X1915871Y693267D01*
X1928063Y698906D01*
X1939442Y706170D01*
X1949754Y714857D01*
X1958797Y724865D01*
X1966417Y735990D01*
X1972462Y748030D01*
X1976882Y760730D01*
X1979574Y773938D01*
X1980488Y787400D01*
X1979574Y800862D01*
X1976882Y814069D01*
X1972462Y826769D01*
X1966417Y838809D01*
X1958797Y849934D01*
X1949754Y859942D01*
X1939442Y868629D01*
X1928063Y875893D01*
X1915871Y881532D01*
X1902968Y885545D01*
X1889709Y887780D01*
X1876247Y888237D01*
X1862836Y886866D01*
X1849729Y883767D01*
X1837131Y878890D01*
X1825294Y872439D01*
X1814474Y864463D01*
X1804771Y855065D01*
X1796440Y844499D01*
X1789582Y832916D01*
X1784299Y820470D01*
X1780743Y807516D01*
X1778965Y794156D01*
X1778965Y780643D01*
X1780743Y767283D01*
X1784299Y754329D01*
X1789582Y741883D01*
X1796440Y730300D01*
X1804771Y719734D01*
X1814474Y710336D01*
X1825294Y702360D01*
X1837131Y695909D01*
X1849729Y691032D01*
X1862836Y687933D01*
G37*
G36*
X3400247Y686562D02*
G01*
X3413709Y687019D01*
X3426968Y689254D01*
X3439871Y693267D01*
X3452063Y698906D01*
X3463442Y706170D01*
X3473754Y714857D01*
X3482797Y724865D01*
X3490417Y735990D01*
X3496462Y748030D01*
X3500882Y760730D01*
X3503574Y773938D01*
X3504488Y787400D01*
X3503574Y800862D01*
X3500882Y814069D01*
X3496462Y826769D01*
X3490417Y838809D01*
X3482797Y849934D01*
X3473754Y859942D01*
X3463442Y868629D01*
X3452063Y875893D01*
X3439871Y881532D01*
X3426968Y885545D01*
X3413709Y887780D01*
X3400247Y888237D01*
X3386836Y886866D01*
X3373729Y883767D01*
X3361131Y878890D01*
X3349294Y872439D01*
X3338474Y864463D01*
X3328771Y855065D01*
X3320440Y844499D01*
X3313582Y832916D01*
X3308299Y820470D01*
X3304743Y807516D01*
X3302965Y794156D01*
X3302965Y780643D01*
X3304743Y767283D01*
X3308299Y754329D01*
X3313582Y741883D01*
X3320440Y730300D01*
X3328771Y719734D01*
X3338474Y710336D01*
X3349294Y702360D01*
X3361131Y695909D01*
X3373729Y691032D01*
X3386836Y687933D01*
G37*
G36*
X4229100Y928014D02*
G01*
X4243578Y928928D01*
X4257852Y931722D01*
X4271670Y936294D01*
X4284726Y942594D01*
X4296918Y950518D01*
X4307992Y959967D01*
X4317746Y970686D01*
X4326077Y982624D01*
X4332782Y995527D01*
X4337812Y1009142D01*
X4341012Y1023315D01*
X4342434Y1037742D01*
X4341977Y1052271D01*
X4339640Y1066647D01*
X4335526Y1080566D01*
X4329633Y1093825D01*
X4322114Y1106271D01*
X4313021Y1117650D01*
X4302607Y1127760D01*
X4290974Y1136446D01*
X4278274Y1143558D01*
X4264812Y1148994D01*
X4250791Y1152702D01*
X4236364Y1154531D01*
X4221835Y1154531D01*
X4207408Y1152702D01*
X4193387Y1148994D01*
X4179925Y1143558D01*
X4167225Y1136446D01*
X4155592Y1127760D01*
X4145178Y1117650D01*
X4136085Y1106271D01*
X4128566Y1093825D01*
X4122674Y1080566D01*
X4118559Y1066647D01*
X4116222Y1052271D01*
X4115765Y1037742D01*
X4117187Y1023315D01*
X4120387Y1009142D01*
X4125417Y995527D01*
X4132122Y982624D01*
X4140454Y970686D01*
X4150207Y959967D01*
X4161282Y950518D01*
X4173474Y942594D01*
X4186529Y936294D01*
X4200347Y931722D01*
X4214622Y928928D01*
G37*
G36*
X1876247Y940562D02*
G01*
X1889709Y941019D01*
X1902968Y943254D01*
X1915871Y947267D01*
X1928063Y952906D01*
X1939442Y960170D01*
X1949754Y968857D01*
X1958797Y978865D01*
X1966417Y989990D01*
X1972462Y1002030D01*
X1976882Y1014730D01*
X1979574Y1027937D01*
X1980488Y1041400D01*
X1979574Y1054862D01*
X1976882Y1068070D01*
X1972462Y1080770D01*
X1969820Y1086002D01*
X1969007Y1088237D01*
X1968754Y1090574D01*
X1968754Y1144168D01*
X1924151Y1144168D01*
X1922373Y1140460D01*
X1919274Y1137818D01*
X1915363Y1136548D01*
X1911299Y1136954D01*
X1902968Y1139545D01*
X1889709Y1141780D01*
X1876247Y1142238D01*
X1862836Y1140866D01*
X1849729Y1137767D01*
X1837131Y1132890D01*
X1825294Y1126439D01*
X1814474Y1118463D01*
X1804771Y1109065D01*
X1796440Y1098499D01*
X1789582Y1086916D01*
X1784299Y1074470D01*
X1780743Y1061516D01*
X1778965Y1048156D01*
X1778965Y1034643D01*
X1780743Y1021283D01*
X1784299Y1008329D01*
X1789582Y995883D01*
X1796440Y984300D01*
X1804771Y973734D01*
X1814474Y964336D01*
X1825294Y956360D01*
X1837131Y949909D01*
X1849729Y945032D01*
X1862836Y941933D01*
G37*
G36*
X3400247Y940562D02*
G01*
X3413709Y941019D01*
X3426968Y943254D01*
X3439871Y947267D01*
X3452063Y952906D01*
X3463442Y960170D01*
X3473754Y968857D01*
X3482797Y978865D01*
X3490417Y989990D01*
X3496462Y1002030D01*
X3500882Y1014730D01*
X3503574Y1027937D01*
X3504488Y1041400D01*
X3503574Y1054862D01*
X3500882Y1068070D01*
X3496462Y1080770D01*
X3490417Y1092809D01*
X3482797Y1103934D01*
X3473754Y1113942D01*
X3463442Y1122629D01*
X3452063Y1129893D01*
X3439871Y1135532D01*
X3426968Y1139545D01*
X3413709Y1141780D01*
X3400247Y1142238D01*
X3386836Y1140866D01*
X3368801Y1136650D01*
X3364992Y1137412D01*
X3361791Y1139596D01*
X3359607Y1142746D01*
X3358794Y1146556D01*
X3359404Y1150366D01*
X3361893Y1156970D01*
X3364585Y1169365D01*
X3365500Y1182014D01*
X3365093Y1187500D01*
X3365500Y1191260D01*
X3367328Y1194612D01*
X3370224Y1197051D01*
X3373780Y1198321D01*
X3377590Y1198118D01*
X3386836Y1195933D01*
X3400247Y1194562D01*
X3413709Y1195019D01*
X3426968Y1197254D01*
X3439871Y1201267D01*
X3452063Y1206906D01*
X3463442Y1214170D01*
X3473754Y1222857D01*
X3482797Y1232865D01*
X3490417Y1243990D01*
X3496462Y1256030D01*
X3500882Y1268730D01*
X3503574Y1281938D01*
X3504488Y1295400D01*
X3503574Y1308862D01*
X3500882Y1322070D01*
X3496462Y1334770D01*
X3490417Y1346809D01*
X3482797Y1357934D01*
X3473754Y1367942D01*
X3463442Y1376629D01*
X3452063Y1383893D01*
X3439871Y1389532D01*
X3426968Y1393545D01*
X3413709Y1395780D01*
X3400247Y1396238D01*
X3386836Y1394866D01*
X3373729Y1391767D01*
X3361131Y1386890D01*
X3349294Y1380439D01*
X3338474Y1372463D01*
X3328771Y1363065D01*
X3320440Y1352499D01*
X3313582Y1340916D01*
X3308299Y1328470D01*
X3304743Y1315516D01*
X3302965Y1302156D01*
X3302965Y1288643D01*
X3304032Y1280718D01*
X3303778Y1276858D01*
X3302152Y1273352D01*
X3299256Y1270711D01*
X3295650Y1269339D01*
X3291789Y1269441D01*
X3289249Y1270000D01*
X3276600Y1270863D01*
X3263950Y1270000D01*
X3251555Y1267256D01*
X3239668Y1262837D01*
X3228543Y1256792D01*
X3218383Y1249172D01*
X3209442Y1240180D01*
X3201822Y1230071D01*
X3195726Y1218946D01*
X3191306Y1207058D01*
X3188614Y1194663D01*
X3187700Y1182014D01*
X3188614Y1169365D01*
X3191306Y1156970D01*
X3195726Y1145082D01*
X3201822Y1133957D01*
X3209442Y1123797D01*
X3218383Y1114806D01*
X3228543Y1107236D01*
X3239668Y1101140D01*
X3251555Y1096721D01*
X3263950Y1094028D01*
X3276600Y1093114D01*
X3289249Y1094028D01*
X3300171Y1096416D01*
X3304590Y1096365D01*
X3308553Y1094486D01*
X3311398Y1091082D01*
X3312515Y1086815D01*
X3311702Y1082497D01*
X3308299Y1074470D01*
X3304743Y1061516D01*
X3302965Y1048156D01*
X3302965Y1034643D01*
X3304743Y1021283D01*
X3308299Y1008329D01*
X3313582Y995883D01*
X3320440Y984300D01*
X3328771Y973734D01*
X3338474Y964336D01*
X3349294Y956360D01*
X3361131Y949909D01*
X3373729Y945032D01*
X3386836Y941933D01*
G37*
G36*
X927100Y967638D02*
G01*
X939393Y968502D01*
X951484Y971143D01*
X963015Y975461D01*
X973836Y981354D01*
X983742Y988771D01*
X992428Y997458D01*
X999845Y1007364D01*
X1005738Y1018184D01*
X1010056Y1029716D01*
X1012698Y1041806D01*
X1013561Y1054100D01*
X1012698Y1066393D01*
X1010056Y1078484D01*
X1005738Y1090015D01*
X999845Y1100836D01*
X992428Y1110742D01*
X983742Y1119428D01*
X973836Y1126845D01*
X963015Y1132738D01*
X951484Y1137056D01*
X939393Y1139698D01*
X927100Y1140561D01*
X914806Y1139698D01*
X902716Y1137056D01*
X891184Y1132738D01*
X880364Y1126845D01*
X870458Y1119428D01*
X861771Y1110742D01*
X854354Y1100836D01*
X848461Y1090015D01*
X844143Y1078484D01*
X841502Y1066393D01*
X840638Y1054100D01*
X841502Y1041806D01*
X844143Y1029716D01*
X848461Y1018184D01*
X854354Y1007364D01*
X861771Y997458D01*
X870458Y988771D01*
X880364Y981354D01*
X891184Y975461D01*
X902716Y971143D01*
X914806Y968502D01*
G37*
G36*
X2768600Y1093114D02*
G01*
X2781249Y1094028D01*
X2793644Y1096721D01*
X2805531Y1101140D01*
X2816656Y1107236D01*
X2826816Y1114806D01*
X2835757Y1123797D01*
X2843377Y1133957D01*
X2849422Y1145082D01*
X2853893Y1156970D01*
X2856585Y1169365D01*
X2857500Y1182014D01*
X2856585Y1194663D01*
X2853893Y1207058D01*
X2849422Y1218946D01*
X2843377Y1230071D01*
X2835757Y1240180D01*
X2826816Y1249172D01*
X2816656Y1256792D01*
X2805531Y1262837D01*
X2793644Y1267256D01*
X2781249Y1270000D01*
X2768600Y1270863D01*
X2755950Y1270000D01*
X2743555Y1267256D01*
X2731668Y1262837D01*
X2720543Y1256792D01*
X2710383Y1249172D01*
X2701442Y1240180D01*
X2693822Y1230071D01*
X2687726Y1218946D01*
X2683306Y1207058D01*
X2680614Y1194663D01*
X2679700Y1182014D01*
X2680614Y1169365D01*
X2683306Y1156970D01*
X2687726Y1145082D01*
X2693822Y1133957D01*
X2701442Y1123797D01*
X2710383Y1114806D01*
X2720543Y1107236D01*
X2731668Y1101140D01*
X2743555Y1096721D01*
X2755950Y1094028D01*
G37*
G36*
X2044446Y1101648D02*
G01*
X2054656Y1107236D01*
X2064816Y1114806D01*
X2073757Y1123797D01*
X2081377Y1133957D01*
X2086965Y1144168D01*
X2044446Y1144168D01*
G37*
G36*
X4229100Y1182014D02*
G01*
X4243578Y1182928D01*
X4257852Y1185722D01*
X4271670Y1190294D01*
X4284726Y1196594D01*
X4296918Y1204518D01*
X4307992Y1213967D01*
X4317746Y1224686D01*
X4326077Y1236624D01*
X4332782Y1249527D01*
X4337812Y1263142D01*
X4341012Y1277315D01*
X4342434Y1291742D01*
X4341977Y1306271D01*
X4339640Y1320647D01*
X4335526Y1334566D01*
X4329633Y1347825D01*
X4322114Y1360271D01*
X4313021Y1371650D01*
X4302607Y1381760D01*
X4290974Y1390446D01*
X4278274Y1397558D01*
X4264812Y1402994D01*
X4250791Y1406702D01*
X4236364Y1408531D01*
X4221835Y1408531D01*
X4207408Y1406702D01*
X4193387Y1402994D01*
X4179925Y1397558D01*
X4167225Y1390446D01*
X4155592Y1381760D01*
X4145178Y1371650D01*
X4136085Y1360271D01*
X4128566Y1347825D01*
X4122674Y1334566D01*
X4118559Y1320647D01*
X4116222Y1306271D01*
X4115765Y1291742D01*
X4117187Y1277315D01*
X4120387Y1263142D01*
X4125417Y1249527D01*
X4132122Y1236624D01*
X4140454Y1224686D01*
X4150207Y1213967D01*
X4161282Y1204518D01*
X4173474Y1196594D01*
X4186529Y1190294D01*
X4200347Y1185722D01*
X4214622Y1182928D01*
G37*
G36*
X1876247Y1194562D02*
G01*
X1889709Y1195019D01*
X1902968Y1197254D01*
X1915871Y1201267D01*
X1928063Y1206906D01*
X1939442Y1214170D01*
X1943303Y1217472D01*
X1946351Y1219250D01*
X1949856Y1219860D01*
X1968754Y1219860D01*
X1968754Y1246225D01*
X1969007Y1248562D01*
X1969820Y1250797D01*
X1972462Y1256030D01*
X1976882Y1268730D01*
X1979574Y1281938D01*
X1980488Y1295400D01*
X1979574Y1308862D01*
X1976882Y1322070D01*
X1972462Y1334770D01*
X1966417Y1346809D01*
X1958797Y1357934D01*
X1949754Y1367942D01*
X1939442Y1376629D01*
X1928063Y1383893D01*
X1915871Y1389532D01*
X1902968Y1393545D01*
X1889709Y1395780D01*
X1876247Y1396238D01*
X1862836Y1394866D01*
X1849729Y1391767D01*
X1837131Y1386890D01*
X1825294Y1380439D01*
X1814474Y1372463D01*
X1804771Y1363065D01*
X1796440Y1352499D01*
X1789582Y1340916D01*
X1784299Y1328470D01*
X1780743Y1315516D01*
X1778965Y1302156D01*
X1778965Y1288643D01*
X1780743Y1275283D01*
X1784299Y1262329D01*
X1789582Y1249883D01*
X1796440Y1238300D01*
X1804771Y1227734D01*
X1814474Y1218336D01*
X1825294Y1210360D01*
X1837131Y1203909D01*
X1849729Y1199032D01*
X1862836Y1195933D01*
G37*
G36*
X2044446Y1219860D02*
G01*
X2086965Y1219860D01*
X2081377Y1230071D01*
X2073757Y1240180D01*
X2064816Y1249172D01*
X2054656Y1256792D01*
X2044446Y1262329D01*
G37*
G36*
X890473Y1255268D02*
G01*
X890473Y1296873D01*
X848868Y1296873D01*
X854354Y1286764D01*
X861771Y1276858D01*
X870458Y1268171D01*
X880364Y1260754D01*
G37*
G36*
X963726Y1255268D02*
G01*
X973836Y1260754D01*
X983742Y1268171D01*
X992428Y1276858D01*
X999845Y1286764D01*
X1005332Y1296873D01*
X963726Y1296873D01*
G37*
G36*
X963726Y1370126D02*
G01*
X1005332Y1370126D01*
X999845Y1380236D01*
X992428Y1390142D01*
X983742Y1398828D01*
X973836Y1406245D01*
X963726Y1411732D01*
G37*
G36*
X848868Y1370126D02*
G01*
X890473Y1370126D01*
X890473Y1411732D01*
X880364Y1406245D01*
X870458Y1398828D01*
X861771Y1390142D01*
X854354Y1380236D01*
G37*
G36*
X1883257Y1436065D02*
G01*
X1897684Y1437487D01*
X1911857Y1440688D01*
X1925472Y1445717D01*
X1938375Y1452422D01*
X1950313Y1460754D01*
X1961032Y1470507D01*
X1970481Y1481582D01*
X1978406Y1493774D01*
X1983841Y1505051D01*
X1986076Y1508099D01*
X1989277Y1510080D01*
X1992985Y1510792D01*
X2031492Y1510792D01*
X2039518Y1511604D01*
X2046732Y1513789D01*
X2053437Y1517345D01*
X2059635Y1522476D01*
X3214624Y2677464D01*
X3219754Y2683662D01*
X3223310Y2690368D01*
X3225495Y2697581D01*
X3226308Y2705608D01*
X3226308Y5069535D01*
X3227019Y5073243D01*
X3229000Y5076393D01*
X3231997Y5078679D01*
X3239160Y5082184D01*
X3250336Y5089652D01*
X3260445Y5098542D01*
X3269335Y5108651D01*
X3276803Y5119878D01*
X3282746Y5131917D01*
X3287064Y5144668D01*
X3289706Y5157876D01*
X3290620Y5171643D01*
X3290620Y5216956D01*
X3289706Y5230723D01*
X3287064Y5243931D01*
X3282746Y5256682D01*
X3276803Y5268722D01*
X3269335Y5279948D01*
X3260445Y5290058D01*
X3250336Y5298948D01*
X3239160Y5306415D01*
X3227070Y5312359D01*
X3214319Y5316677D01*
X3201111Y5319318D01*
X3187700Y5320182D01*
X3174288Y5319318D01*
X3161080Y5316677D01*
X3148330Y5312359D01*
X3136239Y5306415D01*
X3125063Y5298948D01*
X3114954Y5290058D01*
X3106064Y5279948D01*
X3098596Y5268722D01*
X3092653Y5256682D01*
X3088335Y5243931D01*
X3085693Y5230723D01*
X3084779Y5216956D01*
X3084779Y5171643D01*
X3085693Y5157876D01*
X3088335Y5144668D01*
X3092653Y5131917D01*
X3098596Y5119878D01*
X3106064Y5108651D01*
X3114954Y5098542D01*
X3125063Y5089652D01*
X3136239Y5082184D01*
X3143402Y5078679D01*
X3146399Y5076393D01*
X3148380Y5073243D01*
X3149092Y5069535D01*
X3149092Y2725318D01*
X3148330Y2721406D01*
X3146094Y2718104D01*
X2018995Y1591005D01*
X2015693Y1588770D01*
X2011781Y1588008D01*
X1992985Y1588008D01*
X1989277Y1588719D01*
X1986076Y1590700D01*
X1983841Y1593748D01*
X1978406Y1605026D01*
X1970481Y1617218D01*
X1961032Y1628292D01*
X1950313Y1638046D01*
X1938375Y1646377D01*
X1925472Y1653082D01*
X1911857Y1658112D01*
X1897684Y1661312D01*
X1883257Y1662734D01*
X1868728Y1662277D01*
X1854352Y1659940D01*
X1840433Y1655825D01*
X1827174Y1649933D01*
X1814728Y1642414D01*
X1803349Y1633321D01*
X1793239Y1622907D01*
X1784553Y1611274D01*
X1777441Y1598574D01*
X1772005Y1585112D01*
X1768297Y1571091D01*
X1766468Y1556664D01*
X1766468Y1542135D01*
X1768297Y1527708D01*
X1772005Y1513687D01*
X1777441Y1500225D01*
X1784553Y1487525D01*
X1793239Y1475892D01*
X1803349Y1465478D01*
X1814728Y1456385D01*
X1827174Y1448866D01*
X1840433Y1442974D01*
X1854352Y1438859D01*
X1868728Y1436522D01*
G37*
G36*
X3400247Y1448562D02*
G01*
X3413709Y1449019D01*
X3426968Y1451254D01*
X3439871Y1455267D01*
X3452063Y1460906D01*
X3463442Y1468170D01*
X3473754Y1476857D01*
X3482797Y1486865D01*
X3490417Y1497990D01*
X3496462Y1510030D01*
X3500882Y1522730D01*
X3503574Y1535938D01*
X3504488Y1549400D01*
X3503574Y1562862D01*
X3500882Y1576070D01*
X3496462Y1588770D01*
X3490417Y1600809D01*
X3482797Y1611934D01*
X3473754Y1621942D01*
X3463442Y1630629D01*
X3452063Y1637893D01*
X3439871Y1643532D01*
X3426968Y1647545D01*
X3413709Y1649780D01*
X3400247Y1650238D01*
X3386836Y1648866D01*
X3373729Y1645767D01*
X3361131Y1640890D01*
X3349294Y1634439D01*
X3338474Y1626463D01*
X3328771Y1617065D01*
X3320440Y1606499D01*
X3313582Y1594916D01*
X3308299Y1582470D01*
X3304743Y1569516D01*
X3302965Y1556156D01*
X3302965Y1542643D01*
X3304743Y1529283D01*
X3308299Y1516329D01*
X3313582Y1503883D01*
X3320440Y1492300D01*
X3328771Y1481734D01*
X3338474Y1472336D01*
X3349294Y1464360D01*
X3361131Y1457909D01*
X3373729Y1453032D01*
X3386836Y1449933D01*
G37*
G36*
X718108Y1656842D02*
G01*
X882091Y1656842D01*
X888390Y1657553D01*
X893876Y1659483D01*
X898753Y1662531D01*
X902868Y1666646D01*
X905916Y1671523D01*
X907846Y1677009D01*
X908558Y1683308D01*
X908558Y1847291D01*
X907846Y1853590D01*
X905916Y1859076D01*
X902868Y1863953D01*
X898753Y1868068D01*
X893876Y1871116D01*
X888390Y1873046D01*
X882091Y1873757D01*
X718108Y1873757D01*
X711809Y1873046D01*
X706323Y1871116D01*
X701446Y1868068D01*
X697331Y1863953D01*
X694283Y1859076D01*
X692353Y1853590D01*
X691642Y1847291D01*
X691642Y1683308D01*
X692353Y1677009D01*
X694283Y1671523D01*
X697331Y1666646D01*
X701446Y1662531D01*
X706323Y1659483D01*
X711809Y1657553D01*
G37*
G36*
X1006500Y1668119D02*
G01*
X1006500Y1717649D01*
X956919Y1717649D01*
X960170Y1711096D01*
X968095Y1699310D01*
X977442Y1688642D01*
X988110Y1679295D01*
X999896Y1671370D01*
G37*
G36*
X1101750Y1668119D02*
G01*
X1108303Y1671370D01*
X1120089Y1679295D01*
X1130757Y1688642D01*
X1140104Y1699310D01*
X1148029Y1711096D01*
X1151280Y1717649D01*
X1101750Y1717649D01*
G37*
G36*
X1883257Y1690065D02*
G01*
X1897684Y1691487D01*
X1911857Y1694688D01*
X1925472Y1699717D01*
X1938375Y1706422D01*
X1950313Y1714754D01*
X1961032Y1724507D01*
X1970481Y1735582D01*
X1978406Y1747774D01*
X1984705Y1760829D01*
X1989277Y1774647D01*
X1992071Y1788922D01*
X1992985Y1803400D01*
X1992071Y1817878D01*
X1989277Y1832152D01*
X1984705Y1845970D01*
X1978406Y1859025D01*
X1970481Y1871218D01*
X1961032Y1882292D01*
X1950313Y1892046D01*
X1938375Y1900377D01*
X1925472Y1907082D01*
X1911857Y1912112D01*
X1897684Y1915312D01*
X1883257Y1916734D01*
X1868728Y1916277D01*
X1854352Y1913940D01*
X1840433Y1909825D01*
X1827174Y1903933D01*
X1814728Y1896414D01*
X1803349Y1887321D01*
X1793239Y1876907D01*
X1784553Y1865274D01*
X1777441Y1852574D01*
X1772005Y1839112D01*
X1768297Y1825091D01*
X1766468Y1810664D01*
X1766468Y1796135D01*
X1768297Y1781708D01*
X1772005Y1767687D01*
X1777441Y1754225D01*
X1784553Y1741525D01*
X1793239Y1729892D01*
X1803349Y1719478D01*
X1814728Y1710385D01*
X1827174Y1702866D01*
X1840433Y1696974D01*
X1854352Y1692859D01*
X1868728Y1690522D01*
G37*
G36*
X3400247Y1702562D02*
G01*
X3413709Y1703019D01*
X3426968Y1705254D01*
X3439871Y1709267D01*
X3452063Y1714906D01*
X3463442Y1722170D01*
X3473754Y1730857D01*
X3482797Y1740865D01*
X3490417Y1751990D01*
X3496462Y1764030D01*
X3500882Y1776730D01*
X3503574Y1789938D01*
X3504488Y1803400D01*
X3503574Y1816862D01*
X3500882Y1830070D01*
X3496462Y1842770D01*
X3490417Y1854809D01*
X3482797Y1865934D01*
X3473754Y1875942D01*
X3463442Y1884629D01*
X3452063Y1891893D01*
X3439871Y1897532D01*
X3426968Y1901545D01*
X3413709Y1903780D01*
X3400247Y1904238D01*
X3386836Y1902866D01*
X3373729Y1899767D01*
X3361131Y1894890D01*
X3349294Y1888439D01*
X3338474Y1880463D01*
X3328771Y1871065D01*
X3320440Y1860499D01*
X3313582Y1848916D01*
X3308299Y1836470D01*
X3304743Y1823516D01*
X3302965Y1810156D01*
X3302965Y1796643D01*
X3304743Y1783283D01*
X3308299Y1770329D01*
X3313582Y1757883D01*
X3320440Y1746300D01*
X3328771Y1735734D01*
X3338474Y1726336D01*
X3349294Y1718360D01*
X3361131Y1711909D01*
X3373729Y1707032D01*
X3386836Y1703933D01*
G37*
G36*
X956919Y1812899D02*
G01*
X1006500Y1812899D01*
X1006500Y1862480D01*
X999896Y1859229D01*
X988110Y1851304D01*
X977442Y1841957D01*
X968095Y1831289D01*
X960170Y1819503D01*
G37*
G36*
X1101750Y1812899D02*
G01*
X1151280Y1812899D01*
X1148029Y1819503D01*
X1140104Y1831289D01*
X1130757Y1841957D01*
X1120089Y1851304D01*
X1108303Y1859229D01*
X1101750Y1862480D01*
G37*
G36*
X1876247Y1956562D02*
G01*
X1889709Y1957019D01*
X1902968Y1959254D01*
X1915871Y1963267D01*
X1928063Y1968906D01*
X1939442Y1976170D01*
X1949754Y1984857D01*
X1958797Y1994865D01*
X1966417Y2005990D01*
X1972462Y2018030D01*
X1976882Y2030730D01*
X1979574Y2043938D01*
X1980488Y2057400D01*
X1979574Y2070862D01*
X1976882Y2084070D01*
X1972462Y2096770D01*
X1966417Y2108809D01*
X1958797Y2119934D01*
X1949754Y2129942D01*
X1939442Y2138629D01*
X1928063Y2145893D01*
X1915871Y2151532D01*
X1902968Y2155545D01*
X1889709Y2157780D01*
X1876247Y2158238D01*
X1862836Y2156866D01*
X1849729Y2153767D01*
X1837131Y2148890D01*
X1825294Y2142439D01*
X1814474Y2134463D01*
X1804771Y2125065D01*
X1796440Y2114499D01*
X1789582Y2102916D01*
X1784299Y2090470D01*
X1780743Y2077516D01*
X1778965Y2064156D01*
X1778965Y2050643D01*
X1780743Y2037283D01*
X1784299Y2024329D01*
X1789582Y2011883D01*
X1796440Y2000300D01*
X1804771Y1989734D01*
X1814474Y1980336D01*
X1825294Y1972360D01*
X1837131Y1965909D01*
X1849729Y1961032D01*
X1862836Y1957933D01*
G37*
G36*
X3400247Y1956562D02*
G01*
X3413709Y1957019D01*
X3426968Y1959254D01*
X3439871Y1963267D01*
X3452063Y1968906D01*
X3463442Y1976170D01*
X3473754Y1984857D01*
X3482797Y1994865D01*
X3490417Y2005990D01*
X3496462Y2018030D01*
X3500882Y2030730D01*
X3503574Y2043938D01*
X3504488Y2057400D01*
X3503574Y2070862D01*
X3500882Y2084070D01*
X3496462Y2096770D01*
X3490417Y2108809D01*
X3482797Y2119934D01*
X3473754Y2129942D01*
X3463442Y2138629D01*
X3452063Y2145893D01*
X3439871Y2151532D01*
X3426968Y2155545D01*
X3413709Y2157780D01*
X3400247Y2158238D01*
X3386836Y2156866D01*
X3373729Y2153767D01*
X3361131Y2148890D01*
X3349294Y2142439D01*
X3338474Y2134463D01*
X3328771Y2125065D01*
X3320440Y2114499D01*
X3313582Y2102916D01*
X3308299Y2090470D01*
X3304743Y2077516D01*
X3302965Y2064156D01*
X3302965Y2050643D01*
X3304743Y2037283D01*
X3308299Y2024329D01*
X3313582Y2011883D01*
X3320440Y2000300D01*
X3328771Y1989734D01*
X3338474Y1980336D01*
X3349294Y1972360D01*
X3361131Y1965909D01*
X3373729Y1961032D01*
X3386836Y1957933D01*
G37*
G36*
X4209135Y1995068D02*
G01*
X4223664Y1995068D01*
X4238091Y1996897D01*
X4252112Y2000605D01*
X4265574Y2006041D01*
X4278274Y2013153D01*
X4289907Y2021839D01*
X4300321Y2031949D01*
X4309414Y2043328D01*
X4316933Y2055774D01*
X4322826Y2069033D01*
X4326940Y2082952D01*
X4329277Y2097328D01*
X4329734Y2111857D01*
X4328312Y2126284D01*
X4325112Y2140458D01*
X4320082Y2154123D01*
X4313377Y2166975D01*
X4305046Y2178913D01*
X4295292Y2189632D01*
X4284218Y2199081D01*
X4272026Y2207006D01*
X4258970Y2213305D01*
X4245152Y2217877D01*
X4230878Y2220671D01*
X4216400Y2221585D01*
X4201922Y2220671D01*
X4187647Y2217877D01*
X4173829Y2213305D01*
X4160774Y2207006D01*
X4148582Y2199081D01*
X4137507Y2189632D01*
X4127754Y2178913D01*
X4119422Y2166975D01*
X4112717Y2154123D01*
X4107687Y2140458D01*
X4104487Y2126284D01*
X4103065Y2111857D01*
X4103522Y2097328D01*
X4105859Y2082952D01*
X4109974Y2069033D01*
X4115866Y2055774D01*
X4123385Y2043328D01*
X4132478Y2031949D01*
X4142892Y2021839D01*
X4154525Y2013153D01*
X4167225Y2006041D01*
X4180687Y2000605D01*
X4194708Y1996897D01*
G37*
G36*
X3400247Y2210562D02*
G01*
X3413709Y2211019D01*
X3426968Y2213254D01*
X3439871Y2217267D01*
X3452063Y2222906D01*
X3463442Y2230170D01*
X3473754Y2238857D01*
X3482797Y2248865D01*
X3490417Y2259990D01*
X3496462Y2272030D01*
X3500882Y2284730D01*
X3503574Y2297938D01*
X3504488Y2311400D01*
X3503574Y2324862D01*
X3500882Y2338070D01*
X3496462Y2350770D01*
X3490417Y2362809D01*
X3482797Y2373934D01*
X3473754Y2383942D01*
X3463442Y2392629D01*
X3452063Y2399893D01*
X3439871Y2405532D01*
X3426968Y2409545D01*
X3413709Y2411780D01*
X3400247Y2412238D01*
X3386836Y2410866D01*
X3373729Y2407767D01*
X3361131Y2402890D01*
X3349294Y2396439D01*
X3338474Y2388463D01*
X3328771Y2379065D01*
X3320440Y2368499D01*
X3313582Y2356916D01*
X3308299Y2344470D01*
X3304743Y2331516D01*
X3302965Y2318156D01*
X3302965Y2304643D01*
X3304743Y2291283D01*
X3308299Y2278329D01*
X3313582Y2265883D01*
X3320440Y2254300D01*
X3328771Y2243734D01*
X3338474Y2234336D01*
X3349294Y2226360D01*
X3361131Y2219909D01*
X3373729Y2215032D01*
X3386836Y2211933D01*
G37*
G36*
X1876247Y2210562D02*
G01*
X1889709Y2211019D01*
X1902968Y2213254D01*
X1915871Y2217267D01*
X1928063Y2222906D01*
X1939442Y2230170D01*
X1949754Y2238857D01*
X1958797Y2248865D01*
X1966417Y2259990D01*
X1972462Y2272030D01*
X1976882Y2284730D01*
X1979574Y2297938D01*
X1980488Y2311400D01*
X1979574Y2324862D01*
X1976882Y2338070D01*
X1972462Y2350770D01*
X1966417Y2362809D01*
X1958797Y2373934D01*
X1949754Y2383942D01*
X1939442Y2392629D01*
X1928063Y2399893D01*
X1915871Y2405532D01*
X1902968Y2409545D01*
X1889709Y2411780D01*
X1876247Y2412238D01*
X1862836Y2410866D01*
X1849729Y2407767D01*
X1837131Y2402890D01*
X1825294Y2396439D01*
X1814474Y2388463D01*
X1804771Y2379065D01*
X1796440Y2368499D01*
X1787042Y2352954D01*
X1783791Y2350770D01*
X1779930Y2350008D01*
X1722018Y2350008D01*
X1718106Y2350770D01*
X1714804Y2353005D01*
X1641805Y2426004D01*
X1639570Y2429306D01*
X1638807Y2433218D01*
X1638807Y4869281D01*
X1639570Y4873193D01*
X1641805Y4876495D01*
X1714804Y4949494D01*
X1718106Y4951730D01*
X1722018Y4952492D01*
X2729992Y4952492D01*
X2738018Y4953304D01*
X2745232Y4955489D01*
X2751937Y4959045D01*
X2758135Y4964176D01*
X2873044Y5079034D01*
X2876550Y5081320D01*
X2880664Y5082032D01*
X2884728Y5080965D01*
X2894330Y5076240D01*
X2907080Y5071922D01*
X2920288Y5069281D01*
X2933700Y5068417D01*
X2947111Y5069281D01*
X2960319Y5071922D01*
X2973070Y5076240D01*
X2985160Y5082184D01*
X2996336Y5089652D01*
X3006445Y5098542D01*
X3015335Y5108651D01*
X3022803Y5119878D01*
X3028746Y5131917D01*
X3033064Y5144668D01*
X3035706Y5157876D01*
X3036620Y5171643D01*
X3036620Y5216956D01*
X3035706Y5230723D01*
X3033064Y5243931D01*
X3028746Y5256682D01*
X3022803Y5268722D01*
X3015335Y5279948D01*
X3006445Y5290058D01*
X2996336Y5298948D01*
X2985160Y5306415D01*
X2973070Y5312359D01*
X2960319Y5316677D01*
X2947111Y5319318D01*
X2933700Y5320182D01*
X2920288Y5319318D01*
X2907080Y5316677D01*
X2894330Y5312359D01*
X2882239Y5306415D01*
X2871063Y5298948D01*
X2860954Y5290058D01*
X2852064Y5279948D01*
X2844596Y5268722D01*
X2838653Y5256682D01*
X2834335Y5243931D01*
X2831693Y5230723D01*
X2830779Y5216956D01*
X2830779Y5171643D01*
X2831693Y5157876D01*
X2832455Y5154015D01*
X2832557Y5150713D01*
X2831592Y5147564D01*
X2829661Y5144871D01*
X2717495Y5032705D01*
X2714193Y5030470D01*
X2710281Y5029708D01*
X1702307Y5029708D01*
X1694281Y5028895D01*
X1687068Y5026710D01*
X1680362Y5023154D01*
X1674164Y5018024D01*
X1573276Y4917135D01*
X1568145Y4910937D01*
X1564589Y4904232D01*
X1562404Y4897018D01*
X1561592Y4888992D01*
X1561592Y2413508D01*
X1562404Y2405481D01*
X1564589Y2398268D01*
X1568145Y2391562D01*
X1573276Y2385364D01*
X1674164Y2284476D01*
X1680362Y2279345D01*
X1687068Y2275789D01*
X1694281Y2273604D01*
X1702307Y2272792D01*
X1779930Y2272792D01*
X1783791Y2272030D01*
X1787042Y2269845D01*
X1796440Y2254300D01*
X1804771Y2243734D01*
X1814474Y2234336D01*
X1825294Y2226360D01*
X1837131Y2219909D01*
X1849729Y2215032D01*
X1862836Y2211933D01*
G37*
G36*
X4209135Y2249068D02*
G01*
X4223664Y2249068D01*
X4238091Y2250897D01*
X4252112Y2254605D01*
X4265574Y2260041D01*
X4278274Y2267153D01*
X4289907Y2275840D01*
X4300321Y2285949D01*
X4309414Y2297328D01*
X4316933Y2309774D01*
X4322826Y2323033D01*
X4326940Y2336952D01*
X4329277Y2351328D01*
X4329734Y2365857D01*
X4328312Y2380284D01*
X4325112Y2394458D01*
X4320082Y2408123D01*
X4313377Y2420975D01*
X4305046Y2432913D01*
X4295292Y2443632D01*
X4284218Y2453081D01*
X4272026Y2461006D01*
X4258970Y2467305D01*
X4245152Y2471877D01*
X4230878Y2474671D01*
X4216400Y2475585D01*
X4201922Y2474671D01*
X4187647Y2471877D01*
X4173829Y2467305D01*
X4160774Y2461006D01*
X4148582Y2453081D01*
X4137507Y2443632D01*
X4127754Y2432913D01*
X4119422Y2420975D01*
X4112717Y2408123D01*
X4107687Y2394458D01*
X4104487Y2380284D01*
X4103065Y2365857D01*
X4103522Y2351328D01*
X4105859Y2336952D01*
X4109974Y2323033D01*
X4115866Y2309774D01*
X4123385Y2297328D01*
X4132478Y2285949D01*
X4142892Y2275840D01*
X4154525Y2267153D01*
X4167225Y2260041D01*
X4180687Y2254605D01*
X4194708Y2250897D01*
G37*
G36*
X1876247Y2464562D02*
G01*
X1889709Y2465019D01*
X1902968Y2467254D01*
X1915871Y2471267D01*
X1928063Y2476906D01*
X1939442Y2484170D01*
X1949754Y2492857D01*
X1958797Y2502865D01*
X1966417Y2513990D01*
X1972462Y2526030D01*
X1976882Y2538730D01*
X1979574Y2551938D01*
X1980488Y2565400D01*
X1979574Y2578862D01*
X1976882Y2592070D01*
X1972462Y2604770D01*
X1966417Y2616809D01*
X1958797Y2627934D01*
X1949754Y2637942D01*
X1939442Y2646629D01*
X1928063Y2653893D01*
X1915871Y2659532D01*
X1902968Y2663545D01*
X1889709Y2665780D01*
X1876247Y2666238D01*
X1862836Y2664866D01*
X1849729Y2661767D01*
X1837131Y2656890D01*
X1825294Y2650439D01*
X1814474Y2642463D01*
X1804771Y2633065D01*
X1796440Y2622499D01*
X1789582Y2610916D01*
X1784299Y2598470D01*
X1780743Y2585516D01*
X1778965Y2572156D01*
X1778965Y2558643D01*
X1780743Y2545283D01*
X1784299Y2532329D01*
X1789582Y2519883D01*
X1796440Y2508300D01*
X1804771Y2497734D01*
X1814474Y2488336D01*
X1825294Y2480360D01*
X1837131Y2473909D01*
X1849729Y2469032D01*
X1862836Y2465933D01*
G37*
G36*
X3400247Y2464562D02*
G01*
X3413709Y2465019D01*
X3426968Y2467254D01*
X3439871Y2471267D01*
X3452063Y2476906D01*
X3463442Y2484170D01*
X3473754Y2492857D01*
X3482797Y2502865D01*
X3490417Y2513990D01*
X3496462Y2526030D01*
X3500882Y2538730D01*
X3503574Y2551938D01*
X3504488Y2565400D01*
X3503574Y2578862D01*
X3500882Y2592070D01*
X3496462Y2604770D01*
X3490417Y2616809D01*
X3482797Y2627934D01*
X3473754Y2637942D01*
X3463442Y2646629D01*
X3452063Y2653893D01*
X3439871Y2659532D01*
X3426968Y2663545D01*
X3413709Y2665780D01*
X3400247Y2666238D01*
X3386836Y2664866D01*
X3373729Y2661767D01*
X3361131Y2656890D01*
X3349294Y2650439D01*
X3338474Y2642463D01*
X3328771Y2633065D01*
X3320440Y2622499D01*
X3313582Y2610916D01*
X3308299Y2598470D01*
X3304743Y2585516D01*
X3302965Y2572156D01*
X3302965Y2558643D01*
X3304743Y2545283D01*
X3308299Y2532329D01*
X3313582Y2519883D01*
X3320440Y2508300D01*
X3328771Y2497734D01*
X3338474Y2488336D01*
X3349294Y2480360D01*
X3361131Y2473909D01*
X3373729Y2469032D01*
X3386836Y2465933D01*
G37*
G36*
X4209135Y2503068D02*
G01*
X4223664Y2503068D01*
X4238091Y2504897D01*
X4252112Y2508605D01*
X4265574Y2514041D01*
X4278274Y2521153D01*
X4289907Y2529840D01*
X4300321Y2539949D01*
X4309414Y2551328D01*
X4316933Y2563774D01*
X4322826Y2577033D01*
X4326940Y2590952D01*
X4329277Y2605328D01*
X4329734Y2619857D01*
X4328312Y2634284D01*
X4325112Y2648458D01*
X4320082Y2662123D01*
X4313377Y2674975D01*
X4305046Y2686913D01*
X4295292Y2697632D01*
X4284218Y2707081D01*
X4272026Y2715006D01*
X4258970Y2721305D01*
X4245152Y2725877D01*
X4230878Y2728671D01*
X4216400Y2729585D01*
X4201922Y2728671D01*
X4187647Y2725877D01*
X4173829Y2721305D01*
X4160774Y2715006D01*
X4148582Y2707081D01*
X4137507Y2697632D01*
X4127754Y2686913D01*
X4119422Y2674975D01*
X4112717Y2662123D01*
X4107687Y2648458D01*
X4104487Y2634284D01*
X4103065Y2619857D01*
X4103522Y2605328D01*
X4105859Y2590952D01*
X4109974Y2577033D01*
X4115866Y2563774D01*
X4123385Y2551328D01*
X4132478Y2539949D01*
X4142892Y2529840D01*
X4154525Y2521153D01*
X4167225Y2514041D01*
X4180687Y2508605D01*
X4194708Y2504897D01*
G37*
G36*
X1876247Y2718562D02*
G01*
X1889709Y2719019D01*
X1902968Y2721254D01*
X1915871Y2725267D01*
X1928063Y2730906D01*
X1939442Y2738170D01*
X1949754Y2746857D01*
X1958797Y2756865D01*
X1966417Y2767990D01*
X1972462Y2780030D01*
X1976882Y2792730D01*
X1979574Y2805938D01*
X1980488Y2819400D01*
X1979574Y2832862D01*
X1976882Y2846070D01*
X1972462Y2858770D01*
X1966417Y2870809D01*
X1958797Y2881934D01*
X1949754Y2891942D01*
X1939442Y2900629D01*
X1928063Y2907893D01*
X1915871Y2913532D01*
X1902968Y2917545D01*
X1889709Y2919780D01*
X1876247Y2920238D01*
X1862836Y2918866D01*
X1849729Y2915767D01*
X1837131Y2910890D01*
X1825294Y2904439D01*
X1814474Y2896463D01*
X1804771Y2887065D01*
X1796440Y2876499D01*
X1789582Y2864916D01*
X1784299Y2852470D01*
X1780743Y2839516D01*
X1778965Y2826156D01*
X1778965Y2812643D01*
X1780743Y2799283D01*
X1784299Y2786329D01*
X1789582Y2773883D01*
X1796440Y2762300D01*
X1804771Y2751734D01*
X1814474Y2742336D01*
X1825294Y2734360D01*
X1837131Y2727909D01*
X1849729Y2723032D01*
X1862836Y2719933D01*
G37*
G36*
X3400247Y2718562D02*
G01*
X3413709Y2719019D01*
X3426968Y2721254D01*
X3439871Y2725267D01*
X3452063Y2730906D01*
X3463442Y2738170D01*
X3473754Y2746857D01*
X3482797Y2756865D01*
X3490417Y2767990D01*
X3496462Y2780030D01*
X3500882Y2792730D01*
X3503574Y2805938D01*
X3504488Y2819400D01*
X3503574Y2832862D01*
X3500882Y2846070D01*
X3496462Y2858770D01*
X3490417Y2870809D01*
X3482797Y2881934D01*
X3473754Y2891942D01*
X3463442Y2900629D01*
X3452063Y2907893D01*
X3439871Y2913532D01*
X3426968Y2917545D01*
X3413709Y2919780D01*
X3400247Y2920238D01*
X3386836Y2918866D01*
X3373729Y2915767D01*
X3361131Y2910890D01*
X3349294Y2904439D01*
X3338474Y2896463D01*
X3328771Y2887065D01*
X3320440Y2876499D01*
X3313582Y2864916D01*
X3308299Y2852470D01*
X3304743Y2839516D01*
X3302965Y2826156D01*
X3302965Y2812643D01*
X3304743Y2799283D01*
X3308299Y2786329D01*
X3313582Y2773883D01*
X3320440Y2762300D01*
X3328771Y2751734D01*
X3338474Y2742336D01*
X3349294Y2734360D01*
X3361131Y2727909D01*
X3373729Y2723032D01*
X3386836Y2719933D01*
G37*
G36*
X4209135Y2757068D02*
G01*
X4223664Y2757068D01*
X4238091Y2758897D01*
X4252112Y2762605D01*
X4265574Y2768041D01*
X4278274Y2775153D01*
X4289907Y2783840D01*
X4300321Y2793949D01*
X4309414Y2805328D01*
X4316933Y2817774D01*
X4322826Y2831033D01*
X4326940Y2844952D01*
X4329277Y2859328D01*
X4329734Y2873857D01*
X4328312Y2888284D01*
X4325112Y2902458D01*
X4320082Y2916072D01*
X4313377Y2928975D01*
X4305046Y2940913D01*
X4295292Y2951632D01*
X4284218Y2961081D01*
X4272026Y2969006D01*
X4258970Y2975305D01*
X4245152Y2979877D01*
X4230878Y2982671D01*
X4216400Y2983585D01*
X4201922Y2982671D01*
X4187647Y2979877D01*
X4173829Y2975305D01*
X4160774Y2969006D01*
X4148582Y2961081D01*
X4137507Y2951632D01*
X4127754Y2940913D01*
X4119422Y2928975D01*
X4112717Y2916072D01*
X4107687Y2902458D01*
X4104487Y2888284D01*
X4103065Y2873857D01*
X4103522Y2859328D01*
X4105859Y2844952D01*
X4109974Y2831033D01*
X4115866Y2817774D01*
X4123385Y2805328D01*
X4132478Y2793949D01*
X4142892Y2783840D01*
X4154525Y2775153D01*
X4167225Y2768041D01*
X4180687Y2762605D01*
X4194708Y2758897D01*
G37*
G36*
X1876247Y2972562D02*
G01*
X1889709Y2973019D01*
X1902968Y2975254D01*
X1915871Y2979267D01*
X1928063Y2984906D01*
X1939442Y2992170D01*
X1949754Y3000857D01*
X1958797Y3010865D01*
X1966417Y3021990D01*
X1972462Y3034030D01*
X1976882Y3046730D01*
X1979574Y3059938D01*
X1980488Y3073400D01*
X1979574Y3086862D01*
X1976882Y3100070D01*
X1972462Y3112770D01*
X1966417Y3124809D01*
X1958797Y3135934D01*
X1949754Y3145942D01*
X1939442Y3154629D01*
X1928063Y3161893D01*
X1915871Y3167532D01*
X1902968Y3171545D01*
X1889709Y3173780D01*
X1876247Y3174238D01*
X1862836Y3172866D01*
X1849729Y3169767D01*
X1837131Y3164890D01*
X1825294Y3158439D01*
X1814474Y3150463D01*
X1804771Y3141065D01*
X1796440Y3130499D01*
X1789582Y3118916D01*
X1784299Y3106470D01*
X1780743Y3093516D01*
X1778965Y3080156D01*
X1778965Y3066643D01*
X1780743Y3053283D01*
X1784299Y3040329D01*
X1789582Y3027883D01*
X1796440Y3016300D01*
X1804771Y3005734D01*
X1814474Y2996336D01*
X1825294Y2988360D01*
X1837131Y2981909D01*
X1849729Y2977032D01*
X1862836Y2973933D01*
G37*
G36*
X3400247Y2972562D02*
G01*
X3413709Y2973019D01*
X3426968Y2975254D01*
X3439871Y2979267D01*
X3452063Y2984906D01*
X3463442Y2992170D01*
X3473754Y3000857D01*
X3482797Y3010865D01*
X3490417Y3021990D01*
X3496462Y3034030D01*
X3500882Y3046730D01*
X3503574Y3059938D01*
X3504488Y3073400D01*
X3503574Y3086862D01*
X3500882Y3100070D01*
X3496462Y3112770D01*
X3490417Y3124809D01*
X3482797Y3135934D01*
X3473754Y3145942D01*
X3463442Y3154629D01*
X3452063Y3161893D01*
X3439871Y3167532D01*
X3426968Y3171545D01*
X3413709Y3173780D01*
X3400247Y3174238D01*
X3386836Y3172866D01*
X3373729Y3169767D01*
X3361131Y3164890D01*
X3349294Y3158439D01*
X3338474Y3150463D01*
X3328771Y3141065D01*
X3320440Y3130499D01*
X3313582Y3118916D01*
X3308299Y3106470D01*
X3304743Y3093516D01*
X3302965Y3080156D01*
X3302965Y3066643D01*
X3304743Y3053283D01*
X3308299Y3040329D01*
X3313582Y3027883D01*
X3320440Y3016300D01*
X3328771Y3005734D01*
X3338474Y2996336D01*
X3349294Y2988360D01*
X3361131Y2981909D01*
X3373729Y2977032D01*
X3386836Y2973933D01*
G37*
G36*
X4209135Y3011068D02*
G01*
X4223664Y3011068D01*
X4238091Y3012897D01*
X4252112Y3016605D01*
X4265574Y3022041D01*
X4278274Y3029153D01*
X4289907Y3037840D01*
X4300321Y3047949D01*
X4309414Y3059328D01*
X4316933Y3071774D01*
X4322826Y3085033D01*
X4326940Y3098952D01*
X4329277Y3113328D01*
X4329734Y3127857D01*
X4328312Y3142284D01*
X4325112Y3156458D01*
X4320082Y3170072D01*
X4313377Y3182975D01*
X4305046Y3194913D01*
X4295292Y3205632D01*
X4284218Y3215081D01*
X4272026Y3223006D01*
X4258970Y3229305D01*
X4245152Y3233877D01*
X4230878Y3236671D01*
X4216400Y3237585D01*
X4201922Y3236671D01*
X4187647Y3233877D01*
X4173829Y3229305D01*
X4160774Y3223006D01*
X4148582Y3215081D01*
X4137507Y3205632D01*
X4127754Y3194913D01*
X4119422Y3182975D01*
X4112717Y3170072D01*
X4107687Y3156458D01*
X4104487Y3142284D01*
X4103065Y3127857D01*
X4103522Y3113328D01*
X4105859Y3098952D01*
X4109974Y3085033D01*
X4115866Y3071774D01*
X4123385Y3059328D01*
X4132478Y3047949D01*
X4142892Y3037840D01*
X4154525Y3029153D01*
X4167225Y3022041D01*
X4180687Y3016605D01*
X4194708Y3012897D01*
G37*
G36*
X1876247Y3226562D02*
G01*
X1889709Y3227019D01*
X1902968Y3229254D01*
X1915871Y3233267D01*
X1928063Y3238906D01*
X1939442Y3246170D01*
X1949754Y3254857D01*
X1958797Y3264865D01*
X1966417Y3275990D01*
X1972462Y3288029D01*
X1976882Y3300729D01*
X1979574Y3313937D01*
X1980488Y3327400D01*
X1979574Y3340862D01*
X1976882Y3354070D01*
X1972462Y3366770D01*
X1966417Y3378809D01*
X1958797Y3389934D01*
X1949754Y3399942D01*
X1939442Y3408629D01*
X1928063Y3415893D01*
X1915871Y3421532D01*
X1902968Y3425545D01*
X1889709Y3427780D01*
X1876247Y3428237D01*
X1862836Y3426866D01*
X1849729Y3423767D01*
X1837131Y3418890D01*
X1825294Y3412439D01*
X1814474Y3404463D01*
X1804771Y3395065D01*
X1796440Y3384499D01*
X1789582Y3372916D01*
X1784299Y3360470D01*
X1780743Y3347516D01*
X1778965Y3334156D01*
X1778965Y3320643D01*
X1780743Y3307283D01*
X1784299Y3294329D01*
X1789582Y3281883D01*
X1796440Y3270300D01*
X1804771Y3259734D01*
X1814474Y3250336D01*
X1825294Y3242360D01*
X1837131Y3235909D01*
X1849729Y3231032D01*
X1862836Y3227933D01*
G37*
G36*
X3359759Y3236671D02*
G01*
X3359759Y3283559D01*
X3312871Y3283559D01*
X3313582Y3281883D01*
X3320440Y3270300D01*
X3328771Y3259734D01*
X3338474Y3250336D01*
X3349294Y3242360D01*
G37*
G36*
X3447440Y3236772D02*
G01*
X3452063Y3238906D01*
X3463442Y3246170D01*
X3473754Y3254857D01*
X3482797Y3264865D01*
X3490417Y3275990D01*
X3494227Y3283559D01*
X3447440Y3283559D01*
G37*
G36*
X4166311Y3276549D02*
G01*
X4166311Y3328111D01*
X4114850Y3328111D01*
X4115866Y3325774D01*
X4123385Y3313328D01*
X4132478Y3301949D01*
X4142892Y3291840D01*
X4154525Y3283153D01*
G37*
G36*
X4266488Y3276549D02*
G01*
X4278274Y3283153D01*
X4289907Y3291840D01*
X4300321Y3301949D01*
X4309414Y3313328D01*
X4316933Y3325774D01*
X4317949Y3328111D01*
X4266488Y3328111D01*
G37*
G36*
X3447440Y3371240D02*
G01*
X3494227Y3371240D01*
X3490417Y3378809D01*
X3482797Y3389934D01*
X3473754Y3399942D01*
X3463442Y3408629D01*
X3452063Y3415893D01*
X3447440Y3418027D01*
G37*
G36*
X3312871Y3371240D02*
G01*
X3359759Y3371240D01*
X3359759Y3418128D01*
X3349294Y3412439D01*
X3338474Y3404463D01*
X3328771Y3395065D01*
X3320440Y3384499D01*
X3313582Y3372916D01*
G37*
G36*
X4114901Y3428288D02*
G01*
X4166311Y3428288D01*
X4166311Y3479647D01*
X4160774Y3477006D01*
X4148582Y3469081D01*
X4137507Y3459632D01*
X4127754Y3448913D01*
X4119422Y3436975D01*
G37*
G36*
X4266488Y3428288D02*
G01*
X4317898Y3428288D01*
X4313377Y3436975D01*
X4305046Y3448913D01*
X4295292Y3459632D01*
X4284218Y3469081D01*
X4272026Y3477006D01*
X4266488Y3479647D01*
G37*
G36*
X1876247Y3480562D02*
G01*
X1889709Y3481019D01*
X1902968Y3483254D01*
X1915871Y3487267D01*
X1928063Y3492906D01*
X1939442Y3500170D01*
X1949754Y3508857D01*
X1958797Y3518865D01*
X1966417Y3529990D01*
X1972462Y3542029D01*
X1976882Y3554729D01*
X1979574Y3567937D01*
X1980488Y3581400D01*
X1979574Y3594862D01*
X1976882Y3608070D01*
X1972462Y3620770D01*
X1966417Y3632809D01*
X1958797Y3643934D01*
X1949754Y3653942D01*
X1939442Y3662629D01*
X1937664Y3663746D01*
X1934565Y3666794D01*
X1933041Y3670858D01*
X1933346Y3675176D01*
X1935429Y3678986D01*
X1938883Y3681577D01*
X1943100Y3682492D01*
X2006041Y3682492D01*
X2012340Y3683203D01*
X2017826Y3685133D01*
X2022703Y3688181D01*
X2026818Y3692296D01*
X2029866Y3697173D01*
X2031796Y3702659D01*
X2032507Y3708958D01*
X2032507Y3961841D01*
X2031796Y3968140D01*
X2029866Y3973626D01*
X2026818Y3978503D01*
X2022703Y3982618D01*
X2017826Y3985666D01*
X2012340Y3987596D01*
X2006041Y3988308D01*
X1753158Y3988308D01*
X1746859Y3987596D01*
X1741373Y3985666D01*
X1736496Y3982618D01*
X1732381Y3978503D01*
X1729333Y3973626D01*
X1727403Y3968140D01*
X1726692Y3961841D01*
X1726692Y3708958D01*
X1727403Y3702659D01*
X1729333Y3697173D01*
X1732381Y3692296D01*
X1736496Y3688181D01*
X1741373Y3685133D01*
X1746859Y3683203D01*
X1753158Y3682492D01*
X1816201Y3682492D01*
X1820316Y3681628D01*
X1823720Y3679139D01*
X1825853Y3675481D01*
X1826310Y3671315D01*
X1825040Y3667302D01*
X1822196Y3664153D01*
X1814474Y3658463D01*
X1804771Y3649065D01*
X1796440Y3638499D01*
X1789582Y3626916D01*
X1784299Y3614470D01*
X1780743Y3601516D01*
X1778965Y3588156D01*
X1778965Y3574643D01*
X1780743Y3561283D01*
X1784299Y3548329D01*
X1789582Y3535883D01*
X1796440Y3524300D01*
X1804771Y3513734D01*
X1814474Y3504336D01*
X1825294Y3496360D01*
X1837131Y3489909D01*
X1849729Y3485032D01*
X1862836Y3481933D01*
G37*
G36*
X3400247Y3480562D02*
G01*
X3413709Y3481019D01*
X3426968Y3483254D01*
X3439871Y3487267D01*
X3452063Y3492906D01*
X3463442Y3500170D01*
X3473754Y3508857D01*
X3482797Y3518865D01*
X3490417Y3529990D01*
X3496462Y3542029D01*
X3500882Y3554729D01*
X3503574Y3567937D01*
X3504488Y3581400D01*
X3503574Y3594862D01*
X3500882Y3608070D01*
X3496462Y3620770D01*
X3490417Y3632809D01*
X3482797Y3643934D01*
X3473754Y3653942D01*
X3463442Y3662629D01*
X3461664Y3663746D01*
X3458565Y3666794D01*
X3457041Y3670858D01*
X3457346Y3675176D01*
X3459429Y3678986D01*
X3462883Y3681577D01*
X3467100Y3682492D01*
X3530041Y3682492D01*
X3536340Y3683203D01*
X3541826Y3685133D01*
X3546703Y3688181D01*
X3550818Y3692296D01*
X3553866Y3697173D01*
X3555796Y3702659D01*
X3556508Y3708958D01*
X3556508Y3961841D01*
X3555796Y3968140D01*
X3553866Y3973626D01*
X3550818Y3978503D01*
X3546703Y3982618D01*
X3541826Y3985666D01*
X3536340Y3987596D01*
X3530041Y3988308D01*
X3277158Y3988308D01*
X3270859Y3987596D01*
X3265373Y3985666D01*
X3260496Y3982618D01*
X3256381Y3978503D01*
X3253333Y3973626D01*
X3251403Y3968140D01*
X3250692Y3961841D01*
X3250692Y3708958D01*
X3251403Y3702659D01*
X3253333Y3697173D01*
X3256381Y3692296D01*
X3260496Y3688181D01*
X3265373Y3685133D01*
X3270859Y3683203D01*
X3277158Y3682492D01*
X3340201Y3682492D01*
X3344316Y3681628D01*
X3347720Y3679139D01*
X3349853Y3675481D01*
X3350310Y3671315D01*
X3349040Y3667302D01*
X3346196Y3664153D01*
X3338474Y3658463D01*
X3328771Y3649065D01*
X3320440Y3638499D01*
X3313582Y3626916D01*
X3308299Y3614470D01*
X3304743Y3601516D01*
X3302965Y3588156D01*
X3302965Y3574643D01*
X3304743Y3561283D01*
X3308299Y3548329D01*
X3313582Y3535883D01*
X3320440Y3524300D01*
X3328771Y3513734D01*
X3338474Y3504336D01*
X3349294Y3496360D01*
X3361131Y3489909D01*
X3373729Y3485032D01*
X3386836Y3481933D01*
G37*
G36*
X4165600Y3784092D02*
G01*
X4179214Y3785006D01*
X4192574Y3787749D01*
X4205478Y3792220D01*
X4217619Y3798366D01*
X4228846Y3806088D01*
X4239006Y3815232D01*
X4247794Y3825646D01*
X4255109Y3837127D01*
X4260850Y3849522D01*
X4264914Y3862527D01*
X4267149Y3875989D01*
X4267606Y3889603D01*
X4266285Y3903167D01*
X4263085Y3916426D01*
X4258208Y3929176D01*
X4251655Y3941114D01*
X4243578Y3952087D01*
X4234078Y3961892D01*
X4223359Y3970375D01*
X4211624Y3977335D01*
X4199077Y3982618D01*
X4185920Y3986225D01*
X4172407Y3988054D01*
X4158792Y3988054D01*
X4145279Y3986225D01*
X4132122Y3982618D01*
X4119575Y3977335D01*
X4107840Y3970375D01*
X4097121Y3961892D01*
X4087622Y3952087D01*
X4079544Y3941114D01*
X4072991Y3929176D01*
X4068114Y3916426D01*
X4064914Y3903167D01*
X4063593Y3889603D01*
X4064050Y3875989D01*
X4066286Y3862527D01*
X4070350Y3849522D01*
X4076090Y3837127D01*
X4083405Y3825646D01*
X4092194Y3815232D01*
X4102354Y3806088D01*
X4113580Y3798366D01*
X4125722Y3792220D01*
X4138625Y3787749D01*
X4151985Y3785006D01*
G37*
G36*
X2264003Y4139793D02*
G01*
X2277567Y4141114D01*
X2290826Y4144314D01*
X2303576Y4149191D01*
X2315514Y4155744D01*
X2326487Y4163822D01*
X2336292Y4173321D01*
X2344775Y4184040D01*
X2351735Y4195775D01*
X2357018Y4208322D01*
X2360625Y4221480D01*
X2362454Y4234992D01*
X2362454Y4248607D01*
X2360625Y4262120D01*
X2357018Y4275277D01*
X2351735Y4287824D01*
X2344775Y4299559D01*
X2336292Y4310278D01*
X2326487Y4319778D01*
X2315514Y4327855D01*
X2303576Y4334408D01*
X2290826Y4339285D01*
X2277567Y4342485D01*
X2264003Y4343806D01*
X2250389Y4343349D01*
X2236927Y4341114D01*
X2223922Y4337050D01*
X2211527Y4331309D01*
X2200046Y4323994D01*
X2189632Y4315206D01*
X2180488Y4305046D01*
X2172766Y4293819D01*
X2166620Y4281678D01*
X2162149Y4268774D01*
X2159406Y4255414D01*
X2158492Y4241800D01*
X2159406Y4228185D01*
X2162149Y4214825D01*
X2166620Y4201922D01*
X2172766Y4189780D01*
X2180488Y4178554D01*
X2189632Y4168394D01*
X2200046Y4159605D01*
X2211527Y4152290D01*
X2223922Y4146550D01*
X2236927Y4142486D01*
X2250389Y4140250D01*
G37*
G36*
X2772003Y4139793D02*
G01*
X2785567Y4141114D01*
X2798826Y4144314D01*
X2811576Y4149191D01*
X2823514Y4155744D01*
X2834487Y4163822D01*
X2844292Y4173321D01*
X2852775Y4184040D01*
X2859735Y4195775D01*
X2865018Y4208322D01*
X2868625Y4221480D01*
X2870454Y4234992D01*
X2870454Y4248607D01*
X2868625Y4262120D01*
X2865018Y4275277D01*
X2859735Y4287824D01*
X2852775Y4299559D01*
X2844292Y4310278D01*
X2834487Y4319778D01*
X2823514Y4327855D01*
X2811576Y4334408D01*
X2798826Y4339285D01*
X2785567Y4342485D01*
X2772003Y4343806D01*
X2758389Y4343349D01*
X2744927Y4341114D01*
X2731922Y4337050D01*
X2719527Y4331309D01*
X2708046Y4323994D01*
X2697632Y4315206D01*
X2688488Y4305046D01*
X2680766Y4293819D01*
X2674620Y4281678D01*
X2670149Y4268774D01*
X2667406Y4255414D01*
X2666492Y4241800D01*
X2667406Y4228185D01*
X2670149Y4214825D01*
X2674620Y4201922D01*
X2680766Y4189780D01*
X2688488Y4178554D01*
X2697632Y4168394D01*
X2708046Y4159605D01*
X2719527Y4152290D01*
X2731922Y4146550D01*
X2744927Y4142486D01*
X2758389Y4140250D01*
G37*
G36*
X3026003Y4139793D02*
G01*
X3039567Y4141114D01*
X3052826Y4144314D01*
X3065576Y4149191D01*
X3077514Y4155744D01*
X3088487Y4163822D01*
X3098292Y4173321D01*
X3106775Y4184040D01*
X3113735Y4195775D01*
X3119018Y4208322D01*
X3122625Y4221480D01*
X3124454Y4234992D01*
X3124454Y4248607D01*
X3122625Y4262120D01*
X3119018Y4275277D01*
X3113735Y4287824D01*
X3106775Y4299559D01*
X3098292Y4310278D01*
X3088487Y4319778D01*
X3077514Y4327855D01*
X3065576Y4334408D01*
X3052826Y4339285D01*
X3039567Y4342485D01*
X3026003Y4343806D01*
X3012389Y4343349D01*
X2998927Y4341114D01*
X2985922Y4337050D01*
X2973527Y4331309D01*
X2962046Y4323994D01*
X2951632Y4315206D01*
X2942488Y4305046D01*
X2934766Y4293819D01*
X2928620Y4281678D01*
X2924149Y4268774D01*
X2921406Y4255414D01*
X2920492Y4241800D01*
X2921406Y4228185D01*
X2924149Y4214825D01*
X2928620Y4201922D01*
X2934766Y4189780D01*
X2942488Y4178554D01*
X2951632Y4168394D01*
X2962046Y4159605D01*
X2973527Y4152290D01*
X2985922Y4146550D01*
X2998927Y4142486D01*
X3012389Y4140250D01*
G37*
G36*
X2518003Y4139793D02*
G01*
X2531567Y4141114D01*
X2544826Y4144314D01*
X2557576Y4149191D01*
X2569514Y4155744D01*
X2580487Y4163822D01*
X2590292Y4173321D01*
X2598775Y4184040D01*
X2605735Y4195775D01*
X2611018Y4208322D01*
X2614625Y4221480D01*
X2616454Y4234992D01*
X2616454Y4248607D01*
X2614625Y4262120D01*
X2611018Y4275277D01*
X2605735Y4287824D01*
X2598775Y4299559D01*
X2590292Y4310278D01*
X2580487Y4319778D01*
X2569514Y4327855D01*
X2557576Y4334408D01*
X2544826Y4339285D01*
X2531567Y4342485D01*
X2518003Y4343806D01*
X2504389Y4343349D01*
X2490927Y4341114D01*
X2477922Y4337050D01*
X2465527Y4331309D01*
X2454046Y4323994D01*
X2443632Y4315206D01*
X2434488Y4305046D01*
X2426766Y4293819D01*
X2420620Y4281678D01*
X2416149Y4268774D01*
X2413406Y4255414D01*
X2412492Y4241800D01*
X2413406Y4228185D01*
X2416149Y4214825D01*
X2420620Y4201922D01*
X2426766Y4189780D01*
X2434488Y4178554D01*
X2443632Y4168394D01*
X2454046Y4159605D01*
X2465527Y4152290D01*
X2477922Y4146550D01*
X2490927Y4142486D01*
X2504389Y4140250D01*
G37*
G36*
X2518003Y4393793D02*
G01*
X2531567Y4395114D01*
X2544826Y4398314D01*
X2557576Y4403191D01*
X2569514Y4409744D01*
X2580487Y4417822D01*
X2590292Y4427321D01*
X2598775Y4438040D01*
X2605735Y4449775D01*
X2611018Y4462322D01*
X2614625Y4475480D01*
X2616454Y4488992D01*
X2616454Y4502607D01*
X2614625Y4516120D01*
X2611018Y4529277D01*
X2605735Y4541824D01*
X2598775Y4553559D01*
X2590292Y4564278D01*
X2580487Y4573778D01*
X2569514Y4581855D01*
X2557576Y4588408D01*
X2544826Y4593285D01*
X2531567Y4596485D01*
X2518003Y4597806D01*
X2504389Y4597349D01*
X2490927Y4595114D01*
X2477922Y4591050D01*
X2465527Y4585309D01*
X2454046Y4577994D01*
X2443632Y4569206D01*
X2434488Y4559046D01*
X2426766Y4547819D01*
X2420620Y4535678D01*
X2416149Y4522774D01*
X2413406Y4509414D01*
X2412492Y4495800D01*
X2413406Y4482185D01*
X2416149Y4468825D01*
X2420620Y4455922D01*
X2426766Y4443780D01*
X2434488Y4432554D01*
X2443632Y4422394D01*
X2454046Y4413605D01*
X2465527Y4406290D01*
X2477922Y4400550D01*
X2490927Y4396486D01*
X2504389Y4394250D01*
G37*
G36*
X2772003Y4393793D02*
G01*
X2785567Y4395114D01*
X2798826Y4398314D01*
X2811576Y4403191D01*
X2823514Y4409744D01*
X2834487Y4417822D01*
X2844292Y4427321D01*
X2852775Y4438040D01*
X2859735Y4449775D01*
X2865018Y4462322D01*
X2868625Y4475480D01*
X2870454Y4488992D01*
X2870454Y4502607D01*
X2868625Y4516120D01*
X2865018Y4529277D01*
X2859735Y4541824D01*
X2852775Y4553559D01*
X2844292Y4564278D01*
X2834487Y4573778D01*
X2823514Y4581855D01*
X2811576Y4588408D01*
X2798826Y4593285D01*
X2785567Y4596485D01*
X2772003Y4597806D01*
X2758389Y4597349D01*
X2744927Y4595114D01*
X2731922Y4591050D01*
X2719527Y4585309D01*
X2708046Y4577994D01*
X2697632Y4569206D01*
X2688488Y4559046D01*
X2680766Y4547819D01*
X2674620Y4535678D01*
X2670149Y4522774D01*
X2667406Y4509414D01*
X2666492Y4495800D01*
X2667406Y4482185D01*
X2670149Y4468825D01*
X2674620Y4455922D01*
X2680766Y4443780D01*
X2688488Y4432554D01*
X2697632Y4422394D01*
X2708046Y4413605D01*
X2719527Y4406290D01*
X2731922Y4400550D01*
X2744927Y4396486D01*
X2758389Y4394250D01*
G37*
G36*
X2264003Y4393793D02*
G01*
X2277567Y4395114D01*
X2290826Y4398314D01*
X2303576Y4403191D01*
X2315514Y4409744D01*
X2326487Y4417822D01*
X2336292Y4427321D01*
X2344775Y4438040D01*
X2351735Y4449775D01*
X2357018Y4462322D01*
X2360625Y4475480D01*
X2362454Y4488992D01*
X2362454Y4502607D01*
X2360625Y4516120D01*
X2357018Y4529277D01*
X2351735Y4541824D01*
X2344775Y4553559D01*
X2336292Y4564278D01*
X2326487Y4573778D01*
X2315514Y4581855D01*
X2303576Y4588408D01*
X2290826Y4593285D01*
X2277567Y4596485D01*
X2264003Y4597806D01*
X2250389Y4597349D01*
X2236927Y4595114D01*
X2223922Y4591050D01*
X2211527Y4585309D01*
X2200046Y4577994D01*
X2189632Y4569206D01*
X2180488Y4559046D01*
X2172766Y4547819D01*
X2166620Y4535678D01*
X2162149Y4522774D01*
X2159406Y4509414D01*
X2158492Y4495800D01*
X2159406Y4482185D01*
X2162149Y4468825D01*
X2166620Y4455922D01*
X2172766Y4443780D01*
X2180488Y4432554D01*
X2189632Y4422394D01*
X2200046Y4413605D01*
X2211527Y4406290D01*
X2223922Y4400550D01*
X2236927Y4396486D01*
X2250389Y4394250D01*
G37*
G36*
X3067050Y4404004D02*
G01*
X3077514Y4409744D01*
X3088487Y4417822D01*
X3098292Y4427321D01*
X3106775Y4438040D01*
X3113735Y4449775D01*
X3114395Y4451350D01*
X3067050Y4451350D01*
G37*
G36*
X2978150Y4404156D02*
G01*
X2978150Y4451350D01*
X2930956Y4451350D01*
X2934766Y4443780D01*
X2942488Y4432554D01*
X2951632Y4422394D01*
X2962046Y4413605D01*
X2973527Y4406290D01*
G37*
G36*
X2930956Y4540250D02*
G01*
X2978150Y4540250D01*
X2978150Y4587443D01*
X2973527Y4585309D01*
X2962046Y4577994D01*
X2951632Y4569206D01*
X2942488Y4559046D01*
X2934766Y4547819D01*
G37*
G36*
X3067050Y4540250D02*
G01*
X3114395Y4540250D01*
X3113735Y4541824D01*
X3106775Y4553559D01*
X3098292Y4564278D01*
X3088487Y4573778D01*
X3077514Y4581855D01*
X3067050Y4587595D01*
G37*
G36*
X4165600Y4546092D02*
G01*
X4179214Y4547006D01*
X4192574Y4549749D01*
X4205478Y4554220D01*
X4217619Y4560366D01*
X4228846Y4568088D01*
X4239006Y4577232D01*
X4247794Y4587646D01*
X4255109Y4599127D01*
X4260850Y4611522D01*
X4264914Y4624527D01*
X4267149Y4637989D01*
X4267606Y4651603D01*
X4266285Y4665167D01*
X4263085Y4678426D01*
X4258208Y4691176D01*
X4251655Y4703114D01*
X4243578Y4714087D01*
X4234078Y4723892D01*
X4223359Y4732375D01*
X4211624Y4739335D01*
X4199077Y4744618D01*
X4185920Y4748225D01*
X4172407Y4750054D01*
X4158792Y4750054D01*
X4145279Y4748225D01*
X4132122Y4744618D01*
X4119575Y4739335D01*
X4107840Y4732375D01*
X4097121Y4723892D01*
X4087622Y4714087D01*
X4079544Y4703114D01*
X4072991Y4691176D01*
X4068114Y4678426D01*
X4064914Y4665167D01*
X4063593Y4651603D01*
X4064050Y4637989D01*
X4066286Y4624527D01*
X4070350Y4611522D01*
X4076090Y4599127D01*
X4083405Y4587646D01*
X4092194Y4577232D01*
X4102354Y4568088D01*
X4113580Y4560366D01*
X4125722Y4554220D01*
X4138625Y4549749D01*
X4151985Y4547006D01*
G37*
G36*
X2425700Y5068417D02*
G01*
X2439111Y5069281D01*
X2452319Y5071922D01*
X2465070Y5076240D01*
X2477160Y5082184D01*
X2488336Y5089652D01*
X2498445Y5098542D01*
X2507335Y5108651D01*
X2514803Y5119878D01*
X2520746Y5131917D01*
X2525064Y5144668D01*
X2527706Y5157876D01*
X2528620Y5171643D01*
X2528620Y5216956D01*
X2527706Y5230723D01*
X2525064Y5243931D01*
X2520746Y5256682D01*
X2514803Y5268722D01*
X2507335Y5279948D01*
X2498445Y5290058D01*
X2488336Y5298948D01*
X2477160Y5306415D01*
X2465070Y5312359D01*
X2452319Y5316677D01*
X2439111Y5319318D01*
X2425700Y5320182D01*
X2412288Y5319318D01*
X2399080Y5316677D01*
X2386330Y5312359D01*
X2374239Y5306415D01*
X2363063Y5298948D01*
X2352954Y5290058D01*
X2344064Y5279948D01*
X2336596Y5268722D01*
X2330653Y5256682D01*
X2326335Y5243931D01*
X2323693Y5230723D01*
X2322779Y5216956D01*
X2322779Y5171643D01*
X2323693Y5157876D01*
X2326335Y5144668D01*
X2330653Y5131917D01*
X2336596Y5119878D01*
X2344064Y5108651D01*
X2352954Y5098542D01*
X2363063Y5089652D01*
X2374239Y5082184D01*
X2386330Y5076240D01*
X2399080Y5071922D01*
X2412288Y5069281D01*
G37*
G36*
X2171700Y5068417D02*
G01*
X2185111Y5069281D01*
X2198319Y5071922D01*
X2211070Y5076240D01*
X2223160Y5082184D01*
X2234336Y5089652D01*
X2244445Y5098542D01*
X2253335Y5108651D01*
X2260803Y5119878D01*
X2266746Y5131917D01*
X2271064Y5144668D01*
X2273706Y5157876D01*
X2274620Y5171643D01*
X2274620Y5216956D01*
X2273706Y5230723D01*
X2271064Y5243931D01*
X2266746Y5256682D01*
X2260803Y5268722D01*
X2253335Y5279948D01*
X2244445Y5290058D01*
X2234336Y5298948D01*
X2223160Y5306415D01*
X2211070Y5312359D01*
X2198319Y5316677D01*
X2185111Y5319318D01*
X2171700Y5320182D01*
X2158288Y5319318D01*
X2145080Y5316677D01*
X2132330Y5312359D01*
X2120239Y5306415D01*
X2109063Y5298948D01*
X2098954Y5290058D01*
X2090064Y5279948D01*
X2082596Y5268722D01*
X2076653Y5256682D01*
X2072335Y5243931D01*
X2069693Y5230723D01*
X2068779Y5216956D01*
X2068779Y5171643D01*
X2069693Y5157876D01*
X2072335Y5144668D01*
X2076653Y5131917D01*
X2082596Y5119878D01*
X2090064Y5108651D01*
X2098954Y5098542D01*
X2109063Y5089652D01*
X2120239Y5082184D01*
X2132330Y5076240D01*
X2145080Y5071922D01*
X2158288Y5069281D01*
G37*
G36*
X2679700Y5068417D02*
G01*
X2693111Y5069281D01*
X2706319Y5071922D01*
X2719070Y5076240D01*
X2731160Y5082184D01*
X2742336Y5089652D01*
X2752445Y5098542D01*
X2761335Y5108651D01*
X2768803Y5119878D01*
X2774746Y5131917D01*
X2779064Y5144668D01*
X2781706Y5157876D01*
X2782620Y5171643D01*
X2782620Y5216956D01*
X2781706Y5230723D01*
X2779064Y5243931D01*
X2774746Y5256682D01*
X2768803Y5268722D01*
X2761335Y5279948D01*
X2752445Y5290058D01*
X2742336Y5298948D01*
X2731160Y5306415D01*
X2719070Y5312359D01*
X2706319Y5316677D01*
X2693111Y5319318D01*
X2679700Y5320182D01*
X2666288Y5319318D01*
X2653080Y5316677D01*
X2640330Y5312359D01*
X2628239Y5306415D01*
X2617063Y5298948D01*
X2606954Y5290058D01*
X2598064Y5279948D01*
X2590596Y5268722D01*
X2584653Y5256682D01*
X2580335Y5243931D01*
X2577693Y5230723D01*
X2576779Y5216956D01*
X2576779Y5171643D01*
X2577693Y5157876D01*
X2580335Y5144668D01*
X2584653Y5131917D01*
X2590596Y5119878D01*
X2598064Y5108651D01*
X2606954Y5098542D01*
X2617063Y5089652D01*
X2628239Y5082184D01*
X2640330Y5076240D01*
X2653080Y5071922D01*
X2666288Y5069281D01*
G37*
G36*
X3441700Y5068417D02*
G01*
X3455111Y5069281D01*
X3468319Y5071922D01*
X3481070Y5076240D01*
X3493160Y5082184D01*
X3504336Y5089652D01*
X3514445Y5098542D01*
X3523335Y5108651D01*
X3530803Y5119878D01*
X3536746Y5131917D01*
X3541064Y5144668D01*
X3543706Y5157876D01*
X3544620Y5171643D01*
X3544620Y5216956D01*
X3543706Y5230723D01*
X3541064Y5243931D01*
X3536746Y5256682D01*
X3530803Y5268722D01*
X3523335Y5279948D01*
X3514445Y5290058D01*
X3504336Y5298948D01*
X3493160Y5306415D01*
X3481070Y5312359D01*
X3468319Y5316677D01*
X3455111Y5319318D01*
X3441700Y5320182D01*
X3428288Y5319318D01*
X3415080Y5316677D01*
X3402329Y5312359D01*
X3390239Y5306415D01*
X3379063Y5298948D01*
X3368954Y5290058D01*
X3360064Y5279948D01*
X3352596Y5268722D01*
X3346653Y5256682D01*
X3342335Y5243931D01*
X3339693Y5230723D01*
X3338779Y5216956D01*
X3338779Y5171643D01*
X3339693Y5157876D01*
X3342335Y5144668D01*
X3346653Y5131917D01*
X3352596Y5119878D01*
X3360064Y5108651D01*
X3368954Y5098542D01*
X3379063Y5089652D01*
X3390239Y5082184D01*
X3402329Y5076240D01*
X3415080Y5071922D01*
X3428288Y5069281D01*
G37*
G36*
X1872843Y5078933D02*
G01*
X1872843Y5137962D01*
X1820621Y5137962D01*
X1822653Y5131917D01*
X1828596Y5119878D01*
X1836064Y5108651D01*
X1844954Y5098542D01*
X1855063Y5089652D01*
X1866239Y5082184D01*
G37*
G36*
X1962556Y5078933D02*
G01*
X1969160Y5082184D01*
X1980336Y5089652D01*
X1990445Y5098542D01*
X1999335Y5108651D01*
X2006803Y5119878D01*
X2012746Y5131917D01*
X2014778Y5137962D01*
X1962556Y5137962D01*
G37*
G36*
X1820621Y5250637D02*
G01*
X1872843Y5250637D01*
X1872843Y5309666D01*
X1866239Y5306415D01*
X1855063Y5298948D01*
X1844954Y5290058D01*
X1836064Y5279948D01*
X1828596Y5268722D01*
X1822653Y5256682D01*
G37*
G36*
X1962556Y5250637D02*
G01*
X2014778Y5250637D01*
X2012746Y5256682D01*
X2006803Y5268722D01*
X1999335Y5279948D01*
X1990445Y5290058D01*
X1980336Y5298948D01*
X1969160Y5306415D01*
X1962556Y5309666D01*
G37*
G36*
X1567688Y5397500D02*
G01*
X1580337Y5398414D01*
X1592732Y5401106D01*
X1604619Y5405526D01*
X1615744Y5411622D01*
X1625904Y5419242D01*
X1634845Y5428183D01*
X1642465Y5438343D01*
X1648561Y5449468D01*
X1652981Y5461355D01*
X1655673Y5473750D01*
X1656588Y5486400D01*
X1655673Y5499049D01*
X1652981Y5511444D01*
X1648561Y5523331D01*
X1642465Y5534456D01*
X1634845Y5544616D01*
X1625904Y5553557D01*
X1615744Y5561177D01*
X1604619Y5567273D01*
X1592732Y5571693D01*
X1580337Y5574385D01*
X1567688Y5575300D01*
X1555038Y5574385D01*
X1542643Y5571693D01*
X1530756Y5567273D01*
X1519631Y5561177D01*
X1509471Y5553557D01*
X1500530Y5544616D01*
X1492910Y5534456D01*
X1486865Y5523331D01*
X1482394Y5511444D01*
X1479702Y5499049D01*
X1478838Y5486400D01*
X1479702Y5473750D01*
X1482394Y5461355D01*
X1486865Y5449468D01*
X1492910Y5438343D01*
X1500530Y5428183D01*
X1509471Y5419242D01*
X1519631Y5411622D01*
X1530756Y5405526D01*
X1542643Y5401106D01*
X1555038Y5398414D01*
G37*
G36*
X2273300Y5581700D02*
G01*
X2285949Y5582615D01*
X2298344Y5585307D01*
X2310231Y5589727D01*
X2321356Y5595823D01*
X2331516Y5603443D01*
X2340457Y5612384D01*
X2348077Y5622544D01*
X2354173Y5633669D01*
X2358593Y5645556D01*
X2361285Y5657951D01*
X2362200Y5670600D01*
X2361285Y5683250D01*
X2358593Y5695645D01*
X2354173Y5707532D01*
X2348077Y5718657D01*
X2340457Y5728817D01*
X2331516Y5737758D01*
X2321356Y5745378D01*
X2310231Y5751474D01*
X2298344Y5755894D01*
X2285949Y5758586D01*
X2273300Y5759500D01*
X2260650Y5758586D01*
X2248255Y5755894D01*
X2236368Y5751474D01*
X2225243Y5745378D01*
X2215083Y5737758D01*
X2206142Y5728817D01*
X2198522Y5718657D01*
X2192426Y5707532D01*
X2188006Y5695645D01*
X2185314Y5683250D01*
X2184400Y5670600D01*
X2185314Y5657951D01*
X2188006Y5645556D01*
X2192426Y5633669D01*
X2198522Y5622544D01*
X2206142Y5612384D01*
X2215083Y5603443D01*
X2225243Y5595823D01*
X2236368Y5589727D01*
X2248255Y5585307D01*
X2260650Y5582615D01*
G37*
G36*
X3940352Y5715762D02*
G01*
X3953764Y5717133D01*
X3966870Y5720232D01*
X3979468Y5725109D01*
X3991305Y5731560D01*
X4002125Y5739536D01*
X4011828Y5748934D01*
X4020159Y5759500D01*
X4027017Y5771083D01*
X4032300Y5783529D01*
X4035856Y5796483D01*
X4037634Y5809843D01*
X4037634Y5823356D01*
X4035856Y5836716D01*
X4032300Y5849670D01*
X4027017Y5862116D01*
X4020159Y5873699D01*
X4011828Y5884265D01*
X4002125Y5893663D01*
X3991305Y5901639D01*
X3979468Y5908090D01*
X3966870Y5912967D01*
X3953764Y5916066D01*
X3940352Y5917438D01*
X3926890Y5916980D01*
X3913632Y5914745D01*
X3900728Y5910732D01*
X3888536Y5905093D01*
X3877157Y5897829D01*
X3866845Y5889142D01*
X3857802Y5879134D01*
X3850182Y5868009D01*
X3844137Y5855970D01*
X3839718Y5843270D01*
X3837025Y5830062D01*
X3836111Y5816600D01*
X3837025Y5803138D01*
X3839718Y5789930D01*
X3844137Y5777230D01*
X3850182Y5765190D01*
X3857802Y5754065D01*
X3866845Y5744057D01*
X3877157Y5735370D01*
X3888536Y5728106D01*
X3900728Y5722467D01*
X3913632Y5718454D01*
X3926890Y5716219D01*
G37*
G36*
X2924352Y5715762D02*
G01*
X2937764Y5717133D01*
X2950870Y5720232D01*
X2963468Y5725109D01*
X2975305Y5731560D01*
X2986125Y5739536D01*
X2995828Y5748934D01*
X3004159Y5759500D01*
X3011017Y5771083D01*
X3016300Y5783529D01*
X3019856Y5796483D01*
X3021634Y5809843D01*
X3021634Y5823356D01*
X3019856Y5836716D01*
X3016300Y5849670D01*
X3011017Y5862116D01*
X3004159Y5873699D01*
X2995828Y5884265D01*
X2986125Y5893663D01*
X2975305Y5901639D01*
X2963468Y5908090D01*
X2950870Y5912967D01*
X2937764Y5916066D01*
X2924352Y5917438D01*
X2910890Y5916980D01*
X2897632Y5914745D01*
X2884728Y5910732D01*
X2872536Y5905093D01*
X2861157Y5897829D01*
X2850845Y5889142D01*
X2841802Y5879134D01*
X2834182Y5868009D01*
X2828137Y5855970D01*
X2823718Y5843270D01*
X2821025Y5830062D01*
X2820111Y5816600D01*
X2821025Y5803138D01*
X2823718Y5789930D01*
X2828137Y5777230D01*
X2834182Y5765190D01*
X2841802Y5754065D01*
X2850845Y5744057D01*
X2861157Y5735370D01*
X2872536Y5728106D01*
X2884728Y5722467D01*
X2897632Y5718454D01*
X2910890Y5716219D01*
G37*
G36*
X3933647Y6350762D02*
G01*
X3947109Y6351219D01*
X3960368Y6353454D01*
X3973271Y6357467D01*
X3985463Y6363106D01*
X3996842Y6370370D01*
X4007154Y6379057D01*
X4016197Y6389065D01*
X4023817Y6400190D01*
X4029862Y6412230D01*
X4034282Y6424930D01*
X4036974Y6438138D01*
X4037888Y6451600D01*
X4036974Y6465062D01*
X4034282Y6478270D01*
X4029862Y6490970D01*
X4023817Y6503009D01*
X4016197Y6514134D01*
X4007154Y6524142D01*
X3996842Y6532829D01*
X3985463Y6540093D01*
X3973271Y6545732D01*
X3960368Y6549745D01*
X3947109Y6551980D01*
X3933647Y6552438D01*
X3920236Y6551066D01*
X3907129Y6547967D01*
X3894531Y6543090D01*
X3882694Y6536639D01*
X3871874Y6528663D01*
X3862171Y6519265D01*
X3853840Y6508699D01*
X3846982Y6497116D01*
X3841699Y6484670D01*
X3838143Y6471716D01*
X3836365Y6458356D01*
X3836365Y6444843D01*
X3838143Y6431483D01*
X3841699Y6418529D01*
X3846982Y6406083D01*
X3853840Y6394500D01*
X3862171Y6383934D01*
X3871874Y6374536D01*
X3882694Y6366560D01*
X3894531Y6360109D01*
X3907129Y6355232D01*
X3920236Y6352133D01*
G37*
G36*
X2917647Y6350762D02*
G01*
X2931109Y6351219D01*
X2944368Y6353454D01*
X2957271Y6357467D01*
X2969463Y6363106D01*
X2980842Y6370370D01*
X2991154Y6379057D01*
X3000197Y6389065D01*
X3007817Y6400190D01*
X3013862Y6412230D01*
X3018282Y6424930D01*
X3020974Y6438138D01*
X3021888Y6451600D01*
X3020974Y6465062D01*
X3018282Y6478270D01*
X3013862Y6490970D01*
X3007817Y6503009D01*
X3000197Y6514134D01*
X2991154Y6524142D01*
X2980842Y6532829D01*
X2969463Y6540093D01*
X2957271Y6545732D01*
X2944368Y6549745D01*
X2931109Y6551980D01*
X2917647Y6552438D01*
X2904236Y6551066D01*
X2891129Y6547967D01*
X2878531Y6543090D01*
X2866694Y6536639D01*
X2855874Y6528663D01*
X2846171Y6519265D01*
X2837840Y6508699D01*
X2830982Y6497116D01*
X2825699Y6484670D01*
X2822143Y6471716D01*
X2820365Y6458356D01*
X2820365Y6444843D01*
X2822143Y6431483D01*
X2825699Y6418529D01*
X2830982Y6406083D01*
X2837840Y6394500D01*
X2846171Y6383934D01*
X2855874Y6374536D01*
X2866694Y6366560D01*
X2878531Y6360109D01*
X2891129Y6355232D01*
X2904236Y6352133D01*
G37*
G36*
X2273300Y6381699D02*
G01*
X2285949Y6382613D01*
X2298344Y6385306D01*
X2310231Y6389725D01*
X2321356Y6395821D01*
X2331516Y6403441D01*
X2340457Y6412382D01*
X2348077Y6422542D01*
X2354122Y6433667D01*
X2358593Y6445554D01*
X2361285Y6457950D01*
X2362200Y6470599D01*
X2361285Y6483248D01*
X2358593Y6495643D01*
X2354122Y6507530D01*
X2348077Y6518656D01*
X2340457Y6528816D01*
X2331516Y6537756D01*
X2321356Y6545376D01*
X2310231Y6551472D01*
X2298344Y6555892D01*
X2285949Y6558584D01*
X2273300Y6559499D01*
X2260650Y6558584D01*
X2248255Y6555892D01*
X2236368Y6551472D01*
X2225243Y6545376D01*
X2215083Y6537756D01*
X2206142Y6528816D01*
X2198522Y6518656D01*
X2192426Y6507530D01*
X2188006Y6495643D01*
X2185314Y6483248D01*
X2184400Y6470599D01*
X2185314Y6457950D01*
X2188006Y6445554D01*
X2192426Y6433667D01*
X2198522Y6422542D01*
X2206142Y6412382D01*
X2215083Y6403441D01*
X2225243Y6395821D01*
X2236368Y6389725D01*
X2248255Y6385306D01*
X2260650Y6382613D01*
G37*
G36*
X1605534Y6599834D02*
G01*
X1615744Y6605422D01*
X1625904Y6613042D01*
X1634845Y6621983D01*
X1642465Y6632143D01*
X1648053Y6642353D01*
X1605534Y6642353D01*
G37*
G36*
X1529842Y6599834D02*
G01*
X1529842Y6642353D01*
X1487373Y6642353D01*
X1492910Y6632143D01*
X1500530Y6621983D01*
X1509471Y6613042D01*
X1519631Y6605422D01*
G37*
G36*
X1487373Y6718046D02*
G01*
X1529842Y6718046D01*
X1529842Y6760565D01*
X1519631Y6754977D01*
X1509471Y6747357D01*
X1500530Y6738416D01*
X1492910Y6728256D01*
G37*
G36*
X1605534Y6718046D02*
G01*
X1648053Y6718046D01*
X1642465Y6728256D01*
X1634845Y6738416D01*
X1625904Y6747357D01*
X1615744Y6754977D01*
X1605534Y6760565D01*
G37*

%LPD*%
D10*
X3022600Y1181988D02*
G01*
X3009900Y1169288D01*
X3009900Y342900D01*
X3187700Y165100D01*
X3556000Y165100D01*
X3746500Y-25400D01*
X3746500Y-381000D01*
X3594100Y-533400D01*
X1676400Y-533400D01*
X1460500Y-317500D01*
X1460500Y355600D01*
X1638300Y533400D01*
X1879600Y533400D01*
X2260600Y1181988D02*
G01*
X2273300Y1169288D01*
X2273300Y114300D01*
X2184400Y25400D01*
X1879600Y25400D01*
X2514600Y1181988D02*
G01*
X2514600Y114300D01*
X2603500Y25400D01*
X3403600Y25400D01*
X2933700Y5194300D02*
G01*
X2730500Y4991100D01*
X1701800Y4991100D01*
X1600200Y4889500D01*
X1600200Y2413000D01*
X1701800Y2311400D01*
X1879600Y2311400D01*
X3187700Y5194300D02*
G01*
X3187700Y2705100D01*
X2032000Y1549400D01*
X1879600Y1549400D01*
D11*
G01*
X2273300Y5670600D03*
G01*
X2273300Y6470599D03*
G01*
X1567687Y6680200D03*
G01*
X1567687Y5486400D03*
G01*
X647700Y6223000D03*
G01*
X647700Y5892800D03*
D12*
G01*
X3022600Y4241800D03*
G01*
X2768600Y4241800D03*
G01*
X2514600Y4241800D03*
G01*
X2260600Y4241800D03*
G01*
X2260600Y4495800D03*
G01*
X2514600Y4495800D03*
G01*
X2768600Y4495800D03*
G01*
X3022600Y4495800D03*
D13*
G01*
X3441700Y5194300D03*
G01*
X3187700Y5194300D03*
G01*
X2679700Y5194300D03*
G01*
X2425700Y5194300D03*
G01*
X2933700Y5194300D03*
G01*
X2171700Y5194300D03*
G01*
X1917700Y5194300D03*
D14*
G01*
X1879600Y3581400D03*
G01*
X1879600Y3327400D03*
G01*
X1879600Y3073400D03*
G01*
X1879600Y2819400D03*
G01*
X1879600Y2565400D03*
G01*
X1879600Y2311400D03*
G01*
X1879600Y2057400D03*
D15*
G01*
X1879600Y1803400D03*
G01*
X1879600Y1549400D03*
D14*
G01*
X1879600Y1295400D03*
G01*
X1879600Y1041400D03*
G01*
X1879600Y787400D03*
G01*
X1879600Y533400D03*
G01*
X1879600Y279400D03*
G01*
X1879600Y25400D03*
G01*
X3403600Y25400D03*
G01*
X3403600Y279400D03*
G01*
X3403600Y533400D03*
G01*
X3403600Y787400D03*
G01*
X3403600Y1041400D03*
G01*
X3403600Y1295400D03*
G01*
X3403600Y1549400D03*
G01*
X3403600Y1803400D03*
G01*
X3403600Y2057400D03*
G01*
X3403600Y2311400D03*
G01*
X3403600Y2565400D03*
G01*
X3403600Y2819400D03*
G01*
X3403600Y3073400D03*
G01*
X3403600Y3327400D03*
G01*
X3403600Y3581400D03*
D16*
G01*
X3403600Y3835400D03*
G01*
X1879600Y3835400D03*
G01*
X1879600Y-228600D03*
G01*
X3403600Y-228600D03*
D15*
G01*
X4216400Y2108200D03*
G01*
X4216400Y2362200D03*
G01*
X4216400Y2616200D03*
G01*
X4216400Y2870200D03*
G01*
X4216400Y3124200D03*
G01*
X4216400Y3378200D03*
D17*
G01*
X927100Y1333500D03*
G01*
X927100Y1054100D03*
G01*
X927100Y749300D03*
D18*
G01*
X800100Y1765300D03*
D19*
G01*
X1054100Y1765300D03*
D20*
G01*
X4229100Y1295400D03*
G01*
X4229100Y1041400D03*
G01*
X4229100Y787400D03*
G01*
X4229100Y533400D03*
D11*
G01*
X2006600Y1181988D03*
G01*
X2260600Y1181988D03*
G01*
X2514600Y1181988D03*
G01*
X2768600Y1181988D03*
G01*
X3022600Y1181988D03*
G01*
X3276600Y1181988D03*
D14*
G01*
X2921000Y6451600D03*
G01*
X3937000Y6451600D03*
G01*
X3937000Y5816600D03*
G01*
X2921000Y5816600D03*
D12*
G01*
X4165600Y3886200D03*
G01*
X4165600Y4648200D03*
M02*
