G04 Layer: TopSilkscreenLayer*
G04 EasyEDA v6.5.40, 2024-05-09 08:25:39*
G04 18a0beea18964d5d8ca67f77cddb8664,df7e7e3c38a3447abd37b529b333d242,10*
G04 Gerber Generator version 0.2*
G04 Scale: 100 percent, Rotated: No, Reflected: No *
G04 Dimensions in millimeters *
G04 leading zeros omitted , absolute positions ,4 integer and 5 decimal *
%FSLAX45Y45*%
%MOMM*%

%ADD10C,0.1524*%
%ADD11C,0.2540*%
%ADD12C,0.1200*%
%ADD13C,0.1600*%

%LPD*%
G36*
X3435400Y4975860D02*
G01*
X3427729Y4975606D01*
X3420414Y4974793D01*
X3413556Y4973472D01*
X3407105Y4971643D01*
X3401110Y4969357D01*
X3395624Y4966614D01*
X3390544Y4963464D01*
X3385972Y4959908D01*
X3381857Y4955997D01*
X3378301Y4951679D01*
X3375253Y4947056D01*
X3372713Y4942128D01*
X3370732Y4936896D01*
X3369259Y4931410D01*
X3368395Y4925720D01*
X3368141Y4919726D01*
X3368446Y4913630D01*
X3369360Y4907940D01*
X3370884Y4902504D01*
X3373018Y4897475D01*
X3375660Y4892700D01*
X3378809Y4888230D01*
X3382518Y4884064D01*
X3386632Y4880102D01*
X3396081Y4888280D01*
X3389629Y4894935D01*
X3384956Y4902200D01*
X3382060Y4910175D01*
X3381095Y4919014D01*
X3381501Y4925212D01*
X3382772Y4931003D01*
X3384905Y4936337D01*
X3387801Y4941214D01*
X3391458Y4945583D01*
X3395827Y4949444D01*
X3400907Y4952746D01*
X3406698Y4955540D01*
X3413099Y4957724D01*
X3420160Y4959350D01*
X3427780Y4960315D01*
X3435959Y4960620D01*
X3443986Y4960315D01*
X3451453Y4959299D01*
X3458362Y4957622D01*
X3464661Y4955336D01*
X3470351Y4952492D01*
X3475329Y4949088D01*
X3479647Y4945126D01*
X3483203Y4940706D01*
X3486048Y4935778D01*
X3488080Y4930444D01*
X3489350Y4924653D01*
X3489807Y4918506D01*
X3488893Y4910480D01*
X3486404Y4903317D01*
X3482492Y4896967D01*
X3477361Y4891582D01*
X3487013Y4883404D01*
X3490010Y4886401D01*
X3492906Y4889855D01*
X3495598Y4893665D01*
X3498037Y4897932D01*
X3500069Y4902606D01*
X3501644Y4907635D01*
X3502660Y4913020D01*
X3502964Y4918710D01*
X3502710Y4924806D01*
X3501796Y4930648D01*
X3500323Y4936286D01*
X3498342Y4941570D01*
X3495751Y4946599D01*
X3492652Y4951323D01*
X3489045Y4955692D01*
X3484930Y4959705D01*
X3480308Y4963312D01*
X3475228Y4966512D01*
X3469690Y4969256D01*
X3463645Y4971592D01*
X3457244Y4973421D01*
X3450386Y4974793D01*
X3443071Y4975606D01*
G37*
G36*
X3387445Y4869738D02*
G01*
X3383178Y4865319D01*
X3379368Y4860544D01*
X3376066Y4855362D01*
X3373272Y4849876D01*
X3371087Y4843983D01*
X3369462Y4837836D01*
X3368446Y4831334D01*
X3368141Y4824476D01*
X3368446Y4817973D01*
X3369411Y4811928D01*
X3370935Y4806340D01*
X3373018Y4801209D01*
X3375609Y4796637D01*
X3378657Y4792573D01*
X3382111Y4789068D01*
X3385972Y4786172D01*
X3390188Y4783836D01*
X3394710Y4782159D01*
X3399434Y4781143D01*
X3404463Y4780838D01*
X3411270Y4781346D01*
X3417214Y4782921D01*
X3422396Y4785360D01*
X3426815Y4788662D01*
X3430676Y4792624D01*
X3433978Y4797196D01*
X3436874Y4802276D01*
X3439464Y4807712D01*
X3447338Y4826558D01*
X3450844Y4834229D01*
X3455263Y4841290D01*
X3461359Y4846370D01*
X3469995Y4848352D01*
X3474313Y4847894D01*
X3478225Y4846574D01*
X3481578Y4844338D01*
X3484473Y4841392D01*
X3486708Y4837734D01*
X3488385Y4833366D01*
X3489451Y4828438D01*
X3489807Y4822952D01*
X3488893Y4814163D01*
X3486404Y4806391D01*
X3482492Y4799380D01*
X3477361Y4793030D01*
X3487013Y4785156D01*
X3490366Y4788662D01*
X3493465Y4792624D01*
X3496157Y4796942D01*
X3498494Y4801565D01*
X3500424Y4806543D01*
X3501796Y4811776D01*
X3502710Y4817262D01*
X3502964Y4822952D01*
X3502710Y4828641D01*
X3501847Y4833975D01*
X3500475Y4839055D01*
X3498545Y4843729D01*
X3496208Y4847996D01*
X3493414Y4851857D01*
X3490163Y4855210D01*
X3486607Y4858004D01*
X3482644Y4860290D01*
X3478377Y4861966D01*
X3473805Y4863033D01*
X3468979Y4863388D01*
X3462274Y4862728D01*
X3456482Y4860899D01*
X3451453Y4858156D01*
X3447186Y4854600D01*
X3443579Y4850485D01*
X3440582Y4846015D01*
X3438042Y4841341D01*
X3427577Y4817922D01*
X3423412Y4809185D01*
X3421227Y4805426D01*
X3418738Y4802174D01*
X3415842Y4799533D01*
X3412388Y4797501D01*
X3408324Y4796231D01*
X3403447Y4795824D01*
X3398672Y4796282D01*
X3394354Y4797755D01*
X3390544Y4800092D01*
X3387293Y4803343D01*
X3384651Y4807458D01*
X3382721Y4812284D01*
X3381501Y4817922D01*
X3381095Y4824272D01*
X3381349Y4829454D01*
X3382213Y4834534D01*
X3383635Y4839462D01*
X3385515Y4844237D01*
X3387902Y4848809D01*
X3390696Y4853127D01*
X3393948Y4857140D01*
X3397554Y4860848D01*
G37*
G36*
X3116427Y4968290D02*
G01*
X3116427Y4953254D01*
X3234486Y4953254D01*
X3234486Y4937252D01*
X3234283Y4931562D01*
X3233623Y4926228D01*
X3232505Y4921250D01*
X3230981Y4916678D01*
X3229000Y4912461D01*
X3226663Y4908651D01*
X3223869Y4905197D01*
X3220720Y4902098D01*
X3217113Y4899355D01*
X3213201Y4897018D01*
X3208883Y4895037D01*
X3204210Y4893411D01*
X3199130Y4892141D01*
X3193745Y4891278D01*
X3188004Y4890719D01*
X3181959Y4890566D01*
X3175863Y4890719D01*
X3170072Y4891278D01*
X3164636Y4892141D01*
X3159556Y4893411D01*
X3154832Y4895037D01*
X3150412Y4897018D01*
X3146399Y4899355D01*
X3142792Y4902098D01*
X3139541Y4905197D01*
X3136696Y4908651D01*
X3134258Y4912461D01*
X3132226Y4916678D01*
X3130651Y4921250D01*
X3129534Y4926228D01*
X3128822Y4931562D01*
X3128568Y4937252D01*
X3128568Y4953254D01*
X3116427Y4953254D01*
X3116427Y4935728D01*
X3116681Y4928565D01*
X3117545Y4921758D01*
X3118967Y4915458D01*
X3120898Y4909616D01*
X3123387Y4904181D01*
X3126333Y4899202D01*
X3129838Y4894732D01*
X3133852Y4890668D01*
X3138322Y4887112D01*
X3143250Y4883962D01*
X3148634Y4881321D01*
X3154426Y4879187D01*
X3160725Y4877460D01*
X3167380Y4876292D01*
X3174441Y4875530D01*
X3181959Y4875276D01*
X3189376Y4875530D01*
X3196437Y4876292D01*
X3203092Y4877511D01*
X3209290Y4879187D01*
X3215030Y4881372D01*
X3220313Y4884013D01*
X3225139Y4887112D01*
X3229508Y4890719D01*
X3233420Y4894783D01*
X3236823Y4899355D01*
X3239719Y4904333D01*
X3242106Y4909820D01*
X3243986Y4915712D01*
X3245358Y4922113D01*
X3246170Y4928971D01*
X3246475Y4936236D01*
X3246475Y4968290D01*
G37*
G36*
X3181400Y4854498D02*
G01*
X3173730Y4854194D01*
X3166414Y4853381D01*
X3159556Y4852060D01*
X3153105Y4850231D01*
X3147110Y4847945D01*
X3141624Y4845202D01*
X3136544Y4842052D01*
X3131972Y4838496D01*
X3127857Y4834585D01*
X3124301Y4830267D01*
X3121253Y4825644D01*
X3118713Y4820716D01*
X3116732Y4815484D01*
X3115259Y4809998D01*
X3114395Y4804308D01*
X3114141Y4798364D01*
X3114446Y4792218D01*
X3115360Y4786528D01*
X3116884Y4781092D01*
X3119018Y4776063D01*
X3121660Y4771288D01*
X3124809Y4766818D01*
X3128518Y4762652D01*
X3132632Y4758740D01*
X3142081Y4766818D01*
X3135630Y4773523D01*
X3130956Y4780788D01*
X3128060Y4788763D01*
X3127095Y4797552D01*
X3127502Y4803800D01*
X3128772Y4809591D01*
X3130905Y4814925D01*
X3133801Y4819802D01*
X3137458Y4824171D01*
X3141827Y4828032D01*
X3146907Y4831334D01*
X3152698Y4834128D01*
X3159099Y4836312D01*
X3166160Y4837938D01*
X3173780Y4838903D01*
X3181959Y4839258D01*
X3189986Y4838903D01*
X3197453Y4837887D01*
X3204362Y4836210D01*
X3210661Y4833924D01*
X3216351Y4831080D01*
X3221329Y4827676D01*
X3225647Y4823714D01*
X3229203Y4819294D01*
X3232048Y4814366D01*
X3234080Y4809032D01*
X3235350Y4803241D01*
X3235807Y4797044D01*
X3234893Y4788966D01*
X3232404Y4781804D01*
X3228492Y4775555D01*
X3223361Y4770120D01*
X3233013Y4762042D01*
X3236010Y4764989D01*
X3238906Y4768443D01*
X3241598Y4772253D01*
X3244037Y4776520D01*
X3246069Y4781194D01*
X3247644Y4786223D01*
X3248660Y4791608D01*
X3248964Y4797348D01*
X3248710Y4803343D01*
X3247796Y4809185D01*
X3246323Y4814773D01*
X3244342Y4820056D01*
X3241751Y4825085D01*
X3238652Y4829810D01*
X3235045Y4834178D01*
X3230930Y4838192D01*
X3226308Y4841798D01*
X3221228Y4845050D01*
X3215690Y4847793D01*
X3209645Y4850130D01*
X3203244Y4852009D01*
X3196386Y4853381D01*
X3189071Y4854194D01*
G37*
G36*
X2862427Y4968290D02*
G01*
X2862427Y4953254D01*
X2980791Y4953254D01*
X2980791Y4930698D01*
X2980436Y4923231D01*
X2979470Y4916678D01*
X2977743Y4911140D01*
X2975254Y4906518D01*
X2971901Y4902911D01*
X2967685Y4900269D01*
X2962554Y4898694D01*
X2956407Y4898136D01*
X2950311Y4898694D01*
X2945079Y4900269D01*
X2940659Y4902911D01*
X2937052Y4906518D01*
X2934309Y4911140D01*
X2932328Y4916678D01*
X2931109Y4923231D01*
X2930702Y4930698D01*
X2930702Y4953254D01*
X2918561Y4953254D01*
X2918561Y4929174D01*
X2862427Y4896612D01*
X2862427Y4879898D01*
X2920034Y4913680D01*
X2921965Y4907127D01*
X2924606Y4901234D01*
X2927959Y4896053D01*
X2932125Y4891684D01*
X2937052Y4888179D01*
X2942691Y4885588D01*
X2949143Y4883962D01*
X2956407Y4883404D01*
X2962706Y4883810D01*
X2968294Y4884928D01*
X2973273Y4886756D01*
X2977591Y4889195D01*
X2981299Y4892294D01*
X2984398Y4896002D01*
X2986989Y4900218D01*
X2989021Y4904994D01*
X2990545Y4910226D01*
X2991612Y4915865D01*
X2992272Y4921961D01*
X2992475Y4928362D01*
X2992475Y4968290D01*
G37*
G36*
X2879445Y4868926D02*
G01*
X2875178Y4864557D01*
X2871368Y4859782D01*
X2868066Y4854600D01*
X2865272Y4849114D01*
X2863088Y4843221D01*
X2861462Y4837074D01*
X2860446Y4830572D01*
X2860141Y4823764D01*
X2860446Y4817262D01*
X2861411Y4811268D01*
X2862935Y4805680D01*
X2865018Y4800549D01*
X2867609Y4795977D01*
X2870657Y4791913D01*
X2874111Y4788357D01*
X2877972Y4785461D01*
X2882188Y4783124D01*
X2886710Y4781448D01*
X2891434Y4780381D01*
X2896463Y4780026D01*
X2903270Y4780584D01*
X2909214Y4782210D01*
X2914396Y4784699D01*
X2918815Y4788001D01*
X2922676Y4791964D01*
X2925978Y4796536D01*
X2928874Y4801565D01*
X2931464Y4807000D01*
X2939338Y4826050D01*
X2942844Y4833569D01*
X2947263Y4840528D01*
X2953359Y4845659D01*
X2961995Y4847640D01*
X2966313Y4847132D01*
X2970225Y4845812D01*
X2973578Y4843627D01*
X2976473Y4840681D01*
X2978708Y4837023D01*
X2980385Y4832705D01*
X2981452Y4827828D01*
X2981807Y4822444D01*
X2980893Y4813655D01*
X2978404Y4805730D01*
X2974492Y4798669D01*
X2969361Y4792218D01*
X2979013Y4784344D01*
X2982366Y4787900D01*
X2985465Y4791862D01*
X2988157Y4796180D01*
X2990494Y4800854D01*
X2992424Y4805832D01*
X2993796Y4811115D01*
X2994710Y4816652D01*
X2994964Y4822444D01*
X2994710Y4828133D01*
X2993847Y4833467D01*
X2992475Y4838496D01*
X2990545Y4843170D01*
X2988208Y4847386D01*
X2985414Y4851196D01*
X2982163Y4854549D01*
X2978607Y4857343D01*
X2974644Y4859578D01*
X2970377Y4861255D01*
X2965805Y4862271D01*
X2960979Y4862576D01*
X2954274Y4861966D01*
X2948482Y4860137D01*
X2943453Y4857394D01*
X2939186Y4853889D01*
X2935579Y4849774D01*
X2932582Y4845354D01*
X2930042Y4840732D01*
X2919577Y4817110D01*
X2915412Y4808423D01*
X2913227Y4804664D01*
X2910738Y4801412D01*
X2907842Y4798771D01*
X2904388Y4796739D01*
X2900324Y4795469D01*
X2895447Y4795012D01*
X2890672Y4795520D01*
X2886354Y4796993D01*
X2882544Y4799330D01*
X2879293Y4802581D01*
X2876651Y4806696D01*
X2874721Y4811522D01*
X2873502Y4817160D01*
X2873095Y4823460D01*
X2873349Y4828692D01*
X2874213Y4833772D01*
X2875635Y4838700D01*
X2877515Y4843475D01*
X2879902Y4848047D01*
X2882696Y4852365D01*
X2885948Y4856378D01*
X2889554Y4860036D01*
G37*
G36*
X2980029Y4770424D02*
G01*
X2980029Y4730800D01*
X2862427Y4730800D01*
X2862427Y4715814D01*
X2980029Y4715814D01*
X2980029Y4676190D01*
X2992475Y4676190D01*
X2992475Y4770424D01*
G37*
G36*
X2625445Y4977688D02*
G01*
X2621178Y4973269D01*
X2617368Y4968494D01*
X2614066Y4963363D01*
X2611272Y4957826D01*
X2609088Y4952034D01*
X2607462Y4945888D01*
X2606446Y4939436D01*
X2606141Y4932730D01*
X2606446Y4926177D01*
X2607411Y4920081D01*
X2608935Y4914493D01*
X2611018Y4909362D01*
X2613609Y4904740D01*
X2616657Y4900625D01*
X2620111Y4897120D01*
X2623972Y4894173D01*
X2628188Y4891836D01*
X2632710Y4890160D01*
X2637434Y4889093D01*
X2642463Y4888788D01*
X2649270Y4889296D01*
X2655214Y4890922D01*
X2660396Y4893411D01*
X2664815Y4896713D01*
X2668676Y4900777D01*
X2671978Y4905349D01*
X2674874Y4910480D01*
X2677464Y4915966D01*
X2685338Y4934712D01*
X2688844Y4942281D01*
X2693263Y4949240D01*
X2699359Y4954371D01*
X2707995Y4956302D01*
X2712313Y4955895D01*
X2716225Y4954524D01*
X2719578Y4952390D01*
X2722473Y4949444D01*
X2724708Y4945837D01*
X2726385Y4941519D01*
X2727452Y4936642D01*
X2727807Y4931206D01*
X2726893Y4922367D01*
X2724404Y4914493D01*
X2720492Y4907483D01*
X2715361Y4901184D01*
X2725013Y4893310D01*
X2728366Y4896866D01*
X2731465Y4900777D01*
X2734157Y4905044D01*
X2736494Y4909667D01*
X2738424Y4914646D01*
X2739796Y4919878D01*
X2740710Y4925415D01*
X2740964Y4931206D01*
X2740710Y4936845D01*
X2739847Y4942179D01*
X2738475Y4947208D01*
X2736545Y4951882D01*
X2734208Y4956098D01*
X2731414Y4959908D01*
X2728163Y4963261D01*
X2724607Y4966055D01*
X2720644Y4968290D01*
X2716377Y4969967D01*
X2711805Y4970983D01*
X2706979Y4971338D01*
X2700274Y4970678D01*
X2694482Y4968849D01*
X2689453Y4966106D01*
X2685186Y4962601D01*
X2681579Y4958486D01*
X2678582Y4954066D01*
X2676042Y4949444D01*
X2665577Y4926076D01*
X2661412Y4917338D01*
X2659227Y4913579D01*
X2656738Y4910277D01*
X2653842Y4907534D01*
X2650388Y4905502D01*
X2646324Y4904181D01*
X2641447Y4903774D01*
X2636672Y4904232D01*
X2632354Y4905756D01*
X2628544Y4908143D01*
X2625293Y4911445D01*
X2622651Y4915560D01*
X2620721Y4920488D01*
X2619502Y4926126D01*
X2619095Y4932426D01*
X2619349Y4937658D01*
X2620213Y4942687D01*
X2621635Y4947615D01*
X2623515Y4952339D01*
X2625902Y4956810D01*
X2628696Y4961077D01*
X2631948Y4965090D01*
X2635554Y4968798D01*
G37*
G36*
X2608427Y4862880D02*
G01*
X2608427Y4848148D01*
X2726486Y4848148D01*
X2726486Y4832146D01*
X2726283Y4826406D01*
X2725623Y4821072D01*
X2724505Y4816094D01*
X2722981Y4811471D01*
X2721000Y4807254D01*
X2718663Y4803394D01*
X2715869Y4799939D01*
X2712720Y4796840D01*
X2709113Y4794046D01*
X2705201Y4791710D01*
X2700883Y4789678D01*
X2696210Y4788052D01*
X2691130Y4786782D01*
X2685745Y4785868D01*
X2680004Y4785309D01*
X2673959Y4785156D01*
X2667863Y4785309D01*
X2662072Y4785868D01*
X2656636Y4786782D01*
X2651556Y4788052D01*
X2646832Y4789678D01*
X2642412Y4791710D01*
X2638399Y4794046D01*
X2634792Y4796840D01*
X2631541Y4799939D01*
X2628696Y4803394D01*
X2626258Y4807254D01*
X2624226Y4811471D01*
X2622651Y4816094D01*
X2621534Y4821072D01*
X2620822Y4826406D01*
X2620568Y4832146D01*
X2620568Y4848148D01*
X2608427Y4848148D01*
X2608427Y4830318D01*
X2608681Y4823155D01*
X2609545Y4816449D01*
X2610967Y4810150D01*
X2612898Y4804308D01*
X2615387Y4798923D01*
X2618333Y4793996D01*
X2621838Y4789525D01*
X2625852Y4785461D01*
X2630322Y4781905D01*
X2635250Y4778806D01*
X2640634Y4776165D01*
X2646426Y4774031D01*
X2652725Y4772304D01*
X2659380Y4771136D01*
X2666441Y4770374D01*
X2673959Y4770120D01*
X2681376Y4770374D01*
X2688437Y4771136D01*
X2695092Y4772355D01*
X2701290Y4774031D01*
X2707030Y4776216D01*
X2712313Y4778857D01*
X2717139Y4781956D01*
X2721508Y4785563D01*
X2725420Y4789576D01*
X2728823Y4794097D01*
X2731719Y4799076D01*
X2734106Y4804562D01*
X2735986Y4810455D01*
X2737358Y4816805D01*
X2738170Y4823612D01*
X2738475Y4830826D01*
X2738475Y4862880D01*
G37*
G36*
X2608427Y4760772D02*
G01*
X2608427Y4746040D01*
X2649575Y4732528D01*
X2649575Y4728718D01*
X2660954Y4728718D01*
X2698597Y4716881D01*
X2726232Y4708652D01*
X2726232Y4708144D01*
X2704084Y4701489D01*
X2682341Y4694428D01*
X2660954Y4687874D01*
X2660954Y4728718D01*
X2649575Y4728718D01*
X2649575Y4684064D01*
X2608427Y4671060D01*
X2608427Y4655312D01*
X2738475Y4700066D01*
X2738475Y4716322D01*
G37*
G36*
X2371445Y4977688D02*
G01*
X2367178Y4973269D01*
X2363368Y4968494D01*
X2360066Y4963363D01*
X2357272Y4957826D01*
X2355088Y4952034D01*
X2353462Y4945888D01*
X2352446Y4939436D01*
X2352141Y4932730D01*
X2352446Y4926177D01*
X2353411Y4920081D01*
X2354935Y4914493D01*
X2357018Y4909362D01*
X2359609Y4904740D01*
X2362657Y4900625D01*
X2366111Y4897120D01*
X2369972Y4894173D01*
X2374188Y4891836D01*
X2378710Y4890160D01*
X2383434Y4889093D01*
X2388463Y4888788D01*
X2395270Y4889296D01*
X2401214Y4890922D01*
X2406396Y4893411D01*
X2410815Y4896713D01*
X2414676Y4900777D01*
X2417978Y4905349D01*
X2420874Y4910480D01*
X2423464Y4915966D01*
X2431338Y4934712D01*
X2434844Y4942281D01*
X2439263Y4949240D01*
X2445359Y4954371D01*
X2453995Y4956302D01*
X2458313Y4955895D01*
X2462225Y4954524D01*
X2465578Y4952390D01*
X2468473Y4949444D01*
X2470708Y4945837D01*
X2472385Y4941519D01*
X2473452Y4936642D01*
X2473807Y4931206D01*
X2472893Y4922367D01*
X2470404Y4914493D01*
X2466492Y4907483D01*
X2461361Y4901184D01*
X2471013Y4893310D01*
X2474366Y4896866D01*
X2477465Y4900777D01*
X2480157Y4905044D01*
X2482494Y4909667D01*
X2484424Y4914646D01*
X2485796Y4919878D01*
X2486710Y4925415D01*
X2486964Y4931206D01*
X2486710Y4936845D01*
X2485847Y4942179D01*
X2484475Y4947208D01*
X2482545Y4951882D01*
X2480208Y4956098D01*
X2477414Y4959908D01*
X2474163Y4963261D01*
X2470607Y4966055D01*
X2466644Y4968290D01*
X2462377Y4969967D01*
X2457805Y4970983D01*
X2452979Y4971338D01*
X2446274Y4970678D01*
X2440482Y4968849D01*
X2435453Y4966106D01*
X2431186Y4962601D01*
X2427579Y4958486D01*
X2424582Y4954066D01*
X2422042Y4949444D01*
X2411577Y4926076D01*
X2407412Y4917338D01*
X2405227Y4913579D01*
X2402738Y4910277D01*
X2399842Y4907534D01*
X2396388Y4905502D01*
X2392324Y4904181D01*
X2387447Y4903774D01*
X2382672Y4904232D01*
X2378354Y4905756D01*
X2374544Y4908143D01*
X2371293Y4911445D01*
X2368651Y4915560D01*
X2366721Y4920488D01*
X2365502Y4926126D01*
X2365095Y4932426D01*
X2365349Y4937658D01*
X2366213Y4942687D01*
X2367635Y4947615D01*
X2369515Y4952339D01*
X2371902Y4956810D01*
X2374696Y4961077D01*
X2377948Y4965090D01*
X2381554Y4968798D01*
G37*
G36*
X2419400Y4870500D02*
G01*
X2411730Y4870196D01*
X2404414Y4869383D01*
X2397556Y4868062D01*
X2391105Y4866284D01*
X2385110Y4863998D01*
X2379624Y4861306D01*
X2374544Y4858156D01*
X2369972Y4854651D01*
X2365857Y4850739D01*
X2362301Y4846472D01*
X2359253Y4841849D01*
X2356713Y4836922D01*
X2354732Y4831740D01*
X2353259Y4826254D01*
X2352395Y4820513D01*
X2352141Y4814570D01*
X2352446Y4808423D01*
X2353360Y4802632D01*
X2354884Y4797247D01*
X2357018Y4792218D01*
X2359660Y4787493D01*
X2362809Y4783074D01*
X2366518Y4778908D01*
X2370632Y4774996D01*
X2380081Y4783124D01*
X2373630Y4789779D01*
X2368956Y4796942D01*
X2366060Y4804867D01*
X2365095Y4813858D01*
X2365502Y4820056D01*
X2366772Y4825847D01*
X2368905Y4831181D01*
X2371801Y4836058D01*
X2375458Y4840427D01*
X2379827Y4844288D01*
X2384907Y4847590D01*
X2390698Y4850384D01*
X2397099Y4852568D01*
X2404160Y4854194D01*
X2411780Y4855159D01*
X2419959Y4855514D01*
X2427986Y4855159D01*
X2435453Y4854143D01*
X2442362Y4852466D01*
X2448661Y4850180D01*
X2454351Y4847336D01*
X2459329Y4843932D01*
X2463647Y4839970D01*
X2467203Y4835550D01*
X2470048Y4830622D01*
X2472080Y4825288D01*
X2473350Y4819497D01*
X2473807Y4813350D01*
X2472893Y4805222D01*
X2470404Y4798009D01*
X2466492Y4791659D01*
X2461361Y4786172D01*
X2471013Y4777994D01*
X2474010Y4781092D01*
X2476906Y4784547D01*
X2479598Y4788408D01*
X2482037Y4792675D01*
X2484069Y4797298D01*
X2485644Y4802327D01*
X2486660Y4807762D01*
X2486964Y4813554D01*
X2486710Y4819599D01*
X2485796Y4825441D01*
X2484323Y4830978D01*
X2482342Y4836312D01*
X2479751Y4841290D01*
X2476652Y4845964D01*
X2473045Y4850333D01*
X2468930Y4854295D01*
X2464308Y4857902D01*
X2459228Y4861102D01*
X2453690Y4863896D01*
X2447645Y4866182D01*
X2441244Y4868011D01*
X2434386Y4869383D01*
X2427071Y4870196D01*
G37*
G36*
X2354427Y4750054D02*
G01*
X2354427Y4677918D01*
X2366873Y4677918D01*
X2366873Y4735372D01*
X2484475Y4735372D01*
X2484475Y4750054D01*
G37*
G36*
X2230475Y4973320D02*
G01*
X2100427Y4931410D01*
X2100427Y4914696D01*
X2230475Y4873040D01*
X2230475Y4887976D01*
X2115616Y4922316D01*
X2115616Y4923028D01*
X2230475Y4957826D01*
G37*
G36*
X2165400Y4864354D02*
G01*
X2157730Y4864100D01*
X2150414Y4863287D01*
X2143556Y4861966D01*
X2137105Y4860137D01*
X2131110Y4857851D01*
X2125624Y4855108D01*
X2120544Y4851958D01*
X2115972Y4848402D01*
X2111857Y4844491D01*
X2108301Y4840173D01*
X2105253Y4835550D01*
X2102713Y4830622D01*
X2100732Y4825390D01*
X2099259Y4819904D01*
X2098395Y4814214D01*
X2098141Y4808220D01*
X2098446Y4802124D01*
X2099360Y4796434D01*
X2100884Y4790998D01*
X2103018Y4785969D01*
X2105660Y4781194D01*
X2108809Y4776724D01*
X2112518Y4772558D01*
X2116632Y4768646D01*
X2126081Y4776774D01*
X2119630Y4783429D01*
X2114956Y4790694D01*
X2112060Y4798669D01*
X2111095Y4807508D01*
X2111502Y4813706D01*
X2112772Y4819497D01*
X2114905Y4824831D01*
X2117801Y4829708D01*
X2121458Y4834077D01*
X2125827Y4837938D01*
X2130907Y4841240D01*
X2136698Y4844034D01*
X2143099Y4846218D01*
X2150160Y4847844D01*
X2157780Y4848809D01*
X2165959Y4849164D01*
X2173986Y4848809D01*
X2181453Y4847793D01*
X2188362Y4846116D01*
X2194661Y4843830D01*
X2200351Y4840986D01*
X2205329Y4837582D01*
X2209647Y4833620D01*
X2213203Y4829200D01*
X2216048Y4824272D01*
X2218080Y4818938D01*
X2219350Y4813147D01*
X2219807Y4807000D01*
X2218893Y4798872D01*
X2216404Y4791710D01*
X2212492Y4785461D01*
X2207361Y4780026D01*
X2217013Y4771948D01*
X2220010Y4774895D01*
X2222906Y4778349D01*
X2225598Y4782159D01*
X2228037Y4786426D01*
X2230069Y4791100D01*
X2231644Y4796129D01*
X2232660Y4801514D01*
X2232964Y4807204D01*
X2232710Y4813249D01*
X2231796Y4819091D01*
X2230323Y4824679D01*
X2228342Y4829962D01*
X2225751Y4834991D01*
X2222652Y4839716D01*
X2219045Y4844084D01*
X2214930Y4848098D01*
X2210308Y4851704D01*
X2205228Y4854956D01*
X2199690Y4857699D01*
X2193645Y4860036D01*
X2187244Y4861915D01*
X2180386Y4863287D01*
X2173071Y4864100D01*
G37*
G36*
X2165400Y4756912D02*
G01*
X2157730Y4756658D01*
X2150414Y4755845D01*
X2143556Y4754524D01*
X2137105Y4752695D01*
X2131110Y4750409D01*
X2125624Y4747666D01*
X2120544Y4744516D01*
X2115972Y4740960D01*
X2111857Y4737049D01*
X2108301Y4732731D01*
X2105253Y4728108D01*
X2102713Y4723180D01*
X2100732Y4717948D01*
X2099259Y4712462D01*
X2098395Y4706772D01*
X2098141Y4700778D01*
X2098446Y4694682D01*
X2099360Y4688992D01*
X2100884Y4683556D01*
X2103018Y4678527D01*
X2105660Y4673752D01*
X2108809Y4669282D01*
X2112518Y4665116D01*
X2116632Y4661154D01*
X2126081Y4669332D01*
X2119630Y4675987D01*
X2114956Y4683252D01*
X2112060Y4691227D01*
X2111095Y4700066D01*
X2111502Y4706264D01*
X2112772Y4712055D01*
X2114905Y4717389D01*
X2117801Y4722266D01*
X2121458Y4726635D01*
X2125827Y4730496D01*
X2130907Y4733798D01*
X2136698Y4736592D01*
X2143099Y4738776D01*
X2150160Y4740402D01*
X2157780Y4741367D01*
X2165959Y4741722D01*
X2173986Y4741367D01*
X2181453Y4740351D01*
X2188362Y4738674D01*
X2194661Y4736388D01*
X2200351Y4733544D01*
X2205329Y4730140D01*
X2209647Y4726178D01*
X2213203Y4721758D01*
X2216048Y4716830D01*
X2218080Y4711496D01*
X2219350Y4705705D01*
X2219807Y4699558D01*
X2218893Y4691532D01*
X2216404Y4684369D01*
X2212492Y4678019D01*
X2207361Y4672584D01*
X2217013Y4664506D01*
X2220010Y4667453D01*
X2222906Y4670907D01*
X2225598Y4674717D01*
X2228037Y4678984D01*
X2230069Y4683658D01*
X2231644Y4688687D01*
X2232660Y4694072D01*
X2232964Y4699762D01*
X2232710Y4705858D01*
X2231796Y4711700D01*
X2230323Y4717338D01*
X2228342Y4722672D01*
X2225751Y4727651D01*
X2222652Y4732375D01*
X2219045Y4736744D01*
X2214930Y4740757D01*
X2210308Y4744364D01*
X2205228Y4747564D01*
X2199690Y4750308D01*
X2193645Y4752644D01*
X2187244Y4754473D01*
X2180386Y4755845D01*
X2173071Y4756658D01*
G37*
G36*
X1911451Y4975860D02*
G01*
X1903730Y4975606D01*
X1896414Y4974793D01*
X1889556Y4973421D01*
X1883105Y4971592D01*
X1877110Y4969256D01*
X1871624Y4966462D01*
X1866544Y4963210D01*
X1861972Y4959553D01*
X1857857Y4955489D01*
X1854301Y4951069D01*
X1851253Y4946294D01*
X1848713Y4941163D01*
X1846732Y4935728D01*
X1845259Y4929987D01*
X1844395Y4923993D01*
X1844141Y4917694D01*
X1844395Y4911394D01*
X1845208Y4905400D01*
X1846529Y4899812D01*
X1848256Y4894580D01*
X1850440Y4889754D01*
X1853031Y4885385D01*
X1855927Y4881473D01*
X1859127Y4878070D01*
X1912975Y4878070D01*
X1912975Y4920030D01*
X1900783Y4920030D01*
X1900783Y4891786D01*
X1865223Y4891786D01*
X1861769Y4896510D01*
X1859229Y4902403D01*
X1857603Y4909159D01*
X1857044Y4916474D01*
X1857502Y4923231D01*
X1858772Y4929530D01*
X1860905Y4935270D01*
X1863801Y4940452D01*
X1867458Y4945075D01*
X1871827Y4949139D01*
X1876907Y4952593D01*
X1882698Y4955438D01*
X1889099Y4957724D01*
X1896160Y4959350D01*
X1903780Y4960315D01*
X1911959Y4960620D01*
X1919986Y4960315D01*
X1927453Y4959248D01*
X1934362Y4957521D01*
X1940661Y4955184D01*
X1946351Y4952187D01*
X1951329Y4948631D01*
X1955647Y4944516D01*
X1959203Y4939893D01*
X1962048Y4934712D01*
X1964080Y4929073D01*
X1965350Y4922977D01*
X1965807Y4916474D01*
X1964842Y4907229D01*
X1962200Y4899507D01*
X1958289Y4893106D01*
X1953361Y4887772D01*
X1963013Y4879594D01*
X1965858Y4882591D01*
X1968703Y4886045D01*
X1971395Y4889906D01*
X1973834Y4894275D01*
X1975916Y4899101D01*
X1977542Y4904435D01*
X1978609Y4910328D01*
X1978964Y4916678D01*
X1978710Y4923028D01*
X1977796Y4929073D01*
X1976323Y4934915D01*
X1974342Y4940401D01*
X1971751Y4945634D01*
X1968652Y4950510D01*
X1965045Y4955032D01*
X1960930Y4959146D01*
X1956307Y4962906D01*
X1951228Y4966208D01*
X1945690Y4969052D01*
X1939645Y4971440D01*
X1933244Y4973370D01*
X1926386Y4974742D01*
X1919071Y4975606D01*
G37*
G36*
X1846427Y4846624D02*
G01*
X1846427Y4832604D01*
X1922830Y4832654D01*
X1942744Y4833518D01*
X1957425Y4834432D01*
X1957425Y4833620D01*
X1930704Y4819446D01*
X1846427Y4770424D01*
X1846427Y4755134D01*
X1976475Y4755134D01*
X1976475Y4769104D01*
X1901088Y4769104D01*
X1865680Y4767326D01*
X1865680Y4768138D01*
X1892401Y4782108D01*
X1976475Y4831334D01*
X1976475Y4846624D01*
G37*
G36*
X1846427Y4718812D02*
G01*
X1846427Y4704130D01*
X1964486Y4704130D01*
X1964486Y4688078D01*
X1964283Y4682388D01*
X1963623Y4677054D01*
X1962505Y4672076D01*
X1960981Y4667453D01*
X1959000Y4663236D01*
X1956663Y4659376D01*
X1953869Y4655921D01*
X1950720Y4652822D01*
X1947113Y4650028D01*
X1943201Y4647692D01*
X1938883Y4645660D01*
X1934210Y4644034D01*
X1929130Y4642764D01*
X1923745Y4641850D01*
X1918004Y4641291D01*
X1911959Y4641138D01*
X1905863Y4641291D01*
X1900072Y4641850D01*
X1894636Y4642764D01*
X1889556Y4644034D01*
X1884832Y4645660D01*
X1880412Y4647692D01*
X1876399Y4650028D01*
X1872792Y4652822D01*
X1869541Y4655921D01*
X1866696Y4659376D01*
X1864258Y4663236D01*
X1862226Y4667453D01*
X1860651Y4672076D01*
X1859534Y4677054D01*
X1858822Y4682388D01*
X1858568Y4688078D01*
X1858568Y4704130D01*
X1846427Y4704130D01*
X1846427Y4686350D01*
X1846681Y4679137D01*
X1847545Y4672431D01*
X1848967Y4666132D01*
X1850898Y4660290D01*
X1853387Y4654905D01*
X1856333Y4649978D01*
X1859838Y4645507D01*
X1863852Y4641443D01*
X1868322Y4637887D01*
X1873250Y4634788D01*
X1878634Y4632147D01*
X1884425Y4630013D01*
X1890725Y4628286D01*
X1897380Y4627118D01*
X1904441Y4626356D01*
X1911959Y4626102D01*
X1919376Y4626356D01*
X1926437Y4627118D01*
X1933092Y4628337D01*
X1939289Y4630013D01*
X1945030Y4632198D01*
X1950313Y4634839D01*
X1955139Y4637938D01*
X1959508Y4641545D01*
X1963420Y4645558D01*
X1966823Y4650079D01*
X1969719Y4655058D01*
X1972106Y4660544D01*
X1973986Y4666437D01*
X1975357Y4672787D01*
X1976170Y4679594D01*
X1976475Y4686858D01*
X1976475Y4718812D01*
G37*
D10*
X2718815Y3057144D02*
G01*
X2609850Y3098800D01*
X2718815Y3057144D02*
G01*
X2609850Y3015742D01*
X2646172Y3083305D02*
G01*
X2646172Y3031236D01*
X2718815Y2981452D02*
G01*
X2609850Y2981452D01*
X2718815Y2981452D02*
G01*
X2718815Y2934715D01*
X2713736Y2918968D01*
X2708402Y2913887D01*
X2697988Y2908554D01*
X2687574Y2908554D01*
X2677159Y2913887D01*
X2672079Y2918968D01*
X2667000Y2934715D01*
X2667000Y2981452D01*
X2667000Y2945129D02*
G01*
X2609850Y2908554D01*
X2718815Y2874263D02*
G01*
X2609850Y2874263D01*
X2718815Y2874263D02*
G01*
X2718815Y2837942D01*
X2713736Y2822447D01*
X2703322Y2812034D01*
X2692908Y2806700D01*
X2677159Y2801620D01*
X2651252Y2801620D01*
X2635758Y2806700D01*
X2625343Y2812034D01*
X2614929Y2822447D01*
X2609850Y2837942D01*
X2609850Y2874263D01*
X2718815Y2767329D02*
G01*
X2640838Y2767329D01*
X2625343Y2762250D01*
X2614929Y2751836D01*
X2609850Y2736087D01*
X2609850Y2725673D01*
X2614929Y2710179D01*
X2625343Y2699765D01*
X2640838Y2694686D01*
X2718815Y2694686D01*
X2718815Y2660395D02*
G01*
X2609850Y2660395D01*
X2718815Y2626105D02*
G01*
X2609850Y2626105D01*
X2718815Y2626105D02*
G01*
X2609850Y2553207D01*
X2718815Y2553207D02*
G01*
X2609850Y2553207D01*
X2718815Y2487929D02*
G01*
X2713736Y2498089D01*
X2703322Y2508504D01*
X2692908Y2513837D01*
X2677159Y2518918D01*
X2651252Y2518918D01*
X2635758Y2513837D01*
X2625343Y2508504D01*
X2614929Y2498089D01*
X2609850Y2487929D01*
X2609850Y2467102D01*
X2614929Y2456687D01*
X2625343Y2446273D01*
X2635758Y2440939D01*
X2651252Y2435860D01*
X2677159Y2435860D01*
X2692908Y2440939D01*
X2703322Y2446273D01*
X2713736Y2456687D01*
X2718815Y2467102D01*
X2718815Y2487929D01*
X2718815Y2321560D02*
G01*
X2609850Y2321560D01*
X2718815Y2321560D02*
G01*
X2609850Y2248915D01*
X2718815Y2248915D02*
G01*
X2609850Y2248915D01*
X2718815Y2172970D02*
G01*
X2609850Y2214626D01*
X2718815Y2172970D02*
G01*
X2609850Y2131313D01*
X2646172Y2198878D02*
G01*
X2646172Y2147062D01*
X2718815Y2097023D02*
G01*
X2609850Y2097023D01*
X2718815Y2097023D02*
G01*
X2609850Y2024379D01*
X2718815Y2024379D02*
G01*
X2609850Y2024379D01*
X2718815Y1958847D02*
G01*
X2713736Y1969262D01*
X2703322Y1979676D01*
X2692908Y1985010D01*
X2677159Y1990089D01*
X2651252Y1990089D01*
X2635758Y1985010D01*
X2625343Y1979676D01*
X2614929Y1969262D01*
X2609850Y1958847D01*
X2609850Y1938020D01*
X2614929Y1927860D01*
X2625343Y1917445D01*
X2635758Y1912112D01*
X2651252Y1907031D01*
X2677159Y1907031D01*
X2692908Y1912112D01*
X2703322Y1917445D01*
X2713736Y1927860D01*
X2718815Y1938020D01*
X2718815Y1958847D01*
X2718815Y1792731D02*
G01*
X2609850Y1792731D01*
X2718815Y1792731D02*
G01*
X2718815Y1725168D01*
X2667000Y1792731D02*
G01*
X2667000Y1751076D01*
X2609850Y1792731D02*
G01*
X2609850Y1725168D01*
X2703322Y1617979D02*
G01*
X2713736Y1628394D01*
X2718815Y1644142D01*
X2718815Y1664970D01*
X2713736Y1680463D01*
X2703322Y1690878D01*
X2692908Y1690878D01*
X2682493Y1685544D01*
X2677159Y1680463D01*
X2672079Y1670050D01*
X2661665Y1638807D01*
X2656586Y1628394D01*
X2651252Y1623313D01*
X2640838Y1617979D01*
X2625343Y1617979D01*
X2614929Y1628394D01*
X2609850Y1644142D01*
X2609850Y1664970D01*
X2614929Y1680463D01*
X2625343Y1690878D01*
X2718815Y1583689D02*
G01*
X2609850Y1583689D01*
X2718815Y1583689D02*
G01*
X2718815Y1536954D01*
X2713736Y1521460D01*
X2708402Y1516379D01*
X2697988Y1511045D01*
X2682493Y1511045D01*
X2672079Y1516379D01*
X2667000Y1521460D01*
X2661665Y1536954D01*
X2661665Y1583689D01*
X2718815Y1466342D02*
G01*
X2718815Y1409192D01*
X2677159Y1440434D01*
X2677159Y1424939D01*
X2672079Y1414526D01*
X2667000Y1409192D01*
X2651252Y1404112D01*
X2640838Y1404112D01*
X2625343Y1409192D01*
X2614929Y1419605D01*
X2609850Y1435100D01*
X2609850Y1450847D01*
X2614929Y1466342D01*
X2620009Y1471676D01*
X2630424Y1476755D01*
X2692908Y1364487D02*
G01*
X2697988Y1364487D01*
X2708402Y1359407D01*
X2713736Y1354073D01*
X2718815Y1343660D01*
X2718815Y1323086D01*
X2713736Y1312671D01*
X2708402Y1307337D01*
X2697988Y1302257D01*
X2687574Y1302257D01*
X2677159Y1307337D01*
X2661665Y1317752D01*
X2609850Y1369821D01*
X2609850Y1296923D01*
X4469891Y5526278D02*
G01*
X4459477Y5520944D01*
X4449063Y5510529D01*
X4443984Y5500370D01*
X4443984Y5479542D01*
X4449063Y5469128D01*
X4459477Y5458713D01*
X4469891Y5453379D01*
X4485640Y5448300D01*
X4511547Y5448300D01*
X4527041Y5453379D01*
X4537456Y5458713D01*
X4547870Y5469128D01*
X4552950Y5479542D01*
X4552950Y5500370D01*
X4547870Y5510529D01*
X4537456Y5520944D01*
X4527041Y5526278D01*
X4480306Y5622797D02*
G01*
X4552950Y5622797D01*
X4495800Y5622797D02*
G01*
X4485640Y5612384D01*
X4480306Y5601970D01*
X4480306Y5586476D01*
X4485640Y5576062D01*
X4495800Y5565647D01*
X4511547Y5560568D01*
X4521961Y5560568D01*
X4537456Y5565647D01*
X4547870Y5576062D01*
X4552950Y5586476D01*
X4552950Y5601970D01*
X4547870Y5612384D01*
X4537456Y5622797D01*
X4480306Y5657087D02*
G01*
X4589525Y5657087D01*
X4495800Y5657087D02*
G01*
X4485640Y5667502D01*
X4480306Y5677915D01*
X4480306Y5693410D01*
X4485640Y5703823D01*
X4495800Y5714237D01*
X4511547Y5719571D01*
X4521961Y5719571D01*
X4537456Y5714237D01*
X4547870Y5703823D01*
X4552950Y5693410D01*
X4552950Y5677915D01*
X4547870Y5667502D01*
X4537456Y5657087D01*
X4443984Y5753862D02*
G01*
X4449063Y5758942D01*
X4443984Y5764276D01*
X4438650Y5758942D01*
X4443984Y5753862D01*
X4480306Y5758942D02*
G01*
X4552950Y5758942D01*
X4443984Y5798565D02*
G01*
X4552950Y5798565D01*
X4495800Y5798565D02*
G01*
X4485640Y5808979D01*
X4480306Y5819139D01*
X4480306Y5834887D01*
X4485640Y5845302D01*
X4495800Y5855715D01*
X4511547Y5860795D01*
X4521961Y5860795D01*
X4537456Y5855715D01*
X4547870Y5845302D01*
X4552950Y5834887D01*
X4552950Y5819139D01*
X4547870Y5808979D01*
X4537456Y5798565D01*
X4480306Y5957570D02*
G01*
X4552950Y5957570D01*
X4495800Y5957570D02*
G01*
X4485640Y5947155D01*
X4480306Y5936742D01*
X4480306Y5920994D01*
X4485640Y5910579D01*
X4495800Y5900420D01*
X4511547Y5895086D01*
X4521961Y5895086D01*
X4537456Y5900420D01*
X4547870Y5910579D01*
X4552950Y5920994D01*
X4552950Y5936742D01*
X4547870Y5947155D01*
X4537456Y5957570D01*
X4480306Y5991860D02*
G01*
X4552950Y5991860D01*
X4511547Y5991860D02*
G01*
X4495800Y5996939D01*
X4485640Y6007354D01*
X4480306Y6017768D01*
X4480306Y6033262D01*
X4480306Y6130036D02*
G01*
X4552950Y6130036D01*
X4495800Y6130036D02*
G01*
X4485640Y6119621D01*
X4480306Y6109207D01*
X4480306Y6093460D01*
X4485640Y6083300D01*
X4495800Y6072886D01*
X4511547Y6067552D01*
X4521961Y6067552D01*
X4537456Y6072886D01*
X4547870Y6083300D01*
X4552950Y6093460D01*
X4552950Y6109207D01*
X4547870Y6119621D01*
X4537456Y6130036D01*
X4443984Y6236970D02*
G01*
X4552950Y6164326D01*
X4443984Y6164326D02*
G01*
X4443984Y6236970D01*
X4552950Y6164326D02*
G01*
X4552950Y6236970D01*
X4511547Y6271260D02*
G01*
X4511547Y6333489D01*
X4501134Y6333489D01*
X4490720Y6328410D01*
X4485640Y6323329D01*
X4480306Y6312915D01*
X4480306Y6297168D01*
X4485640Y6286754D01*
X4495800Y6276339D01*
X4511547Y6271260D01*
X4521961Y6271260D01*
X4537456Y6276339D01*
X4547870Y6286754D01*
X4552950Y6297168D01*
X4552950Y6312915D01*
X4547870Y6323329D01*
X4537456Y6333489D01*
X4480306Y6367779D02*
G01*
X4552950Y6367779D01*
X4511547Y6367779D02*
G01*
X4495800Y6373113D01*
X4485640Y6383528D01*
X4480306Y6393942D01*
X4480306Y6409436D01*
X4480306Y6469634D02*
G01*
X4485640Y6459220D01*
X4495800Y6449060D01*
X4511547Y6443726D01*
X4521961Y6443726D01*
X4537456Y6449060D01*
X4547870Y6459220D01*
X4552950Y6469634D01*
X4552950Y6485381D01*
X4547870Y6495795D01*
X4537456Y6506210D01*
X4521961Y6511289D01*
X4511547Y6511289D01*
X4495800Y6506210D01*
X4485640Y6495795D01*
X4480306Y6485381D01*
X4480306Y6469634D01*
X4100829Y3376421D02*
G01*
X4095750Y3386836D01*
X4080256Y3391915D01*
X4069841Y3391915D01*
X4054093Y3386836D01*
X4043679Y3371087D01*
X4038600Y3345179D01*
X4038600Y3319271D01*
X4043679Y3298444D01*
X4054093Y3288029D01*
X4069841Y3282950D01*
X4074922Y3282950D01*
X4090670Y3288029D01*
X4100829Y3298444D01*
X4106163Y3313937D01*
X4106163Y3319271D01*
X4100829Y3334765D01*
X4090670Y3345179D01*
X4074922Y3350260D01*
X4069841Y3350260D01*
X4054093Y3345179D01*
X4043679Y3334765D01*
X4038600Y3319271D01*
X4049013Y2629915D02*
G01*
X4106163Y2629915D01*
X4074922Y2588260D01*
X4090670Y2588260D01*
X4100829Y2583179D01*
X4106163Y2578100D01*
X4111243Y2562352D01*
X4111243Y2551937D01*
X4106163Y2536444D01*
X4095750Y2526029D01*
X4080256Y2520950D01*
X4064508Y2520950D01*
X4049013Y2526029D01*
X4043679Y2531110D01*
X4038600Y2541523D01*
X4064000Y2101087D02*
G01*
X4074413Y2106421D01*
X4089908Y2121915D01*
X4089908Y2012950D01*
X4056379Y2362707D02*
G01*
X4056379Y2367787D01*
X4061713Y2378202D01*
X4066793Y2383536D01*
X4077208Y2388615D01*
X4098036Y2388615D01*
X4108450Y2383536D01*
X4113529Y2378202D01*
X4118863Y2367787D01*
X4118863Y2357373D01*
X4113529Y2346960D01*
X4103370Y2331465D01*
X4051300Y2279650D01*
X4123943Y2279650D01*
X4090670Y2896615D02*
G01*
X4038600Y2823971D01*
X4116577Y2823971D01*
X4090670Y2896615D02*
G01*
X4090670Y2787650D01*
X4113529Y3137915D02*
G01*
X4061713Y3137915D01*
X4056379Y3091179D01*
X4061713Y3096260D01*
X4077208Y3101594D01*
X4092956Y3101594D01*
X4108450Y3096260D01*
X4118863Y3086100D01*
X4123943Y3070352D01*
X4123943Y3059937D01*
X4118863Y3044444D01*
X4108450Y3034029D01*
X4092956Y3028950D01*
X4077208Y3028950D01*
X4061713Y3034029D01*
X4056379Y3039110D01*
X4051300Y3049523D01*
X3900677Y572007D02*
G01*
X3895343Y582421D01*
X3884929Y592836D01*
X3874770Y597915D01*
X3853941Y597915D01*
X3843527Y592836D01*
X3833113Y582421D01*
X3827779Y572007D01*
X3822700Y556260D01*
X3822700Y530352D01*
X3827779Y514857D01*
X3833113Y504444D01*
X3843527Y494029D01*
X3853941Y488950D01*
X3874770Y488950D01*
X3884929Y494029D01*
X3895343Y504444D01*
X3900677Y514857D01*
X3900677Y530352D01*
X3874770Y530352D02*
G01*
X3900677Y530352D01*
X3934968Y597915D02*
G01*
X3934968Y488950D01*
X3934968Y597915D02*
G01*
X4007611Y488950D01*
X4007611Y597915D02*
G01*
X4007611Y488950D01*
X4041902Y597915D02*
G01*
X4041902Y488950D01*
X4041902Y597915D02*
G01*
X4078224Y597915D01*
X4093972Y592836D01*
X4104386Y582421D01*
X4109465Y572007D01*
X4114800Y556260D01*
X4114800Y530352D01*
X4109465Y514857D01*
X4104386Y504444D01*
X4093972Y494029D01*
X4078224Y488950D01*
X4041902Y488950D01*
X3822700Y839215D02*
G01*
X3864356Y730250D01*
X3905758Y839215D02*
G01*
X3864356Y730250D01*
X4018025Y813307D02*
G01*
X4012945Y823721D01*
X4002531Y834136D01*
X3992118Y839215D01*
X3971290Y839215D01*
X3960875Y834136D01*
X3950461Y823721D01*
X3945381Y813307D01*
X3940047Y797560D01*
X3940047Y771652D01*
X3945381Y756157D01*
X3950461Y745744D01*
X3960875Y735329D01*
X3971290Y730250D01*
X3992118Y730250D01*
X4002531Y735329D01*
X4012945Y745744D01*
X4018025Y756157D01*
X4130293Y813307D02*
G01*
X4124959Y823721D01*
X4114800Y834136D01*
X4104386Y839215D01*
X4083558Y839215D01*
X4073143Y834136D01*
X4062729Y823721D01*
X4057650Y813307D01*
X4052315Y797560D01*
X4052315Y771652D01*
X4057650Y756157D01*
X4062729Y745744D01*
X4073143Y735329D01*
X4083558Y730250D01*
X4104386Y730250D01*
X4114800Y735329D01*
X4124959Y745744D01*
X4130293Y756157D01*
X3869943Y1331721D02*
G01*
X3859529Y1342136D01*
X3844036Y1347215D01*
X3823208Y1347215D01*
X3807713Y1342136D01*
X3797300Y1331721D01*
X3797300Y1321307D01*
X3802379Y1310894D01*
X3807713Y1305560D01*
X3818127Y1300479D01*
X3849370Y1290065D01*
X3859529Y1284986D01*
X3864863Y1279652D01*
X3869943Y1269237D01*
X3869943Y1253744D01*
X3859529Y1243329D01*
X3844036Y1238250D01*
X3823208Y1238250D01*
X3807713Y1243329D01*
X3797300Y1253744D01*
X3904234Y1347215D02*
G01*
X3904234Y1238250D01*
X3904234Y1347215D02*
G01*
X3940809Y1347215D01*
X3956304Y1342136D01*
X3966718Y1331721D01*
X3971797Y1321307D01*
X3977131Y1305560D01*
X3977131Y1279652D01*
X3971797Y1264157D01*
X3966718Y1253744D01*
X3956304Y1243329D01*
X3940809Y1238250D01*
X3904234Y1238250D01*
X4052824Y1347215D02*
G01*
X4011422Y1238250D01*
X4052824Y1347215D02*
G01*
X4094479Y1238250D01*
X4026915Y1274571D02*
G01*
X4078986Y1274571D01*
X3869943Y1090421D02*
G01*
X3859529Y1100836D01*
X3844036Y1105915D01*
X3823208Y1105915D01*
X3807713Y1100836D01*
X3797300Y1090421D01*
X3797300Y1080007D01*
X3802379Y1069594D01*
X3807713Y1064260D01*
X3818127Y1059179D01*
X3849370Y1048765D01*
X3859529Y1043686D01*
X3864863Y1038352D01*
X3869943Y1027937D01*
X3869943Y1012444D01*
X3859529Y1002029D01*
X3844036Y996950D01*
X3823208Y996950D01*
X3807713Y1002029D01*
X3797300Y1012444D01*
X3982211Y1080007D02*
G01*
X3977131Y1090421D01*
X3966718Y1100836D01*
X3956304Y1105915D01*
X3935475Y1105915D01*
X3925061Y1100836D01*
X3914647Y1090421D01*
X3909568Y1080007D01*
X3904234Y1064260D01*
X3904234Y1038352D01*
X3909568Y1022857D01*
X3914647Y1012444D01*
X3925061Y1002029D01*
X3935475Y996950D01*
X3956304Y996950D01*
X3966718Y1002029D01*
X3977131Y1012444D01*
X3982211Y1022857D01*
X4016502Y1105915D02*
G01*
X4016502Y996950D01*
X4016502Y996950D02*
G01*
X4078986Y996950D01*
X4532884Y-584200D02*
G01*
X4641850Y-584200D01*
X4532884Y-584200D02*
G01*
X4532884Y-537463D01*
X4537963Y-521970D01*
X4543297Y-516636D01*
X4553711Y-511555D01*
X4569206Y-511555D01*
X4579620Y-516636D01*
X4584700Y-521970D01*
X4590034Y-537463D01*
X4590034Y-584200D01*
X4558791Y-399287D02*
G01*
X4548377Y-404368D01*
X4537963Y-414781D01*
X4532884Y-425195D01*
X4532884Y-446023D01*
X4537963Y-456437D01*
X4548377Y-466852D01*
X4558791Y-471931D01*
X4574540Y-477265D01*
X4600447Y-477265D01*
X4615941Y-471931D01*
X4626356Y-466852D01*
X4636770Y-456437D01*
X4641850Y-446023D01*
X4641850Y-425195D01*
X4636770Y-414781D01*
X4626356Y-404368D01*
X4615941Y-399287D01*
X4532884Y-364997D02*
G01*
X4641850Y-364997D01*
X4532884Y-364997D02*
G01*
X4532884Y-318262D01*
X4537963Y-302513D01*
X4543297Y-297434D01*
X4553711Y-292100D01*
X4564125Y-292100D01*
X4574540Y-297434D01*
X4579620Y-302513D01*
X4584700Y-318262D01*
X4584700Y-364997D02*
G01*
X4584700Y-318262D01*
X4590034Y-302513D01*
X4595113Y-297434D01*
X4605527Y-292100D01*
X4621275Y-292100D01*
X4631690Y-297434D01*
X4636770Y-302513D01*
X4641850Y-318262D01*
X4641850Y-364997D01*
X4532884Y-177800D02*
G01*
X4641850Y-136397D01*
X4532884Y-94742D02*
G01*
X4641850Y-136397D01*
X4600447Y-60452D02*
G01*
X4600447Y1778D01*
X4590034Y1778D01*
X4579620Y-3302D01*
X4574540Y-8636D01*
X4569206Y-19050D01*
X4569206Y-34544D01*
X4574540Y-44957D01*
X4584700Y-55371D01*
X4600447Y-60452D01*
X4610861Y-60452D01*
X4626356Y-55371D01*
X4636770Y-44957D01*
X4641850Y-34544D01*
X4641850Y-19050D01*
X4636770Y-8636D01*
X4626356Y1778D01*
X4569206Y36068D02*
G01*
X4641850Y36068D01*
X4600447Y36068D02*
G01*
X4584700Y41402D01*
X4574540Y51815D01*
X4569206Y62229D01*
X4569206Y77723D01*
X4615941Y117094D02*
G01*
X4621275Y112013D01*
X4626356Y117094D01*
X4621275Y122428D01*
X4615941Y117094D01*
X4553711Y236728D02*
G01*
X4548377Y247142D01*
X4532884Y262636D01*
X4641850Y262636D01*
X4615941Y302260D02*
G01*
X4621275Y296926D01*
X4626356Y302260D01*
X4621275Y307339D01*
X4615941Y302260D01*
X4532884Y372871D02*
G01*
X4537963Y357123D01*
X4553711Y346710D01*
X4579620Y341629D01*
X4595113Y341629D01*
X4621275Y346710D01*
X4636770Y357123D01*
X4641850Y372871D01*
X4641850Y383286D01*
X4636770Y398779D01*
X4621275Y409194D01*
X4595113Y414273D01*
X4579620Y414273D01*
X4553711Y409194D01*
X4537963Y398779D01*
X4532884Y383286D01*
X4532884Y372871D01*
X4615941Y453897D02*
G01*
X4621275Y448563D01*
X4626356Y453897D01*
X4621275Y458978D01*
X4615941Y453897D01*
X4553711Y493268D02*
G01*
X4548377Y503681D01*
X4532884Y519429D01*
X4641850Y519429D01*
X1192021Y6109715D02*
G01*
X1192021Y6000750D01*
X1155700Y6109715D02*
G01*
X1228344Y6109715D01*
X1262634Y6109715D02*
G01*
X1262634Y6000750D01*
X1262634Y6109715D02*
G01*
X1309370Y6109715D01*
X1325118Y6104636D01*
X1330197Y6099302D01*
X1335531Y6088887D01*
X1335531Y6073394D01*
X1330197Y6062979D01*
X1325118Y6057900D01*
X1309370Y6052565D01*
X1262634Y6052565D01*
X1421637Y6109715D02*
G01*
X1369821Y6037071D01*
X1447800Y6037071D01*
X1421637Y6109715D02*
G01*
X1421637Y6000750D01*
X1513078Y6109715D02*
G01*
X1497584Y6104636D01*
X1487170Y6088887D01*
X1482089Y6062979D01*
X1482089Y6047486D01*
X1487170Y6021323D01*
X1497584Y6005829D01*
X1513078Y6000750D01*
X1523492Y6000750D01*
X1539239Y6005829D01*
X1549400Y6021323D01*
X1554734Y6047486D01*
X1554734Y6062979D01*
X1549400Y6088887D01*
X1539239Y6104636D01*
X1523492Y6109715D01*
X1513078Y6109715D01*
X1651254Y6109715D02*
G01*
X1599437Y6109715D01*
X1594104Y6062979D01*
X1599437Y6068060D01*
X1614931Y6073394D01*
X1630679Y6073394D01*
X1646173Y6068060D01*
X1656587Y6057900D01*
X1661668Y6042152D01*
X1661668Y6031737D01*
X1656587Y6016244D01*
X1646173Y6005829D01*
X1630679Y6000750D01*
X1614931Y6000750D01*
X1599437Y6005829D01*
X1594104Y6010910D01*
X1589023Y6021323D01*
X1768855Y6109715D02*
G01*
X1716786Y6000750D01*
X1695957Y6109715D02*
G01*
X1768855Y6109715D01*
X4296064Y5069146D02*
G01*
X4306455Y5058755D01*
X4322041Y5053561D01*
X4342823Y5053561D01*
X4358408Y5058755D01*
X4368800Y5069146D01*
X4368800Y5079537D01*
X4363605Y5089928D01*
X4358408Y5095125D01*
X4348017Y5100320D01*
X4316844Y5110711D01*
X4306455Y5115905D01*
X4301258Y5121102D01*
X4296064Y5131493D01*
X4296064Y5147078D01*
X4306455Y5157470D01*
X4322041Y5162664D01*
X4342823Y5162664D01*
X4358408Y5157470D01*
X4368800Y5147078D01*
X4225404Y5053561D02*
G01*
X4225404Y5162664D01*
X4261774Y5053561D02*
G01*
X4189036Y5053561D01*
X4082011Y5053561D02*
G01*
X4133964Y5162664D01*
X4154746Y5053561D02*
G01*
X4082011Y5053561D01*
X3974985Y5053561D02*
G01*
X4026938Y5162664D01*
X4047721Y5053561D02*
G01*
X3974985Y5053561D01*
X3914716Y5053561D02*
G01*
X3930304Y5058755D01*
X3935498Y5069146D01*
X3935498Y5079537D01*
X3930304Y5089928D01*
X3919913Y5095125D01*
X3899131Y5100320D01*
X3883545Y5105514D01*
X3873154Y5115905D01*
X3867957Y5126296D01*
X3867957Y5141884D01*
X3873154Y5152275D01*
X3878348Y5157470D01*
X3893934Y5162664D01*
X3914716Y5162664D01*
X3930304Y5157470D01*
X3935498Y5152275D01*
X3940695Y5141884D01*
X3940695Y5126296D01*
X3935498Y5115905D01*
X3925107Y5105514D01*
X3909522Y5100320D01*
X3888740Y5095125D01*
X3878348Y5089928D01*
X3873154Y5079537D01*
X3873154Y5069146D01*
X3878348Y5058755D01*
X3893934Y5053561D01*
X3914716Y5053561D01*
X3766126Y5089928D02*
G01*
X3771323Y5105514D01*
X3781714Y5115905D01*
X3797300Y5121102D01*
X3802494Y5121102D01*
X3818082Y5115905D01*
X3828473Y5105514D01*
X3833667Y5089928D01*
X3833667Y5084734D01*
X3828473Y5069146D01*
X3818082Y5058755D01*
X3802494Y5053561D01*
X3797300Y5053561D01*
X3781714Y5058755D01*
X3771323Y5069146D01*
X3766126Y5089928D01*
X3766126Y5115905D01*
X3771323Y5141884D01*
X3781714Y5157470D01*
X3797300Y5162664D01*
X3807691Y5162664D01*
X3823276Y5157470D01*
X3828473Y5147078D01*
X3758184Y2590800D02*
G01*
X3867150Y2590800D01*
X3758184Y2590800D02*
G01*
X3758184Y2637536D01*
X3763263Y2653029D01*
X3768597Y2658363D01*
X3779011Y2663444D01*
X3789425Y2663444D01*
X3799840Y2658363D01*
X3804920Y2653029D01*
X3810000Y2637536D01*
X3810000Y2590800D02*
G01*
X3810000Y2637536D01*
X3815334Y2653029D01*
X3820413Y2658363D01*
X3830827Y2663444D01*
X3846575Y2663444D01*
X3856990Y2658363D01*
X3862070Y2653029D01*
X3867150Y2637536D01*
X3867150Y2590800D01*
X3758184Y2697734D02*
G01*
X3836161Y2697734D01*
X3851656Y2703068D01*
X3862070Y2713481D01*
X3867150Y2728976D01*
X3867150Y2739389D01*
X3862070Y2754884D01*
X3851656Y2765297D01*
X3836161Y2770631D01*
X3758184Y2770631D01*
X3758184Y2841244D02*
G01*
X3867150Y2841244D01*
X3758184Y2804921D02*
G01*
X3758184Y2877565D01*
X3758184Y2948178D02*
G01*
X3867150Y2948178D01*
X3758184Y2911855D02*
G01*
X3758184Y2984500D01*
X3758184Y3050031D02*
G01*
X3763263Y3039618D01*
X3773677Y3029204D01*
X3784091Y3024123D01*
X3799840Y3018789D01*
X3825747Y3018789D01*
X3841241Y3024123D01*
X3851656Y3029204D01*
X3862070Y3039618D01*
X3867150Y3050031D01*
X3867150Y3070860D01*
X3862070Y3081273D01*
X3851656Y3091687D01*
X3841241Y3096768D01*
X3825747Y3102102D01*
X3799840Y3102102D01*
X3784091Y3096768D01*
X3773677Y3091687D01*
X3763263Y3081273D01*
X3758184Y3070860D01*
X3758184Y3050031D01*
X3758184Y3136392D02*
G01*
X3867150Y3136392D01*
X3758184Y3136392D02*
G01*
X3867150Y3209036D01*
X3758184Y3209036D02*
G01*
X3867150Y3209036D01*
X763015Y685800D02*
G01*
X654050Y685800D01*
X763015Y651510D02*
G01*
X654050Y651510D01*
X763015Y651510D02*
G01*
X763015Y604773D01*
X757936Y589279D01*
X752602Y583945D01*
X742187Y578865D01*
X731773Y578865D01*
X721360Y583945D01*
X716279Y589279D01*
X711200Y604773D01*
X711200Y651510D01*
X711200Y615187D02*
G01*
X654050Y578865D01*
X617473Y544576D02*
G01*
X617473Y450850D01*
X763015Y416560D02*
G01*
X654050Y416560D01*
X763015Y416560D02*
G01*
X763015Y369823D01*
X757936Y354329D01*
X752602Y349250D01*
X742187Y343915D01*
X731773Y343915D01*
X721360Y349250D01*
X716279Y354329D01*
X711200Y369823D01*
X711200Y416560D01*
X711200Y380237D02*
G01*
X654050Y343915D01*
X763015Y309626D02*
G01*
X654050Y309626D01*
X763015Y309626D02*
G01*
X763015Y242062D01*
X711200Y309626D02*
G01*
X711200Y267970D01*
X654050Y309626D02*
G01*
X654050Y242062D01*
X737107Y129794D02*
G01*
X747521Y135128D01*
X757936Y145542D01*
X763015Y155955D01*
X763015Y176529D01*
X757936Y186944D01*
X747521Y197357D01*
X737107Y202692D01*
X721360Y207771D01*
X695452Y207771D01*
X679957Y202692D01*
X669544Y197357D01*
X659129Y186944D01*
X654050Y176529D01*
X654050Y155955D01*
X659129Y145542D01*
X669544Y135128D01*
X679957Y129794D01*
X763015Y95504D02*
G01*
X654050Y95504D01*
X763015Y95504D02*
G01*
X763015Y27939D01*
X711200Y95504D02*
G01*
X711200Y54102D01*
X654050Y95504D02*
G01*
X654050Y27939D01*
X763015Y-6350D02*
G01*
X654050Y-6350D01*
X763015Y-40639D02*
G01*
X654050Y-82042D01*
X763015Y-123697D02*
G01*
X654050Y-82042D01*
X763015Y-157987D02*
G01*
X654050Y-157987D01*
X763015Y-157987D02*
G01*
X763015Y-225552D01*
X711200Y-157987D02*
G01*
X711200Y-199389D01*
X654050Y-157987D02*
G01*
X654050Y-225552D01*
X763015Y-259842D02*
G01*
X654050Y-259842D01*
X763015Y-259842D02*
G01*
X763015Y-306578D01*
X757936Y-322071D01*
X752602Y-327405D01*
X742187Y-332486D01*
X731773Y-332486D01*
X721360Y-327405D01*
X716279Y-322071D01*
X711200Y-306578D01*
X711200Y-259842D01*
X711200Y-296163D02*
G01*
X654050Y-332486D01*
X659384Y2070100D02*
G01*
X768350Y2070100D01*
X659384Y2104389D02*
G01*
X768350Y2104389D01*
X659384Y2104389D02*
G01*
X659384Y2151126D01*
X664463Y2166620D01*
X669797Y2171954D01*
X680212Y2177034D01*
X690626Y2177034D01*
X701039Y2171954D01*
X706120Y2166620D01*
X711200Y2151126D01*
X711200Y2104389D01*
X711200Y2140712D02*
G01*
X768350Y2177034D01*
X804926Y2211323D02*
G01*
X804926Y2305050D01*
X659384Y2375662D02*
G01*
X768350Y2375662D01*
X659384Y2339339D02*
G01*
X659384Y2411984D01*
X659384Y2446273D02*
G01*
X768350Y2446273D01*
X659384Y2446273D02*
G01*
X659384Y2493010D01*
X664463Y2508504D01*
X669797Y2513837D01*
X680212Y2518918D01*
X690626Y2518918D01*
X701039Y2513837D01*
X706120Y2508504D01*
X711200Y2493010D01*
X711200Y2446273D01*
X711200Y2482595D02*
G01*
X768350Y2518918D01*
X659384Y2594863D02*
G01*
X768350Y2553207D01*
X659384Y2594863D02*
G01*
X768350Y2636520D01*
X732028Y2568955D02*
G01*
X732028Y2620771D01*
X659384Y2670810D02*
G01*
X768350Y2670810D01*
X659384Y2670810D02*
G01*
X768350Y2743454D01*
X659384Y2743454D02*
G01*
X768350Y2743454D01*
X674878Y2850387D02*
G01*
X664463Y2839973D01*
X659384Y2824479D01*
X659384Y2803652D01*
X664463Y2788157D01*
X674878Y2777744D01*
X685292Y2777744D01*
X695705Y2782823D01*
X701039Y2788157D01*
X706120Y2798571D01*
X716534Y2829560D01*
X721613Y2839973D01*
X726947Y2845307D01*
X737362Y2850387D01*
X752855Y2850387D01*
X763270Y2839973D01*
X768350Y2824479D01*
X768350Y2803652D01*
X763270Y2788157D01*
X752855Y2777744D01*
X659384Y2884678D02*
G01*
X768350Y2884678D01*
X659384Y2884678D02*
G01*
X768350Y2926334D01*
X659384Y2967989D02*
G01*
X768350Y2926334D01*
X659384Y2967989D02*
G01*
X768350Y2967989D01*
X659384Y3002279D02*
G01*
X768350Y3002279D01*
X659384Y3072892D02*
G01*
X768350Y3072892D01*
X659384Y3036570D02*
G01*
X659384Y3109213D01*
X659384Y3179826D02*
G01*
X768350Y3179826D01*
X659384Y3143504D02*
G01*
X659384Y3216147D01*
X659384Y3250437D02*
G01*
X768350Y3250437D01*
X659384Y3250437D02*
G01*
X659384Y3318002D01*
X711200Y3250437D02*
G01*
X711200Y3292094D01*
X768350Y3250437D02*
G01*
X768350Y3318002D01*
X659384Y3352292D02*
G01*
X768350Y3352292D01*
X659384Y3352292D02*
G01*
X659384Y3399028D01*
X664463Y3414776D01*
X669797Y3419855D01*
X680212Y3425189D01*
X690626Y3425189D01*
X701039Y3419855D01*
X706120Y3414776D01*
X711200Y3399028D01*
X711200Y3352292D01*
X711200Y3388613D02*
G01*
X768350Y3425189D01*
X4636515Y1079500D02*
G01*
X4527550Y1079500D01*
X4636515Y1079500D02*
G01*
X4527550Y1006855D01*
X4636515Y1006855D02*
G01*
X4527550Y1006855D01*
X4636515Y972565D02*
G01*
X4527550Y972565D01*
X4636515Y972565D02*
G01*
X4636515Y905002D01*
X4584700Y972565D02*
G01*
X4584700Y930910D01*
X4610608Y792734D02*
G01*
X4621022Y797813D01*
X4631436Y808228D01*
X4636515Y818642D01*
X4636515Y839470D01*
X4631436Y849884D01*
X4621022Y860297D01*
X4610608Y865378D01*
X4594859Y870712D01*
X4568952Y870712D01*
X4553458Y865378D01*
X4543043Y860297D01*
X4532629Y849884D01*
X4527550Y839470D01*
X4527550Y818642D01*
X4532629Y808228D01*
X4543043Y797813D01*
X4553458Y792734D01*
X2449144Y-9321D02*
G01*
X2459558Y1092D01*
X2464892Y16840D01*
X2464892Y37414D01*
X2459558Y53162D01*
X2449144Y63576D01*
X2438984Y63576D01*
X2428570Y58242D01*
X2423236Y53162D01*
X2418156Y42748D01*
X2407742Y11506D01*
X2402408Y1092D01*
X2397328Y-3987D01*
X2386914Y-9321D01*
X2371420Y-9321D01*
X2361006Y1092D01*
X2355672Y16840D01*
X2355672Y37414D01*
X2361006Y53162D01*
X2371420Y63576D01*
X2464892Y-43611D02*
G01*
X2355672Y-43611D01*
X2464892Y-43611D02*
G01*
X2464892Y-79933D01*
X2459558Y-95427D01*
X2449144Y-105841D01*
X2438984Y-111175D01*
X2423236Y-116255D01*
X2397328Y-116255D01*
X2381834Y-111175D01*
X2371420Y-105841D01*
X2361006Y-95427D01*
X2355672Y-79933D01*
X2355672Y-43611D01*
X3416300Y6744715D02*
G01*
X3416300Y6635750D01*
X3416300Y6744715D02*
G01*
X3463036Y6744715D01*
X3478529Y6739636D01*
X3483863Y6734302D01*
X3488943Y6723887D01*
X3488943Y6713473D01*
X3483863Y6703060D01*
X3478529Y6697979D01*
X3463036Y6692900D01*
X3416300Y6692900D01*
X3452622Y6692900D02*
G01*
X3488943Y6635750D01*
X3523234Y6723887D02*
G01*
X3533647Y6729221D01*
X3549395Y6744715D01*
X3549395Y6635750D01*
X3441700Y5523484D02*
G01*
X3441700Y5632450D01*
X3441700Y5523484D02*
G01*
X3394963Y5523484D01*
X3379470Y5528563D01*
X3374136Y5533897D01*
X3369056Y5544312D01*
X3369056Y5554726D01*
X3374136Y5565139D01*
X3379470Y5570220D01*
X3394963Y5575300D01*
X3441700Y5575300D01*
X3405377Y5575300D02*
G01*
X3369056Y5632450D01*
X3329431Y5549392D02*
G01*
X3329431Y5544312D01*
X3324352Y5533897D01*
X3319018Y5528563D01*
X3308604Y5523484D01*
X3288029Y5523484D01*
X3277615Y5528563D01*
X3272281Y5533897D01*
X3267202Y5544312D01*
X3267202Y5554726D01*
X3272281Y5565139D01*
X3282695Y5580634D01*
X3334765Y5632450D01*
X3261868Y5632450D01*
X4506722Y4486655D02*
G01*
X4517136Y4497070D01*
X4522215Y4512563D01*
X4522215Y4533392D01*
X4517136Y4548886D01*
X4506722Y4559300D01*
X4496308Y4559300D01*
X4485893Y4554220D01*
X4480559Y4548886D01*
X4475479Y4538471D01*
X4465065Y4507229D01*
X4459986Y4497070D01*
X4454652Y4491736D01*
X4444238Y4486655D01*
X4428743Y4486655D01*
X4418329Y4497070D01*
X4413250Y4512563D01*
X4413250Y4533392D01*
X4418329Y4548886D01*
X4428743Y4559300D01*
X4522215Y4452365D02*
G01*
X4413250Y4426204D01*
X4522215Y4400295D02*
G01*
X4413250Y4426204D01*
X4522215Y4400295D02*
G01*
X4413250Y4374387D01*
X4522215Y4348479D02*
G01*
X4413250Y4374387D01*
X4522215Y4314189D02*
G01*
X4413250Y4314189D01*
X4522215Y4243323D02*
G01*
X4413250Y4243323D01*
X4522215Y4279900D02*
G01*
X4522215Y4207002D01*
X4496308Y4094734D02*
G01*
X4506722Y4100068D01*
X4517136Y4110481D01*
X4522215Y4120895D01*
X4522215Y4141470D01*
X4517136Y4151884D01*
X4506722Y4162297D01*
X4496308Y4167631D01*
X4480559Y4172712D01*
X4454652Y4172712D01*
X4439158Y4167631D01*
X4428743Y4162297D01*
X4418329Y4151884D01*
X4413250Y4141470D01*
X4413250Y4120895D01*
X4418329Y4110481D01*
X4428743Y4100068D01*
X4439158Y4094734D01*
X4522215Y4060444D02*
G01*
X4413250Y4060444D01*
X4522215Y3987800D02*
G01*
X4413250Y3987800D01*
X4470400Y4060444D02*
G01*
X4470400Y3987800D01*
X652881Y6678218D02*
G01*
X2268118Y6678218D01*
X2268118Y5462981D01*
X652881Y5462981D01*
X652881Y6678218D01*
D11*
X504494Y6388100D02*
G01*
X638505Y6388100D01*
X638505Y5753100D01*
X504494Y5753100D01*
X504494Y6388100D01*
X3390900Y1636903D02*
G01*
X1892300Y1636903D01*
X1892300Y4636896D01*
X3390900Y4636896D01*
X3390900Y1636903D01*
X3708400Y5448300D02*
G01*
X3708400Y4940300D01*
X1676400Y4940300D01*
X1676400Y5448300D01*
X3708400Y5448300D01*
X1625600Y3581400D02*
G01*
X1625600Y3962400D01*
X1752600Y4089400D01*
X3657600Y4089400D01*
X3657600Y-482600D01*
X1625600Y-482600D01*
X1625600Y3581400D01*
X1879600Y3835400D02*
G01*
X3657600Y3835400D01*
X3657600Y-228600D01*
X1625600Y-228600D01*
X1625600Y3581400D01*
X2260600Y-482600D02*
G01*
X2260600Y-736600D01*
X3022600Y-736600D01*
X3022600Y-482600D01*
X4216400Y3505200D02*
G01*
X4216400Y3505200D01*
X3962400Y3505200D01*
X3950411Y1941829D01*
X4251756Y1941829D01*
X4254931Y1873478D01*
X3879850Y1861210D02*
G01*
X3879850Y3561206D01*
X4474641Y3561206D01*
X4474641Y1861210D01*
X3879850Y1861210D01*
X4398670Y1866061D02*
G01*
X4398670Y2045970D01*
X4472762Y2045970D01*
X4472762Y1866061D01*
X4398670Y1866061D01*
X4343400Y2235200D02*
G01*
X4343400Y3215208D01*
X4469079Y3215208D01*
X4469079Y2235200D01*
X4343400Y2235200D01*
X4396409Y3378200D02*
G01*
X4396409Y3558108D01*
X4470501Y3558108D01*
X4470501Y3378200D01*
X4396409Y3378200D01*
X723900Y1303020D02*
G01*
X924560Y1353820D01*
X924560Y1353820D02*
G01*
X1125220Y1303020D01*
X1125220Y1303020D02*
G01*
X1125220Y805179D01*
X1125220Y805179D02*
G01*
X924560Y754379D01*
X924560Y754379D02*
G01*
X723900Y805179D01*
X723900Y805179D02*
G01*
X723900Y853439D01*
X723900Y853439D02*
G01*
X723900Y1254760D01*
X723900Y1254760D02*
G01*
X723900Y1303020D01*
X848360Y1666239D02*
G01*
X848360Y1615439D01*
X848360Y1564639D01*
X927100Y1666239D02*
G01*
X927100Y1615439D01*
X927100Y1564639D01*
X927100Y1615439D02*
G01*
X1026160Y1615439D01*
X746760Y1615439D02*
G01*
X848360Y1615439D01*
X906779Y1694179D02*
G01*
X957579Y1744979D01*
X906779Y1744979D01*
X957579Y1694179D01*
X957579Y1744979D01*
X1117600Y1955800D02*
G01*
X1117600Y1836420D01*
X1117600Y1574800D02*
G01*
X1117600Y1676400D01*
D12*
X4483100Y381000D02*
G01*
X4406900Y381000D01*
X4406900Y177800D01*
X4483100Y177800D01*
X4483100Y381000D01*
X4406900Y1701800D02*
G01*
X4483100Y1701800D01*
X4483100Y1524000D01*
X4406900Y1524000D01*
X4406900Y1701800D01*
X3873500Y1701800D01*
X3873500Y177800D01*
X4483100Y177800D01*
X4483100Y1701800D01*
X4483100Y1371600D02*
G01*
X4406900Y1371600D01*
X4406900Y533400D01*
X4483100Y533400D01*
X4483100Y1371600D01*
X4254500Y1701800D02*
G01*
X4254500Y1625600D01*
X3949700Y1625600D01*
X3949700Y254000D01*
X4254500Y254000D01*
X4254500Y177800D01*
X4504181Y1482852D02*
G01*
X4504181Y1732787D01*
X4253991Y1732787D01*
D10*
X3544216Y1182016D02*
G01*
X3544216Y-623219D01*
X1738980Y-623219D01*
X1738980Y1182016D01*
X3544216Y1182016D01*
D11*
X3738199Y6349997D02*
G01*
X3108197Y6349997D01*
X3749040Y6550657D02*
G01*
X3749040Y6350662D01*
X3108959Y6550660D02*
G01*
X3738961Y6550660D01*
X3108959Y6352537D02*
G01*
X3108959Y6552539D01*
X3119800Y5918202D02*
G01*
X3749802Y5918202D01*
X3108959Y5717542D02*
G01*
X3108959Y5917537D01*
X3749040Y5717539D02*
G01*
X3119038Y5717539D01*
X3749040Y5915662D02*
G01*
X3749040Y5715660D01*
X4365599Y4838192D02*
G01*
X4365599Y3696207D01*
X3965600Y4838192D02*
G01*
X3965600Y3696207D01*
X4365599Y4838700D02*
G01*
X3965600Y4838700D01*
X4365599Y3696207D02*
G01*
X3965600Y3696207D01*
G75*
G01*
X724441Y1254219D02*
G03*
X724441Y854220I75041J-200000D01*
G75*
G01*
X1117600Y1574800D02*
G02*
X1117600Y1955800I-177798J190500D01*
D13*
G75*
G01
X2014601Y1230020D02*
G03X2014601Y1230020I-8001J0D01*
M02*
