G04 Layer: BottomSilkscreenLayer*
G04 EasyEDA v6.5.40, 2024-05-09 08:25:39*
G04 18a0beea18964d5d8ca67f77cddb8664,df7e7e3c38a3447abd37b529b333d242,10*
G04 Gerber Generator version 0.2*
G04 Scale: 100 percent, Rotated: No, Reflected: No *
G04 Dimensions in millimeters *
G04 leading zeros omitted , absolute positions ,4 integer and 5 decimal *
%FSLAX45Y45*%
%MOMM*%

%ADD10C,0.1524*%

%LPD*%
D10*
X2625343Y319278D02*
G01*
X2614929Y308863D01*
X2599436Y303784D01*
X2578608Y303784D01*
X2563113Y308863D01*
X2552700Y319278D01*
X2552700Y329692D01*
X2557779Y340105D01*
X2563113Y345439D01*
X2573527Y350520D01*
X2604770Y360934D01*
X2614929Y366013D01*
X2620263Y371347D01*
X2625343Y381762D01*
X2625343Y397255D01*
X2614929Y407670D01*
X2599436Y412750D01*
X2578608Y412750D01*
X2563113Y407670D01*
X2552700Y397255D01*
X2659634Y303784D02*
G01*
X2659634Y412750D01*
X2659634Y303784D02*
G01*
X2696209Y303784D01*
X2711704Y308863D01*
X2722118Y319278D01*
X2727197Y329692D01*
X2732531Y345439D01*
X2732531Y371347D01*
X2727197Y386842D01*
X2722118Y397255D01*
X2711704Y407670D01*
X2696209Y412750D01*
X2659634Y412750D01*
X2766822Y2997707D02*
G01*
X2772156Y3008121D01*
X2782570Y3018536D01*
X2792729Y3023615D01*
X2813558Y3023615D01*
X2823972Y3018536D01*
X2834386Y3008121D01*
X2839720Y2997707D01*
X2844800Y2981960D01*
X2844800Y2956052D01*
X2839720Y2940557D01*
X2834386Y2930144D01*
X2823972Y2919729D01*
X2813558Y2914650D01*
X2792729Y2914650D01*
X2782570Y2919729D01*
X2772156Y2930144D01*
X2766822Y2940557D01*
X2654554Y2997707D02*
G01*
X2659888Y3008121D01*
X2670302Y3018536D01*
X2680715Y3023615D01*
X2701290Y3023615D01*
X2711704Y3018536D01*
X2722118Y3008121D01*
X2727452Y2997707D01*
X2732531Y2981960D01*
X2732531Y2956052D01*
X2727452Y2940557D01*
X2722118Y2930144D01*
X2711704Y2919729D01*
X2701290Y2914650D01*
X2680715Y2914650D01*
X2670302Y2919729D01*
X2659888Y2930144D01*
X2654554Y2940557D01*
X2620263Y3002787D02*
G01*
X2609850Y3008121D01*
X2594356Y3023615D01*
X2594356Y2914650D01*
X2560065Y3002787D02*
G01*
X2549652Y3008121D01*
X2534158Y3023615D01*
X2534158Y2914650D01*
X2468625Y3023615D02*
G01*
X2484120Y3018536D01*
X2494534Y3002787D01*
X2499868Y2976879D01*
X2499868Y2961386D01*
X2494534Y2935223D01*
X2484120Y2919729D01*
X2468625Y2914650D01*
X2458211Y2914650D01*
X2442718Y2919729D01*
X2432304Y2935223D01*
X2426970Y2961386D01*
X2426970Y2976879D01*
X2432304Y3002787D01*
X2442718Y3018536D01*
X2458211Y3023615D01*
X2468625Y3023615D01*
X2392679Y3002787D02*
G01*
X2382520Y3008121D01*
X2366772Y3023615D01*
X2366772Y2914650D01*
X3186684Y1577086D02*
G01*
X3186684Y1519936D01*
X3228340Y1551178D01*
X3228340Y1535429D01*
X3233420Y1525270D01*
X3238500Y1519936D01*
X3254247Y1514855D01*
X3264661Y1514855D01*
X3280156Y1519936D01*
X3290570Y1530350D01*
X3295650Y1545844D01*
X3295650Y1561592D01*
X3290570Y1577086D01*
X3285490Y1582420D01*
X3275075Y1587500D01*
X3186684Y1480565D02*
G01*
X3295650Y1438910D01*
X3186684Y1397254D02*
G01*
X3295650Y1438910D01*
X3186684Y1352550D02*
G01*
X3186684Y1295400D01*
X3228340Y1326642D01*
X3228340Y1311147D01*
X3233420Y1300734D01*
X3238500Y1295400D01*
X3254247Y1290320D01*
X3264661Y1290320D01*
X3280156Y1295400D01*
X3290570Y1305813D01*
X3295650Y1321562D01*
X3295650Y1337055D01*
X3290570Y1352550D01*
X3285490Y1357884D01*
X3275075Y1362963D01*
X2018791Y1496821D02*
G01*
X2008377Y1502155D01*
X1997963Y1512570D01*
X1992884Y1522729D01*
X1992884Y1543557D01*
X1997963Y1553971D01*
X2008377Y1564386D01*
X2018791Y1569720D01*
X2034540Y1574800D01*
X2060447Y1574800D01*
X2075941Y1569720D01*
X2086356Y1564386D01*
X2096770Y1553971D01*
X2101850Y1543557D01*
X2101850Y1522729D01*
X2096770Y1512570D01*
X2086356Y1502155D01*
X2075941Y1496821D01*
X2060447Y1496821D01*
X2060447Y1522729D02*
G01*
X2060447Y1496821D01*
X1992884Y1462531D02*
G01*
X2101850Y1462531D01*
X1992884Y1462531D02*
G01*
X2101850Y1389887D01*
X1992884Y1389887D02*
G01*
X2101850Y1389887D01*
X1992884Y1355597D02*
G01*
X2101850Y1355597D01*
X1992884Y1355597D02*
G01*
X1992884Y1319276D01*
X1997963Y1303528D01*
X2008377Y1293113D01*
X2018791Y1288034D01*
X2034540Y1282700D01*
X2060447Y1282700D01*
X2075941Y1288034D01*
X2086356Y1293113D01*
X2096770Y1303528D01*
X2101850Y1319276D01*
X2101850Y1355597D01*
M02*
