G04 Layer: BottomSolderMaskLayer*
G04 EasyEDA v6.5.40, 2024-05-09 08:25:39*
G04 18a0beea18964d5d8ca67f77cddb8664,df7e7e3c38a3447abd37b529b333d242,10*
G04 Gerber Generator version 0.2*
G04 Scale: 100 percent, Rotated: No, Reflected: No *
G04 Dimensions in millimeters *
G04 leading zeros omitted , absolute positions ,4 integer and 5 decimal *
%FSLAX45Y45*%
%MOMM*%

%AMMACRO1*1,1,$1,$2,$3*1,1,$1,$4,$5*1,1,$1,0-$2,0-$3*1,1,$1,0-$4,0-$5*20,1,$1,$2,$3,$4,$5,0*20,1,$1,$4,$5,0-$2,0-$3,0*20,1,$1,0-$2,0-$3,0-$4,0-$5,0*20,1,$1,0-$4,0-$5,$2,$3,0*4,1,4,$2,$3,$4,$5,0-$2,0-$3,0-$4,0-$5,$2,$3,0*%
%ADD10C,1.3616*%
%ADD11C,1.6256*%
%ADD12O,1.641602X2.1015960000000002*%
%ADD13C,1.6016*%
%ADD14C,1.8516*%
%ADD15MACRO1,0.1016X-1.27X1.27X1.27X1.27*%
%ADD16C,1.9532*%
%ADD17C,1.3132*%
%ADD18MACRO1,0.1016X-0.8255X0.8255X0.8255X0.8255*%
%ADD19C,1.7526*%
%ADD20C,1.8516*%

%LPD*%
D10*
G01*
X2273300Y5670600D03*
G01*
X2273300Y6470599D03*
G01*
X1567687Y6680200D03*
G01*
X1567687Y5486400D03*
G01*
X647700Y6223000D03*
G01*
X647700Y5892800D03*
D11*
G01*
X3022600Y4241800D03*
G01*
X2768600Y4241800D03*
G01*
X2514600Y4241800D03*
G01*
X2260600Y4241800D03*
G01*
X2260600Y4495800D03*
G01*
X2514600Y4495800D03*
G01*
X2768600Y4495800D03*
G01*
X3022600Y4495800D03*
D12*
G01*
X3441700Y5194300D03*
G01*
X3187700Y5194300D03*
G01*
X2679700Y5194300D03*
G01*
X2425700Y5194300D03*
G01*
X2933700Y5194300D03*
G01*
X2171700Y5194300D03*
G01*
X1917700Y5194300D03*
D13*
G01*
X1879600Y3581400D03*
G01*
X1879600Y3327400D03*
G01*
X1879600Y3073400D03*
G01*
X1879600Y2819400D03*
G01*
X1879600Y2565400D03*
G01*
X1879600Y2311400D03*
G01*
X1879600Y2057400D03*
D14*
G01*
X1879600Y1803400D03*
G01*
X1879600Y1549400D03*
D13*
G01*
X1879600Y1295400D03*
G01*
X1879600Y1041400D03*
G01*
X1879600Y787400D03*
G01*
X1879600Y533400D03*
G01*
X1879600Y279400D03*
G01*
X1879600Y25400D03*
G01*
X3403600Y25400D03*
G01*
X3403600Y279400D03*
G01*
X3403600Y533400D03*
G01*
X3403600Y787400D03*
G01*
X3403600Y1041400D03*
G01*
X3403600Y1295400D03*
G01*
X3403600Y1549400D03*
G01*
X3403600Y1803400D03*
G01*
X3403600Y2057400D03*
G01*
X3403600Y2311400D03*
G01*
X3403600Y2565400D03*
G01*
X3403600Y2819400D03*
G01*
X3403600Y3073400D03*
G01*
X3403600Y3327400D03*
G01*
X3403600Y3581400D03*
D15*
G01*
X3403600Y3835400D03*
G01*
X1879600Y3835400D03*
G01*
X1879600Y-228600D03*
G01*
X3403600Y-228600D03*
D16*
G01*
X4216400Y2108200D03*
G01*
X4216400Y2362200D03*
G01*
X4216400Y2616200D03*
G01*
X4216400Y2870200D03*
G01*
X4216400Y3124200D03*
G01*
X4216400Y3378200D03*
D17*
G01*
X927100Y1333500D03*
G01*
X927100Y1054100D03*
G01*
X927100Y749300D03*
D18*
G01*
X800100Y1765300D03*
D19*
G01*
X1054100Y1765300D03*
D20*
G01*
X4229100Y1295400D03*
G01*
X4229100Y1041400D03*
G01*
X4229100Y787400D03*
G01*
X4229100Y533400D03*
D10*
G01*
X2006600Y1181988D03*
G01*
X2260600Y1181988D03*
G01*
X2514600Y1181988D03*
G01*
X2768600Y1181988D03*
G01*
X3022600Y1181988D03*
G01*
X3276600Y1181988D03*
D13*
G01*
X2921000Y6451600D03*
G01*
X3937000Y6451600D03*
G01*
X3937000Y5816600D03*
G01*
X2921000Y5816600D03*
D11*
G01*
X4165600Y3886200D03*
G01*
X4165600Y4648200D03*
M02*
