G04 Layer: TopLayer*
G04 EasyEDA v6.5.40, 2024-05-09 08:25:39*
G04 18a0beea18964d5d8ca67f77cddb8664,df7e7e3c38a3447abd37b529b333d242,10*
G04 Gerber Generator version 0.2*
G04 Scale: 100 percent, Rotated: No, Reflected: No *
G04 Dimensions in millimeters *
G04 leading zeros omitted , absolute positions ,4 integer and 5 decimal *
%FSLAX45Y45*%
%MOMM*%

%ADD10C,0.2540*%
%ADD11C,1.2600*%
%ADD12C,1.5240*%
%ADD13O,1.5400019999999999X1.9999959999999999*%
%ADD14C,1.5000*%
%ADD15C,1.7500*%
%ADD16R,2.5400X2.5400*%
%ADD17C,1.2116*%
%ADD18R,1.6510X1.6510*%
%ADD19C,1.6510*%
%ADD20C,1.7500*%

%LPD*%
D10*
X4229100Y1295400D02*
G01*
X4241800Y1295400D01*
X4381500Y1435100D01*
X4381500Y3429000D01*
X4292600Y3517900D01*
X4076700Y3517900D01*
X3606800Y3048000D01*
X3606800Y2387600D01*
X3530600Y2311400D01*
X3403600Y2311400D01*
X4229100Y1041400D02*
G01*
X4483100Y1295400D01*
X4483100Y3429000D01*
X4330700Y3581400D01*
X4051300Y3581400D01*
X3556000Y3086100D01*
X3556000Y2628900D01*
X3492500Y2565400D01*
X3403600Y2565400D01*
X4216400Y2108200D02*
G01*
X4152900Y2108200D01*
X4000500Y1955800D01*
X4000500Y1397000D01*
X3644900Y1041400D01*
X3403600Y1041400D01*
X4216400Y2362200D02*
G01*
X4114800Y2362200D01*
X3924300Y2171700D01*
X3924300Y1524000D01*
X3695700Y1295400D01*
X3403600Y1295400D01*
X4216400Y2616200D02*
G01*
X3822700Y2222500D01*
X3822700Y1701800D01*
X3670300Y1549400D01*
X3403600Y1549400D01*
X4216400Y2870200D02*
G01*
X4064000Y2870200D01*
X3746500Y2552700D01*
X3746500Y1993900D01*
X3568700Y1816100D01*
X3416300Y1816100D01*
X3403600Y1803400D01*
X4216400Y3124200D02*
G01*
X3657600Y2565400D01*
X3657600Y2171700D01*
X3543300Y2057400D01*
X3403600Y2057400D01*
X3403600Y279400D02*
G01*
X3721100Y279400D01*
X4229100Y787400D01*
X4165600Y3886200D02*
G01*
X4165600Y3784600D01*
X3962400Y3581400D01*
X3403600Y3581400D01*
X1854200Y1841500D02*
G01*
X1892300Y1841500D01*
X3937000Y5816600D02*
G01*
X3937000Y6451600D01*
X2273300Y6470599D02*
G01*
X2292299Y6451600D01*
X2921000Y6451600D01*
X1879600Y1803400D02*
G01*
X1727200Y1803400D01*
X1346200Y2184400D01*
X1346200Y5067300D01*
X1714500Y5435600D01*
X3200400Y5435600D01*
X3441700Y5194300D01*
X2260600Y4495800D02*
G01*
X2120900Y4356100D01*
X2120900Y1320800D01*
X2260600Y1181862D01*
X2514600Y4495800D02*
G01*
X2374900Y4356100D01*
X2374900Y1346200D01*
X2514600Y1206500D01*
X2514600Y1181988D01*
X2768600Y4495800D02*
G01*
X2895600Y4368800D01*
X2895600Y4140200D01*
X2832100Y4076700D01*
X2832100Y1320800D01*
X2895600Y1257300D01*
X2895600Y977900D01*
X3086100Y787400D01*
X3403600Y787400D01*
X4229100Y787400D02*
G01*
X4114800Y901700D01*
X3327400Y901700D01*
X3276600Y952500D01*
X3276600Y1181988D01*
X2768600Y1181988D02*
G01*
X2768600Y457200D01*
X2590800Y279400D01*
X1879600Y279400D01*
X927100Y749300D02*
G01*
X1587500Y749300D01*
X1879600Y1041400D01*
X927100Y1054100D02*
G01*
X812800Y939800D01*
X812800Y-317500D01*
X1117600Y-622300D01*
X3873500Y-622300D01*
X4457700Y-38100D01*
X4457700Y546100D01*
X4229100Y774700D01*
X4229100Y787400D01*
X3937000Y5816600D02*
G01*
X4356100Y5397500D01*
X4356100Y4508500D01*
X3911600Y4064000D01*
X3327400Y4064000D01*
X2971800Y3708400D01*
X2971800Y2590800D01*
X3251200Y2311400D01*
X3403600Y2311400D01*
X2273300Y5670600D02*
G01*
X2419299Y5816600D01*
X2921000Y5816600D01*
X3276600Y1181988D02*
G01*
X2895600Y1562988D01*
X2895600Y4064000D01*
X3022600Y4191000D01*
X3022600Y4241800D01*
X2768600Y1181862D02*
G01*
X2768600Y3632200D01*
X2514600Y3886200D01*
X2514600Y4241800D01*
X1467688Y5486400D02*
G01*
X3975100Y5486400D01*
X4178300Y5283200D01*
X4178300Y4660900D01*
X4165600Y4648200D01*
X2425700Y5194300D02*
G01*
X2286000Y5334000D01*
X1866900Y5334000D01*
X1473200Y4940300D01*
X1473200Y2717800D01*
X1625600Y2565400D01*
X1879600Y2565400D01*
X2679700Y5194300D02*
G01*
X2489200Y5384800D01*
X1828800Y5384800D01*
X1409700Y4965700D01*
X1409700Y2324100D01*
X1676400Y2057400D01*
X1879600Y2057400D01*
X800100Y1765300D02*
G01*
X1016000Y1549400D01*
X1879600Y1549400D01*
X1879600Y1295400D02*
G01*
X2057400Y1473200D01*
X2057400Y4546600D01*
X2222500Y4711700D01*
X2476500Y4711700D01*
X2628900Y4559300D01*
X2628900Y4292600D01*
X2679700Y4241800D01*
X2768600Y4241800D01*
X2171700Y5194300D02*
G01*
X2692400Y4673600D01*
X3048000Y4673600D01*
X3149600Y4572000D01*
X3149600Y4305300D01*
X3086100Y4241800D01*
X3022600Y4241800D01*
D11*
G01*
X2273300Y5670600D03*
G01*
X2273300Y6470599D03*
G01*
X1567687Y6680200D03*
G01*
X1567687Y5486400D03*
G01*
X647700Y6223000D03*
G01*
X647700Y5892800D03*
D12*
G01*
X3022600Y4241800D03*
G01*
X2768600Y4241800D03*
G01*
X2514600Y4241800D03*
G01*
X2260600Y4241800D03*
G01*
X2260600Y4495800D03*
G01*
X2514600Y4495800D03*
G01*
X2768600Y4495800D03*
G01*
X3022600Y4495800D03*
D13*
G01*
X3441700Y5194300D03*
G01*
X3187700Y5194300D03*
G01*
X2679700Y5194300D03*
G01*
X2425700Y5194300D03*
G01*
X2933700Y5194300D03*
G01*
X2171700Y5194300D03*
G01*
X1917700Y5194300D03*
D14*
G01*
X1879600Y3581400D03*
G01*
X1879600Y3327400D03*
G01*
X1879600Y3073400D03*
G01*
X1879600Y2819400D03*
G01*
X1879600Y2565400D03*
G01*
X1879600Y2311400D03*
G01*
X1879600Y2057400D03*
D15*
G01*
X1879600Y1803400D03*
G01*
X1879600Y1549400D03*
D14*
G01*
X1879600Y1295400D03*
G01*
X1879600Y1041400D03*
G01*
X1879600Y787400D03*
G01*
X1879600Y533400D03*
G01*
X1879600Y279400D03*
G01*
X1879600Y25400D03*
G01*
X3403600Y25400D03*
G01*
X3403600Y279400D03*
G01*
X3403600Y533400D03*
G01*
X3403600Y787400D03*
G01*
X3403600Y1041400D03*
G01*
X3403600Y1295400D03*
G01*
X3403600Y1549400D03*
G01*
X3403600Y1803400D03*
G01*
X3403600Y2057400D03*
G01*
X3403600Y2311400D03*
G01*
X3403600Y2565400D03*
G01*
X3403600Y2819400D03*
G01*
X3403600Y3073400D03*
G01*
X3403600Y3327400D03*
G01*
X3403600Y3581400D03*
D16*
G01*
X3403600Y3835400D03*
G01*
X1879600Y3835400D03*
G01*
X1879600Y-228600D03*
G01*
X3403600Y-228600D03*
D15*
G01*
X4216400Y2108200D03*
G01*
X4216400Y2362200D03*
G01*
X4216400Y2616200D03*
G01*
X4216400Y2870200D03*
G01*
X4216400Y3124200D03*
G01*
X4216400Y3378200D03*
D17*
G01*
X927100Y1333500D03*
G01*
X927100Y1054100D03*
G01*
X927100Y749300D03*
D18*
G01*
X800100Y1765300D03*
D19*
G01*
X1054100Y1765300D03*
D20*
G01*
X4229100Y1295400D03*
G01*
X4229100Y1041400D03*
G01*
X4229100Y787400D03*
G01*
X4229100Y533400D03*
D11*
G01*
X2006600Y1181988D03*
G01*
X2260600Y1181988D03*
G01*
X2514600Y1181988D03*
G01*
X2768600Y1181988D03*
G01*
X3022600Y1181988D03*
G01*
X3276600Y1181988D03*
D14*
G01*
X2921000Y6451600D03*
G01*
X3937000Y6451600D03*
G01*
X3937000Y5816600D03*
G01*
X2921000Y5816600D03*
D12*
G01*
X4165600Y3886200D03*
G01*
X4165600Y4648200D03*
M02*
