M48
METRIC,LZ,000.000
;FILE_FORMAT=3:3
;TYPE=PLATED
;Layer: PTH_Through
;EasyEDA v6.5.40, 2024-04-09 13:00:43
;4b3d86a6f5cb4bb8bf6c6708de4b4b48,df7e7e3c38a3447abd37b529b333d242,10
;Gerber Generator version 0.2
;Holesize 1 = 0.501 mm
T01C0.501
;Holesize 2 = 0.600 mm
T02C0.600
;Holesize 3 = 0.813 mm
T03C0.813
;Holesize 4 = 0.840 mm
T04C0.840
;Holesize 5 = 0.889 mm
T05C0.889
;Holesize 6 = 0.901 mm
T06C0.901
;Holesize 7 = 0.915 mm
T07C0.915
;Holesize 8 = 1.000 mm
T08C1.000
%
G05
G90
T01
X027556Y097917G85X027562Y097917
X037716Y097917G85X037722Y097917
X037849Y092964G85X037843Y092964
X027689Y092964G85X027683Y092964
T02
X044450Y059944
X044450Y057404
X044450Y054864
X044450Y052324
X044450Y049784
X044450Y047244
T03
X041529Y015240
X044323Y015240
X047371Y015240
T04
X023241Y089472
X023241Y097472
X016185Y099568
X016185Y087630
X006985Y094996
X006985Y091694
X021590Y029346
X024130Y029346
X026670Y029346
X029210Y029346
X031750Y029346
X034290Y029346
T05
X010922Y013970
X010922Y016510
T06
X045466Y088516G85X045466Y088522
X045466Y091056G85X045466Y091062
X045466Y093598G85X045466Y093600
X045466Y096136G85X045466Y096142
T07
X024638Y049149
X027178Y049149
X029718Y049149
X032258Y049149
X032258Y051689
X029718Y051689
X027178Y051689
X024638Y051689
X019304Y082550
X021844Y082550
X026924Y082550
X029464Y082550
X024384Y082550
X032004Y082550
X034544Y082550
X010414Y049530
X010414Y057150
T08
X016501Y072451
X016501Y069911
X016501Y067371
X016501Y064831
X016501Y062291
X016501Y059751
X016501Y057211
X016501Y054671
X016501Y052131
X016501Y049591
X016501Y047051
X016501Y044511
X016501Y041971
X016501Y039431
X016501Y036891
X016501Y034351
X016501Y031811
X016501Y029271
X016501Y026731
X016501Y024191
X016501Y021651
X016501Y019111
X039501Y019111
X039501Y021651
X039501Y024191
X039501Y026731
X039501Y029271
X039501Y031811
X039501Y034351
X039501Y036891
X039501Y039431
X039501Y041971
X039501Y044511
X039501Y047051
X039501Y049591
X039501Y052131
X039501Y054671
X039501Y057211
X039501Y059751
X039501Y062291
X039501Y064831
X039501Y067371
X039501Y069911
X039501Y072451
M30
