G04 Layer: BottomLayer*
G04 EasyEDA v6.5.40, 2024-04-09 13:00:43*
G04 4b3d86a6f5cb4bb8bf6c6708de4b4b48,df7e7e3c38a3447abd37b529b333d242,10*
G04 Gerber Generator version 0.2*
G04 Scale: 100 percent, Rotated: No, Reflected: No *
G04 Dimensions in millimeters *
G04 leading zeros omitted , absolute positions ,4 integer and 5 decimal *
%FSLAX45Y45*%
%MOMM*%

%ADD10C,0.2540*%
%ADD11C,1.5240*%
%ADD12O,1.5400019999999999X1.9999959999999999*%
%ADD13C,1.5000*%
%ADD14C,1.6510*%
%ADD15C,2.0000*%
%ADD16C,1.2116*%
%ADD17C,1.2600*%
%ADD18C,1.7500*%
%ADD19C,0.0114*%

%LPD*%
G36*
X619760Y1168400D02*
G01*
X615848Y1169162D01*
X612597Y1171397D01*
X610362Y1174648D01*
X609600Y1178560D01*
X609600Y9109710D01*
X610463Y9113824D01*
X612902Y9117228D01*
X616559Y9119311D01*
X620725Y9119819D01*
X624738Y9118549D01*
X627888Y9115755D01*
X631342Y9111183D01*
X640283Y9102242D01*
X650443Y9094622D01*
X661568Y9088526D01*
X673455Y9084106D01*
X685850Y9081414D01*
X698500Y9080500D01*
X711149Y9081414D01*
X723544Y9084106D01*
X735431Y9088526D01*
X746556Y9094622D01*
X756716Y9102242D01*
X765657Y9111183D01*
X773277Y9121343D01*
X779322Y9132468D01*
X783793Y9144355D01*
X786485Y9156750D01*
X787400Y9169400D01*
X786485Y9182049D01*
X783793Y9194444D01*
X779322Y9206331D01*
X773277Y9217456D01*
X765657Y9227616D01*
X756716Y9236557D01*
X746556Y9244177D01*
X735431Y9250273D01*
X723544Y9254693D01*
X711149Y9257385D01*
X698500Y9258300D01*
X685850Y9257385D01*
X673455Y9254693D01*
X661568Y9250273D01*
X650443Y9244177D01*
X640283Y9236557D01*
X631342Y9227616D01*
X627888Y9223044D01*
X624738Y9220250D01*
X620725Y9218980D01*
X616559Y9219488D01*
X612902Y9221571D01*
X610463Y9224975D01*
X609600Y9229090D01*
X609600Y9439910D01*
X610463Y9444024D01*
X612902Y9447428D01*
X616559Y9449511D01*
X620725Y9450019D01*
X624738Y9448749D01*
X627888Y9445955D01*
X631342Y9441383D01*
X640283Y9432442D01*
X650443Y9424822D01*
X661568Y9418726D01*
X673455Y9414306D01*
X685850Y9411614D01*
X698500Y9410700D01*
X711149Y9411614D01*
X723544Y9414306D01*
X735431Y9418726D01*
X746556Y9424822D01*
X756716Y9432442D01*
X765657Y9441383D01*
X773277Y9451543D01*
X779322Y9462668D01*
X783793Y9474555D01*
X786485Y9486950D01*
X787400Y9499600D01*
X786485Y9512249D01*
X783793Y9524644D01*
X779322Y9536531D01*
X773277Y9547656D01*
X765657Y9557816D01*
X756716Y9566757D01*
X746556Y9574377D01*
X735431Y9580473D01*
X723544Y9584893D01*
X711149Y9587585D01*
X698500Y9588500D01*
X685850Y9587585D01*
X673455Y9584893D01*
X661568Y9580473D01*
X650443Y9574377D01*
X640283Y9566757D01*
X631342Y9557816D01*
X627888Y9553244D01*
X624738Y9550450D01*
X620725Y9549180D01*
X616559Y9549688D01*
X612902Y9551771D01*
X610463Y9555175D01*
X609600Y9559290D01*
X609600Y10035540D01*
X610362Y10039451D01*
X612597Y10042702D01*
X615848Y10044938D01*
X619760Y10045700D01*
X1558798Y10045700D01*
X1562912Y10044836D01*
X1566316Y10042398D01*
X1568450Y10038740D01*
X1568907Y10034574D01*
X1567637Y10030561D01*
X1564894Y10027412D01*
X1560271Y10023957D01*
X1551330Y10015016D01*
X1543710Y10004856D01*
X1538173Y9994646D01*
X1580642Y9994646D01*
X1580642Y10035540D01*
X1581404Y10039451D01*
X1583639Y10042702D01*
X1586941Y10044938D01*
X1590802Y10045700D01*
X1646174Y10045700D01*
X1650085Y10044938D01*
X1653387Y10042702D01*
X1655572Y10039451D01*
X1656334Y10035540D01*
X1656334Y9994646D01*
X1698853Y9994646D01*
X1693265Y10004856D01*
X1685645Y10015016D01*
X1676704Y10023957D01*
X1672132Y10027412D01*
X1669338Y10030561D01*
X1668068Y10034574D01*
X1668576Y10038740D01*
X1670710Y10042398D01*
X1674114Y10044836D01*
X1678228Y10045700D01*
X4968240Y10045700D01*
X4972151Y10044938D01*
X4975402Y10042702D01*
X4977638Y10039451D01*
X4978400Y10035540D01*
X4978400Y1185316D01*
X4977638Y1181404D01*
X4975402Y1178102D01*
X4968697Y1171397D01*
X4965395Y1169162D01*
X4961483Y1168400D01*
G37*

%LPC*%
G36*
X1085443Y1296314D02*
G01*
X1098956Y1296314D01*
X1112316Y1298143D01*
X1125270Y1301699D01*
X1137716Y1306931D01*
X1149299Y1313840D01*
X1159865Y1322171D01*
X1169263Y1331874D01*
X1177239Y1342694D01*
X1183690Y1354531D01*
X1188567Y1367129D01*
X1191666Y1380236D01*
X1193038Y1393647D01*
X1192580Y1407109D01*
X1190345Y1420368D01*
X1186332Y1433271D01*
X1180693Y1445463D01*
X1173429Y1456842D01*
X1164742Y1467154D01*
X1154734Y1476197D01*
X1143609Y1483817D01*
X1131570Y1489862D01*
X1118870Y1494282D01*
X1105662Y1496974D01*
X1092200Y1497888D01*
X1078738Y1496974D01*
X1065530Y1494282D01*
X1052830Y1489862D01*
X1040790Y1483817D01*
X1029665Y1476197D01*
X1019657Y1467154D01*
X1010970Y1456842D01*
X1003706Y1445463D01*
X998067Y1433271D01*
X994054Y1420368D01*
X991819Y1407109D01*
X991362Y1393647D01*
X992733Y1380236D01*
X995832Y1367129D01*
X1000709Y1354531D01*
X1007160Y1342694D01*
X1015136Y1331874D01*
X1024534Y1322171D01*
X1035100Y1313840D01*
X1046683Y1306931D01*
X1059129Y1301699D01*
X1072083Y1298143D01*
G37*
G36*
X4425543Y1423365D02*
G01*
X4439056Y1423365D01*
X4452416Y1425143D01*
X4465370Y1428699D01*
X4477816Y1433982D01*
X4489399Y1440840D01*
X4499965Y1449171D01*
X4509363Y1458874D01*
X4517339Y1469694D01*
X4523790Y1481531D01*
X4528667Y1494129D01*
X4531766Y1507236D01*
X4533138Y1520647D01*
X4532680Y1534109D01*
X4530445Y1547368D01*
X4526432Y1560271D01*
X4520793Y1572463D01*
X4513529Y1583842D01*
X4504842Y1594154D01*
X4494834Y1603197D01*
X4483709Y1610817D01*
X4471670Y1616862D01*
X4458970Y1621282D01*
X4445762Y1623974D01*
X4432300Y1624888D01*
X4418838Y1623974D01*
X4405630Y1621282D01*
X4392930Y1616862D01*
X4380890Y1610817D01*
X4369765Y1603197D01*
X4359757Y1594154D01*
X4351070Y1583842D01*
X4343806Y1572463D01*
X4338167Y1560271D01*
X4334154Y1547368D01*
X4331919Y1534109D01*
X4331462Y1520647D01*
X4332833Y1507236D01*
X4335932Y1494129D01*
X4340809Y1481531D01*
X4347260Y1469694D01*
X4355236Y1458874D01*
X4364634Y1449171D01*
X4375200Y1440840D01*
X4386783Y1433982D01*
X4399229Y1428699D01*
X4412183Y1425143D01*
G37*
G36*
X4196740Y1433271D02*
G01*
X4198416Y1433982D01*
X4209999Y1440840D01*
X4220565Y1449171D01*
X4229963Y1458874D01*
X4237939Y1469694D01*
X4243628Y1480159D01*
X4196740Y1480159D01*
G37*
G36*
X4109059Y1433271D02*
G01*
X4109059Y1480159D01*
X4062171Y1480159D01*
X4067860Y1469694D01*
X4075836Y1458874D01*
X4085234Y1449171D01*
X4095800Y1440840D01*
X4107383Y1433982D01*
G37*
G36*
X4737100Y1437538D02*
G01*
X4749393Y1438402D01*
X4761484Y1441043D01*
X4773015Y1445361D01*
X4783836Y1451254D01*
X4793742Y1458671D01*
X4802428Y1467358D01*
X4809845Y1477264D01*
X4815738Y1488084D01*
X4820056Y1499616D01*
X4822698Y1511706D01*
X4823561Y1524000D01*
X4822698Y1536293D01*
X4820056Y1548384D01*
X4815738Y1559915D01*
X4809845Y1570736D01*
X4802428Y1580642D01*
X4793742Y1589328D01*
X4783836Y1596745D01*
X4773015Y1602638D01*
X4761484Y1606956D01*
X4749393Y1609598D01*
X4737100Y1610461D01*
X4724806Y1609598D01*
X4712716Y1606956D01*
X4701184Y1602638D01*
X4690364Y1596745D01*
X4680458Y1589328D01*
X4671771Y1580642D01*
X4664354Y1570736D01*
X4658461Y1559915D01*
X4654143Y1548384D01*
X4651502Y1536293D01*
X4650638Y1524000D01*
X4651502Y1511706D01*
X4654143Y1499616D01*
X4658461Y1488084D01*
X4664354Y1477264D01*
X4671771Y1467358D01*
X4680458Y1458671D01*
X4690364Y1451254D01*
X4701184Y1445361D01*
X4712716Y1441043D01*
X4724806Y1438402D01*
G37*
G36*
X1139850Y1553819D02*
G01*
X1146403Y1557070D01*
X1158189Y1564944D01*
X1168857Y1574342D01*
X1178204Y1585010D01*
X1186129Y1596796D01*
X1189380Y1603349D01*
X1139850Y1603349D01*
G37*
G36*
X1044600Y1553819D02*
G01*
X1044600Y1603349D01*
X995019Y1603349D01*
X998270Y1596796D01*
X1006195Y1585010D01*
X1015542Y1574342D01*
X1026210Y1564944D01*
X1037996Y1557070D01*
G37*
G36*
X4196740Y1567840D02*
G01*
X4243527Y1567840D01*
X4241393Y1572463D01*
X4234129Y1583842D01*
X4225442Y1594154D01*
X4215434Y1603197D01*
X4204309Y1610817D01*
X4196740Y1614627D01*
G37*
G36*
X4062272Y1567840D02*
G01*
X4109059Y1567840D01*
X4109059Y1614627D01*
X4101490Y1610817D01*
X4090365Y1603197D01*
X4080357Y1594154D01*
X4071670Y1583842D01*
X4064406Y1572463D01*
G37*
G36*
X995019Y1698599D02*
G01*
X1044600Y1698599D01*
X1044600Y1748180D01*
X1037996Y1744929D01*
X1026210Y1737004D01*
X1015542Y1727657D01*
X1006195Y1716989D01*
X998270Y1705203D01*
G37*
G36*
X1139850Y1698599D02*
G01*
X1189380Y1698599D01*
X1186129Y1705203D01*
X1178204Y1716989D01*
X1168857Y1727657D01*
X1158189Y1737004D01*
X1146403Y1744929D01*
X1139850Y1748180D01*
G37*
G36*
X4006443Y1798675D02*
G01*
X4008577Y1799640D01*
X4021582Y1807514D01*
X4033570Y1816862D01*
X4044340Y1827631D01*
X4053687Y1839620D01*
X4061561Y1852625D01*
X4062526Y1854758D01*
X4006443Y1854758D01*
G37*
G36*
X3893718Y1798675D02*
G01*
X3893718Y1854758D01*
X3837635Y1854758D01*
X3838600Y1852625D01*
X3846474Y1839620D01*
X3855872Y1827631D01*
X3866591Y1816862D01*
X3878579Y1807514D01*
X3891584Y1799640D01*
G37*
G36*
X1706473Y1798675D02*
G01*
X1708607Y1799640D01*
X1721612Y1807514D01*
X1733600Y1816862D01*
X1744319Y1827631D01*
X1753717Y1839569D01*
X1761591Y1852625D01*
X1762556Y1854758D01*
X1706473Y1854758D01*
G37*
G36*
X1593748Y1798675D02*
G01*
X1593748Y1854758D01*
X1537665Y1854758D01*
X1538630Y1852625D01*
X1546504Y1839569D01*
X1555851Y1827631D01*
X1566621Y1816862D01*
X1578610Y1807514D01*
X1591614Y1799640D01*
G37*
G36*
X3837635Y1967433D02*
G01*
X3893718Y1967433D01*
X3893718Y2023567D01*
X3891584Y2022602D01*
X3878579Y2014728D01*
X3866591Y2005330D01*
X3855872Y1994611D01*
X3846474Y1982622D01*
X3838600Y1969617D01*
G37*
G36*
X1706473Y1967433D02*
G01*
X1762556Y1967433D01*
X1761591Y1969617D01*
X1753717Y1982622D01*
X1744319Y1994611D01*
X1733600Y2005330D01*
X1721612Y2014728D01*
X1708607Y2022551D01*
X1706473Y2023567D01*
G37*
G36*
X1537665Y1967433D02*
G01*
X1593748Y1967433D01*
X1593748Y2023567D01*
X1591614Y2022551D01*
X1578610Y2014728D01*
X1566621Y2005330D01*
X1555851Y1994611D01*
X1546504Y1982622D01*
X1538630Y1969617D01*
G37*
G36*
X4006443Y1967433D02*
G01*
X4062526Y1967433D01*
X4061561Y1969617D01*
X4053687Y1982622D01*
X4044340Y1994611D01*
X4033570Y2005330D01*
X4021582Y2014728D01*
X4008577Y2022602D01*
X4006443Y2023567D01*
G37*
G36*
X3950106Y2039213D02*
G01*
X3965244Y2040128D01*
X3980230Y2042871D01*
X3994658Y2047392D01*
X4008577Y2053640D01*
X4021582Y2061514D01*
X4033570Y2070862D01*
X4044340Y2081631D01*
X4053687Y2093620D01*
X4061561Y2106625D01*
X4067810Y2120442D01*
X4072331Y2134971D01*
X4075074Y2149957D01*
X4075988Y2165096D01*
X4075074Y2180285D01*
X4072331Y2195220D01*
X4067810Y2209749D01*
X4061561Y2223617D01*
X4053687Y2236622D01*
X4044340Y2248611D01*
X4033570Y2259330D01*
X4021582Y2268728D01*
X4008577Y2276602D01*
X3994658Y2282850D01*
X3991508Y2285085D01*
X3989425Y2288336D01*
X3988663Y2292096D01*
X3989425Y2295906D01*
X3991508Y2299157D01*
X3994658Y2301392D01*
X4008577Y2307640D01*
X4021582Y2315514D01*
X4033570Y2324862D01*
X4044340Y2335631D01*
X4053687Y2347620D01*
X4061561Y2360625D01*
X4067810Y2374442D01*
X4072331Y2388971D01*
X4075074Y2403957D01*
X4075988Y2419096D01*
X4075074Y2434285D01*
X4072331Y2449220D01*
X4067810Y2463749D01*
X4061561Y2477617D01*
X4053687Y2490622D01*
X4044340Y2502611D01*
X4033570Y2513330D01*
X4021582Y2522728D01*
X4008577Y2530602D01*
X3994658Y2536850D01*
X3991508Y2539085D01*
X3989425Y2542336D01*
X3988663Y2546096D01*
X3989425Y2549906D01*
X3991508Y2553157D01*
X3994658Y2555392D01*
X4008577Y2561640D01*
X4021582Y2569514D01*
X4033570Y2578862D01*
X4044340Y2589631D01*
X4053687Y2601620D01*
X4061561Y2614625D01*
X4067810Y2628442D01*
X4072331Y2642971D01*
X4075074Y2657957D01*
X4075988Y2673096D01*
X4075074Y2688285D01*
X4072331Y2703220D01*
X4067810Y2717749D01*
X4061561Y2731617D01*
X4053687Y2744622D01*
X4044340Y2756611D01*
X4033570Y2767330D01*
X4021582Y2776728D01*
X4008577Y2784602D01*
X3994658Y2790850D01*
X3991508Y2793085D01*
X3989425Y2796336D01*
X3988663Y2800096D01*
X3989425Y2803906D01*
X3991508Y2807157D01*
X3994658Y2809392D01*
X4008577Y2815640D01*
X4021582Y2823514D01*
X4033570Y2832862D01*
X4044340Y2843631D01*
X4053687Y2855569D01*
X4061561Y2868625D01*
X4067810Y2882442D01*
X4072331Y2896971D01*
X4075074Y2911906D01*
X4075988Y2927096D01*
X4075074Y2942285D01*
X4072331Y2957220D01*
X4067810Y2971749D01*
X4061561Y2985617D01*
X4053687Y2998622D01*
X4044340Y3010611D01*
X4033570Y3021330D01*
X4021582Y3030728D01*
X4008577Y3038551D01*
X3994658Y3044850D01*
X3991508Y3047085D01*
X3989425Y3050336D01*
X3988663Y3054096D01*
X3989425Y3057906D01*
X3991508Y3061157D01*
X3994658Y3063392D01*
X4008577Y3069640D01*
X4021582Y3077514D01*
X4033570Y3086862D01*
X4044340Y3097631D01*
X4053687Y3109569D01*
X4061561Y3122625D01*
X4067810Y3136442D01*
X4072331Y3150971D01*
X4075074Y3165906D01*
X4075988Y3181096D01*
X4075074Y3196285D01*
X4072331Y3211220D01*
X4067810Y3225749D01*
X4061561Y3239617D01*
X4053687Y3252622D01*
X4044340Y3264611D01*
X4033570Y3275329D01*
X4021582Y3284728D01*
X4008577Y3292551D01*
X3994658Y3298850D01*
X3991508Y3301085D01*
X3989425Y3304336D01*
X3988663Y3308096D01*
X3989425Y3311906D01*
X3991508Y3315157D01*
X3994658Y3317392D01*
X4008577Y3323640D01*
X4021582Y3331514D01*
X4033570Y3340862D01*
X4044340Y3351631D01*
X4053687Y3363569D01*
X4061561Y3376625D01*
X4067810Y3390442D01*
X4072331Y3404971D01*
X4075074Y3419906D01*
X4075988Y3435096D01*
X4075074Y3450285D01*
X4072331Y3465220D01*
X4067810Y3479749D01*
X4061561Y3493617D01*
X4053687Y3506622D01*
X4044340Y3518611D01*
X4033570Y3529329D01*
X4021582Y3538728D01*
X4008577Y3546551D01*
X3994658Y3552850D01*
X3991508Y3555085D01*
X3989425Y3558336D01*
X3988663Y3562096D01*
X3989425Y3565906D01*
X3991508Y3569157D01*
X3994658Y3571392D01*
X4008577Y3577640D01*
X4021582Y3585514D01*
X4033570Y3594862D01*
X4044340Y3605631D01*
X4053687Y3617569D01*
X4061561Y3630625D01*
X4067810Y3644442D01*
X4072331Y3658971D01*
X4075074Y3673906D01*
X4075988Y3689096D01*
X4075074Y3704285D01*
X4072331Y3719220D01*
X4067810Y3733749D01*
X4061561Y3747617D01*
X4053687Y3760622D01*
X4044340Y3772560D01*
X4033570Y3783329D01*
X4021582Y3792728D01*
X4008577Y3800551D01*
X3994658Y3806850D01*
X3991508Y3809085D01*
X3989425Y3812336D01*
X3988663Y3816096D01*
X3989425Y3819906D01*
X3991508Y3823157D01*
X3994658Y3825392D01*
X4008577Y3831640D01*
X4021582Y3839514D01*
X4033570Y3848862D01*
X4044340Y3859631D01*
X4053687Y3871569D01*
X4061561Y3884625D01*
X4067810Y3898442D01*
X4072331Y3912971D01*
X4075074Y3927906D01*
X4075988Y3943096D01*
X4075074Y3958285D01*
X4072331Y3973220D01*
X4067810Y3987749D01*
X4061561Y4001617D01*
X4053687Y4014622D01*
X4044340Y4026611D01*
X4033570Y4037329D01*
X4021582Y4046728D01*
X4008577Y4054551D01*
X3994658Y4060850D01*
X3991508Y4063085D01*
X3989425Y4066336D01*
X3988663Y4070096D01*
X3989425Y4073906D01*
X3991508Y4077157D01*
X3994658Y4079392D01*
X4008577Y4085640D01*
X4021582Y4093514D01*
X4033570Y4102862D01*
X4044340Y4113631D01*
X4053687Y4125569D01*
X4061561Y4138625D01*
X4067810Y4152442D01*
X4072331Y4166971D01*
X4075074Y4181906D01*
X4075988Y4197096D01*
X4075074Y4212285D01*
X4072331Y4227220D01*
X4067810Y4241749D01*
X4061561Y4255617D01*
X4053687Y4268622D01*
X4044340Y4280560D01*
X4033570Y4291330D01*
X4021582Y4300728D01*
X4008577Y4308551D01*
X3994658Y4314850D01*
X3991508Y4317085D01*
X3989425Y4320286D01*
X3988663Y4324096D01*
X3989425Y4327906D01*
X3991508Y4331157D01*
X3994658Y4333392D01*
X4008577Y4339640D01*
X4021582Y4347514D01*
X4033570Y4356862D01*
X4044340Y4367631D01*
X4053687Y4379569D01*
X4061561Y4392625D01*
X4067810Y4406442D01*
X4072331Y4420971D01*
X4075074Y4435906D01*
X4075988Y4451096D01*
X4075074Y4466285D01*
X4072331Y4481220D01*
X4067810Y4495749D01*
X4061561Y4509617D01*
X4053687Y4522622D01*
X4044340Y4534560D01*
X4033570Y4545330D01*
X4021582Y4554728D01*
X4008577Y4562551D01*
X3994658Y4568850D01*
X3991508Y4571085D01*
X3989425Y4574286D01*
X3988663Y4578096D01*
X3989425Y4581906D01*
X3991508Y4585157D01*
X3994658Y4587392D01*
X4008577Y4593640D01*
X4021582Y4601514D01*
X4033570Y4610862D01*
X4044340Y4621631D01*
X4053687Y4633569D01*
X4061561Y4646625D01*
X4067810Y4660442D01*
X4072331Y4674971D01*
X4075074Y4689906D01*
X4075988Y4705096D01*
X4075074Y4720285D01*
X4072331Y4735220D01*
X4067810Y4749749D01*
X4061561Y4763617D01*
X4053687Y4776622D01*
X4044340Y4788560D01*
X4033570Y4799330D01*
X4021582Y4808728D01*
X4008577Y4816551D01*
X3994658Y4822850D01*
X3991508Y4825085D01*
X3989425Y4828286D01*
X3988663Y4832096D01*
X3989425Y4835906D01*
X3991508Y4839157D01*
X3994658Y4841392D01*
X4008577Y4847640D01*
X4021582Y4855514D01*
X4033570Y4864862D01*
X4044340Y4875631D01*
X4053687Y4887569D01*
X4061561Y4900574D01*
X4067810Y4914442D01*
X4072331Y4928971D01*
X4075074Y4943906D01*
X4075988Y4959096D01*
X4075074Y4974285D01*
X4072331Y4989220D01*
X4067810Y5003749D01*
X4061561Y5017617D01*
X4053687Y5030622D01*
X4044340Y5042560D01*
X4033570Y5053330D01*
X4021582Y5062728D01*
X4008577Y5070551D01*
X3994658Y5076850D01*
X3991508Y5079085D01*
X3989425Y5082286D01*
X3988663Y5086096D01*
X3989425Y5089906D01*
X3991508Y5093157D01*
X3994658Y5095392D01*
X4008577Y5101640D01*
X4021582Y5109514D01*
X4033570Y5118862D01*
X4044340Y5129631D01*
X4053687Y5141569D01*
X4061561Y5154625D01*
X4067810Y5168442D01*
X4072331Y5182971D01*
X4075074Y5197906D01*
X4075988Y5213096D01*
X4075074Y5228285D01*
X4072331Y5243220D01*
X4067810Y5257749D01*
X4061561Y5271617D01*
X4053687Y5284622D01*
X4044340Y5296560D01*
X4033570Y5307330D01*
X4021582Y5316728D01*
X4008577Y5324551D01*
X3994658Y5330850D01*
X3991508Y5333085D01*
X3989425Y5336286D01*
X3988663Y5340096D01*
X3989425Y5343906D01*
X3991508Y5347157D01*
X3994658Y5349392D01*
X4008577Y5355640D01*
X4021582Y5363514D01*
X4033570Y5372862D01*
X4044340Y5383631D01*
X4053687Y5395569D01*
X4061561Y5408574D01*
X4067810Y5422442D01*
X4072331Y5436971D01*
X4075074Y5451906D01*
X4075988Y5467096D01*
X4075074Y5482285D01*
X4072331Y5497220D01*
X4067810Y5511749D01*
X4061561Y5525617D01*
X4053687Y5538622D01*
X4044340Y5550560D01*
X4033570Y5561330D01*
X4021582Y5570728D01*
X4008577Y5578551D01*
X3994658Y5584850D01*
X3991508Y5587085D01*
X3989425Y5590286D01*
X3988663Y5594096D01*
X3989425Y5597906D01*
X3991508Y5601157D01*
X3994658Y5603341D01*
X4008577Y5609640D01*
X4021582Y5617514D01*
X4033570Y5626862D01*
X4044340Y5637631D01*
X4053687Y5649569D01*
X4061561Y5662574D01*
X4067810Y5676442D01*
X4072331Y5690971D01*
X4075074Y5705906D01*
X4075988Y5721096D01*
X4075074Y5736285D01*
X4072331Y5751220D01*
X4067810Y5765749D01*
X4061561Y5779617D01*
X4053687Y5792622D01*
X4044340Y5804560D01*
X4033570Y5815330D01*
X4021582Y5824728D01*
X4008577Y5832551D01*
X3994658Y5838850D01*
X3991508Y5841085D01*
X3989425Y5844286D01*
X3988663Y5848096D01*
X3989425Y5851906D01*
X3991508Y5855157D01*
X3994658Y5857341D01*
X4008577Y5863640D01*
X4021582Y5871514D01*
X4033570Y5880862D01*
X4044340Y5891631D01*
X4053687Y5903569D01*
X4061561Y5916574D01*
X4067810Y5930442D01*
X4072331Y5944971D01*
X4075074Y5959906D01*
X4075988Y5975096D01*
X4075074Y5990285D01*
X4072331Y6005220D01*
X4067810Y6019749D01*
X4061561Y6033617D01*
X4053687Y6046622D01*
X4044340Y6058560D01*
X4033570Y6069330D01*
X4021582Y6078728D01*
X4008577Y6086551D01*
X3994658Y6092850D01*
X3991508Y6095085D01*
X3989425Y6098286D01*
X3988663Y6102096D01*
X3989425Y6105906D01*
X3991508Y6109157D01*
X3994658Y6111341D01*
X4008577Y6117640D01*
X4021582Y6125514D01*
X4033570Y6134862D01*
X4044340Y6145631D01*
X4053687Y6157569D01*
X4061561Y6170574D01*
X4067810Y6184442D01*
X4072331Y6198971D01*
X4075074Y6213906D01*
X4075988Y6229096D01*
X4075074Y6244285D01*
X4072331Y6259220D01*
X4067810Y6273749D01*
X4061561Y6287617D01*
X4053687Y6300622D01*
X4044340Y6312560D01*
X4033570Y6323330D01*
X4021582Y6332728D01*
X4008577Y6340551D01*
X3994658Y6346850D01*
X3991508Y6349085D01*
X3989425Y6352286D01*
X3988663Y6356096D01*
X3989425Y6359906D01*
X3991508Y6363157D01*
X3994658Y6365341D01*
X4008577Y6371640D01*
X4021582Y6379514D01*
X4033570Y6388862D01*
X4044340Y6399631D01*
X4053687Y6411569D01*
X4061561Y6424574D01*
X4067810Y6438442D01*
X4072331Y6452971D01*
X4075074Y6467906D01*
X4075988Y6483096D01*
X4075074Y6498285D01*
X4072331Y6513220D01*
X4067810Y6527749D01*
X4061561Y6541617D01*
X4053687Y6554622D01*
X4044340Y6566560D01*
X4033570Y6577330D01*
X4021582Y6586728D01*
X4008577Y6594551D01*
X3994658Y6600850D01*
X3991508Y6603085D01*
X3989425Y6606286D01*
X3988663Y6610096D01*
X3989425Y6613906D01*
X3991508Y6617157D01*
X3994658Y6619341D01*
X4008577Y6625640D01*
X4021582Y6633514D01*
X4033570Y6642862D01*
X4044340Y6653631D01*
X4053687Y6665569D01*
X4061561Y6678574D01*
X4067810Y6692442D01*
X4072331Y6706971D01*
X4075074Y6721906D01*
X4075988Y6737096D01*
X4075074Y6752285D01*
X4072331Y6767220D01*
X4067810Y6781749D01*
X4061561Y6795617D01*
X4053687Y6808622D01*
X4044340Y6820560D01*
X4033570Y6831330D01*
X4021582Y6840728D01*
X4008577Y6848551D01*
X3994658Y6854850D01*
X3991508Y6857085D01*
X3989425Y6860286D01*
X3988663Y6864096D01*
X3989425Y6867906D01*
X3991508Y6871157D01*
X3994658Y6873341D01*
X4008577Y6879640D01*
X4021582Y6887514D01*
X4033570Y6896862D01*
X4044340Y6907631D01*
X4053687Y6919569D01*
X4061561Y6932574D01*
X4067810Y6946442D01*
X4072331Y6960971D01*
X4075074Y6975906D01*
X4075988Y6991096D01*
X4075074Y7006285D01*
X4072331Y7021220D01*
X4067810Y7035749D01*
X4061561Y7049617D01*
X4053687Y7062622D01*
X4044340Y7074560D01*
X4033570Y7085330D01*
X4021582Y7094728D01*
X4008577Y7102551D01*
X3994658Y7108850D01*
X3980230Y7113320D01*
X3965244Y7116064D01*
X3950106Y7116978D01*
X3934917Y7116064D01*
X3919982Y7113320D01*
X3905504Y7108850D01*
X3891584Y7102551D01*
X3878579Y7094728D01*
X3866591Y7085330D01*
X3855872Y7074560D01*
X3846474Y7062622D01*
X3838600Y7049617D01*
X3832402Y7035749D01*
X3827881Y7021220D01*
X3825138Y7006285D01*
X3824224Y6991096D01*
X3825138Y6975906D01*
X3827881Y6960971D01*
X3832402Y6946442D01*
X3838600Y6932574D01*
X3846474Y6919569D01*
X3855872Y6907631D01*
X3866591Y6896862D01*
X3878579Y6887514D01*
X3891584Y6879640D01*
X3905504Y6873341D01*
X3908653Y6871157D01*
X3910787Y6867906D01*
X3911498Y6864096D01*
X3910787Y6860286D01*
X3908653Y6857085D01*
X3905504Y6854850D01*
X3891584Y6848551D01*
X3878579Y6840728D01*
X3866591Y6831330D01*
X3855872Y6820560D01*
X3846474Y6808622D01*
X3838600Y6795617D01*
X3832402Y6781749D01*
X3827881Y6767220D01*
X3825138Y6752285D01*
X3824224Y6737096D01*
X3825138Y6721906D01*
X3827881Y6706971D01*
X3832402Y6692442D01*
X3838600Y6678574D01*
X3846474Y6665569D01*
X3855872Y6653631D01*
X3866591Y6642862D01*
X3878579Y6633514D01*
X3891584Y6625640D01*
X3905504Y6619341D01*
X3908653Y6617157D01*
X3910787Y6613906D01*
X3911498Y6610096D01*
X3910787Y6606286D01*
X3908653Y6603085D01*
X3905504Y6600850D01*
X3891584Y6594551D01*
X3878579Y6586728D01*
X3866591Y6577330D01*
X3855872Y6566560D01*
X3846474Y6554622D01*
X3838600Y6541617D01*
X3832402Y6527749D01*
X3827881Y6513220D01*
X3825138Y6498285D01*
X3824224Y6483096D01*
X3825138Y6467906D01*
X3827881Y6452971D01*
X3832402Y6438442D01*
X3838600Y6424574D01*
X3846474Y6411569D01*
X3855872Y6399631D01*
X3866591Y6388862D01*
X3878579Y6379514D01*
X3891584Y6371640D01*
X3905504Y6365341D01*
X3908653Y6363157D01*
X3910787Y6359906D01*
X3911498Y6356096D01*
X3910787Y6352286D01*
X3908653Y6349085D01*
X3905504Y6346850D01*
X3891584Y6340551D01*
X3878579Y6332728D01*
X3866591Y6323330D01*
X3855872Y6312560D01*
X3846474Y6300622D01*
X3838600Y6287617D01*
X3832402Y6273749D01*
X3827881Y6259220D01*
X3825138Y6244285D01*
X3824224Y6229096D01*
X3825138Y6213906D01*
X3827881Y6198971D01*
X3832402Y6184442D01*
X3838600Y6170574D01*
X3846474Y6157569D01*
X3855872Y6145631D01*
X3866591Y6134862D01*
X3878579Y6125514D01*
X3891584Y6117640D01*
X3905504Y6111341D01*
X3908653Y6109157D01*
X3910787Y6105906D01*
X3911498Y6102096D01*
X3910787Y6098286D01*
X3908653Y6095085D01*
X3905504Y6092850D01*
X3891584Y6086551D01*
X3878579Y6078728D01*
X3866591Y6069330D01*
X3855872Y6058560D01*
X3846474Y6046622D01*
X3838600Y6033617D01*
X3832402Y6019749D01*
X3827881Y6005220D01*
X3825138Y5990285D01*
X3824224Y5975096D01*
X3825138Y5959906D01*
X3827881Y5944971D01*
X3832402Y5930442D01*
X3838600Y5916574D01*
X3846474Y5903569D01*
X3855872Y5891631D01*
X3866591Y5880862D01*
X3878579Y5871514D01*
X3891584Y5863640D01*
X3905504Y5857341D01*
X3908653Y5855157D01*
X3910787Y5851906D01*
X3911498Y5848096D01*
X3910787Y5844286D01*
X3908653Y5841085D01*
X3905504Y5838850D01*
X3891584Y5832551D01*
X3878579Y5824728D01*
X3866591Y5815330D01*
X3855872Y5804560D01*
X3846474Y5792622D01*
X3838600Y5779617D01*
X3832402Y5765749D01*
X3827881Y5751220D01*
X3825138Y5736285D01*
X3824224Y5721096D01*
X3825138Y5705906D01*
X3827881Y5690971D01*
X3832402Y5676442D01*
X3838600Y5662574D01*
X3846474Y5649569D01*
X3855872Y5637631D01*
X3866591Y5626862D01*
X3878579Y5617514D01*
X3891584Y5609640D01*
X3905504Y5603341D01*
X3908653Y5601157D01*
X3910787Y5597906D01*
X3911498Y5594096D01*
X3910787Y5590286D01*
X3908653Y5587085D01*
X3905504Y5584850D01*
X3891584Y5578551D01*
X3878579Y5570728D01*
X3866591Y5561330D01*
X3855872Y5550560D01*
X3846474Y5538622D01*
X3838600Y5525617D01*
X3832402Y5511749D01*
X3827881Y5497220D01*
X3825138Y5482285D01*
X3824224Y5467096D01*
X3825138Y5451906D01*
X3827881Y5436971D01*
X3832402Y5422442D01*
X3838600Y5408574D01*
X3846474Y5395569D01*
X3855872Y5383631D01*
X3866591Y5372862D01*
X3878579Y5363514D01*
X3891584Y5355640D01*
X3905504Y5349392D01*
X3908653Y5347157D01*
X3910787Y5343906D01*
X3911498Y5340096D01*
X3910787Y5336286D01*
X3908653Y5333085D01*
X3905504Y5330850D01*
X3891584Y5324551D01*
X3878579Y5316728D01*
X3866591Y5307330D01*
X3855872Y5296560D01*
X3846474Y5284622D01*
X3838600Y5271617D01*
X3832402Y5257749D01*
X3827881Y5243220D01*
X3825138Y5228285D01*
X3824224Y5213096D01*
X3825138Y5197906D01*
X3827881Y5182971D01*
X3832402Y5168442D01*
X3838600Y5154625D01*
X3846474Y5141569D01*
X3855872Y5129631D01*
X3866591Y5118862D01*
X3878579Y5109514D01*
X3891584Y5101640D01*
X3905504Y5095392D01*
X3908653Y5093157D01*
X3910787Y5089906D01*
X3911498Y5086096D01*
X3910787Y5082286D01*
X3908653Y5079085D01*
X3905504Y5076850D01*
X3891584Y5070551D01*
X3878579Y5062728D01*
X3866591Y5053330D01*
X3855872Y5042560D01*
X3846474Y5030622D01*
X3838600Y5017617D01*
X3832402Y5003749D01*
X3827881Y4989220D01*
X3825138Y4974285D01*
X3824224Y4959096D01*
X3825138Y4943906D01*
X3827881Y4928971D01*
X3832402Y4914442D01*
X3838600Y4900574D01*
X3846474Y4887569D01*
X3855872Y4875631D01*
X3866591Y4864862D01*
X3878579Y4855514D01*
X3891584Y4847640D01*
X3905504Y4841392D01*
X3908653Y4839157D01*
X3910787Y4835906D01*
X3911498Y4832096D01*
X3910787Y4828286D01*
X3908653Y4825085D01*
X3905504Y4822850D01*
X3891584Y4816551D01*
X3878579Y4808728D01*
X3866591Y4799330D01*
X3855872Y4788560D01*
X3846474Y4776622D01*
X3838600Y4763617D01*
X3832402Y4749749D01*
X3827881Y4735220D01*
X3825138Y4720285D01*
X3824224Y4705096D01*
X3825138Y4689906D01*
X3827881Y4674971D01*
X3832402Y4660442D01*
X3838600Y4646625D01*
X3846474Y4633569D01*
X3855872Y4621631D01*
X3866591Y4610862D01*
X3878579Y4601514D01*
X3891584Y4593640D01*
X3905504Y4587392D01*
X3908653Y4585157D01*
X3910787Y4581906D01*
X3911498Y4578096D01*
X3910787Y4574286D01*
X3908653Y4571085D01*
X3905504Y4568850D01*
X3891584Y4562551D01*
X3878579Y4554728D01*
X3866591Y4545330D01*
X3855872Y4534560D01*
X3846474Y4522622D01*
X3838600Y4509617D01*
X3832402Y4495749D01*
X3827881Y4481220D01*
X3825138Y4466285D01*
X3824224Y4451096D01*
X3825138Y4435906D01*
X3827881Y4420971D01*
X3832402Y4406442D01*
X3838600Y4392625D01*
X3846474Y4379569D01*
X3855872Y4367631D01*
X3866591Y4356862D01*
X3878579Y4347514D01*
X3891584Y4339640D01*
X3905504Y4333392D01*
X3908653Y4331157D01*
X3910787Y4327906D01*
X3911498Y4324096D01*
X3910787Y4320286D01*
X3908653Y4317085D01*
X3905504Y4314850D01*
X3891584Y4308551D01*
X3878579Y4300728D01*
X3866591Y4291330D01*
X3855872Y4280560D01*
X3846474Y4268622D01*
X3838600Y4255617D01*
X3832402Y4241749D01*
X3827881Y4227220D01*
X3825138Y4212285D01*
X3824224Y4197096D01*
X3825138Y4181906D01*
X3827881Y4166971D01*
X3832402Y4152442D01*
X3838600Y4138625D01*
X3846474Y4125569D01*
X3855872Y4113631D01*
X3866591Y4102862D01*
X3878579Y4093514D01*
X3891584Y4085640D01*
X3905504Y4079392D01*
X3908653Y4077157D01*
X3910787Y4073906D01*
X3911498Y4070096D01*
X3910787Y4066336D01*
X3908653Y4063085D01*
X3905504Y4060850D01*
X3891584Y4054551D01*
X3878579Y4046728D01*
X3866591Y4037329D01*
X3855872Y4026611D01*
X3846474Y4014622D01*
X3838600Y4001617D01*
X3832402Y3987749D01*
X3827881Y3973220D01*
X3825138Y3958285D01*
X3824224Y3943096D01*
X3825138Y3927906D01*
X3827881Y3912971D01*
X3832402Y3898442D01*
X3838600Y3884625D01*
X3846474Y3871569D01*
X3855872Y3859631D01*
X3866591Y3848862D01*
X3878579Y3839514D01*
X3891584Y3831640D01*
X3905504Y3825392D01*
X3908653Y3823157D01*
X3910787Y3819906D01*
X3911498Y3816096D01*
X3910787Y3812336D01*
X3908653Y3809085D01*
X3905504Y3806850D01*
X3891584Y3800551D01*
X3878579Y3792728D01*
X3866591Y3783329D01*
X3855872Y3772560D01*
X3846474Y3760622D01*
X3838600Y3747617D01*
X3832402Y3733749D01*
X3827881Y3719220D01*
X3825138Y3704285D01*
X3824224Y3689096D01*
X3825138Y3673906D01*
X3827881Y3658971D01*
X3832402Y3644442D01*
X3838600Y3630625D01*
X3846474Y3617569D01*
X3855872Y3605631D01*
X3866591Y3594862D01*
X3878579Y3585514D01*
X3891584Y3577640D01*
X3905504Y3571392D01*
X3908653Y3569157D01*
X3910787Y3565906D01*
X3911498Y3562096D01*
X3910787Y3558336D01*
X3908653Y3555085D01*
X3905504Y3552850D01*
X3891584Y3546551D01*
X3878579Y3538728D01*
X3866591Y3529329D01*
X3855872Y3518611D01*
X3846474Y3506622D01*
X3838600Y3493617D01*
X3832402Y3479749D01*
X3827881Y3465220D01*
X3825138Y3450285D01*
X3824224Y3435096D01*
X3825138Y3419906D01*
X3827881Y3404971D01*
X3832402Y3390442D01*
X3838600Y3376625D01*
X3846474Y3363569D01*
X3855872Y3351631D01*
X3866591Y3340862D01*
X3878579Y3331514D01*
X3891584Y3323640D01*
X3905504Y3317392D01*
X3908653Y3315157D01*
X3910787Y3311906D01*
X3911498Y3308096D01*
X3910787Y3304336D01*
X3908653Y3301085D01*
X3905504Y3298850D01*
X3891584Y3292551D01*
X3878579Y3284728D01*
X3866591Y3275329D01*
X3855872Y3264611D01*
X3846474Y3252622D01*
X3838600Y3239617D01*
X3832402Y3225749D01*
X3827881Y3211220D01*
X3825138Y3196285D01*
X3824224Y3181096D01*
X3825138Y3165906D01*
X3827881Y3150971D01*
X3832402Y3136442D01*
X3838600Y3122625D01*
X3846474Y3109569D01*
X3855872Y3097631D01*
X3866591Y3086862D01*
X3878579Y3077514D01*
X3891584Y3069640D01*
X3905504Y3063392D01*
X3908653Y3061157D01*
X3910787Y3057906D01*
X3911498Y3054096D01*
X3910787Y3050336D01*
X3908653Y3047085D01*
X3905504Y3044850D01*
X3891584Y3038551D01*
X3878579Y3030728D01*
X3866591Y3021330D01*
X3855872Y3010611D01*
X3846474Y2998622D01*
X3838600Y2985617D01*
X3832402Y2971749D01*
X3827881Y2957220D01*
X3825138Y2942285D01*
X3824224Y2927096D01*
X3825138Y2911906D01*
X3827881Y2896971D01*
X3832402Y2882442D01*
X3838600Y2868625D01*
X3846474Y2855569D01*
X3855872Y2843631D01*
X3866591Y2832862D01*
X3878579Y2823514D01*
X3891584Y2815640D01*
X3905504Y2809392D01*
X3908653Y2807157D01*
X3910787Y2803906D01*
X3911498Y2800096D01*
X3910787Y2796336D01*
X3908653Y2793085D01*
X3905504Y2790850D01*
X3891584Y2784602D01*
X3878579Y2776728D01*
X3866591Y2767330D01*
X3855872Y2756611D01*
X3846474Y2744622D01*
X3838600Y2731617D01*
X3832402Y2717749D01*
X3827881Y2703220D01*
X3825138Y2688285D01*
X3824224Y2673096D01*
X3825138Y2657957D01*
X3827881Y2642971D01*
X3832402Y2628442D01*
X3838600Y2614625D01*
X3846474Y2601620D01*
X3855872Y2589631D01*
X3866591Y2578862D01*
X3878579Y2569514D01*
X3891584Y2561640D01*
X3905504Y2555392D01*
X3908653Y2553157D01*
X3910787Y2549906D01*
X3911498Y2546096D01*
X3910787Y2542336D01*
X3908653Y2539085D01*
X3905504Y2536850D01*
X3891584Y2530602D01*
X3878579Y2522728D01*
X3866591Y2513330D01*
X3855872Y2502611D01*
X3846474Y2490622D01*
X3838600Y2477617D01*
X3832402Y2463749D01*
X3827881Y2449220D01*
X3825138Y2434285D01*
X3824224Y2419096D01*
X3825138Y2403957D01*
X3827881Y2388971D01*
X3832402Y2374442D01*
X3838600Y2360625D01*
X3846474Y2347620D01*
X3855872Y2335631D01*
X3866591Y2324862D01*
X3878579Y2315514D01*
X3891584Y2307640D01*
X3905504Y2301392D01*
X3908653Y2299157D01*
X3910787Y2295906D01*
X3911498Y2292096D01*
X3910787Y2288336D01*
X3908653Y2285085D01*
X3905504Y2282850D01*
X3891584Y2276602D01*
X3878579Y2268728D01*
X3866591Y2259330D01*
X3855872Y2248611D01*
X3846474Y2236622D01*
X3838600Y2223617D01*
X3832402Y2209749D01*
X3827881Y2195220D01*
X3825138Y2180285D01*
X3824224Y2165096D01*
X3825138Y2149957D01*
X3827881Y2134971D01*
X3832402Y2120442D01*
X3838600Y2106625D01*
X3846474Y2093620D01*
X3855872Y2081631D01*
X3866591Y2070862D01*
X3878579Y2061514D01*
X3891584Y2053640D01*
X3905504Y2047392D01*
X3919982Y2042871D01*
X3934917Y2040128D01*
G37*
G36*
X1650085Y2039213D02*
G01*
X1665274Y2040128D01*
X1680210Y2042871D01*
X1694688Y2047392D01*
X1708607Y2053640D01*
X1721612Y2061514D01*
X1733600Y2070862D01*
X1744319Y2081631D01*
X1753717Y2093569D01*
X1761591Y2106625D01*
X1767789Y2120442D01*
X1772310Y2134971D01*
X1775053Y2149906D01*
X1775968Y2165096D01*
X1775053Y2180285D01*
X1772310Y2195220D01*
X1767789Y2209749D01*
X1761591Y2223617D01*
X1753717Y2236622D01*
X1744319Y2248611D01*
X1733600Y2259330D01*
X1721612Y2268728D01*
X1708607Y2276551D01*
X1694688Y2282850D01*
X1691538Y2285085D01*
X1689404Y2288336D01*
X1688693Y2292096D01*
X1689404Y2295906D01*
X1691538Y2299157D01*
X1694688Y2301392D01*
X1708607Y2307640D01*
X1721612Y2315514D01*
X1733600Y2324862D01*
X1744319Y2335631D01*
X1753717Y2347569D01*
X1761591Y2360625D01*
X1767789Y2374442D01*
X1772310Y2388971D01*
X1775053Y2403906D01*
X1775968Y2419096D01*
X1775053Y2434285D01*
X1772310Y2449220D01*
X1767789Y2463749D01*
X1761591Y2477617D01*
X1753717Y2490622D01*
X1744319Y2502611D01*
X1733600Y2513330D01*
X1721612Y2522728D01*
X1708607Y2530551D01*
X1694688Y2536850D01*
X1691538Y2539085D01*
X1689404Y2542336D01*
X1688693Y2546096D01*
X1689404Y2549906D01*
X1691538Y2553157D01*
X1694688Y2555392D01*
X1708607Y2561640D01*
X1721612Y2569514D01*
X1733600Y2578862D01*
X1744319Y2589631D01*
X1753717Y2601569D01*
X1761591Y2614625D01*
X1765096Y2622397D01*
X1767281Y2625547D01*
X1770532Y2627680D01*
X1774342Y2628392D01*
X3072892Y2628392D01*
X3080918Y2629204D01*
X3088132Y2631389D01*
X3094837Y2634945D01*
X3101035Y2640076D01*
X3201924Y2740964D01*
X3207054Y2747162D01*
X3210610Y2753868D01*
X3212795Y2761081D01*
X3213608Y2769108D01*
X3213608Y2848660D01*
X3214268Y2852216D01*
X3216097Y2855315D01*
X3218891Y2857550D01*
X3223056Y2859836D01*
X3233216Y2867406D01*
X3242157Y2876397D01*
X3249777Y2886557D01*
X3255822Y2897682D01*
X3260293Y2909570D01*
X3262985Y2921965D01*
X3263900Y2934614D01*
X3262985Y2947263D01*
X3260293Y2959658D01*
X3255822Y2971546D01*
X3249777Y2982671D01*
X3242157Y2992780D01*
X3233216Y3001772D01*
X3223056Y3009392D01*
X3211931Y3015437D01*
X3200044Y3019856D01*
X3187649Y3022600D01*
X3175000Y3023463D01*
X3162350Y3022600D01*
X3149955Y3019856D01*
X3138068Y3015437D01*
X3126943Y3009392D01*
X3116783Y3001772D01*
X3107842Y2992780D01*
X3100222Y2982671D01*
X3094126Y2971546D01*
X3089706Y2959658D01*
X3087014Y2947263D01*
X3086100Y2934614D01*
X3087014Y2921965D01*
X3089706Y2909570D01*
X3094126Y2897682D01*
X3100222Y2886557D01*
X3107842Y2876397D01*
X3116783Y2867406D01*
X3126943Y2859836D01*
X3131108Y2857550D01*
X3133902Y2855315D01*
X3135731Y2852166D01*
X3136392Y2848660D01*
X3136392Y2788818D01*
X3135630Y2784906D01*
X3133394Y2781604D01*
X3060395Y2708605D01*
X3057093Y2706370D01*
X3053181Y2705608D01*
X1779066Y2705608D01*
X1774901Y2706522D01*
X1771446Y2709011D01*
X1769364Y2712720D01*
X1767789Y2717749D01*
X1761591Y2731617D01*
X1753717Y2744622D01*
X1744319Y2756611D01*
X1733600Y2767330D01*
X1721612Y2776728D01*
X1708607Y2784551D01*
X1694688Y2790850D01*
X1691538Y2793085D01*
X1689404Y2796336D01*
X1688693Y2800096D01*
X1689404Y2803906D01*
X1691538Y2807157D01*
X1694688Y2809392D01*
X1708607Y2815640D01*
X1721612Y2823514D01*
X1733600Y2832862D01*
X1744319Y2843631D01*
X1753717Y2855569D01*
X1761591Y2868625D01*
X1767789Y2882442D01*
X1772310Y2896971D01*
X1775053Y2911906D01*
X1775968Y2927096D01*
X1775053Y2942285D01*
X1772310Y2957220D01*
X1767789Y2971749D01*
X1761591Y2985617D01*
X1753717Y2998622D01*
X1744319Y3010560D01*
X1733600Y3021330D01*
X1721612Y3030728D01*
X1708607Y3038551D01*
X1694688Y3044850D01*
X1691538Y3047085D01*
X1689404Y3050286D01*
X1688693Y3054096D01*
X1689404Y3057906D01*
X1691538Y3061157D01*
X1694688Y3063392D01*
X1708607Y3069640D01*
X1721612Y3077514D01*
X1733600Y3086862D01*
X1744319Y3097631D01*
X1753717Y3109569D01*
X1761591Y3122625D01*
X1767789Y3136442D01*
X1772310Y3150971D01*
X1775053Y3165906D01*
X1775968Y3181096D01*
X1775053Y3196285D01*
X1772310Y3211220D01*
X1767789Y3225749D01*
X1761591Y3239617D01*
X1753717Y3252622D01*
X1744319Y3264560D01*
X1733600Y3275329D01*
X1721612Y3284728D01*
X1708607Y3292551D01*
X1694688Y3298850D01*
X1691538Y3301085D01*
X1689404Y3304286D01*
X1688693Y3308096D01*
X1689404Y3311906D01*
X1691538Y3315157D01*
X1694688Y3317392D01*
X1708607Y3323640D01*
X1721612Y3331514D01*
X1733600Y3340862D01*
X1744319Y3351631D01*
X1753717Y3363569D01*
X1761591Y3376625D01*
X1767789Y3390442D01*
X1772310Y3404971D01*
X1775053Y3419906D01*
X1775968Y3435096D01*
X1775053Y3450285D01*
X1772310Y3465220D01*
X1767789Y3479749D01*
X1761591Y3493617D01*
X1753717Y3506622D01*
X1744319Y3518560D01*
X1733600Y3529329D01*
X1721612Y3538728D01*
X1708607Y3546551D01*
X1694688Y3552850D01*
X1691538Y3555085D01*
X1689404Y3558286D01*
X1688693Y3562096D01*
X1689404Y3565906D01*
X1691538Y3569157D01*
X1694688Y3571392D01*
X1708607Y3577640D01*
X1721612Y3585514D01*
X1733600Y3594862D01*
X1744319Y3605631D01*
X1753717Y3617569D01*
X1761591Y3630625D01*
X1767789Y3644442D01*
X1772310Y3658971D01*
X1775053Y3673906D01*
X1775968Y3689096D01*
X1775053Y3704285D01*
X1772310Y3719220D01*
X1767789Y3733749D01*
X1761591Y3747617D01*
X1753717Y3760622D01*
X1744319Y3772560D01*
X1733600Y3783329D01*
X1721612Y3792728D01*
X1708607Y3800551D01*
X1694688Y3806850D01*
X1691538Y3809085D01*
X1689404Y3812286D01*
X1688693Y3816096D01*
X1689404Y3819906D01*
X1691538Y3823157D01*
X1694688Y3825392D01*
X1708607Y3831640D01*
X1721612Y3839514D01*
X1733600Y3848862D01*
X1744319Y3859631D01*
X1753717Y3871569D01*
X1761591Y3884625D01*
X1767789Y3898442D01*
X1772310Y3912971D01*
X1775053Y3927906D01*
X1775968Y3943096D01*
X1775053Y3958285D01*
X1772310Y3973220D01*
X1767789Y3987749D01*
X1761591Y4001617D01*
X1753717Y4014622D01*
X1744319Y4026560D01*
X1733600Y4037329D01*
X1721612Y4046728D01*
X1708607Y4054551D01*
X1694688Y4060850D01*
X1691538Y4063085D01*
X1689404Y4066286D01*
X1688693Y4070096D01*
X1689404Y4073906D01*
X1691538Y4077157D01*
X1694688Y4079392D01*
X1708607Y4085640D01*
X1721612Y4093514D01*
X1733600Y4102862D01*
X1744319Y4113631D01*
X1753717Y4125569D01*
X1761591Y4138574D01*
X1767789Y4152442D01*
X1772310Y4166971D01*
X1775053Y4181906D01*
X1775968Y4197096D01*
X1775053Y4212285D01*
X1772310Y4227220D01*
X1767789Y4241749D01*
X1761591Y4255617D01*
X1753717Y4268622D01*
X1744319Y4280560D01*
X1733600Y4291330D01*
X1721612Y4300728D01*
X1708607Y4308551D01*
X1694688Y4314850D01*
X1691538Y4317085D01*
X1689404Y4320286D01*
X1688693Y4324096D01*
X1689404Y4327906D01*
X1691538Y4331157D01*
X1694688Y4333341D01*
X1708607Y4339640D01*
X1721612Y4347514D01*
X1733600Y4356862D01*
X1744319Y4367631D01*
X1753717Y4379569D01*
X1761591Y4392574D01*
X1767789Y4406442D01*
X1772310Y4420971D01*
X1775053Y4435906D01*
X1775968Y4451096D01*
X1775053Y4466285D01*
X1772310Y4481220D01*
X1767789Y4495749D01*
X1761591Y4509617D01*
X1753717Y4522622D01*
X1744319Y4534560D01*
X1733600Y4545330D01*
X1721612Y4554728D01*
X1708607Y4562551D01*
X1694688Y4568850D01*
X1691538Y4571085D01*
X1689404Y4574286D01*
X1688693Y4578096D01*
X1689404Y4581906D01*
X1691538Y4585157D01*
X1694688Y4587341D01*
X1708607Y4593640D01*
X1721612Y4601514D01*
X1733600Y4610862D01*
X1744319Y4621631D01*
X1753717Y4633569D01*
X1761591Y4646574D01*
X1767789Y4660442D01*
X1772310Y4674971D01*
X1775053Y4689906D01*
X1775968Y4705096D01*
X1775053Y4720285D01*
X1772310Y4735220D01*
X1767789Y4749749D01*
X1761591Y4763617D01*
X1753717Y4776622D01*
X1744319Y4788560D01*
X1733600Y4799330D01*
X1721612Y4808728D01*
X1708607Y4816551D01*
X1694688Y4822850D01*
X1691538Y4825085D01*
X1689404Y4828286D01*
X1688693Y4832096D01*
X1689404Y4835906D01*
X1691538Y4839157D01*
X1694688Y4841341D01*
X1708607Y4847640D01*
X1721612Y4855514D01*
X1733600Y4864862D01*
X1744319Y4875631D01*
X1753717Y4887569D01*
X1761591Y4900574D01*
X1767789Y4914442D01*
X1772310Y4928971D01*
X1775053Y4943906D01*
X1775968Y4959096D01*
X1775053Y4974285D01*
X1772310Y4989220D01*
X1767789Y5003749D01*
X1761591Y5017617D01*
X1753717Y5030622D01*
X1744319Y5042560D01*
X1733600Y5053330D01*
X1721612Y5062728D01*
X1708607Y5070551D01*
X1694688Y5076850D01*
X1691538Y5079085D01*
X1689404Y5082286D01*
X1688693Y5086096D01*
X1689404Y5089906D01*
X1691538Y5093157D01*
X1694688Y5095341D01*
X1708607Y5101640D01*
X1721612Y5109514D01*
X1733600Y5118862D01*
X1744319Y5129631D01*
X1753717Y5141569D01*
X1761591Y5154574D01*
X1767789Y5168442D01*
X1772310Y5182971D01*
X1775053Y5197906D01*
X1775968Y5213096D01*
X1775053Y5228285D01*
X1772310Y5243220D01*
X1767789Y5257749D01*
X1761591Y5271617D01*
X1753717Y5284622D01*
X1744319Y5296560D01*
X1733600Y5307330D01*
X1721612Y5316728D01*
X1708607Y5324551D01*
X1694688Y5330850D01*
X1691538Y5333085D01*
X1689404Y5336286D01*
X1688693Y5340096D01*
X1689404Y5343906D01*
X1691538Y5347157D01*
X1694688Y5349341D01*
X1708607Y5355640D01*
X1721612Y5363514D01*
X1733600Y5372862D01*
X1744319Y5383631D01*
X1753717Y5395569D01*
X1761591Y5408574D01*
X1767789Y5422442D01*
X1772310Y5436971D01*
X1775053Y5451906D01*
X1775968Y5467096D01*
X1775053Y5482285D01*
X1772310Y5497220D01*
X1767789Y5511749D01*
X1761591Y5525617D01*
X1753717Y5538622D01*
X1744319Y5550560D01*
X1733600Y5561330D01*
X1721612Y5570728D01*
X1708607Y5578551D01*
X1694688Y5584850D01*
X1691538Y5587085D01*
X1689404Y5590286D01*
X1688693Y5594096D01*
X1689404Y5597906D01*
X1691538Y5601157D01*
X1694688Y5603341D01*
X1708607Y5609640D01*
X1721612Y5617514D01*
X1733600Y5626862D01*
X1744319Y5637631D01*
X1753717Y5649569D01*
X1761591Y5662574D01*
X1767789Y5676442D01*
X1772310Y5690971D01*
X1775053Y5705906D01*
X1775968Y5721096D01*
X1775053Y5736285D01*
X1772310Y5751220D01*
X1767789Y5765749D01*
X1761591Y5779617D01*
X1753717Y5792622D01*
X1744319Y5804560D01*
X1733600Y5815330D01*
X1721612Y5824728D01*
X1708607Y5832551D01*
X1694688Y5838850D01*
X1691538Y5841085D01*
X1689404Y5844286D01*
X1688693Y5848096D01*
X1689404Y5851906D01*
X1691538Y5855157D01*
X1694688Y5857341D01*
X1708607Y5863640D01*
X1721612Y5871514D01*
X1733600Y5880862D01*
X1744319Y5891631D01*
X1753717Y5903569D01*
X1761591Y5916574D01*
X1767789Y5930442D01*
X1772310Y5944971D01*
X1775053Y5959906D01*
X1775968Y5975096D01*
X1775053Y5990285D01*
X1772310Y6005220D01*
X1767789Y6019749D01*
X1761591Y6033617D01*
X1753717Y6046622D01*
X1744319Y6058560D01*
X1733600Y6069330D01*
X1721612Y6078728D01*
X1708607Y6086551D01*
X1694688Y6092850D01*
X1691538Y6095085D01*
X1689404Y6098286D01*
X1688693Y6102096D01*
X1689404Y6105906D01*
X1691538Y6109157D01*
X1694688Y6111341D01*
X1708607Y6117640D01*
X1721612Y6125514D01*
X1733600Y6134862D01*
X1744319Y6145631D01*
X1753717Y6157569D01*
X1761591Y6170574D01*
X1767789Y6184442D01*
X1772310Y6198971D01*
X1775053Y6213906D01*
X1775968Y6229096D01*
X1775053Y6244285D01*
X1772310Y6259220D01*
X1767789Y6273749D01*
X1761591Y6287617D01*
X1753717Y6300622D01*
X1744319Y6312560D01*
X1733600Y6323330D01*
X1721612Y6332728D01*
X1708607Y6340551D01*
X1694688Y6346850D01*
X1691538Y6349085D01*
X1689404Y6352286D01*
X1688693Y6356096D01*
X1689404Y6359906D01*
X1691538Y6363157D01*
X1694688Y6365341D01*
X1708607Y6371640D01*
X1721612Y6379514D01*
X1733600Y6388862D01*
X1744319Y6399631D01*
X1753717Y6411569D01*
X1761591Y6424574D01*
X1767789Y6438442D01*
X1772310Y6452971D01*
X1775053Y6467906D01*
X1775968Y6483096D01*
X1775053Y6498285D01*
X1772310Y6513220D01*
X1767789Y6527749D01*
X1761591Y6541617D01*
X1753717Y6554622D01*
X1744319Y6566560D01*
X1733600Y6577330D01*
X1721612Y6586728D01*
X1708607Y6594551D01*
X1694688Y6600850D01*
X1691538Y6603034D01*
X1689404Y6606286D01*
X1688693Y6610096D01*
X1689404Y6613906D01*
X1691538Y6617157D01*
X1694688Y6619341D01*
X1708607Y6625640D01*
X1721612Y6633514D01*
X1733600Y6642862D01*
X1744319Y6653631D01*
X1753717Y6665569D01*
X1761591Y6678574D01*
X1767789Y6692442D01*
X1772310Y6706971D01*
X1775053Y6721906D01*
X1775968Y6737096D01*
X1775053Y6752285D01*
X1772310Y6767220D01*
X1767789Y6781749D01*
X1761591Y6795617D01*
X1753717Y6808622D01*
X1744319Y6820560D01*
X1733600Y6831330D01*
X1721612Y6840677D01*
X1708607Y6848551D01*
X1694688Y6854850D01*
X1691538Y6857034D01*
X1689404Y6860286D01*
X1688693Y6864096D01*
X1689404Y6867906D01*
X1691538Y6871157D01*
X1694688Y6873341D01*
X1708607Y6879640D01*
X1721612Y6887514D01*
X1733600Y6896862D01*
X1744319Y6907631D01*
X1753717Y6919569D01*
X1761591Y6932574D01*
X1767789Y6946442D01*
X1772310Y6960971D01*
X1775053Y6975906D01*
X1775968Y6991096D01*
X1775053Y7006285D01*
X1772310Y7021220D01*
X1767789Y7035749D01*
X1761591Y7049617D01*
X1753717Y7062622D01*
X1744319Y7074560D01*
X1733600Y7085330D01*
X1721612Y7094677D01*
X1708607Y7102551D01*
X1694688Y7108850D01*
X1691538Y7111034D01*
X1689404Y7114286D01*
X1688693Y7118096D01*
X1689404Y7121906D01*
X1691538Y7125157D01*
X1694688Y7127341D01*
X1708607Y7133640D01*
X1721612Y7141514D01*
X1733600Y7150862D01*
X1744319Y7161631D01*
X1753717Y7173569D01*
X1761591Y7186574D01*
X1767789Y7200442D01*
X1772310Y7214971D01*
X1775053Y7229906D01*
X1775968Y7245096D01*
X1775053Y7260285D01*
X1772310Y7275220D01*
X1767789Y7289749D01*
X1761591Y7303617D01*
X1753717Y7316622D01*
X1744319Y7328560D01*
X1733600Y7339330D01*
X1721612Y7348677D01*
X1708607Y7356551D01*
X1694738Y7362799D01*
X1680210Y7367320D01*
X1665274Y7370064D01*
X1650085Y7370978D01*
X1634947Y7370064D01*
X1619961Y7367320D01*
X1605432Y7362799D01*
X1591614Y7356551D01*
X1578610Y7348677D01*
X1566621Y7339330D01*
X1555851Y7328560D01*
X1546504Y7316622D01*
X1538630Y7303617D01*
X1532382Y7289749D01*
X1527860Y7275220D01*
X1525117Y7260285D01*
X1524203Y7245096D01*
X1525117Y7229906D01*
X1527860Y7214971D01*
X1532382Y7200442D01*
X1538630Y7186574D01*
X1546504Y7173569D01*
X1555851Y7161631D01*
X1566621Y7150862D01*
X1578610Y7141514D01*
X1591614Y7133640D01*
X1605534Y7127341D01*
X1608683Y7125157D01*
X1610766Y7121906D01*
X1611528Y7118096D01*
X1610766Y7114286D01*
X1608683Y7111034D01*
X1605534Y7108850D01*
X1591614Y7102551D01*
X1578610Y7094677D01*
X1566621Y7085330D01*
X1555851Y7074560D01*
X1546504Y7062622D01*
X1538630Y7049617D01*
X1532382Y7035749D01*
X1527860Y7021220D01*
X1525117Y7006285D01*
X1524203Y6991096D01*
X1525117Y6975906D01*
X1527860Y6960971D01*
X1532382Y6946442D01*
X1538630Y6932574D01*
X1546504Y6919569D01*
X1555851Y6907631D01*
X1566621Y6896862D01*
X1578610Y6887514D01*
X1591614Y6879640D01*
X1605534Y6873341D01*
X1608683Y6871157D01*
X1610766Y6867906D01*
X1611528Y6864096D01*
X1610766Y6860286D01*
X1608683Y6857034D01*
X1605534Y6854850D01*
X1591614Y6848551D01*
X1578610Y6840677D01*
X1566621Y6831330D01*
X1555851Y6820560D01*
X1546504Y6808622D01*
X1538630Y6795617D01*
X1532382Y6781749D01*
X1527860Y6767220D01*
X1525117Y6752285D01*
X1524203Y6737096D01*
X1525117Y6721906D01*
X1527860Y6706971D01*
X1532382Y6692442D01*
X1538630Y6678574D01*
X1546504Y6665569D01*
X1555851Y6653631D01*
X1566621Y6642862D01*
X1578610Y6633514D01*
X1591614Y6625640D01*
X1605534Y6619341D01*
X1608683Y6617157D01*
X1610766Y6613906D01*
X1611528Y6610096D01*
X1610766Y6606286D01*
X1608683Y6603034D01*
X1605534Y6600850D01*
X1591614Y6594551D01*
X1578610Y6586728D01*
X1566621Y6577330D01*
X1555851Y6566560D01*
X1546504Y6554622D01*
X1538630Y6541617D01*
X1532382Y6527749D01*
X1527860Y6513220D01*
X1525117Y6498285D01*
X1524203Y6483096D01*
X1525117Y6467906D01*
X1527860Y6452971D01*
X1532382Y6438442D01*
X1538630Y6424574D01*
X1546504Y6411569D01*
X1555851Y6399631D01*
X1566621Y6388862D01*
X1578610Y6379514D01*
X1591614Y6371640D01*
X1605534Y6365341D01*
X1608683Y6363157D01*
X1610766Y6359906D01*
X1611528Y6356096D01*
X1610766Y6352286D01*
X1608683Y6349085D01*
X1605534Y6346850D01*
X1591614Y6340551D01*
X1578610Y6332728D01*
X1566621Y6323330D01*
X1555851Y6312560D01*
X1546504Y6300622D01*
X1538630Y6287617D01*
X1532382Y6273749D01*
X1527860Y6259220D01*
X1525117Y6244285D01*
X1524203Y6229096D01*
X1525117Y6213906D01*
X1527860Y6198971D01*
X1532382Y6184442D01*
X1538630Y6170574D01*
X1546504Y6157569D01*
X1555851Y6145631D01*
X1566621Y6134862D01*
X1578610Y6125514D01*
X1591614Y6117640D01*
X1605534Y6111341D01*
X1608683Y6109157D01*
X1610766Y6105906D01*
X1611528Y6102096D01*
X1610766Y6098286D01*
X1608683Y6095085D01*
X1605534Y6092850D01*
X1591614Y6086551D01*
X1578610Y6078728D01*
X1566621Y6069330D01*
X1555851Y6058560D01*
X1546504Y6046622D01*
X1538630Y6033617D01*
X1532382Y6019749D01*
X1527860Y6005220D01*
X1525117Y5990285D01*
X1524203Y5975096D01*
X1525117Y5959906D01*
X1527860Y5944971D01*
X1532382Y5930442D01*
X1538630Y5916574D01*
X1546504Y5903569D01*
X1555851Y5891631D01*
X1566621Y5880862D01*
X1578610Y5871514D01*
X1591614Y5863640D01*
X1605534Y5857341D01*
X1608683Y5855157D01*
X1610766Y5851906D01*
X1611528Y5848096D01*
X1610766Y5844286D01*
X1608683Y5841085D01*
X1605534Y5838850D01*
X1591614Y5832551D01*
X1578610Y5824728D01*
X1566621Y5815330D01*
X1555851Y5804560D01*
X1546504Y5792622D01*
X1538630Y5779617D01*
X1532382Y5765749D01*
X1527860Y5751220D01*
X1525117Y5736285D01*
X1524203Y5721096D01*
X1525117Y5705906D01*
X1527860Y5690971D01*
X1532382Y5676442D01*
X1538630Y5662574D01*
X1546504Y5649569D01*
X1555851Y5637631D01*
X1566621Y5626862D01*
X1578610Y5617514D01*
X1591614Y5609640D01*
X1605534Y5603341D01*
X1608683Y5601157D01*
X1610766Y5597906D01*
X1611528Y5594096D01*
X1610766Y5590286D01*
X1608683Y5587085D01*
X1605534Y5584850D01*
X1591614Y5578551D01*
X1578610Y5570728D01*
X1566621Y5561330D01*
X1555851Y5550560D01*
X1546504Y5538622D01*
X1538630Y5525617D01*
X1532382Y5511749D01*
X1527860Y5497220D01*
X1525117Y5482285D01*
X1524203Y5467096D01*
X1525117Y5451906D01*
X1527860Y5436971D01*
X1532382Y5422442D01*
X1538630Y5408574D01*
X1546504Y5395569D01*
X1555851Y5383631D01*
X1566621Y5372862D01*
X1578610Y5363514D01*
X1591614Y5355640D01*
X1605534Y5349341D01*
X1608683Y5347157D01*
X1610766Y5343906D01*
X1611528Y5340096D01*
X1610766Y5336286D01*
X1608683Y5333085D01*
X1605534Y5330850D01*
X1591614Y5324551D01*
X1578610Y5316728D01*
X1566621Y5307330D01*
X1555851Y5296560D01*
X1546504Y5284622D01*
X1538630Y5271617D01*
X1532382Y5257749D01*
X1527860Y5243220D01*
X1525117Y5228285D01*
X1524203Y5213096D01*
X1525117Y5197906D01*
X1527860Y5182971D01*
X1532382Y5168442D01*
X1538630Y5154574D01*
X1546504Y5141569D01*
X1555851Y5129631D01*
X1566621Y5118862D01*
X1578610Y5109514D01*
X1591614Y5101640D01*
X1605534Y5095341D01*
X1608683Y5093157D01*
X1610766Y5089906D01*
X1611528Y5086096D01*
X1610766Y5082286D01*
X1608683Y5079085D01*
X1605534Y5076850D01*
X1591614Y5070551D01*
X1578610Y5062728D01*
X1566621Y5053330D01*
X1555851Y5042560D01*
X1546504Y5030622D01*
X1538630Y5017617D01*
X1532382Y5003749D01*
X1527860Y4989220D01*
X1525117Y4974285D01*
X1524203Y4959096D01*
X1525117Y4943906D01*
X1527860Y4928971D01*
X1532382Y4914442D01*
X1538630Y4900574D01*
X1546504Y4887569D01*
X1555851Y4875631D01*
X1566621Y4864862D01*
X1578610Y4855514D01*
X1591614Y4847640D01*
X1605534Y4841341D01*
X1608683Y4839157D01*
X1610766Y4835906D01*
X1611528Y4832096D01*
X1610766Y4828286D01*
X1608683Y4825085D01*
X1605534Y4822850D01*
X1591614Y4816551D01*
X1578610Y4808728D01*
X1566621Y4799330D01*
X1555851Y4788560D01*
X1546504Y4776622D01*
X1538630Y4763617D01*
X1532382Y4749749D01*
X1527860Y4735220D01*
X1525117Y4720285D01*
X1524203Y4705096D01*
X1525117Y4689906D01*
X1527860Y4674971D01*
X1532382Y4660442D01*
X1538630Y4646574D01*
X1546504Y4633569D01*
X1555851Y4621631D01*
X1566621Y4610862D01*
X1578610Y4601514D01*
X1591614Y4593640D01*
X1605534Y4587341D01*
X1608683Y4585157D01*
X1610766Y4581906D01*
X1611528Y4578096D01*
X1610766Y4574286D01*
X1608683Y4571085D01*
X1605534Y4568850D01*
X1591614Y4562551D01*
X1578610Y4554728D01*
X1566621Y4545330D01*
X1555851Y4534560D01*
X1546504Y4522622D01*
X1538630Y4509617D01*
X1532382Y4495749D01*
X1527860Y4481220D01*
X1525117Y4466285D01*
X1524203Y4451096D01*
X1525117Y4435906D01*
X1527860Y4420971D01*
X1532382Y4406442D01*
X1538630Y4392574D01*
X1546504Y4379569D01*
X1555851Y4367631D01*
X1566621Y4356862D01*
X1578610Y4347514D01*
X1591614Y4339640D01*
X1605534Y4333341D01*
X1608683Y4331157D01*
X1610766Y4327906D01*
X1611528Y4324096D01*
X1610766Y4320286D01*
X1608683Y4317085D01*
X1605534Y4314850D01*
X1591614Y4308551D01*
X1578610Y4300728D01*
X1566621Y4291330D01*
X1555851Y4280560D01*
X1546504Y4268622D01*
X1538630Y4255617D01*
X1532382Y4241749D01*
X1527860Y4227220D01*
X1525117Y4212285D01*
X1524203Y4197096D01*
X1525117Y4181906D01*
X1527860Y4166971D01*
X1532382Y4152442D01*
X1538630Y4138574D01*
X1546504Y4125569D01*
X1555851Y4113631D01*
X1566621Y4102862D01*
X1578610Y4093514D01*
X1591614Y4085640D01*
X1605534Y4079392D01*
X1608683Y4077157D01*
X1610766Y4073906D01*
X1611528Y4070096D01*
X1610766Y4066286D01*
X1608683Y4063085D01*
X1605534Y4060850D01*
X1591614Y4054551D01*
X1578610Y4046728D01*
X1566621Y4037329D01*
X1555851Y4026560D01*
X1546504Y4014622D01*
X1538630Y4001617D01*
X1532382Y3987749D01*
X1527860Y3973220D01*
X1525117Y3958285D01*
X1524203Y3943096D01*
X1525117Y3927906D01*
X1527860Y3912971D01*
X1532382Y3898442D01*
X1538630Y3884625D01*
X1546504Y3871569D01*
X1555851Y3859631D01*
X1566621Y3848862D01*
X1578610Y3839514D01*
X1591614Y3831640D01*
X1605534Y3825392D01*
X1608683Y3823157D01*
X1610766Y3819906D01*
X1611528Y3816096D01*
X1610766Y3812286D01*
X1608683Y3809085D01*
X1605534Y3806850D01*
X1591614Y3800551D01*
X1578610Y3792728D01*
X1566621Y3783329D01*
X1555851Y3772560D01*
X1546504Y3760622D01*
X1538630Y3747617D01*
X1532382Y3733749D01*
X1527860Y3719220D01*
X1525117Y3704285D01*
X1524203Y3689096D01*
X1525117Y3673906D01*
X1527860Y3658971D01*
X1532382Y3644442D01*
X1538630Y3630625D01*
X1546504Y3617569D01*
X1555851Y3605631D01*
X1566621Y3594862D01*
X1578610Y3585514D01*
X1591614Y3577640D01*
X1605534Y3571392D01*
X1608683Y3569157D01*
X1610766Y3565906D01*
X1611528Y3562096D01*
X1610766Y3558286D01*
X1608683Y3555085D01*
X1605534Y3552850D01*
X1591614Y3546551D01*
X1578610Y3538728D01*
X1566621Y3529329D01*
X1555851Y3518560D01*
X1546504Y3506622D01*
X1538630Y3493617D01*
X1532382Y3479749D01*
X1527860Y3465220D01*
X1525117Y3450285D01*
X1524203Y3435096D01*
X1525117Y3419906D01*
X1527860Y3404971D01*
X1532382Y3390442D01*
X1538630Y3376625D01*
X1546504Y3363569D01*
X1555851Y3351631D01*
X1566621Y3340862D01*
X1578610Y3331514D01*
X1591614Y3323640D01*
X1605534Y3317392D01*
X1608683Y3315157D01*
X1610766Y3311906D01*
X1611528Y3308096D01*
X1610766Y3304286D01*
X1608683Y3301085D01*
X1605534Y3298850D01*
X1591614Y3292551D01*
X1578610Y3284728D01*
X1566621Y3275329D01*
X1555851Y3264560D01*
X1546504Y3252622D01*
X1538630Y3239617D01*
X1532382Y3225749D01*
X1527860Y3211220D01*
X1525117Y3196285D01*
X1524203Y3181096D01*
X1525117Y3165906D01*
X1527860Y3150971D01*
X1532382Y3136442D01*
X1538630Y3122625D01*
X1546504Y3109569D01*
X1555851Y3097631D01*
X1566621Y3086862D01*
X1578610Y3077514D01*
X1591614Y3069640D01*
X1605534Y3063392D01*
X1608683Y3061157D01*
X1610766Y3057906D01*
X1611528Y3054096D01*
X1610766Y3050286D01*
X1608683Y3047085D01*
X1605534Y3044850D01*
X1591614Y3038551D01*
X1578610Y3030728D01*
X1566621Y3021330D01*
X1555851Y3010560D01*
X1546504Y2998622D01*
X1538630Y2985617D01*
X1532382Y2971749D01*
X1527860Y2957220D01*
X1525117Y2942285D01*
X1524203Y2927096D01*
X1525117Y2911906D01*
X1527860Y2896971D01*
X1532382Y2882442D01*
X1538630Y2868625D01*
X1546504Y2855569D01*
X1555851Y2843631D01*
X1566621Y2832862D01*
X1578610Y2823514D01*
X1591614Y2815640D01*
X1605534Y2809392D01*
X1608683Y2807157D01*
X1610766Y2803906D01*
X1611528Y2800096D01*
X1610766Y2796336D01*
X1608683Y2793085D01*
X1605534Y2790850D01*
X1591614Y2784551D01*
X1578610Y2776728D01*
X1566621Y2767330D01*
X1555851Y2756611D01*
X1546504Y2744622D01*
X1538630Y2731617D01*
X1532382Y2717749D01*
X1527860Y2703220D01*
X1525117Y2688285D01*
X1524203Y2673096D01*
X1525117Y2657906D01*
X1527860Y2642971D01*
X1532382Y2628442D01*
X1538630Y2614625D01*
X1546504Y2601569D01*
X1555851Y2589631D01*
X1566621Y2578862D01*
X1578610Y2569514D01*
X1591614Y2561640D01*
X1605534Y2555392D01*
X1608683Y2553157D01*
X1610766Y2549906D01*
X1611528Y2546096D01*
X1610766Y2542336D01*
X1608683Y2539085D01*
X1605534Y2536850D01*
X1591614Y2530551D01*
X1580337Y2523794D01*
X1576120Y2522372D01*
X1571701Y2522880D01*
X1567891Y2525268D01*
X1425905Y2667304D01*
X1423670Y2670606D01*
X1422908Y2674518D01*
X1422908Y8336381D01*
X1423670Y8340293D01*
X1425905Y8343595D01*
X1562404Y8480094D01*
X1565706Y8482330D01*
X1569618Y8483092D01*
X1879092Y8483092D01*
X1887118Y8483904D01*
X1894332Y8486089D01*
X1901037Y8489645D01*
X1907235Y8494776D01*
X2108504Y8695994D01*
X2111806Y8698230D01*
X2115718Y8698992D01*
X3453892Y8698992D01*
X3461918Y8699804D01*
X3469132Y8701989D01*
X3475837Y8705545D01*
X3482035Y8710676D01*
X3811524Y9040164D01*
X3816654Y9046362D01*
X3820210Y9053068D01*
X3822395Y9060281D01*
X3823208Y9068308D01*
X3823208Y9196781D01*
X3823868Y9200286D01*
X3825697Y9203385D01*
X3828491Y9205671D01*
X3838905Y9211360D01*
X3849725Y9219336D01*
X3859428Y9228734D01*
X3867759Y9239300D01*
X3874617Y9250883D01*
X3879900Y9263329D01*
X3883456Y9276283D01*
X3885234Y9289643D01*
X3885234Y9303156D01*
X3883456Y9316516D01*
X3879900Y9329470D01*
X3874617Y9341916D01*
X3867759Y9353499D01*
X3859428Y9364065D01*
X3849725Y9373463D01*
X3838905Y9381439D01*
X3827068Y9387890D01*
X3814470Y9392767D01*
X3801364Y9395866D01*
X3787952Y9397238D01*
X3774490Y9396780D01*
X3761232Y9394545D01*
X3748328Y9390532D01*
X3736136Y9384893D01*
X3724757Y9377629D01*
X3714445Y9368942D01*
X3705402Y9358934D01*
X3697782Y9347809D01*
X3691737Y9335770D01*
X3687318Y9323070D01*
X3684625Y9309862D01*
X3683711Y9296400D01*
X3684625Y9282938D01*
X3687318Y9269730D01*
X3691737Y9257030D01*
X3697782Y9244990D01*
X3705402Y9233865D01*
X3714445Y9223857D01*
X3724757Y9215170D01*
X3736136Y9207906D01*
X3740099Y9206077D01*
X3743198Y9203842D01*
X3745280Y9200642D01*
X3745992Y9196882D01*
X3745992Y9088018D01*
X3745229Y9084106D01*
X3742994Y9080804D01*
X3441395Y8779205D01*
X3438093Y8776970D01*
X3434181Y8776208D01*
X2096007Y8776208D01*
X2087981Y8775395D01*
X2080768Y8773210D01*
X2074062Y8769654D01*
X2067864Y8764524D01*
X1866595Y8563305D01*
X1863293Y8561070D01*
X1859381Y8560308D01*
X1549908Y8560308D01*
X1541881Y8559495D01*
X1534668Y8557310D01*
X1527962Y8553754D01*
X1521764Y8548624D01*
X1357376Y8384235D01*
X1352245Y8378037D01*
X1348689Y8371331D01*
X1346504Y8364118D01*
X1345692Y8356092D01*
X1345692Y2654808D01*
X1346504Y2646781D01*
X1348689Y2639568D01*
X1352245Y2632862D01*
X1357376Y2626664D01*
X1525168Y2458821D01*
X1527048Y2456180D01*
X1528064Y2453081D01*
X1527962Y2449830D01*
X1525117Y2434285D01*
X1524203Y2419096D01*
X1525117Y2403906D01*
X1527860Y2388971D01*
X1532382Y2374442D01*
X1538630Y2360625D01*
X1540611Y2357272D01*
X1542034Y2353360D01*
X1541678Y2349195D01*
X1539697Y2345486D01*
X1536446Y2342946D01*
X1532382Y2341880D01*
X1528267Y2342591D01*
X1524762Y2344877D01*
X1083005Y2786634D01*
X1080770Y2789936D01*
X1080008Y2793796D01*
X1080008Y4852111D01*
X1080668Y4855768D01*
X1082649Y4858969D01*
X1085596Y4861204D01*
X1093419Y4865166D01*
X1104646Y4872888D01*
X1114806Y4882032D01*
X1123594Y4892446D01*
X1130909Y4903927D01*
X1136650Y4916322D01*
X1140714Y4929327D01*
X1142949Y4942789D01*
X1143406Y4956403D01*
X1142085Y4969967D01*
X1138885Y4983226D01*
X1134008Y4995976D01*
X1127455Y5007914D01*
X1119378Y5018887D01*
X1109878Y5028692D01*
X1099159Y5037175D01*
X1087424Y5044135D01*
X1074877Y5049418D01*
X1061720Y5053025D01*
X1048207Y5054854D01*
X1034592Y5054854D01*
X1021080Y5053025D01*
X1007922Y5049418D01*
X995375Y5044135D01*
X983640Y5037175D01*
X972921Y5028692D01*
X963421Y5018887D01*
X955344Y5007914D01*
X948791Y4995976D01*
X943914Y4983226D01*
X940714Y4969967D01*
X939393Y4956403D01*
X939850Y4942789D01*
X942086Y4929327D01*
X946150Y4916322D01*
X951890Y4903927D01*
X959205Y4892446D01*
X967994Y4882032D01*
X978153Y4872888D01*
X989380Y4865166D01*
X997203Y4861204D01*
X1000150Y4858969D01*
X1002131Y4855768D01*
X1002792Y4852111D01*
X1002792Y2774086D01*
X1003604Y2766060D01*
X1005789Y2758846D01*
X1009345Y2752191D01*
X1014476Y2745943D01*
X1533093Y2227326D01*
X1535328Y2223922D01*
X1536090Y2219909D01*
X1535176Y2215946D01*
X1532382Y2209749D01*
X1527860Y2195220D01*
X1525117Y2180285D01*
X1524203Y2165096D01*
X1525117Y2149906D01*
X1527860Y2134971D01*
X1532382Y2120442D01*
X1538630Y2106625D01*
X1546504Y2093569D01*
X1555851Y2081631D01*
X1566621Y2070862D01*
X1578610Y2061514D01*
X1591614Y2053640D01*
X1605534Y2047392D01*
X1619961Y2042871D01*
X1634947Y2040128D01*
G37*
G36*
X2667000Y2845714D02*
G01*
X2679649Y2846628D01*
X2692044Y2849321D01*
X2703931Y2853740D01*
X2715056Y2859836D01*
X2725216Y2867406D01*
X2734157Y2876397D01*
X2741777Y2886557D01*
X2747873Y2897682D01*
X2752293Y2909570D01*
X2754985Y2921965D01*
X2755900Y2934614D01*
X2754985Y2947263D01*
X2752293Y2959658D01*
X2747873Y2971546D01*
X2741777Y2982671D01*
X2734157Y2992780D01*
X2725216Y3001772D01*
X2715056Y3009392D01*
X2703931Y3015437D01*
X2692044Y3019856D01*
X2679649Y3022600D01*
X2667000Y3023463D01*
X2654350Y3022600D01*
X2641955Y3019856D01*
X2630068Y3015437D01*
X2618943Y3009392D01*
X2608783Y3001772D01*
X2599842Y2992780D01*
X2592222Y2982671D01*
X2586126Y2971546D01*
X2581706Y2959658D01*
X2579014Y2947263D01*
X2578100Y2934614D01*
X2579014Y2921965D01*
X2581706Y2909570D01*
X2586126Y2897682D01*
X2592222Y2886557D01*
X2599842Y2876397D01*
X2608783Y2867406D01*
X2618943Y2859836D01*
X2630068Y2853740D01*
X2641955Y2849321D01*
X2654350Y2846628D01*
G37*
G36*
X2921000Y2845714D02*
G01*
X2933649Y2846628D01*
X2946044Y2849321D01*
X2957931Y2853740D01*
X2969056Y2859836D01*
X2979216Y2867406D01*
X2988157Y2876397D01*
X2995777Y2886557D01*
X3001822Y2897682D01*
X3006293Y2909570D01*
X3008985Y2921965D01*
X3009900Y2934614D01*
X3008985Y2947263D01*
X3006293Y2959658D01*
X3001822Y2971546D01*
X2995777Y2982671D01*
X2988157Y2992780D01*
X2979216Y3001772D01*
X2969056Y3009392D01*
X2957931Y3015437D01*
X2946044Y3019856D01*
X2933649Y3022600D01*
X2921000Y3023463D01*
X2908350Y3022600D01*
X2895955Y3019856D01*
X2884068Y3015437D01*
X2872943Y3009392D01*
X2862783Y3001772D01*
X2853842Y2992780D01*
X2846222Y2982671D01*
X2840126Y2971546D01*
X2835706Y2959658D01*
X2833014Y2947263D01*
X2832100Y2934614D01*
X2833014Y2921965D01*
X2835706Y2909570D01*
X2840126Y2897682D01*
X2846222Y2886557D01*
X2853842Y2876397D01*
X2862783Y2867406D01*
X2872943Y2859836D01*
X2884068Y2853740D01*
X2895955Y2849321D01*
X2908350Y2846628D01*
G37*
G36*
X3429000Y2845714D02*
G01*
X3441649Y2846628D01*
X3454044Y2849321D01*
X3465931Y2853740D01*
X3477056Y2859836D01*
X3487216Y2867406D01*
X3496157Y2876397D01*
X3503777Y2886557D01*
X3509822Y2897682D01*
X3514293Y2909570D01*
X3516985Y2921965D01*
X3517900Y2934614D01*
X3516985Y2947263D01*
X3514293Y2959658D01*
X3509822Y2971546D01*
X3503777Y2982671D01*
X3496157Y2992780D01*
X3487216Y3001772D01*
X3477056Y3009392D01*
X3465931Y3015437D01*
X3454044Y3019856D01*
X3441649Y3022600D01*
X3429000Y3023463D01*
X3416350Y3022600D01*
X3403955Y3019856D01*
X3392068Y3015437D01*
X3380943Y3009392D01*
X3370783Y3001772D01*
X3361842Y2992780D01*
X3354222Y2982671D01*
X3348126Y2971546D01*
X3343706Y2959658D01*
X3341014Y2947263D01*
X3340100Y2934614D01*
X3341014Y2921965D01*
X3343706Y2909570D01*
X3348126Y2897682D01*
X3354222Y2886557D01*
X3361842Y2876397D01*
X3370783Y2867406D01*
X3380943Y2859836D01*
X3392068Y2853740D01*
X3403955Y2849321D01*
X3416350Y2846628D01*
G37*
G36*
X2413000Y2845714D02*
G01*
X2425649Y2846628D01*
X2438044Y2849321D01*
X2449931Y2853740D01*
X2461056Y2859836D01*
X2471216Y2867406D01*
X2480157Y2876397D01*
X2487777Y2886557D01*
X2493873Y2897682D01*
X2498293Y2909570D01*
X2500985Y2921965D01*
X2501900Y2934614D01*
X2500985Y2947263D01*
X2498293Y2959658D01*
X2493873Y2971546D01*
X2487777Y2982671D01*
X2480157Y2992780D01*
X2471216Y3001772D01*
X2461056Y3009392D01*
X2449931Y3015437D01*
X2438044Y3019856D01*
X2425649Y3022600D01*
X2413000Y3023463D01*
X2400350Y3022600D01*
X2388717Y3020060D01*
X2385364Y3019907D01*
X2382164Y3020822D01*
X2379370Y3022803D01*
X2213305Y3188919D01*
X2211070Y3192221D01*
X2210308Y3196082D01*
X2210308Y5148681D01*
X2211070Y5152593D01*
X2213305Y5155895D01*
X2426004Y5368594D01*
X2429306Y5370830D01*
X2433218Y5371592D01*
X2964281Y5371592D01*
X2968193Y5370830D01*
X2971495Y5368594D01*
X3127197Y5212892D01*
X3129330Y5209794D01*
X3130143Y5206136D01*
X3129584Y5202377D01*
X3127349Y5195874D01*
X3124606Y5182514D01*
X3123692Y5168900D01*
X3124606Y5155285D01*
X3127349Y5141925D01*
X3131820Y5129022D01*
X3137966Y5116880D01*
X3145688Y5105654D01*
X3154832Y5095494D01*
X3165246Y5086705D01*
X3176727Y5079390D01*
X3189122Y5073650D01*
X3202127Y5069586D01*
X3215589Y5067350D01*
X3229203Y5066893D01*
X3242767Y5068214D01*
X3256026Y5071414D01*
X3268776Y5076291D01*
X3280714Y5082844D01*
X3291687Y5090922D01*
X3301492Y5100421D01*
X3309975Y5111140D01*
X3316935Y5122875D01*
X3322218Y5135422D01*
X3325825Y5148580D01*
X3327654Y5162092D01*
X3327654Y5175707D01*
X3325825Y5189220D01*
X3322218Y5202377D01*
X3316935Y5214924D01*
X3309975Y5226659D01*
X3301492Y5237378D01*
X3291687Y5246878D01*
X3280714Y5254955D01*
X3268776Y5261508D01*
X3256026Y5266385D01*
X3242767Y5269585D01*
X3229203Y5270906D01*
X3215589Y5270449D01*
X3202127Y5268214D01*
X3191916Y5265064D01*
X3188309Y5264607D01*
X3184753Y5265470D01*
X3181756Y5267553D01*
X3012135Y5437124D01*
X3005937Y5442254D01*
X2999232Y5445810D01*
X2992018Y5447995D01*
X2983992Y5448808D01*
X2413508Y5448808D01*
X2405481Y5447995D01*
X2398268Y5445810D01*
X2391562Y5442254D01*
X2385364Y5437124D01*
X2144776Y5196535D01*
X2139645Y5190337D01*
X2136089Y5183632D01*
X2133904Y5176418D01*
X2133092Y5168392D01*
X2133092Y3176371D01*
X2133904Y3168345D01*
X2136089Y3161131D01*
X2139645Y3154476D01*
X2144776Y3148228D01*
X2324811Y2968193D01*
X2326741Y2965450D01*
X2327706Y2962198D01*
X2327554Y2958846D01*
X2325014Y2947263D01*
X2324100Y2934614D01*
X2325014Y2921965D01*
X2327706Y2909570D01*
X2332126Y2897682D01*
X2338222Y2886557D01*
X2345842Y2876397D01*
X2354783Y2867406D01*
X2364943Y2859836D01*
X2376068Y2853740D01*
X2387955Y2849321D01*
X2400350Y2846628D01*
G37*
G36*
X2196846Y2854248D02*
G01*
X2207056Y2859836D01*
X2217216Y2867406D01*
X2226157Y2876397D01*
X2233777Y2886557D01*
X2239365Y2896768D01*
X2196846Y2896768D01*
G37*
G36*
X2121154Y2854248D02*
G01*
X2121154Y2896768D01*
X2078634Y2896768D01*
X2084222Y2886557D01*
X2091842Y2876397D01*
X2100783Y2867406D01*
X2110943Y2859836D01*
G37*
G36*
X2078634Y2972460D02*
G01*
X2121154Y2972460D01*
X2121154Y3014929D01*
X2110943Y3009392D01*
X2100783Y3001772D01*
X2091842Y2992780D01*
X2084222Y2982671D01*
G37*
G36*
X2196846Y2972460D02*
G01*
X2239365Y2972460D01*
X2233777Y2982671D01*
X2226157Y2992780D01*
X2217216Y3001772D01*
X2207056Y3009392D01*
X2196846Y3014929D01*
G37*
G36*
X4401159Y4633772D02*
G01*
X4401159Y4680559D01*
X4354372Y4680559D01*
X4356506Y4675936D01*
X4363770Y4664557D01*
X4372457Y4654245D01*
X4382465Y4645202D01*
X4393590Y4637582D01*
G37*
G36*
X4488840Y4633772D02*
G01*
X4496409Y4637582D01*
X4507534Y4645202D01*
X4517542Y4654245D01*
X4526229Y4664557D01*
X4533493Y4675936D01*
X4535627Y4680559D01*
X4488840Y4680559D01*
G37*
G36*
X4354271Y4768240D02*
G01*
X4401159Y4768240D01*
X4401159Y4815128D01*
X4399483Y4814417D01*
X4387900Y4807559D01*
X4377334Y4799228D01*
X4367936Y4789525D01*
X4359960Y4778705D01*
G37*
G36*
X4488840Y4768240D02*
G01*
X4535728Y4768240D01*
X4530039Y4778705D01*
X4522063Y4789525D01*
X4512665Y4799228D01*
X4502099Y4807559D01*
X4490516Y4814417D01*
X4488840Y4815128D01*
G37*
G36*
X2975203Y4812893D02*
G01*
X2988767Y4814214D01*
X3002026Y4817414D01*
X3014776Y4822291D01*
X3026714Y4828844D01*
X3037687Y4836922D01*
X3047492Y4846421D01*
X3055975Y4857140D01*
X3062935Y4868875D01*
X3068218Y4881422D01*
X3071825Y4894580D01*
X3073654Y4908092D01*
X3073654Y4921707D01*
X3071825Y4935220D01*
X3068218Y4948377D01*
X3062935Y4960924D01*
X3055975Y4972659D01*
X3047492Y4983378D01*
X3037687Y4992878D01*
X3026714Y5000955D01*
X3014776Y5007508D01*
X3002026Y5012385D01*
X2988767Y5015585D01*
X2975203Y5016906D01*
X2961589Y5016449D01*
X2948127Y5014214D01*
X2935122Y5010150D01*
X2922727Y5004409D01*
X2911246Y4997094D01*
X2900832Y4988306D01*
X2891688Y4978146D01*
X2883966Y4966919D01*
X2877820Y4954778D01*
X2873349Y4941874D01*
X2870606Y4928514D01*
X2869692Y4914900D01*
X2870606Y4901285D01*
X2873349Y4887925D01*
X2877820Y4875022D01*
X2883966Y4862880D01*
X2891688Y4851654D01*
X2900832Y4841494D01*
X2911246Y4832705D01*
X2922727Y4825390D01*
X2935122Y4819650D01*
X2948127Y4815586D01*
X2961589Y4813350D01*
G37*
G36*
X3229203Y4812893D02*
G01*
X3242767Y4814214D01*
X3256026Y4817414D01*
X3268776Y4822291D01*
X3280714Y4828844D01*
X3291687Y4836922D01*
X3301492Y4846421D01*
X3309975Y4857140D01*
X3316935Y4868875D01*
X3322218Y4881422D01*
X3325825Y4894580D01*
X3327654Y4908092D01*
X3327654Y4921707D01*
X3325825Y4935220D01*
X3322218Y4948377D01*
X3316935Y4960924D01*
X3309975Y4972659D01*
X3301492Y4983378D01*
X3291687Y4992878D01*
X3280714Y5000955D01*
X3268776Y5007508D01*
X3256026Y5012385D01*
X3242767Y5015585D01*
X3229203Y5016906D01*
X3215589Y5016449D01*
X3202127Y5014214D01*
X3189122Y5010150D01*
X3176727Y5004409D01*
X3165246Y4997094D01*
X3154832Y4988306D01*
X3145688Y4978146D01*
X3137966Y4966919D01*
X3131820Y4954778D01*
X3127349Y4941874D01*
X3124606Y4928514D01*
X3123692Y4914900D01*
X3124606Y4901285D01*
X3127349Y4887925D01*
X3131820Y4875022D01*
X3137966Y4862880D01*
X3145688Y4851654D01*
X3154832Y4841494D01*
X3165246Y4832705D01*
X3176727Y4825390D01*
X3189122Y4819650D01*
X3202127Y4815586D01*
X3215589Y4813350D01*
G37*
G36*
X2467203Y4812893D02*
G01*
X2480767Y4814214D01*
X2494026Y4817414D01*
X2506776Y4822291D01*
X2518714Y4828844D01*
X2529687Y4836922D01*
X2539492Y4846421D01*
X2547975Y4857140D01*
X2554935Y4868875D01*
X2560218Y4881422D01*
X2563825Y4894580D01*
X2565654Y4908092D01*
X2565654Y4921707D01*
X2563825Y4935220D01*
X2560218Y4948377D01*
X2554935Y4960924D01*
X2547975Y4972659D01*
X2539492Y4983378D01*
X2529687Y4992878D01*
X2518714Y5000955D01*
X2506776Y5007508D01*
X2494026Y5012385D01*
X2480767Y5015585D01*
X2467203Y5016906D01*
X2453589Y5016449D01*
X2440127Y5014214D01*
X2427122Y5010150D01*
X2414727Y5004409D01*
X2403246Y4997094D01*
X2392832Y4988306D01*
X2383688Y4978146D01*
X2375966Y4966919D01*
X2369820Y4954778D01*
X2365349Y4941874D01*
X2362606Y4928514D01*
X2361692Y4914900D01*
X2362606Y4901285D01*
X2365349Y4887925D01*
X2369820Y4875022D01*
X2375966Y4862880D01*
X2383688Y4851654D01*
X2392832Y4841494D01*
X2403246Y4832705D01*
X2414727Y4825390D01*
X2427122Y4819650D01*
X2440127Y4815586D01*
X2453589Y4813350D01*
G37*
G36*
X2721203Y4812893D02*
G01*
X2734767Y4814214D01*
X2748026Y4817414D01*
X2760776Y4822291D01*
X2772714Y4828844D01*
X2783687Y4836922D01*
X2793492Y4846421D01*
X2801975Y4857140D01*
X2808935Y4868875D01*
X2814218Y4881422D01*
X2817825Y4894580D01*
X2819654Y4908092D01*
X2819654Y4921707D01*
X2817825Y4935220D01*
X2814218Y4948377D01*
X2808935Y4960924D01*
X2801975Y4972659D01*
X2793492Y4983378D01*
X2783687Y4992878D01*
X2772714Y5000955D01*
X2760776Y5007508D01*
X2748026Y5012385D01*
X2734767Y5015585D01*
X2721203Y5016906D01*
X2707589Y5016449D01*
X2694127Y5014214D01*
X2681122Y5010150D01*
X2668727Y5004409D01*
X2657246Y4997094D01*
X2646832Y4988306D01*
X2637688Y4978146D01*
X2629966Y4966919D01*
X2623820Y4954778D01*
X2619349Y4941874D01*
X2616606Y4928514D01*
X2615692Y4914900D01*
X2616606Y4901285D01*
X2619349Y4887925D01*
X2623820Y4875022D01*
X2629966Y4862880D01*
X2637688Y4851654D01*
X2646832Y4841494D01*
X2657246Y4832705D01*
X2668727Y4825390D01*
X2681122Y4819650D01*
X2694127Y4815586D01*
X2707589Y4813350D01*
G37*
G36*
X4445000Y4877511D02*
G01*
X4458462Y4878425D01*
X4471670Y4881118D01*
X4484370Y4885537D01*
X4496409Y4891582D01*
X4507534Y4899202D01*
X4517542Y4908245D01*
X4526229Y4918557D01*
X4533493Y4929936D01*
X4539132Y4942128D01*
X4543145Y4955032D01*
X4545380Y4968290D01*
X4545838Y4981752D01*
X4544466Y4995164D01*
X4541367Y5008270D01*
X4536490Y5020868D01*
X4530039Y5032705D01*
X4522063Y5043525D01*
X4512665Y5053228D01*
X4502099Y5061559D01*
X4490516Y5068417D01*
X4478070Y5073700D01*
X4465116Y5077256D01*
X4451756Y5079034D01*
X4438243Y5079034D01*
X4424883Y5077256D01*
X4411929Y5073700D01*
X4399483Y5068417D01*
X4387900Y5061559D01*
X4377334Y5053228D01*
X4367936Y5043525D01*
X4359960Y5032705D01*
X4353509Y5020868D01*
X4348632Y5008270D01*
X4345533Y4995164D01*
X4344162Y4981752D01*
X4344619Y4968290D01*
X4346854Y4955032D01*
X4350867Y4942128D01*
X4356506Y4929936D01*
X4363770Y4918557D01*
X4372457Y4908245D01*
X4382465Y4899202D01*
X4393590Y4891582D01*
X4405630Y4885537D01*
X4418330Y4881118D01*
X4431538Y4878425D01*
G37*
G36*
X2721203Y5066893D02*
G01*
X2734767Y5068214D01*
X2748026Y5071414D01*
X2760776Y5076291D01*
X2772714Y5082844D01*
X2783687Y5090922D01*
X2793492Y5100421D01*
X2801975Y5111140D01*
X2808935Y5122875D01*
X2814218Y5135422D01*
X2817825Y5148580D01*
X2819654Y5162092D01*
X2819654Y5175707D01*
X2817825Y5189220D01*
X2814218Y5202377D01*
X2808935Y5214924D01*
X2801975Y5226659D01*
X2793492Y5237378D01*
X2783687Y5246878D01*
X2772714Y5254955D01*
X2760776Y5261508D01*
X2748026Y5266385D01*
X2734767Y5269585D01*
X2721203Y5270906D01*
X2707589Y5270449D01*
X2694127Y5268214D01*
X2681122Y5264150D01*
X2668727Y5258409D01*
X2657246Y5251094D01*
X2646832Y5242306D01*
X2637688Y5232146D01*
X2629966Y5220919D01*
X2623820Y5208778D01*
X2619349Y5195874D01*
X2616606Y5182514D01*
X2615692Y5168900D01*
X2616606Y5155285D01*
X2619349Y5141925D01*
X2623820Y5129022D01*
X2629966Y5116880D01*
X2637688Y5105654D01*
X2646832Y5095494D01*
X2657246Y5086705D01*
X2668727Y5079390D01*
X2681122Y5073650D01*
X2694127Y5069586D01*
X2707589Y5067350D01*
G37*
G36*
X2975203Y5066893D02*
G01*
X2988767Y5068214D01*
X3002026Y5071414D01*
X3014776Y5076291D01*
X3026714Y5082844D01*
X3037687Y5090922D01*
X3047492Y5100421D01*
X3055975Y5111140D01*
X3062935Y5122875D01*
X3068218Y5135422D01*
X3071825Y5148580D01*
X3073654Y5162092D01*
X3073654Y5175707D01*
X3071825Y5189220D01*
X3068218Y5202377D01*
X3062935Y5214924D01*
X3055975Y5226659D01*
X3047492Y5237378D01*
X3037687Y5246878D01*
X3026714Y5254955D01*
X3014776Y5261508D01*
X3002026Y5266385D01*
X2988767Y5269585D01*
X2975203Y5270906D01*
X2961589Y5270449D01*
X2948127Y5268214D01*
X2935122Y5264150D01*
X2922727Y5258409D01*
X2911246Y5251094D01*
X2900832Y5242306D01*
X2891688Y5232146D01*
X2883966Y5220919D01*
X2877820Y5208778D01*
X2873349Y5195874D01*
X2870606Y5182514D01*
X2869692Y5168900D01*
X2870606Y5155285D01*
X2873349Y5141925D01*
X2877820Y5129022D01*
X2883966Y5116880D01*
X2891688Y5105654D01*
X2900832Y5095494D01*
X2911246Y5086705D01*
X2922727Y5079390D01*
X2935122Y5073650D01*
X2948127Y5069586D01*
X2961589Y5067350D01*
G37*
G36*
X2508250Y5077104D02*
G01*
X2518714Y5082844D01*
X2529687Y5090922D01*
X2539492Y5100421D01*
X2547975Y5111140D01*
X2554935Y5122875D01*
X2555595Y5124450D01*
X2508250Y5124450D01*
G37*
G36*
X2419350Y5077256D02*
G01*
X2419350Y5124450D01*
X2372156Y5124450D01*
X2375966Y5116880D01*
X2383688Y5105654D01*
X2392832Y5095494D01*
X2403246Y5086705D01*
X2414727Y5079390D01*
G37*
G36*
X4445000Y5131511D02*
G01*
X4458462Y5132425D01*
X4471670Y5135118D01*
X4484370Y5139537D01*
X4496409Y5145582D01*
X4507534Y5153202D01*
X4517542Y5162245D01*
X4526229Y5172557D01*
X4533493Y5183936D01*
X4539132Y5196128D01*
X4543145Y5209032D01*
X4545380Y5222290D01*
X4545838Y5235752D01*
X4544466Y5249164D01*
X4541367Y5262270D01*
X4536490Y5274868D01*
X4530039Y5286705D01*
X4522063Y5297525D01*
X4512665Y5307228D01*
X4502099Y5315559D01*
X4490516Y5322417D01*
X4478070Y5327700D01*
X4465116Y5331256D01*
X4451756Y5333034D01*
X4438243Y5333034D01*
X4424883Y5331256D01*
X4411929Y5327700D01*
X4399483Y5322417D01*
X4387900Y5315559D01*
X4377334Y5307228D01*
X4367936Y5297525D01*
X4359960Y5286705D01*
X4353509Y5274868D01*
X4348632Y5262270D01*
X4345533Y5249164D01*
X4344162Y5235752D01*
X4344619Y5222290D01*
X4346854Y5209032D01*
X4350867Y5196128D01*
X4356506Y5183936D01*
X4363770Y5172557D01*
X4372457Y5162245D01*
X4382465Y5153202D01*
X4393590Y5145582D01*
X4405630Y5139537D01*
X4418330Y5135118D01*
X4431538Y5132425D01*
G37*
G36*
X2372156Y5213350D02*
G01*
X2419350Y5213350D01*
X2419350Y5260543D01*
X2414727Y5258409D01*
X2403246Y5251094D01*
X2392832Y5242306D01*
X2383688Y5232146D01*
X2375966Y5220919D01*
G37*
G36*
X2508250Y5213350D02*
G01*
X2555595Y5213350D01*
X2554935Y5214924D01*
X2547975Y5226659D01*
X2539492Y5237378D01*
X2529687Y5246878D01*
X2518714Y5254955D01*
X2508250Y5260695D01*
G37*
G36*
X4445000Y5385511D02*
G01*
X4458462Y5386425D01*
X4471670Y5389118D01*
X4484370Y5393537D01*
X4496409Y5399582D01*
X4507534Y5407202D01*
X4517542Y5416245D01*
X4526229Y5426557D01*
X4533493Y5437936D01*
X4539132Y5450128D01*
X4543145Y5463032D01*
X4545380Y5476290D01*
X4545838Y5489752D01*
X4544466Y5503164D01*
X4541367Y5516270D01*
X4536490Y5528868D01*
X4530039Y5540705D01*
X4522063Y5551525D01*
X4512665Y5561228D01*
X4502099Y5569559D01*
X4490516Y5576417D01*
X4478070Y5581700D01*
X4465116Y5585256D01*
X4451756Y5587034D01*
X4438243Y5587034D01*
X4424883Y5585256D01*
X4411929Y5581700D01*
X4399483Y5576417D01*
X4387900Y5569559D01*
X4377334Y5561228D01*
X4367936Y5551525D01*
X4359960Y5540705D01*
X4353509Y5528868D01*
X4348632Y5516270D01*
X4345533Y5503164D01*
X4344162Y5489752D01*
X4344619Y5476290D01*
X4346854Y5463032D01*
X4350867Y5450128D01*
X4356506Y5437936D01*
X4363770Y5426557D01*
X4372457Y5416245D01*
X4382465Y5407202D01*
X4393590Y5399582D01*
X4405630Y5393537D01*
X4418330Y5389118D01*
X4431538Y5386425D01*
G37*
G36*
X1041400Y5612892D02*
G01*
X1055014Y5613806D01*
X1068374Y5616549D01*
X1081278Y5621020D01*
X1093419Y5627166D01*
X1104646Y5634888D01*
X1114806Y5644032D01*
X1123594Y5654446D01*
X1130909Y5665927D01*
X1136650Y5678322D01*
X1140714Y5691327D01*
X1142949Y5704789D01*
X1143406Y5718403D01*
X1142085Y5731967D01*
X1138885Y5745226D01*
X1134008Y5757976D01*
X1127455Y5769914D01*
X1119378Y5780887D01*
X1109878Y5790692D01*
X1099159Y5799175D01*
X1082954Y5808827D01*
X1080770Y5812129D01*
X1080008Y5815990D01*
X1080008Y8165693D01*
X1080770Y8169605D01*
X1083005Y8172907D01*
X1584909Y8674811D01*
X1587652Y8676741D01*
X1590852Y8677706D01*
X1594256Y8677554D01*
X1605838Y8675014D01*
X1618488Y8674100D01*
X1631137Y8675014D01*
X1643532Y8677706D01*
X1655419Y8682126D01*
X1666544Y8688222D01*
X1676704Y8695842D01*
X1685645Y8704783D01*
X1693265Y8714943D01*
X1699361Y8726068D01*
X1703781Y8737955D01*
X1706473Y8750350D01*
X1707388Y8763000D01*
X1706473Y8775649D01*
X1703781Y8788044D01*
X1699361Y8799931D01*
X1693265Y8811056D01*
X1685645Y8821216D01*
X1676704Y8830157D01*
X1666544Y8837777D01*
X1655419Y8843873D01*
X1643532Y8848293D01*
X1631137Y8850985D01*
X1618488Y8851900D01*
X1605838Y8850985D01*
X1593443Y8848293D01*
X1581556Y8843873D01*
X1570431Y8837777D01*
X1560271Y8830157D01*
X1551330Y8821216D01*
X1543710Y8811056D01*
X1537665Y8799931D01*
X1533194Y8788044D01*
X1530502Y8775649D01*
X1529638Y8763000D01*
X1530502Y8750350D01*
X1533042Y8738768D01*
X1533194Y8735364D01*
X1532229Y8732164D01*
X1530299Y8729421D01*
X1014476Y8213547D01*
X1009345Y8207349D01*
X1005789Y8200644D01*
X1003604Y8193430D01*
X1002792Y8185403D01*
X1002792Y5815990D01*
X1002030Y5812129D01*
X999845Y5808827D01*
X983640Y5799175D01*
X972921Y5790692D01*
X963421Y5780887D01*
X955344Y5769914D01*
X948791Y5757976D01*
X943914Y5745226D01*
X940714Y5731967D01*
X939393Y5718403D01*
X939850Y5704789D01*
X942086Y5691327D01*
X946150Y5678322D01*
X951890Y5665927D01*
X959205Y5654446D01*
X967994Y5644032D01*
X978153Y5634888D01*
X989380Y5627166D01*
X1001521Y5621020D01*
X1014425Y5616549D01*
X1027785Y5613806D01*
G37*
G36*
X4445000Y5639511D02*
G01*
X4458462Y5640425D01*
X4471670Y5643118D01*
X4484370Y5647537D01*
X4496409Y5653582D01*
X4507534Y5661202D01*
X4517542Y5670245D01*
X4526229Y5680557D01*
X4533493Y5691936D01*
X4539132Y5704128D01*
X4543145Y5717032D01*
X4545380Y5730290D01*
X4545838Y5743752D01*
X4544466Y5757164D01*
X4541367Y5770270D01*
X4536490Y5782868D01*
X4530039Y5794705D01*
X4522063Y5805525D01*
X4512665Y5815228D01*
X4502099Y5823559D01*
X4490516Y5830417D01*
X4478070Y5835700D01*
X4465116Y5839256D01*
X4451756Y5841034D01*
X4438243Y5841034D01*
X4424883Y5839256D01*
X4411929Y5835700D01*
X4399483Y5830417D01*
X4387900Y5823559D01*
X4377334Y5815228D01*
X4367936Y5805525D01*
X4359960Y5794705D01*
X4353509Y5782868D01*
X4348632Y5770270D01*
X4345533Y5757164D01*
X4344162Y5743752D01*
X4344619Y5730290D01*
X4346854Y5717032D01*
X4350867Y5704128D01*
X4356506Y5691936D01*
X4363770Y5680557D01*
X4372457Y5670245D01*
X4382465Y5661202D01*
X4393590Y5653582D01*
X4405630Y5647537D01*
X4418330Y5643118D01*
X4431538Y5640425D01*
G37*
G36*
X4445000Y5893511D02*
G01*
X4458462Y5894425D01*
X4471670Y5897118D01*
X4484370Y5901537D01*
X4496409Y5907582D01*
X4507534Y5915202D01*
X4517542Y5924245D01*
X4526229Y5934557D01*
X4533493Y5945936D01*
X4539132Y5958128D01*
X4543145Y5971032D01*
X4545380Y5984290D01*
X4545838Y5997752D01*
X4544466Y6011164D01*
X4541367Y6024270D01*
X4536490Y6036868D01*
X4530039Y6048705D01*
X4522063Y6059525D01*
X4512665Y6069228D01*
X4502099Y6077559D01*
X4490516Y6084417D01*
X4478070Y6089700D01*
X4465116Y6093256D01*
X4451756Y6095034D01*
X4438243Y6095034D01*
X4424883Y6093256D01*
X4411929Y6089700D01*
X4399483Y6084417D01*
X4387900Y6077559D01*
X4377334Y6069228D01*
X4367936Y6059525D01*
X4359960Y6048705D01*
X4353509Y6036868D01*
X4348632Y6024270D01*
X4345533Y6011164D01*
X4344162Y5997752D01*
X4344619Y5984290D01*
X4346854Y5971032D01*
X4350867Y5958128D01*
X4356506Y5945936D01*
X4363770Y5934557D01*
X4372457Y5924245D01*
X4382465Y5915202D01*
X4393590Y5907582D01*
X4405630Y5901537D01*
X4418330Y5897118D01*
X4431538Y5894425D01*
G37*
G36*
X4006443Y7132675D02*
G01*
X4008577Y7133640D01*
X4021582Y7141514D01*
X4033570Y7150862D01*
X4044340Y7161631D01*
X4053687Y7173569D01*
X4061561Y7186574D01*
X4062526Y7188758D01*
X4006443Y7188758D01*
G37*
G36*
X3893718Y7132675D02*
G01*
X3893718Y7188758D01*
X3837635Y7188758D01*
X3838600Y7186574D01*
X3846474Y7173569D01*
X3855872Y7161631D01*
X3866591Y7150862D01*
X3878579Y7141514D01*
X3891584Y7133640D01*
G37*
G36*
X3837635Y7301433D02*
G01*
X3893718Y7301433D01*
X3893718Y7357516D01*
X3891584Y7356551D01*
X3878579Y7348728D01*
X3866591Y7339330D01*
X3855872Y7328560D01*
X3846474Y7316622D01*
X3838600Y7303617D01*
G37*
G36*
X4006443Y7301433D02*
G01*
X4062526Y7301433D01*
X4061561Y7303617D01*
X4053687Y7316622D01*
X4044340Y7328560D01*
X4033570Y7339330D01*
X4021582Y7348728D01*
X4008577Y7356551D01*
X4006443Y7357516D01*
G37*
G36*
X1930400Y8129117D02*
G01*
X1943811Y8129981D01*
X1957019Y8132622D01*
X1969770Y8136940D01*
X1981860Y8142884D01*
X1993036Y8150352D01*
X2003145Y8159242D01*
X2012035Y8169351D01*
X2019503Y8180578D01*
X2025446Y8192617D01*
X2029764Y8205368D01*
X2032406Y8218576D01*
X2033320Y8232343D01*
X2033320Y8277656D01*
X2032406Y8291423D01*
X2029764Y8304631D01*
X2025446Y8317382D01*
X2019503Y8329422D01*
X2012035Y8340648D01*
X2003145Y8350758D01*
X1993036Y8359648D01*
X1981860Y8367115D01*
X1969770Y8373059D01*
X1957019Y8377377D01*
X1943811Y8380018D01*
X1930400Y8380882D01*
X1916988Y8380018D01*
X1903780Y8377377D01*
X1891030Y8373059D01*
X1878939Y8367115D01*
X1867763Y8359648D01*
X1857654Y8350758D01*
X1848764Y8340648D01*
X1841296Y8329422D01*
X1835353Y8317382D01*
X1831035Y8304631D01*
X1828393Y8291423D01*
X1827479Y8277656D01*
X1827479Y8232343D01*
X1828393Y8218576D01*
X1831035Y8205368D01*
X1835353Y8192617D01*
X1841296Y8180578D01*
X1848764Y8169351D01*
X1857654Y8159242D01*
X1867763Y8150352D01*
X1878939Y8142884D01*
X1891030Y8136940D01*
X1903780Y8132622D01*
X1916988Y8129981D01*
G37*
G36*
X2692400Y8129117D02*
G01*
X2705811Y8129981D01*
X2719019Y8132622D01*
X2731770Y8136940D01*
X2743860Y8142884D01*
X2755036Y8150352D01*
X2765145Y8159242D01*
X2774035Y8169351D01*
X2781503Y8180578D01*
X2787446Y8192617D01*
X2791764Y8205368D01*
X2794406Y8218576D01*
X2795320Y8232343D01*
X2795320Y8277656D01*
X2794406Y8291423D01*
X2791764Y8304631D01*
X2787446Y8317382D01*
X2781503Y8329422D01*
X2774035Y8340648D01*
X2765145Y8350758D01*
X2755036Y8359648D01*
X2743860Y8367115D01*
X2731770Y8373059D01*
X2719019Y8377377D01*
X2705811Y8380018D01*
X2692400Y8380882D01*
X2678988Y8380018D01*
X2665780Y8377377D01*
X2653030Y8373059D01*
X2640939Y8367115D01*
X2629763Y8359648D01*
X2619654Y8350758D01*
X2610764Y8340648D01*
X2603296Y8329422D01*
X2597353Y8317382D01*
X2593035Y8304631D01*
X2590393Y8291423D01*
X2589479Y8277656D01*
X2589479Y8232343D01*
X2590393Y8218576D01*
X2593035Y8205368D01*
X2597353Y8192617D01*
X2603296Y8180578D01*
X2610764Y8169351D01*
X2619654Y8159242D01*
X2629763Y8150352D01*
X2640939Y8142884D01*
X2653030Y8136940D01*
X2665780Y8132622D01*
X2678988Y8129981D01*
G37*
G36*
X2184400Y8129117D02*
G01*
X2197811Y8129981D01*
X2211019Y8132622D01*
X2223770Y8136940D01*
X2235860Y8142884D01*
X2247036Y8150352D01*
X2257145Y8159242D01*
X2266035Y8169351D01*
X2273503Y8180578D01*
X2279446Y8192617D01*
X2283764Y8205368D01*
X2286406Y8218576D01*
X2287320Y8232343D01*
X2287320Y8277656D01*
X2286406Y8291423D01*
X2283764Y8304631D01*
X2279446Y8317382D01*
X2273503Y8329422D01*
X2266035Y8340648D01*
X2257145Y8350758D01*
X2247036Y8359648D01*
X2235860Y8367115D01*
X2223770Y8373059D01*
X2211019Y8377377D01*
X2197811Y8380018D01*
X2184400Y8380882D01*
X2170988Y8380018D01*
X2157780Y8377377D01*
X2145030Y8373059D01*
X2132939Y8367115D01*
X2121763Y8359648D01*
X2111654Y8350758D01*
X2102764Y8340648D01*
X2095296Y8329422D01*
X2089353Y8317382D01*
X2085035Y8304631D01*
X2082393Y8291423D01*
X2081479Y8277656D01*
X2081479Y8232343D01*
X2082393Y8218576D01*
X2085035Y8205368D01*
X2089353Y8192617D01*
X2095296Y8180578D01*
X2102764Y8169351D01*
X2111654Y8159242D01*
X2121763Y8150352D01*
X2132939Y8142884D01*
X2145030Y8136940D01*
X2157780Y8132622D01*
X2170988Y8129981D01*
G37*
G36*
X2946400Y8129117D02*
G01*
X2959811Y8129981D01*
X2973019Y8132622D01*
X2985770Y8136940D01*
X2997860Y8142884D01*
X3009036Y8150352D01*
X3019145Y8159242D01*
X3028035Y8169351D01*
X3035503Y8180578D01*
X3041446Y8192617D01*
X3045764Y8205368D01*
X3048406Y8218576D01*
X3049320Y8232343D01*
X3049320Y8277656D01*
X3048406Y8291423D01*
X3045764Y8304631D01*
X3041446Y8317382D01*
X3035503Y8329422D01*
X3028035Y8340648D01*
X3019145Y8350758D01*
X3009036Y8359648D01*
X2997860Y8367115D01*
X2985770Y8373059D01*
X2973019Y8377377D01*
X2959811Y8380018D01*
X2946400Y8380882D01*
X2932988Y8380018D01*
X2919780Y8377377D01*
X2907030Y8373059D01*
X2894939Y8367115D01*
X2883763Y8359648D01*
X2873654Y8350758D01*
X2864764Y8340648D01*
X2857296Y8329422D01*
X2851353Y8317382D01*
X2847035Y8304631D01*
X2844393Y8291423D01*
X2843479Y8277656D01*
X2843479Y8232343D01*
X2844393Y8218576D01*
X2847035Y8205368D01*
X2851353Y8192617D01*
X2857296Y8180578D01*
X2864764Y8169351D01*
X2873654Y8159242D01*
X2883763Y8150352D01*
X2894939Y8142884D01*
X2907030Y8136940D01*
X2919780Y8132622D01*
X2932988Y8129981D01*
G37*
G36*
X2438400Y8129117D02*
G01*
X2451811Y8129981D01*
X2465019Y8132622D01*
X2477770Y8136940D01*
X2489860Y8142884D01*
X2501036Y8150352D01*
X2511145Y8159242D01*
X2520035Y8169351D01*
X2527503Y8180578D01*
X2533446Y8192617D01*
X2537764Y8205368D01*
X2540406Y8218576D01*
X2541320Y8232343D01*
X2541320Y8277656D01*
X2540406Y8291423D01*
X2537764Y8304631D01*
X2533446Y8317382D01*
X2527503Y8329422D01*
X2520035Y8340648D01*
X2511145Y8350758D01*
X2501036Y8359648D01*
X2489860Y8367115D01*
X2477770Y8373059D01*
X2465019Y8377377D01*
X2451811Y8380018D01*
X2438400Y8380882D01*
X2424988Y8380018D01*
X2411780Y8377377D01*
X2399030Y8373059D01*
X2386939Y8367115D01*
X2375763Y8359648D01*
X2365654Y8350758D01*
X2356764Y8340648D01*
X2349296Y8329422D01*
X2343353Y8317382D01*
X2339035Y8304631D01*
X2336393Y8291423D01*
X2335479Y8277656D01*
X2335479Y8232343D01*
X2336393Y8218576D01*
X2339035Y8205368D01*
X2343353Y8192617D01*
X2349296Y8180578D01*
X2356764Y8169351D01*
X2365654Y8159242D01*
X2375763Y8150352D01*
X2386939Y8142884D01*
X2399030Y8136940D01*
X2411780Y8132622D01*
X2424988Y8129981D01*
G37*
G36*
X3200400Y8129117D02*
G01*
X3213811Y8129981D01*
X3227019Y8132622D01*
X3239770Y8136940D01*
X3251860Y8142884D01*
X3263036Y8150352D01*
X3273145Y8159242D01*
X3282035Y8169351D01*
X3289503Y8180578D01*
X3295446Y8192617D01*
X3299764Y8205368D01*
X3302406Y8218576D01*
X3303320Y8232343D01*
X3303320Y8277656D01*
X3302406Y8291423D01*
X3299764Y8304631D01*
X3295446Y8317382D01*
X3289503Y8329422D01*
X3282035Y8340648D01*
X3273145Y8350758D01*
X3263036Y8359648D01*
X3251860Y8367115D01*
X3239770Y8373059D01*
X3227019Y8377377D01*
X3213811Y8380018D01*
X3200400Y8380882D01*
X3186988Y8380018D01*
X3173780Y8377377D01*
X3161030Y8373059D01*
X3148939Y8367115D01*
X3137763Y8359648D01*
X3127654Y8350758D01*
X3118764Y8340648D01*
X3111296Y8329422D01*
X3105353Y8317382D01*
X3101035Y8304631D01*
X3098393Y8291423D01*
X3097479Y8277656D01*
X3097479Y8232343D01*
X3098393Y8218576D01*
X3101035Y8205368D01*
X3105353Y8192617D01*
X3111296Y8180578D01*
X3118764Y8169351D01*
X3127654Y8159242D01*
X3137763Y8150352D01*
X3148939Y8142884D01*
X3161030Y8136940D01*
X3173780Y8132622D01*
X3186988Y8129981D01*
G37*
G36*
X3499256Y8139633D02*
G01*
X3505860Y8142884D01*
X3517036Y8150352D01*
X3527145Y8159242D01*
X3536035Y8169351D01*
X3543503Y8180578D01*
X3549446Y8192617D01*
X3551478Y8198662D01*
X3499256Y8198662D01*
G37*
G36*
X3409543Y8139633D02*
G01*
X3409543Y8198662D01*
X3357321Y8198662D01*
X3359353Y8192617D01*
X3365296Y8180578D01*
X3372764Y8169351D01*
X3381654Y8159242D01*
X3391763Y8150352D01*
X3402939Y8142884D01*
G37*
G36*
X3357321Y8311337D02*
G01*
X3409543Y8311337D01*
X3409543Y8370366D01*
X3402939Y8367115D01*
X3391763Y8359648D01*
X3381654Y8350758D01*
X3372764Y8340648D01*
X3365296Y8329422D01*
X3359353Y8317382D01*
G37*
G36*
X3499256Y8311337D02*
G01*
X3551478Y8311337D01*
X3549446Y8317382D01*
X3543503Y8329422D01*
X3536035Y8340648D01*
X3527145Y8350758D01*
X3517036Y8359648D01*
X3505860Y8367115D01*
X3499256Y8370366D01*
G37*
G36*
X4539843Y8751265D02*
G01*
X4553356Y8751265D01*
X4566716Y8753043D01*
X4579670Y8756599D01*
X4592116Y8761882D01*
X4603699Y8768740D01*
X4614265Y8777071D01*
X4623663Y8786774D01*
X4631639Y8797594D01*
X4638090Y8809431D01*
X4642967Y8822029D01*
X4646066Y8835136D01*
X4647438Y8848547D01*
X4646980Y8862009D01*
X4644745Y8875268D01*
X4640732Y8888171D01*
X4635093Y8900363D01*
X4627829Y8911742D01*
X4619142Y8922054D01*
X4609134Y8931097D01*
X4598009Y8938717D01*
X4585970Y8944762D01*
X4573270Y8949182D01*
X4560062Y8951874D01*
X4546600Y8952788D01*
X4533138Y8951874D01*
X4519930Y8949182D01*
X4507230Y8944762D01*
X4495190Y8938717D01*
X4484065Y8931097D01*
X4474057Y8922054D01*
X4465370Y8911742D01*
X4458106Y8900363D01*
X4452467Y8888171D01*
X4448454Y8875268D01*
X4446219Y8862009D01*
X4445762Y8848547D01*
X4447133Y8835136D01*
X4450232Y8822029D01*
X4455109Y8809431D01*
X4461560Y8797594D01*
X4469536Y8786774D01*
X4478934Y8777071D01*
X4489500Y8768740D01*
X4501083Y8761882D01*
X4513529Y8756599D01*
X4526483Y8753043D01*
G37*
G36*
X2324100Y8858300D02*
G01*
X2336749Y8859215D01*
X2349144Y8861907D01*
X2361031Y8866327D01*
X2372156Y8872423D01*
X2382316Y8880043D01*
X2391257Y8888984D01*
X2398877Y8899144D01*
X2404973Y8910269D01*
X2409393Y8922156D01*
X2412085Y8934551D01*
X2413000Y8947200D01*
X2412085Y8959850D01*
X2409393Y8972245D01*
X2404973Y8984132D01*
X2398877Y8995257D01*
X2391257Y9005417D01*
X2382316Y9014358D01*
X2372156Y9021978D01*
X2367991Y9024264D01*
X2365197Y9026499D01*
X2363368Y9029598D01*
X2362708Y9033154D01*
X2362708Y9111081D01*
X2363470Y9114993D01*
X2365705Y9118295D01*
X2502204Y9254794D01*
X2505506Y9257030D01*
X2509418Y9257792D01*
X2669082Y9257792D01*
X2672740Y9257131D01*
X2675890Y9255150D01*
X2678125Y9252204D01*
X2681782Y9244990D01*
X2689402Y9233865D01*
X2698445Y9223857D01*
X2708757Y9215170D01*
X2720136Y9207906D01*
X2732328Y9202267D01*
X2745232Y9198254D01*
X2758490Y9196019D01*
X2771952Y9195562D01*
X2785364Y9196933D01*
X2798470Y9200032D01*
X2811068Y9204909D01*
X2822905Y9211360D01*
X2833725Y9219336D01*
X2843428Y9228734D01*
X2851759Y9239300D01*
X2858617Y9250883D01*
X2863900Y9263329D01*
X2867456Y9276283D01*
X2869234Y9289643D01*
X2869234Y9303156D01*
X2867456Y9316516D01*
X2863900Y9329470D01*
X2858617Y9341916D01*
X2851759Y9353499D01*
X2843428Y9364065D01*
X2833725Y9373463D01*
X2822905Y9381439D01*
X2811068Y9387890D01*
X2798470Y9392767D01*
X2785364Y9395866D01*
X2771952Y9397238D01*
X2758490Y9396780D01*
X2745232Y9394545D01*
X2732328Y9390532D01*
X2720136Y9384893D01*
X2708757Y9377629D01*
X2698445Y9368942D01*
X2689402Y9358934D01*
X2681782Y9347809D01*
X2678125Y9340596D01*
X2675890Y9337649D01*
X2672740Y9335668D01*
X2669082Y9335008D01*
X2489708Y9335008D01*
X2481681Y9334195D01*
X2474468Y9332010D01*
X2467762Y9328454D01*
X2461564Y9323324D01*
X2297176Y9158935D01*
X2292045Y9152737D01*
X2288489Y9146032D01*
X2286304Y9138818D01*
X2285492Y9130792D01*
X2285492Y9033154D01*
X2284831Y9029598D01*
X2283002Y9026499D01*
X2280208Y9024264D01*
X2276043Y9021978D01*
X2265883Y9014358D01*
X2256942Y9005417D01*
X2249322Y8995257D01*
X2243226Y8984132D01*
X2238806Y8972245D01*
X2236114Y8959850D01*
X2235200Y8947200D01*
X2236114Y8934551D01*
X2238806Y8922156D01*
X2243226Y8910269D01*
X2249322Y8899144D01*
X2256942Y8888984D01*
X2265883Y8880043D01*
X2276043Y8872423D01*
X2287168Y8866327D01*
X2299055Y8861907D01*
X2311450Y8859215D01*
G37*
G36*
X4539335Y8992768D02*
G01*
X4553864Y8992768D01*
X4568291Y8994597D01*
X4582312Y8998305D01*
X4595774Y9003741D01*
X4608474Y9010853D01*
X4620107Y9019540D01*
X4630521Y9029649D01*
X4639614Y9041028D01*
X4647133Y9053474D01*
X4653026Y9066733D01*
X4657140Y9080652D01*
X4659477Y9095028D01*
X4659934Y9109557D01*
X4658512Y9123984D01*
X4655312Y9138158D01*
X4650282Y9151772D01*
X4643577Y9164675D01*
X4635246Y9176613D01*
X4625492Y9187332D01*
X4614418Y9196781D01*
X4602226Y9204706D01*
X4589170Y9211005D01*
X4575352Y9215577D01*
X4561078Y9218371D01*
X4546600Y9219285D01*
X4532122Y9218371D01*
X4517847Y9215577D01*
X4504029Y9211005D01*
X4490974Y9204706D01*
X4478782Y9196781D01*
X4467707Y9187332D01*
X4457954Y9176613D01*
X4449622Y9164675D01*
X4442917Y9151772D01*
X4437888Y9138158D01*
X4434687Y9123984D01*
X4433265Y9109557D01*
X4433722Y9095028D01*
X4436059Y9080652D01*
X4440174Y9066733D01*
X4446066Y9053474D01*
X4453585Y9041028D01*
X4462678Y9029649D01*
X4473092Y9019540D01*
X4484725Y9010853D01*
X4497425Y9003741D01*
X4510887Y8998305D01*
X4524908Y8994597D01*
G37*
G36*
X4539335Y9246768D02*
G01*
X4553864Y9246768D01*
X4568291Y9248597D01*
X4582312Y9252305D01*
X4595774Y9257741D01*
X4608474Y9264853D01*
X4620107Y9273540D01*
X4630521Y9283649D01*
X4639614Y9295028D01*
X4647133Y9307474D01*
X4653026Y9320733D01*
X4657140Y9334652D01*
X4659477Y9349028D01*
X4659934Y9363557D01*
X4658512Y9377984D01*
X4655312Y9392158D01*
X4650282Y9405772D01*
X4643577Y9418675D01*
X4635246Y9430613D01*
X4625492Y9441332D01*
X4614418Y9450781D01*
X4602226Y9458706D01*
X4589170Y9465005D01*
X4575352Y9469577D01*
X4561078Y9472371D01*
X4546600Y9473285D01*
X4532122Y9472371D01*
X4517847Y9469577D01*
X4504029Y9465005D01*
X4490974Y9458706D01*
X4478782Y9450781D01*
X4467707Y9441332D01*
X4457954Y9430613D01*
X4449622Y9418675D01*
X4442917Y9405772D01*
X4437888Y9392158D01*
X4434687Y9377984D01*
X4433265Y9363557D01*
X4433722Y9349028D01*
X4436059Y9334652D01*
X4440174Y9320733D01*
X4446066Y9307474D01*
X4453585Y9295028D01*
X4462678Y9283649D01*
X4473092Y9273540D01*
X4484725Y9264853D01*
X4497425Y9257741D01*
X4510887Y9252305D01*
X4524908Y9248597D01*
G37*
G36*
X4496511Y9512249D02*
G01*
X4496511Y9563811D01*
X4445050Y9563811D01*
X4446066Y9561474D01*
X4453585Y9549028D01*
X4462678Y9537649D01*
X4473092Y9527540D01*
X4484725Y9518853D01*
G37*
G36*
X4596688Y9512249D02*
G01*
X4608474Y9518853D01*
X4620107Y9527540D01*
X4630521Y9537649D01*
X4639614Y9549028D01*
X4647133Y9561474D01*
X4648149Y9563811D01*
X4596688Y9563811D01*
G37*
G36*
X2324100Y9658299D02*
G01*
X2336749Y9659213D01*
X2349144Y9661906D01*
X2361031Y9666325D01*
X2372156Y9672421D01*
X2382316Y9680041D01*
X2391257Y9688982D01*
X2398877Y9699142D01*
X2404922Y9710267D01*
X2409393Y9722154D01*
X2412085Y9734550D01*
X2413000Y9747199D01*
X2412085Y9759848D01*
X2409393Y9772243D01*
X2404922Y9784130D01*
X2398877Y9795256D01*
X2391257Y9805416D01*
X2382316Y9814356D01*
X2372156Y9821976D01*
X2361031Y9828072D01*
X2349144Y9832492D01*
X2336749Y9835184D01*
X2324100Y9836099D01*
X2311450Y9835184D01*
X2299055Y9832492D01*
X2287168Y9828072D01*
X2276043Y9821976D01*
X2265883Y9814356D01*
X2256942Y9805416D01*
X2249322Y9795256D01*
X2243226Y9784130D01*
X2238806Y9772243D01*
X2236114Y9759848D01*
X2235200Y9747199D01*
X2236114Y9734550D01*
X2238806Y9722154D01*
X2243226Y9710267D01*
X2249322Y9699142D01*
X2256942Y9688982D01*
X2265883Y9680041D01*
X2276043Y9672421D01*
X2287168Y9666325D01*
X2299055Y9661906D01*
X2311450Y9659213D01*
G37*
G36*
X4445101Y9663988D02*
G01*
X4496511Y9663988D01*
X4496511Y9715347D01*
X4490974Y9712706D01*
X4478782Y9704781D01*
X4467707Y9695332D01*
X4457954Y9684613D01*
X4449622Y9672675D01*
G37*
G36*
X4596688Y9663988D02*
G01*
X4648098Y9663988D01*
X4643577Y9672675D01*
X4635246Y9684613D01*
X4625492Y9695332D01*
X4614418Y9704781D01*
X4602226Y9712706D01*
X4596688Y9715347D01*
G37*
G36*
X2752547Y9690862D02*
G01*
X2766009Y9691319D01*
X2779268Y9693554D01*
X2792171Y9697567D01*
X2804363Y9703206D01*
X2815742Y9710470D01*
X2826054Y9719157D01*
X2835097Y9729165D01*
X2842717Y9740290D01*
X2848762Y9752330D01*
X2853182Y9765030D01*
X2855874Y9778238D01*
X2856788Y9791700D01*
X2855874Y9805162D01*
X2853182Y9818370D01*
X2848762Y9831070D01*
X2842717Y9843109D01*
X2835097Y9854234D01*
X2826054Y9864242D01*
X2815742Y9872929D01*
X2804363Y9880193D01*
X2792171Y9885832D01*
X2779268Y9889845D01*
X2766009Y9892080D01*
X2752547Y9892538D01*
X2739136Y9891166D01*
X2726029Y9888067D01*
X2713431Y9883190D01*
X2701594Y9876739D01*
X2690774Y9868763D01*
X2681071Y9859365D01*
X2672740Y9848799D01*
X2665882Y9837216D01*
X2660599Y9824770D01*
X2657043Y9811816D01*
X2655265Y9798456D01*
X2655265Y9784943D01*
X2657043Y9771583D01*
X2660599Y9758629D01*
X2665882Y9746183D01*
X2672740Y9734600D01*
X2681071Y9724034D01*
X2690774Y9714636D01*
X2701594Y9706660D01*
X2713431Y9700209D01*
X2726029Y9695332D01*
X2739136Y9692233D01*
G37*
G36*
X3768547Y9690862D02*
G01*
X3782009Y9691319D01*
X3795268Y9693554D01*
X3808171Y9697567D01*
X3820363Y9703206D01*
X3831742Y9710470D01*
X3842054Y9719157D01*
X3851097Y9729165D01*
X3858717Y9740290D01*
X3864762Y9752330D01*
X3869182Y9765030D01*
X3871874Y9778238D01*
X3872788Y9791700D01*
X3871874Y9805162D01*
X3869182Y9818370D01*
X3864762Y9831070D01*
X3858717Y9843109D01*
X3851097Y9854234D01*
X3842054Y9864242D01*
X3831742Y9872929D01*
X3820363Y9880193D01*
X3808171Y9885832D01*
X3795268Y9889845D01*
X3782009Y9892080D01*
X3768547Y9892538D01*
X3755136Y9891166D01*
X3742029Y9888067D01*
X3729431Y9883190D01*
X3717594Y9876739D01*
X3706774Y9868763D01*
X3697071Y9859365D01*
X3688740Y9848799D01*
X3681882Y9837216D01*
X3676599Y9824770D01*
X3673043Y9811816D01*
X3671265Y9798456D01*
X3671265Y9784943D01*
X3673043Y9771583D01*
X3676599Y9758629D01*
X3681882Y9746183D01*
X3688740Y9734600D01*
X3697071Y9724034D01*
X3706774Y9714636D01*
X3717594Y9706660D01*
X3729431Y9700209D01*
X3742029Y9695332D01*
X3755136Y9692233D01*
G37*
G36*
X1580642Y9876434D02*
G01*
X1580642Y9918954D01*
X1538173Y9918954D01*
X1543710Y9908743D01*
X1551330Y9898583D01*
X1560271Y9889642D01*
X1570431Y9882022D01*
G37*
G36*
X1656334Y9876434D02*
G01*
X1666544Y9882022D01*
X1676704Y9889642D01*
X1685645Y9898583D01*
X1693265Y9908743D01*
X1698853Y9918954D01*
X1656334Y9918954D01*
G37*

%LPD*%
D10*
X2413000Y2934588D02*
G01*
X2171700Y3175888D01*
X2171700Y5168900D01*
X2413000Y5410200D01*
X2984500Y5410200D01*
X3225800Y5168900D01*
X1041400Y4953000D02*
G01*
X1041400Y2773603D01*
X1650009Y2164994D01*
X2324100Y8947200D02*
G01*
X2324100Y9131300D01*
X2489200Y9296400D01*
X2768600Y9296400D01*
X3175000Y2934588D02*
G01*
X3175000Y2768600D01*
X3073400Y2667000D01*
X1656003Y2667000D01*
X1650006Y2672996D01*
X1041400Y5715000D02*
G01*
X1041400Y8185912D01*
X1618487Y8763000D01*
X1650009Y2418994D02*
G01*
X1619605Y2418994D01*
X1384300Y2654300D01*
X1384300Y8356600D01*
X1549400Y8521700D01*
X1879600Y8521700D01*
X2095500Y8737600D01*
X3454400Y8737600D01*
X3784600Y9067800D01*
X3784600Y9296400D01*
D11*
G01*
X2463800Y4914900D03*
G01*
X2717800Y4914900D03*
G01*
X2971800Y4914900D03*
G01*
X3225800Y4914900D03*
G01*
X3225800Y5168900D03*
G01*
X2971800Y5168900D03*
G01*
X2717800Y5168900D03*
G01*
X2463800Y5168900D03*
D12*
G01*
X1930400Y8255000D03*
G01*
X2184400Y8255000D03*
G01*
X2692400Y8255000D03*
G01*
X2946400Y8255000D03*
G01*
X2438400Y8255000D03*
G01*
X3200400Y8255000D03*
G01*
X3454400Y8255000D03*
D13*
G01*
X2755900Y9791700D03*
G01*
X3771900Y9791700D03*
G01*
X3784600Y9296400D03*
G01*
X2768600Y9296400D03*
G01*
X1092200Y1397000D03*
D14*
G01*
X1092200Y1651000D03*
D13*
G01*
X4445000Y5994400D03*
G01*
X4445000Y5740400D03*
G01*
X4445000Y5486400D03*
G01*
X4445000Y5232400D03*
G01*
X4445000Y4978400D03*
G01*
X4445000Y4724400D03*
D15*
G01*
X1650111Y7245095D03*
G01*
X1650111Y6991095D03*
G01*
X1650111Y6737095D03*
G01*
X1650111Y6483095D03*
G01*
X1650111Y6229095D03*
G01*
X1650111Y5975095D03*
G01*
X1650111Y5721095D03*
G01*
X1650111Y5467095D03*
G01*
X1650111Y5213095D03*
G01*
X1650111Y4959095D03*
G01*
X1650111Y4705095D03*
G01*
X1650111Y4451095D03*
G01*
X1650111Y4197095D03*
G01*
X1650111Y3943095D03*
G01*
X1650111Y3689095D03*
G01*
X1650111Y3435095D03*
G01*
X1650111Y3181095D03*
G01*
X1650111Y2927095D03*
G01*
X1650111Y2673095D03*
G01*
X1650111Y2419095D03*
G01*
X1650111Y2165095D03*
G01*
X1650111Y1911095D03*
G01*
X3950106Y1911095D03*
G01*
X3950106Y2165095D03*
G01*
X3950106Y2419095D03*
G01*
X3950106Y2673095D03*
G01*
X3950106Y2927095D03*
G01*
X3950106Y3181095D03*
G01*
X3950106Y3435095D03*
G01*
X3950106Y3689095D03*
G01*
X3950106Y3943095D03*
G01*
X3950106Y4197095D03*
G01*
X3950106Y4451095D03*
G01*
X3950106Y4705095D03*
G01*
X3950106Y4959095D03*
G01*
X3950106Y5213095D03*
G01*
X3950106Y5467095D03*
G01*
X3950106Y5721095D03*
G01*
X3950106Y5975095D03*
G01*
X3950106Y6229095D03*
G01*
X3950106Y6483095D03*
G01*
X3950106Y6737095D03*
G01*
X3950106Y6991095D03*
G01*
X3950106Y7245095D03*
D13*
G01*
X4152900Y1524000D03*
G01*
X4432300Y1524000D03*
D16*
G01*
X4737100Y1524000D03*
D17*
G01*
X2324100Y8947200D03*
G01*
X2324100Y9747199D03*
G01*
X1618487Y9956800D03*
G01*
X1618487Y8763000D03*
G01*
X698500Y9499600D03*
G01*
X698500Y9169400D03*
G01*
X2159000Y2934588D03*
G01*
X2413000Y2934588D03*
G01*
X2667000Y2934588D03*
G01*
X2921000Y2934588D03*
G01*
X3175000Y2934588D03*
G01*
X3429000Y2934588D03*
D13*
G01*
X4546600Y8851900D03*
D18*
G01*
X4546600Y9105900D03*
G01*
X4546600Y9359900D03*
G01*
X4546600Y9613900D03*
D11*
G01*
X1041400Y4953000D03*
G01*
X1041400Y5715000D03*
M02*
