G04 Layer: TopSilkscreenLayer*
G04 EasyEDA v6.5.40, 2024-04-09 13:00:43*
G04 4b3d86a6f5cb4bb8bf6c6708de4b4b48,df7e7e3c38a3447abd37b529b333d242,10*
G04 Gerber Generator version 0.2*
G04 Scale: 100 percent, Rotated: No, Reflected: No *
G04 Dimensions in millimeters *
G04 leading zeros omitted , absolute positions ,4 integer and 5 decimal *
%FSLAX45Y45*%
%MOMM*%

%ADD10C,0.1524*%
%ADD11C,0.2032*%
%ADD12C,0.2000*%
%ADD13C,0.2540*%
%ADD14C,0.1200*%
%ADD15C,0.1600*%
%ADD16C,0.0103*%

%LPD*%
D10*
X4800091Y6961378D02*
G01*
X4789677Y6956044D01*
X4779263Y6945629D01*
X4774184Y6935470D01*
X4774184Y6914642D01*
X4779263Y6904228D01*
X4789677Y6893813D01*
X4800091Y6888479D01*
X4815840Y6883400D01*
X4841747Y6883400D01*
X4857241Y6888479D01*
X4867656Y6893813D01*
X4878070Y6904228D01*
X4883150Y6914642D01*
X4883150Y6935470D01*
X4878070Y6945629D01*
X4867656Y6956044D01*
X4857241Y6961378D01*
X4810506Y7057897D02*
G01*
X4883150Y7057897D01*
X4826000Y7057897D02*
G01*
X4815840Y7047484D01*
X4810506Y7037070D01*
X4810506Y7021576D01*
X4815840Y7011162D01*
X4826000Y7000747D01*
X4841747Y6995668D01*
X4852161Y6995668D01*
X4867656Y7000747D01*
X4878070Y7011162D01*
X4883150Y7021576D01*
X4883150Y7037070D01*
X4878070Y7047484D01*
X4867656Y7057897D01*
X4810506Y7092187D02*
G01*
X4919725Y7092187D01*
X4826000Y7092187D02*
G01*
X4815840Y7102602D01*
X4810506Y7113015D01*
X4810506Y7128510D01*
X4815840Y7138923D01*
X4826000Y7149337D01*
X4841747Y7154671D01*
X4852161Y7154671D01*
X4867656Y7149337D01*
X4878070Y7138923D01*
X4883150Y7128510D01*
X4883150Y7113015D01*
X4878070Y7102602D01*
X4867656Y7092187D01*
X4774184Y7188962D02*
G01*
X4779263Y7194042D01*
X4774184Y7199376D01*
X4768850Y7194042D01*
X4774184Y7188962D01*
X4810506Y7194042D02*
G01*
X4883150Y7194042D01*
X4774184Y7233665D02*
G01*
X4883150Y7233665D01*
X4826000Y7233665D02*
G01*
X4815840Y7244079D01*
X4810506Y7254239D01*
X4810506Y7269987D01*
X4815840Y7280402D01*
X4826000Y7290815D01*
X4841747Y7295895D01*
X4852161Y7295895D01*
X4867656Y7290815D01*
X4878070Y7280402D01*
X4883150Y7269987D01*
X4883150Y7254239D01*
X4878070Y7244079D01*
X4867656Y7233665D01*
X4810506Y7392670D02*
G01*
X4883150Y7392670D01*
X4826000Y7392670D02*
G01*
X4815840Y7382255D01*
X4810506Y7371842D01*
X4810506Y7356094D01*
X4815840Y7345679D01*
X4826000Y7335520D01*
X4841747Y7330186D01*
X4852161Y7330186D01*
X4867656Y7335520D01*
X4878070Y7345679D01*
X4883150Y7356094D01*
X4883150Y7371842D01*
X4878070Y7382255D01*
X4867656Y7392670D01*
X4810506Y7426960D02*
G01*
X4883150Y7426960D01*
X4841747Y7426960D02*
G01*
X4826000Y7432039D01*
X4815840Y7442454D01*
X4810506Y7452868D01*
X4810506Y7468362D01*
X4810506Y7565136D02*
G01*
X4883150Y7565136D01*
X4826000Y7565136D02*
G01*
X4815840Y7554721D01*
X4810506Y7544308D01*
X4810506Y7528560D01*
X4815840Y7518400D01*
X4826000Y7507986D01*
X4841747Y7502652D01*
X4852161Y7502652D01*
X4867656Y7507986D01*
X4878070Y7518400D01*
X4883150Y7528560D01*
X4883150Y7544308D01*
X4878070Y7554721D01*
X4867656Y7565136D01*
X4774184Y7672070D02*
G01*
X4883150Y7599426D01*
X4774184Y7599426D02*
G01*
X4774184Y7672070D01*
X4883150Y7599426D02*
G01*
X4883150Y7672070D01*
X4841747Y7706360D02*
G01*
X4841747Y7768589D01*
X4831334Y7768589D01*
X4820920Y7763510D01*
X4815840Y7758429D01*
X4810506Y7748015D01*
X4810506Y7732268D01*
X4815840Y7721854D01*
X4826000Y7711439D01*
X4841747Y7706360D01*
X4852161Y7706360D01*
X4867656Y7711439D01*
X4878070Y7721854D01*
X4883150Y7732268D01*
X4883150Y7748015D01*
X4878070Y7758429D01*
X4867656Y7768589D01*
X4810506Y7802879D02*
G01*
X4883150Y7802879D01*
X4841747Y7802879D02*
G01*
X4826000Y7808213D01*
X4815840Y7818628D01*
X4810506Y7829042D01*
X4810506Y7844536D01*
X4810506Y7904734D02*
G01*
X4815840Y7894320D01*
X4826000Y7884160D01*
X4841747Y7878826D01*
X4852161Y7878826D01*
X4867656Y7884160D01*
X4878070Y7894320D01*
X4883150Y7904734D01*
X4883150Y7920481D01*
X4878070Y7930895D01*
X4867656Y7941310D01*
X4852161Y7946389D01*
X4841747Y7946389D01*
X4826000Y7941310D01*
X4815840Y7930895D01*
X4810506Y7920481D01*
X4810506Y7904734D01*
X4786884Y3111500D02*
G01*
X4895850Y3111500D01*
X4786884Y3111500D02*
G01*
X4786884Y3158236D01*
X4791963Y3173729D01*
X4797297Y3179063D01*
X4807711Y3184144D01*
X4823206Y3184144D01*
X4833620Y3179063D01*
X4838700Y3173729D01*
X4844034Y3158236D01*
X4844034Y3111500D01*
X4812791Y3296412D02*
G01*
X4802377Y3291331D01*
X4791963Y3280918D01*
X4786884Y3270504D01*
X4786884Y3249676D01*
X4791963Y3239262D01*
X4802377Y3228847D01*
X4812791Y3223768D01*
X4828540Y3218434D01*
X4854447Y3218434D01*
X4869941Y3223768D01*
X4880356Y3228847D01*
X4890770Y3239262D01*
X4895850Y3249676D01*
X4895850Y3270504D01*
X4890770Y3280918D01*
X4880356Y3291331D01*
X4869941Y3296412D01*
X4786884Y3330702D02*
G01*
X4895850Y3330702D01*
X4786884Y3330702D02*
G01*
X4786884Y3377437D01*
X4791963Y3393186D01*
X4797297Y3398265D01*
X4807711Y3403600D01*
X4818125Y3403600D01*
X4828540Y3398265D01*
X4833620Y3393186D01*
X4838700Y3377437D01*
X4838700Y3330702D02*
G01*
X4838700Y3377437D01*
X4844034Y3393186D01*
X4849113Y3398265D01*
X4859527Y3403600D01*
X4875275Y3403600D01*
X4885690Y3398265D01*
X4890770Y3393186D01*
X4895850Y3377437D01*
X4895850Y3330702D01*
X4786884Y3517900D02*
G01*
X4895850Y3559302D01*
X4786884Y3600957D02*
G01*
X4895850Y3559302D01*
X4854447Y3635247D02*
G01*
X4854447Y3697478D01*
X4844034Y3697478D01*
X4833620Y3692397D01*
X4828540Y3687063D01*
X4823206Y3676650D01*
X4823206Y3661155D01*
X4828540Y3650742D01*
X4838700Y3640328D01*
X4854447Y3635247D01*
X4864861Y3635247D01*
X4880356Y3640328D01*
X4890770Y3650742D01*
X4895850Y3661155D01*
X4895850Y3676650D01*
X4890770Y3687063D01*
X4880356Y3697478D01*
X4823206Y3731768D02*
G01*
X4895850Y3731768D01*
X4854447Y3731768D02*
G01*
X4838700Y3737102D01*
X4828540Y3747515D01*
X4823206Y3757929D01*
X4823206Y3773423D01*
X4869941Y3812794D02*
G01*
X4875275Y3807713D01*
X4880356Y3812794D01*
X4875275Y3818128D01*
X4869941Y3812794D01*
X4807711Y3932428D02*
G01*
X4802377Y3942842D01*
X4786884Y3958336D01*
X4895850Y3958336D01*
X4869941Y3997960D02*
G01*
X4875275Y3992626D01*
X4880356Y3997960D01*
X4875275Y4003039D01*
X4869941Y3997960D01*
X4786884Y4068571D02*
G01*
X4791963Y4052823D01*
X4807711Y4042410D01*
X4833620Y4037329D01*
X4849113Y4037329D01*
X4875275Y4042410D01*
X4890770Y4052823D01*
X4895850Y4068571D01*
X4895850Y4078986D01*
X4890770Y4094479D01*
X4875275Y4104894D01*
X4849113Y4109973D01*
X4833620Y4109973D01*
X4807711Y4104894D01*
X4791963Y4094479D01*
X4786884Y4078986D01*
X4786884Y4068571D01*
X4869941Y4149597D02*
G01*
X4875275Y4144263D01*
X4880356Y4149597D01*
X4875275Y4154678D01*
X4869941Y4149597D01*
X4786884Y4220210D02*
G01*
X4791963Y4204715D01*
X4807711Y4194302D01*
X4833620Y4188968D01*
X4849113Y4188968D01*
X4875275Y4194302D01*
X4890770Y4204715D01*
X4895850Y4220210D01*
X4895850Y4230623D01*
X4890770Y4246118D01*
X4875275Y4256531D01*
X4849113Y4261865D01*
X4833620Y4261865D01*
X4807711Y4256531D01*
X4791963Y4246118D01*
X4786884Y4230623D01*
X4786884Y4220210D01*
X3187700Y10034015D02*
G01*
X3187700Y9925050D01*
X3187700Y10034015D02*
G01*
X3234436Y10034015D01*
X3249929Y10028936D01*
X3255263Y10023602D01*
X3260343Y10013187D01*
X3260343Y10002774D01*
X3255263Y9992360D01*
X3249929Y9987279D01*
X3234436Y9982200D01*
X3187700Y9982200D01*
X3224022Y9982200D02*
G01*
X3260343Y9925050D01*
X3294634Y10013187D02*
G01*
X3305047Y10018521D01*
X3320795Y10034015D01*
X3320795Y9925050D01*
X3340100Y9003284D02*
G01*
X3340100Y9112250D01*
X3340100Y9003284D02*
G01*
X3293363Y9003284D01*
X3277870Y9008363D01*
X3272536Y9013697D01*
X3267456Y9024112D01*
X3267456Y9034526D01*
X3272536Y9044939D01*
X3277870Y9050020D01*
X3293363Y9055100D01*
X3340100Y9055100D01*
X3303777Y9055100D02*
G01*
X3267456Y9112250D01*
X3227831Y9029192D02*
G01*
X3227831Y9024112D01*
X3222752Y9013697D01*
X3217418Y9008363D01*
X3207004Y9003284D01*
X3186429Y9003284D01*
X3176015Y9008363D01*
X3170681Y9013697D01*
X3165602Y9024112D01*
X3165602Y9034526D01*
X3170681Y9044939D01*
X3181095Y9060434D01*
X3233165Y9112250D01*
X3160268Y9112250D01*
X672084Y1498597D02*
G01*
X781050Y1498597D01*
X672084Y1532887D02*
G01*
X781050Y1532887D01*
X672084Y1532887D02*
G01*
X672084Y1579623D01*
X677163Y1595117D01*
X682497Y1600451D01*
X692912Y1605531D01*
X703326Y1605531D01*
X713739Y1600451D01*
X718820Y1595117D01*
X723900Y1579623D01*
X723900Y1532887D01*
X723900Y1569209D02*
G01*
X781050Y1605531D01*
X817626Y1639821D02*
G01*
X817626Y1733547D01*
X672084Y1804159D02*
G01*
X781050Y1804159D01*
X672084Y1767837D02*
G01*
X672084Y1840481D01*
X672084Y1874771D02*
G01*
X781050Y1874771D01*
X672084Y1874771D02*
G01*
X672084Y1921507D01*
X677163Y1937001D01*
X682497Y1942335D01*
X692912Y1947415D01*
X703326Y1947415D01*
X713739Y1942335D01*
X718820Y1937001D01*
X723900Y1921507D01*
X723900Y1874771D01*
X723900Y1911093D02*
G01*
X781050Y1947415D01*
X672084Y2023361D02*
G01*
X781050Y1981705D01*
X672084Y2023361D02*
G01*
X781050Y2065017D01*
X744728Y1997453D02*
G01*
X744728Y2049269D01*
X672084Y2099307D02*
G01*
X781050Y2099307D01*
X672084Y2099307D02*
G01*
X781050Y2171951D01*
X672084Y2171951D02*
G01*
X781050Y2171951D01*
X687578Y2278885D02*
G01*
X677163Y2268471D01*
X672084Y2252977D01*
X672084Y2232149D01*
X677163Y2216655D01*
X687578Y2206241D01*
X697992Y2206241D01*
X708405Y2211321D01*
X713739Y2216655D01*
X718820Y2227069D01*
X729234Y2258057D01*
X734313Y2268471D01*
X739647Y2273805D01*
X750062Y2278885D01*
X765555Y2278885D01*
X775970Y2268471D01*
X781050Y2252977D01*
X781050Y2232149D01*
X775970Y2216655D01*
X765555Y2206241D01*
X672084Y2313175D02*
G01*
X781050Y2313175D01*
X672084Y2313175D02*
G01*
X781050Y2354831D01*
X672084Y2396487D02*
G01*
X781050Y2354831D01*
X672084Y2396487D02*
G01*
X781050Y2396487D01*
X672084Y2430777D02*
G01*
X781050Y2430777D01*
X672084Y2501389D02*
G01*
X781050Y2501389D01*
X672084Y2465067D02*
G01*
X672084Y2537711D01*
X672084Y2608323D02*
G01*
X781050Y2608323D01*
X672084Y2572001D02*
G01*
X672084Y2644645D01*
X672084Y2678935D02*
G01*
X781050Y2678935D01*
X672084Y2678935D02*
G01*
X672084Y2746499D01*
X723900Y2678935D02*
G01*
X723900Y2720591D01*
X781050Y2678935D02*
G01*
X781050Y2746499D01*
X672084Y2780789D02*
G01*
X781050Y2780789D01*
X672084Y2780789D02*
G01*
X672084Y2827525D01*
X677163Y2843273D01*
X682497Y2848353D01*
X692912Y2853687D01*
X703326Y2853687D01*
X713739Y2848353D01*
X718820Y2843273D01*
X723900Y2827525D01*
X723900Y2780789D01*
X723900Y2817111D02*
G01*
X781050Y2853687D01*
X4941315Y5676900D02*
G01*
X4832350Y5676900D01*
X4941315Y5676900D02*
G01*
X4941315Y5630163D01*
X4936236Y5614670D01*
X4930902Y5609336D01*
X4920488Y5604255D01*
X4910074Y5604255D01*
X4899659Y5609336D01*
X4894579Y5614670D01*
X4889500Y5630163D01*
X4889500Y5676900D02*
G01*
X4889500Y5630163D01*
X4884165Y5614670D01*
X4879086Y5609336D01*
X4868672Y5604255D01*
X4852924Y5604255D01*
X4842509Y5609336D01*
X4837429Y5614670D01*
X4832350Y5630163D01*
X4832350Y5676900D01*
X4941315Y5569965D02*
G01*
X4863338Y5569965D01*
X4847843Y5564631D01*
X4837429Y5554218D01*
X4832350Y5538723D01*
X4832350Y5528310D01*
X4837429Y5512815D01*
X4847843Y5502402D01*
X4863338Y5497068D01*
X4941315Y5497068D01*
X4941315Y5426455D02*
G01*
X4832350Y5426455D01*
X4941315Y5462778D02*
G01*
X4941315Y5390134D01*
X4941315Y5319521D02*
G01*
X4832350Y5319521D01*
X4941315Y5355844D02*
G01*
X4941315Y5283200D01*
X4941315Y5217668D02*
G01*
X4936236Y5228081D01*
X4925822Y5238495D01*
X4915408Y5243576D01*
X4899659Y5248910D01*
X4873752Y5248910D01*
X4858258Y5243576D01*
X4847843Y5238495D01*
X4837429Y5228081D01*
X4832350Y5217668D01*
X4832350Y5196839D01*
X4837429Y5186426D01*
X4847843Y5176012D01*
X4858258Y5170931D01*
X4873752Y5165597D01*
X4899659Y5165597D01*
X4915408Y5170931D01*
X4925822Y5176012D01*
X4936236Y5186426D01*
X4941315Y5196839D01*
X4941315Y5217668D01*
X4941315Y5131307D02*
G01*
X4832350Y5131307D01*
X4941315Y5131307D02*
G01*
X4832350Y5058663D01*
X4941315Y5058663D02*
G01*
X4832350Y5058663D01*
X1917801Y7583017D02*
G01*
X1917801Y7473797D01*
X1917801Y7583017D02*
G01*
X1985365Y7583017D01*
X1917801Y7530947D02*
G01*
X1959203Y7530947D01*
X1917801Y7473797D02*
G01*
X1985365Y7473797D01*
X2092299Y7567269D02*
G01*
X2081885Y7577683D01*
X2066391Y7583017D01*
X2045563Y7583017D01*
X2029815Y7577683D01*
X2019655Y7567269D01*
X2019655Y7556855D01*
X2024735Y7546695D01*
X2029815Y7541361D01*
X2040229Y7536281D01*
X2071471Y7525867D01*
X2081885Y7520533D01*
X2086965Y7515453D01*
X2092299Y7505039D01*
X2092299Y7489545D01*
X2081885Y7479131D01*
X2066391Y7473797D01*
X2045563Y7473797D01*
X2029815Y7479131D01*
X2019655Y7489545D01*
X2126589Y7583017D02*
G01*
X2126589Y7473797D01*
X2126589Y7583017D02*
G01*
X2173325Y7583017D01*
X2188819Y7577683D01*
X2194153Y7572603D01*
X2199233Y7562189D01*
X2199233Y7546695D01*
X2194153Y7536281D01*
X2188819Y7530947D01*
X2173325Y7525867D01*
X2126589Y7525867D01*
X2243937Y7583017D02*
G01*
X2301087Y7583017D01*
X2269845Y7541361D01*
X2285593Y7541361D01*
X2296007Y7536281D01*
X2301087Y7530947D01*
X2306421Y7515453D01*
X2306421Y7505039D01*
X2301087Y7489545D01*
X2290673Y7479131D01*
X2275179Y7473797D01*
X2259685Y7473797D01*
X2243937Y7479131D01*
X2238857Y7484211D01*
X2233523Y7494625D01*
X2345791Y7556855D02*
G01*
X2345791Y7562189D01*
X2351125Y7572603D01*
X2356205Y7577683D01*
X2366619Y7583017D01*
X2387447Y7583017D01*
X2397861Y7577683D01*
X2402941Y7572603D01*
X2408275Y7562189D01*
X2408275Y7551775D01*
X2402941Y7541361D01*
X2392527Y7525867D01*
X2340711Y7473797D01*
X2413355Y7473797D01*
X2447645Y7520533D02*
G01*
X2541117Y7520533D01*
X2648305Y7567269D02*
G01*
X2637891Y7577683D01*
X2622143Y7583017D01*
X2601315Y7583017D01*
X2585821Y7577683D01*
X2575407Y7567269D01*
X2575407Y7556855D01*
X2580741Y7546695D01*
X2585821Y7541361D01*
X2596235Y7536281D01*
X2627477Y7525867D01*
X2637891Y7520533D01*
X2642971Y7515453D01*
X2648305Y7505039D01*
X2648305Y7489545D01*
X2637891Y7479131D01*
X2622143Y7473797D01*
X2601315Y7473797D01*
X2585821Y7479131D01*
X2575407Y7489545D01*
X2692755Y7583017D02*
G01*
X2749905Y7583017D01*
X2718917Y7541361D01*
X2734411Y7541361D01*
X2744825Y7536281D01*
X2749905Y7530947D01*
X2755239Y7515453D01*
X2755239Y7505039D01*
X2749905Y7489545D01*
X2739745Y7479131D01*
X2723997Y7473797D01*
X2708503Y7473797D01*
X2692755Y7479131D01*
X2687675Y7484211D01*
X2682595Y7494625D01*
X2789529Y7520533D02*
G01*
X2883001Y7520533D01*
X2917291Y7583017D02*
G01*
X2917291Y7473797D01*
X2917291Y7583017D02*
G01*
X2953613Y7583017D01*
X2969361Y7577683D01*
X2979775Y7567269D01*
X2984855Y7556855D01*
X2989935Y7541361D01*
X2989935Y7515453D01*
X2984855Y7499705D01*
X2979775Y7489545D01*
X2969361Y7479131D01*
X2953613Y7473797D01*
X2917291Y7473797D01*
X3024225Y7583017D02*
G01*
X3024225Y7473797D01*
X3024225Y7583017D02*
G01*
X3091789Y7583017D01*
X3024225Y7530947D02*
G01*
X3065881Y7530947D01*
X3024225Y7473797D02*
G01*
X3091789Y7473797D01*
X3126079Y7583017D02*
G01*
X3167735Y7473797D01*
X3209391Y7583017D02*
G01*
X3167735Y7473797D01*
X3243681Y7583017D02*
G01*
X3243681Y7473797D01*
X3316325Y7583017D02*
G01*
X3243681Y7510119D01*
X3269589Y7536281D02*
G01*
X3316325Y7473797D01*
X3350615Y7583017D02*
G01*
X3350615Y7473797D01*
X3421227Y7583017D02*
G01*
X3421227Y7473797D01*
X3384905Y7583017D02*
G01*
X3457549Y7583017D01*
X3569817Y7556855D02*
G01*
X3564737Y7567269D01*
X3554323Y7577683D01*
X3543909Y7583017D01*
X3523081Y7583017D01*
X3512667Y7577683D01*
X3502253Y7567269D01*
X3497173Y7556855D01*
X3491839Y7541361D01*
X3491839Y7515453D01*
X3497173Y7499705D01*
X3502253Y7489545D01*
X3512667Y7479131D01*
X3523081Y7473797D01*
X3543909Y7473797D01*
X3554323Y7479131D01*
X3564737Y7489545D01*
X3569817Y7499705D01*
X3604107Y7520533D02*
G01*
X3697579Y7520533D01*
X3731869Y7562189D02*
G01*
X3742283Y7567269D01*
X3758031Y7583017D01*
X3758031Y7473797D01*
D11*
X3351027Y3048010D02*
G01*
X3544829Y3048010D01*
X3351027Y3048010D02*
G01*
X3351027Y3168152D01*
X3443229Y3048010D02*
G01*
X3443229Y3121924D01*
X3544829Y3048010D02*
G01*
X3544829Y3168152D01*
X3378713Y3358398D02*
G01*
X3360171Y3339856D01*
X3351027Y3312170D01*
X3351027Y3275340D01*
X3360171Y3247400D01*
X3378713Y3229112D01*
X3397255Y3229112D01*
X3415543Y3238256D01*
X3424941Y3247400D01*
X3434085Y3265942D01*
X3452627Y3321314D01*
X3461771Y3339856D01*
X3470915Y3349000D01*
X3489457Y3358398D01*
X3517143Y3358398D01*
X3535685Y3339856D01*
X3544829Y3312170D01*
X3544829Y3275340D01*
X3535685Y3247400D01*
X3517143Y3229112D01*
X3351027Y3419358D02*
G01*
X3544829Y3419358D01*
X3351027Y3419358D02*
G01*
X3351027Y3502416D01*
X3360171Y3530102D01*
X3369315Y3539500D01*
X3387857Y3548644D01*
X3415543Y3548644D01*
X3434085Y3539500D01*
X3443229Y3530102D01*
X3452627Y3502416D01*
X3452627Y3419358D01*
X3351027Y3628146D02*
G01*
X3351027Y3729746D01*
X3424941Y3674120D01*
X3424941Y3702060D01*
X3434085Y3720348D01*
X3443229Y3729746D01*
X3470915Y3738890D01*
X3489457Y3738890D01*
X3517143Y3729746D01*
X3535685Y3711204D01*
X3544829Y3683518D01*
X3544829Y3655832D01*
X3535685Y3628146D01*
X3526541Y3618748D01*
X3507999Y3609604D01*
X3397255Y3808994D02*
G01*
X3387857Y3808994D01*
X3369315Y3818392D01*
X3360171Y3827536D01*
X3351027Y3846078D01*
X3351027Y3882908D01*
X3360171Y3901450D01*
X3369315Y3910594D01*
X3387857Y3919992D01*
X3406399Y3919992D01*
X3424941Y3910594D01*
X3452627Y3892306D01*
X3544829Y3799850D01*
X3544829Y3929136D01*
X3461771Y3990096D02*
G01*
X3461771Y4156466D01*
X3378713Y4346712D02*
G01*
X3360171Y4328170D01*
X3351027Y4300484D01*
X3351027Y4263400D01*
X3360171Y4235714D01*
X3378713Y4217426D01*
X3397255Y4217426D01*
X3415543Y4226570D01*
X3424941Y4235714D01*
X3434085Y4254256D01*
X3452627Y4309628D01*
X3461771Y4328170D01*
X3470915Y4337314D01*
X3489457Y4346712D01*
X3517143Y4346712D01*
X3535685Y4328170D01*
X3544829Y4300484D01*
X3544829Y4263400D01*
X3535685Y4235714D01*
X3517143Y4217426D01*
X3351027Y4425960D02*
G01*
X3351027Y4527560D01*
X3424941Y4472188D01*
X3424941Y4499874D01*
X3434085Y4518416D01*
X3443229Y4527560D01*
X3470915Y4536958D01*
X3489457Y4536958D01*
X3517143Y4527560D01*
X3535685Y4509272D01*
X3544829Y4481586D01*
X3544829Y4453900D01*
X3535685Y4425960D01*
X3526541Y4416816D01*
X3507999Y4407672D01*
X3461771Y4597918D02*
G01*
X3461771Y4764034D01*
X3351027Y4824994D02*
G01*
X3544829Y4824994D01*
X3351027Y4824994D02*
G01*
X3351027Y4889764D01*
X3360171Y4917450D01*
X3378713Y4935992D01*
X3397255Y4945136D01*
X3424941Y4954280D01*
X3470915Y4954280D01*
X3498855Y4945136D01*
X3517143Y4935992D01*
X3535685Y4917450D01*
X3544829Y4889764D01*
X3544829Y4824994D01*
X3470915Y5015240D02*
G01*
X3470915Y5126238D01*
X3452627Y5126238D01*
X3434085Y5116840D01*
X3424941Y5107696D01*
X3415543Y5089154D01*
X3415543Y5061468D01*
X3424941Y5043180D01*
X3443229Y5024638D01*
X3470915Y5015240D01*
X3489457Y5015240D01*
X3517143Y5024638D01*
X3535685Y5043180D01*
X3544829Y5061468D01*
X3544829Y5089154D01*
X3535685Y5107696D01*
X3517143Y5126238D01*
X3415543Y5187198D02*
G01*
X3544829Y5242570D01*
X3415543Y5297942D02*
G01*
X3544829Y5242570D01*
X3351027Y5358902D02*
G01*
X3544829Y5358902D01*
X3351027Y5488188D02*
G01*
X3480313Y5358902D01*
X3434085Y5405130D02*
G01*
X3544829Y5488188D01*
X3351027Y5549148D02*
G01*
X3360171Y5558546D01*
X3351027Y5567690D01*
X3341629Y5558546D01*
X3351027Y5549148D01*
X3415543Y5558546D02*
G01*
X3544829Y5558546D01*
X3351027Y5656336D02*
G01*
X3507999Y5656336D01*
X3535685Y5665480D01*
X3544829Y5684022D01*
X3544829Y5702564D01*
X3415543Y5628650D02*
G01*
X3415543Y5693420D01*
X3397255Y5901954D02*
G01*
X3378713Y5892810D01*
X3360171Y5874268D01*
X3351027Y5855980D01*
X3351027Y5818896D01*
X3360171Y5800354D01*
X3378713Y5782066D01*
X3397255Y5772668D01*
X3424941Y5763524D01*
X3470915Y5763524D01*
X3498855Y5772668D01*
X3517143Y5782066D01*
X3535685Y5800354D01*
X3544829Y5818896D01*
X3544829Y5855980D01*
X3535685Y5874268D01*
X3517143Y5892810D01*
X3498855Y5901954D01*
X3461771Y5962914D02*
G01*
X3461771Y6129284D01*
X3387857Y6190244D02*
G01*
X3378713Y6208786D01*
X3351027Y6236472D01*
X3544829Y6236472D01*
X3415543Y6439672D02*
G01*
X3544829Y6495044D01*
X3415543Y6550416D02*
G01*
X3544829Y6495044D01*
X3387857Y6611376D02*
G01*
X3378713Y6629918D01*
X3351027Y6657604D01*
X3544829Y6657604D01*
X3498855Y6727708D02*
G01*
X3507999Y6718564D01*
X3517143Y6727708D01*
X3507999Y6737106D01*
X3498855Y6727708D01*
X3351027Y6853438D02*
G01*
X3360171Y6825752D01*
X3387857Y6807210D01*
X3434085Y6798066D01*
X3461771Y6798066D01*
X3507999Y6807210D01*
X3535685Y6825752D01*
X3544829Y6853438D01*
X3544829Y6871980D01*
X3535685Y6899666D01*
X3507999Y6917954D01*
X3461771Y6927352D01*
X3434085Y6927352D01*
X3387857Y6917954D01*
X3360171Y6899666D01*
X3351027Y6871980D01*
X3351027Y6853438D01*
D12*
X1805939Y7282434D02*
G01*
X1855978Y7282434D01*
X1828545Y7246112D01*
X1842262Y7246112D01*
X1851405Y7241539D01*
X1855978Y7236968D01*
X1860550Y7223505D01*
X1860550Y7214362D01*
X1855978Y7200645D01*
X1846834Y7191502D01*
X1833118Y7186929D01*
X1819402Y7186929D01*
X1805939Y7191502D01*
X1801368Y7196073D01*
X1796795Y7205218D01*
X1890521Y7282434D02*
G01*
X1926844Y7186929D01*
X1963165Y7282434D02*
G01*
X1926844Y7186929D01*
X2002281Y7282434D02*
G01*
X2052320Y7282434D01*
X2024888Y7246112D01*
X2038604Y7246112D01*
X2047747Y7241539D01*
X2052320Y7236968D01*
X2056891Y7223505D01*
X2056891Y7214362D01*
X2052320Y7200645D01*
X2043175Y7191502D01*
X2029459Y7186929D01*
X2015997Y7186929D01*
X2002281Y7191502D01*
X1997709Y7196073D01*
X1993138Y7205218D01*
X1805939Y7028434D02*
G01*
X1855978Y7028434D01*
X1828545Y6992112D01*
X1842262Y6992112D01*
X1851405Y6987539D01*
X1855978Y6982968D01*
X1860550Y6969505D01*
X1860550Y6960362D01*
X1855978Y6946645D01*
X1846834Y6937502D01*
X1833118Y6932929D01*
X1819402Y6932929D01*
X1805939Y6937502D01*
X1801368Y6942073D01*
X1796795Y6951218D01*
X1890521Y7028434D02*
G01*
X1926844Y6932929D01*
X1963165Y7028434D02*
G01*
X1926844Y6932929D01*
X2002281Y7028434D02*
G01*
X2052320Y7028434D01*
X2024888Y6992112D01*
X2038604Y6992112D01*
X2047747Y6987539D01*
X2052320Y6982968D01*
X2056891Y6969505D01*
X2056891Y6960362D01*
X2052320Y6946645D01*
X2043175Y6937502D01*
X2029459Y6932929D01*
X2015997Y6932929D01*
X2002281Y6937502D01*
X1997709Y6942073D01*
X1993138Y6951218D01*
X1842262Y6520434D02*
G01*
X1796795Y6456934D01*
X1864868Y6456934D01*
X1842262Y6520434D02*
G01*
X1842262Y6424929D01*
X1851405Y6266434D02*
G01*
X1805939Y6266434D01*
X1801368Y6225539D01*
X1805939Y6230112D01*
X1819402Y6234684D01*
X1833118Y6234684D01*
X1846834Y6230112D01*
X1855978Y6220968D01*
X1860550Y6207505D01*
X1860550Y6198362D01*
X1855978Y6184645D01*
X1846834Y6175502D01*
X1833118Y6170929D01*
X1819402Y6170929D01*
X1805939Y6175502D01*
X1801368Y6180073D01*
X1796795Y6189218D01*
X1851405Y5998971D02*
G01*
X1846834Y6007862D01*
X1833118Y6012434D01*
X1823973Y6012434D01*
X1810512Y6007862D01*
X1801368Y5994400D01*
X1796795Y5971539D01*
X1796795Y5948934D01*
X1801368Y5930645D01*
X1810512Y5921502D01*
X1823973Y5916929D01*
X1828545Y5916929D01*
X1842262Y5921502D01*
X1851405Y5930645D01*
X1855978Y5944362D01*
X1855978Y5948934D01*
X1851405Y5962395D01*
X1842262Y5971539D01*
X1828545Y5976112D01*
X1823973Y5976112D01*
X1810512Y5971539D01*
X1801368Y5962395D01*
X1796795Y5948934D01*
X1860550Y5758434D02*
G01*
X1815084Y5662929D01*
X1796795Y5758434D02*
G01*
X1860550Y5758434D01*
X1796795Y5486400D02*
G01*
X1805939Y5490971D01*
X1819402Y5504434D01*
X1819402Y5408929D01*
X1903984Y5504434D02*
G01*
X1858518Y5504434D01*
X1853945Y5463539D01*
X1858518Y5468112D01*
X1872234Y5472684D01*
X1885950Y5472684D01*
X1899412Y5468112D01*
X1908555Y5458968D01*
X1913128Y5445505D01*
X1913128Y5436362D01*
X1908555Y5422645D01*
X1899412Y5413502D01*
X1885950Y5408929D01*
X1872234Y5408929D01*
X1858518Y5413502D01*
X1853945Y5418073D01*
X1849628Y5427218D01*
X1796795Y5232400D02*
G01*
X1805939Y5236971D01*
X1819402Y5250434D01*
X1819402Y5154929D01*
X1903984Y5236971D02*
G01*
X1899412Y5245862D01*
X1885950Y5250434D01*
X1876805Y5250434D01*
X1863089Y5245862D01*
X1853945Y5232400D01*
X1849628Y5209539D01*
X1849628Y5186934D01*
X1853945Y5168645D01*
X1863089Y5159502D01*
X1876805Y5154929D01*
X1881378Y5154929D01*
X1895094Y5159502D01*
X1903984Y5168645D01*
X1908555Y5182362D01*
X1908555Y5186934D01*
X1903984Y5200395D01*
X1895094Y5209539D01*
X1881378Y5214112D01*
X1876805Y5214112D01*
X1863089Y5209539D01*
X1853945Y5200395D01*
X1849628Y5186934D01*
X1796795Y4978400D02*
G01*
X1805939Y4982971D01*
X1819402Y4996434D01*
X1819402Y4900929D01*
X1913128Y4996434D02*
G01*
X1867662Y4900929D01*
X1849628Y4996434D02*
G01*
X1913128Y4996434D01*
X1796795Y4724400D02*
G01*
X1805939Y4728971D01*
X1819402Y4742434D01*
X1819402Y4646929D01*
X1872234Y4742434D02*
G01*
X1858518Y4737862D01*
X1853945Y4728971D01*
X1853945Y4719828D01*
X1858518Y4710684D01*
X1867662Y4706112D01*
X1885950Y4701539D01*
X1899412Y4696968D01*
X1908555Y4688078D01*
X1913128Y4678934D01*
X1913128Y4665218D01*
X1908555Y4656073D01*
X1903984Y4651502D01*
X1890521Y4646929D01*
X1872234Y4646929D01*
X1858518Y4651502D01*
X1853945Y4656073D01*
X1849628Y4665218D01*
X1849628Y4678934D01*
X1853945Y4688078D01*
X1863089Y4696968D01*
X1876805Y4701539D01*
X1895094Y4706112D01*
X1903984Y4710684D01*
X1908555Y4719828D01*
X1908555Y4728971D01*
X1903984Y4737862D01*
X1890521Y4742434D01*
X1872234Y4742434D01*
X1819402Y4488434D02*
G01*
X1805939Y4483862D01*
X1801368Y4474971D01*
X1801368Y4465828D01*
X1805939Y4456684D01*
X1815084Y4452112D01*
X1833118Y4447539D01*
X1846834Y4442968D01*
X1855978Y4434078D01*
X1860550Y4424934D01*
X1860550Y4411218D01*
X1855978Y4402073D01*
X1851405Y4397502D01*
X1837689Y4392929D01*
X1819402Y4392929D01*
X1805939Y4397502D01*
X1801368Y4402073D01*
X1796795Y4411218D01*
X1796795Y4424934D01*
X1801368Y4434078D01*
X1810512Y4442968D01*
X1823973Y4447539D01*
X1842262Y4452112D01*
X1851405Y4456684D01*
X1855978Y4465828D01*
X1855978Y4474971D01*
X1851405Y4483862D01*
X1837689Y4488434D01*
X1819402Y4488434D01*
X1805939Y4234434D02*
G01*
X1855978Y4234434D01*
X1828545Y4198112D01*
X1842262Y4198112D01*
X1851405Y4193539D01*
X1855978Y4188968D01*
X1860550Y4175505D01*
X1860550Y4166362D01*
X1855978Y4152645D01*
X1846834Y4143502D01*
X1833118Y4138929D01*
X1819402Y4138929D01*
X1805939Y4143502D01*
X1801368Y4148073D01*
X1796795Y4157218D01*
X1842262Y3980434D02*
G01*
X1796795Y3916934D01*
X1864868Y3916934D01*
X1842262Y3980434D02*
G01*
X1842262Y3884929D01*
X1949450Y3966971D02*
G01*
X1944877Y3975862D01*
X1931415Y3980434D01*
X1922271Y3980434D01*
X1908555Y3975862D01*
X1899412Y3962400D01*
X1895094Y3939539D01*
X1895094Y3916934D01*
X1899412Y3898645D01*
X1908555Y3889502D01*
X1922271Y3884929D01*
X1926844Y3884929D01*
X1940559Y3889502D01*
X1949450Y3898645D01*
X1954022Y3912362D01*
X1954022Y3916934D01*
X1949450Y3930395D01*
X1940559Y3939539D01*
X1926844Y3944112D01*
X1922271Y3944112D01*
X1908555Y3939539D01*
X1899412Y3930395D01*
X1895094Y3916934D01*
X1855978Y3681984D02*
G01*
X1851405Y3668268D01*
X1842262Y3659378D01*
X1828545Y3654805D01*
X1823973Y3654805D01*
X1810512Y3659378D01*
X1801368Y3668268D01*
X1796795Y3681984D01*
X1796795Y3686555D01*
X1801368Y3700271D01*
X1810512Y3709162D01*
X1823973Y3713734D01*
X1828545Y3713734D01*
X1842262Y3709162D01*
X1851405Y3700271D01*
X1855978Y3681984D01*
X1855978Y3659378D01*
X1851405Y3636518D01*
X1842262Y3622802D01*
X1828545Y3618484D01*
X1819402Y3618484D01*
X1805939Y3622802D01*
X1801368Y3631945D01*
X1796795Y3454400D02*
G01*
X1805939Y3458971D01*
X1819402Y3472434D01*
X1819402Y3377184D01*
X1876805Y3472434D02*
G01*
X1863089Y3467862D01*
X1853945Y3454400D01*
X1849628Y3431539D01*
X1849628Y3418078D01*
X1853945Y3395218D01*
X1863089Y3381502D01*
X1876805Y3377184D01*
X1885950Y3377184D01*
X1899412Y3381502D01*
X1908555Y3395218D01*
X1913128Y3418078D01*
X1913128Y3431539D01*
X1908555Y3454400D01*
X1899412Y3467862D01*
X1885950Y3472434D01*
X1876805Y3472434D01*
X1796795Y3200400D02*
G01*
X1805939Y3204971D01*
X1819402Y3218434D01*
X1819402Y3123184D01*
X1849628Y3200400D02*
G01*
X1858518Y3204971D01*
X1872234Y3218434D01*
X1872234Y3123184D01*
X1796795Y2946400D02*
G01*
X1805939Y2950971D01*
X1819402Y2964434D01*
X1819402Y2869184D01*
X1853945Y2941828D02*
G01*
X1853945Y2946400D01*
X1858518Y2955544D01*
X1863089Y2959862D01*
X1872234Y2964434D01*
X1890521Y2964434D01*
X1899412Y2959862D01*
X1903984Y2955544D01*
X1908555Y2946400D01*
X1908555Y2937255D01*
X1903984Y2928112D01*
X1895094Y2914395D01*
X1849628Y2869184D01*
X1913128Y2869184D01*
X1796795Y2692400D02*
G01*
X1805939Y2696971D01*
X1819402Y2710434D01*
X1819402Y2615184D01*
X1858518Y2710434D02*
G01*
X1908555Y2710434D01*
X1881378Y2674112D01*
X1895094Y2674112D01*
X1903984Y2669539D01*
X1908555Y2664968D01*
X1913128Y2651505D01*
X1913128Y2642362D01*
X1908555Y2628645D01*
X1899412Y2619502D01*
X1885950Y2615184D01*
X1872234Y2615184D01*
X1858518Y2619502D01*
X1853945Y2624073D01*
X1849628Y2633218D01*
X1796795Y2438400D02*
G01*
X1805939Y2442971D01*
X1819402Y2456434D01*
X1819402Y2361184D01*
X1895094Y2456434D02*
G01*
X1849628Y2392934D01*
X1917700Y2392934D01*
X1895094Y2456434D02*
G01*
X1895094Y2361184D01*
X1851405Y2189734D02*
G01*
X1805939Y2189734D01*
X1801368Y2148839D01*
X1805939Y2153412D01*
X1819402Y2157984D01*
X1833118Y2157984D01*
X1846834Y2153412D01*
X1855978Y2144268D01*
X1860550Y2130805D01*
X1860550Y2121662D01*
X1855978Y2107945D01*
X1846834Y2098802D01*
X1833118Y2094484D01*
X1819402Y2094484D01*
X1805939Y2098802D01*
X1801368Y2103373D01*
X1796795Y2112518D01*
X1890521Y2189734D02*
G01*
X1926844Y2094484D01*
X1963165Y2189734D02*
G01*
X1926844Y2094484D01*
X1864868Y1925828D02*
G01*
X1860550Y1934971D01*
X1851405Y1943862D01*
X1842262Y1948434D01*
X1823973Y1948434D01*
X1815084Y1943862D01*
X1805939Y1934971D01*
X1801368Y1925828D01*
X1796795Y1912112D01*
X1796795Y1889505D01*
X1801368Y1875789D01*
X1805939Y1866645D01*
X1815084Y1857502D01*
X1823973Y1853184D01*
X1842262Y1853184D01*
X1851405Y1857502D01*
X1860550Y1866645D01*
X1864868Y1875789D01*
X1864868Y1889505D01*
X1842262Y1889505D02*
G01*
X1864868Y1889505D01*
X1895094Y1948434D02*
G01*
X1895094Y1853184D01*
X1895094Y1948434D02*
G01*
X1958593Y1853184D01*
X1958593Y1948434D02*
G01*
X1958593Y1853184D01*
X1988565Y1948434D02*
G01*
X1988565Y1853184D01*
X1988565Y1948434D02*
G01*
X2020315Y1948434D01*
X2034031Y1943862D01*
X2043175Y1934971D01*
X2047747Y1925828D01*
X2052320Y1912112D01*
X2052320Y1889505D01*
X2047747Y1875789D01*
X2043175Y1866645D01*
X2034031Y1857502D01*
X2020315Y1853184D01*
X1988565Y1853184D01*
X1796795Y6774434D02*
G01*
X1796795Y6678929D01*
X1796795Y6774434D02*
G01*
X1837689Y6774434D01*
X1851405Y6769862D01*
X1855978Y6765289D01*
X1860550Y6756400D01*
X1860550Y6747255D01*
X1855978Y6738112D01*
X1851405Y6733539D01*
X1837689Y6728968D01*
X1796795Y6728968D01*
X1828545Y6728968D02*
G01*
X1860550Y6678929D01*
X1954022Y6760971D02*
G01*
X1944877Y6769862D01*
X1931415Y6774434D01*
X1913128Y6774434D01*
X1899412Y6769862D01*
X1890521Y6760971D01*
X1890521Y6751828D01*
X1895094Y6742684D01*
X1899412Y6738112D01*
X1908555Y6733539D01*
X1935988Y6724395D01*
X1944877Y6720078D01*
X1949450Y6715505D01*
X1954022Y6706362D01*
X1954022Y6692645D01*
X1944877Y6683502D01*
X1931415Y6678929D01*
X1913128Y6678929D01*
X1899412Y6683502D01*
X1890521Y6692645D01*
X2015997Y6774434D02*
G01*
X2015997Y6678929D01*
X1983993Y6774434D02*
G01*
X2047747Y6774434D01*
X3617468Y7259828D02*
G01*
X3613150Y7268971D01*
X3604006Y7277862D01*
X3594861Y7282434D01*
X3576574Y7282434D01*
X3567684Y7277862D01*
X3558540Y7268971D01*
X3553968Y7259828D01*
X3549395Y7246112D01*
X3549395Y7223505D01*
X3553968Y7209789D01*
X3558540Y7200645D01*
X3567684Y7191502D01*
X3576574Y7186929D01*
X3594861Y7186929D01*
X3604006Y7191502D01*
X3613150Y7200645D01*
X3617468Y7209789D01*
X3617468Y7223505D01*
X3594861Y7223505D02*
G01*
X3617468Y7223505D01*
X3647693Y7282434D02*
G01*
X3647693Y7186929D01*
X3647693Y7282434D02*
G01*
X3711193Y7186929D01*
X3711193Y7282434D02*
G01*
X3711193Y7186929D01*
X3741165Y7282434D02*
G01*
X3741165Y7186929D01*
X3741165Y7282434D02*
G01*
X3772915Y7282434D01*
X3786631Y7277862D01*
X3795775Y7268971D01*
X3800347Y7259828D01*
X3804920Y7246112D01*
X3804920Y7223505D01*
X3800347Y7209789D01*
X3795775Y7200645D01*
X3786631Y7191502D01*
X3772915Y7186929D01*
X3741165Y7186929D01*
X3670045Y7041134D02*
G01*
X3670045Y6945629D01*
X3638295Y7041134D02*
G01*
X3702050Y7041134D01*
X3732022Y7041134D02*
G01*
X3795522Y6945629D01*
X3795522Y7041134D02*
G01*
X3732022Y6945629D01*
X3638295Y6787134D02*
G01*
X3638295Y6691629D01*
X3638295Y6787134D02*
G01*
X3679190Y6787134D01*
X3692906Y6782562D01*
X3697477Y6777989D01*
X3702050Y6769100D01*
X3702050Y6759955D01*
X3697477Y6750812D01*
X3692906Y6746239D01*
X3679190Y6741668D01*
X3638295Y6741668D01*
X3670045Y6741668D02*
G01*
X3702050Y6691629D01*
X3732022Y6787134D02*
G01*
X3795522Y6691629D01*
X3795522Y6787134D02*
G01*
X3732022Y6691629D01*
X3777995Y6515100D02*
G01*
X3787140Y6519671D01*
X3800602Y6533134D01*
X3800602Y6437629D01*
X3744468Y6256528D02*
G01*
X3744468Y6261100D01*
X3749040Y6269989D01*
X3753611Y6274562D01*
X3762502Y6279134D01*
X3780790Y6279134D01*
X3789934Y6274562D01*
X3794506Y6269989D01*
X3799077Y6261100D01*
X3799077Y6251955D01*
X3794506Y6242812D01*
X3785361Y6229095D01*
X3739895Y6183629D01*
X3803650Y6183629D01*
X3683761Y6025134D02*
G01*
X3638295Y5961634D01*
X3706368Y5961634D01*
X3683761Y6025134D02*
G01*
X3683761Y5929629D01*
X3740911Y6002528D02*
G01*
X3740911Y6007100D01*
X3745484Y6015989D01*
X3750056Y6020562D01*
X3759200Y6025134D01*
X3777488Y6025134D01*
X3786377Y6020562D01*
X3790950Y6015989D01*
X3795522Y6007100D01*
X3795522Y5997955D01*
X3790950Y5988812D01*
X3781806Y5975095D01*
X3736593Y5929629D01*
X3800093Y5929629D01*
X3721861Y5771134D02*
G01*
X3676395Y5707634D01*
X3744468Y5707634D01*
X3721861Y5771134D02*
G01*
X3721861Y5675629D01*
X3774693Y5753100D02*
G01*
X3783584Y5757671D01*
X3797300Y5771134D01*
X3797300Y5675629D01*
X3683761Y5517134D02*
G01*
X3638295Y5453634D01*
X3706368Y5453634D01*
X3683761Y5517134D02*
G01*
X3683761Y5421629D01*
X3763772Y5517134D02*
G01*
X3750056Y5512562D01*
X3740911Y5499100D01*
X3736593Y5476239D01*
X3736593Y5462778D01*
X3740911Y5439918D01*
X3750056Y5426202D01*
X3763772Y5421629D01*
X3772915Y5421629D01*
X3786377Y5426202D01*
X3795522Y5439918D01*
X3800093Y5462778D01*
X3800093Y5476239D01*
X3795522Y5499100D01*
X3786377Y5512562D01*
X3772915Y5517134D01*
X3763772Y5517134D01*
X3660140Y5263134D02*
G01*
X3710177Y5263134D01*
X3682745Y5226812D01*
X3696461Y5226812D01*
X3705606Y5222239D01*
X3710177Y5217668D01*
X3714750Y5204205D01*
X3714750Y5195062D01*
X3710177Y5181345D01*
X3701034Y5172202D01*
X3687318Y5167629D01*
X3673602Y5167629D01*
X3660140Y5172202D01*
X3655568Y5176773D01*
X3650995Y5185918D01*
X3803650Y5231384D02*
G01*
X3799077Y5217668D01*
X3790188Y5208778D01*
X3776472Y5204205D01*
X3771900Y5204205D01*
X3758184Y5208778D01*
X3749293Y5217668D01*
X3744722Y5231384D01*
X3744722Y5235955D01*
X3749293Y5249671D01*
X3758184Y5258562D01*
X3771900Y5263134D01*
X3776472Y5263134D01*
X3790188Y5258562D01*
X3799077Y5249671D01*
X3803650Y5231384D01*
X3803650Y5208778D01*
X3799077Y5185918D01*
X3790188Y5172202D01*
X3776472Y5167629D01*
X3767327Y5167629D01*
X3753611Y5172202D01*
X3749293Y5181345D01*
X3647440Y5009134D02*
G01*
X3697477Y5009134D01*
X3670045Y4972812D01*
X3683761Y4972812D01*
X3692906Y4968239D01*
X3697477Y4963668D01*
X3702050Y4950205D01*
X3702050Y4941062D01*
X3697477Y4927345D01*
X3688334Y4918202D01*
X3674618Y4913629D01*
X3660902Y4913629D01*
X3647440Y4918202D01*
X3642868Y4922773D01*
X3638295Y4931918D01*
X3754627Y5009134D02*
G01*
X3740911Y5004562D01*
X3736593Y4995671D01*
X3736593Y4986528D01*
X3740911Y4977384D01*
X3750056Y4972812D01*
X3768343Y4968239D01*
X3781806Y4963668D01*
X3790950Y4954778D01*
X3795522Y4945634D01*
X3795522Y4931918D01*
X3790950Y4922773D01*
X3786377Y4918202D01*
X3772915Y4913629D01*
X3754627Y4913629D01*
X3740911Y4918202D01*
X3736593Y4922773D01*
X3732022Y4931918D01*
X3732022Y4945634D01*
X3736593Y4954778D01*
X3745484Y4963668D01*
X3759200Y4968239D01*
X3777488Y4972812D01*
X3786377Y4977384D01*
X3790950Y4986528D01*
X3790950Y4995671D01*
X3786377Y5004562D01*
X3772915Y5009134D01*
X3754627Y5009134D01*
X3647440Y4755134D02*
G01*
X3697477Y4755134D01*
X3670045Y4718812D01*
X3683761Y4718812D01*
X3692906Y4714239D01*
X3697477Y4709668D01*
X3702050Y4696205D01*
X3702050Y4687062D01*
X3697477Y4673345D01*
X3688334Y4664202D01*
X3674618Y4659629D01*
X3660902Y4659629D01*
X3647440Y4664202D01*
X3642868Y4668773D01*
X3638295Y4677918D01*
X3795522Y4755134D02*
G01*
X3750056Y4659629D01*
X3732022Y4755134D02*
G01*
X3795522Y4755134D01*
X3660140Y4501134D02*
G01*
X3710177Y4501134D01*
X3682745Y4464812D01*
X3696461Y4464812D01*
X3705606Y4460239D01*
X3710177Y4455668D01*
X3714750Y4442205D01*
X3714750Y4433062D01*
X3710177Y4419345D01*
X3701034Y4410202D01*
X3687318Y4405629D01*
X3673602Y4405629D01*
X3660140Y4410202D01*
X3655568Y4414773D01*
X3650995Y4423918D01*
X3799077Y4487671D02*
G01*
X3794506Y4496562D01*
X3781043Y4501134D01*
X3771900Y4501134D01*
X3758184Y4496562D01*
X3749293Y4483100D01*
X3744722Y4460239D01*
X3744722Y4437634D01*
X3749293Y4419345D01*
X3758184Y4410202D01*
X3771900Y4405629D01*
X3776472Y4405629D01*
X3790188Y4410202D01*
X3799077Y4419345D01*
X3803650Y4433062D01*
X3803650Y4437634D01*
X3799077Y4451095D01*
X3790188Y4460239D01*
X3776472Y4464812D01*
X3771900Y4464812D01*
X3758184Y4460239D01*
X3749293Y4451095D01*
X3744722Y4437634D01*
X3660140Y4247134D02*
G01*
X3710177Y4247134D01*
X3682745Y4210812D01*
X3696461Y4210812D01*
X3705606Y4206239D01*
X3710177Y4201668D01*
X3714750Y4188205D01*
X3714750Y4179062D01*
X3710177Y4165345D01*
X3701034Y4156202D01*
X3687318Y4151629D01*
X3673602Y4151629D01*
X3660140Y4156202D01*
X3655568Y4160773D01*
X3650995Y4169918D01*
X3799077Y4247134D02*
G01*
X3753611Y4247134D01*
X3749293Y4206239D01*
X3753611Y4210812D01*
X3767327Y4215384D01*
X3781043Y4215384D01*
X3794506Y4210812D01*
X3803650Y4201668D01*
X3808222Y4188205D01*
X3808222Y4179062D01*
X3803650Y4165345D01*
X3794506Y4156202D01*
X3781043Y4151629D01*
X3767327Y4151629D01*
X3753611Y4156202D01*
X3749293Y4160773D01*
X3744722Y4169918D01*
X3767074Y3993134D02*
G01*
X3753611Y3988562D01*
X3744468Y3975100D01*
X3739895Y3952239D01*
X3739895Y3938778D01*
X3744468Y3915918D01*
X3753611Y3902202D01*
X3767074Y3897884D01*
X3776218Y3897884D01*
X3789934Y3902202D01*
X3799077Y3915918D01*
X3803650Y3938778D01*
X3803650Y3952239D01*
X3799077Y3975100D01*
X3789934Y3988562D01*
X3776218Y3993134D01*
X3767074Y3993134D01*
X3683761Y3739134D02*
G01*
X3638295Y3675634D01*
X3706368Y3675634D01*
X3683761Y3739134D02*
G01*
X3683761Y3643884D01*
X3790950Y3739134D02*
G01*
X3745484Y3739134D01*
X3740911Y3698239D01*
X3745484Y3702812D01*
X3759200Y3707384D01*
X3772915Y3707384D01*
X3786377Y3702812D01*
X3795522Y3693668D01*
X3800093Y3680205D01*
X3800093Y3671062D01*
X3795522Y3657345D01*
X3786377Y3648202D01*
X3772915Y3643884D01*
X3759200Y3643884D01*
X3745484Y3648202D01*
X3740911Y3652773D01*
X3736593Y3661918D01*
X3683761Y3485134D02*
G01*
X3638295Y3421634D01*
X3706368Y3421634D01*
X3683761Y3485134D02*
G01*
X3683761Y3389884D01*
X3759200Y3485134D02*
G01*
X3745484Y3480562D01*
X3740911Y3471671D01*
X3740911Y3462528D01*
X3745484Y3453384D01*
X3754627Y3448812D01*
X3772915Y3444239D01*
X3786377Y3439668D01*
X3795522Y3430778D01*
X3800093Y3421634D01*
X3800093Y3407918D01*
X3795522Y3398773D01*
X3790950Y3394202D01*
X3777488Y3389884D01*
X3759200Y3389884D01*
X3745484Y3394202D01*
X3740911Y3398773D01*
X3736593Y3407918D01*
X3736593Y3421634D01*
X3740911Y3430778D01*
X3750056Y3439668D01*
X3763772Y3444239D01*
X3781806Y3448812D01*
X3790950Y3453384D01*
X3795522Y3462528D01*
X3795522Y3471671D01*
X3790950Y3480562D01*
X3777488Y3485134D01*
X3759200Y3485134D01*
X3683761Y3231134D02*
G01*
X3638295Y3167634D01*
X3706368Y3167634D01*
X3683761Y3231134D02*
G01*
X3683761Y3135884D01*
X3800093Y3231134D02*
G01*
X3754627Y3135884D01*
X3736593Y3231134D02*
G01*
X3800093Y3231134D01*
X3693668Y2967228D02*
G01*
X3693668Y2971800D01*
X3698240Y2980944D01*
X3702811Y2985262D01*
X3711702Y2989834D01*
X3729990Y2989834D01*
X3739134Y2985262D01*
X3743706Y2980944D01*
X3748277Y2971800D01*
X3748277Y2962655D01*
X3743706Y2953512D01*
X3734561Y2939795D01*
X3689095Y2894584D01*
X3752850Y2894584D01*
X3782822Y2971800D02*
G01*
X3791711Y2976371D01*
X3805427Y2989834D01*
X3805427Y2894584D01*
X3655568Y2700528D02*
G01*
X3655568Y2705100D01*
X3660140Y2714244D01*
X3664711Y2718562D01*
X3673602Y2723134D01*
X3691890Y2723134D01*
X3701034Y2718562D01*
X3705606Y2714244D01*
X3710177Y2705100D01*
X3710177Y2695955D01*
X3705606Y2686812D01*
X3696461Y2673095D01*
X3650995Y2627884D01*
X3714750Y2627884D01*
X3771900Y2723134D02*
G01*
X3758184Y2718562D01*
X3749293Y2705100D01*
X3744722Y2682239D01*
X3744722Y2668778D01*
X3749293Y2645918D01*
X3758184Y2632202D01*
X3771900Y2627884D01*
X3781043Y2627884D01*
X3794506Y2632202D01*
X3803650Y2645918D01*
X3808222Y2668778D01*
X3808222Y2682239D01*
X3803650Y2705100D01*
X3794506Y2718562D01*
X3781043Y2723134D01*
X3771900Y2723134D01*
X3689095Y2451100D02*
G01*
X3698240Y2455671D01*
X3711702Y2469134D01*
X3711702Y2373884D01*
X3800856Y2437384D02*
G01*
X3796284Y2423668D01*
X3787393Y2414778D01*
X3773677Y2410205D01*
X3769106Y2410205D01*
X3755390Y2414778D01*
X3746245Y2423668D01*
X3741927Y2437384D01*
X3741927Y2441955D01*
X3746245Y2455671D01*
X3755390Y2464562D01*
X3769106Y2469134D01*
X3773677Y2469134D01*
X3787393Y2464562D01*
X3796284Y2455671D01*
X3800856Y2437384D01*
X3800856Y2414778D01*
X3796284Y2391918D01*
X3787393Y2378202D01*
X3773677Y2373884D01*
X3764534Y2373884D01*
X3750818Y2378202D01*
X3746245Y2387345D01*
X3617468Y2192528D02*
G01*
X3613150Y2201671D01*
X3604006Y2210562D01*
X3594861Y2215134D01*
X3576574Y2215134D01*
X3567684Y2210562D01*
X3558540Y2201671D01*
X3553968Y2192528D01*
X3549395Y2178812D01*
X3549395Y2156205D01*
X3553968Y2142489D01*
X3558540Y2133345D01*
X3567684Y2124202D01*
X3576574Y2119884D01*
X3594861Y2119884D01*
X3604006Y2124202D01*
X3613150Y2133345D01*
X3617468Y2142489D01*
X3617468Y2156205D01*
X3594861Y2156205D02*
G01*
X3617468Y2156205D01*
X3647693Y2215134D02*
G01*
X3647693Y2119884D01*
X3647693Y2215134D02*
G01*
X3711193Y2119884D01*
X3711193Y2215134D02*
G01*
X3711193Y2119884D01*
X3741165Y2215134D02*
G01*
X3741165Y2119884D01*
X3741165Y2215134D02*
G01*
X3772915Y2215134D01*
X3786631Y2210562D01*
X3795775Y2201671D01*
X3800347Y2192528D01*
X3804920Y2178812D01*
X3804920Y2156205D01*
X3800347Y2142489D01*
X3795775Y2133345D01*
X3786631Y2124202D01*
X3772915Y2119884D01*
X3741165Y2119884D01*
X3617468Y1938528D02*
G01*
X3613150Y1947671D01*
X3604006Y1956562D01*
X3594861Y1961134D01*
X3576574Y1961134D01*
X3567684Y1956562D01*
X3558540Y1947671D01*
X3553968Y1938528D01*
X3549395Y1924812D01*
X3549395Y1902205D01*
X3553968Y1888489D01*
X3558540Y1879345D01*
X3567684Y1870202D01*
X3576574Y1865884D01*
X3594861Y1865884D01*
X3604006Y1870202D01*
X3613150Y1879345D01*
X3617468Y1888489D01*
X3617468Y1902205D01*
X3594861Y1902205D02*
G01*
X3617468Y1902205D01*
X3647693Y1961134D02*
G01*
X3647693Y1865884D01*
X3647693Y1961134D02*
G01*
X3711193Y1865884D01*
X3711193Y1961134D02*
G01*
X3711193Y1865884D01*
X3741165Y1961134D02*
G01*
X3741165Y1865884D01*
X3741165Y1961134D02*
G01*
X3772915Y1961134D01*
X3786631Y1956562D01*
X3795775Y1947671D01*
X3800347Y1938528D01*
X3804920Y1924812D01*
X3804920Y1902205D01*
X3800347Y1888489D01*
X3795775Y1879345D01*
X3786631Y1870202D01*
X3772915Y1865884D01*
X3741165Y1865884D01*
X2050795Y1554479D02*
G01*
X2050795Y1452118D01*
X2057654Y1431797D01*
X2071370Y1418081D01*
X2091690Y1411223D01*
X2105406Y1411223D01*
X2125725Y1418081D01*
X2139441Y1431797D01*
X2146300Y1452118D01*
X2146300Y1554479D01*
X2245868Y1554479D02*
G01*
X2191258Y1411223D01*
X2245868Y1554479D02*
G01*
X2300224Y1411223D01*
X2211831Y1458976D02*
G01*
X2279904Y1458976D01*
X2345436Y1554479D02*
G01*
X2345436Y1411223D01*
X2345436Y1554479D02*
G01*
X2406650Y1554479D01*
X2427224Y1547621D01*
X2434081Y1540763D01*
X2440686Y1527302D01*
X2440686Y1513586D01*
X2434081Y1499870D01*
X2427224Y1493012D01*
X2406650Y1486407D01*
X2345436Y1486407D01*
X2393188Y1486407D02*
G01*
X2440686Y1411223D01*
X2533650Y1554479D02*
G01*
X2533650Y1411223D01*
X2485897Y1554479D02*
G01*
X2581147Y1554479D01*
X3181095Y1554479D02*
G01*
X3181095Y1452118D01*
X3187954Y1431797D01*
X3201670Y1418081D01*
X3221990Y1411223D01*
X3235706Y1411223D01*
X3256025Y1418081D01*
X3269741Y1431797D01*
X3276600Y1452118D01*
X3276600Y1554479D01*
X3417061Y1533905D02*
G01*
X3403345Y1547621D01*
X3383025Y1554479D01*
X3355593Y1554479D01*
X3335274Y1547621D01*
X3321558Y1533905D01*
X3321558Y1520444D01*
X3328415Y1506728D01*
X3335274Y1499870D01*
X3348736Y1493012D01*
X3389629Y1479550D01*
X3403345Y1472692D01*
X3410204Y1465834D01*
X3417061Y1452118D01*
X3417061Y1431797D01*
X3403345Y1418081D01*
X3383025Y1411223D01*
X3355593Y1411223D01*
X3335274Y1418081D01*
X3321558Y1431797D01*
X3462020Y1554479D02*
G01*
X3462020Y1411223D01*
X3462020Y1554479D02*
G01*
X3523488Y1554479D01*
X3543808Y1547621D01*
X3550665Y1540763D01*
X3557524Y1527302D01*
X3557524Y1513586D01*
X3550665Y1499870D01*
X3543808Y1493012D01*
X3523488Y1486407D01*
X3462020Y1486407D02*
G01*
X3523488Y1486407D01*
X3543808Y1479550D01*
X3550665Y1472692D01*
X3557524Y1458976D01*
X3557524Y1438655D01*
X3550665Y1424939D01*
X3543808Y1418081D01*
X3523488Y1411223D01*
X3462020Y1411223D01*
D10*
X4786884Y1752600D02*
G01*
X4895850Y1752600D01*
X4786884Y1786889D02*
G01*
X4895850Y1786889D01*
X4786884Y1786889D02*
G01*
X4786884Y1833626D01*
X4791963Y1849120D01*
X4797297Y1854454D01*
X4807711Y1859534D01*
X4818125Y1859534D01*
X4828540Y1854454D01*
X4833620Y1849120D01*
X4838700Y1833626D01*
X4838700Y1786889D01*
X4838700Y1823212D02*
G01*
X4895850Y1859534D01*
X4932425Y1893823D02*
G01*
X4932425Y1987550D01*
X4786884Y2021839D02*
G01*
X4895850Y2021839D01*
X4786884Y2021839D02*
G01*
X4786884Y2068576D01*
X4791963Y2084070D01*
X4797297Y2089150D01*
X4807711Y2094484D01*
X4818125Y2094484D01*
X4828540Y2089150D01*
X4833620Y2084070D01*
X4838700Y2068576D01*
X4838700Y2021839D01*
X4838700Y2058162D02*
G01*
X4895850Y2094484D01*
X4786884Y2128773D02*
G01*
X4895850Y2128773D01*
X4786884Y2128773D02*
G01*
X4786884Y2196337D01*
X4838700Y2128773D02*
G01*
X4838700Y2170429D01*
X4895850Y2128773D02*
G01*
X4895850Y2196337D01*
X4812791Y2308605D02*
G01*
X4802377Y2303271D01*
X4791963Y2292857D01*
X4786884Y2282444D01*
X4786884Y2261870D01*
X4791963Y2251455D01*
X4802377Y2241042D01*
X4812791Y2235707D01*
X4828540Y2230628D01*
X4854447Y2230628D01*
X4869941Y2235707D01*
X4880356Y2241042D01*
X4890770Y2251455D01*
X4895850Y2261870D01*
X4895850Y2282444D01*
X4890770Y2292857D01*
X4880356Y2303271D01*
X4869941Y2308605D01*
X4786884Y2342895D02*
G01*
X4895850Y2342895D01*
X4786884Y2342895D02*
G01*
X4786884Y2410460D01*
X4838700Y2342895D02*
G01*
X4838700Y2384297D01*
X4895850Y2342895D02*
G01*
X4895850Y2410460D01*
X4786884Y2444750D02*
G01*
X4895850Y2444750D01*
X4786884Y2479039D02*
G01*
X4895850Y2520442D01*
X4786884Y2562097D02*
G01*
X4895850Y2520442D01*
X4786884Y2596387D02*
G01*
X4895850Y2596387D01*
X4786884Y2596387D02*
G01*
X4786884Y2663952D01*
X4838700Y2596387D02*
G01*
X4838700Y2637789D01*
X4895850Y2596387D02*
G01*
X4895850Y2663952D01*
X4786884Y2698242D02*
G01*
X4895850Y2698242D01*
X4786884Y2698242D02*
G01*
X4786884Y2744978D01*
X4791963Y2760471D01*
X4797297Y2765805D01*
X4807711Y2770886D01*
X4818125Y2770886D01*
X4828540Y2765805D01*
X4833620Y2760471D01*
X4838700Y2744978D01*
X4838700Y2698242D01*
X4838700Y2734563D02*
G01*
X4895850Y2770886D01*
X1206500Y9411715D02*
G01*
X1206500Y9302750D01*
X1206500Y9302750D02*
G01*
X1268729Y9302750D01*
X1303020Y9411715D02*
G01*
X1375918Y9302750D01*
X1375918Y9411715D02*
G01*
X1303020Y9302750D01*
X1410207Y9349486D02*
G01*
X1503679Y9349486D01*
X1537970Y9411715D02*
G01*
X1537970Y9302750D01*
X1537970Y9302750D02*
G01*
X1600200Y9302750D01*
X1634489Y9411715D02*
G01*
X1634489Y9302750D01*
X1634489Y9411715D02*
G01*
X1681479Y9411715D01*
X1696973Y9406636D01*
X1702054Y9401302D01*
X1707387Y9390887D01*
X1707387Y9380474D01*
X1702054Y9370060D01*
X1696973Y9364979D01*
X1681479Y9359900D01*
X1634489Y9359900D02*
G01*
X1681479Y9359900D01*
X1696973Y9354565D01*
X1702054Y9349486D01*
X1707387Y9339071D01*
X1707387Y9323324D01*
X1702054Y9312910D01*
X1696973Y9307829D01*
X1681479Y9302750D01*
X1634489Y9302750D01*
X1819655Y9385808D02*
G01*
X1814321Y9396221D01*
X1803907Y9406636D01*
X1793494Y9411715D01*
X1772920Y9411715D01*
X1762505Y9406636D01*
X1752092Y9396221D01*
X1746757Y9385808D01*
X1741678Y9370060D01*
X1741678Y9344152D01*
X1746757Y9328658D01*
X1752092Y9318244D01*
X1762505Y9307829D01*
X1772920Y9302750D01*
X1793494Y9302750D01*
X1803907Y9307829D01*
X1814321Y9318244D01*
X1819655Y9328658D01*
X1864360Y9411715D02*
G01*
X1921510Y9411715D01*
X1890268Y9370060D01*
X1905762Y9370060D01*
X1916176Y9364979D01*
X1921510Y9359900D01*
X1926589Y9344152D01*
X1926589Y9333737D01*
X1921510Y9318244D01*
X1911095Y9307829D01*
X1895347Y9302750D01*
X1879854Y9302750D01*
X1864360Y9307829D01*
X1859026Y9312910D01*
X1853945Y9323324D01*
X4126484Y9080500D02*
G01*
X4235450Y9080500D01*
X4126484Y9080500D02*
G01*
X4235450Y9153144D01*
X4126484Y9153144D02*
G01*
X4235450Y9153144D01*
X4126484Y9187434D02*
G01*
X4235450Y9187434D01*
X4126484Y9187434D02*
G01*
X4126484Y9254997D01*
X4178300Y9187434D02*
G01*
X4178300Y9229089D01*
X4152391Y9367265D02*
G01*
X4141977Y9362186D01*
X4131563Y9351771D01*
X4126484Y9341358D01*
X4126484Y9320529D01*
X4131563Y9310115D01*
X4141977Y9299702D01*
X4152391Y9294621D01*
X4168140Y9289287D01*
X4194047Y9289287D01*
X4209541Y9294621D01*
X4219956Y9299702D01*
X4230370Y9310115D01*
X4235450Y9320529D01*
X4235450Y9341358D01*
X4230370Y9351771D01*
X4219956Y9362186D01*
X4209541Y9367265D01*
X1369821Y5553455D02*
G01*
X1380236Y5563870D01*
X1385315Y5579363D01*
X1385315Y5600192D01*
X1380236Y5615686D01*
X1369821Y5626100D01*
X1359407Y5626100D01*
X1348994Y5621020D01*
X1343660Y5615686D01*
X1338579Y5605271D01*
X1328165Y5574029D01*
X1323086Y5563870D01*
X1317752Y5558536D01*
X1307337Y5553455D01*
X1291844Y5553455D01*
X1281429Y5563870D01*
X1276350Y5579363D01*
X1276350Y5600192D01*
X1281429Y5615686D01*
X1291844Y5626100D01*
X1385315Y5519165D02*
G01*
X1276350Y5493004D01*
X1385315Y5467095D02*
G01*
X1276350Y5493004D01*
X1385315Y5467095D02*
G01*
X1276350Y5441187D01*
X1385315Y5415279D02*
G01*
X1276350Y5441187D01*
X1385315Y5380989D02*
G01*
X1276350Y5380989D01*
X1385315Y5310123D02*
G01*
X1276350Y5310123D01*
X1385315Y5346700D02*
G01*
X1385315Y5273802D01*
X1359407Y5161534D02*
G01*
X1369821Y5166868D01*
X1380236Y5177281D01*
X1385315Y5187695D01*
X1385315Y5208270D01*
X1380236Y5218684D01*
X1369821Y5229097D01*
X1359407Y5234431D01*
X1343660Y5239512D01*
X1317752Y5239512D01*
X1302257Y5234431D01*
X1291844Y5229097D01*
X1281429Y5218684D01*
X1276350Y5208270D01*
X1276350Y5187695D01*
X1281429Y5177281D01*
X1291844Y5166868D01*
X1302257Y5161534D01*
X1385315Y5127244D02*
G01*
X1276350Y5127244D01*
X1385315Y5054600D02*
G01*
X1276350Y5054600D01*
X1333500Y5127244D02*
G01*
X1333500Y5054600D01*
D13*
X3573099Y9690097D02*
G01*
X2943097Y9690097D01*
X3583940Y9890757D02*
G01*
X3583940Y9690762D01*
X2943859Y9890760D02*
G01*
X3573861Y9890760D01*
X2943859Y9692637D02*
G01*
X2943859Y9892639D01*
X2967400Y9398002D02*
G01*
X3597402Y9398002D01*
X2956559Y9197342D02*
G01*
X2956559Y9397337D01*
X3596640Y9197339D02*
G01*
X2966638Y9197339D01*
X3596640Y9395462D02*
G01*
X3596640Y9195460D01*
X1191260Y1445257D02*
G01*
X1242060Y1445257D01*
X1292860Y1445257D01*
X1191260Y1523997D02*
G01*
X1242060Y1523997D01*
X1292860Y1523997D01*
X1242060Y1523997D02*
G01*
X1242060Y1623057D01*
X1242060Y1343657D02*
G01*
X1242060Y1445257D01*
X1163320Y1503677D02*
G01*
X1112520Y1554477D01*
X1112520Y1503677D01*
X1163320Y1554477D01*
X1112520Y1554477D01*
X901700Y1714497D02*
G01*
X1021079Y1714497D01*
X1282700Y1714497D02*
G01*
X1181100Y1714497D01*
X4445000Y4597400D02*
G01*
X4445000Y4597400D01*
X4699000Y4597400D01*
X4710988Y6160770D01*
X4409643Y6160770D01*
X4406468Y6229121D01*
X4781550Y6241389D02*
G01*
X4781550Y4541393D01*
X4186758Y4541393D01*
X4186758Y6241389D01*
X4781550Y6241389D01*
X4262729Y6236538D02*
G01*
X4262729Y6056629D01*
X4188637Y6056629D01*
X4188637Y6236538D01*
X4262729Y6236538D01*
X4318000Y5867400D02*
G01*
X4318000Y4887391D01*
X4192320Y4887391D01*
X4192320Y5867400D01*
X4318000Y5867400D01*
X4264990Y4724400D02*
G01*
X4264990Y4544491D01*
X4190898Y4544491D01*
X4190898Y4724400D01*
X4264990Y4724400D01*
X1550111Y7994395D02*
G01*
X4057395Y7994395D01*
X4057395Y1123721D01*
X1550111Y1123721D01*
X1550111Y7994395D01*
X4183379Y1320800D02*
G01*
X4132579Y1521460D01*
X4132579Y1521460D02*
G01*
X4183379Y1722120D01*
X4183379Y1722120D02*
G01*
X4681220Y1722120D01*
X4681220Y1722120D02*
G01*
X4732020Y1521460D01*
X4732020Y1521460D02*
G01*
X4681220Y1320800D01*
X4681220Y1320800D02*
G01*
X4632959Y1320800D01*
X4632959Y1320800D02*
G01*
X4231640Y1320800D01*
X4231640Y1320800D02*
G01*
X4183379Y1320800D01*
D10*
X703681Y9954818D02*
G01*
X2318918Y9954818D01*
X2318918Y8739581D01*
X703681Y8739581D01*
X703681Y9954818D01*
D13*
X555294Y9664700D02*
G01*
X689305Y9664700D01*
X689305Y9029700D01*
X555294Y9029700D01*
X555294Y9664700D01*
D10*
X3696616Y2934616D02*
G01*
X3696616Y1129380D01*
X1891380Y1129380D01*
X1891380Y2934616D01*
X3696616Y2934616D01*
D14*
X4292600Y9766300D02*
G01*
X4368800Y9766300D01*
X4368800Y9969500D01*
X4292600Y9969500D01*
X4292600Y9766300D01*
X4368800Y8445500D02*
G01*
X4292600Y8445500D01*
X4292600Y8623300D01*
X4368800Y8623300D01*
X4368800Y8445500D01*
X4902200Y8445500D01*
X4902200Y9969500D01*
X4292600Y9969500D01*
X4292600Y8445500D01*
X4292600Y8775700D02*
G01*
X4368800Y8775700D01*
X4368800Y9613900D01*
X4292600Y9613900D01*
X4292600Y8775700D01*
X4521200Y8445500D02*
G01*
X4521200Y8521700D01*
X4826000Y8521700D01*
X4826000Y9893300D01*
X4521200Y9893300D01*
X4521200Y9969500D01*
X4271518Y8664447D02*
G01*
X4271518Y8414512D01*
X4521708Y8414512D01*
D13*
X1241399Y5904992D02*
G01*
X1241399Y4763007D01*
X841400Y5904992D02*
G01*
X841400Y4763007D01*
X1241399Y5905500D02*
G01*
X841400Y5905500D01*
X1241399Y4763007D02*
G01*
X841400Y4763007D01*
G75*
G01*
X1282700Y1714497D02*
G02*
X901700Y1714497I-190500J-177798D01*
G75*
G01*
X4232181Y1321341D02*
G03*
X4632180Y1321341I200000J75041D01*
D15*
G75*
G01
X2167001Y2982620D02*
G03X2167001Y2982620I-8001J0D01*
M02*
