G04 Layer: BottomSolderMaskLayer*
G04 EasyEDA v6.5.40, 2024-04-09 13:00:43*
G04 4b3d86a6f5cb4bb8bf6c6708de4b4b48,df7e7e3c38a3447abd37b529b333d242,10*
G04 Gerber Generator version 0.2*
G04 Scale: 100 percent, Rotated: No, Reflected: No *
G04 Dimensions in millimeters *
G04 leading zeros omitted , absolute positions ,4 integer and 5 decimal *
%FSLAX45Y45*%
%MOMM*%

%ADD10C,1.6256*%
%ADD11O,1.641602X2.1015960000000002*%
%ADD12C,1.6016*%
%ADD13C,1.7526*%
%ADD14C,1.7032*%
%ADD15C,2.1016*%
%ADD16C,1.3132*%
%ADD17C,1.3616*%
%ADD18C,1.8516*%

%LPD*%
D10*
G01*
X2463800Y4914900D03*
G01*
X2717800Y4914900D03*
G01*
X2971800Y4914900D03*
G01*
X3225800Y4914900D03*
G01*
X3225800Y5168900D03*
G01*
X2971800Y5168900D03*
G01*
X2717800Y5168900D03*
G01*
X2463800Y5168900D03*
D11*
G01*
X1930400Y8255000D03*
G01*
X2184400Y8255000D03*
G01*
X2692400Y8255000D03*
G01*
X2946400Y8255000D03*
G01*
X2438400Y8255000D03*
G01*
X3200400Y8255000D03*
G01*
X3454400Y8255000D03*
D12*
G01*
X2755900Y9791700D03*
G01*
X3771900Y9791700D03*
G01*
X3784600Y9296400D03*
G01*
X2768600Y9296400D03*
G01*
X1092200Y1397000D03*
D13*
G01*
X1092200Y1651000D03*
D14*
G01*
X4445000Y5994400D03*
G01*
X4445000Y5740400D03*
G01*
X4445000Y5486400D03*
G01*
X4445000Y5232400D03*
G01*
X4445000Y4978400D03*
G01*
X4445000Y4724400D03*
D15*
G01*
X1650111Y7245095D03*
G01*
X1650111Y6991095D03*
G01*
X1650111Y6737095D03*
G01*
X1650111Y6483095D03*
G01*
X1650111Y6229095D03*
G01*
X1650111Y5975095D03*
G01*
X1650111Y5721095D03*
G01*
X1650111Y5467095D03*
G01*
X1650111Y5213095D03*
G01*
X1650111Y4959095D03*
G01*
X1650111Y4705095D03*
G01*
X1650111Y4451095D03*
G01*
X1650111Y4197095D03*
G01*
X1650111Y3943095D03*
G01*
X1650111Y3689095D03*
G01*
X1650111Y3435095D03*
G01*
X1650111Y3181095D03*
G01*
X1650111Y2927095D03*
G01*
X1650111Y2673095D03*
G01*
X1650111Y2419095D03*
G01*
X1650111Y2165095D03*
G01*
X1650111Y1911095D03*
G01*
X3950106Y1911095D03*
G01*
X3950106Y2165095D03*
G01*
X3950106Y2419095D03*
G01*
X3950106Y2673095D03*
G01*
X3950106Y2927095D03*
G01*
X3950106Y3181095D03*
G01*
X3950106Y3435095D03*
G01*
X3950106Y3689095D03*
G01*
X3950106Y3943095D03*
G01*
X3950106Y4197095D03*
G01*
X3950106Y4451095D03*
G01*
X3950106Y4705095D03*
G01*
X3950106Y4959095D03*
G01*
X3950106Y5213095D03*
G01*
X3950106Y5467095D03*
G01*
X3950106Y5721095D03*
G01*
X3950106Y5975095D03*
G01*
X3950106Y6229095D03*
G01*
X3950106Y6483095D03*
G01*
X3950106Y6737095D03*
G01*
X3950106Y6991095D03*
G01*
X3950106Y7245095D03*
D12*
G01*
X4152900Y1524000D03*
G01*
X4432300Y1524000D03*
D16*
G01*
X4737100Y1524000D03*
D17*
G01*
X2324100Y8947200D03*
G01*
X2324100Y9747199D03*
G01*
X1618487Y9956800D03*
G01*
X1618487Y8763000D03*
G01*
X698500Y9499600D03*
G01*
X698500Y9169400D03*
G01*
X2159000Y2934588D03*
G01*
X2413000Y2934588D03*
G01*
X2667000Y2934588D03*
G01*
X2921000Y2934588D03*
G01*
X3175000Y2934588D03*
G01*
X3429000Y2934588D03*
D12*
G01*
X4546600Y8851900D03*
D18*
G01*
X4546600Y9105900D03*
G01*
X4546600Y9359900D03*
G01*
X4546600Y9613900D03*
D10*
G01*
X1041400Y4953000D03*
G01*
X1041400Y5715000D03*
M02*
