M48
METRIC,LZ,000.000
;FILE_FORMAT=3:3
;TYPE=PLATED
;Layer: PTH_Through
;EasyEDA v6.5.47, 2024-09-14 10:47:09
;8a541bcae6964f6aac3218be08962530,df7e7e3c38a3447abd37b529b333d242,10
;Gerber Generator version 0.2
;Holesize 1 = 0.901 mm
T01C0.901
;Holesize 2 = 1.066 mm
T02C1.066
%
G05
G90
T01
X040513Y073025
X040513Y075565
X040513Y078105
X040513Y080645
X040513Y083185
X040513Y085725
T02
X026799Y087687
X031299Y087687
X026799Y083187
X031299Y083187
X033657Y080829
X038157Y080829
X033657Y076329
X038157Y076329
X026799Y080829
X031299Y080829
X026799Y076329
X031299Y076329
X019814Y080829
X024314Y080829
X019814Y076329
X024314Y076329
X026799Y073971
X031299Y073971
X026799Y069471
X031299Y069471
M30
