G04 Layer: TopSilkscreenLayer*
G04 EasyEDA v6.5.47, 2024-09-14 10:47:09*
G04 8a541bcae6964f6aac3218be08962530,df7e7e3c38a3447abd37b529b333d242,10*
G04 Gerber Generator version 0.2*
G04 Scale: 100 percent, Rotated: No, Reflected: No *
G04 Dimensions in millimeters *
G04 leading zeros omitted , absolute positions ,4 integer and 5 decimal *
%FSLAX45Y45*%
%MOMM*%

%ADD10C,0.2032*%
%ADD11C,0.1524*%
%ADD12C,0.2165*%
%ADD13C,0.2540*%

%LPD*%
D10*
X4232909Y8596376D02*
G01*
X4228338Y8605265D01*
X4214622Y8609837D01*
X4205477Y8609837D01*
X4192015Y8605265D01*
X4182872Y8591804D01*
X4178300Y8568944D01*
X4178300Y8546337D01*
X4182872Y8528050D01*
X4192015Y8518905D01*
X4205477Y8514334D01*
X4210050Y8514334D01*
X4223765Y8518905D01*
X4232909Y8528050D01*
X4237481Y8541765D01*
X4237481Y8546337D01*
X4232909Y8559800D01*
X4223765Y8568944D01*
X4210050Y8573515D01*
X4205477Y8573515D01*
X4192015Y8568944D01*
X4182872Y8559800D01*
X4178300Y8546337D01*
X4232909Y8355837D02*
G01*
X4187443Y8355837D01*
X4182872Y8314944D01*
X4187443Y8319515D01*
X4200906Y8324087D01*
X4214622Y8324087D01*
X4228338Y8319515D01*
X4237481Y8310371D01*
X4242054Y8296910D01*
X4242054Y8287765D01*
X4237481Y8274050D01*
X4228338Y8264905D01*
X4214622Y8260334D01*
X4200906Y8260334D01*
X4187443Y8264905D01*
X4182872Y8269478D01*
X4178300Y8278621D01*
X4223765Y8089137D02*
G01*
X4178300Y8025637D01*
X4246372Y8025637D01*
X4223765Y8089137D02*
G01*
X4223765Y7993634D01*
X4174743Y7847837D02*
G01*
X4224781Y7847837D01*
X4197350Y7811515D01*
X4211065Y7811515D01*
X4220209Y7806944D01*
X4224781Y7802371D01*
X4229354Y7788910D01*
X4229354Y7779765D01*
X4224781Y7766050D01*
X4215638Y7756905D01*
X4201922Y7752334D01*
X4188206Y7752334D01*
X4174743Y7756905D01*
X4170172Y7761478D01*
X4165600Y7770621D01*
X4170172Y7571231D02*
G01*
X4170172Y7575804D01*
X4174743Y7584694D01*
X4179315Y7589265D01*
X4188206Y7593837D01*
X4206493Y7593837D01*
X4215638Y7589265D01*
X4220209Y7584694D01*
X4224781Y7575804D01*
X4224781Y7566660D01*
X4220209Y7557515D01*
X4211065Y7543800D01*
X4165600Y7498334D01*
X4229354Y7498334D01*
X4178300Y7321804D02*
G01*
X4187443Y7326376D01*
X4200906Y7339837D01*
X4200906Y7244334D01*
D11*
X2717800Y8954515D02*
G01*
X2717800Y8876537D01*
X2722879Y8861044D01*
X2733293Y8850629D01*
X2749041Y8845550D01*
X2759456Y8845550D01*
X2774950Y8850629D01*
X2785363Y8861044D01*
X2790443Y8876537D01*
X2790443Y8954515D01*
X2824734Y8954515D02*
G01*
X2824734Y8845550D01*
X2824734Y8954515D02*
G01*
X2871470Y8954515D01*
X2887218Y8949436D01*
X2892297Y8944102D01*
X2897631Y8933687D01*
X2897631Y8918194D01*
X2892297Y8907779D01*
X2887218Y8902700D01*
X2871470Y8897365D01*
X2824734Y8897365D01*
X3403597Y8268715D02*
G01*
X3403597Y8159750D01*
X3403597Y8268715D02*
G01*
X3450333Y8268715D01*
X3465827Y8263636D01*
X3471161Y8258302D01*
X3476241Y8247887D01*
X3476241Y8237473D01*
X3471161Y8227060D01*
X3465827Y8221979D01*
X3450333Y8216900D01*
X3403597Y8216900D01*
X3439919Y8216900D02*
G01*
X3476241Y8159750D01*
X3510531Y8268715D02*
G01*
X3510531Y8159750D01*
X3622799Y8242808D02*
G01*
X3617719Y8253221D01*
X3607305Y8263636D01*
X3596891Y8268715D01*
X3576063Y8268715D01*
X3565649Y8263636D01*
X3555235Y8253221D01*
X3550155Y8242808D01*
X3544821Y8227060D01*
X3544821Y8201152D01*
X3550155Y8185658D01*
X3555235Y8175244D01*
X3565649Y8164829D01*
X3576063Y8159750D01*
X3596891Y8159750D01*
X3607305Y8164829D01*
X3617719Y8175244D01*
X3622799Y8185658D01*
X3622799Y8201152D01*
X3596891Y8201152D02*
G01*
X3622799Y8201152D01*
X3657089Y8268715D02*
G01*
X3657089Y8159750D01*
X3729987Y8268715D02*
G01*
X3729987Y8159750D01*
X3657089Y8216900D02*
G01*
X3729987Y8216900D01*
X3800599Y8268715D02*
G01*
X3800599Y8159750D01*
X3764277Y8268715D02*
G01*
X3836921Y8268715D01*
X2749041Y8268715D02*
G01*
X2738627Y8263636D01*
X2728213Y8253221D01*
X2722879Y8242808D01*
X2717800Y8227060D01*
X2717800Y8201152D01*
X2722879Y8185658D01*
X2728213Y8175244D01*
X2738627Y8164829D01*
X2749041Y8159750D01*
X2769870Y8159750D01*
X2780029Y8164829D01*
X2790443Y8175244D01*
X2795777Y8185658D01*
X2800858Y8201152D01*
X2800858Y8227060D01*
X2795777Y8242808D01*
X2790443Y8253221D01*
X2780029Y8263636D01*
X2769870Y8268715D01*
X2749041Y8268715D01*
X2835147Y8268715D02*
G01*
X2835147Y8159750D01*
X2908045Y8268715D02*
G01*
X2835147Y8196071D01*
X2861309Y8221979D02*
G01*
X2908045Y8159750D01*
X2019297Y8268715D02*
G01*
X2019297Y8159750D01*
X2019297Y8159750D02*
G01*
X2081527Y8159750D01*
X2115817Y8268715D02*
G01*
X2115817Y8159750D01*
X2115817Y8268715D02*
G01*
X2183381Y8268715D01*
X2115817Y8216900D02*
G01*
X2157473Y8216900D01*
X2115817Y8159750D02*
G01*
X2183381Y8159750D01*
X2217671Y8268715D02*
G01*
X2217671Y8159750D01*
X2217671Y8268715D02*
G01*
X2285235Y8268715D01*
X2217671Y8216900D02*
G01*
X2259327Y8216900D01*
X2355847Y8268715D02*
G01*
X2355847Y8159750D01*
X2319525Y8268715D02*
G01*
X2392423Y8268715D01*
X2717800Y7582915D02*
G01*
X2717800Y7473950D01*
X2717800Y7582915D02*
G01*
X2754122Y7582915D01*
X2769870Y7577836D01*
X2780029Y7567421D01*
X2785363Y7557008D01*
X2790443Y7541260D01*
X2790443Y7515352D01*
X2785363Y7499858D01*
X2780029Y7489444D01*
X2769870Y7479029D01*
X2754122Y7473950D01*
X2717800Y7473950D01*
X2855975Y7582915D02*
G01*
X2845561Y7577836D01*
X2835147Y7567421D01*
X2830068Y7557008D01*
X2824734Y7541260D01*
X2824734Y7515352D01*
X2830068Y7499858D01*
X2835147Y7489444D01*
X2845561Y7479029D01*
X2855975Y7473950D01*
X2876804Y7473950D01*
X2887218Y7479029D01*
X2897631Y7489444D01*
X2902711Y7499858D01*
X2908045Y7515352D01*
X2908045Y7541260D01*
X2902711Y7557008D01*
X2897631Y7567421D01*
X2887218Y7577836D01*
X2876804Y7582915D01*
X2855975Y7582915D01*
X2942336Y7582915D02*
G01*
X2968243Y7473950D01*
X2994152Y7582915D02*
G01*
X2968243Y7473950D01*
X2994152Y7582915D02*
G01*
X3020059Y7473950D01*
X3046222Y7582915D02*
G01*
X3020059Y7473950D01*
X3080511Y7582915D02*
G01*
X3080511Y7473950D01*
X3080511Y7582915D02*
G01*
X3153156Y7473950D01*
X3153156Y7582915D02*
G01*
X3153156Y7473950D01*
X3212546Y8851328D02*
G01*
X3212546Y8236089D01*
X2597307Y8236089D01*
X2597307Y8851328D01*
X3212546Y8851328D01*
X3898343Y8165528D02*
G01*
X3898343Y7550289D01*
X3283104Y7550289D01*
X3283104Y8165528D01*
X3898343Y8165528D01*
X3212546Y8165528D02*
G01*
X3212546Y7550289D01*
X2597307Y7550289D01*
X2597307Y8165528D01*
X3212546Y8165528D01*
X2514043Y8165528D02*
G01*
X2514043Y7550289D01*
X1898804Y7550289D01*
X1898804Y8165528D01*
X2514043Y8165528D01*
X3212546Y7479728D02*
G01*
X3212546Y6864489D01*
X2597307Y6864489D01*
X2597307Y7479728D01*
X3212546Y7479728D01*
D12*
G75*
G01
X2690749Y8918702D02*
G03X2690749Y8918702I-10820J0D01*
D13*
G75*
G01
X3088589Y8556600D02*
G03X3088589Y8556600I-177800J0D01*
D12*
G75*
G01
X3376574Y8232902D02*
G03X3376574Y8232902I-10820J0D01*
D13*
G75*
G01
X3774415Y7870800D02*
G03X3774415Y7870800I-177800J0D01*
D12*
G75*
G01
X2690749Y8232902D02*
G03X2690749Y8232902I-10820J0D01*
D13*
G75*
G01
X3088589Y7870800D02*
G03X3088589Y7870800I-177800J0D01*
D12*
G75*
G01
X1992249Y8232902D02*
G03X1992249Y8232902I-10820J0D01*
D13*
G75*
G01
X2390089Y7870800D02*
G03X2390089Y7870800I-177800J0D01*
D12*
G75*
G01
X2690749Y7547102D02*
G03X2690749Y7547102I-10820J0D01*
D13*
G75*
G01
X3088589Y7185000D02*
G03X3088589Y7185000I-177800J0D01*
M02*
