G04 Layer: TopLayer*
G04 EasyEDA v6.5.47, 2024-12-05 12:15:10*
G04 a8db0baa4c074055b0eece098b67d136,1af081c9d9ee461384659aa0797497b1,10*
G04 Gerber Generator version 0.2*
G04 Scale: 100 percent, Rotated: No, Reflected: No *
G04 Dimensions in millimeters *
G04 leading zeros omitted , absolute positions ,4 integer and 5 decimal *
%FSLAX45Y45*%
%MOMM*%

%ADD10C,0.2540*%
%ADD11C,1.5900*%
%ADD12C,1.2600*%
%ADD13R,1.2600X1.2600*%
%ADD14R,1.2116X2.1819*%
%ADD15R,1.6510X1.6510*%
%ADD16C,1.6510*%
%ADD17C,1.5000*%
%ADD18C,1.5240*%
%ADD19C,1.7500*%
%ADD20C,1.7500*%

%LPD*%
D10*
X1650237Y4668012D02*
G01*
X1543812Y4668012D01*
X1473200Y4597400D01*
X1473200Y4089400D01*
X1536700Y4025900D01*
X3111500Y4025900D01*
X3479800Y3657600D01*
X3481324Y3338576D01*
X1650111Y4921986D02*
G01*
X1531086Y4921986D01*
X1422400Y4813300D01*
X1422400Y3886200D01*
X1536700Y3771900D01*
X3035300Y3771900D01*
X3276600Y3530600D01*
X3276600Y3343300D01*
X3281299Y3338601D01*
X1650237Y4414012D02*
G01*
X2763011Y4414012D01*
X2882900Y4533900D01*
X2881375Y4738623D01*
X1650111Y4159986D02*
G01*
X2966186Y4159986D01*
X3086100Y4279900D01*
X3086100Y4733797D01*
X3081299Y4738598D01*
X2667000Y2934588D02*
G01*
X2718688Y2934588D01*
X2971800Y3187700D01*
X3581400Y3187700D01*
X3708400Y3314700D01*
X3708400Y3822700D01*
X3784600Y3898900D01*
X3943019Y3898900D01*
X3950106Y3905986D01*
X2921000Y2934588D02*
G01*
X2921000Y2984500D01*
X3060700Y3124200D01*
X3721100Y3124200D01*
X3797300Y3200400D01*
X3797300Y3619500D01*
X3835400Y3657600D01*
X3944493Y3657600D01*
X3950106Y3651986D01*
X3950106Y2635986D02*
G01*
X4610100Y3295980D01*
X4610100Y4343400D01*
X4533900Y4419600D01*
X4452391Y4419600D01*
X4445000Y4426991D01*
X3441700Y8043392D02*
G01*
X3441700Y9804400D01*
X3594100Y9956800D01*
X4140200Y9956800D01*
X4267200Y9829800D01*
X4267200Y9067800D01*
X4381500Y8953500D01*
X4584700Y8953500D01*
X2247900Y9425000D02*
G01*
X2247900Y9690100D01*
X2349500Y9791700D01*
X2755900Y9791700D01*
X2247900Y8507399D02*
G01*
X2703499Y8507399D01*
X2768600Y8572500D01*
X2768600Y9296400D01*
X1650111Y2889986D02*
G01*
X1466113Y2889986D01*
X1358900Y2997200D01*
X1358900Y8001000D01*
X1524000Y8166100D01*
X2133600Y8166100D01*
X2171700Y8128000D01*
X2171700Y8043392D01*
X1650237Y2636012D02*
G01*
X1542287Y2636012D01*
X1282700Y2895600D01*
X1282700Y8115300D01*
X1397000Y8229600D01*
X2747518Y8229600D01*
X2933700Y8043418D01*
X1650237Y2382012D02*
G01*
X1193800Y2838195D01*
X1193800Y8178800D01*
X1308100Y8293100D01*
X3098800Y8293100D01*
X3187700Y8204200D01*
X3187700Y8043418D01*
X1650111Y5683986D02*
G01*
X2679700Y6713575D01*
X2679700Y8043392D01*
X1650111Y5937986D02*
G01*
X2425700Y6713575D01*
X2425700Y8043392D01*
X1650111Y6699986D02*
G01*
X1650111Y7885811D01*
X1803400Y8039100D01*
X1913407Y8039100D01*
X1917700Y8043392D01*
X1041400Y5715000D02*
G01*
X1041400Y8204200D01*
X1244600Y8407400D01*
X1447901Y8407400D01*
X3281299Y4738598D02*
G01*
X2843911Y5175986D01*
X1650111Y5175986D01*
X1650111Y2127986D02*
G01*
X2699486Y2127986D01*
X3175000Y2603500D01*
X3175000Y2934588D01*
X3950106Y4667986D02*
G01*
X4431995Y4667986D01*
X4445000Y4680991D01*
X3950106Y4921986D02*
G01*
X4431995Y4921986D01*
X4445000Y4934991D01*
X3950106Y5175986D02*
G01*
X4431995Y5175986D01*
X4445000Y5188991D01*
X3950106Y5429986D02*
G01*
X4431995Y5429986D01*
X4445000Y5442991D01*
X3429000Y2934462D02*
G01*
X3303015Y3060700D01*
X3111500Y3060700D01*
X3048000Y2997200D01*
X3048000Y2806700D01*
X2921000Y2679700D01*
X2590800Y2679700D01*
X2540000Y2730500D01*
X2540000Y3086100D01*
X2679700Y3225800D01*
X2857500Y3225800D01*
X2881375Y3249676D01*
X2881375Y3338576D01*
X1650111Y1619986D02*
G01*
X1041400Y2228697D01*
X1041400Y4953000D01*
X3771900Y9309100D02*
G01*
X3771900Y9791700D01*
X2273300Y1308102D02*
G01*
X1943100Y1638300D01*
X1943100Y1803400D01*
X1866900Y1879600D01*
X1655724Y1879600D01*
X1650111Y1873986D01*
X3327400Y1473200D02*
G01*
X3365500Y1473200D01*
X3429000Y1536700D01*
X3429000Y2934588D01*
X4584700Y8953500D02*
G01*
X4699000Y8953500D01*
X4851400Y8801100D01*
X4851400Y2159000D01*
X4178300Y1485900D01*
X4178300Y1333500D01*
X4064000Y1219200D01*
X3416300Y1219200D01*
X3327400Y1308100D01*
X3327400Y1473200D01*
X3784600Y9296400D02*
G01*
X3911600Y9296400D01*
X4216400Y8991600D01*
X4216400Y5829300D01*
X4076700Y5689600D01*
X3955719Y5689600D01*
X3950106Y5683986D01*
X3632200Y1473200D02*
G01*
X3632200Y1511300D01*
X3873500Y1752600D01*
X4089400Y1752600D01*
X4749800Y2413000D01*
X4749800Y5105400D01*
X4546600Y5308600D01*
X1905000Y5308600D01*
X1790700Y5422900D01*
X1657197Y5422900D01*
X1650111Y5429986D01*
D11*
G01*
X1917700Y8043392D03*
G01*
X2171700Y8043392D03*
G01*
X2425700Y8043392D03*
G01*
X2679700Y8043392D03*
G01*
X2933700Y8043392D03*
G01*
X3187700Y8043392D03*
G01*
X3441700Y8043392D03*
G01*
X3695700Y8043392D03*
D12*
G01*
X1447901Y8407400D03*
G01*
X1447901Y9525000D03*
D13*
G01*
X2247900Y8507399D03*
G01*
X2247900Y9425000D03*
G01*
X626694Y8607399D03*
G01*
X620699Y9325000D03*
D14*
G01*
X3048000Y1473200D03*
G01*
X3327400Y1473200D03*
G01*
X3632200Y1473200D03*
D15*
G01*
X2273300Y1308100D03*
D16*
G01*
X2273300Y1562100D03*
D17*
G01*
X2081301Y3338601D03*
G01*
X2281300Y3338601D03*
G01*
X2481300Y3338601D03*
G01*
X2681300Y3338601D03*
G01*
X2881299Y3338601D03*
G01*
X3081299Y3338601D03*
G01*
X3281299Y3338601D03*
G01*
X3481298Y3338601D03*
G01*
X3481298Y4738598D03*
G01*
X3281299Y4738598D03*
G01*
X3081299Y4738598D03*
G01*
X2881299Y4738598D03*
G01*
X2681300Y4738598D03*
G01*
X2481300Y4738598D03*
G01*
X2281300Y4738598D03*
G01*
X2081301Y4738598D03*
G01*
X2755900Y9791700D03*
G01*
X3771900Y9791700D03*
G01*
X3784600Y9296400D03*
G01*
X2768600Y9296400D03*
D18*
G01*
X4445000Y5442991D03*
G01*
X4445000Y5188991D03*
G01*
X4445000Y4934991D03*
G01*
X4445000Y4680991D03*
G01*
X4445000Y4426991D03*
G01*
X4445000Y4172991D03*
D19*
G01*
X1650111Y6699986D03*
G01*
X1650111Y6445986D03*
G01*
X1650111Y6191986D03*
G01*
X1650111Y5937986D03*
G01*
X1650111Y5683986D03*
G01*
X1650111Y5429986D03*
G01*
X1650111Y5175986D03*
G01*
X1650111Y4921986D03*
G01*
X1650111Y4667986D03*
G01*
X1650111Y4413986D03*
G01*
X1650111Y4159986D03*
G01*
X1650111Y3905986D03*
G01*
X1650111Y3651986D03*
G01*
X1650111Y3397986D03*
G01*
X1650111Y3143986D03*
G01*
X1650111Y2889986D03*
G01*
X1650111Y2635986D03*
G01*
X1650111Y2381986D03*
G01*
X1650111Y2127986D03*
G01*
X1650111Y1873986D03*
G01*
X1650111Y1619986D03*
G01*
X1650111Y1365986D03*
G01*
X3950106Y1365986D03*
G01*
X3950106Y1619986D03*
G01*
X3950106Y1873986D03*
G01*
X3950106Y2127986D03*
G01*
X3950106Y2381986D03*
G01*
X3950106Y2635986D03*
G01*
X3950106Y2889986D03*
G01*
X3950106Y3143986D03*
G01*
X3950106Y3397986D03*
G01*
X3950106Y3651986D03*
G01*
X3950106Y3905986D03*
G01*
X3950106Y4159986D03*
G01*
X3950106Y4413986D03*
G01*
X3950106Y4667986D03*
G01*
X3950106Y4921986D03*
G01*
X3950106Y5175986D03*
G01*
X3950106Y5429986D03*
G01*
X3950106Y5683986D03*
G01*
X3950106Y5937986D03*
G01*
X3950106Y6191986D03*
G01*
X3950106Y6445986D03*
G01*
X3950106Y6699986D03*
D12*
G01*
X2159000Y2934588D03*
G01*
X2413000Y2934588D03*
G01*
X2667000Y2934588D03*
G01*
X2921000Y2934588D03*
G01*
X3175000Y2934588D03*
G01*
X3429000Y2934588D03*
D19*
G01*
X4584700Y8445500D03*
D20*
G01*
X4584700Y8699500D03*
G01*
X4584700Y8953500D03*
G01*
X4584700Y9207500D03*
D18*
G01*
X1041400Y4953000D03*
G01*
X1041400Y5715000D03*
M02*
