G04 Layer: BottomSilkscreenLayer*
G04 EasyEDA v6.5.47, 2024-12-05 12:15:10*
G04 a8db0baa4c074055b0eece098b67d136,1af081c9d9ee461384659aa0797497b1,10*
G04 Gerber Generator version 0.2*
G04 Scale: 100 percent, Rotated: No, Reflected: No *
G04 Dimensions in millimeters *
G04 leading zeros omitted , absolute positions ,4 integer and 5 decimal *
%FSLAX45Y45*%
%MOMM*%

%ADD10C,0.2032*%
%ADD11C,0.1524*%
%ADD12C,0.1520*%
%ADD13C,0.2150*%

%LPD*%
D10*
X2846428Y4518294D02*
G01*
X2837337Y4527384D01*
X2832790Y4541022D01*
X2832790Y4559203D01*
X2837337Y4572840D01*
X2846428Y4581931D01*
X2855518Y4581931D01*
X2864609Y4577384D01*
X2869153Y4572840D01*
X2873700Y4563750D01*
X2882790Y4536478D01*
X2887337Y4527384D01*
X2891881Y4522840D01*
X2900972Y4518294D01*
X2914609Y4518294D01*
X2923700Y4527384D01*
X2928246Y4541022D01*
X2928246Y4559203D01*
X2923700Y4572840D01*
X2914609Y4581931D01*
X2855518Y4420113D02*
G01*
X2846428Y4424659D01*
X2837337Y4433750D01*
X2832790Y4442840D01*
X2832790Y4461022D01*
X2837337Y4470112D01*
X2846428Y4479203D01*
X2855518Y4483750D01*
X2869153Y4488294D01*
X2891881Y4488294D01*
X2905518Y4483750D01*
X2914609Y4479203D01*
X2923700Y4470112D01*
X2928246Y4461022D01*
X2928246Y4442840D01*
X2923700Y4433750D01*
X2914609Y4424659D01*
X2905518Y4420113D01*
X2832790Y4390113D02*
G01*
X2928246Y4390113D01*
X2832790Y4326478D02*
G01*
X2896428Y4390113D01*
X2873700Y4367385D02*
G01*
X2928246Y4326478D01*
X3023290Y4603750D02*
G01*
X3118746Y4603750D01*
X3023290Y4603750D02*
G01*
X3118746Y4567387D01*
X3023290Y4531022D02*
G01*
X3118746Y4567387D01*
X3023290Y4531022D02*
G01*
X3118746Y4531022D01*
X3023290Y4473750D02*
G01*
X3027837Y4482840D01*
X3036928Y4491931D01*
X3046018Y4496478D01*
X3059653Y4501022D01*
X3082381Y4501022D01*
X3096018Y4496478D01*
X3105109Y4491931D01*
X3114200Y4482840D01*
X3118746Y4473750D01*
X3118746Y4455568D01*
X3114200Y4446478D01*
X3105109Y4437387D01*
X3096018Y4432841D01*
X3082381Y4428296D01*
X3059653Y4428296D01*
X3046018Y4432841D01*
X3036928Y4437387D01*
X3027837Y4446478D01*
X3023290Y4455568D01*
X3023290Y4473750D01*
X3036928Y4334659D02*
G01*
X3027837Y4343750D01*
X3023290Y4357387D01*
X3023290Y4375569D01*
X3027837Y4389203D01*
X3036928Y4398297D01*
X3046018Y4398297D01*
X3055109Y4393750D01*
X3059653Y4389203D01*
X3064200Y4380113D01*
X3073290Y4352841D01*
X3077837Y4343750D01*
X3082381Y4339203D01*
X3091472Y4334659D01*
X3105109Y4334659D01*
X3114200Y4343750D01*
X3118746Y4357387D01*
X3118746Y4375569D01*
X3114200Y4389203D01*
X3105109Y4398297D01*
X3023290Y4304659D02*
G01*
X3118746Y4304659D01*
X3251890Y4603750D02*
G01*
X3347346Y4603750D01*
X3251890Y4603750D02*
G01*
X3347346Y4567387D01*
X3251890Y4531022D02*
G01*
X3347346Y4567387D01*
X3251890Y4531022D02*
G01*
X3347346Y4531022D01*
X3251890Y4501022D02*
G01*
X3347346Y4501022D01*
X3265528Y4407387D02*
G01*
X3256437Y4416478D01*
X3251890Y4430113D01*
X3251890Y4448296D01*
X3256437Y4461931D01*
X3265528Y4471022D01*
X3274618Y4471022D01*
X3283709Y4466478D01*
X3288253Y4461931D01*
X3292800Y4452840D01*
X3301890Y4425569D01*
X3306437Y4416478D01*
X3310981Y4411931D01*
X3320072Y4407387D01*
X3333709Y4407387D01*
X3342800Y4416478D01*
X3347346Y4430113D01*
X3347346Y4448296D01*
X3342800Y4461931D01*
X3333709Y4471022D01*
X3251890Y4350113D02*
G01*
X3256437Y4359203D01*
X3265528Y4368297D01*
X3274618Y4372841D01*
X3288253Y4377387D01*
X3310981Y4377387D01*
X3324618Y4372841D01*
X3333709Y4368297D01*
X3342800Y4359203D01*
X3347346Y4350113D01*
X3347346Y4331931D01*
X3342800Y4322841D01*
X3333709Y4313750D01*
X3324618Y4309203D01*
X3310981Y4304659D01*
X3288253Y4304659D01*
X3274618Y4309203D01*
X3265528Y4313750D01*
X3256437Y4322841D01*
X3251890Y4331931D01*
X3251890Y4350113D01*
X3452418Y4513750D02*
G01*
X3443328Y4518294D01*
X3434237Y4527384D01*
X3429690Y4536475D01*
X3429690Y4554659D01*
X3434237Y4563750D01*
X3443328Y4572840D01*
X3452418Y4577384D01*
X3466053Y4581931D01*
X3488781Y4581931D01*
X3502418Y4577384D01*
X3511509Y4572840D01*
X3520600Y4563750D01*
X3525146Y4554659D01*
X3525146Y4536475D01*
X3520600Y4527384D01*
X3511509Y4518294D01*
X3502418Y4513750D01*
X3488781Y4513750D01*
X3488781Y4536475D02*
G01*
X3488781Y4513750D01*
X3429690Y4483750D02*
G01*
X3525146Y4483750D01*
X3429690Y4483750D02*
G01*
X3525146Y4420113D01*
X3429690Y4420113D02*
G01*
X3525146Y4420113D01*
X3429690Y4390113D02*
G01*
X3525146Y4390113D01*
X3429690Y4390113D02*
G01*
X3429690Y4358294D01*
X3434237Y4344659D01*
X3443328Y4335569D01*
X3452418Y4331022D01*
X3466053Y4326475D01*
X3488781Y4326475D01*
X3502418Y4331022D01*
X3511509Y4335569D01*
X3520600Y4344659D01*
X3525146Y4358294D01*
X3525146Y4390113D01*
X2055418Y4541918D02*
G01*
X2046328Y4546462D01*
X2037237Y4555553D01*
X2032690Y4564646D01*
X2032690Y4582828D01*
X2037237Y4591918D01*
X2046328Y4601009D01*
X2055418Y4605553D01*
X2069053Y4610100D01*
X2091781Y4610100D01*
X2105418Y4605553D01*
X2114509Y4601009D01*
X2123600Y4591918D01*
X2128146Y4582828D01*
X2128146Y4564646D01*
X2123600Y4555553D01*
X2114509Y4546462D01*
X2105418Y4541918D01*
X2091781Y4541918D01*
X2091781Y4564646D02*
G01*
X2091781Y4541918D01*
X2032690Y4511918D02*
G01*
X2128146Y4511918D01*
X2032690Y4511918D02*
G01*
X2128146Y4448281D01*
X2032690Y4448281D02*
G01*
X2128146Y4448281D01*
X2032690Y4418281D02*
G01*
X2128146Y4418281D01*
X2032690Y4418281D02*
G01*
X2032690Y4386463D01*
X2037237Y4372828D01*
X2046328Y4363737D01*
X2055418Y4359191D01*
X2069053Y4354647D01*
X2091781Y4354647D01*
X2105418Y4359191D01*
X2114509Y4363737D01*
X2123600Y4372828D01*
X2128146Y4386463D01*
X2128146Y4418281D01*
X3416990Y3759200D02*
G01*
X3512446Y3759200D01*
X3416990Y3759200D02*
G01*
X3416990Y3727381D01*
X3421537Y3713746D01*
X3430628Y3704653D01*
X3439718Y3700109D01*
X3453353Y3695562D01*
X3476081Y3695562D01*
X3489718Y3700109D01*
X3498809Y3704653D01*
X3507900Y3713746D01*
X3512446Y3727381D01*
X3512446Y3759200D01*
X3416990Y3665562D02*
G01*
X3512446Y3665562D01*
X3416990Y3608290D02*
G01*
X3421537Y3617381D01*
X3430628Y3626472D01*
X3439718Y3631018D01*
X3453353Y3635562D01*
X3476081Y3635562D01*
X3489718Y3631018D01*
X3498809Y3626472D01*
X3507900Y3617381D01*
X3512446Y3608290D01*
X3512446Y3590109D01*
X3507900Y3581019D01*
X3498809Y3571928D01*
X3489718Y3567381D01*
X3476081Y3562837D01*
X3453353Y3562837D01*
X3439718Y3567381D01*
X3430628Y3571928D01*
X3421537Y3581019D01*
X3416990Y3590109D01*
X3416990Y3608290D01*
X3439718Y3528291D02*
G01*
X3435172Y3528291D01*
X3426081Y3523747D01*
X3421537Y3519200D01*
X3416990Y3510109D01*
X3416990Y3491928D01*
X3421537Y3482837D01*
X3426081Y3478291D01*
X3435172Y3473747D01*
X3444262Y3473747D01*
X3453353Y3478291D01*
X3466990Y3487381D01*
X3512446Y3532837D01*
X3512446Y3469200D01*
X3226490Y3738745D02*
G01*
X3321946Y3738745D01*
X3226490Y3738745D02*
G01*
X3226490Y3706926D01*
X3231037Y3693292D01*
X3240128Y3684198D01*
X3249218Y3679654D01*
X3262853Y3675108D01*
X3285581Y3675108D01*
X3299218Y3679654D01*
X3308309Y3684198D01*
X3317400Y3693292D01*
X3321946Y3706926D01*
X3321946Y3738745D01*
X3226490Y3645108D02*
G01*
X3321946Y3645108D01*
X3226490Y3587836D02*
G01*
X3231037Y3596927D01*
X3240128Y3606017D01*
X3249218Y3610564D01*
X3262853Y3615108D01*
X3285581Y3615108D01*
X3299218Y3610564D01*
X3308309Y3606017D01*
X3317400Y3596927D01*
X3321946Y3587836D01*
X3321946Y3569655D01*
X3317400Y3560564D01*
X3308309Y3551473D01*
X3299218Y3546927D01*
X3285581Y3542383D01*
X3262853Y3542383D01*
X3249218Y3546927D01*
X3240128Y3551473D01*
X3231037Y3560564D01*
X3226490Y3569655D01*
X3226490Y3587836D01*
X3244672Y3512383D02*
G01*
X3240128Y3503292D01*
X3226490Y3489655D01*
X3321946Y3489655D01*
X2832790Y3726017D02*
G01*
X2832790Y3676017D01*
X2869153Y3703289D01*
X2869153Y3689654D01*
X2873700Y3680564D01*
X2878246Y3676017D01*
X2891881Y3671473D01*
X2900972Y3671473D01*
X2914609Y3676017D01*
X2923700Y3685108D01*
X2928246Y3698745D01*
X2928246Y3712380D01*
X2923700Y3726017D01*
X2919153Y3730564D01*
X2910062Y3735108D01*
X2864609Y3641473D02*
G01*
X2928246Y3614199D01*
X2864609Y3586927D02*
G01*
X2928246Y3614199D01*
X2832790Y3547836D02*
G01*
X2832790Y3497836D01*
X2869153Y3525108D01*
X2869153Y3511473D01*
X2873700Y3502380D01*
X2878246Y3497836D01*
X2891881Y3493289D01*
X2900972Y3493289D01*
X2914609Y3497836D01*
X2923700Y3506927D01*
X2928246Y3520564D01*
X2928246Y3534199D01*
X2923700Y3547836D01*
X2919153Y3552380D01*
X2910062Y3556927D01*
D11*
X1040231Y6051651D02*
G01*
X1118209Y6051651D01*
X1133703Y6046317D01*
X1144117Y6035903D01*
X1149451Y6020409D01*
X1149451Y6009995D01*
X1144117Y5994501D01*
X1133703Y5984087D01*
X1118209Y5978753D01*
X1040231Y5978753D01*
X1061059Y5944463D02*
G01*
X1055725Y5934049D01*
X1040231Y5918555D01*
X1149451Y5918555D01*
D10*
X2155952Y7803438D02*
G01*
X2142490Y7810296D01*
X2128774Y7824012D01*
X2121915Y7837728D01*
X2121915Y7864906D01*
X2128774Y7878622D01*
X2142490Y7892084D01*
X2155952Y7898942D01*
X2176525Y7905800D01*
X2210561Y7905800D01*
X2231136Y7898942D01*
X2244597Y7892084D01*
X2258313Y7878622D01*
X2265172Y7864906D01*
X2265172Y7837728D01*
X2258313Y7824012D01*
X2244597Y7810296D01*
X2231136Y7803438D01*
X2142490Y7662976D02*
G01*
X2128774Y7676692D01*
X2121915Y7697266D01*
X2121915Y7724444D01*
X2128774Y7745018D01*
X2142490Y7758480D01*
X2155952Y7758480D01*
X2169668Y7751622D01*
X2176525Y7745018D01*
X2183384Y7731302D01*
X2196845Y7690408D01*
X2203704Y7676692D01*
X2210561Y7669834D01*
X2224277Y7662976D01*
X2244597Y7662976D01*
X2258313Y7676692D01*
X2265172Y7697266D01*
X2265172Y7724444D01*
X2258313Y7745018D01*
X2244597Y7758480D01*
X2375915Y7905800D02*
G01*
X2519172Y7905800D01*
X2375915Y7905800D02*
G01*
X2375915Y7858048D01*
X2382774Y7837728D01*
X2396490Y7824012D01*
X2409952Y7817154D01*
X2430525Y7810296D01*
X2464561Y7810296D01*
X2485136Y7817154D01*
X2498597Y7824012D01*
X2512313Y7837728D01*
X2519172Y7858048D01*
X2519172Y7905800D01*
X2409952Y7662976D02*
G01*
X2396490Y7669834D01*
X2382774Y7683550D01*
X2375915Y7697266D01*
X2375915Y7724444D01*
X2382774Y7738160D01*
X2396490Y7751622D01*
X2409952Y7758480D01*
X2430525Y7765338D01*
X2464561Y7765338D01*
X2485136Y7758480D01*
X2498597Y7751622D01*
X2512313Y7738160D01*
X2519172Y7724444D01*
X2519172Y7697266D01*
X2512313Y7683550D01*
X2498597Y7669834D01*
X2485136Y7662976D01*
X3679952Y7778038D02*
G01*
X3666490Y7784896D01*
X3652774Y7798612D01*
X3645915Y7812328D01*
X3645915Y7839506D01*
X3652774Y7853222D01*
X3666490Y7866684D01*
X3679952Y7873542D01*
X3700525Y7880400D01*
X3734561Y7880400D01*
X3755136Y7873542D01*
X3768597Y7866684D01*
X3782313Y7853222D01*
X3789172Y7839506D01*
X3789172Y7812328D01*
X3782313Y7798612D01*
X3768597Y7784896D01*
X3755136Y7778038D01*
X3734561Y7778038D01*
X3734561Y7812328D02*
G01*
X3734561Y7778038D01*
X3645915Y7733080D02*
G01*
X3789172Y7733080D01*
X3645915Y7733080D02*
G01*
X3789172Y7637576D01*
X3645915Y7637576D02*
G01*
X3789172Y7637576D01*
X3645915Y7592618D02*
G01*
X3789172Y7592618D01*
X3645915Y7592618D02*
G01*
X3645915Y7544866D01*
X3652774Y7524546D01*
X3666490Y7510830D01*
X3679952Y7503972D01*
X3700525Y7497114D01*
X3734561Y7497114D01*
X3755136Y7503972D01*
X3768597Y7510830D01*
X3782313Y7524546D01*
X3789172Y7544866D01*
X3789172Y7592618D01*
X3391915Y7880400D02*
G01*
X3535172Y7825790D01*
X3391915Y7771434D02*
G01*
X3535172Y7825790D01*
X3425952Y7624114D02*
G01*
X3412490Y7630972D01*
X3398774Y7644434D01*
X3391915Y7658150D01*
X3391915Y7685328D01*
X3398774Y7699044D01*
X3412490Y7712760D01*
X3425952Y7719618D01*
X3446525Y7726222D01*
X3480561Y7726222D01*
X3501136Y7719618D01*
X3514597Y7712760D01*
X3528313Y7699044D01*
X3535172Y7685328D01*
X3535172Y7658150D01*
X3528313Y7644434D01*
X3514597Y7630972D01*
X3501136Y7624114D01*
X3425952Y7476794D02*
G01*
X3412490Y7483652D01*
X3398774Y7497114D01*
X3391915Y7510830D01*
X3391915Y7538008D01*
X3398774Y7551724D01*
X3412490Y7565440D01*
X3425952Y7572298D01*
X3446525Y7579156D01*
X3480561Y7579156D01*
X3501136Y7572298D01*
X3514597Y7565440D01*
X3528313Y7551724D01*
X3535172Y7538008D01*
X3535172Y7510830D01*
X3528313Y7497114D01*
X3514597Y7483652D01*
X3501136Y7476794D01*
X3158490Y7784896D02*
G01*
X3144774Y7798612D01*
X3137915Y7818932D01*
X3137915Y7846364D01*
X3144774Y7866684D01*
X3158490Y7880400D01*
X3171952Y7880400D01*
X3185668Y7873542D01*
X3192525Y7866684D01*
X3199384Y7853222D01*
X3212845Y7812328D01*
X3219704Y7798612D01*
X3226561Y7791754D01*
X3240277Y7784896D01*
X3260597Y7784896D01*
X3274313Y7798612D01*
X3281172Y7818932D01*
X3281172Y7846364D01*
X3274313Y7866684D01*
X3260597Y7880400D01*
X3171952Y7637576D02*
G01*
X3158490Y7644434D01*
X3144774Y7658150D01*
X3137915Y7671866D01*
X3137915Y7699044D01*
X3144774Y7712760D01*
X3158490Y7726222D01*
X3171952Y7733080D01*
X3192525Y7739938D01*
X3226561Y7739938D01*
X3247136Y7733080D01*
X3260597Y7726222D01*
X3274313Y7712760D01*
X3281172Y7699044D01*
X3281172Y7671866D01*
X3274313Y7658150D01*
X3260597Y7644434D01*
X3247136Y7637576D01*
X3137915Y7592618D02*
G01*
X3281172Y7592618D01*
X3281172Y7592618D02*
G01*
X3281172Y7510830D01*
X2929890Y7810296D02*
G01*
X2916174Y7824012D01*
X2909315Y7844332D01*
X2909315Y7871764D01*
X2916174Y7892084D01*
X2929890Y7905800D01*
X2943352Y7905800D01*
X2957068Y7898942D01*
X2963925Y7892084D01*
X2970784Y7878622D01*
X2984245Y7837728D01*
X2991104Y7824012D01*
X2997961Y7817154D01*
X3011677Y7810296D01*
X3031997Y7810296D01*
X3045713Y7824012D01*
X3052572Y7844332D01*
X3052572Y7871764D01*
X3045713Y7892084D01*
X3031997Y7905800D01*
X2909315Y7765338D02*
G01*
X3052572Y7765338D01*
X2909315Y7765338D02*
G01*
X2909315Y7717586D01*
X2916174Y7697266D01*
X2929890Y7683550D01*
X2943352Y7676692D01*
X2963925Y7669834D01*
X2997961Y7669834D01*
X3018536Y7676692D01*
X3031997Y7683550D01*
X3045713Y7697266D01*
X3052572Y7717586D01*
X3052572Y7765338D01*
X2909315Y7570266D02*
G01*
X3052572Y7624876D01*
X2909315Y7570266D02*
G01*
X3052572Y7515910D01*
X3004820Y7604556D02*
G01*
X3004820Y7536230D01*
X2629915Y7905800D02*
G01*
X2773172Y7905800D01*
X2629915Y7905800D02*
G01*
X2629915Y7844332D01*
X2636774Y7824012D01*
X2643631Y7817154D01*
X2657093Y7810296D01*
X2670809Y7810296D01*
X2684525Y7817154D01*
X2691384Y7824012D01*
X2698241Y7844332D01*
X2698241Y7905800D01*
X2698241Y7858048D02*
G01*
X2773172Y7810296D01*
X2650490Y7669834D02*
G01*
X2636774Y7683550D01*
X2629915Y7703870D01*
X2629915Y7731302D01*
X2636774Y7751622D01*
X2650490Y7765338D01*
X2663952Y7765338D01*
X2677668Y7758480D01*
X2684525Y7751622D01*
X2691384Y7738160D01*
X2704845Y7697266D01*
X2711704Y7683550D01*
X2718561Y7676692D01*
X2732277Y7669834D01*
X2752597Y7669834D01*
X2766313Y7683550D01*
X2773172Y7703870D01*
X2773172Y7731302D01*
X2766313Y7751622D01*
X2752597Y7765338D01*
X2629915Y7577124D02*
G01*
X2773172Y7577124D01*
X2629915Y7624876D02*
G01*
X2629915Y7529372D01*
X1842515Y7905800D02*
G01*
X1985772Y7905800D01*
X1842515Y7905800D02*
G01*
X1842515Y7844332D01*
X1849373Y7824012D01*
X1856231Y7817154D01*
X1869694Y7810296D01*
X1883410Y7810296D01*
X1897126Y7817154D01*
X1903984Y7824012D01*
X1910842Y7844332D01*
X1910842Y7905800D02*
G01*
X1910842Y7844332D01*
X1917445Y7824012D01*
X1924304Y7817154D01*
X1938020Y7810296D01*
X1958340Y7810296D01*
X1972056Y7817154D01*
X1978913Y7824012D01*
X1985772Y7844332D01*
X1985772Y7905800D01*
X1842515Y7765338D02*
G01*
X1985772Y7765338D01*
X1985772Y7765338D02*
G01*
X1985772Y7683550D01*
X1842515Y7638592D02*
G01*
X1985772Y7638592D01*
X1842515Y7543088D02*
G01*
X1938020Y7638592D01*
X1903984Y7604556D02*
G01*
X1985772Y7543088D01*
D12*
X2985515Y2476500D02*
G01*
X2876550Y2476500D01*
X2985515Y2476500D02*
G01*
X2876550Y2518155D01*
X2985515Y2559557D02*
G01*
X2876550Y2518155D01*
X2985515Y2559557D02*
G01*
X2876550Y2559557D01*
X2985515Y2625089D02*
G01*
X2980436Y2614676D01*
X2970022Y2604262D01*
X2959608Y2599181D01*
X2943859Y2593847D01*
X2917952Y2593847D01*
X2902458Y2599181D01*
X2892043Y2604262D01*
X2881629Y2614676D01*
X2876550Y2625089D01*
X2876550Y2645918D01*
X2881629Y2656331D01*
X2892043Y2666745D01*
X2902458Y2671826D01*
X2917952Y2677160D01*
X2943859Y2677160D01*
X2959608Y2671826D01*
X2970022Y2666745D01*
X2980436Y2656331D01*
X2985515Y2645918D01*
X2985515Y2625089D01*
X2970022Y2784094D02*
G01*
X2980436Y2773679D01*
X2985515Y2758186D01*
X2985515Y2737357D01*
X2980436Y2721610D01*
X2970022Y2711450D01*
X2959608Y2711450D01*
X2949193Y2716529D01*
X2943859Y2721610D01*
X2938779Y2732023D01*
X2928365Y2763265D01*
X2923286Y2773679D01*
X2917952Y2778760D01*
X2907538Y2784094D01*
X2892043Y2784094D01*
X2881629Y2773679D01*
X2876550Y2758186D01*
X2876550Y2737357D01*
X2881629Y2721610D01*
X2892043Y2711450D01*
X2985515Y2818384D02*
G01*
X2876550Y2818384D01*
X3226308Y2706878D02*
G01*
X3236722Y2701544D01*
X3247136Y2691129D01*
X3252215Y2680970D01*
X3252215Y2660142D01*
X3247136Y2649728D01*
X3236722Y2639313D01*
X3226308Y2633979D01*
X3210559Y2628900D01*
X3184652Y2628900D01*
X3169158Y2633979D01*
X3158743Y2639313D01*
X3148329Y2649728D01*
X3143250Y2660142D01*
X3143250Y2680970D01*
X3148329Y2691129D01*
X3158743Y2701544D01*
X3169158Y2706878D01*
X3236722Y2813812D02*
G01*
X3247136Y2803397D01*
X3252215Y2787904D01*
X3252215Y2767076D01*
X3247136Y2751581D01*
X3236722Y2741168D01*
X3226308Y2741168D01*
X3215893Y2746247D01*
X3210559Y2751581D01*
X3205479Y2761995D01*
X3195065Y2792984D01*
X3189986Y2803397D01*
X3184652Y2808731D01*
X3174238Y2813812D01*
X3158743Y2813812D01*
X3148329Y2803397D01*
X3143250Y2787904D01*
X3143250Y2767076D01*
X3148329Y2751581D01*
X3158743Y2741168D01*
X3480815Y2537713D02*
G01*
X3480815Y2594863D01*
X3439159Y2563621D01*
X3439159Y2579370D01*
X3434079Y2589529D01*
X3429000Y2594863D01*
X3413252Y2599944D01*
X3402838Y2599944D01*
X3387343Y2594863D01*
X3376929Y2584450D01*
X3371850Y2568955D01*
X3371850Y2553207D01*
X3376929Y2537713D01*
X3382009Y2532379D01*
X3392424Y2527300D01*
X3480815Y2634234D02*
G01*
X3371850Y2675889D01*
X3480815Y2717545D02*
G01*
X3371850Y2675889D01*
X3480815Y2762250D02*
G01*
X3480815Y2819400D01*
X3439159Y2788157D01*
X3439159Y2803652D01*
X3434079Y2814065D01*
X3429000Y2819400D01*
X3413252Y2824479D01*
X3402838Y2824479D01*
X3387343Y2819400D01*
X3376929Y2808986D01*
X3371850Y2793237D01*
X3371850Y2777744D01*
X3376929Y2762250D01*
X3382009Y2756915D01*
X3392424Y2751836D01*
X2741422Y2599944D02*
G01*
X2751836Y2589529D01*
X2756915Y2574036D01*
X2756915Y2553207D01*
X2751836Y2537713D01*
X2741422Y2527300D01*
X2731008Y2527300D01*
X2720593Y2532379D01*
X2715259Y2537713D01*
X2710179Y2548128D01*
X2699765Y2579370D01*
X2694686Y2589529D01*
X2689352Y2594863D01*
X2678938Y2599944D01*
X2663443Y2599944D01*
X2653029Y2589529D01*
X2647950Y2574036D01*
X2647950Y2553207D01*
X2653029Y2537713D01*
X2663443Y2527300D01*
X2731008Y2712212D02*
G01*
X2741422Y2707131D01*
X2751836Y2696718D01*
X2756915Y2686304D01*
X2756915Y2665476D01*
X2751836Y2655062D01*
X2741422Y2644647D01*
X2731008Y2639568D01*
X2715259Y2634234D01*
X2689352Y2634234D01*
X2673858Y2639568D01*
X2663443Y2644647D01*
X2653029Y2655062D01*
X2647950Y2665476D01*
X2647950Y2686304D01*
X2653029Y2696718D01*
X2663443Y2707131D01*
X2673858Y2712212D01*
X2756915Y2746502D02*
G01*
X2647950Y2746502D01*
X2756915Y2819400D02*
G01*
X2684272Y2746502D01*
X2710179Y2772410D02*
G01*
X2647950Y2819400D01*
X2464815Y2476500D02*
G01*
X2355850Y2476500D01*
X2464815Y2476500D02*
G01*
X2355850Y2518155D01*
X2464815Y2559557D02*
G01*
X2355850Y2518155D01*
X2464815Y2559557D02*
G01*
X2355850Y2559557D01*
X2464815Y2593847D02*
G01*
X2355850Y2593847D01*
X2449322Y2701036D02*
G01*
X2459736Y2690621D01*
X2464815Y2674873D01*
X2464815Y2654300D01*
X2459736Y2638552D01*
X2449322Y2628137D01*
X2438908Y2628137D01*
X2428493Y2633471D01*
X2423159Y2638552D01*
X2418079Y2648965D01*
X2407665Y2680207D01*
X2402586Y2690621D01*
X2397252Y2695702D01*
X2386838Y2701036D01*
X2371343Y2701036D01*
X2360929Y2690621D01*
X2355850Y2674873D01*
X2355850Y2654300D01*
X2360929Y2638552D01*
X2371343Y2628137D01*
X2464815Y2766313D02*
G01*
X2459736Y2755900D01*
X2449322Y2745739D01*
X2438908Y2740405D01*
X2423159Y2735326D01*
X2397252Y2735326D01*
X2381758Y2740405D01*
X2371343Y2745739D01*
X2360929Y2755900D01*
X2355850Y2766313D01*
X2355850Y2787142D01*
X2360929Y2797555D01*
X2371343Y2807970D01*
X2381758Y2813050D01*
X2397252Y2818384D01*
X2423159Y2818384D01*
X2438908Y2813050D01*
X2449322Y2807970D01*
X2459736Y2797555D01*
X2464815Y2787142D01*
X2464815Y2766313D01*
X2184908Y2605278D02*
G01*
X2195322Y2599944D01*
X2205736Y2589529D01*
X2210815Y2579370D01*
X2210815Y2558542D01*
X2205736Y2548128D01*
X2195322Y2537713D01*
X2184908Y2532379D01*
X2169159Y2527300D01*
X2143252Y2527300D01*
X2127758Y2532379D01*
X2117343Y2537713D01*
X2106929Y2548128D01*
X2101850Y2558542D01*
X2101850Y2579370D01*
X2106929Y2589529D01*
X2117343Y2599944D01*
X2127758Y2605278D01*
X2143252Y2605278D01*
X2143252Y2579370D02*
G01*
X2143252Y2605278D01*
X2210815Y2639568D02*
G01*
X2101850Y2639568D01*
X2210815Y2639568D02*
G01*
X2101850Y2712212D01*
X2210815Y2712212D02*
G01*
X2101850Y2712212D01*
X2210815Y2746502D02*
G01*
X2101850Y2746502D01*
X2210815Y2746502D02*
G01*
X2210815Y2782823D01*
X2205736Y2798571D01*
X2195322Y2808986D01*
X2184908Y2814065D01*
X2169159Y2819400D01*
X2143252Y2819400D01*
X2127758Y2814065D01*
X2117343Y2808986D01*
X2106929Y2798571D01*
X2101850Y2782823D01*
X2101850Y2746502D01*
D11*
X3073374Y3188639D02*
G01*
X3073374Y3079673D01*
X3073374Y3188639D02*
G01*
X3031718Y3079673D01*
X2990316Y3188639D02*
G01*
X3031718Y3079673D01*
X2990316Y3188639D02*
G01*
X2990316Y3079673D01*
X2956026Y3188639D02*
G01*
X2956026Y3079673D01*
X2843758Y3162731D02*
G01*
X2848838Y3173145D01*
X2859252Y3183559D01*
X2869666Y3188639D01*
X2890494Y3188639D01*
X2900908Y3183559D01*
X2911322Y3173145D01*
X2916402Y3162731D01*
X2921736Y3147237D01*
X2921736Y3121075D01*
X2916402Y3105581D01*
X2911322Y3095167D01*
X2900908Y3084753D01*
X2890494Y3079673D01*
X2869666Y3079673D01*
X2859252Y3084753D01*
X2848838Y3095167D01*
X2843758Y3105581D01*
X2809468Y3188639D02*
G01*
X2809468Y3079673D01*
X2809468Y3188639D02*
G01*
X2762732Y3188639D01*
X2747238Y3183559D01*
X2741904Y3178225D01*
X2736824Y3168065D01*
X2736824Y3157651D01*
X2741904Y3147237D01*
X2747238Y3141903D01*
X2762732Y3136823D01*
X2809468Y3136823D01*
X2773146Y3136823D02*
G01*
X2736824Y3079673D01*
X2671292Y3188639D02*
G01*
X2681706Y3183559D01*
X2692120Y3173145D01*
X2697200Y3162731D01*
X2702534Y3147237D01*
X2702534Y3121075D01*
X2697200Y3105581D01*
X2692120Y3095167D01*
X2681706Y3084753D01*
X2671292Y3079673D01*
X2650464Y3079673D01*
X2640050Y3084753D01*
X2629636Y3095167D01*
X2624556Y3105581D01*
X2619222Y3121075D01*
X2619222Y3147237D01*
X2624556Y3162731D01*
X2629636Y3173145D01*
X2640050Y3183559D01*
X2650464Y3188639D01*
X2671292Y3188639D01*
X2512288Y3173145D02*
G01*
X2522702Y3183559D01*
X2538196Y3188639D01*
X2559024Y3188639D01*
X2574518Y3183559D01*
X2584932Y3173145D01*
X2584932Y3162731D01*
X2579852Y3152317D01*
X2574518Y3147237D01*
X2564358Y3141903D01*
X2533116Y3131489D01*
X2522702Y3126409D01*
X2517368Y3121075D01*
X2512288Y3110915D01*
X2512288Y3095167D01*
X2522702Y3084753D01*
X2538196Y3079673D01*
X2559024Y3079673D01*
X2574518Y3084753D01*
X2584932Y3095167D01*
X2477998Y3188639D02*
G01*
X2477998Y3079673D01*
X2477998Y3188639D02*
G01*
X2441676Y3188639D01*
X2425928Y3183559D01*
X2415768Y3173145D01*
X2410434Y3162731D01*
X2405354Y3147237D01*
X2405354Y3121075D01*
X2410434Y3105581D01*
X2415768Y3095167D01*
X2425928Y3084753D01*
X2441676Y3079673D01*
X2477998Y3079673D01*
D13*
G75*
G01
X3706444Y8257921D02*
G03X3706444Y8257921I-10744J0D01*
M02*
