M48
METRIC,LZ,000.000
;FILE_FORMAT=3:3
;TYPE=PLATED
;Layer: PTH_Through
;EasyEDA v6.5.47, 2024-09-14 10:47:09
;f333e6e274dc4bcb9767f93c96cd8ca8,df7e7e3c38a3447abd37b529b333d242,10
;Gerber Generator version 0.2
;Holesize 1 = 0.501 mm
T01C0.501
;Holesize 2 = 0.813 mm
T02C0.813
;Holesize 3 = 0.840 mm
T03C0.840
;Holesize 4 = 0.889 mm
T04C0.889
;Holesize 5 = 0.901 mm
T05C0.901
;Holesize 6 = 0.914 mm
T06C0.914
;Holesize 7 = 0.915 mm
T07C0.915
;Holesize 8 = 1.000 mm
T08C1.000
;Holesize 9 = 1.060 mm
T09C1.060
;Holesize 10 = 1.524 mm
T10C1.524
%
G05
G90
T01
X029080Y065024G85X029086Y065024
X039240Y065024G85X039246Y065024
X039373Y058166G85X039367Y058166
X029213Y058166G85X029207Y058166
T02
X009271Y013335
X009271Y010541
X009271Y007493
T03
X014606Y046863
X014606Y058039
X022606Y047863
X022606Y057039
X006394Y048863
X006334Y056039
X020066Y011820
X022606Y011820
X025146Y011820
X027686Y011820
X030226Y011820
X032766Y011820
T04
X008255Y017653
X010795Y017653
T05
X042799Y017653
X042799Y020193
X042799Y022733
X042799Y025273
X042799Y027813
X042799Y030353
X042672Y010691G85X042672Y010645
X042672Y008131G85X042672Y008125
X042672Y005589G85X042672Y005587
X042672Y003051G85X042672Y003045
T06
X028687Y033259
X028687Y035259
X028687Y037259
X028687Y039259
X028687Y041259
X028687Y043259
X028687Y045259
X028687Y047259
X042687Y047259
X042687Y045259
X042687Y043259
X042687Y041259
X042687Y039259
X042687Y037259
X042687Y035259
X042687Y033259
T07
X042926Y053086
X042926Y060706
X018796Y033300
X018796Y030760
X018796Y028220
X018796Y025680
X018796Y023140
X018796Y020600
X018796Y018060
X018796Y015520
X018796Y012980
X018796Y010440
X018796Y007900
X018796Y005360
X018796Y002820
X018796Y000280
X018796Y-002260
X034036Y-002260
X034036Y000280
X034036Y002820
X034036Y005360
X034036Y007900
X034036Y010440
X034036Y012980
X034036Y015520
X034036Y018060
X034036Y020600
X034036Y023140
X034036Y025680
X034036Y028220
X034036Y030760
X034036Y033300
T08
X018796Y035840
T09
X017526Y062717
X020066Y062717
X022606Y062717
X025146Y062717
X027686Y062717
X030226Y062717
X032766Y062717
X035306Y062717
T10
X034036Y035840
X018796Y-004800
X034036Y-004800
M30
