G04 Layer: TopSolderMaskLayer*
G04 EasyEDA v6.5.47, 2024-09-14 10:47:09*
G04 f333e6e274dc4bcb9767f93c96cd8ca8,df7e7e3c38a3447abd37b529b333d242,10*
G04 Gerber Generator version 0.2*
G04 Scale: 100 percent, Rotated: No, Reflected: No *
G04 Dimensions in millimeters *
G04 leading zeros omitted , absolute positions ,4 integer and 5 decimal *
%FSLAX45Y45*%
%MOMM*%

%AMMACRO1*4,1,8,-0.651,-0.6807,-0.6807,-0.6507,-0.6807,0.651,-0.651,0.6807,0.6507,0.6807,0.6807,0.651,0.6807,-0.6507,0.6507,-0.6807,-0.651,-0.6807,0*%
%AMMACRO2*4,1,8,-0.6511,-0.6807,-0.6808,-0.6507,-0.6808,0.651,-0.6511,0.6807,0.6509,0.6807,0.6808,0.651,0.6808,-0.6507,0.6509,-0.6807,-0.6511,-0.6807,0*%
%AMMACRO3*4,1,8,-1.0211,-1.0508,-1.0508,-1.0208,-1.0508,1.0211,-1.0211,1.0508,1.0208,1.0508,1.0508,1.0211,1.0508,-1.0208,1.0208,-1.0508,-1.0211,-1.0508,0*%
%AMMACRO4*4,1,8,-0.7711,-0.8007,-0.8009,-0.7708,-0.8009,0.771,-0.7711,0.8007,0.7709,0.8007,0.8009,0.771,0.8009,-0.7708,0.7709,-0.8007,-0.7711,-0.8007,0*%
%ADD10C,1.7032*%
%ADD11C,1.6916*%
%ADD12C,1.3616*%
%ADD13MACRO1*%
%ADD14MACRO2*%
%ADD15C,1.6256*%
%ADD16C,1.3132*%
%ADD17C,1.6016*%
%ADD18C,1.7526*%
%ADD19C,1.8516*%
%ADD20C,1.8516*%
%ADD21MACRO3*%
%ADD22MACRO4*%

%LPD*%
D10*
G01*
X2868701Y3325901D03*
G01*
X2868701Y3525901D03*
G01*
X2868701Y3725900D03*
G01*
X2868701Y3925900D03*
G01*
X2868701Y4125899D03*
G01*
X2868701Y4325899D03*
G01*
X2868701Y4525898D03*
G01*
X2868701Y4725898D03*
G01*
X4268698Y4725898D03*
G01*
X4268698Y4525898D03*
G01*
X4268698Y4325899D03*
G01*
X4268698Y4125899D03*
G01*
X4268698Y3925900D03*
G01*
X4268698Y3725900D03*
G01*
X4268698Y3525901D03*
G01*
X4268698Y3325901D03*
D11*
G01*
X1752600Y6271691D03*
G01*
X2006600Y6271691D03*
G01*
X2260600Y6271691D03*
G01*
X2514600Y6271691D03*
G01*
X2768600Y6271691D03*
G01*
X3022600Y6271691D03*
G01*
X3276600Y6271691D03*
G01*
X3530600Y6271691D03*
D10*
G01*
X4279900Y1765300D03*
G01*
X4279900Y2019300D03*
G01*
X4279900Y2273300D03*
G01*
X4279900Y2527300D03*
G01*
X4279900Y2781300D03*
G01*
X4279900Y3035300D03*
D12*
G01*
X1460601Y4686300D03*
G01*
X1460601Y5803900D03*
D13*
G01*
X2260600Y4786299D03*
G01*
X2260600Y5703900D03*
D14*
G01*
X639406Y4886299D03*
D13*
G01*
X633399Y5603900D03*
D15*
G01*
X4292600Y5308600D03*
G01*
X4292600Y6070600D03*
D16*
G01*
X927100Y1333500D03*
G01*
X927100Y1054100D03*
G01*
X927100Y749300D03*
D17*
G01*
X825500Y1765300D03*
D18*
G01*
X1079500Y1765300D03*
D19*
G01*
X4267200Y1066800D03*
G01*
X4267200Y812800D03*
G01*
X4267200Y558800D03*
G01*
X4267200Y304800D03*
D12*
G01*
X2006600Y1181988D03*
G01*
X2260600Y1181988D03*
G01*
X2514600Y1181988D03*
G01*
X2768600Y1181988D03*
G01*
X3022600Y1181988D03*
G01*
X3276600Y1181988D03*
D17*
G01*
X2908300Y6502400D03*
G01*
X3924300Y6502400D03*
G01*
X3937000Y5816600D03*
G01*
X2921000Y5816600D03*
G01*
X1879600Y3329990D03*
G01*
X1879600Y3075990D03*
G01*
X1879600Y2821990D03*
G01*
X1879600Y2567990D03*
G01*
X1879600Y2313990D03*
G01*
X1879600Y2059990D03*
D20*
G01*
X1879600Y1805990D03*
G01*
X1879600Y1551990D03*
G01*
X1879600Y1297990D03*
D17*
G01*
X1879600Y1043990D03*
G01*
X1879600Y789990D03*
G01*
X1879600Y535990D03*
G01*
X1879600Y281990D03*
G01*
X1879600Y27990D03*
G01*
X1879600Y-226009D03*
G01*
X3403600Y-226009D03*
G01*
X3403600Y27990D03*
G01*
X3403600Y281990D03*
G01*
X3403600Y535990D03*
G01*
X3403600Y789990D03*
G01*
X3403600Y1043990D03*
G01*
X3403600Y1297990D03*
G01*
X3403600Y1551990D03*
G01*
X3403600Y1805990D03*
G01*
X3403600Y2059990D03*
G01*
X3403600Y2313990D03*
G01*
X3403600Y2567990D03*
G01*
X3403600Y2821990D03*
G01*
X3403600Y3075990D03*
G01*
X3403600Y3329990D03*
D21*
G01*
X3403600Y3583990D03*
G01*
X1879599Y3583990D03*
D22*
G01*
X1879600Y-479996D03*
G01*
X3403600Y-479996D03*
M02*
