G04 Layer: TopSilkscreenLayer*
G04 EasyEDA v6.5.47, 2024-09-14 10:47:09*
G04 f333e6e274dc4bcb9767f93c96cd8ca8,df7e7e3c38a3447abd37b529b333d242,10*
G04 Gerber Generator version 0.2*
G04 Scale: 100 percent, Rotated: No, Reflected: No *
G04 Dimensions in millimeters *
G04 leading zeros omitted , absolute positions ,4 integer and 5 decimal *
%FSLAX45Y45*%
%MOMM*%

%ADD10C,0.1524*%
%ADD11C,0.2032*%
%ADD12C,0.2540*%
%ADD13C,0.1200*%
%ADD14C,0.1600*%
%ADD15C,0.0161*%

%LPD*%
D10*
X2820415Y3069844D02*
G01*
X2711450Y3111500D01*
X2820415Y3069844D02*
G01*
X2711450Y3028442D01*
X2747772Y3096005D02*
G01*
X2747772Y3043936D01*
X2820415Y2994152D02*
G01*
X2711450Y2994152D01*
X2820415Y2994152D02*
G01*
X2820415Y2947415D01*
X2815336Y2931668D01*
X2810002Y2926587D01*
X2799588Y2921254D01*
X2789174Y2921254D01*
X2778759Y2926587D01*
X2773679Y2931668D01*
X2768600Y2947415D01*
X2768600Y2994152D01*
X2768600Y2957829D02*
G01*
X2711450Y2921254D01*
X2820415Y2886963D02*
G01*
X2711450Y2886963D01*
X2820415Y2886963D02*
G01*
X2820415Y2850642D01*
X2815336Y2835147D01*
X2804922Y2824734D01*
X2794508Y2819400D01*
X2778759Y2814320D01*
X2752852Y2814320D01*
X2737358Y2819400D01*
X2726943Y2824734D01*
X2716529Y2835147D01*
X2711450Y2850642D01*
X2711450Y2886963D01*
X2820415Y2780029D02*
G01*
X2742438Y2780029D01*
X2726943Y2774950D01*
X2716529Y2764536D01*
X2711450Y2748787D01*
X2711450Y2738373D01*
X2716529Y2722879D01*
X2726943Y2712465D01*
X2742438Y2707386D01*
X2820415Y2707386D01*
X2820415Y2673095D02*
G01*
X2711450Y2673095D01*
X2820415Y2638805D02*
G01*
X2711450Y2638805D01*
X2820415Y2638805D02*
G01*
X2711450Y2565907D01*
X2820415Y2565907D02*
G01*
X2711450Y2565907D01*
X2820415Y2500629D02*
G01*
X2815336Y2510789D01*
X2804922Y2521204D01*
X2794508Y2526537D01*
X2778759Y2531618D01*
X2752852Y2531618D01*
X2737358Y2526537D01*
X2726943Y2521204D01*
X2716529Y2510789D01*
X2711450Y2500629D01*
X2711450Y2479802D01*
X2716529Y2469387D01*
X2726943Y2458973D01*
X2737358Y2453639D01*
X2752852Y2448560D01*
X2778759Y2448560D01*
X2794508Y2453639D01*
X2804922Y2458973D01*
X2815336Y2469387D01*
X2820415Y2479802D01*
X2820415Y2500629D01*
X2820415Y2334260D02*
G01*
X2711450Y2334260D01*
X2820415Y2334260D02*
G01*
X2711450Y2261615D01*
X2820415Y2261615D02*
G01*
X2711450Y2261615D01*
X2820415Y2185670D02*
G01*
X2711450Y2227326D01*
X2820415Y2185670D02*
G01*
X2711450Y2144013D01*
X2747772Y2211578D02*
G01*
X2747772Y2159762D01*
X2820415Y2109723D02*
G01*
X2711450Y2109723D01*
X2820415Y2109723D02*
G01*
X2711450Y2037079D01*
X2820415Y2037079D02*
G01*
X2711450Y2037079D01*
X2820415Y1971547D02*
G01*
X2815336Y1981962D01*
X2804922Y1992376D01*
X2794508Y1997710D01*
X2778759Y2002789D01*
X2752852Y2002789D01*
X2737358Y1997710D01*
X2726943Y1992376D01*
X2716529Y1981962D01*
X2711450Y1971547D01*
X2711450Y1950720D01*
X2716529Y1940560D01*
X2726943Y1930145D01*
X2737358Y1924812D01*
X2752852Y1919731D01*
X2778759Y1919731D01*
X2794508Y1924812D01*
X2804922Y1930145D01*
X2815336Y1940560D01*
X2820415Y1950720D01*
X2820415Y1971547D01*
X2820415Y1805431D02*
G01*
X2711450Y1805431D01*
X2820415Y1805431D02*
G01*
X2820415Y1737868D01*
X2768600Y1805431D02*
G01*
X2768600Y1763776D01*
X2711450Y1805431D02*
G01*
X2711450Y1737868D01*
X2804922Y1630679D02*
G01*
X2815336Y1641094D01*
X2820415Y1656842D01*
X2820415Y1677670D01*
X2815336Y1693163D01*
X2804922Y1703578D01*
X2794508Y1703578D01*
X2784093Y1698244D01*
X2778759Y1693163D01*
X2773679Y1682750D01*
X2763265Y1651507D01*
X2758186Y1641094D01*
X2752852Y1636013D01*
X2742438Y1630679D01*
X2726943Y1630679D01*
X2716529Y1641094D01*
X2711450Y1656842D01*
X2711450Y1677670D01*
X2716529Y1693163D01*
X2726943Y1703578D01*
X2820415Y1596389D02*
G01*
X2711450Y1596389D01*
X2820415Y1596389D02*
G01*
X2820415Y1549654D01*
X2815336Y1534160D01*
X2810002Y1529079D01*
X2799588Y1523745D01*
X2784093Y1523745D01*
X2773679Y1529079D01*
X2768600Y1534160D01*
X2763265Y1549654D01*
X2763265Y1596389D01*
X2820415Y1479042D02*
G01*
X2820415Y1421892D01*
X2778759Y1453134D01*
X2778759Y1437639D01*
X2773679Y1427226D01*
X2768600Y1421892D01*
X2752852Y1416812D01*
X2742438Y1416812D01*
X2726943Y1421892D01*
X2716529Y1432305D01*
X2711450Y1447800D01*
X2711450Y1463547D01*
X2716529Y1479042D01*
X2721609Y1484376D01*
X2732024Y1489455D01*
X2794508Y1377187D02*
G01*
X2799588Y1377187D01*
X2810002Y1372107D01*
X2815336Y1366773D01*
X2820415Y1356360D01*
X2820415Y1335786D01*
X2815336Y1325371D01*
X2810002Y1320037D01*
X2799588Y1314957D01*
X2789174Y1314957D01*
X2778759Y1320037D01*
X2763265Y1330452D01*
X2711450Y1382521D01*
X2711450Y1309623D01*
X647192Y3506978D02*
G01*
X636778Y3501644D01*
X626363Y3491229D01*
X621284Y3481070D01*
X621284Y3460242D01*
X626363Y3449828D01*
X636778Y3439413D01*
X647192Y3434079D01*
X662939Y3429000D01*
X688847Y3429000D01*
X704342Y3434079D01*
X714755Y3439413D01*
X725170Y3449828D01*
X730250Y3460242D01*
X730250Y3481070D01*
X725170Y3491229D01*
X714755Y3501644D01*
X704342Y3506978D01*
X657605Y3603497D02*
G01*
X730250Y3603497D01*
X673100Y3603497D02*
G01*
X662939Y3593084D01*
X657605Y3582670D01*
X657605Y3567176D01*
X662939Y3556762D01*
X673100Y3546347D01*
X688847Y3541268D01*
X699262Y3541268D01*
X714755Y3546347D01*
X725170Y3556762D01*
X730250Y3567176D01*
X730250Y3582670D01*
X725170Y3593084D01*
X714755Y3603497D01*
X657605Y3637787D02*
G01*
X766826Y3637787D01*
X673100Y3637787D02*
G01*
X662939Y3648202D01*
X657605Y3658615D01*
X657605Y3674110D01*
X662939Y3684523D01*
X673100Y3694937D01*
X688847Y3700271D01*
X699262Y3700271D01*
X714755Y3694937D01*
X725170Y3684523D01*
X730250Y3674110D01*
X730250Y3658615D01*
X725170Y3648202D01*
X714755Y3637787D01*
X621284Y3734562D02*
G01*
X626363Y3739642D01*
X621284Y3744976D01*
X615950Y3739642D01*
X621284Y3734562D01*
X657605Y3739642D02*
G01*
X730250Y3739642D01*
X621284Y3779265D02*
G01*
X730250Y3779265D01*
X673100Y3779265D02*
G01*
X662939Y3789679D01*
X657605Y3799839D01*
X657605Y3815587D01*
X662939Y3826002D01*
X673100Y3836415D01*
X688847Y3841495D01*
X699262Y3841495D01*
X714755Y3836415D01*
X725170Y3826002D01*
X730250Y3815587D01*
X730250Y3799839D01*
X725170Y3789679D01*
X714755Y3779265D01*
X657605Y3938270D02*
G01*
X730250Y3938270D01*
X673100Y3938270D02*
G01*
X662939Y3927855D01*
X657605Y3917442D01*
X657605Y3901694D01*
X662939Y3891279D01*
X673100Y3881120D01*
X688847Y3875786D01*
X699262Y3875786D01*
X714755Y3881120D01*
X725170Y3891279D01*
X730250Y3901694D01*
X730250Y3917442D01*
X725170Y3927855D01*
X714755Y3938270D01*
X657605Y3972560D02*
G01*
X730250Y3972560D01*
X688847Y3972560D02*
G01*
X673100Y3977639D01*
X662939Y3988054D01*
X657605Y3998468D01*
X657605Y4013962D01*
X657605Y4110736D02*
G01*
X730250Y4110736D01*
X673100Y4110736D02*
G01*
X662939Y4100321D01*
X657605Y4089907D01*
X657605Y4074160D01*
X662939Y4064000D01*
X673100Y4053586D01*
X688847Y4048252D01*
X699262Y4048252D01*
X714755Y4053586D01*
X725170Y4064000D01*
X730250Y4074160D01*
X730250Y4089907D01*
X725170Y4100321D01*
X714755Y4110736D01*
X621284Y4217670D02*
G01*
X730250Y4145026D01*
X621284Y4145026D02*
G01*
X621284Y4217670D01*
X730250Y4145026D02*
G01*
X730250Y4217670D01*
X688847Y4251960D02*
G01*
X688847Y4314189D01*
X678434Y4314189D01*
X668020Y4309110D01*
X662939Y4304029D01*
X657605Y4293615D01*
X657605Y4277868D01*
X662939Y4267454D01*
X673100Y4257039D01*
X688847Y4251960D01*
X699262Y4251960D01*
X714755Y4257039D01*
X725170Y4267454D01*
X730250Y4277868D01*
X730250Y4293615D01*
X725170Y4304029D01*
X714755Y4314189D01*
X657605Y4348479D02*
G01*
X730250Y4348479D01*
X688847Y4348479D02*
G01*
X673100Y4353813D01*
X662939Y4364228D01*
X657605Y4374642D01*
X657605Y4390136D01*
X657605Y4450334D02*
G01*
X662939Y4439920D01*
X673100Y4429760D01*
X688847Y4424426D01*
X699262Y4424426D01*
X714755Y4429760D01*
X725170Y4439920D01*
X730250Y4450334D01*
X730250Y4466081D01*
X725170Y4476495D01*
X714755Y4486910D01*
X699262Y4491989D01*
X688847Y4491989D01*
X673100Y4486910D01*
X662939Y4476495D01*
X657605Y4466081D01*
X657605Y4450334D01*
X4113529Y3058921D02*
G01*
X4108450Y3069336D01*
X4092956Y3074415D01*
X4082541Y3074415D01*
X4066793Y3069336D01*
X4056379Y3053587D01*
X4051300Y3027679D01*
X4051300Y3001771D01*
X4056379Y2980944D01*
X4066793Y2970529D01*
X4082541Y2965450D01*
X4087622Y2965450D01*
X4103370Y2970529D01*
X4113529Y2980944D01*
X4118863Y2996437D01*
X4118863Y3001771D01*
X4113529Y3017265D01*
X4103370Y3027679D01*
X4087622Y3032760D01*
X4082541Y3032760D01*
X4066793Y3027679D01*
X4056379Y3017265D01*
X4051300Y3001771D01*
X4061713Y2312415D02*
G01*
X4118863Y2312415D01*
X4087622Y2270760D01*
X4103370Y2270760D01*
X4113529Y2265679D01*
X4118863Y2260600D01*
X4123943Y2244852D01*
X4123943Y2234437D01*
X4118863Y2218944D01*
X4108450Y2208529D01*
X4092956Y2203450D01*
X4077208Y2203450D01*
X4061713Y2208529D01*
X4056379Y2213610D01*
X4051300Y2224023D01*
X4089400Y1796287D02*
G01*
X4099813Y1801621D01*
X4115308Y1817115D01*
X4115308Y1708150D01*
X4069079Y2045207D02*
G01*
X4069079Y2050287D01*
X4074413Y2060702D01*
X4079493Y2066036D01*
X4089908Y2071115D01*
X4110736Y2071115D01*
X4121150Y2066036D01*
X4126229Y2060702D01*
X4131563Y2050287D01*
X4131563Y2039873D01*
X4126229Y2029460D01*
X4116070Y2013965D01*
X4064000Y1962150D01*
X4136643Y1962150D01*
X4103370Y2579115D02*
G01*
X4051300Y2506471D01*
X4129277Y2506471D01*
X4103370Y2579115D02*
G01*
X4103370Y2470150D01*
X4126229Y2820415D02*
G01*
X4074413Y2820415D01*
X4069079Y2773679D01*
X4074413Y2778760D01*
X4089908Y2784094D01*
X4105656Y2784094D01*
X4121150Y2778760D01*
X4131563Y2768600D01*
X4136643Y2752852D01*
X4136643Y2742437D01*
X4131563Y2726944D01*
X4121150Y2716529D01*
X4105656Y2711450D01*
X4089908Y2711450D01*
X4074413Y2716529D01*
X4069079Y2721610D01*
X4064000Y2732023D01*
X3900677Y343407D02*
G01*
X3895343Y353821D01*
X3884929Y364236D01*
X3874770Y369315D01*
X3853941Y369315D01*
X3843527Y364236D01*
X3833113Y353821D01*
X3827779Y343407D01*
X3822700Y327660D01*
X3822700Y301752D01*
X3827779Y286257D01*
X3833113Y275844D01*
X3843527Y265429D01*
X3853941Y260350D01*
X3874770Y260350D01*
X3884929Y265429D01*
X3895343Y275844D01*
X3900677Y286257D01*
X3900677Y301752D01*
X3874770Y301752D02*
G01*
X3900677Y301752D01*
X3934968Y369315D02*
G01*
X3934968Y260350D01*
X3934968Y369315D02*
G01*
X4007611Y260350D01*
X4007611Y369315D02*
G01*
X4007611Y260350D01*
X4041902Y369315D02*
G01*
X4041902Y260350D01*
X4041902Y369315D02*
G01*
X4078224Y369315D01*
X4093972Y364236D01*
X4104386Y353821D01*
X4109465Y343407D01*
X4114800Y327660D01*
X4114800Y301752D01*
X4109465Y286257D01*
X4104386Y275844D01*
X4093972Y265429D01*
X4078224Y260350D01*
X4041902Y260350D01*
X3784600Y585215D02*
G01*
X3826256Y476250D01*
X3867658Y585215D02*
G01*
X3826256Y476250D01*
X3979925Y559307D02*
G01*
X3974845Y569721D01*
X3964431Y580136D01*
X3954018Y585215D01*
X3933190Y585215D01*
X3922775Y580136D01*
X3912361Y569721D01*
X3907281Y559307D01*
X3901947Y543560D01*
X3901947Y517652D01*
X3907281Y502157D01*
X3912361Y491744D01*
X3922775Y481329D01*
X3933190Y476250D01*
X3954018Y476250D01*
X3964431Y481329D01*
X3974845Y491744D01*
X3979925Y502157D01*
X4092193Y559307D02*
G01*
X4086859Y569721D01*
X4076700Y580136D01*
X4066286Y585215D01*
X4045458Y585215D01*
X4035043Y580136D01*
X4024629Y569721D01*
X4019550Y559307D01*
X4014215Y543560D01*
X4014215Y517652D01*
X4019550Y502157D01*
X4024629Y491744D01*
X4035043Y481329D01*
X4045458Y476250D01*
X4066286Y476250D01*
X4076700Y481329D01*
X4086859Y491744D01*
X4092193Y502157D01*
X3857243Y1103121D02*
G01*
X3846829Y1113536D01*
X3831336Y1118615D01*
X3810508Y1118615D01*
X3795013Y1113536D01*
X3784600Y1103121D01*
X3784600Y1092707D01*
X3789679Y1082294D01*
X3795013Y1076960D01*
X3805427Y1071879D01*
X3836670Y1061465D01*
X3846829Y1056386D01*
X3852163Y1051052D01*
X3857243Y1040637D01*
X3857243Y1025144D01*
X3846829Y1014729D01*
X3831336Y1009650D01*
X3810508Y1009650D01*
X3795013Y1014729D01*
X3784600Y1025144D01*
X3891534Y1118615D02*
G01*
X3891534Y1009650D01*
X3891534Y1118615D02*
G01*
X3928109Y1118615D01*
X3943604Y1113536D01*
X3954018Y1103121D01*
X3959097Y1092707D01*
X3964431Y1076960D01*
X3964431Y1051052D01*
X3959097Y1035557D01*
X3954018Y1025144D01*
X3943604Y1014729D01*
X3928109Y1009650D01*
X3891534Y1009650D01*
X4040124Y1118615D02*
G01*
X3998722Y1009650D01*
X4040124Y1118615D02*
G01*
X4081779Y1009650D01*
X4014215Y1045971D02*
G01*
X4066286Y1045971D01*
X3933443Y836421D02*
G01*
X3923029Y846836D01*
X3907536Y851915D01*
X3886708Y851915D01*
X3871213Y846836D01*
X3860800Y836421D01*
X3860800Y826007D01*
X3865879Y815594D01*
X3871213Y810260D01*
X3881627Y805179D01*
X3912870Y794765D01*
X3923029Y789686D01*
X3928363Y784352D01*
X3933443Y773937D01*
X3933443Y758444D01*
X3923029Y748029D01*
X3907536Y742950D01*
X3886708Y742950D01*
X3871213Y748029D01*
X3860800Y758444D01*
X4045711Y826007D02*
G01*
X4040631Y836421D01*
X4030218Y846836D01*
X4019804Y851915D01*
X3998975Y851915D01*
X3988561Y846836D01*
X3978147Y836421D01*
X3973068Y826007D01*
X3967734Y810260D01*
X3967734Y784352D01*
X3973068Y768857D01*
X3978147Y758444D01*
X3988561Y748029D01*
X3998975Y742950D01*
X4019804Y742950D01*
X4030218Y748029D01*
X4040631Y758444D01*
X4045711Y768857D01*
X4080002Y851915D02*
G01*
X4080002Y742950D01*
X4080002Y742950D02*
G01*
X4142486Y742950D01*
X4545584Y5156200D02*
G01*
X4654550Y5156200D01*
X4545584Y5156200D02*
G01*
X4545584Y5202936D01*
X4550663Y5218429D01*
X4555997Y5223763D01*
X4566411Y5228844D01*
X4581906Y5228844D01*
X4592320Y5223763D01*
X4597400Y5218429D01*
X4602734Y5202936D01*
X4602734Y5156200D01*
X4571491Y5341112D02*
G01*
X4561077Y5336031D01*
X4550663Y5325618D01*
X4545584Y5315204D01*
X4545584Y5294376D01*
X4550663Y5283962D01*
X4561077Y5273547D01*
X4571491Y5268468D01*
X4587240Y5263134D01*
X4613147Y5263134D01*
X4628641Y5268468D01*
X4639056Y5273547D01*
X4649470Y5283962D01*
X4654550Y5294376D01*
X4654550Y5315204D01*
X4649470Y5325618D01*
X4639056Y5336031D01*
X4628641Y5341112D01*
X4545584Y5375402D02*
G01*
X4654550Y5375402D01*
X4545584Y5375402D02*
G01*
X4545584Y5422137D01*
X4550663Y5437886D01*
X4555997Y5442965D01*
X4566411Y5448300D01*
X4576825Y5448300D01*
X4587240Y5442965D01*
X4592320Y5437886D01*
X4597400Y5422137D01*
X4597400Y5375402D02*
G01*
X4597400Y5422137D01*
X4602734Y5437886D01*
X4607813Y5442965D01*
X4618227Y5448300D01*
X4633975Y5448300D01*
X4644390Y5442965D01*
X4649470Y5437886D01*
X4654550Y5422137D01*
X4654550Y5375402D01*
X4545584Y5562600D02*
G01*
X4654550Y5604002D01*
X4545584Y5645657D02*
G01*
X4654550Y5604002D01*
X4613147Y5679947D02*
G01*
X4613147Y5742178D01*
X4602734Y5742178D01*
X4592320Y5737097D01*
X4587240Y5731763D01*
X4581906Y5721350D01*
X4581906Y5705855D01*
X4587240Y5695442D01*
X4597400Y5685028D01*
X4613147Y5679947D01*
X4623561Y5679947D01*
X4639056Y5685028D01*
X4649470Y5695442D01*
X4654550Y5705855D01*
X4654550Y5721350D01*
X4649470Y5731763D01*
X4639056Y5742178D01*
X4581906Y5776468D02*
G01*
X4654550Y5776468D01*
X4613147Y5776468D02*
G01*
X4597400Y5781802D01*
X4587240Y5792215D01*
X4581906Y5802629D01*
X4581906Y5818123D01*
X4628641Y5857494D02*
G01*
X4633975Y5852413D01*
X4639056Y5857494D01*
X4633975Y5862828D01*
X4628641Y5857494D01*
X4566411Y5977128D02*
G01*
X4561077Y5987542D01*
X4545584Y6003036D01*
X4654550Y6003036D01*
X4628641Y6042660D02*
G01*
X4633975Y6037326D01*
X4639056Y6042660D01*
X4633975Y6047739D01*
X4628641Y6042660D01*
X4566411Y6082029D02*
G01*
X4561077Y6092444D01*
X4545584Y6107937D01*
X4654550Y6107937D01*
X4628641Y6147562D02*
G01*
X4633975Y6142228D01*
X4639056Y6147562D01*
X4633975Y6152642D01*
X4628641Y6147562D01*
X4571491Y6192265D02*
G01*
X4566411Y6192265D01*
X4555997Y6197345D01*
X4550663Y6202679D01*
X4545584Y6212839D01*
X4545584Y6233668D01*
X4550663Y6244081D01*
X4555997Y6249415D01*
X4566411Y6254495D01*
X4576825Y6254495D01*
X4587240Y6249415D01*
X4602734Y6239002D01*
X4654550Y6186931D01*
X4654550Y6259829D01*
D11*
X1116076Y1051305D02*
G01*
X1034034Y1051305D01*
X1075181Y1092200D02*
G01*
X1075181Y1010412D01*
X1024381Y1270000D02*
G01*
X1024381Y1188212D01*
X1129537Y722121D02*
G01*
X1124965Y731012D01*
X1116076Y740155D01*
X1106931Y744728D01*
X1093215Y749300D01*
X1070610Y749300D01*
X1056894Y744728D01*
X1047750Y740155D01*
X1038605Y731012D01*
X1034034Y722121D01*
X1034034Y703834D01*
X1038605Y694689D01*
X1047750Y685545D01*
X1056894Y681228D01*
X1070610Y676655D01*
X1093215Y676655D01*
X1106931Y681228D01*
X1116076Y685545D01*
X1124965Y694689D01*
X1129537Y703834D01*
X1129537Y722121D01*
X1097787Y646684D02*
G01*
X1052321Y646684D01*
X1038605Y642112D01*
X1034034Y632968D01*
X1034034Y619252D01*
X1038605Y610107D01*
X1052321Y596645D01*
X1097787Y596645D02*
G01*
X1034034Y596645D01*
X1129537Y552957D02*
G01*
X1052321Y552957D01*
X1038605Y548386D01*
X1034034Y539242D01*
X1034034Y530097D01*
X1097787Y566673D02*
G01*
X1097787Y534670D01*
X1016000Y1913381D02*
G01*
X1097787Y1913381D01*
X840994Y1954276D02*
G01*
X840994Y1872234D01*
X800100Y1913381D02*
G01*
X881887Y1913381D01*
D10*
X3821684Y2247900D02*
G01*
X3930650Y2247900D01*
X3821684Y2247900D02*
G01*
X3821684Y2294636D01*
X3826763Y2310129D01*
X3832097Y2315463D01*
X3842511Y2320544D01*
X3852925Y2320544D01*
X3863340Y2315463D01*
X3868420Y2310129D01*
X3873500Y2294636D01*
X3873500Y2247900D02*
G01*
X3873500Y2294636D01*
X3878834Y2310129D01*
X3883913Y2315463D01*
X3894327Y2320544D01*
X3910075Y2320544D01*
X3920490Y2315463D01*
X3925570Y2310129D01*
X3930650Y2294636D01*
X3930650Y2247900D01*
X3821684Y2354834D02*
G01*
X3899661Y2354834D01*
X3915156Y2360168D01*
X3925570Y2370581D01*
X3930650Y2386076D01*
X3930650Y2396489D01*
X3925570Y2411984D01*
X3915156Y2422397D01*
X3899661Y2427731D01*
X3821684Y2427731D01*
X3821684Y2498344D02*
G01*
X3930650Y2498344D01*
X3821684Y2462021D02*
G01*
X3821684Y2534665D01*
X3821684Y2605278D02*
G01*
X3930650Y2605278D01*
X3821684Y2568955D02*
G01*
X3821684Y2641600D01*
X3821684Y2707131D02*
G01*
X3826763Y2696718D01*
X3837177Y2686304D01*
X3847591Y2681223D01*
X3863340Y2675889D01*
X3889247Y2675889D01*
X3904741Y2681223D01*
X3915156Y2686304D01*
X3925570Y2696718D01*
X3930650Y2707131D01*
X3930650Y2727960D01*
X3925570Y2738373D01*
X3915156Y2748787D01*
X3904741Y2753868D01*
X3889247Y2759202D01*
X3863340Y2759202D01*
X3847591Y2753868D01*
X3837177Y2748787D01*
X3826763Y2738373D01*
X3821684Y2727960D01*
X3821684Y2707131D01*
X3821684Y2793492D02*
G01*
X3930650Y2793492D01*
X3821684Y2793492D02*
G01*
X3930650Y2866136D01*
X3821684Y2866136D02*
G01*
X3930650Y2866136D01*
X2347722Y6859015D02*
G01*
X2347722Y6750050D01*
X2311400Y6859015D02*
G01*
X2384043Y6859015D01*
X2418334Y6859015D02*
G01*
X2418334Y6750050D01*
X2418334Y6859015D02*
G01*
X2465070Y6859015D01*
X2480818Y6853936D01*
X2485897Y6848602D01*
X2491231Y6838187D01*
X2491231Y6822694D01*
X2485897Y6812279D01*
X2480818Y6807200D01*
X2465070Y6801865D01*
X2418334Y6801865D01*
X2577338Y6859015D02*
G01*
X2525522Y6786371D01*
X2603500Y6786371D01*
X2577338Y6859015D02*
G01*
X2577338Y6750050D01*
X2668777Y6859015D02*
G01*
X2653284Y6853936D01*
X2642870Y6838187D01*
X2637790Y6812279D01*
X2637790Y6796786D01*
X2642870Y6770623D01*
X2653284Y6755129D01*
X2668777Y6750050D01*
X2679191Y6750050D01*
X2694940Y6755129D01*
X2705100Y6770623D01*
X2710434Y6796786D01*
X2710434Y6812279D01*
X2705100Y6838187D01*
X2694940Y6853936D01*
X2679191Y6859015D01*
X2668777Y6859015D01*
X2806954Y6859015D02*
G01*
X2755138Y6859015D01*
X2749804Y6812279D01*
X2755138Y6817360D01*
X2770631Y6822694D01*
X2786379Y6822694D01*
X2801874Y6817360D01*
X2812288Y6807200D01*
X2817368Y6791452D01*
X2817368Y6781037D01*
X2812288Y6765544D01*
X2801874Y6755129D01*
X2786379Y6750050D01*
X2770631Y6750050D01*
X2755138Y6755129D01*
X2749804Y6760210D01*
X2744724Y6770623D01*
X2924556Y6859015D02*
G01*
X2872486Y6750050D01*
X2851658Y6859015D02*
G01*
X2924556Y6859015D01*
X4341875Y5867145D02*
G01*
X4350765Y5876289D01*
X4355338Y5890005D01*
X4355338Y5908294D01*
X4350765Y5921755D01*
X4341875Y5930900D01*
X4332731Y5930900D01*
X4323588Y5926328D01*
X4319015Y5921755D01*
X4314443Y5912612D01*
X4305300Y5885434D01*
X4300981Y5876289D01*
X4296409Y5871718D01*
X4287265Y5867145D01*
X4273550Y5867145D01*
X4264406Y5876289D01*
X4259834Y5890005D01*
X4259834Y5908294D01*
X4264406Y5921755D01*
X4273550Y5930900D01*
X4355338Y5837173D02*
G01*
X4259834Y5814568D01*
X4355338Y5791707D02*
G01*
X4259834Y5814568D01*
X4355338Y5791707D02*
G01*
X4259834Y5769102D01*
X4355338Y5746242D02*
G01*
X4259834Y5769102D01*
X4355338Y5716270D02*
G01*
X4259834Y5716270D01*
X4355338Y5654547D02*
G01*
X4259834Y5654547D01*
X4355338Y5686297D02*
G01*
X4355338Y5622797D01*
X4332731Y5524500D02*
G01*
X4341875Y5529071D01*
X4350765Y5538215D01*
X4355338Y5547360D01*
X4355338Y5565394D01*
X4350765Y5574537D01*
X4341875Y5583681D01*
X4332731Y5588254D01*
X4319015Y5592826D01*
X4296409Y5592826D01*
X4282693Y5588254D01*
X4273550Y5583681D01*
X4264406Y5574537D01*
X4259834Y5565394D01*
X4259834Y5547360D01*
X4264406Y5538215D01*
X4273550Y5529071D01*
X4282693Y5524500D01*
X4355338Y5494528D02*
G01*
X4259834Y5494528D01*
X4355338Y5430773D02*
G01*
X4259834Y5430773D01*
X4309872Y5494528D02*
G01*
X4309872Y5430773D01*
X1321815Y1524000D02*
G01*
X1212850Y1524000D01*
X1321815Y1489710D02*
G01*
X1212850Y1489710D01*
X1321815Y1489710D02*
G01*
X1321815Y1442973D01*
X1316736Y1427479D01*
X1311402Y1422145D01*
X1300987Y1417065D01*
X1290573Y1417065D01*
X1280160Y1422145D01*
X1275079Y1427479D01*
X1270000Y1442973D01*
X1270000Y1489710D01*
X1270000Y1453387D02*
G01*
X1212850Y1417065D01*
X1176273Y1382776D02*
G01*
X1176273Y1289050D01*
X1321815Y1254760D02*
G01*
X1212850Y1254760D01*
X1321815Y1254760D02*
G01*
X1321815Y1208023D01*
X1316736Y1192529D01*
X1311402Y1187450D01*
X1300987Y1182115D01*
X1290573Y1182115D01*
X1280160Y1187450D01*
X1275079Y1192529D01*
X1270000Y1208023D01*
X1270000Y1254760D01*
X1270000Y1218437D02*
G01*
X1212850Y1182115D01*
X1321815Y1147826D02*
G01*
X1212850Y1147826D01*
X1321815Y1147826D02*
G01*
X1321815Y1080262D01*
X1270000Y1147826D02*
G01*
X1270000Y1106170D01*
X1212850Y1147826D02*
G01*
X1212850Y1080262D01*
X1295907Y967994D02*
G01*
X1306321Y973328D01*
X1316736Y983742D01*
X1321815Y994155D01*
X1321815Y1014729D01*
X1316736Y1025144D01*
X1306321Y1035557D01*
X1295907Y1040892D01*
X1280160Y1045971D01*
X1254252Y1045971D01*
X1238757Y1040892D01*
X1228344Y1035557D01*
X1217929Y1025144D01*
X1212850Y1014729D01*
X1212850Y994155D01*
X1217929Y983742D01*
X1228344Y973328D01*
X1238757Y967994D01*
X1321815Y933704D02*
G01*
X1212850Y933704D01*
X1321815Y933704D02*
G01*
X1321815Y866139D01*
X1270000Y933704D02*
G01*
X1270000Y892302D01*
X1212850Y933704D02*
G01*
X1212850Y866139D01*
X1321815Y831850D02*
G01*
X1212850Y831850D01*
X1321815Y797560D02*
G01*
X1212850Y756157D01*
X1321815Y714502D02*
G01*
X1212850Y756157D01*
X1321815Y680212D02*
G01*
X1212850Y680212D01*
X1321815Y680212D02*
G01*
X1321815Y612647D01*
X1270000Y680212D02*
G01*
X1270000Y638810D01*
X1212850Y680212D02*
G01*
X1212850Y612647D01*
X1321815Y578357D02*
G01*
X1212850Y578357D01*
X1321815Y578357D02*
G01*
X1321815Y531621D01*
X1316736Y516128D01*
X1311402Y510794D01*
X1300987Y505713D01*
X1290573Y505713D01*
X1280160Y510794D01*
X1275079Y516128D01*
X1270000Y531621D01*
X1270000Y578357D01*
X1270000Y542036D02*
G01*
X1212850Y505713D01*
X1334515Y3124200D02*
G01*
X1225550Y3124200D01*
X1334515Y3089910D02*
G01*
X1225550Y3089910D01*
X1334515Y3089910D02*
G01*
X1334515Y3043173D01*
X1329436Y3027679D01*
X1324102Y3022345D01*
X1313687Y3017265D01*
X1303273Y3017265D01*
X1292860Y3022345D01*
X1287779Y3027679D01*
X1282700Y3043173D01*
X1282700Y3089910D01*
X1282700Y3053587D02*
G01*
X1225550Y3017265D01*
X1188973Y2982976D02*
G01*
X1188973Y2889250D01*
X1334515Y2818637D02*
G01*
X1225550Y2818637D01*
X1334515Y2854960D02*
G01*
X1334515Y2782315D01*
X1334515Y2748026D02*
G01*
X1225550Y2748026D01*
X1334515Y2748026D02*
G01*
X1334515Y2701289D01*
X1329436Y2685795D01*
X1324102Y2680462D01*
X1313687Y2675381D01*
X1303273Y2675381D01*
X1292860Y2680462D01*
X1287779Y2685795D01*
X1282700Y2701289D01*
X1282700Y2748026D01*
X1282700Y2711704D02*
G01*
X1225550Y2675381D01*
X1334515Y2599436D02*
G01*
X1225550Y2641092D01*
X1334515Y2599436D02*
G01*
X1225550Y2557779D01*
X1261871Y2625344D02*
G01*
X1261871Y2573528D01*
X1334515Y2523489D02*
G01*
X1225550Y2523489D01*
X1334515Y2523489D02*
G01*
X1225550Y2450845D01*
X1334515Y2450845D02*
G01*
X1225550Y2450845D01*
X1319021Y2343912D02*
G01*
X1329436Y2354326D01*
X1334515Y2369820D01*
X1334515Y2390647D01*
X1329436Y2406142D01*
X1319021Y2416555D01*
X1308607Y2416555D01*
X1298194Y2411476D01*
X1292860Y2406142D01*
X1287779Y2395728D01*
X1277365Y2364739D01*
X1272286Y2354326D01*
X1266952Y2348992D01*
X1256537Y2343912D01*
X1241044Y2343912D01*
X1230629Y2354326D01*
X1225550Y2369820D01*
X1225550Y2390647D01*
X1230629Y2406142D01*
X1241044Y2416555D01*
X1334515Y2309621D02*
G01*
X1225550Y2309621D01*
X1334515Y2309621D02*
G01*
X1225550Y2267965D01*
X1334515Y2226310D02*
G01*
X1225550Y2267965D01*
X1334515Y2226310D02*
G01*
X1225550Y2226310D01*
X1334515Y2192020D02*
G01*
X1225550Y2192020D01*
X1334515Y2121407D02*
G01*
X1225550Y2121407D01*
X1334515Y2157729D02*
G01*
X1334515Y2085086D01*
X1334515Y2014473D02*
G01*
X1225550Y2014473D01*
X1334515Y2050795D02*
G01*
X1334515Y1978152D01*
X1334515Y1943862D02*
G01*
X1225550Y1943862D01*
X1334515Y1943862D02*
G01*
X1334515Y1876297D01*
X1282700Y1943862D02*
G01*
X1282700Y1902205D01*
X1225550Y1943862D02*
G01*
X1225550Y1876297D01*
X1334515Y1842007D02*
G01*
X1225550Y1842007D01*
X1334515Y1842007D02*
G01*
X1334515Y1795271D01*
X1329436Y1779523D01*
X1324102Y1774444D01*
X1313687Y1769110D01*
X1303273Y1769110D01*
X1292860Y1774444D01*
X1287779Y1779523D01*
X1282700Y1795271D01*
X1282700Y1842007D01*
X1282700Y1805686D02*
G01*
X1225550Y1769110D01*
X4674615Y850900D02*
G01*
X4565650Y850900D01*
X4674615Y850900D02*
G01*
X4565650Y778255D01*
X4674615Y778255D02*
G01*
X4565650Y778255D01*
X4674615Y743965D02*
G01*
X4565650Y743965D01*
X4674615Y743965D02*
G01*
X4674615Y676402D01*
X4622800Y743965D02*
G01*
X4622800Y702310D01*
X4648708Y564134D02*
G01*
X4659122Y569213D01*
X4669536Y579628D01*
X4674615Y590042D01*
X4674615Y610870D01*
X4669536Y621284D01*
X4659122Y631697D01*
X4648708Y636778D01*
X4632959Y642112D01*
X4607052Y642112D01*
X4591558Y636778D01*
X4581143Y631697D01*
X4570729Y621284D01*
X4565650Y610870D01*
X4565650Y590042D01*
X4570729Y579628D01*
X4581143Y569213D01*
X4591558Y564134D01*
X2449144Y-9321D02*
G01*
X2459558Y1092D01*
X2464892Y16840D01*
X2464892Y37414D01*
X2459558Y53162D01*
X2449144Y63576D01*
X2438984Y63576D01*
X2428570Y58242D01*
X2423236Y53162D01*
X2418156Y42748D01*
X2407742Y11506D01*
X2402408Y1092D01*
X2397328Y-3987D01*
X2386914Y-9321D01*
X2371420Y-9321D01*
X2361006Y1092D01*
X2355672Y16840D01*
X2355672Y37414D01*
X2361006Y53162D01*
X2371420Y63576D01*
X2464892Y-43611D02*
G01*
X2355672Y-43611D01*
X2464892Y-43611D02*
G01*
X2464892Y-79933D01*
X2459558Y-95427D01*
X2449144Y-105841D01*
X2438984Y-111175D01*
X2423236Y-116255D01*
X2397328Y-116255D01*
X2381834Y-111175D01*
X2371420Y-105841D01*
X2361006Y-95427D01*
X2355672Y-79933D01*
X2355672Y-43611D01*
X3403600Y6795515D02*
G01*
X3403600Y6686550D01*
X3403600Y6795515D02*
G01*
X3450336Y6795515D01*
X3465829Y6790436D01*
X3471163Y6785102D01*
X3476243Y6774687D01*
X3476243Y6764273D01*
X3471163Y6753860D01*
X3465829Y6748779D01*
X3450336Y6743700D01*
X3403600Y6743700D01*
X3439922Y6743700D02*
G01*
X3476243Y6686550D01*
X3510534Y6774687D02*
G01*
X3520947Y6780021D01*
X3536695Y6795515D01*
X3536695Y6686550D01*
X3441700Y5523484D02*
G01*
X3441700Y5632450D01*
X3441700Y5523484D02*
G01*
X3394963Y5523484D01*
X3379470Y5528563D01*
X3374136Y5533897D01*
X3369056Y5544312D01*
X3369056Y5554726D01*
X3374136Y5565139D01*
X3379470Y5570220D01*
X3394963Y5575300D01*
X3441700Y5575300D01*
X3405377Y5575300D02*
G01*
X3369056Y5632450D01*
X3329431Y5549392D02*
G01*
X3329431Y5544312D01*
X3324352Y5533897D01*
X3319018Y5528563D01*
X3308604Y5523484D01*
X3288029Y5523484D01*
X3277615Y5528563D01*
X3272281Y5533897D01*
X3267202Y5544312D01*
X3267202Y5554726D01*
X3272281Y5565139D01*
X3282695Y5580634D01*
X3334765Y5632450D01*
X3261868Y5632450D01*
X539394Y5802706D02*
G01*
X2254605Y5802706D01*
X2254605Y4844719D01*
X2254605Y4687493D01*
X539394Y4687493D01*
X539394Y5802706D01*
D12*
X4492599Y6260592D02*
G01*
X4492599Y5118607D01*
X4092600Y6260592D02*
G01*
X4092600Y5118607D01*
X4492599Y6261100D02*
G01*
X4092600Y6261100D01*
X4492599Y5118607D02*
G01*
X4092600Y5118607D01*
X723900Y1303020D02*
G01*
X924560Y1353820D01*
X924560Y1353820D02*
G01*
X1125220Y1303020D01*
X1125220Y1303020D02*
G01*
X1125220Y805179D01*
X1125220Y805179D02*
G01*
X924560Y754379D01*
X924560Y754379D02*
G01*
X723900Y805179D01*
X723900Y805179D02*
G01*
X723900Y853439D01*
X723900Y853439D02*
G01*
X723900Y1254760D01*
X723900Y1254760D02*
G01*
X723900Y1303020D01*
X873760Y1666239D02*
G01*
X873760Y1615439D01*
X873760Y1564639D01*
X952500Y1666239D02*
G01*
X952500Y1615439D01*
X952500Y1564639D01*
X952500Y1615439D02*
G01*
X1051560Y1615439D01*
X772160Y1615439D02*
G01*
X873760Y1615439D01*
X932179Y1694179D02*
G01*
X982979Y1744979D01*
X932179Y1744979D01*
X982979Y1694179D01*
X982979Y1744979D01*
X1143000Y1955800D02*
G01*
X1143000Y1836420D01*
X1143000Y1574800D02*
G01*
X1143000Y1676400D01*
D13*
X4521200Y152400D02*
G01*
X4445000Y152400D01*
X4445000Y-50800D01*
X4521200Y-50800D01*
X4521200Y152400D01*
X4445000Y1473200D02*
G01*
X4521200Y1473200D01*
X4521200Y1295400D01*
X4445000Y1295400D01*
X4445000Y1473200D01*
X3911600Y1473200D01*
X3911600Y-50800D01*
X4521200Y-50800D01*
X4521200Y1473200D01*
X4521200Y1143000D02*
G01*
X4445000Y1143000D01*
X4445000Y304800D01*
X4521200Y304800D01*
X4521200Y1143000D01*
X4292600Y1473200D02*
G01*
X4292600Y1397000D01*
X3987800Y1397000D01*
X3987800Y25400D01*
X4292600Y25400D01*
X4292600Y-50800D01*
X4542281Y1254252D02*
G01*
X4542281Y1504187D01*
X4292091Y1504187D01*
D10*
X3544216Y1182016D02*
G01*
X3544216Y-623219D01*
X1738980Y-623219D01*
X1738980Y1182016D01*
X3544216Y1182016D01*
D12*
X3725499Y6400797D02*
G01*
X3095497Y6400797D01*
X3736340Y6601457D02*
G01*
X3736340Y6401462D01*
X3096259Y6601460D02*
G01*
X3726261Y6601460D01*
X3096259Y6403337D02*
G01*
X3096259Y6603339D01*
X3119800Y5918202D02*
G01*
X3749802Y5918202D01*
X3108959Y5717542D02*
G01*
X3108959Y5917537D01*
X3749040Y5717539D02*
G01*
X3119038Y5717539D01*
X3749040Y5915662D02*
G01*
X3749040Y5715660D01*
X1625600Y3330000D02*
G01*
X1625600Y3711000D01*
X1752600Y3838000D01*
X3657600Y3838000D01*
X3657600Y-733999D01*
X1625600Y-733999D01*
X1625600Y3330000D01*
X1879600Y3584000D02*
G01*
X3657600Y3584000D01*
X3657600Y-479999D01*
X1625600Y-479999D01*
X1625600Y3330000D01*
X2260600Y-733999D02*
G01*
X2260600Y-987999D01*
X3022600Y-987999D01*
X3022600Y-733999D01*
G75*
G01*
X724441Y1254219D02*
G03*
X724441Y854220I75041J-200000D01*
G75*
G01*
X1143000Y1574800D02*
G02*
X1143000Y1955800I-177798J190500D01*
D14*
G75*
G01
X499389Y5118100D02*
G03X499389Y5118100I-8001J0D01*
G75*
G01
X2014601Y1230020D02*
G03X2014601Y1230020I-8001J0D01*
M02*
