G04 Layer: TopLayer*
G04 EasyEDA v6.5.47, 2024-09-14 10:47:09*
G04 f333e6e274dc4bcb9767f93c96cd8ca8,df7e7e3c38a3447abd37b529b333d242,10*
G04 Gerber Generator version 0.2*
G04 Scale: 100 percent, Rotated: No, Reflected: No *
G04 Dimensions in millimeters *
G04 leading zeros omitted , absolute positions ,4 integer and 5 decimal *
%FSLAX45Y45*%
%MOMM*%

%ADD10C,0.2540*%
%ADD11C,1.5000*%
%ADD12C,1.5900*%
%ADD13C,1.2600*%
%ADD14R,1.2600X1.2600*%
%ADD15C,1.5240*%
%ADD16C,1.2116*%
%ADD17C,1.6510*%
%ADD18C,1.7500*%
%ADD19C,1.7500*%
%ADD20R,2.0000X2.0000*%
%ADD21R,1.5000X1.5000*%

%LPD*%
D10*
X1879600Y1551942D02*
G01*
X1612900Y1818642D01*
X1612900Y5651500D01*
X1917700Y5956300D01*
X2171700Y5956300D01*
X2260600Y6045200D01*
X2260600Y6271691D01*
X3937000Y5816600D02*
G01*
X3924300Y5829300D01*
X3924300Y6502400D01*
X3276600Y6271768D02*
G01*
X3276600Y6527800D01*
X3073400Y6731000D01*
X1930400Y6731000D01*
X1752600Y6553200D01*
X1752600Y6271768D01*
X1879600Y2313939D02*
G01*
X1902460Y2336800D01*
X2755900Y2336800D01*
X3086100Y2667000D01*
X3086100Y5956300D01*
X2768600Y6271768D01*
X1879600Y1805939D02*
G01*
X1826260Y1805939D01*
X1663700Y1968500D01*
X1663700Y5334000D01*
X2387600Y6057900D01*
X2387600Y6464300D01*
X2540000Y6616700D01*
X2971800Y6616700D01*
X3022600Y6565900D01*
X3022600Y6271768D01*
X2006600Y6271691D02*
G01*
X2006600Y6172200D01*
X1562100Y5727700D01*
X1562100Y1409700D01*
X1651000Y1320800D01*
X1856742Y1320800D01*
X1879600Y1297942D01*
X2514600Y6271768D02*
G01*
X2514600Y5765800D01*
X1714500Y4965700D01*
X1714500Y2908300D01*
X1800860Y2821939D01*
X1879600Y2821939D01*
X927100Y749300D02*
G01*
X967790Y789990D01*
X1879600Y789990D01*
X2868701Y4725898D02*
G01*
X2868701Y4722901D01*
X2616200Y4470400D01*
X2616200Y3657600D01*
X2286000Y3327400D01*
X1882190Y3327400D01*
X1879600Y3329990D01*
X2868701Y4525898D02*
G01*
X2692400Y4349597D01*
X2692400Y3225800D01*
X2540000Y3073400D01*
X1882190Y3073400D01*
X1879600Y3075990D01*
X1854200Y1841500D02*
G01*
X1892300Y1841500D01*
X4279900Y1765300D02*
G01*
X4279900Y1666300D01*
X3403600Y790000D01*
X3403600Y1044000D02*
G01*
X3962400Y1602800D01*
X3962400Y1905000D01*
X4076700Y2019300D01*
X4279900Y2019300D01*
X4279900Y2273300D02*
G01*
X4267200Y2273300D01*
X3632200Y1638300D01*
X3632200Y1422400D01*
X3505200Y1295400D01*
X3406200Y1295400D01*
X3403600Y1298000D01*
X3403600Y1552000D02*
G01*
X3848100Y1996500D01*
X3848100Y2425700D01*
X3949700Y2527300D01*
X4279900Y2527300D01*
X3403600Y1806000D02*
G01*
X3721100Y2123500D01*
X3721100Y2628900D01*
X3873500Y2781300D01*
X4279900Y2781300D01*
X4267200Y1066800D02*
G01*
X4445000Y1244600D01*
X4445000Y2794000D01*
X4330700Y2908300D01*
X3822700Y2908300D01*
X3619500Y2705100D01*
X3619500Y2438400D01*
X3492500Y2311400D01*
X3406200Y2311400D01*
X3403600Y2314000D01*
X3403600Y28000D02*
G01*
X3533200Y28000D01*
X4064000Y558800D01*
X4267200Y558800D01*
X1879600Y28000D02*
G01*
X2085400Y28000D01*
X2768600Y711200D01*
X2768600Y1181988D01*
X3403600Y3330000D02*
G01*
X3337499Y3330000D01*
X3213100Y3454400D01*
X3213100Y4495800D01*
X4025900Y5308600D01*
X4292600Y5308600D01*
X4267200Y812800D02*
G01*
X4495800Y1041400D01*
X4495800Y3162300D01*
X4445000Y3213100D01*
X3784600Y3213100D01*
X3530600Y2959100D01*
X3340100Y2959100D01*
X3251200Y2870200D01*
X3251200Y2120900D01*
X3314700Y2057400D01*
X3400999Y2057400D01*
X3403600Y2060000D01*
X3403600Y28000D02*
G01*
X3276600Y155000D01*
X3276600Y1181988D01*
X3022600Y1181988D02*
G01*
X3022600Y660400D01*
X2273300Y-88900D01*
X1727200Y-88900D01*
X1574800Y63500D01*
X1574800Y177800D01*
X1676400Y279400D01*
X1876999Y279400D01*
X1879600Y282000D01*
X3403600Y28000D02*
G01*
X3380800Y28000D01*
X2997200Y-355600D01*
X1574800Y-355600D01*
X1435100Y-215900D01*
X1435100Y266700D01*
X1574800Y406400D01*
X1993900Y406400D01*
X2082800Y495300D01*
X2082800Y609600D01*
X2032000Y660400D01*
X1041400Y660400D01*
X990600Y609600D01*
X787400Y609600D01*
X698500Y698500D01*
X698500Y977900D01*
X774700Y1054100D01*
X927100Y1054100D01*
X4268724Y4125976D02*
G01*
X4546600Y3848100D01*
X4546600Y215900D01*
X4102100Y-228600D01*
X3406140Y-228600D01*
X3403600Y-226060D01*
X2768600Y1181862D02*
G01*
X2768600Y1892300D01*
X3149600Y2273300D01*
X3149600Y3048000D01*
X3302000Y3200400D01*
X3581400Y3200400D01*
X4000500Y3619500D01*
X4000500Y4127754D01*
X4000500Y4203700D01*
X4127500Y4330700D01*
X4263897Y4330700D01*
X4268724Y4325873D01*
X4268724Y4526026D02*
G01*
X4414774Y4526026D01*
X4622800Y4318000D01*
X4622800Y114300D01*
X3898900Y-609600D01*
X1435100Y-609600D01*
X1193800Y-368300D01*
X1193800Y355600D01*
X1384300Y546100D01*
X1869439Y546100D01*
X1879600Y535939D01*
D11*
G01*
X2868701Y3325901D03*
G01*
X2868701Y3525901D03*
G01*
X2868701Y3725900D03*
G01*
X2868701Y3925900D03*
G01*
X2868701Y4125899D03*
G01*
X2868701Y4325899D03*
G01*
X2868701Y4525898D03*
G01*
X2868701Y4725898D03*
G01*
X4268698Y4725898D03*
G01*
X4268698Y4525898D03*
G01*
X4268698Y4325899D03*
G01*
X4268698Y4125899D03*
G01*
X4268698Y3925900D03*
G01*
X4268698Y3725900D03*
G01*
X4268698Y3525901D03*
G01*
X4268698Y3325901D03*
D12*
G01*
X1752600Y6271691D03*
G01*
X2006600Y6271691D03*
G01*
X2260600Y6271691D03*
G01*
X2514600Y6271691D03*
G01*
X2768600Y6271691D03*
G01*
X3022600Y6271691D03*
G01*
X3276600Y6271691D03*
G01*
X3530600Y6271691D03*
D11*
G01*
X4279900Y1765300D03*
G01*
X4279900Y2019300D03*
G01*
X4279900Y2273300D03*
G01*
X4279900Y2527300D03*
G01*
X4279900Y2781300D03*
G01*
X4279900Y3035300D03*
D13*
G01*
X1460601Y4686300D03*
G01*
X1460601Y5803900D03*
D14*
G01*
X2260600Y4786299D03*
G01*
X2260600Y5703900D03*
G01*
X639394Y4886299D03*
G01*
X633399Y5603900D03*
D15*
G01*
X4292600Y5308600D03*
G01*
X4292600Y6070600D03*
D16*
G01*
X927100Y1333500D03*
G01*
X927100Y1054100D03*
G01*
X927100Y749300D03*
D11*
G01*
X825500Y1765300D03*
D17*
G01*
X1079500Y1765300D03*
D18*
G01*
X4267200Y1066800D03*
G01*
X4267200Y812800D03*
G01*
X4267200Y558800D03*
G01*
X4267200Y304800D03*
D13*
G01*
X2006600Y1181988D03*
G01*
X2260600Y1181988D03*
G01*
X2514600Y1181988D03*
G01*
X2768600Y1181988D03*
G01*
X3022600Y1181988D03*
G01*
X3276600Y1181988D03*
D11*
G01*
X2908300Y6502400D03*
G01*
X3924300Y6502400D03*
G01*
X3937000Y5816600D03*
G01*
X2921000Y5816600D03*
G01*
X1879600Y3329990D03*
G01*
X1879600Y3075990D03*
G01*
X1879600Y2821990D03*
G01*
X1879600Y2567990D03*
G01*
X1879600Y2313990D03*
G01*
X1879600Y2059990D03*
D19*
G01*
X1879600Y1805990D03*
G01*
X1879600Y1551990D03*
G01*
X1879600Y1297990D03*
D11*
G01*
X1879600Y1043990D03*
G01*
X1879600Y789990D03*
G01*
X1879600Y535990D03*
G01*
X1879600Y281990D03*
G01*
X1879600Y27990D03*
G01*
X1879600Y-226009D03*
G01*
X3403600Y-226009D03*
G01*
X3403600Y27990D03*
G01*
X3403600Y281990D03*
G01*
X3403600Y535990D03*
G01*
X3403600Y789990D03*
G01*
X3403600Y1043990D03*
G01*
X3403600Y1297990D03*
G01*
X3403600Y1551990D03*
G01*
X3403600Y1805990D03*
G01*
X3403600Y2059990D03*
G01*
X3403600Y2313990D03*
G01*
X3403600Y2567990D03*
G01*
X3403600Y2821990D03*
G01*
X3403600Y3075990D03*
G01*
X3403600Y3329990D03*
D20*
G01*
X3403600Y3583990D03*
G01*
X1879600Y3583990D03*
D21*
G01*
X1879600Y-480009D03*
G01*
X3403600Y-480009D03*
M02*
