M48
METRIC,LZ,000.000
;FILE_FORMAT=3:3
;TYPE=PLATED
;Layer: PTH_Through
;EasyEDA v6.5.40, 2024-04-09 13:00:43
;45367eb91e814c0fbe99eb78d241ce03,df7e7e3c38a3447abd37b529b333d242,10
;Gerber Generator version 0.2
;Holesize 1 = 0.501 mm
T01C0.501
;Holesize 2 = 0.600 mm
T02C0.600
;Holesize 3 = 0.813 mm
T03C0.813
;Holesize 4 = 0.840 mm
T04C0.840
;Holesize 5 = 0.889 mm
T05C0.889
;Holesize 6 = 0.901 mm
T06C0.901
;Holesize 7 = 0.915 mm
T07C0.915
;Holesize 8 = 1.524 mm
T08C1.524
%
G05
G90
T01
X029207Y064516G85X029213Y064516
X039367Y064516G85X039373Y064516
X039246Y056896G85X039240Y056896
X029086Y056896G85X029080Y056896
T02
X011684Y020574
X011684Y023114
X011684Y025654
X011684Y028194
X011684Y030734
X011684Y033274
T03
X042926Y021209
X042926Y024003
X042926Y027051
T04
X020066Y011947
X022606Y011947
X025146Y011947
X027686Y011947
X030226Y011947
X032766Y011947
X023241Y056706
X023241Y064706
X016185Y066802
X016185Y054864
X006985Y062230
X006985Y058928
T05
X041021Y015621
X043561Y015621
T06
X010922Y006073G85X010922Y006119
X010922Y008633G85X010922Y008639
X010922Y011175G85X010922Y011177
X010922Y013713G85X010922Y013719
T07
X022733Y032258
X025273Y032258
X027813Y032258
X030353Y032258
X030353Y034798
X027813Y034798
X025273Y034798
X022733Y034798
X019050Y044958
X021590Y044958
X026670Y044958
X029210Y044958
X024130Y044958
X031750Y044958
X034290Y044958
X034163Y-001905
X034163Y000635
X034163Y003175
X034163Y005715
X034163Y008255
X034163Y010795
X034163Y013335
X034163Y015875
X034163Y018415
X034163Y020955
X034163Y023495
X034163Y026035
X034163Y028575
X034163Y031115
X034163Y033655
X018923Y033655
X018923Y031115
X018923Y028575
X018923Y026035
X018923Y023495
X018923Y020955
X018923Y018415
X018923Y015875
X018923Y013335
X018923Y010795
X018923Y008255
X018923Y005715
X018923Y003175
X018923Y000635
X018923Y-001905
X012319Y039243
X012319Y046863
T08
X018923Y-004445
X034163Y-004445
X034163Y036195
X018923Y036195
M30
