G04 Layer: TopLayer*
G04 EasyEDA v6.5.40, 2024-04-09 13:00:43*
G04 45367eb91e814c0fbe99eb78d241ce03,df7e7e3c38a3447abd37b529b333d242,10*
G04 Gerber Generator version 0.2*
G04 Scale: 100 percent, Rotated: No, Reflected: No *
G04 Dimensions in millimeters *
G04 leading zeros omitted , absolute positions ,4 integer and 5 decimal *
%FSLAX45Y45*%
%MOMM*%

%ADD10C,0.2540*%
%ADD11C,1.5240*%
%ADD12O,1.5400019999999999X1.9999959999999999*%
%ADD13C,1.5000*%
%ADD14R,2.5400X2.5400*%
%ADD15C,1.2116*%
%ADD16R,1.6510X1.6510*%
%ADD17C,1.6510*%
%ADD18C,1.7500*%
%ADD19C,1.2600*%
%ADD20R,3.0000X3.0000*%

%LPD*%
D10*
X2273300Y3225800D02*
G01*
X2273300Y1549400D01*
X2146300Y1422400D01*
X2146300Y29210D01*
X2028190Y-63500D01*
X1168400Y2057400D02*
G01*
X1892300Y1333500D01*
X1168400Y2311400D02*
G01*
X1892300Y1587500D01*
X1168400Y2565400D02*
G01*
X1892300Y1841500D01*
X1168400Y3073400D02*
G01*
X1892300Y2349500D01*
X1168400Y2819400D02*
G01*
X1892300Y2095500D01*
X749300Y469900D02*
G01*
X749300Y3441700D01*
X1231900Y3924300D01*
X1460500Y3797300D02*
G01*
X965200Y3302000D01*
X965200Y1892300D01*
X1778000Y1079500D01*
X1778000Y1079500D02*
G01*
X1892300Y1079500D01*
X3924300Y5689600D02*
G01*
X3479800Y5245100D01*
X2324100Y5245100D01*
X1460500Y4381500D01*
X1460500Y3797300D01*
X1854200Y1841500D02*
G01*
X1892300Y1841500D01*
X4102100Y1562100D02*
G01*
X4102100Y1727200D01*
X3987800Y1841500D01*
X3416300Y1841500D01*
X3416300Y2349500D02*
G01*
X3975100Y2349500D01*
X4292600Y2667000D01*
X4292600Y2705100D01*
X2527300Y3479800D02*
G01*
X2514600Y3479800D01*
X2400300Y3365500D01*
X2222500Y3365500D01*
X2120900Y3263900D01*
X2120900Y2832100D01*
X1892300Y2603500D01*
X3035300Y3479800D02*
G01*
X3060700Y3479800D01*
X3149600Y3390900D01*
X3149600Y1816100D01*
X3251200Y1714500D01*
X3467100Y1714500D01*
X3581400Y1600200D01*
X3581400Y990600D01*
X3416300Y825500D01*
X2527300Y3225800D02*
G01*
X2527300Y3327400D01*
X2667000Y3467100D01*
X2667000Y3632200D01*
X2755900Y3721100D01*
X3111500Y3721100D01*
X3213100Y3619500D01*
X3213100Y2298700D01*
X3416300Y2095500D01*
X2781300Y3225800D02*
G01*
X2781300Y1207388D01*
X2768600Y1194688D01*
X2781300Y3479800D02*
G01*
X2755900Y3479800D01*
X2667000Y3390900D01*
X2667000Y1347088D01*
X2514600Y1194688D01*
X4305300Y2400300D02*
G01*
X4292600Y2400300D01*
X2413000Y4489450D02*
G01*
X2813050Y4889500D01*
X3492500Y4889500D01*
X3797300Y4584700D01*
X3797300Y3276600D01*
X3632200Y3111500D01*
X3416300Y3111500D01*
X2159000Y4489450D02*
G01*
X2647950Y4978400D01*
X3556000Y4978400D01*
X3924300Y4610100D01*
X3924300Y3111500D01*
X3670300Y2857500D01*
X3416300Y2857500D01*
X2768600Y1194688D02*
G01*
X2959988Y1003300D01*
X3086100Y1003300D01*
X3162300Y1079500D01*
X3162300Y1219200D01*
X3276600Y1333500D01*
X3416300Y1333500D01*
X3022600Y1194688D02*
G01*
X3022600Y1358900D01*
X3251200Y1587500D01*
X3416300Y1587500D01*
X1092200Y609600D02*
G01*
X1676400Y609600D01*
X1892300Y825500D01*
X1231900Y4686300D02*
G01*
X1231900Y5099812D01*
X1618487Y5486400D01*
X3924300Y5689600D02*
G01*
X3937000Y5702300D01*
X3937000Y6451600D01*
X2324100Y6470599D02*
G01*
X2343099Y6451600D01*
X2921000Y6451600D01*
X2260600Y1194688D02*
G01*
X2629788Y825500D01*
X3416300Y825500D01*
X2514600Y1194688D02*
G01*
X2782188Y927100D01*
X3327400Y927100D01*
X3416300Y1016000D01*
X3416300Y1079500D01*
X1092200Y863600D02*
G01*
X1676400Y863600D01*
X1892300Y1079500D01*
X1905000Y4489450D02*
G01*
X1905000Y4559300D01*
X2463800Y5118100D01*
X3632200Y5118100D01*
X4102100Y4648200D01*
X4102100Y3098800D01*
X3606800Y2603500D01*
X3416300Y2603500D01*
X2667000Y4489450D02*
G01*
X2978150Y4800600D01*
X3441700Y4800600D01*
X3721100Y4521200D01*
X3721100Y3479800D01*
X3606800Y3365500D01*
X3416300Y3365500D01*
X1892300Y-190500D02*
G01*
X1409700Y-190500D01*
X749300Y469900D01*
X2324100Y5670600D02*
G01*
X2343099Y5689600D01*
X2908300Y5689600D01*
X1092200Y1117600D02*
G01*
X952500Y977900D01*
X952500Y393700D01*
X1409700Y-63500D01*
X3873500Y-63500D01*
X4508500Y571500D01*
X4508500Y2184400D01*
X4292600Y2400300D01*
X2921000Y4489450D02*
G01*
X2254250Y3822700D01*
X1778000Y3822700D01*
X1689100Y3733800D01*
X1689100Y3454400D01*
X1778000Y3365500D01*
X1892300Y3365500D01*
X3175000Y4495800D02*
G01*
X2374900Y3695700D01*
X2184400Y3695700D01*
X2057400Y3568700D01*
X2057400Y3225800D01*
X1943100Y3111500D01*
X1892300Y3111500D01*
D11*
G01*
X2273300Y3225800D03*
G01*
X2527300Y3225800D03*
G01*
X2781300Y3225800D03*
G01*
X3035300Y3225800D03*
G01*
X3035300Y3479800D03*
G01*
X2781300Y3479800D03*
G01*
X2527300Y3479800D03*
G01*
X2273300Y3479800D03*
D12*
G01*
X1905000Y4495800D03*
G01*
X2159000Y4495800D03*
G01*
X2667000Y4495800D03*
G01*
X2921000Y4495800D03*
G01*
X2413000Y4495800D03*
G01*
X3175000Y4495800D03*
G01*
X3429000Y4495800D03*
D13*
G01*
X3416300Y-190500D03*
G01*
X3416300Y63500D03*
G01*
X3416300Y317500D03*
G01*
X3416300Y571500D03*
G01*
X3416300Y825500D03*
G01*
X3416300Y1079500D03*
G01*
X3416300Y1333500D03*
G01*
X3416300Y1587500D03*
G01*
X3416300Y1841500D03*
G01*
X3416300Y2095500D03*
G01*
X3416300Y2349500D03*
G01*
X3416300Y2603500D03*
G01*
X3416300Y2857500D03*
G01*
X3416300Y3111500D03*
G01*
X3416300Y3365500D03*
G01*
X1892300Y3365500D03*
G01*
X1892300Y3111500D03*
G01*
X1892300Y2857500D03*
G01*
X1892300Y2603500D03*
G01*
X1892300Y2349500D03*
G01*
X1892300Y2095500D03*
G01*
X1892300Y1841500D03*
G01*
X1892300Y1587500D03*
G01*
X1892300Y1333500D03*
G01*
X1892300Y1079500D03*
G01*
X1892300Y825500D03*
G01*
X1892300Y571500D03*
G01*
X1892300Y317500D03*
G01*
X1892300Y63500D03*
G01*
X1892300Y-190500D03*
D14*
G01*
X1892300Y-444500D03*
G01*
X3416300Y-444500D03*
G01*
X3416300Y3619500D03*
G01*
X1892300Y3619500D03*
D13*
G01*
X1168400Y2057400D03*
G01*
X1168400Y2311400D03*
G01*
X1168400Y2565400D03*
G01*
X1168400Y2819400D03*
G01*
X1168400Y3073400D03*
G01*
X1168400Y3327400D03*
D15*
G01*
X4292600Y2120900D03*
G01*
X4292600Y2400300D03*
G01*
X4292600Y2705100D03*
D16*
G01*
X4102100Y1562100D03*
D17*
G01*
X4356100Y1562100D03*
D18*
G01*
X1092200Y609600D03*
G01*
X1092200Y863600D03*
G01*
X1092200Y1117600D03*
G01*
X1092200Y1371600D03*
D19*
G01*
X2006600Y1194688D03*
G01*
X2260600Y1194688D03*
G01*
X2514600Y1194688D03*
G01*
X2768600Y1194688D03*
G01*
X3022600Y1194688D03*
G01*
X3276600Y1194688D03*
G01*
X2324100Y5670600D03*
G01*
X2324100Y6470599D03*
G01*
X1618487Y6680200D03*
G01*
X1618487Y5486400D03*
G01*
X698500Y6223000D03*
G01*
X698500Y5892800D03*
D20*
G01*
X2921000Y6451600D03*
G01*
X3937000Y6451600D03*
G01*
X3924300Y5689600D03*
G01*
X2908300Y5689600D03*
D11*
G01*
X1231900Y3924300D03*
G01*
X1231900Y4686300D03*
M02*
