G04 Layer: BottomLayer*
G04 EasyEDA v6.5.40, 2024-04-09 13:00:43*
G04 45367eb91e814c0fbe99eb78d241ce03,df7e7e3c38a3447abd37b529b333d242,10*
G04 Gerber Generator version 0.2*
G04 Scale: 100 percent, Rotated: No, Reflected: No *
G04 Dimensions in millimeters *
G04 leading zeros omitted , absolute positions ,4 integer and 5 decimal *
%FSLAX45Y45*%
%MOMM*%

%ADD10C,0.2540*%
%ADD11C,1.5240*%
%ADD12O,1.5400019999999999X1.9999959999999999*%
%ADD13C,1.5000*%
%ADD14R,2.5400X2.5400*%
%ADD15C,1.2116*%
%ADD16R,1.6510X1.6510*%
%ADD17C,1.6510*%
%ADD18C,1.7500*%
%ADD19C,1.2600*%
%ADD20R,3.0000X3.0000*%
%ADD21R,0.0182X3.0000*%

%LPD*%
G36*
X581660Y-660400D02*
G01*
X577748Y-659638D01*
X574497Y-657402D01*
X572262Y-654151D01*
X571500Y-650240D01*
X571500Y6797040D01*
X572262Y6800951D01*
X574497Y6804202D01*
X577748Y6806438D01*
X581660Y6807200D01*
X1481683Y6807200D01*
X1485595Y6806438D01*
X1488897Y6804202D01*
X1497888Y6795211D01*
X1499616Y6794500D01*
X4650740Y6794500D01*
X4654651Y6793738D01*
X4657902Y6791502D01*
X4660138Y6788251D01*
X4660900Y6784340D01*
X4660900Y-650240D01*
X4660138Y-654151D01*
X4657902Y-657402D01*
X4654651Y-659638D01*
X4650740Y-660400D01*
G37*

%LPC*%
G36*
X1765858Y-597408D02*
G01*
X2018741Y-597408D01*
X2025040Y-596696D01*
X2030526Y-594766D01*
X2035403Y-591718D01*
X2039518Y-587603D01*
X2042566Y-582726D01*
X2044496Y-577240D01*
X2045207Y-570941D01*
X2045207Y-318058D01*
X2044496Y-311759D01*
X2042566Y-306273D01*
X2039518Y-301396D01*
X2035403Y-297281D01*
X2030526Y-294233D01*
X2025040Y-292303D01*
X2018741Y-291592D01*
X1955698Y-291592D01*
X1951583Y-290728D01*
X1948180Y-288239D01*
X1946046Y-284581D01*
X1945589Y-280416D01*
X1946859Y-276402D01*
X1949704Y-273253D01*
X1957425Y-267563D01*
X1967128Y-258165D01*
X1975459Y-247599D01*
X1982317Y-236016D01*
X1987600Y-223570D01*
X1991156Y-210616D01*
X1992934Y-197256D01*
X1992934Y-183743D01*
X1991156Y-170383D01*
X1987600Y-157429D01*
X1982317Y-144983D01*
X1975459Y-133400D01*
X1967128Y-122834D01*
X1957425Y-113436D01*
X1946605Y-105460D01*
X1934768Y-99009D01*
X1922170Y-94132D01*
X1909064Y-91033D01*
X1895652Y-89662D01*
X1882190Y-90119D01*
X1868932Y-92354D01*
X1856028Y-96367D01*
X1843836Y-102006D01*
X1832457Y-109270D01*
X1822145Y-117957D01*
X1813102Y-127965D01*
X1805482Y-139090D01*
X1799437Y-151130D01*
X1795018Y-163830D01*
X1792325Y-177038D01*
X1791411Y-190500D01*
X1792325Y-203962D01*
X1795018Y-217170D01*
X1799437Y-229870D01*
X1805482Y-241909D01*
X1813102Y-253034D01*
X1822145Y-263042D01*
X1832457Y-271729D01*
X1834235Y-272846D01*
X1837334Y-275894D01*
X1838858Y-279958D01*
X1838553Y-284276D01*
X1836470Y-288086D01*
X1833016Y-290677D01*
X1828800Y-291592D01*
X1765858Y-291592D01*
X1759559Y-292303D01*
X1754073Y-294233D01*
X1749196Y-297281D01*
X1745081Y-301396D01*
X1742033Y-306273D01*
X1740103Y-311759D01*
X1739392Y-318058D01*
X1739392Y-570941D01*
X1740103Y-577240D01*
X1742033Y-582726D01*
X1745081Y-587603D01*
X1749196Y-591718D01*
X1754073Y-594766D01*
X1759559Y-596696D01*
G37*
G36*
X3289858Y-597408D02*
G01*
X3542741Y-597408D01*
X3549040Y-596696D01*
X3554526Y-594766D01*
X3559403Y-591718D01*
X3563518Y-587603D01*
X3566566Y-582726D01*
X3568496Y-577240D01*
X3569208Y-570941D01*
X3569208Y-318058D01*
X3568496Y-311759D01*
X3566566Y-306273D01*
X3563518Y-301396D01*
X3559403Y-297281D01*
X3554526Y-294233D01*
X3549040Y-292303D01*
X3542741Y-291592D01*
X3479698Y-291592D01*
X3475583Y-290728D01*
X3472179Y-288239D01*
X3470046Y-284581D01*
X3469589Y-280416D01*
X3470859Y-276402D01*
X3473704Y-273253D01*
X3481425Y-267563D01*
X3491128Y-258165D01*
X3499459Y-247599D01*
X3506317Y-236016D01*
X3511600Y-223570D01*
X3515156Y-210616D01*
X3516934Y-197256D01*
X3516934Y-183743D01*
X3515156Y-170383D01*
X3511600Y-157429D01*
X3506317Y-144983D01*
X3499459Y-133400D01*
X3491128Y-122834D01*
X3481425Y-113436D01*
X3470605Y-105460D01*
X3458768Y-99009D01*
X3446170Y-94132D01*
X3433064Y-91033D01*
X3419652Y-89662D01*
X3406190Y-90119D01*
X3392932Y-92354D01*
X3380028Y-96367D01*
X3367836Y-102006D01*
X3356457Y-109270D01*
X3346145Y-117957D01*
X3337102Y-127965D01*
X3329482Y-139090D01*
X3323437Y-151130D01*
X3319018Y-163830D01*
X3316325Y-177038D01*
X3315411Y-190500D01*
X3316325Y-203962D01*
X3319018Y-217170D01*
X3323437Y-229870D01*
X3329482Y-241909D01*
X3337102Y-253034D01*
X3346145Y-263042D01*
X3356457Y-271729D01*
X3358235Y-272846D01*
X3361334Y-275894D01*
X3362858Y-279958D01*
X3362553Y-284276D01*
X3360470Y-288086D01*
X3357016Y-290677D01*
X3352800Y-291592D01*
X3289858Y-291592D01*
X3283559Y-292303D01*
X3278073Y-294233D01*
X3273196Y-297281D01*
X3269081Y-301396D01*
X3266033Y-306273D01*
X3264103Y-311759D01*
X3263392Y-318058D01*
X3263392Y-570941D01*
X3264103Y-577240D01*
X3266033Y-582726D01*
X3269081Y-587603D01*
X3273196Y-591718D01*
X3278073Y-594766D01*
X3283559Y-596696D01*
G37*
G36*
X3419652Y-37338D02*
G01*
X3433064Y-35966D01*
X3446170Y-32867D01*
X3458768Y-27990D01*
X3470605Y-21539D01*
X3481425Y-13563D01*
X3491128Y-4165D01*
X3499459Y6400D01*
X3506317Y17983D01*
X3511600Y30429D01*
X3515156Y43383D01*
X3516934Y56743D01*
X3516934Y70256D01*
X3515156Y83616D01*
X3511600Y96570D01*
X3506317Y109016D01*
X3499459Y120599D01*
X3491128Y131165D01*
X3481425Y140563D01*
X3470605Y148539D01*
X3458768Y154990D01*
X3446170Y159867D01*
X3433064Y162966D01*
X3419652Y164338D01*
X3406190Y163880D01*
X3392932Y161645D01*
X3380028Y157632D01*
X3367836Y151993D01*
X3356457Y144729D01*
X3346145Y136042D01*
X3337102Y126034D01*
X3329482Y114909D01*
X3323437Y102870D01*
X3319018Y90170D01*
X3316325Y76962D01*
X3315411Y63500D01*
X3316325Y50038D01*
X3319018Y36830D01*
X3323437Y24130D01*
X3329482Y12090D01*
X3337102Y965D01*
X3346145Y-9042D01*
X3356457Y-17729D01*
X3367836Y-24993D01*
X3380028Y-30632D01*
X3392932Y-34645D01*
X3406190Y-36880D01*
G37*
G36*
X1936140Y-27228D02*
G01*
X1946605Y-21539D01*
X1957425Y-13563D01*
X1967128Y-4165D01*
X1975459Y6400D01*
X1982317Y17983D01*
X1983028Y19659D01*
X1936140Y19659D01*
G37*
G36*
X1848459Y-27127D02*
G01*
X1848459Y19659D01*
X1801672Y19659D01*
X1805482Y12090D01*
X1813102Y965D01*
X1822145Y-9042D01*
X1832457Y-17729D01*
X1843836Y-24993D01*
G37*
G36*
X1801672Y107340D02*
G01*
X1848459Y107340D01*
X1848459Y154127D01*
X1843836Y151993D01*
X1832457Y144729D01*
X1822145Y136042D01*
X1813102Y126034D01*
X1805482Y114909D01*
G37*
G36*
X1936140Y107340D02*
G01*
X1983028Y107340D01*
X1982317Y109016D01*
X1975459Y120599D01*
X1967128Y131165D01*
X1957425Y140563D01*
X1946605Y148539D01*
X1936140Y154228D01*
G37*
G36*
X1895652Y216662D02*
G01*
X1909064Y218033D01*
X1922170Y221132D01*
X1934768Y226009D01*
X1946605Y232460D01*
X1957425Y240436D01*
X1967128Y249834D01*
X1975459Y260400D01*
X1982317Y271983D01*
X1987600Y284429D01*
X1991156Y297383D01*
X1992934Y310743D01*
X1992934Y324256D01*
X1991156Y337616D01*
X1987600Y350570D01*
X1982317Y363016D01*
X1975459Y374599D01*
X1967128Y385165D01*
X1957425Y394563D01*
X1946605Y402539D01*
X1934768Y408990D01*
X1922170Y413867D01*
X1909064Y416966D01*
X1895652Y418338D01*
X1882190Y417880D01*
X1868932Y415645D01*
X1856028Y411632D01*
X1843836Y405993D01*
X1832457Y398729D01*
X1822145Y390042D01*
X1813102Y380034D01*
X1805482Y368909D01*
X1799437Y356870D01*
X1795018Y344170D01*
X1792325Y330962D01*
X1791411Y317500D01*
X1792325Y304038D01*
X1795018Y290830D01*
X1799437Y278130D01*
X1805482Y266090D01*
X1813102Y254965D01*
X1822145Y244957D01*
X1832457Y236270D01*
X1843836Y229006D01*
X1856028Y223367D01*
X1868932Y219354D01*
X1882190Y217119D01*
G37*
G36*
X3419652Y216662D02*
G01*
X3433064Y218033D01*
X3446170Y221132D01*
X3458768Y226009D01*
X3470605Y232460D01*
X3481425Y240436D01*
X3491128Y249834D01*
X3499459Y260400D01*
X3506317Y271983D01*
X3511600Y284429D01*
X3515156Y297383D01*
X3516934Y310743D01*
X3516934Y324256D01*
X3515156Y337616D01*
X3511600Y350570D01*
X3506317Y363016D01*
X3499459Y374599D01*
X3491128Y385165D01*
X3481425Y394563D01*
X3470605Y402539D01*
X3458768Y408990D01*
X3446170Y413867D01*
X3433064Y416966D01*
X3419652Y418338D01*
X3406190Y417880D01*
X3392932Y415645D01*
X3380028Y411632D01*
X3367836Y405993D01*
X3356457Y398729D01*
X3346145Y390042D01*
X3337102Y380034D01*
X3329482Y368909D01*
X3323437Y356870D01*
X3319018Y344170D01*
X3316325Y330962D01*
X3315411Y317500D01*
X3316325Y304038D01*
X3319018Y290830D01*
X3323437Y278130D01*
X3329482Y266090D01*
X3337102Y254965D01*
X3346145Y244957D01*
X3356457Y236270D01*
X3367836Y229006D01*
X3380028Y223367D01*
X3392932Y219354D01*
X3406190Y217119D01*
G37*
G36*
X1895652Y470662D02*
G01*
X1909064Y472033D01*
X1922170Y475132D01*
X1934768Y480009D01*
X1946605Y486460D01*
X1957425Y494436D01*
X1967128Y503834D01*
X1975459Y514400D01*
X1982317Y525983D01*
X1987600Y538429D01*
X1991156Y551383D01*
X1992934Y564743D01*
X1992934Y578256D01*
X1991156Y591616D01*
X1987600Y604570D01*
X1982317Y617016D01*
X1975459Y628599D01*
X1967128Y639165D01*
X1957425Y648563D01*
X1946605Y656539D01*
X1934768Y662990D01*
X1922170Y667867D01*
X1909064Y670966D01*
X1895652Y672338D01*
X1882190Y671880D01*
X1868932Y669645D01*
X1856028Y665632D01*
X1843836Y659993D01*
X1832457Y652729D01*
X1822145Y644042D01*
X1813102Y634034D01*
X1805482Y622909D01*
X1799437Y610870D01*
X1795018Y598170D01*
X1792325Y584962D01*
X1791411Y571500D01*
X1792325Y558038D01*
X1795018Y544830D01*
X1799437Y532130D01*
X1805482Y520090D01*
X1813102Y508965D01*
X1822145Y498957D01*
X1832457Y490270D01*
X1843836Y483006D01*
X1856028Y477367D01*
X1868932Y473354D01*
X1882190Y471119D01*
G37*
G36*
X3419652Y470662D02*
G01*
X3433064Y472033D01*
X3446170Y475132D01*
X3458768Y480009D01*
X3470605Y486460D01*
X3481425Y494436D01*
X3491128Y503834D01*
X3499459Y514400D01*
X3506317Y525983D01*
X3511600Y538429D01*
X3515156Y551383D01*
X3516934Y564743D01*
X3516934Y578256D01*
X3515156Y591616D01*
X3511600Y604570D01*
X3506317Y617016D01*
X3499459Y628599D01*
X3491128Y639165D01*
X3481425Y648563D01*
X3470605Y656539D01*
X3458768Y662990D01*
X3446170Y667867D01*
X3433064Y670966D01*
X3419652Y672338D01*
X3406190Y671880D01*
X3392932Y669645D01*
X3380028Y665632D01*
X3367836Y659993D01*
X3356457Y652729D01*
X3346145Y644042D01*
X3337102Y634034D01*
X3329482Y622909D01*
X3323437Y610870D01*
X3319018Y598170D01*
X3316325Y584962D01*
X3315411Y571500D01*
X3316325Y558038D01*
X3319018Y544830D01*
X3323437Y532130D01*
X3329482Y520090D01*
X3337102Y508965D01*
X3346145Y498957D01*
X3356457Y490270D01*
X3367836Y483006D01*
X3380028Y477367D01*
X3392932Y473354D01*
X3406190Y471119D01*
G37*
G36*
X1084935Y496468D02*
G01*
X1099464Y496468D01*
X1113891Y498297D01*
X1127912Y502005D01*
X1141374Y507441D01*
X1154074Y514553D01*
X1165707Y523240D01*
X1176121Y533349D01*
X1185214Y544728D01*
X1192733Y557174D01*
X1198626Y570433D01*
X1202740Y584352D01*
X1205077Y598728D01*
X1205534Y613257D01*
X1204112Y627684D01*
X1200912Y641858D01*
X1195882Y655472D01*
X1189177Y668375D01*
X1180846Y680313D01*
X1171092Y691032D01*
X1160018Y700481D01*
X1147826Y708406D01*
X1134770Y714705D01*
X1120952Y719277D01*
X1106678Y722071D01*
X1092200Y722985D01*
X1077722Y722071D01*
X1063447Y719277D01*
X1049629Y714705D01*
X1036574Y708406D01*
X1024382Y700481D01*
X1013307Y691032D01*
X1003553Y680313D01*
X995222Y668375D01*
X988517Y655472D01*
X983487Y641858D01*
X980287Y627684D01*
X978865Y613257D01*
X979322Y598728D01*
X981659Y584352D01*
X985774Y570433D01*
X991666Y557174D01*
X999185Y544728D01*
X1008278Y533349D01*
X1018692Y523240D01*
X1030325Y514553D01*
X1043025Y507441D01*
X1056487Y502005D01*
X1070508Y498297D01*
G37*
G36*
X1895652Y724662D02*
G01*
X1909064Y726033D01*
X1922170Y729132D01*
X1934768Y734009D01*
X1946605Y740460D01*
X1957425Y748436D01*
X1967128Y757834D01*
X1975459Y768400D01*
X1982317Y779983D01*
X1987600Y792429D01*
X1991156Y805383D01*
X1992934Y818743D01*
X1992934Y832256D01*
X1991156Y845616D01*
X1987600Y858570D01*
X1982317Y871016D01*
X1975459Y882599D01*
X1967128Y893165D01*
X1957425Y902563D01*
X1946605Y910539D01*
X1934768Y916990D01*
X1922170Y921867D01*
X1909064Y924966D01*
X1895652Y926337D01*
X1882190Y925880D01*
X1868932Y923645D01*
X1856028Y919632D01*
X1843836Y913993D01*
X1832457Y906729D01*
X1822145Y898042D01*
X1813102Y888034D01*
X1805482Y876909D01*
X1799437Y864869D01*
X1795018Y852169D01*
X1792325Y838962D01*
X1791411Y825500D01*
X1792325Y812038D01*
X1795018Y798830D01*
X1799437Y786130D01*
X1805482Y774090D01*
X1813102Y762965D01*
X1822145Y752957D01*
X1832457Y744270D01*
X1843836Y737006D01*
X1856028Y731367D01*
X1868932Y727354D01*
X1882190Y725119D01*
G37*
G36*
X3419652Y724662D02*
G01*
X3433064Y726033D01*
X3446170Y729132D01*
X3458768Y734009D01*
X3470605Y740460D01*
X3481425Y748436D01*
X3491128Y757834D01*
X3499459Y768400D01*
X3506317Y779983D01*
X3511600Y792429D01*
X3515156Y805383D01*
X3516934Y818743D01*
X3516934Y832256D01*
X3515156Y845616D01*
X3511600Y858570D01*
X3506317Y871016D01*
X3499459Y882599D01*
X3491128Y893165D01*
X3481425Y902563D01*
X3470605Y910539D01*
X3458768Y916990D01*
X3446170Y921867D01*
X3433064Y924966D01*
X3419652Y926337D01*
X3406190Y925880D01*
X3392932Y923645D01*
X3380028Y919632D01*
X3367836Y913993D01*
X3356457Y906729D01*
X3346145Y898042D01*
X3337102Y888034D01*
X3329482Y876909D01*
X3323437Y864869D01*
X3319018Y852169D01*
X3316325Y838962D01*
X3315411Y825500D01*
X3316325Y812038D01*
X3319018Y798830D01*
X3323437Y786130D01*
X3329482Y774090D01*
X3337102Y762965D01*
X3346145Y752957D01*
X3356457Y744270D01*
X3367836Y737006D01*
X3380028Y731367D01*
X3392932Y727354D01*
X3406190Y725119D01*
G37*
G36*
X1084935Y750468D02*
G01*
X1099464Y750468D01*
X1113891Y752297D01*
X1127912Y756005D01*
X1141374Y761441D01*
X1154074Y768553D01*
X1165707Y777240D01*
X1176121Y787349D01*
X1185214Y798728D01*
X1192733Y811174D01*
X1198626Y824433D01*
X1202740Y838352D01*
X1205077Y852728D01*
X1205534Y867257D01*
X1204112Y881684D01*
X1200912Y895858D01*
X1195882Y909472D01*
X1189177Y922375D01*
X1180846Y934313D01*
X1171092Y945032D01*
X1160018Y954481D01*
X1147826Y962406D01*
X1134770Y968705D01*
X1120952Y973277D01*
X1106678Y976071D01*
X1092200Y976985D01*
X1077722Y976071D01*
X1063447Y973277D01*
X1049629Y968705D01*
X1036574Y962406D01*
X1024382Y954481D01*
X1013307Y945032D01*
X1003553Y934313D01*
X995222Y922375D01*
X988517Y909472D01*
X983487Y895858D01*
X980287Y881684D01*
X978865Y867257D01*
X979322Y852728D01*
X981659Y838352D01*
X985774Y824433D01*
X991666Y811174D01*
X999185Y798728D01*
X1008278Y787349D01*
X1018692Y777240D01*
X1030325Y768553D01*
X1043025Y761441D01*
X1056487Y756005D01*
X1070508Y752297D01*
G37*
G36*
X1895652Y978662D02*
G01*
X1909064Y980033D01*
X1922170Y983132D01*
X1934768Y988009D01*
X1946605Y994460D01*
X1957425Y1002436D01*
X1967128Y1011834D01*
X1975459Y1022400D01*
X1982317Y1033983D01*
X1987600Y1046429D01*
X1991156Y1059383D01*
X1992934Y1072743D01*
X1992934Y1086256D01*
X1991156Y1099616D01*
X1987600Y1112570D01*
X1982317Y1125016D01*
X1975459Y1136599D01*
X1970938Y1142339D01*
X1969312Y1145286D01*
X1968754Y1148638D01*
X1968754Y1156868D01*
X1960372Y1156868D01*
X1957171Y1157376D01*
X1954326Y1158849D01*
X1946605Y1164539D01*
X1934768Y1170990D01*
X1922170Y1175867D01*
X1909064Y1178966D01*
X1895652Y1180338D01*
X1882190Y1179880D01*
X1868932Y1177645D01*
X1856028Y1173632D01*
X1843836Y1167993D01*
X1832457Y1160729D01*
X1822145Y1152042D01*
X1813102Y1142034D01*
X1805482Y1130909D01*
X1799437Y1118870D01*
X1795018Y1106170D01*
X1792325Y1092962D01*
X1791411Y1079500D01*
X1792325Y1066038D01*
X1795018Y1052830D01*
X1799437Y1040130D01*
X1805482Y1028090D01*
X1813102Y1016965D01*
X1822145Y1006957D01*
X1832457Y998270D01*
X1843836Y991006D01*
X1856028Y985367D01*
X1868932Y981354D01*
X1882190Y979119D01*
G37*
G36*
X3419652Y978662D02*
G01*
X3433064Y980033D01*
X3446170Y983132D01*
X3458768Y988009D01*
X3470605Y994460D01*
X3481425Y1002436D01*
X3491128Y1011834D01*
X3499459Y1022400D01*
X3506317Y1033983D01*
X3511600Y1046429D01*
X3515156Y1059383D01*
X3516934Y1072743D01*
X3516934Y1086256D01*
X3515156Y1099616D01*
X3511600Y1112570D01*
X3506317Y1125016D01*
X3499459Y1136599D01*
X3497072Y1139647D01*
X3495141Y1143711D01*
X3495141Y1148232D01*
X3497122Y1152245D01*
X3500678Y1155090D01*
X3505047Y1156055D01*
X3645306Y1156055D01*
X3653332Y1156868D01*
X3660546Y1159052D01*
X3667201Y1162608D01*
X3673449Y1167739D01*
X3913124Y1407464D01*
X3918254Y1413662D01*
X3921810Y1420368D01*
X3923995Y1427581D01*
X3924808Y1435608D01*
X3924808Y1973681D01*
X3925570Y1977593D01*
X3927805Y1980895D01*
X4261053Y2314143D01*
X4263796Y2316073D01*
X4266996Y2317038D01*
X4270400Y2316886D01*
X4280306Y2314702D01*
X4292600Y2313838D01*
X4304893Y2314702D01*
X4316984Y2317343D01*
X4328515Y2321661D01*
X4339336Y2327554D01*
X4349242Y2334971D01*
X4357928Y2343658D01*
X4365345Y2353564D01*
X4371238Y2364384D01*
X4375556Y2375916D01*
X4378198Y2388006D01*
X4379061Y2400300D01*
X4378198Y2412593D01*
X4375556Y2424684D01*
X4371238Y2436215D01*
X4365345Y2447036D01*
X4357928Y2456942D01*
X4349242Y2465628D01*
X4339336Y2473045D01*
X4328515Y2478938D01*
X4316984Y2483256D01*
X4304893Y2485898D01*
X4292600Y2486761D01*
X4280306Y2485898D01*
X4268216Y2483256D01*
X4256684Y2478938D01*
X4245864Y2473045D01*
X4235958Y2465628D01*
X4227271Y2456942D01*
X4219854Y2447036D01*
X4213961Y2436215D01*
X4209643Y2424684D01*
X4207002Y2412593D01*
X4206138Y2400300D01*
X4207002Y2388006D01*
X4209186Y2378100D01*
X4209338Y2374696D01*
X4208373Y2371496D01*
X4206443Y2368753D01*
X3859276Y2021535D01*
X3854145Y2015337D01*
X3850589Y2008632D01*
X3848404Y2001418D01*
X3847592Y1993392D01*
X3847592Y1455318D01*
X3846829Y1451406D01*
X3844594Y1448104D01*
X3632758Y1236268D01*
X3629456Y1234084D01*
X3625596Y1233271D01*
X3480917Y1233271D01*
X3476802Y1234186D01*
X3473399Y1236624D01*
X3471265Y1240282D01*
X3470808Y1244498D01*
X3472078Y1248511D01*
X3474872Y1251661D01*
X3481425Y1256436D01*
X3491128Y1265834D01*
X3499459Y1276400D01*
X3506317Y1287983D01*
X3511600Y1300429D01*
X3515156Y1313383D01*
X3516934Y1326743D01*
X3516934Y1340256D01*
X3515156Y1353616D01*
X3511600Y1366570D01*
X3506317Y1379016D01*
X3499459Y1390599D01*
X3491128Y1401165D01*
X3481425Y1410563D01*
X3470605Y1418539D01*
X3458768Y1424990D01*
X3446170Y1429867D01*
X3433064Y1432966D01*
X3419652Y1434338D01*
X3406190Y1433880D01*
X3392932Y1431645D01*
X3380028Y1427632D01*
X3367836Y1421993D01*
X3356457Y1414729D01*
X3346145Y1406042D01*
X3337102Y1396034D01*
X3329482Y1384909D01*
X3323437Y1372870D01*
X3319018Y1360170D01*
X3316325Y1346962D01*
X3315411Y1333500D01*
X3316325Y1320038D01*
X3319018Y1306830D01*
X3323437Y1294130D01*
X3325571Y1289862D01*
X3326637Y1286002D01*
X3326129Y1281988D01*
X3324047Y1278483D01*
X3320846Y1276096D01*
X3316935Y1275130D01*
X3312972Y1275740D01*
X3301644Y1279956D01*
X3289249Y1282700D01*
X3276600Y1283563D01*
X3263950Y1282700D01*
X3251555Y1279956D01*
X3239668Y1275537D01*
X3228543Y1269492D01*
X3218383Y1261872D01*
X3209442Y1252880D01*
X3201822Y1242771D01*
X3195726Y1231646D01*
X3191306Y1219758D01*
X3188614Y1207363D01*
X3187700Y1194714D01*
X3188614Y1182065D01*
X3191306Y1169670D01*
X3195726Y1157782D01*
X3201822Y1146657D01*
X3209442Y1136497D01*
X3218383Y1127506D01*
X3228543Y1119936D01*
X3239668Y1113840D01*
X3251555Y1109421D01*
X3263950Y1106728D01*
X3276600Y1105814D01*
X3289249Y1106728D01*
X3301644Y1109421D01*
X3303981Y1110284D01*
X3308248Y1110894D01*
X3312363Y1109726D01*
X3315614Y1106932D01*
X3317443Y1103020D01*
X3317494Y1098753D01*
X3316325Y1092962D01*
X3315411Y1079500D01*
X3316325Y1066038D01*
X3319018Y1052830D01*
X3323437Y1040130D01*
X3329482Y1028090D01*
X3337102Y1016965D01*
X3346145Y1006957D01*
X3356457Y998270D01*
X3367836Y991006D01*
X3380028Y985367D01*
X3392932Y981354D01*
X3406190Y979119D01*
G37*
G36*
X1084935Y1004468D02*
G01*
X1099464Y1004468D01*
X1113891Y1006297D01*
X1127912Y1010005D01*
X1141374Y1015441D01*
X1154074Y1022553D01*
X1165707Y1031240D01*
X1176121Y1041349D01*
X1185214Y1052728D01*
X1192733Y1065174D01*
X1198626Y1078433D01*
X1202740Y1092352D01*
X1205077Y1106728D01*
X1205534Y1121257D01*
X1204112Y1135684D01*
X1200912Y1149858D01*
X1195882Y1163472D01*
X1189177Y1176375D01*
X1180846Y1188313D01*
X1171092Y1199032D01*
X1160018Y1208481D01*
X1147826Y1216406D01*
X1134770Y1222705D01*
X1120952Y1227277D01*
X1106678Y1230071D01*
X1092200Y1230985D01*
X1077722Y1230071D01*
X1063447Y1227277D01*
X1049629Y1222705D01*
X1036574Y1216406D01*
X1024382Y1208481D01*
X1013307Y1199032D01*
X1003553Y1188313D01*
X995222Y1176375D01*
X988517Y1163472D01*
X983487Y1149858D01*
X980287Y1135684D01*
X978865Y1121257D01*
X979322Y1106728D01*
X981659Y1092352D01*
X985774Y1078433D01*
X991666Y1065174D01*
X999185Y1052728D01*
X1008278Y1041349D01*
X1018692Y1031240D01*
X1030325Y1022553D01*
X1043025Y1015441D01*
X1056487Y1010005D01*
X1070508Y1006297D01*
G37*
G36*
X2514600Y1105814D02*
G01*
X2527249Y1106728D01*
X2539644Y1109421D01*
X2551531Y1113840D01*
X2562656Y1119936D01*
X2572816Y1127506D01*
X2581757Y1136497D01*
X2589377Y1146657D01*
X2595473Y1157782D01*
X2599893Y1169670D01*
X2602585Y1182065D01*
X2603500Y1194714D01*
X2602585Y1207363D01*
X2599893Y1219758D01*
X2595473Y1231646D01*
X2589377Y1242771D01*
X2581757Y1252880D01*
X2572816Y1261872D01*
X2562656Y1269492D01*
X2551531Y1275537D01*
X2539644Y1279956D01*
X2527249Y1282700D01*
X2514600Y1283563D01*
X2501950Y1282700D01*
X2489555Y1279956D01*
X2477668Y1275537D01*
X2466543Y1269492D01*
X2456383Y1261872D01*
X2447442Y1252880D01*
X2439822Y1242771D01*
X2433726Y1231646D01*
X2429306Y1219758D01*
X2426614Y1207363D01*
X2425700Y1194714D01*
X2426614Y1182065D01*
X2429306Y1169670D01*
X2433726Y1157782D01*
X2439822Y1146657D01*
X2447442Y1136497D01*
X2456383Y1127506D01*
X2466543Y1119936D01*
X2477668Y1113840D01*
X2489555Y1109421D01*
X2501950Y1106728D01*
G37*
G36*
X2768600Y1105814D02*
G01*
X2781249Y1106728D01*
X2793644Y1109421D01*
X2805531Y1113840D01*
X2816656Y1119936D01*
X2826816Y1127506D01*
X2835757Y1136497D01*
X2843377Y1146657D01*
X2849422Y1157782D01*
X2853893Y1169670D01*
X2856585Y1182065D01*
X2857500Y1194714D01*
X2856585Y1207363D01*
X2853893Y1219758D01*
X2849422Y1231646D01*
X2843377Y1242771D01*
X2835757Y1252880D01*
X2826816Y1261872D01*
X2816656Y1269492D01*
X2805531Y1275537D01*
X2793644Y1279956D01*
X2781249Y1282700D01*
X2768600Y1283563D01*
X2755950Y1282700D01*
X2743555Y1279956D01*
X2731668Y1275537D01*
X2720543Y1269492D01*
X2710383Y1261872D01*
X2701442Y1252880D01*
X2693822Y1242771D01*
X2687726Y1231646D01*
X2683306Y1219758D01*
X2680614Y1207363D01*
X2679700Y1194714D01*
X2680614Y1182065D01*
X2683306Y1169670D01*
X2687726Y1157782D01*
X2693822Y1146657D01*
X2701442Y1136497D01*
X2710383Y1127506D01*
X2720543Y1119936D01*
X2731668Y1113840D01*
X2743555Y1109421D01*
X2755950Y1106728D01*
G37*
G36*
X3022600Y1105814D02*
G01*
X3035249Y1106728D01*
X3047644Y1109421D01*
X3059531Y1113840D01*
X3070656Y1119936D01*
X3080816Y1127506D01*
X3089757Y1136497D01*
X3097377Y1146657D01*
X3103422Y1157782D01*
X3107893Y1169670D01*
X3110585Y1182065D01*
X3111500Y1194714D01*
X3110585Y1207363D01*
X3107893Y1219758D01*
X3103422Y1231646D01*
X3097377Y1242771D01*
X3089757Y1252880D01*
X3080816Y1261872D01*
X3070656Y1269492D01*
X3059531Y1275537D01*
X3047644Y1279956D01*
X3035249Y1282700D01*
X3022600Y1283563D01*
X3009950Y1282700D01*
X2997555Y1279956D01*
X2985668Y1275537D01*
X2974543Y1269492D01*
X2964383Y1261872D01*
X2955442Y1252880D01*
X2947822Y1242771D01*
X2941726Y1231646D01*
X2937306Y1219758D01*
X2934614Y1207363D01*
X2933700Y1194714D01*
X2934614Y1182065D01*
X2937306Y1169670D01*
X2941726Y1157782D01*
X2947822Y1146657D01*
X2955442Y1136497D01*
X2964383Y1127506D01*
X2974543Y1119936D01*
X2985668Y1113840D01*
X2997555Y1109421D01*
X3009950Y1106728D01*
G37*
G36*
X2260600Y1105814D02*
G01*
X2273249Y1106728D01*
X2285644Y1109421D01*
X2297531Y1113840D01*
X2308656Y1119936D01*
X2318816Y1127506D01*
X2327757Y1136497D01*
X2335377Y1146657D01*
X2341473Y1157782D01*
X2345893Y1169670D01*
X2348585Y1182065D01*
X2349500Y1194714D01*
X2348585Y1207363D01*
X2345893Y1219758D01*
X2341473Y1231646D01*
X2335377Y1242771D01*
X2327757Y1252880D01*
X2318816Y1261872D01*
X2308656Y1269492D01*
X2297531Y1275537D01*
X2285644Y1279956D01*
X2273249Y1282700D01*
X2260600Y1283563D01*
X2247950Y1282700D01*
X2235555Y1279956D01*
X2223668Y1275537D01*
X2212543Y1269492D01*
X2202383Y1261872D01*
X2193442Y1252880D01*
X2185822Y1242771D01*
X2179726Y1231646D01*
X2175306Y1219758D01*
X2172614Y1207363D01*
X2171700Y1194714D01*
X2172614Y1182065D01*
X2175306Y1169670D01*
X2179726Y1157782D01*
X2185822Y1146657D01*
X2193442Y1136497D01*
X2202383Y1127506D01*
X2212543Y1119936D01*
X2223668Y1113840D01*
X2235555Y1109421D01*
X2247950Y1106728D01*
G37*
G36*
X2044446Y1114348D02*
G01*
X2054656Y1119936D01*
X2064816Y1127506D01*
X2073757Y1136497D01*
X2081377Y1146657D01*
X2086965Y1156868D01*
X2044446Y1156868D01*
G37*
G36*
X2044446Y1232560D02*
G01*
X2086965Y1232560D01*
X2081377Y1242771D01*
X2073757Y1252880D01*
X2064816Y1261872D01*
X2054656Y1269492D01*
X2044446Y1275029D01*
G37*
G36*
X1918106Y1232560D02*
G01*
X1968754Y1232560D01*
X1968754Y1264361D01*
X1969312Y1267714D01*
X1970938Y1270660D01*
X1975459Y1276400D01*
X1982317Y1287983D01*
X1987600Y1300429D01*
X1991156Y1313383D01*
X1992934Y1326743D01*
X1992934Y1340256D01*
X1991156Y1353616D01*
X1987600Y1366570D01*
X1982317Y1379016D01*
X1975459Y1390599D01*
X1967128Y1401165D01*
X1957425Y1410563D01*
X1946605Y1418539D01*
X1934768Y1424990D01*
X1922170Y1429867D01*
X1909064Y1432966D01*
X1895652Y1434338D01*
X1882190Y1433880D01*
X1868932Y1431645D01*
X1856028Y1427632D01*
X1843836Y1421993D01*
X1832457Y1414729D01*
X1822145Y1406042D01*
X1813102Y1396034D01*
X1805482Y1384909D01*
X1799437Y1372870D01*
X1795018Y1360170D01*
X1792325Y1346962D01*
X1791411Y1333500D01*
X1792325Y1320038D01*
X1795018Y1306830D01*
X1799437Y1294130D01*
X1805482Y1282090D01*
X1813102Y1270965D01*
X1822145Y1260957D01*
X1832457Y1252270D01*
X1843836Y1245006D01*
X1856028Y1239367D01*
X1868932Y1235354D01*
X1882190Y1233119D01*
X1895652Y1232662D01*
X1909064Y1234033D01*
X1914194Y1234287D01*
G37*
G36*
X1142288Y1269949D02*
G01*
X1154074Y1276553D01*
X1165707Y1285240D01*
X1176121Y1295349D01*
X1185214Y1306728D01*
X1192733Y1319174D01*
X1193749Y1321511D01*
X1142288Y1321511D01*
G37*
G36*
X1042111Y1269949D02*
G01*
X1042111Y1321511D01*
X990650Y1321511D01*
X991666Y1319174D01*
X999185Y1306728D01*
X1008278Y1295349D01*
X1018692Y1285240D01*
X1030325Y1276553D01*
G37*
G36*
X990701Y1421688D02*
G01*
X1042111Y1421688D01*
X1042111Y1473047D01*
X1036574Y1470406D01*
X1024382Y1462481D01*
X1013307Y1453032D01*
X1003553Y1442313D01*
X995222Y1430375D01*
G37*
G36*
X1142288Y1421688D02*
G01*
X1193698Y1421688D01*
X1189177Y1430375D01*
X1180846Y1442313D01*
X1171092Y1453032D01*
X1160018Y1462481D01*
X1147826Y1470406D01*
X1142288Y1473047D01*
G37*
G36*
X4020108Y1453642D02*
G01*
X4184091Y1453642D01*
X4190390Y1454353D01*
X4195876Y1456283D01*
X4200753Y1459331D01*
X4204868Y1463446D01*
X4207916Y1468323D01*
X4209846Y1473809D01*
X4210558Y1480108D01*
X4210558Y1644091D01*
X4209846Y1650390D01*
X4207916Y1655876D01*
X4204868Y1660753D01*
X4200753Y1664868D01*
X4195876Y1667916D01*
X4190390Y1669846D01*
X4184091Y1670557D01*
X4020108Y1670557D01*
X4013809Y1669846D01*
X4008323Y1667916D01*
X4003446Y1664868D01*
X3999331Y1660753D01*
X3996283Y1655876D01*
X3994353Y1650390D01*
X3993642Y1644091D01*
X3993642Y1480108D01*
X3994353Y1473809D01*
X3996283Y1468323D01*
X3999331Y1463446D01*
X4003446Y1459331D01*
X4008323Y1456283D01*
X4013809Y1454353D01*
G37*
G36*
X4308500Y1464919D02*
G01*
X4308500Y1514449D01*
X4258919Y1514449D01*
X4262170Y1507896D01*
X4270095Y1496110D01*
X4279442Y1485442D01*
X4290110Y1476095D01*
X4301896Y1468170D01*
G37*
G36*
X4403750Y1464919D02*
G01*
X4410303Y1468170D01*
X4422089Y1476095D01*
X4432757Y1485442D01*
X4442104Y1496110D01*
X4450029Y1507896D01*
X4453280Y1514449D01*
X4403750Y1514449D01*
G37*
G36*
X1895652Y1486662D02*
G01*
X1909064Y1488033D01*
X1922170Y1491132D01*
X1934768Y1496009D01*
X1946605Y1502460D01*
X1957425Y1510436D01*
X1967128Y1519834D01*
X1975459Y1530400D01*
X1982317Y1541983D01*
X1987600Y1554429D01*
X1991156Y1567383D01*
X1992934Y1580743D01*
X1992934Y1594256D01*
X1991156Y1607616D01*
X1987600Y1620570D01*
X1982317Y1633016D01*
X1975459Y1644599D01*
X1967128Y1655165D01*
X1957425Y1664563D01*
X1946605Y1672539D01*
X1934768Y1678990D01*
X1922170Y1683867D01*
X1909064Y1686966D01*
X1895652Y1688338D01*
X1882190Y1687880D01*
X1868932Y1685645D01*
X1856028Y1681632D01*
X1843836Y1675993D01*
X1832457Y1668729D01*
X1822145Y1660042D01*
X1813102Y1650034D01*
X1805482Y1638909D01*
X1799437Y1626870D01*
X1795018Y1614170D01*
X1792325Y1600962D01*
X1791411Y1587500D01*
X1792325Y1574038D01*
X1795018Y1560830D01*
X1799437Y1548130D01*
X1805482Y1536090D01*
X1813102Y1524965D01*
X1822145Y1514957D01*
X1832457Y1506270D01*
X1843836Y1499006D01*
X1856028Y1493367D01*
X1868932Y1489354D01*
X1882190Y1487119D01*
G37*
G36*
X3419652Y1486662D02*
G01*
X3433064Y1488033D01*
X3446170Y1491132D01*
X3458768Y1496009D01*
X3470605Y1502460D01*
X3481425Y1510436D01*
X3491128Y1519834D01*
X3499459Y1530400D01*
X3506317Y1541983D01*
X3511600Y1554429D01*
X3515156Y1567383D01*
X3516934Y1580743D01*
X3516934Y1594256D01*
X3515156Y1607616D01*
X3511600Y1620570D01*
X3506317Y1633016D01*
X3499459Y1644599D01*
X3491128Y1655165D01*
X3481425Y1664563D01*
X3470605Y1672539D01*
X3458768Y1678990D01*
X3446170Y1683867D01*
X3433064Y1686966D01*
X3419652Y1688338D01*
X3406190Y1687880D01*
X3392932Y1685645D01*
X3380028Y1681632D01*
X3367836Y1675993D01*
X3356457Y1668729D01*
X3346145Y1660042D01*
X3337102Y1650034D01*
X3329482Y1638909D01*
X3323437Y1626870D01*
X3319018Y1614170D01*
X3316325Y1600962D01*
X3315411Y1587500D01*
X3316325Y1574038D01*
X3319018Y1560830D01*
X3323437Y1548130D01*
X3329482Y1536090D01*
X3337102Y1524965D01*
X3346145Y1514957D01*
X3356457Y1506270D01*
X3367836Y1499006D01*
X3380028Y1493367D01*
X3392932Y1489354D01*
X3406190Y1487119D01*
G37*
G36*
X4258919Y1609699D02*
G01*
X4308500Y1609699D01*
X4308500Y1659280D01*
X4301896Y1656029D01*
X4290110Y1648104D01*
X4279442Y1638757D01*
X4270095Y1628089D01*
X4262170Y1616303D01*
G37*
G36*
X4403750Y1609699D02*
G01*
X4453280Y1609699D01*
X4450029Y1616303D01*
X4442104Y1628089D01*
X4432757Y1638757D01*
X4422089Y1648104D01*
X4410303Y1656029D01*
X4403750Y1659280D01*
G37*
G36*
X1895652Y1740662D02*
G01*
X1909064Y1742033D01*
X1922170Y1745132D01*
X1934768Y1750009D01*
X1946605Y1756460D01*
X1957425Y1764436D01*
X1967128Y1773834D01*
X1975459Y1784400D01*
X1982317Y1795983D01*
X1987600Y1808429D01*
X1991156Y1821383D01*
X1992934Y1834743D01*
X1992934Y1848256D01*
X1991156Y1861616D01*
X1987600Y1874570D01*
X1982317Y1887016D01*
X1975459Y1898599D01*
X1967128Y1909165D01*
X1957425Y1918563D01*
X1946605Y1926539D01*
X1934768Y1932990D01*
X1922170Y1937867D01*
X1909064Y1940966D01*
X1895652Y1942338D01*
X1882190Y1941880D01*
X1868932Y1939645D01*
X1856028Y1935632D01*
X1843836Y1929993D01*
X1832457Y1922729D01*
X1822145Y1914042D01*
X1813102Y1904034D01*
X1805482Y1892909D01*
X1799437Y1880870D01*
X1795018Y1868170D01*
X1792325Y1854962D01*
X1791411Y1841500D01*
X1792325Y1828038D01*
X1795018Y1814830D01*
X1799437Y1802130D01*
X1805482Y1790090D01*
X1813102Y1778965D01*
X1822145Y1768957D01*
X1832457Y1760270D01*
X1843836Y1753006D01*
X1856028Y1747367D01*
X1868932Y1743354D01*
X1882190Y1741119D01*
G37*
G36*
X3419652Y1740662D02*
G01*
X3433064Y1742033D01*
X3446170Y1745132D01*
X3458768Y1750009D01*
X3470605Y1756460D01*
X3481425Y1764436D01*
X3491128Y1773834D01*
X3499459Y1784400D01*
X3506317Y1795983D01*
X3511600Y1808429D01*
X3515156Y1821383D01*
X3516934Y1834743D01*
X3516934Y1848256D01*
X3515156Y1861616D01*
X3511600Y1874570D01*
X3506317Y1887016D01*
X3499459Y1898599D01*
X3491128Y1909165D01*
X3481425Y1918563D01*
X3470605Y1926539D01*
X3458768Y1932990D01*
X3446170Y1937867D01*
X3433064Y1940966D01*
X3419652Y1942338D01*
X3406190Y1941880D01*
X3392932Y1939645D01*
X3380028Y1935632D01*
X3367836Y1929993D01*
X3356457Y1922729D01*
X3346145Y1914042D01*
X3337102Y1904034D01*
X3329482Y1892909D01*
X3323437Y1880870D01*
X3319018Y1868170D01*
X3316325Y1854962D01*
X3315411Y1841500D01*
X3316325Y1828038D01*
X3319018Y1814830D01*
X3323437Y1802130D01*
X3329482Y1790090D01*
X3337102Y1778965D01*
X3346145Y1768957D01*
X3356457Y1760270D01*
X3367836Y1753006D01*
X3380028Y1747367D01*
X3392932Y1743354D01*
X3406190Y1741119D01*
G37*
G36*
X1161643Y1956765D02*
G01*
X1175156Y1956765D01*
X1188516Y1958543D01*
X1201470Y1962099D01*
X1213916Y1967382D01*
X1225499Y1974240D01*
X1236065Y1982571D01*
X1245463Y1992274D01*
X1253439Y2003094D01*
X1259890Y2014931D01*
X1264767Y2027529D01*
X1267866Y2040636D01*
X1269238Y2054047D01*
X1268780Y2067509D01*
X1266545Y2080768D01*
X1262532Y2093671D01*
X1256893Y2105863D01*
X1249629Y2117242D01*
X1240942Y2127554D01*
X1230934Y2136597D01*
X1219809Y2144217D01*
X1207770Y2150262D01*
X1195070Y2154682D01*
X1181862Y2157374D01*
X1168400Y2158288D01*
X1154938Y2157374D01*
X1141730Y2154682D01*
X1129030Y2150262D01*
X1116990Y2144217D01*
X1105865Y2136597D01*
X1095857Y2127554D01*
X1087170Y2117242D01*
X1079906Y2105863D01*
X1074267Y2093671D01*
X1070254Y2080768D01*
X1068019Y2067509D01*
X1067562Y2054047D01*
X1068933Y2040636D01*
X1072032Y2027529D01*
X1076909Y2014931D01*
X1083360Y2003094D01*
X1091336Y1992274D01*
X1100734Y1982571D01*
X1111300Y1974240D01*
X1122883Y1967382D01*
X1135329Y1962099D01*
X1148283Y1958543D01*
G37*
G36*
X1895652Y1994662D02*
G01*
X1909064Y1996033D01*
X1922170Y1999132D01*
X1934768Y2004009D01*
X1946605Y2010460D01*
X1957425Y2018436D01*
X1967128Y2027834D01*
X1975459Y2038400D01*
X1982317Y2049983D01*
X1987600Y2062429D01*
X1991156Y2075383D01*
X1992934Y2088743D01*
X1992934Y2102256D01*
X1991156Y2115616D01*
X1987600Y2128570D01*
X1982317Y2141016D01*
X1975459Y2152599D01*
X1967128Y2163165D01*
X1957425Y2172563D01*
X1946605Y2180539D01*
X1934768Y2186990D01*
X1922170Y2191867D01*
X1909064Y2194966D01*
X1895652Y2196338D01*
X1882190Y2195880D01*
X1868932Y2193645D01*
X1856028Y2189632D01*
X1843836Y2183993D01*
X1832457Y2176729D01*
X1822145Y2168042D01*
X1813102Y2158034D01*
X1805482Y2146909D01*
X1799437Y2134870D01*
X1795018Y2122170D01*
X1792325Y2108962D01*
X1791411Y2095500D01*
X1792325Y2082038D01*
X1795018Y2068830D01*
X1799437Y2056130D01*
X1805482Y2044090D01*
X1813102Y2032965D01*
X1822145Y2022957D01*
X1832457Y2014270D01*
X1843836Y2007006D01*
X1856028Y2001367D01*
X1868932Y1997354D01*
X1882190Y1995119D01*
G37*
G36*
X3419652Y1994662D02*
G01*
X3433064Y1996033D01*
X3446170Y1999132D01*
X3458768Y2004009D01*
X3470605Y2010460D01*
X3481425Y2018436D01*
X3491128Y2027834D01*
X3499459Y2038400D01*
X3506317Y2049983D01*
X3511600Y2062429D01*
X3515156Y2075383D01*
X3516934Y2088743D01*
X3516934Y2102256D01*
X3515156Y2115616D01*
X3511600Y2128570D01*
X3506317Y2141016D01*
X3499459Y2152599D01*
X3491128Y2163165D01*
X3481425Y2172563D01*
X3470605Y2180539D01*
X3458768Y2186990D01*
X3446170Y2191867D01*
X3433064Y2194966D01*
X3419652Y2196338D01*
X3406190Y2195880D01*
X3392932Y2193645D01*
X3380028Y2189632D01*
X3367836Y2183993D01*
X3356457Y2176729D01*
X3346145Y2168042D01*
X3337102Y2158034D01*
X3329482Y2146909D01*
X3323437Y2134870D01*
X3319018Y2122170D01*
X3316325Y2108962D01*
X3315411Y2095500D01*
X3316325Y2082038D01*
X3319018Y2068830D01*
X3323437Y2056130D01*
X3329482Y2044090D01*
X3337102Y2032965D01*
X3346145Y2022957D01*
X3356457Y2014270D01*
X3367836Y2007006D01*
X3380028Y2001367D01*
X3392932Y1997354D01*
X3406190Y1995119D01*
G37*
G36*
X4255973Y2042668D02*
G01*
X4255973Y2084273D01*
X4214368Y2084273D01*
X4219854Y2074164D01*
X4227271Y2064257D01*
X4235958Y2055571D01*
X4245864Y2048154D01*
G37*
G36*
X4329226Y2042668D02*
G01*
X4339336Y2048154D01*
X4349242Y2055571D01*
X4357928Y2064257D01*
X4365345Y2074164D01*
X4370832Y2084273D01*
X4329226Y2084273D01*
G37*
G36*
X4329226Y2157526D02*
G01*
X4370832Y2157526D01*
X4365345Y2167636D01*
X4357928Y2177542D01*
X4349242Y2186228D01*
X4339336Y2193645D01*
X4329226Y2199132D01*
G37*
G36*
X4214368Y2157526D02*
G01*
X4255973Y2157526D01*
X4255973Y2199132D01*
X4245864Y2193645D01*
X4235958Y2186228D01*
X4227271Y2177542D01*
X4219854Y2167636D01*
G37*
G36*
X1161643Y2210765D02*
G01*
X1175156Y2210765D01*
X1188516Y2212543D01*
X1201470Y2216099D01*
X1213916Y2221382D01*
X1225499Y2228240D01*
X1236065Y2236571D01*
X1245463Y2246274D01*
X1253439Y2257094D01*
X1259890Y2268931D01*
X1264767Y2281529D01*
X1267866Y2294636D01*
X1269238Y2308047D01*
X1268780Y2321509D01*
X1266545Y2334768D01*
X1262532Y2347671D01*
X1256893Y2359863D01*
X1249629Y2371242D01*
X1240942Y2381554D01*
X1230934Y2390597D01*
X1219809Y2398217D01*
X1207770Y2404262D01*
X1195070Y2408682D01*
X1181862Y2411374D01*
X1168400Y2412288D01*
X1154938Y2411374D01*
X1141730Y2408682D01*
X1129030Y2404262D01*
X1116990Y2398217D01*
X1105865Y2390597D01*
X1095857Y2381554D01*
X1087170Y2371242D01*
X1079906Y2359863D01*
X1074267Y2347671D01*
X1070254Y2334768D01*
X1068019Y2321509D01*
X1067562Y2308047D01*
X1068933Y2294636D01*
X1072032Y2281529D01*
X1076909Y2268931D01*
X1083360Y2257094D01*
X1091336Y2246274D01*
X1100734Y2236571D01*
X1111300Y2228240D01*
X1122883Y2221382D01*
X1135329Y2216099D01*
X1148283Y2212543D01*
G37*
G36*
X1895652Y2248662D02*
G01*
X1909064Y2250033D01*
X1922170Y2253132D01*
X1934768Y2258009D01*
X1946605Y2264460D01*
X1957425Y2272436D01*
X1967128Y2281834D01*
X1975459Y2292400D01*
X1982317Y2303983D01*
X1987600Y2316429D01*
X1991156Y2329383D01*
X1992934Y2342743D01*
X1992934Y2356256D01*
X1991156Y2369616D01*
X1987600Y2382570D01*
X1982317Y2395016D01*
X1975459Y2406599D01*
X1967128Y2417165D01*
X1957425Y2426563D01*
X1946605Y2434539D01*
X1934768Y2440990D01*
X1922170Y2445867D01*
X1909064Y2448966D01*
X1895652Y2450338D01*
X1882190Y2449880D01*
X1868932Y2447645D01*
X1856028Y2443632D01*
X1843836Y2437993D01*
X1832457Y2430729D01*
X1822145Y2422042D01*
X1813102Y2412034D01*
X1805482Y2400909D01*
X1799437Y2388870D01*
X1795018Y2376170D01*
X1792325Y2362962D01*
X1791411Y2349500D01*
X1792325Y2336038D01*
X1795018Y2322830D01*
X1799437Y2310130D01*
X1805482Y2298090D01*
X1813102Y2286965D01*
X1822145Y2276957D01*
X1832457Y2268270D01*
X1843836Y2261006D01*
X1856028Y2255367D01*
X1868932Y2251354D01*
X1882190Y2249119D01*
G37*
G36*
X3419652Y2248662D02*
G01*
X3433064Y2250033D01*
X3446170Y2253132D01*
X3458768Y2258009D01*
X3470605Y2264460D01*
X3481425Y2272436D01*
X3491128Y2281834D01*
X3499459Y2292400D01*
X3506317Y2303983D01*
X3511600Y2316429D01*
X3515156Y2329383D01*
X3516934Y2342743D01*
X3516934Y2356256D01*
X3515156Y2369616D01*
X3511600Y2382570D01*
X3506317Y2395016D01*
X3499459Y2406599D01*
X3491128Y2417165D01*
X3481425Y2426563D01*
X3470605Y2434539D01*
X3458768Y2440990D01*
X3446170Y2445867D01*
X3433064Y2448966D01*
X3419652Y2450338D01*
X3406190Y2449880D01*
X3392932Y2447645D01*
X3380028Y2443632D01*
X3367836Y2437993D01*
X3356457Y2430729D01*
X3346145Y2422042D01*
X3337102Y2412034D01*
X3329482Y2400909D01*
X3323437Y2388870D01*
X3319018Y2376170D01*
X3316325Y2362962D01*
X3315411Y2349500D01*
X3316325Y2336038D01*
X3319018Y2322830D01*
X3323437Y2310130D01*
X3329482Y2298090D01*
X3337102Y2286965D01*
X3346145Y2276957D01*
X3356457Y2268270D01*
X3367836Y2261006D01*
X3380028Y2255367D01*
X3392932Y2251354D01*
X3406190Y2249119D01*
G37*
G36*
X1161643Y2464765D02*
G01*
X1175156Y2464765D01*
X1188516Y2466543D01*
X1201470Y2470099D01*
X1213916Y2475382D01*
X1225499Y2482240D01*
X1236065Y2490571D01*
X1245463Y2500274D01*
X1253439Y2511094D01*
X1259890Y2522931D01*
X1264767Y2535529D01*
X1267866Y2548636D01*
X1269238Y2562047D01*
X1268780Y2575509D01*
X1266545Y2588768D01*
X1262532Y2601671D01*
X1256893Y2613863D01*
X1249629Y2625242D01*
X1240942Y2635554D01*
X1230934Y2644597D01*
X1219809Y2652217D01*
X1207770Y2658262D01*
X1195070Y2662682D01*
X1181862Y2665374D01*
X1168400Y2666288D01*
X1154938Y2665374D01*
X1141730Y2662682D01*
X1129030Y2658262D01*
X1116990Y2652217D01*
X1105865Y2644597D01*
X1095857Y2635554D01*
X1087170Y2625242D01*
X1079906Y2613863D01*
X1074267Y2601671D01*
X1070254Y2588768D01*
X1068019Y2575509D01*
X1067562Y2562047D01*
X1068933Y2548636D01*
X1072032Y2535529D01*
X1076909Y2522931D01*
X1083360Y2511094D01*
X1091336Y2500274D01*
X1100734Y2490571D01*
X1111300Y2482240D01*
X1122883Y2475382D01*
X1135329Y2470099D01*
X1148283Y2466543D01*
G37*
G36*
X1895652Y2502662D02*
G01*
X1909064Y2504033D01*
X1922170Y2507132D01*
X1934768Y2512009D01*
X1946605Y2518460D01*
X1957425Y2526436D01*
X1967128Y2535834D01*
X1975459Y2546400D01*
X1982317Y2557983D01*
X1987600Y2570429D01*
X1991156Y2583383D01*
X1992934Y2596743D01*
X1992934Y2610256D01*
X1991156Y2623616D01*
X1987600Y2636570D01*
X1982317Y2649016D01*
X1975459Y2660599D01*
X1967128Y2671165D01*
X1957425Y2680563D01*
X1946605Y2688539D01*
X1934768Y2694990D01*
X1922170Y2699867D01*
X1909064Y2702966D01*
X1895652Y2704338D01*
X1882190Y2703880D01*
X1868932Y2701645D01*
X1856028Y2697632D01*
X1843836Y2691993D01*
X1832457Y2684729D01*
X1822145Y2676042D01*
X1813102Y2666034D01*
X1805482Y2654909D01*
X1799437Y2642870D01*
X1795018Y2630170D01*
X1792325Y2616962D01*
X1791411Y2603500D01*
X1792325Y2590038D01*
X1795018Y2576830D01*
X1799437Y2564130D01*
X1805482Y2552090D01*
X1813102Y2540965D01*
X1822145Y2530957D01*
X1832457Y2522270D01*
X1843836Y2515006D01*
X1856028Y2509367D01*
X1868932Y2505354D01*
X1882190Y2503119D01*
G37*
G36*
X3419652Y2502662D02*
G01*
X3433064Y2504033D01*
X3446170Y2507132D01*
X3458768Y2512009D01*
X3470605Y2518460D01*
X3481425Y2526436D01*
X3491128Y2535834D01*
X3499459Y2546400D01*
X3506317Y2557983D01*
X3511600Y2570429D01*
X3515156Y2583383D01*
X3516934Y2596743D01*
X3516934Y2610256D01*
X3515156Y2623616D01*
X3511600Y2636570D01*
X3506317Y2649016D01*
X3499459Y2660599D01*
X3491128Y2671165D01*
X3481425Y2680563D01*
X3470605Y2688539D01*
X3458768Y2694990D01*
X3446170Y2699867D01*
X3433064Y2702966D01*
X3419652Y2704338D01*
X3406190Y2703880D01*
X3392932Y2701645D01*
X3380028Y2697632D01*
X3367836Y2691993D01*
X3356457Y2684729D01*
X3346145Y2676042D01*
X3337102Y2666034D01*
X3329482Y2654909D01*
X3323437Y2642870D01*
X3319018Y2630170D01*
X3316325Y2616962D01*
X3315411Y2603500D01*
X3316325Y2590038D01*
X3319018Y2576830D01*
X3323437Y2564130D01*
X3329482Y2552090D01*
X3337102Y2540965D01*
X3346145Y2530957D01*
X3356457Y2522270D01*
X3367836Y2515006D01*
X3380028Y2509367D01*
X3392932Y2505354D01*
X3406190Y2503119D01*
G37*
G36*
X4292600Y2618638D02*
G01*
X4304893Y2619502D01*
X4316984Y2622143D01*
X4328515Y2626461D01*
X4339336Y2632354D01*
X4349242Y2639771D01*
X4357928Y2648458D01*
X4365345Y2658364D01*
X4371238Y2669184D01*
X4375556Y2680716D01*
X4378198Y2692806D01*
X4379061Y2705100D01*
X4378198Y2717393D01*
X4375556Y2729484D01*
X4371238Y2741015D01*
X4365345Y2751836D01*
X4357928Y2761742D01*
X4349242Y2770428D01*
X4339336Y2777845D01*
X4328515Y2783738D01*
X4316984Y2788056D01*
X4304893Y2790698D01*
X4292600Y2791561D01*
X4280306Y2790698D01*
X4268216Y2788056D01*
X4256684Y2783738D01*
X4245864Y2777845D01*
X4235958Y2770428D01*
X4227271Y2761742D01*
X4219854Y2751836D01*
X4213961Y2741015D01*
X4209643Y2729484D01*
X4207002Y2717393D01*
X4206138Y2705100D01*
X4207002Y2692806D01*
X4209643Y2680716D01*
X4213961Y2669184D01*
X4219854Y2658364D01*
X4227271Y2648458D01*
X4235958Y2639771D01*
X4245864Y2632354D01*
X4256684Y2626461D01*
X4268216Y2622143D01*
X4280306Y2619502D01*
G37*
G36*
X1161643Y2718765D02*
G01*
X1175156Y2718765D01*
X1188516Y2720543D01*
X1201470Y2724099D01*
X1213916Y2729382D01*
X1225499Y2736240D01*
X1236065Y2744571D01*
X1245463Y2754274D01*
X1253439Y2765094D01*
X1259890Y2776931D01*
X1264767Y2789529D01*
X1267866Y2802636D01*
X1269238Y2816047D01*
X1268780Y2829509D01*
X1266545Y2842768D01*
X1262532Y2855671D01*
X1256893Y2867863D01*
X1249629Y2879242D01*
X1240942Y2889554D01*
X1230934Y2898597D01*
X1219809Y2906217D01*
X1207770Y2912262D01*
X1195070Y2916682D01*
X1181862Y2919374D01*
X1168400Y2920288D01*
X1154938Y2919374D01*
X1141730Y2916682D01*
X1129030Y2912262D01*
X1116990Y2906217D01*
X1105865Y2898597D01*
X1095857Y2889554D01*
X1087170Y2879242D01*
X1079906Y2867863D01*
X1074267Y2855671D01*
X1070254Y2842768D01*
X1068019Y2829509D01*
X1067562Y2816047D01*
X1068933Y2802636D01*
X1072032Y2789529D01*
X1076909Y2776931D01*
X1083360Y2765094D01*
X1091336Y2754274D01*
X1100734Y2744571D01*
X1111300Y2736240D01*
X1122883Y2729382D01*
X1135329Y2724099D01*
X1148283Y2720543D01*
G37*
G36*
X1895652Y2756662D02*
G01*
X1909064Y2758033D01*
X1922170Y2761132D01*
X1934768Y2766009D01*
X1946605Y2772460D01*
X1957425Y2780436D01*
X1967128Y2789834D01*
X1975459Y2800400D01*
X1982317Y2811983D01*
X1987600Y2824429D01*
X1991156Y2837383D01*
X1992934Y2850743D01*
X1992934Y2864256D01*
X1991156Y2877616D01*
X1987600Y2890570D01*
X1982317Y2903016D01*
X1975459Y2914599D01*
X1967128Y2925165D01*
X1957425Y2934563D01*
X1946605Y2942539D01*
X1934768Y2948990D01*
X1922170Y2953867D01*
X1909064Y2956966D01*
X1895652Y2958338D01*
X1882190Y2957880D01*
X1868932Y2955645D01*
X1856028Y2951632D01*
X1843836Y2945993D01*
X1832457Y2938729D01*
X1822145Y2930042D01*
X1813102Y2920034D01*
X1805482Y2908909D01*
X1799437Y2896870D01*
X1795018Y2884170D01*
X1792325Y2870962D01*
X1791411Y2857500D01*
X1792325Y2844038D01*
X1795018Y2830830D01*
X1799437Y2818130D01*
X1805482Y2806090D01*
X1813102Y2794965D01*
X1822145Y2784957D01*
X1832457Y2776270D01*
X1843836Y2769006D01*
X1856028Y2763367D01*
X1868932Y2759354D01*
X1882190Y2757119D01*
G37*
G36*
X3419652Y2756662D02*
G01*
X3433064Y2758033D01*
X3446170Y2761132D01*
X3458768Y2766009D01*
X3470605Y2772460D01*
X3481425Y2780436D01*
X3491128Y2789834D01*
X3499459Y2800400D01*
X3506317Y2811983D01*
X3511600Y2824429D01*
X3515156Y2837383D01*
X3516934Y2850743D01*
X3516934Y2864256D01*
X3515156Y2877616D01*
X3511600Y2890570D01*
X3506317Y2903016D01*
X3499459Y2914599D01*
X3491128Y2925165D01*
X3481425Y2934563D01*
X3470605Y2942539D01*
X3458768Y2948990D01*
X3446170Y2953867D01*
X3433064Y2956966D01*
X3419652Y2958338D01*
X3406190Y2957880D01*
X3392932Y2955645D01*
X3380028Y2951632D01*
X3367836Y2945993D01*
X3356457Y2938729D01*
X3346145Y2930042D01*
X3337102Y2920034D01*
X3329482Y2908909D01*
X3323437Y2896870D01*
X3319018Y2884170D01*
X3316325Y2870962D01*
X3315411Y2857500D01*
X3316325Y2844038D01*
X3319018Y2830830D01*
X3323437Y2818130D01*
X3329482Y2806090D01*
X3337102Y2794965D01*
X3346145Y2784957D01*
X3356457Y2776270D01*
X3367836Y2769006D01*
X3380028Y2763367D01*
X3392932Y2759354D01*
X3406190Y2757119D01*
G37*
G36*
X1161643Y2972765D02*
G01*
X1175156Y2972765D01*
X1188516Y2974543D01*
X1201470Y2978099D01*
X1213916Y2983382D01*
X1225499Y2990240D01*
X1236065Y2998571D01*
X1245463Y3008274D01*
X1253439Y3019094D01*
X1259890Y3030931D01*
X1264767Y3043529D01*
X1267866Y3056636D01*
X1269238Y3070047D01*
X1268780Y3083509D01*
X1266545Y3096768D01*
X1262532Y3109671D01*
X1256893Y3121863D01*
X1249629Y3133242D01*
X1240942Y3143554D01*
X1230934Y3152597D01*
X1219809Y3160217D01*
X1207770Y3166262D01*
X1195070Y3170682D01*
X1181862Y3173374D01*
X1168400Y3174288D01*
X1154938Y3173374D01*
X1141730Y3170682D01*
X1129030Y3166262D01*
X1116990Y3160217D01*
X1105865Y3152597D01*
X1095857Y3143554D01*
X1087170Y3133242D01*
X1079906Y3121863D01*
X1074267Y3109671D01*
X1070254Y3096768D01*
X1068019Y3083509D01*
X1067562Y3070047D01*
X1068933Y3056636D01*
X1072032Y3043529D01*
X1076909Y3030931D01*
X1083360Y3019094D01*
X1091336Y3008274D01*
X1100734Y2998571D01*
X1111300Y2990240D01*
X1122883Y2983382D01*
X1135329Y2978099D01*
X1148283Y2974543D01*
G37*
G36*
X3419652Y3010662D02*
G01*
X3433064Y3012033D01*
X3446170Y3015132D01*
X3458768Y3020009D01*
X3470605Y3026460D01*
X3481425Y3034436D01*
X3491128Y3043834D01*
X3499459Y3054400D01*
X3506317Y3065983D01*
X3511600Y3078429D01*
X3515156Y3091383D01*
X3516934Y3104743D01*
X3516934Y3118256D01*
X3515156Y3131616D01*
X3511600Y3144570D01*
X3506317Y3157016D01*
X3499459Y3168599D01*
X3491128Y3179165D01*
X3481425Y3188563D01*
X3470605Y3196539D01*
X3458768Y3202990D01*
X3446170Y3207867D01*
X3433064Y3210966D01*
X3419652Y3212338D01*
X3406190Y3211880D01*
X3392932Y3209645D01*
X3380028Y3205632D01*
X3367836Y3199993D01*
X3356457Y3192729D01*
X3346145Y3184042D01*
X3337102Y3174034D01*
X3329482Y3162909D01*
X3323437Y3150870D01*
X3319018Y3138170D01*
X3316325Y3124962D01*
X3315411Y3111500D01*
X3316325Y3098038D01*
X3319018Y3084830D01*
X3323437Y3072130D01*
X3329482Y3060090D01*
X3337102Y3048965D01*
X3346145Y3038957D01*
X3356457Y3030270D01*
X3367836Y3023006D01*
X3380028Y3017367D01*
X3392932Y3013354D01*
X3406190Y3011119D01*
G37*
G36*
X1895652Y3010662D02*
G01*
X1909064Y3012033D01*
X1922170Y3015132D01*
X1934768Y3020009D01*
X1946605Y3026460D01*
X1957425Y3034436D01*
X1967128Y3043834D01*
X1975459Y3054400D01*
X1984857Y3069945D01*
X1988108Y3072130D01*
X1991969Y3072892D01*
X2056892Y3072892D01*
X2064918Y3073704D01*
X2072132Y3075889D01*
X2078837Y3079445D01*
X2085035Y3084576D01*
X2172258Y3171748D01*
X2176018Y3174136D01*
X2180386Y3174695D01*
X2184603Y3173323D01*
X2187803Y3170326D01*
X2193188Y3162554D01*
X2202332Y3152394D01*
X2212746Y3143605D01*
X2224227Y3136290D01*
X2236622Y3130550D01*
X2249627Y3126486D01*
X2263089Y3124250D01*
X2276703Y3123793D01*
X2290267Y3125114D01*
X2303526Y3128314D01*
X2316276Y3133191D01*
X2328214Y3139744D01*
X2339187Y3147822D01*
X2348992Y3157321D01*
X2357475Y3168040D01*
X2364435Y3179775D01*
X2369718Y3192322D01*
X2373325Y3205480D01*
X2375154Y3218992D01*
X2375154Y3232607D01*
X2373325Y3246120D01*
X2369718Y3259277D01*
X2364435Y3271824D01*
X2357475Y3283559D01*
X2348992Y3294278D01*
X2339187Y3303778D01*
X2328214Y3311855D01*
X2316276Y3318408D01*
X2303526Y3323285D01*
X2290267Y3326485D01*
X2276703Y3327806D01*
X2263089Y3327349D01*
X2249627Y3325114D01*
X2236622Y3321050D01*
X2224227Y3315309D01*
X2212746Y3307994D01*
X2202332Y3299206D01*
X2193188Y3289046D01*
X2185466Y3277819D01*
X2181504Y3269996D01*
X2179472Y3267252D01*
X2176678Y3265322D01*
X2173376Y3264458D01*
X2164130Y3263595D01*
X2156968Y3261410D01*
X2150262Y3257854D01*
X2144064Y3252724D01*
X2044395Y3153105D01*
X2041093Y3150870D01*
X2037181Y3150108D01*
X1991969Y3150108D01*
X1988108Y3150870D01*
X1984857Y3153054D01*
X1975459Y3168599D01*
X1967128Y3179165D01*
X1957425Y3188563D01*
X1946605Y3196539D01*
X1934768Y3202990D01*
X1922170Y3207867D01*
X1909064Y3210966D01*
X1895652Y3212338D01*
X1882190Y3211880D01*
X1868932Y3209645D01*
X1856028Y3205632D01*
X1843836Y3199993D01*
X1832457Y3192729D01*
X1822145Y3184042D01*
X1813102Y3174034D01*
X1805482Y3162909D01*
X1799437Y3150870D01*
X1795018Y3138170D01*
X1792325Y3124962D01*
X1791411Y3111500D01*
X1792325Y3098038D01*
X1795018Y3084830D01*
X1799437Y3072130D01*
X1805482Y3060090D01*
X1813102Y3048965D01*
X1822145Y3038957D01*
X1832457Y3030270D01*
X1843836Y3023006D01*
X1856028Y3017367D01*
X1868932Y3013354D01*
X1882190Y3011119D01*
G37*
G36*
X2530703Y3123793D02*
G01*
X2544267Y3125114D01*
X2557526Y3128314D01*
X2570276Y3133191D01*
X2582214Y3139744D01*
X2593187Y3147822D01*
X2602992Y3157321D01*
X2611475Y3168040D01*
X2618435Y3179775D01*
X2623718Y3192322D01*
X2627325Y3205480D01*
X2629154Y3218992D01*
X2629154Y3232607D01*
X2627325Y3246120D01*
X2623718Y3259277D01*
X2618435Y3271824D01*
X2611475Y3283559D01*
X2602992Y3294278D01*
X2593187Y3303778D01*
X2582214Y3311855D01*
X2570276Y3318408D01*
X2557526Y3323285D01*
X2544267Y3326485D01*
X2530703Y3327806D01*
X2517089Y3327349D01*
X2503627Y3325114D01*
X2490622Y3321050D01*
X2478227Y3315309D01*
X2466746Y3307994D01*
X2456332Y3299206D01*
X2447188Y3289046D01*
X2439466Y3277819D01*
X2433320Y3265678D01*
X2428849Y3252774D01*
X2426106Y3239414D01*
X2425192Y3225800D01*
X2426106Y3212185D01*
X2428849Y3198825D01*
X2433320Y3185922D01*
X2439466Y3173780D01*
X2447188Y3162554D01*
X2456332Y3152394D01*
X2466746Y3143605D01*
X2478227Y3136290D01*
X2490622Y3130550D01*
X2503627Y3126486D01*
X2517089Y3124250D01*
G37*
G36*
X2784703Y3123793D02*
G01*
X2798267Y3125114D01*
X2811526Y3128314D01*
X2824276Y3133191D01*
X2836214Y3139744D01*
X2847187Y3147822D01*
X2856992Y3157321D01*
X2865475Y3168040D01*
X2872435Y3179775D01*
X2877718Y3192322D01*
X2881325Y3205480D01*
X2883154Y3218992D01*
X2883154Y3232607D01*
X2881325Y3246120D01*
X2877718Y3259277D01*
X2872435Y3271824D01*
X2865475Y3283559D01*
X2856992Y3294278D01*
X2847187Y3303778D01*
X2836214Y3311855D01*
X2824276Y3318408D01*
X2811526Y3323285D01*
X2798267Y3326485D01*
X2784703Y3327806D01*
X2771089Y3327349D01*
X2757627Y3325114D01*
X2744622Y3321050D01*
X2732227Y3315309D01*
X2720746Y3307994D01*
X2710332Y3299206D01*
X2701188Y3289046D01*
X2693466Y3277819D01*
X2687320Y3265678D01*
X2682849Y3252774D01*
X2680106Y3239414D01*
X2679192Y3225800D01*
X2680106Y3212185D01*
X2682849Y3198825D01*
X2687320Y3185922D01*
X2693466Y3173780D01*
X2701188Y3162554D01*
X2710332Y3152394D01*
X2720746Y3143605D01*
X2732227Y3136290D01*
X2744622Y3130550D01*
X2757627Y3126486D01*
X2771089Y3124250D01*
G37*
G36*
X3038703Y3123793D02*
G01*
X3052267Y3125114D01*
X3065526Y3128314D01*
X3078276Y3133191D01*
X3090214Y3139744D01*
X3101187Y3147822D01*
X3110992Y3157321D01*
X3119475Y3168040D01*
X3126435Y3179775D01*
X3131718Y3192322D01*
X3135325Y3205480D01*
X3137154Y3218992D01*
X3137154Y3232607D01*
X3135325Y3246120D01*
X3131718Y3259277D01*
X3126435Y3271824D01*
X3119475Y3283559D01*
X3110992Y3294278D01*
X3101187Y3303778D01*
X3090214Y3311855D01*
X3078276Y3318408D01*
X3065526Y3323285D01*
X3052267Y3326485D01*
X3038703Y3327806D01*
X3025089Y3327349D01*
X3011627Y3325114D01*
X2998622Y3321050D01*
X2986227Y3315309D01*
X2974746Y3307994D01*
X2964332Y3299206D01*
X2955188Y3289046D01*
X2947466Y3277819D01*
X2941320Y3265678D01*
X2936849Y3252774D01*
X2934106Y3239414D01*
X2933192Y3225800D01*
X2934106Y3212185D01*
X2936849Y3198825D01*
X2941320Y3185922D01*
X2947466Y3173780D01*
X2955188Y3162554D01*
X2964332Y3152394D01*
X2974746Y3143605D01*
X2986227Y3136290D01*
X2998622Y3130550D01*
X3011627Y3126486D01*
X3025089Y3124250D01*
G37*
G36*
X1212240Y3236671D02*
G01*
X1213916Y3237382D01*
X1225499Y3244240D01*
X1236065Y3252571D01*
X1245463Y3262274D01*
X1253439Y3273094D01*
X1259128Y3283559D01*
X1212240Y3283559D01*
G37*
G36*
X1124559Y3236671D02*
G01*
X1124559Y3283559D01*
X1077671Y3283559D01*
X1083360Y3273094D01*
X1091336Y3262274D01*
X1100734Y3252571D01*
X1111300Y3244240D01*
X1122883Y3237382D01*
G37*
G36*
X1895652Y3264662D02*
G01*
X1909064Y3266033D01*
X1922170Y3269132D01*
X1934768Y3274009D01*
X1946605Y3280460D01*
X1957425Y3288436D01*
X1967128Y3297834D01*
X1975459Y3308400D01*
X1982317Y3319983D01*
X1987600Y3332429D01*
X1991156Y3345383D01*
X1992934Y3358743D01*
X1992934Y3372256D01*
X1991156Y3385616D01*
X1987600Y3398570D01*
X1982317Y3411016D01*
X1975459Y3422599D01*
X1967128Y3433165D01*
X1957425Y3442563D01*
X1949704Y3448253D01*
X1946859Y3451402D01*
X1945589Y3455415D01*
X1946046Y3459581D01*
X1948180Y3463239D01*
X1951583Y3465728D01*
X1955698Y3466592D01*
X2018741Y3466592D01*
X2025040Y3467303D01*
X2030526Y3469233D01*
X2035403Y3472281D01*
X2039518Y3476396D01*
X2042566Y3481273D01*
X2044496Y3486759D01*
X2045207Y3493058D01*
X2045207Y3745941D01*
X2044496Y3752240D01*
X2042566Y3757726D01*
X2039518Y3762603D01*
X2035403Y3766718D01*
X2030526Y3769766D01*
X2025040Y3771696D01*
X2018741Y3772408D01*
X1765858Y3772408D01*
X1759559Y3771696D01*
X1754073Y3769766D01*
X1749196Y3766718D01*
X1745081Y3762603D01*
X1742033Y3757726D01*
X1740103Y3752240D01*
X1739392Y3745941D01*
X1739392Y3493058D01*
X1740103Y3486759D01*
X1742033Y3481273D01*
X1745081Y3476396D01*
X1749196Y3472281D01*
X1754073Y3469233D01*
X1759559Y3467303D01*
X1765858Y3466592D01*
X1828800Y3466592D01*
X1833016Y3465677D01*
X1836470Y3463086D01*
X1838553Y3459276D01*
X1838858Y3454958D01*
X1837334Y3450894D01*
X1834235Y3447846D01*
X1832457Y3446729D01*
X1822145Y3438042D01*
X1813102Y3428034D01*
X1805482Y3416909D01*
X1799437Y3404870D01*
X1795018Y3392170D01*
X1792325Y3378962D01*
X1791411Y3365500D01*
X1792325Y3352037D01*
X1795018Y3338829D01*
X1799437Y3326129D01*
X1805482Y3314090D01*
X1813102Y3302965D01*
X1822145Y3292957D01*
X1832457Y3284270D01*
X1843836Y3277006D01*
X1856028Y3271367D01*
X1868932Y3267354D01*
X1882190Y3265119D01*
G37*
G36*
X3419652Y3264662D02*
G01*
X3433064Y3266033D01*
X3446170Y3269132D01*
X3458768Y3274009D01*
X3470605Y3280460D01*
X3481425Y3288436D01*
X3491128Y3297834D01*
X3499459Y3308400D01*
X3506317Y3319983D01*
X3511600Y3332429D01*
X3515156Y3345383D01*
X3516934Y3358743D01*
X3516934Y3372256D01*
X3515156Y3385616D01*
X3511600Y3398570D01*
X3506317Y3411016D01*
X3499459Y3422599D01*
X3491128Y3433165D01*
X3481425Y3442563D01*
X3473704Y3448253D01*
X3470859Y3451402D01*
X3469589Y3455415D01*
X3470046Y3459581D01*
X3472179Y3463239D01*
X3475583Y3465728D01*
X3479698Y3466592D01*
X3542741Y3466592D01*
X3549040Y3467303D01*
X3554526Y3469233D01*
X3559403Y3472281D01*
X3563518Y3476396D01*
X3566566Y3481273D01*
X3568496Y3486759D01*
X3569208Y3493058D01*
X3569208Y3745941D01*
X3568496Y3752240D01*
X3566566Y3757726D01*
X3563518Y3762603D01*
X3559403Y3766718D01*
X3554526Y3769766D01*
X3549040Y3771696D01*
X3542741Y3772408D01*
X3289858Y3772408D01*
X3283559Y3771696D01*
X3278073Y3769766D01*
X3273196Y3766718D01*
X3269081Y3762603D01*
X3266033Y3757726D01*
X3264103Y3752240D01*
X3263392Y3745941D01*
X3263392Y3493058D01*
X3264103Y3486759D01*
X3266033Y3481273D01*
X3269081Y3476396D01*
X3273196Y3472281D01*
X3278073Y3469233D01*
X3283559Y3467303D01*
X3289858Y3466592D01*
X3352800Y3466592D01*
X3357016Y3465677D01*
X3360470Y3463086D01*
X3362553Y3459276D01*
X3362858Y3454958D01*
X3361334Y3450894D01*
X3358235Y3447846D01*
X3356457Y3446729D01*
X3346145Y3438042D01*
X3337102Y3428034D01*
X3329482Y3416909D01*
X3323437Y3404870D01*
X3319018Y3392170D01*
X3316325Y3378962D01*
X3315411Y3365500D01*
X3316325Y3352037D01*
X3319018Y3338829D01*
X3323437Y3326129D01*
X3329482Y3314090D01*
X3337102Y3302965D01*
X3346145Y3292957D01*
X3356457Y3284270D01*
X3367836Y3277006D01*
X3380028Y3271367D01*
X3392932Y3267354D01*
X3406190Y3265119D01*
G37*
G36*
X1077772Y3371240D02*
G01*
X1124559Y3371240D01*
X1124559Y3418027D01*
X1116990Y3414217D01*
X1105865Y3406597D01*
X1095857Y3397554D01*
X1087170Y3387242D01*
X1079906Y3375863D01*
G37*
G36*
X1212240Y3371240D02*
G01*
X1259027Y3371240D01*
X1256893Y3375863D01*
X1249629Y3387242D01*
X1240942Y3397554D01*
X1230934Y3406597D01*
X1219809Y3414217D01*
X1212240Y3418027D01*
G37*
G36*
X2530703Y3377793D02*
G01*
X2544267Y3379114D01*
X2557526Y3382314D01*
X2570276Y3387191D01*
X2582214Y3393744D01*
X2593187Y3401822D01*
X2602992Y3411321D01*
X2611475Y3422040D01*
X2618435Y3433775D01*
X2623718Y3446322D01*
X2627325Y3459479D01*
X2629154Y3472992D01*
X2629154Y3486607D01*
X2627325Y3500120D01*
X2623718Y3513277D01*
X2618435Y3525824D01*
X2611475Y3537559D01*
X2602992Y3548278D01*
X2593187Y3557778D01*
X2582214Y3565855D01*
X2570276Y3572408D01*
X2557526Y3577285D01*
X2544267Y3580485D01*
X2530703Y3581806D01*
X2517089Y3581349D01*
X2503627Y3579114D01*
X2490622Y3575050D01*
X2478227Y3569309D01*
X2466746Y3561994D01*
X2456332Y3553206D01*
X2447188Y3543046D01*
X2439466Y3531819D01*
X2433320Y3519678D01*
X2428849Y3506774D01*
X2426106Y3493414D01*
X2425192Y3479800D01*
X2426106Y3466185D01*
X2428849Y3452825D01*
X2433320Y3439922D01*
X2439466Y3427780D01*
X2447188Y3416554D01*
X2456332Y3406394D01*
X2466746Y3397605D01*
X2478227Y3390290D01*
X2490622Y3384550D01*
X2503627Y3380486D01*
X2517089Y3378250D01*
G37*
G36*
X2784703Y3377793D02*
G01*
X2798267Y3379114D01*
X2811526Y3382314D01*
X2824276Y3387191D01*
X2836214Y3393744D01*
X2847187Y3401822D01*
X2856992Y3411321D01*
X2865475Y3422040D01*
X2872435Y3433775D01*
X2877718Y3446322D01*
X2881325Y3459479D01*
X2883154Y3472992D01*
X2883154Y3486607D01*
X2881325Y3500120D01*
X2877718Y3513277D01*
X2872435Y3525824D01*
X2865475Y3537559D01*
X2856992Y3548278D01*
X2847187Y3557778D01*
X2836214Y3565855D01*
X2824276Y3572408D01*
X2811526Y3577285D01*
X2798267Y3580485D01*
X2784703Y3581806D01*
X2771089Y3581349D01*
X2757627Y3579114D01*
X2744622Y3575050D01*
X2732227Y3569309D01*
X2720746Y3561994D01*
X2710332Y3553206D01*
X2701188Y3543046D01*
X2693466Y3531819D01*
X2687320Y3519678D01*
X2682849Y3506774D01*
X2680106Y3493414D01*
X2679192Y3479800D01*
X2680106Y3466185D01*
X2682849Y3452825D01*
X2687320Y3439922D01*
X2693466Y3427780D01*
X2701188Y3416554D01*
X2710332Y3406394D01*
X2720746Y3397605D01*
X2732227Y3390290D01*
X2744622Y3384550D01*
X2757627Y3380486D01*
X2771089Y3378250D01*
G37*
G36*
X3038703Y3377793D02*
G01*
X3052267Y3379114D01*
X3065526Y3382314D01*
X3078276Y3387191D01*
X3090214Y3393744D01*
X3101187Y3401822D01*
X3110992Y3411321D01*
X3119475Y3422040D01*
X3126435Y3433775D01*
X3131718Y3446322D01*
X3135325Y3459479D01*
X3137154Y3472992D01*
X3137154Y3486607D01*
X3135325Y3500120D01*
X3131718Y3513277D01*
X3126435Y3525824D01*
X3119475Y3537559D01*
X3110992Y3548278D01*
X3101187Y3557778D01*
X3090214Y3565855D01*
X3078276Y3572408D01*
X3065526Y3577285D01*
X3052267Y3580485D01*
X3038703Y3581806D01*
X3025089Y3581349D01*
X3011627Y3579114D01*
X2998622Y3575050D01*
X2986227Y3569309D01*
X2974746Y3561994D01*
X2964332Y3553206D01*
X2955188Y3543046D01*
X2947466Y3531819D01*
X2941320Y3519678D01*
X2936849Y3506774D01*
X2934106Y3493414D01*
X2933192Y3479800D01*
X2934106Y3466185D01*
X2936849Y3452825D01*
X2941320Y3439922D01*
X2947466Y3427780D01*
X2955188Y3416554D01*
X2964332Y3406394D01*
X2974746Y3397605D01*
X2986227Y3390290D01*
X2998622Y3384550D01*
X3011627Y3380486D01*
X3025089Y3378250D01*
G37*
G36*
X2317750Y3388004D02*
G01*
X2328214Y3393744D01*
X2339187Y3401822D01*
X2348992Y3411321D01*
X2357475Y3422040D01*
X2364435Y3433775D01*
X2365095Y3435350D01*
X2317750Y3435350D01*
G37*
G36*
X2228850Y3388156D02*
G01*
X2228850Y3435350D01*
X2181656Y3435350D01*
X2185466Y3427780D01*
X2193188Y3416554D01*
X2202332Y3406394D01*
X2212746Y3397605D01*
X2224227Y3390290D01*
G37*
G36*
X2181656Y3524250D02*
G01*
X2228850Y3524250D01*
X2228850Y3571443D01*
X2224227Y3569309D01*
X2212746Y3561994D01*
X2202332Y3553206D01*
X2193188Y3543046D01*
X2185466Y3531819D01*
G37*
G36*
X2317750Y3524250D02*
G01*
X2365095Y3524250D01*
X2364435Y3525824D01*
X2357475Y3537559D01*
X2348992Y3548278D01*
X2339187Y3557778D01*
X2328214Y3565855D01*
X2317750Y3571595D01*
G37*
G36*
X1231900Y3822192D02*
G01*
X1245514Y3823106D01*
X1258874Y3825849D01*
X1271778Y3830320D01*
X1283919Y3836466D01*
X1295146Y3844188D01*
X1305306Y3853332D01*
X1314094Y3863746D01*
X1321409Y3875227D01*
X1327150Y3887622D01*
X1331214Y3900627D01*
X1333449Y3914089D01*
X1333906Y3927703D01*
X1332585Y3941267D01*
X1329385Y3954526D01*
X1324508Y3967276D01*
X1317955Y3979214D01*
X1309878Y3990187D01*
X1300378Y3999992D01*
X1289659Y4008475D01*
X1277924Y4015435D01*
X1265377Y4020718D01*
X1252220Y4024325D01*
X1238707Y4026154D01*
X1225092Y4026154D01*
X1211580Y4024325D01*
X1198422Y4020718D01*
X1185875Y4015435D01*
X1174140Y4008475D01*
X1163421Y3999992D01*
X1153922Y3990187D01*
X1145844Y3979214D01*
X1139291Y3967276D01*
X1134414Y3954526D01*
X1131214Y3941267D01*
X1129893Y3927703D01*
X1130350Y3914089D01*
X1132586Y3900627D01*
X1136650Y3887622D01*
X1142390Y3875227D01*
X1149705Y3863746D01*
X1158494Y3853332D01*
X1168654Y3844188D01*
X1179880Y3836466D01*
X1192022Y3830320D01*
X1204925Y3825849D01*
X1218285Y3823106D01*
G37*
G36*
X1905000Y4369917D02*
G01*
X1918411Y4370781D01*
X1931619Y4373422D01*
X1944370Y4377740D01*
X1956460Y4383684D01*
X1967636Y4391152D01*
X1977745Y4400042D01*
X1986635Y4410151D01*
X1994103Y4421378D01*
X2000046Y4433417D01*
X2004364Y4446168D01*
X2007006Y4459376D01*
X2007920Y4473143D01*
X2007920Y4518456D01*
X2007006Y4532223D01*
X2004364Y4545431D01*
X2000046Y4558182D01*
X1994103Y4570222D01*
X1986635Y4581448D01*
X1977745Y4591558D01*
X1967636Y4600448D01*
X1956460Y4607915D01*
X1944370Y4613859D01*
X1931619Y4618177D01*
X1918411Y4620818D01*
X1905000Y4621682D01*
X1891588Y4620818D01*
X1878380Y4618177D01*
X1865630Y4613859D01*
X1853539Y4607915D01*
X1842363Y4600448D01*
X1832254Y4591558D01*
X1823364Y4581448D01*
X1815896Y4570222D01*
X1809953Y4558182D01*
X1805635Y4545431D01*
X1802993Y4532223D01*
X1802079Y4518456D01*
X1802079Y4473143D01*
X1802993Y4459376D01*
X1805635Y4446168D01*
X1809953Y4433417D01*
X1815896Y4421378D01*
X1823364Y4410151D01*
X1832254Y4400042D01*
X1842363Y4391152D01*
X1853539Y4383684D01*
X1865630Y4377740D01*
X1878380Y4373422D01*
X1891588Y4370781D01*
G37*
G36*
X2667000Y4369917D02*
G01*
X2680411Y4370781D01*
X2693619Y4373422D01*
X2706370Y4377740D01*
X2718460Y4383684D01*
X2729636Y4391152D01*
X2739745Y4400042D01*
X2748635Y4410151D01*
X2756103Y4421378D01*
X2762046Y4433417D01*
X2766364Y4446168D01*
X2769006Y4459376D01*
X2769920Y4473143D01*
X2769920Y4518456D01*
X2769006Y4532223D01*
X2766364Y4545431D01*
X2762046Y4558182D01*
X2756103Y4570222D01*
X2748635Y4581448D01*
X2739745Y4591558D01*
X2729636Y4600448D01*
X2718460Y4607915D01*
X2706370Y4613859D01*
X2693619Y4618177D01*
X2680411Y4620818D01*
X2667000Y4621682D01*
X2653588Y4620818D01*
X2640380Y4618177D01*
X2627630Y4613859D01*
X2615539Y4607915D01*
X2604363Y4600448D01*
X2594254Y4591558D01*
X2585364Y4581448D01*
X2577896Y4570222D01*
X2571953Y4558182D01*
X2567635Y4545431D01*
X2564993Y4532223D01*
X2564079Y4518456D01*
X2564079Y4473143D01*
X2564993Y4459376D01*
X2567635Y4446168D01*
X2571953Y4433417D01*
X2577896Y4421378D01*
X2585364Y4410151D01*
X2594254Y4400042D01*
X2604363Y4391152D01*
X2615539Y4383684D01*
X2627630Y4377740D01*
X2640380Y4373422D01*
X2653588Y4370781D01*
G37*
G36*
X2921000Y4369917D02*
G01*
X2934411Y4370781D01*
X2947619Y4373422D01*
X2960370Y4377740D01*
X2972460Y4383684D01*
X2983636Y4391152D01*
X2993745Y4400042D01*
X3002635Y4410151D01*
X3010103Y4421378D01*
X3016046Y4433417D01*
X3020364Y4446168D01*
X3023006Y4459376D01*
X3023920Y4473143D01*
X3023920Y4518456D01*
X3023006Y4532223D01*
X3020364Y4545431D01*
X3016046Y4558182D01*
X3010103Y4570222D01*
X3002635Y4581448D01*
X2993745Y4591558D01*
X2983636Y4600448D01*
X2972460Y4607915D01*
X2960370Y4613859D01*
X2947619Y4618177D01*
X2934411Y4620818D01*
X2921000Y4621682D01*
X2907588Y4620818D01*
X2894380Y4618177D01*
X2881630Y4613859D01*
X2869539Y4607915D01*
X2858363Y4600448D01*
X2848254Y4591558D01*
X2839364Y4581448D01*
X2831896Y4570222D01*
X2825953Y4558182D01*
X2821635Y4545431D01*
X2818993Y4532223D01*
X2818079Y4518456D01*
X2818079Y4473143D01*
X2818993Y4459376D01*
X2821635Y4446168D01*
X2825953Y4433417D01*
X2831896Y4421378D01*
X2839364Y4410151D01*
X2848254Y4400042D01*
X2858363Y4391152D01*
X2869539Y4383684D01*
X2881630Y4377740D01*
X2894380Y4373422D01*
X2907588Y4370781D01*
G37*
G36*
X2159000Y4369917D02*
G01*
X2172411Y4370781D01*
X2185619Y4373422D01*
X2198370Y4377740D01*
X2210460Y4383684D01*
X2221636Y4391152D01*
X2231745Y4400042D01*
X2240635Y4410151D01*
X2248103Y4421378D01*
X2254046Y4433417D01*
X2258364Y4446168D01*
X2261006Y4459376D01*
X2261920Y4473143D01*
X2261920Y4518456D01*
X2261006Y4532223D01*
X2258364Y4545431D01*
X2254046Y4558182D01*
X2248103Y4570222D01*
X2240635Y4581448D01*
X2231745Y4591558D01*
X2221636Y4600448D01*
X2210460Y4607915D01*
X2198370Y4613859D01*
X2185619Y4618177D01*
X2172411Y4620818D01*
X2159000Y4621682D01*
X2145588Y4620818D01*
X2132380Y4618177D01*
X2119630Y4613859D01*
X2107539Y4607915D01*
X2096363Y4600448D01*
X2086254Y4591558D01*
X2077364Y4581448D01*
X2069896Y4570222D01*
X2063953Y4558182D01*
X2059635Y4545431D01*
X2056993Y4532223D01*
X2056079Y4518456D01*
X2056079Y4473143D01*
X2056993Y4459376D01*
X2059635Y4446168D01*
X2063953Y4433417D01*
X2069896Y4421378D01*
X2077364Y4410151D01*
X2086254Y4400042D01*
X2096363Y4391152D01*
X2107539Y4383684D01*
X2119630Y4377740D01*
X2132380Y4373422D01*
X2145588Y4370781D01*
G37*
G36*
X2413000Y4369917D02*
G01*
X2426411Y4370781D01*
X2439619Y4373422D01*
X2452370Y4377740D01*
X2464460Y4383684D01*
X2475636Y4391152D01*
X2485745Y4400042D01*
X2494635Y4410151D01*
X2502103Y4421378D01*
X2508046Y4433417D01*
X2512364Y4446168D01*
X2515006Y4459376D01*
X2515920Y4473143D01*
X2515920Y4518456D01*
X2515006Y4532223D01*
X2512364Y4545431D01*
X2508046Y4558182D01*
X2502103Y4570222D01*
X2494635Y4581448D01*
X2485745Y4591558D01*
X2475636Y4600448D01*
X2464460Y4607915D01*
X2452370Y4613859D01*
X2439619Y4618177D01*
X2426411Y4620818D01*
X2413000Y4621682D01*
X2399588Y4620818D01*
X2386380Y4618177D01*
X2373630Y4613859D01*
X2361539Y4607915D01*
X2350363Y4600448D01*
X2340254Y4591558D01*
X2331364Y4581448D01*
X2323896Y4570222D01*
X2317953Y4558182D01*
X2313635Y4545431D01*
X2310993Y4532223D01*
X2310079Y4518456D01*
X2310079Y4473143D01*
X2310993Y4459376D01*
X2313635Y4446168D01*
X2317953Y4433417D01*
X2323896Y4421378D01*
X2331364Y4410151D01*
X2340254Y4400042D01*
X2350363Y4391152D01*
X2361539Y4383684D01*
X2373630Y4377740D01*
X2386380Y4373422D01*
X2399588Y4370781D01*
G37*
G36*
X3175000Y4369917D02*
G01*
X3188411Y4370781D01*
X3201619Y4373422D01*
X3214370Y4377740D01*
X3226460Y4383684D01*
X3237636Y4391152D01*
X3247745Y4400042D01*
X3256635Y4410151D01*
X3264103Y4421378D01*
X3270046Y4433417D01*
X3274364Y4446168D01*
X3277006Y4459376D01*
X3277920Y4473143D01*
X3277920Y4518456D01*
X3277006Y4532223D01*
X3274364Y4545431D01*
X3270046Y4558182D01*
X3264103Y4570222D01*
X3256635Y4581448D01*
X3247745Y4591558D01*
X3237636Y4600448D01*
X3226460Y4607915D01*
X3214370Y4613859D01*
X3201619Y4618177D01*
X3188411Y4620818D01*
X3175000Y4621682D01*
X3161588Y4620818D01*
X3148380Y4618177D01*
X3135630Y4613859D01*
X3123539Y4607915D01*
X3112363Y4600448D01*
X3102254Y4591558D01*
X3093364Y4581448D01*
X3085896Y4570222D01*
X3079953Y4558182D01*
X3075635Y4545431D01*
X3072993Y4532223D01*
X3072079Y4518456D01*
X3072079Y4473143D01*
X3072993Y4459376D01*
X3075635Y4446168D01*
X3079953Y4433417D01*
X3085896Y4421378D01*
X3093364Y4410151D01*
X3102254Y4400042D01*
X3112363Y4391152D01*
X3123539Y4383684D01*
X3135630Y4377740D01*
X3148380Y4373422D01*
X3161588Y4370781D01*
G37*
G36*
X3384143Y4380433D02*
G01*
X3384143Y4439462D01*
X3331921Y4439462D01*
X3333953Y4433417D01*
X3339896Y4421378D01*
X3347364Y4410151D01*
X3356254Y4400042D01*
X3366363Y4391152D01*
X3377539Y4383684D01*
G37*
G36*
X3473856Y4380433D02*
G01*
X3480460Y4383684D01*
X3491636Y4391152D01*
X3501745Y4400042D01*
X3510635Y4410151D01*
X3518103Y4421378D01*
X3524046Y4433417D01*
X3526078Y4439462D01*
X3473856Y4439462D01*
G37*
G36*
X3331921Y4552137D02*
G01*
X3384143Y4552137D01*
X3384143Y4611166D01*
X3377539Y4607915D01*
X3366363Y4600448D01*
X3356254Y4591558D01*
X3347364Y4581448D01*
X3339896Y4570222D01*
X3333953Y4558182D01*
G37*
G36*
X3473856Y4552137D02*
G01*
X3526078Y4552137D01*
X3524046Y4558182D01*
X3518103Y4570222D01*
X3510635Y4581448D01*
X3501745Y4591558D01*
X3491636Y4600448D01*
X3480460Y4607915D01*
X3473856Y4611166D01*
G37*
G36*
X1231900Y4584192D02*
G01*
X1245514Y4585106D01*
X1258874Y4587849D01*
X1271778Y4592320D01*
X1283919Y4598466D01*
X1295146Y4606188D01*
X1305306Y4615332D01*
X1314094Y4625746D01*
X1321409Y4637227D01*
X1327150Y4649622D01*
X1331214Y4662627D01*
X1333449Y4676089D01*
X1333906Y4689703D01*
X1332585Y4703267D01*
X1329385Y4716526D01*
X1324508Y4729276D01*
X1317955Y4741214D01*
X1309878Y4752187D01*
X1300378Y4761992D01*
X1289659Y4770475D01*
X1277924Y4777435D01*
X1265377Y4782718D01*
X1252220Y4786325D01*
X1238707Y4788154D01*
X1225092Y4788154D01*
X1211580Y4786325D01*
X1198422Y4782718D01*
X1185875Y4777435D01*
X1174140Y4770475D01*
X1163421Y4761992D01*
X1153922Y4752187D01*
X1145844Y4741214D01*
X1139291Y4729276D01*
X1134414Y4716526D01*
X1131214Y4703267D01*
X1129893Y4689703D01*
X1130350Y4676089D01*
X1132586Y4662627D01*
X1136650Y4649622D01*
X1142390Y4637227D01*
X1149705Y4625746D01*
X1158494Y4615332D01*
X1168654Y4606188D01*
X1179880Y4598466D01*
X1192022Y4592320D01*
X1204925Y4587849D01*
X1218285Y4585106D01*
G37*
G36*
X1618488Y5397500D02*
G01*
X1631137Y5398414D01*
X1643532Y5401106D01*
X1655419Y5405526D01*
X1666544Y5411622D01*
X1676704Y5419242D01*
X1685645Y5428183D01*
X1693265Y5438343D01*
X1699361Y5449468D01*
X1703781Y5461355D01*
X1706473Y5473750D01*
X1707388Y5486400D01*
X1706473Y5499049D01*
X1703781Y5511444D01*
X1699361Y5523331D01*
X1693265Y5534456D01*
X1685645Y5544616D01*
X1676704Y5553557D01*
X1666544Y5561177D01*
X1655419Y5567273D01*
X1643532Y5571693D01*
X1631137Y5574385D01*
X1618488Y5575300D01*
X1605838Y5574385D01*
X1593443Y5571693D01*
X1581556Y5567273D01*
X1570431Y5561177D01*
X1560271Y5553557D01*
X1551330Y5544616D01*
X1543710Y5534456D01*
X1537665Y5523331D01*
X1533194Y5511444D01*
X1530502Y5499049D01*
X1529638Y5486400D01*
X1530502Y5473750D01*
X1533194Y5461355D01*
X1537665Y5449468D01*
X1543710Y5438343D01*
X1551330Y5428183D01*
X1560271Y5419242D01*
X1570431Y5411622D01*
X1581556Y5405526D01*
X1593443Y5401106D01*
X1605838Y5398414D01*
G37*
G36*
X3774846Y5513679D02*
G01*
X4073753Y5513679D01*
X4080052Y5514390D01*
X4085488Y5516321D01*
X4090415Y5519420D01*
X4094479Y5523484D01*
X4097578Y5528411D01*
X4099509Y5533847D01*
X4100220Y5540146D01*
X4100220Y5839053D01*
X4099509Y5845352D01*
X4097578Y5850788D01*
X4094479Y5855716D01*
X4090415Y5859780D01*
X4085488Y5862878D01*
X4080052Y5864809D01*
X4073753Y5865520D01*
X3774846Y5865520D01*
X3768547Y5864809D01*
X3763111Y5862878D01*
X3758184Y5859780D01*
X3754120Y5855716D01*
X3751021Y5850788D01*
X3749090Y5845352D01*
X3748379Y5839053D01*
X3748379Y5540146D01*
X3749090Y5533847D01*
X3751021Y5528411D01*
X3754120Y5523484D01*
X3758184Y5519420D01*
X3763111Y5516321D01*
X3768547Y5514390D01*
G37*
G36*
X2758846Y5513679D02*
G01*
X3057753Y5513679D01*
X3064052Y5514390D01*
X3069488Y5516321D01*
X3074416Y5519420D01*
X3078480Y5523484D01*
X3081578Y5528411D01*
X3083509Y5533847D01*
X3084220Y5540146D01*
X3084220Y5839053D01*
X3083509Y5845352D01*
X3081578Y5850788D01*
X3078480Y5855716D01*
X3074416Y5859780D01*
X3069488Y5862878D01*
X3064052Y5864809D01*
X3057753Y5865520D01*
X2758846Y5865520D01*
X2752547Y5864809D01*
X2747111Y5862878D01*
X2742184Y5859780D01*
X2738120Y5855716D01*
X2735021Y5850788D01*
X2733090Y5845352D01*
X2732379Y5839053D01*
X2732379Y5540146D01*
X2733090Y5533847D01*
X2735021Y5528411D01*
X2738120Y5523484D01*
X2742184Y5519420D01*
X2747111Y5516321D01*
X2752547Y5514390D01*
G37*
G36*
X2324100Y5581700D02*
G01*
X2336749Y5582615D01*
X2349144Y5585307D01*
X2361031Y5589727D01*
X2372156Y5595823D01*
X2382316Y5603443D01*
X2391257Y5612384D01*
X2398877Y5622544D01*
X2404973Y5633669D01*
X2409393Y5645556D01*
X2412085Y5657951D01*
X2413000Y5670600D01*
X2412085Y5683250D01*
X2409393Y5695645D01*
X2404973Y5707532D01*
X2398877Y5718657D01*
X2391257Y5728817D01*
X2382316Y5737758D01*
X2372156Y5745378D01*
X2361031Y5751474D01*
X2349144Y5755894D01*
X2336749Y5758586D01*
X2324100Y5759500D01*
X2311450Y5758586D01*
X2299055Y5755894D01*
X2287168Y5751474D01*
X2276043Y5745378D01*
X2265883Y5737758D01*
X2256942Y5728817D01*
X2249322Y5718657D01*
X2243226Y5707532D01*
X2238806Y5695645D01*
X2236114Y5683250D01*
X2235200Y5670600D01*
X2236114Y5657951D01*
X2238806Y5645556D01*
X2243226Y5633669D01*
X2249322Y5622544D01*
X2256942Y5612384D01*
X2265883Y5603443D01*
X2276043Y5595823D01*
X2287168Y5589727D01*
X2299055Y5585307D01*
X2311450Y5582615D01*
G37*
G36*
X698500Y5803900D02*
G01*
X711149Y5804814D01*
X723544Y5807506D01*
X735431Y5811926D01*
X746556Y5818022D01*
X756716Y5825642D01*
X765657Y5834583D01*
X773277Y5844743D01*
X779322Y5855868D01*
X783793Y5867755D01*
X786485Y5880150D01*
X787400Y5892800D01*
X786485Y5905449D01*
X783793Y5917844D01*
X779322Y5929731D01*
X773277Y5940856D01*
X765657Y5951016D01*
X756716Y5959957D01*
X746556Y5967577D01*
X735431Y5973673D01*
X723544Y5978093D01*
X711149Y5980785D01*
X698500Y5981700D01*
X685850Y5980785D01*
X673455Y5978093D01*
X661568Y5973673D01*
X650443Y5967577D01*
X640283Y5959957D01*
X631342Y5951016D01*
X623722Y5940856D01*
X617626Y5929731D01*
X613206Y5917844D01*
X610514Y5905449D01*
X609600Y5892800D01*
X610514Y5880150D01*
X613206Y5867755D01*
X617626Y5855868D01*
X623722Y5844743D01*
X631342Y5834583D01*
X640283Y5825642D01*
X650443Y5818022D01*
X661568Y5811926D01*
X673455Y5807506D01*
X685850Y5804814D01*
G37*
G36*
X698500Y6134100D02*
G01*
X711149Y6135014D01*
X723544Y6137706D01*
X735431Y6142126D01*
X746556Y6148222D01*
X756716Y6155842D01*
X765657Y6164783D01*
X773277Y6174943D01*
X779322Y6186068D01*
X783793Y6197955D01*
X786485Y6210350D01*
X787400Y6223000D01*
X786485Y6235649D01*
X783793Y6248044D01*
X779322Y6259931D01*
X773277Y6271056D01*
X765657Y6281216D01*
X756716Y6290157D01*
X746556Y6297777D01*
X735431Y6303873D01*
X723544Y6308293D01*
X711149Y6310985D01*
X698500Y6311900D01*
X685850Y6310985D01*
X673455Y6308293D01*
X661568Y6303873D01*
X650443Y6297777D01*
X640283Y6290157D01*
X631342Y6281216D01*
X623722Y6271056D01*
X617626Y6259931D01*
X613206Y6248044D01*
X610514Y6235649D01*
X609600Y6223000D01*
X610514Y6210350D01*
X613206Y6197955D01*
X617626Y6186068D01*
X623722Y6174943D01*
X631342Y6164783D01*
X640283Y6155842D01*
X650443Y6148222D01*
X661568Y6142126D01*
X673455Y6137706D01*
X685850Y6135014D01*
G37*
G36*
X3787546Y6275679D02*
G01*
X4086453Y6275679D01*
X4092752Y6276390D01*
X4098188Y6278321D01*
X4103115Y6281420D01*
X4107179Y6285484D01*
X4110278Y6290411D01*
X4112209Y6295847D01*
X4112920Y6302146D01*
X4112920Y6601053D01*
X4112209Y6607352D01*
X4110278Y6612788D01*
X4107179Y6617716D01*
X4103115Y6621780D01*
X4098188Y6624878D01*
X4092752Y6626809D01*
X4086453Y6627520D01*
X3787546Y6627520D01*
X3781247Y6626809D01*
X3775811Y6624878D01*
X3770884Y6621780D01*
X3766820Y6617716D01*
X3763721Y6612788D01*
X3761790Y6607352D01*
X3761079Y6601053D01*
X3761079Y6302146D01*
X3761790Y6295847D01*
X3763721Y6290411D01*
X3766820Y6285484D01*
X3770884Y6281420D01*
X3775811Y6278321D01*
X3781247Y6276390D01*
G37*
G36*
X2771546Y6275679D02*
G01*
X3070453Y6275679D01*
X3076752Y6276390D01*
X3082188Y6278321D01*
X3087116Y6281420D01*
X3091180Y6285484D01*
X3094278Y6290411D01*
X3096209Y6295847D01*
X3096920Y6302146D01*
X3096920Y6601053D01*
X3096209Y6607352D01*
X3094278Y6612788D01*
X3091180Y6617716D01*
X3087116Y6621780D01*
X3082188Y6624878D01*
X3076752Y6626809D01*
X3070453Y6627520D01*
X2771546Y6627520D01*
X2765247Y6626809D01*
X2759811Y6624878D01*
X2754884Y6621780D01*
X2750820Y6617716D01*
X2747721Y6612788D01*
X2745790Y6607352D01*
X2745079Y6601053D01*
X2745079Y6302146D01*
X2745790Y6295847D01*
X2747721Y6290411D01*
X2750820Y6285484D01*
X2754884Y6281420D01*
X2759811Y6278321D01*
X2765247Y6276390D01*
G37*
G36*
X2324100Y6381699D02*
G01*
X2336749Y6382613D01*
X2349144Y6385306D01*
X2361031Y6389725D01*
X2372156Y6395821D01*
X2382316Y6403441D01*
X2391257Y6412382D01*
X2398877Y6422542D01*
X2404922Y6433667D01*
X2409393Y6445554D01*
X2412085Y6457950D01*
X2413000Y6470599D01*
X2412085Y6483248D01*
X2409393Y6495643D01*
X2404922Y6507530D01*
X2398877Y6518656D01*
X2391257Y6528816D01*
X2382316Y6537756D01*
X2372156Y6545376D01*
X2361031Y6551472D01*
X2349144Y6555892D01*
X2336749Y6558584D01*
X2324100Y6559499D01*
X2311450Y6558584D01*
X2299055Y6555892D01*
X2287168Y6551472D01*
X2276043Y6545376D01*
X2265883Y6537756D01*
X2256942Y6528816D01*
X2249322Y6518656D01*
X2243226Y6507530D01*
X2238806Y6495643D01*
X2236114Y6483248D01*
X2235200Y6470599D01*
X2236114Y6457950D01*
X2238806Y6445554D01*
X2243226Y6433667D01*
X2249322Y6422542D01*
X2256942Y6412382D01*
X2265883Y6403441D01*
X2276043Y6395821D01*
X2287168Y6389725D01*
X2299055Y6385306D01*
X2311450Y6382613D01*
G37*
G36*
X1580642Y6599834D02*
G01*
X1580642Y6642353D01*
X1538173Y6642353D01*
X1543710Y6632143D01*
X1551330Y6621983D01*
X1560271Y6613042D01*
X1570431Y6605422D01*
G37*
G36*
X1656334Y6599834D02*
G01*
X1666544Y6605422D01*
X1676704Y6613042D01*
X1685645Y6621983D01*
X1693265Y6632143D01*
X1698853Y6642353D01*
X1656334Y6642353D01*
G37*
G36*
X1538173Y6718046D02*
G01*
X1580642Y6718046D01*
X1580642Y6760565D01*
X1570431Y6754977D01*
X1560271Y6747357D01*
X1551330Y6738416D01*
X1543710Y6728256D01*
G37*
G36*
X1656334Y6718046D02*
G01*
X1698853Y6718046D01*
X1693265Y6728256D01*
X1685645Y6738416D01*
X1676704Y6747357D01*
X1666544Y6754977D01*
X1656334Y6760565D01*
G37*

%LPD*%
D10*
X3276600Y1194688D02*
G01*
X3645788Y1194688D01*
X3886200Y1435100D01*
X3886200Y1993900D01*
X4292600Y2400300D01*
X2273300Y3225800D02*
G01*
X2171700Y3225800D01*
X2057400Y3111500D01*
X1892300Y3111500D01*
D11*
G01*
X2273300Y3225800D03*
G01*
X2527300Y3225800D03*
G01*
X2781300Y3225800D03*
G01*
X3035300Y3225800D03*
G01*
X3035300Y3479800D03*
G01*
X2781300Y3479800D03*
G01*
X2527300Y3479800D03*
G01*
X2273300Y3479800D03*
D12*
G01*
X1905000Y4495800D03*
G01*
X2159000Y4495800D03*
G01*
X2667000Y4495800D03*
G01*
X2921000Y4495800D03*
G01*
X2413000Y4495800D03*
G01*
X3175000Y4495800D03*
G01*
X3429000Y4495800D03*
D13*
G01*
X3416300Y-190500D03*
G01*
X3416300Y63500D03*
G01*
X3416300Y317500D03*
G01*
X3416300Y571500D03*
G01*
X3416300Y825500D03*
G01*
X3416300Y1079500D03*
G01*
X3416300Y1333500D03*
G01*
X3416300Y1587500D03*
G01*
X3416300Y1841500D03*
G01*
X3416300Y2095500D03*
G01*
X3416300Y2349500D03*
G01*
X3416300Y2603500D03*
G01*
X3416300Y2857500D03*
G01*
X3416300Y3111500D03*
G01*
X3416300Y3365500D03*
G01*
X1892300Y3365500D03*
G01*
X1892300Y3111500D03*
G01*
X1892300Y2857500D03*
G01*
X1892300Y2603500D03*
G01*
X1892300Y2349500D03*
G01*
X1892300Y2095500D03*
G01*
X1892300Y1841500D03*
G01*
X1892300Y1587500D03*
G01*
X1892300Y1333500D03*
G01*
X1892300Y1079500D03*
G01*
X1892300Y825500D03*
G01*
X1892300Y571500D03*
G01*
X1892300Y317500D03*
G01*
X1892300Y63500D03*
G01*
X1892300Y-190500D03*
D14*
G01*
X1892300Y-444500D03*
G01*
X3416300Y-444500D03*
G01*
X3416300Y3619500D03*
G01*
X1892300Y3619500D03*
D13*
G01*
X1168400Y2057400D03*
G01*
X1168400Y2311400D03*
G01*
X1168400Y2565400D03*
G01*
X1168400Y2819400D03*
G01*
X1168400Y3073400D03*
G01*
X1168400Y3327400D03*
D15*
G01*
X4292600Y2120900D03*
G01*
X4292600Y2400300D03*
G01*
X4292600Y2705100D03*
D16*
G01*
X4102100Y1562100D03*
D17*
G01*
X4356100Y1562100D03*
D18*
G01*
X1092200Y609600D03*
G01*
X1092200Y863600D03*
G01*
X1092200Y1117600D03*
G01*
X1092200Y1371600D03*
D19*
G01*
X2006600Y1194688D03*
G01*
X2260600Y1194688D03*
G01*
X2514600Y1194688D03*
G01*
X2768600Y1194688D03*
G01*
X3022600Y1194688D03*
G01*
X3276600Y1194688D03*
G01*
X2324100Y5670600D03*
G01*
X2324100Y6470599D03*
G01*
X1618487Y6680200D03*
G01*
X1618487Y5486400D03*
G01*
X698500Y6223000D03*
G01*
X698500Y5892800D03*
D20*
G01*
X2921000Y6451600D03*
G01*
X3937000Y6451600D03*
G01*
X3924300Y5689600D03*
G01*
X2908300Y5689600D03*
D11*
G01*
X1231900Y3924300D03*
G01*
X1231900Y4686300D03*
M02*
