M48
METRIC,LZ,000.000
;FILE_FORMAT=3:3
;TYPE=PLATED
;Layer: PTH_Through
;EasyEDA v6.5.40, 2024-04-09 13:00:43
;4fed56741cb74346b3e77f28756fcebd,df7e7e3c38a3447abd37b529b333d242,10
;Gerber Generator version 0.2
;Holesize 1 = 0.600 mm
T01C0.600
;Holesize 2 = 0.686 mm
T02C0.686
%
G05
G90
T01
X050292Y073406
X050292Y075946
X050292Y078486
X050292Y081026
X050292Y083566
X050292Y086106
T02
X023958Y072586
X023988Y066596
X030478Y072526
X030478Y066596
X013141Y082873
X013171Y076883
X019661Y082813
X019661Y076883
X023958Y082873
X023988Y076883
X030478Y082813
X030478Y076883
X034775Y082873
X034805Y076883
X041295Y082813
X041295Y076883
X023958Y093160
X023988Y087170
X030478Y093100
X030478Y087170
M30
