G04 Layer: BottomLayer*
G04 EasyEDA v6.5.40, 2024-04-09 13:00:43*
G04 4fed56741cb74346b3e77f28756fcebd,df7e7e3c38a3447abd37b529b333d242,10*
G04 Gerber Generator version 0.2*
G04 Scale: 100 percent, Rotated: No, Reflected: No *
G04 Dimensions in millimeters *
G04 leading zeros omitted , absolute positions ,4 integer and 5 decimal *
%FSLAX45Y45*%
%MOMM*%

%ADD10C,2.5400*%
%ADD11C,1.5000*%

%LPD*%
G36*
X1140460Y6172200D02*
G01*
X1136548Y6172962D01*
X1133297Y6175197D01*
X1131062Y6178448D01*
X1130300Y6182360D01*
X1130300Y9502140D01*
X1131062Y9506051D01*
X1133297Y9509302D01*
X1136548Y9511538D01*
X1140460Y9512300D01*
X5603240Y9512300D01*
X5607151Y9511538D01*
X5610402Y9509302D01*
X5612638Y9506051D01*
X5613400Y9502140D01*
X5613400Y6182360D01*
X5612638Y6178448D01*
X5610402Y6175197D01*
X5607151Y6172962D01*
X5603240Y6172200D01*
G37*

%LPC*%
G36*
X3052013Y6506768D02*
G01*
X3068777Y6508140D01*
X3085338Y6511391D01*
X3101390Y6516420D01*
X3116834Y6523177D01*
X3131413Y6531609D01*
X3144977Y6541566D01*
X3157372Y6552996D01*
X3168446Y6565696D01*
X3178048Y6579514D01*
X3186074Y6594348D01*
X3192424Y6609943D01*
X3196996Y6626148D01*
X3199739Y6642760D01*
X3200704Y6659575D01*
X3199739Y6676390D01*
X3196996Y6693001D01*
X3192424Y6709206D01*
X3186074Y6724853D01*
X3178048Y6739636D01*
X3168446Y6753504D01*
X3157372Y6766204D01*
X3144977Y6777583D01*
X3131413Y6787591D01*
X3116834Y6796024D01*
X3101390Y6802780D01*
X3085338Y6807809D01*
X3068777Y6811009D01*
X3052013Y6812432D01*
X3035147Y6811975D01*
X3018485Y6809638D01*
X3002178Y6805523D01*
X2986379Y6799580D01*
X2971342Y6792010D01*
X2957220Y6782765D01*
X2944266Y6772097D01*
X2932480Y6760006D01*
X2922168Y6746697D01*
X2913329Y6732371D01*
X2906115Y6717131D01*
X2900680Y6701180D01*
X2896971Y6684772D01*
X2895142Y6668008D01*
X2895142Y6651142D01*
X2896971Y6634429D01*
X2900680Y6617970D01*
X2906115Y6602069D01*
X2913329Y6586829D01*
X2922168Y6572453D01*
X2932480Y6559194D01*
X2944266Y6547104D01*
X2957220Y6536385D01*
X2971342Y6527190D01*
X2986379Y6519570D01*
X3002178Y6513677D01*
X3018485Y6509512D01*
X3035147Y6507226D01*
G37*
G36*
X2402992Y6506768D02*
G01*
X2419807Y6508140D01*
X2436317Y6511391D01*
X2452420Y6516420D01*
X2467813Y6523177D01*
X2482443Y6531609D01*
X2496007Y6541566D01*
X2508402Y6552996D01*
X2519426Y6565696D01*
X2529027Y6579514D01*
X2537053Y6594348D01*
X2543403Y6609943D01*
X2547975Y6626148D01*
X2550769Y6642760D01*
X2551684Y6659575D01*
X2550769Y6676390D01*
X2547975Y6693001D01*
X2543403Y6709206D01*
X2537053Y6724853D01*
X2529027Y6739636D01*
X2519426Y6753504D01*
X2508402Y6766204D01*
X2496007Y6777583D01*
X2482443Y6787591D01*
X2467813Y6796024D01*
X2452420Y6802780D01*
X2436317Y6807809D01*
X2419807Y6811009D01*
X2402992Y6812432D01*
X2386177Y6811975D01*
X2369464Y6809638D01*
X2353157Y6805523D01*
X2337358Y6799580D01*
X2322372Y6792010D01*
X2308250Y6782765D01*
X2295245Y6772097D01*
X2283510Y6760006D01*
X2273147Y6746697D01*
X2264308Y6732371D01*
X2257145Y6717131D01*
X2251659Y6701180D01*
X2248001Y6684772D01*
X2246122Y6668008D01*
X2246122Y6651142D01*
X2248001Y6634429D01*
X2251659Y6617970D01*
X2257145Y6602069D01*
X2264308Y6586829D01*
X2273147Y6572453D01*
X2283510Y6559194D01*
X2295245Y6547104D01*
X2308250Y6536385D01*
X2322372Y6527190D01*
X2337358Y6519570D01*
X2353157Y6513677D01*
X2369464Y6509512D01*
X2386177Y6507226D01*
G37*
G36*
X3052013Y7099757D02*
G01*
X3068777Y7101128D01*
X3085338Y7104380D01*
X3101390Y7109409D01*
X3116834Y7116165D01*
X3131413Y7124598D01*
X3144977Y7134555D01*
X3157372Y7145985D01*
X3168446Y7158685D01*
X3178048Y7172502D01*
X3186074Y7187336D01*
X3192424Y7202931D01*
X3196996Y7219137D01*
X3199739Y7235748D01*
X3200704Y7252563D01*
X3199739Y7269429D01*
X3196996Y7286040D01*
X3192424Y7302246D01*
X3186074Y7317841D01*
X3178048Y7332675D01*
X3168446Y7346492D01*
X3157372Y7359192D01*
X3144977Y7370622D01*
X3131413Y7380579D01*
X3116834Y7389012D01*
X3101390Y7395768D01*
X3085338Y7400798D01*
X3068777Y7404049D01*
X3052013Y7405420D01*
X3035147Y7404963D01*
X3018485Y7402626D01*
X3002178Y7398512D01*
X2986379Y7392619D01*
X2971342Y7384999D01*
X2957220Y7375804D01*
X2944266Y7365085D01*
X2932480Y7352995D01*
X2922168Y7339685D01*
X2913329Y7325359D01*
X2906115Y7310120D01*
X2900680Y7294168D01*
X2896971Y7277760D01*
X2895142Y7260996D01*
X2895142Y7244181D01*
X2896971Y7227417D01*
X2900680Y7210958D01*
X2906115Y7195058D01*
X2913329Y7179818D01*
X2922168Y7165441D01*
X2932480Y7152182D01*
X2944266Y7140092D01*
X2957220Y7129373D01*
X2971342Y7120178D01*
X2986379Y7112558D01*
X3002178Y7106666D01*
X3018485Y7102551D01*
X3035147Y7100214D01*
G37*
G36*
X2465628Y7122617D02*
G01*
X2479446Y7130592D01*
X2493010Y7140549D01*
X2505405Y7151979D01*
X2516428Y7164679D01*
X2526030Y7178497D01*
X2531567Y7188758D01*
X2465628Y7188758D01*
G37*
G36*
X2325928Y7122820D02*
G01*
X2325928Y7188758D01*
X2259939Y7188758D01*
X2261311Y7185812D01*
X2270150Y7171486D01*
X2280513Y7158177D01*
X2292248Y7146086D01*
X2305253Y7135368D01*
X2319375Y7126173D01*
G37*
G36*
X5022443Y7239965D02*
G01*
X5035956Y7239965D01*
X5049316Y7241743D01*
X5062270Y7245299D01*
X5074716Y7250582D01*
X5086299Y7257440D01*
X5096865Y7265771D01*
X5106263Y7275474D01*
X5114239Y7286294D01*
X5120690Y7298131D01*
X5125567Y7310729D01*
X5128666Y7323836D01*
X5130038Y7337247D01*
X5129580Y7350709D01*
X5127345Y7363968D01*
X5123332Y7376871D01*
X5117693Y7389063D01*
X5110429Y7400442D01*
X5101742Y7410754D01*
X5091734Y7419797D01*
X5080609Y7427417D01*
X5068570Y7433462D01*
X5055870Y7437881D01*
X5042662Y7440574D01*
X5029200Y7441488D01*
X5015738Y7440574D01*
X5002530Y7437881D01*
X4989830Y7433462D01*
X4977790Y7427417D01*
X4966665Y7419797D01*
X4956657Y7410754D01*
X4947970Y7400442D01*
X4940706Y7389063D01*
X4935067Y7376871D01*
X4931054Y7363968D01*
X4928819Y7350709D01*
X4928362Y7337247D01*
X4929733Y7323836D01*
X4932832Y7310729D01*
X4937709Y7298131D01*
X4944160Y7286294D01*
X4952136Y7275474D01*
X4961534Y7265771D01*
X4972100Y7257440D01*
X4983683Y7250582D01*
X4996129Y7245299D01*
X5009083Y7241743D01*
G37*
G36*
X2259939Y7328458D02*
G01*
X2325928Y7328458D01*
X2325928Y7394346D01*
X2319375Y7390993D01*
X2305253Y7381798D01*
X2292248Y7371080D01*
X2280513Y7358989D01*
X2270150Y7345680D01*
X2261311Y7331354D01*
G37*
G36*
X2465628Y7328458D02*
G01*
X2531567Y7328458D01*
X2526030Y7338669D01*
X2516428Y7352487D01*
X2505405Y7365187D01*
X2493010Y7376617D01*
X2479446Y7386574D01*
X2465628Y7394549D01*
G37*
G36*
X5022443Y7493965D02*
G01*
X5035956Y7493965D01*
X5049316Y7495743D01*
X5062270Y7499299D01*
X5074716Y7504582D01*
X5086299Y7511440D01*
X5096865Y7519771D01*
X5106263Y7529474D01*
X5114239Y7540294D01*
X5120690Y7552131D01*
X5125567Y7564729D01*
X5128666Y7577836D01*
X5130038Y7591247D01*
X5129580Y7604709D01*
X5127345Y7617968D01*
X5123332Y7630871D01*
X5117693Y7643063D01*
X5110429Y7654442D01*
X5101742Y7664754D01*
X5091734Y7673797D01*
X5080609Y7681417D01*
X5068570Y7687462D01*
X5055870Y7691881D01*
X5042662Y7694574D01*
X5029200Y7695488D01*
X5015738Y7694574D01*
X5002530Y7691881D01*
X4989830Y7687462D01*
X4977790Y7681417D01*
X4966665Y7673797D01*
X4956657Y7664754D01*
X4947970Y7654442D01*
X4940706Y7643063D01*
X4935067Y7630871D01*
X4931054Y7617968D01*
X4928819Y7604709D01*
X4928362Y7591247D01*
X4929733Y7577836D01*
X4932832Y7564729D01*
X4937709Y7552131D01*
X4944160Y7540294D01*
X4952136Y7529474D01*
X4961534Y7519771D01*
X4972100Y7511440D01*
X4983683Y7504582D01*
X4996129Y7499299D01*
X5009083Y7495743D01*
G37*
G36*
X1970328Y7535468D02*
G01*
X1987092Y7536840D01*
X2003653Y7540091D01*
X2019706Y7545120D01*
X2035149Y7551877D01*
X2049729Y7560309D01*
X2063292Y7570266D01*
X2075688Y7581696D01*
X2086762Y7594396D01*
X2096363Y7608214D01*
X2104390Y7623048D01*
X2110689Y7638643D01*
X2115312Y7654848D01*
X2118055Y7671460D01*
X2118969Y7688275D01*
X2118055Y7705140D01*
X2115312Y7721752D01*
X2110689Y7737957D01*
X2104390Y7753553D01*
X2096363Y7768386D01*
X2086762Y7782204D01*
X2075688Y7794904D01*
X2063292Y7806334D01*
X2049729Y7816291D01*
X2035149Y7824724D01*
X2019706Y7831480D01*
X2003653Y7836509D01*
X1987092Y7839760D01*
X1970328Y7841132D01*
X1953463Y7840675D01*
X1936800Y7838338D01*
X1920443Y7834223D01*
X1904695Y7828330D01*
X1889658Y7820710D01*
X1875536Y7811516D01*
X1862531Y7800797D01*
X1850796Y7788706D01*
X1840433Y7775397D01*
X1831644Y7761071D01*
X1824431Y7745831D01*
X1818995Y7729880D01*
X1815287Y7713472D01*
X1813458Y7696708D01*
X1813458Y7679893D01*
X1815287Y7663129D01*
X1818995Y7646720D01*
X1824431Y7630769D01*
X1831644Y7615529D01*
X1840433Y7601203D01*
X1850796Y7587894D01*
X1862531Y7575803D01*
X1875536Y7565085D01*
X1889658Y7555890D01*
X1904695Y7548270D01*
X1920443Y7542377D01*
X1936800Y7538262D01*
X1953463Y7535925D01*
G37*
G36*
X1321308Y7535468D02*
G01*
X1338122Y7536840D01*
X1354632Y7540091D01*
X1370685Y7545120D01*
X1386128Y7551877D01*
X1400708Y7560309D01*
X1414272Y7570266D01*
X1426667Y7581696D01*
X1437741Y7594396D01*
X1447342Y7608214D01*
X1455369Y7623048D01*
X1461719Y7638643D01*
X1466291Y7654848D01*
X1469085Y7671460D01*
X1469999Y7688275D01*
X1469085Y7705140D01*
X1466291Y7721752D01*
X1461719Y7737957D01*
X1455369Y7753553D01*
X1447342Y7768386D01*
X1437741Y7782204D01*
X1426667Y7794904D01*
X1414272Y7806334D01*
X1400708Y7816291D01*
X1386128Y7824724D01*
X1370685Y7831480D01*
X1354632Y7836509D01*
X1338122Y7839760D01*
X1321308Y7841132D01*
X1304493Y7840675D01*
X1287780Y7838338D01*
X1271473Y7834223D01*
X1255674Y7828330D01*
X1240637Y7820710D01*
X1226566Y7811516D01*
X1213561Y7800797D01*
X1201826Y7788706D01*
X1191463Y7775397D01*
X1182624Y7761071D01*
X1175461Y7745831D01*
X1169974Y7729880D01*
X1166317Y7713472D01*
X1164437Y7696708D01*
X1164437Y7679893D01*
X1166317Y7663129D01*
X1169974Y7646720D01*
X1175461Y7630769D01*
X1182624Y7615529D01*
X1191463Y7601203D01*
X1201826Y7587894D01*
X1213561Y7575803D01*
X1226566Y7565085D01*
X1240637Y7555890D01*
X1255674Y7548270D01*
X1271473Y7542377D01*
X1287780Y7538262D01*
X1304493Y7535925D01*
G37*
G36*
X3484727Y7535468D02*
G01*
X3501491Y7536840D01*
X3518001Y7540091D01*
X3534105Y7545120D01*
X3549548Y7551877D01*
X3564128Y7560309D01*
X3577691Y7570266D01*
X3590086Y7581696D01*
X3601161Y7594396D01*
X3610762Y7608214D01*
X3618737Y7623048D01*
X3625087Y7638643D01*
X3629710Y7654848D01*
X3632454Y7671460D01*
X3633368Y7688275D01*
X3632454Y7705090D01*
X3629710Y7721701D01*
X3625087Y7737906D01*
X3618737Y7753553D01*
X3610762Y7768336D01*
X3601161Y7782204D01*
X3590086Y7794904D01*
X3577691Y7806283D01*
X3564128Y7816291D01*
X3549548Y7824724D01*
X3534105Y7831480D01*
X3518001Y7836509D01*
X3501491Y7839709D01*
X3484727Y7841132D01*
X3467862Y7840675D01*
X3451199Y7838338D01*
X3434842Y7834223D01*
X3419094Y7828280D01*
X3404057Y7820710D01*
X3389934Y7811465D01*
X3376929Y7800797D01*
X3365195Y7788706D01*
X3354832Y7775397D01*
X3346043Y7761071D01*
X3338829Y7745831D01*
X3333394Y7729880D01*
X3329686Y7713472D01*
X3327857Y7696708D01*
X3327857Y7679842D01*
X3329686Y7663129D01*
X3333394Y7646670D01*
X3338829Y7630769D01*
X3346043Y7615529D01*
X3354832Y7601153D01*
X3365195Y7587894D01*
X3376929Y7575803D01*
X3389934Y7565085D01*
X3404057Y7555890D01*
X3419094Y7548270D01*
X3434842Y7542377D01*
X3451199Y7538212D01*
X3467862Y7535925D01*
G37*
G36*
X4133697Y7535468D02*
G01*
X4150512Y7536840D01*
X4167022Y7540091D01*
X4183126Y7545120D01*
X4198518Y7551877D01*
X4213098Y7560309D01*
X4226712Y7570266D01*
X4239056Y7581696D01*
X4250131Y7594396D01*
X4259732Y7608214D01*
X4267758Y7623048D01*
X4274108Y7638643D01*
X4278680Y7654848D01*
X4281474Y7671460D01*
X4282389Y7688275D01*
X4281474Y7705090D01*
X4278680Y7721701D01*
X4274108Y7737906D01*
X4267758Y7753553D01*
X4259732Y7768336D01*
X4250131Y7782204D01*
X4239056Y7794904D01*
X4226712Y7806283D01*
X4213098Y7816291D01*
X4198518Y7824724D01*
X4183126Y7831480D01*
X4167022Y7836509D01*
X4150512Y7839709D01*
X4133697Y7841132D01*
X4116882Y7840675D01*
X4100169Y7838338D01*
X4083862Y7834223D01*
X4068064Y7828280D01*
X4053027Y7820710D01*
X4038955Y7811465D01*
X4025950Y7800797D01*
X4014215Y7788706D01*
X4003852Y7775397D01*
X3995013Y7761071D01*
X3987850Y7745831D01*
X3982364Y7729880D01*
X3978706Y7713472D01*
X3976827Y7696708D01*
X3976827Y7679842D01*
X3978706Y7663129D01*
X3982364Y7646670D01*
X3987850Y7630769D01*
X3995013Y7615529D01*
X4003852Y7601153D01*
X4014215Y7587894D01*
X4025950Y7575803D01*
X4038955Y7565085D01*
X4053027Y7555890D01*
X4068064Y7548270D01*
X4083862Y7542377D01*
X4100169Y7538212D01*
X4116882Y7535925D01*
G37*
G36*
X3052013Y7535468D02*
G01*
X3068777Y7536840D01*
X3085338Y7540091D01*
X3101390Y7545120D01*
X3116834Y7551877D01*
X3131413Y7560309D01*
X3144977Y7570266D01*
X3157372Y7581696D01*
X3168446Y7594396D01*
X3178048Y7608214D01*
X3186074Y7623048D01*
X3192424Y7638643D01*
X3196996Y7654848D01*
X3199739Y7671460D01*
X3200704Y7688275D01*
X3199739Y7705140D01*
X3196996Y7721752D01*
X3192424Y7737957D01*
X3186074Y7753553D01*
X3178048Y7768386D01*
X3168446Y7782204D01*
X3157372Y7794904D01*
X3144977Y7806334D01*
X3131413Y7816291D01*
X3116834Y7824724D01*
X3101390Y7831480D01*
X3085338Y7836509D01*
X3068777Y7839760D01*
X3052013Y7841132D01*
X3035147Y7840675D01*
X3018485Y7838338D01*
X3002178Y7834223D01*
X2986379Y7828330D01*
X2971342Y7820710D01*
X2957220Y7811516D01*
X2944266Y7800797D01*
X2932480Y7788706D01*
X2922168Y7775397D01*
X2913329Y7761071D01*
X2906115Y7745831D01*
X2900680Y7729880D01*
X2896971Y7713472D01*
X2895142Y7696708D01*
X2895142Y7679893D01*
X2896971Y7663129D01*
X2900680Y7646720D01*
X2906115Y7630769D01*
X2913329Y7615529D01*
X2922168Y7601203D01*
X2932480Y7587894D01*
X2944266Y7575803D01*
X2957220Y7565085D01*
X2971342Y7555890D01*
X2986379Y7548270D01*
X3002178Y7542377D01*
X3018485Y7538262D01*
X3035147Y7535925D01*
G37*
G36*
X2402992Y7535468D02*
G01*
X2419807Y7536840D01*
X2436317Y7540091D01*
X2452420Y7545120D01*
X2467813Y7551877D01*
X2482443Y7560309D01*
X2496007Y7570266D01*
X2508402Y7581696D01*
X2519426Y7594396D01*
X2529027Y7608214D01*
X2537053Y7623048D01*
X2543403Y7638643D01*
X2547975Y7654848D01*
X2550769Y7671460D01*
X2551684Y7688275D01*
X2550769Y7705140D01*
X2547975Y7721752D01*
X2543403Y7737957D01*
X2537053Y7753553D01*
X2529027Y7768386D01*
X2519426Y7782204D01*
X2508402Y7794904D01*
X2496007Y7806334D01*
X2482443Y7816291D01*
X2467813Y7824724D01*
X2452420Y7831480D01*
X2436317Y7836509D01*
X2419807Y7839760D01*
X2402992Y7841132D01*
X2386177Y7840675D01*
X2369464Y7838338D01*
X2353157Y7834223D01*
X2337358Y7828330D01*
X2322372Y7820710D01*
X2308250Y7811516D01*
X2295245Y7800797D01*
X2283510Y7788706D01*
X2273147Y7775397D01*
X2264308Y7761071D01*
X2257145Y7745831D01*
X2251659Y7729880D01*
X2248001Y7713472D01*
X2246122Y7696708D01*
X2246122Y7679893D01*
X2248001Y7663129D01*
X2251659Y7646720D01*
X2257145Y7630769D01*
X2264308Y7615529D01*
X2273147Y7601203D01*
X2283510Y7587894D01*
X2295245Y7575803D01*
X2308250Y7565085D01*
X2322372Y7555890D01*
X2337358Y7548270D01*
X2353157Y7542377D01*
X2369464Y7538262D01*
X2386177Y7535925D01*
G37*
G36*
X5022443Y7747965D02*
G01*
X5035956Y7747965D01*
X5049316Y7749743D01*
X5062270Y7753299D01*
X5074716Y7758582D01*
X5086299Y7765440D01*
X5096865Y7773771D01*
X5106263Y7783474D01*
X5114239Y7794294D01*
X5120690Y7806131D01*
X5125567Y7818729D01*
X5128666Y7831836D01*
X5130038Y7845247D01*
X5129580Y7858709D01*
X5127345Y7871968D01*
X5123332Y7884871D01*
X5117693Y7897063D01*
X5110429Y7908442D01*
X5101742Y7918754D01*
X5091734Y7927797D01*
X5080609Y7935417D01*
X5068570Y7941462D01*
X5055870Y7945881D01*
X5042662Y7948574D01*
X5029200Y7949488D01*
X5015738Y7948574D01*
X5002530Y7945881D01*
X4989830Y7941462D01*
X4977790Y7935417D01*
X4966665Y7927797D01*
X4956657Y7918754D01*
X4947970Y7908442D01*
X4940706Y7897063D01*
X4935067Y7884871D01*
X4931054Y7871968D01*
X4928819Y7858709D01*
X4928362Y7845247D01*
X4929733Y7831836D01*
X4932832Y7818729D01*
X4937709Y7806131D01*
X4944160Y7794294D01*
X4952136Y7783474D01*
X4961534Y7773771D01*
X4972100Y7765440D01*
X4983683Y7758582D01*
X4996129Y7753299D01*
X5009083Y7749743D01*
G37*
G36*
X5022443Y8001965D02*
G01*
X5035956Y8001965D01*
X5049316Y8003743D01*
X5062270Y8007299D01*
X5074716Y8012582D01*
X5086299Y8019440D01*
X5096865Y8027771D01*
X5106263Y8037474D01*
X5114239Y8048294D01*
X5120690Y8060131D01*
X5125567Y8072729D01*
X5128666Y8085836D01*
X5130038Y8099247D01*
X5129580Y8112709D01*
X5127345Y8125968D01*
X5123332Y8138871D01*
X5117693Y8151063D01*
X5110429Y8162442D01*
X5101742Y8172754D01*
X5091734Y8181797D01*
X5080609Y8189417D01*
X5068570Y8195462D01*
X5055870Y8199881D01*
X5042662Y8202574D01*
X5029200Y8203488D01*
X5015738Y8202574D01*
X5002530Y8199881D01*
X4989830Y8195462D01*
X4977790Y8189417D01*
X4966665Y8181797D01*
X4956657Y8172754D01*
X4947970Y8162442D01*
X4940706Y8151063D01*
X4935067Y8138871D01*
X4931054Y8125968D01*
X4928819Y8112709D01*
X4928362Y8099247D01*
X4929733Y8085836D01*
X4932832Y8072729D01*
X4937709Y8060131D01*
X4944160Y8048294D01*
X4952136Y8037474D01*
X4961534Y8027771D01*
X4972100Y8019440D01*
X4983683Y8012582D01*
X4996129Y8007299D01*
X5009083Y8003743D01*
G37*
G36*
X1970328Y8128457D02*
G01*
X1987092Y8129879D01*
X2003653Y8133080D01*
X2019706Y8138109D01*
X2035149Y8144865D01*
X2049729Y8153298D01*
X2063292Y8163255D01*
X2075688Y8174685D01*
X2086762Y8187385D01*
X2096363Y8201253D01*
X2104390Y8216036D01*
X2110689Y8231631D01*
X2115312Y8247888D01*
X2118055Y8264499D01*
X2118969Y8281314D01*
X2118055Y8298129D01*
X2115312Y8314740D01*
X2110689Y8330946D01*
X2104390Y8346541D01*
X2096363Y8361375D01*
X2086762Y8375192D01*
X2075688Y8387892D01*
X2063292Y8399322D01*
X2049729Y8409279D01*
X2035149Y8417712D01*
X2019706Y8424468D01*
X2003653Y8429498D01*
X1987092Y8432749D01*
X1970328Y8434120D01*
X1953463Y8433663D01*
X1936800Y8431377D01*
X1920443Y8427212D01*
X1904695Y8421319D01*
X1889658Y8413699D01*
X1875536Y8404504D01*
X1862531Y8393785D01*
X1850796Y8381695D01*
X1840433Y8368436D01*
X1831644Y8354059D01*
X1824431Y8338820D01*
X1818995Y8322919D01*
X1815287Y8306460D01*
X1813458Y8289696D01*
X1813458Y8272881D01*
X1815287Y8256117D01*
X1818995Y8239709D01*
X1824431Y8223758D01*
X1831644Y8208518D01*
X1840433Y8194192D01*
X1850796Y8180882D01*
X1862531Y8168792D01*
X1875536Y8158124D01*
X1889658Y8148878D01*
X1904695Y8141258D01*
X1920443Y8135366D01*
X1936800Y8131251D01*
X1953463Y8128914D01*
G37*
G36*
X4133697Y8128457D02*
G01*
X4150512Y8129828D01*
X4167022Y8133080D01*
X4183126Y8138109D01*
X4198518Y8144865D01*
X4213098Y8153298D01*
X4226712Y8163255D01*
X4239056Y8174685D01*
X4250131Y8187385D01*
X4259732Y8201202D01*
X4267758Y8216036D01*
X4274108Y8231631D01*
X4278680Y8247837D01*
X4281474Y8264448D01*
X4282389Y8281263D01*
X4281474Y8298078D01*
X4278680Y8314740D01*
X4274108Y8330946D01*
X4267758Y8346541D01*
X4259732Y8361324D01*
X4250131Y8375192D01*
X4239056Y8387892D01*
X4226712Y8399322D01*
X4213098Y8409279D01*
X4198518Y8417712D01*
X4183126Y8424468D01*
X4167022Y8429498D01*
X4150512Y8432749D01*
X4133697Y8434120D01*
X4116882Y8433663D01*
X4100169Y8431326D01*
X4083862Y8427212D01*
X4068064Y8421319D01*
X4053027Y8413699D01*
X4038955Y8404504D01*
X4025950Y8393785D01*
X4014215Y8381695D01*
X4003852Y8368385D01*
X3995013Y8354059D01*
X3987850Y8338820D01*
X3982364Y8322868D01*
X3978706Y8306460D01*
X3976827Y8289696D01*
X3976827Y8272881D01*
X3978706Y8256117D01*
X3982364Y8239658D01*
X3987850Y8223758D01*
X3995013Y8208518D01*
X4003852Y8194141D01*
X4014215Y8180882D01*
X4025950Y8168792D01*
X4038955Y8158073D01*
X4053027Y8148878D01*
X4068064Y8141258D01*
X4083862Y8135366D01*
X4100169Y8131251D01*
X4116882Y8128914D01*
G37*
G36*
X3052013Y8128457D02*
G01*
X3068777Y8129879D01*
X3085338Y8133080D01*
X3101390Y8138109D01*
X3116834Y8144865D01*
X3131413Y8153298D01*
X3144977Y8163255D01*
X3157372Y8174685D01*
X3168446Y8187385D01*
X3178048Y8201253D01*
X3186074Y8216036D01*
X3192424Y8231631D01*
X3196996Y8247888D01*
X3199739Y8264499D01*
X3200704Y8281314D01*
X3199739Y8298129D01*
X3196996Y8314740D01*
X3192424Y8330946D01*
X3186074Y8346541D01*
X3178048Y8361375D01*
X3168446Y8375192D01*
X3157372Y8387892D01*
X3144977Y8399322D01*
X3131413Y8409279D01*
X3116834Y8417712D01*
X3101390Y8424468D01*
X3085338Y8429498D01*
X3068777Y8432749D01*
X3052013Y8434120D01*
X3035147Y8433663D01*
X3018485Y8431377D01*
X3002178Y8427212D01*
X2986379Y8421319D01*
X2971342Y8413699D01*
X2957220Y8404504D01*
X2944266Y8393785D01*
X2932480Y8381695D01*
X2922168Y8368436D01*
X2913329Y8354059D01*
X2906115Y8338820D01*
X2900680Y8322919D01*
X2896971Y8306460D01*
X2895142Y8289696D01*
X2895142Y8272881D01*
X2896971Y8256117D01*
X2900680Y8239709D01*
X2906115Y8223758D01*
X2913329Y8208518D01*
X2922168Y8194192D01*
X2932480Y8180882D01*
X2944266Y8168792D01*
X2957220Y8158124D01*
X2971342Y8148878D01*
X2986379Y8141258D01*
X3002178Y8135366D01*
X3018485Y8131251D01*
X3035147Y8128914D01*
G37*
G36*
X3547364Y8151317D02*
G01*
X3561130Y8159292D01*
X3574694Y8169249D01*
X3587089Y8180679D01*
X3598164Y8193379D01*
X3607765Y8207197D01*
X3613251Y8217408D01*
X3547364Y8217408D01*
G37*
G36*
X1383944Y8151368D02*
G01*
X1397711Y8159292D01*
X1411274Y8169300D01*
X1423670Y8180679D01*
X1434744Y8193379D01*
X1444345Y8207248D01*
X1449882Y8217458D01*
X1383944Y8217458D01*
G37*
G36*
X2465628Y8151368D02*
G01*
X2479446Y8159292D01*
X2493010Y8169300D01*
X2505405Y8180679D01*
X2516428Y8193379D01*
X2526030Y8207248D01*
X2531567Y8217458D01*
X2465628Y8217458D01*
G37*
G36*
X3407664Y8151520D02*
G01*
X3407664Y8217408D01*
X3341674Y8217408D01*
X3343046Y8214512D01*
X3351834Y8200186D01*
X3362198Y8186877D01*
X3373932Y8174786D01*
X3386937Y8164068D01*
X3401060Y8154873D01*
G37*
G36*
X2325928Y8151571D02*
G01*
X2325928Y8217458D01*
X2259939Y8217458D01*
X2261311Y8214512D01*
X2270150Y8200186D01*
X2280513Y8186877D01*
X2292248Y8174786D01*
X2305253Y8164118D01*
X2319375Y8154873D01*
G37*
G36*
X1244244Y8151571D02*
G01*
X1244244Y8217458D01*
X1178255Y8217458D01*
X1179626Y8214512D01*
X1188466Y8200186D01*
X1198778Y8186877D01*
X1210564Y8174786D01*
X1223568Y8164118D01*
X1237640Y8154873D01*
G37*
G36*
X5022443Y8255965D02*
G01*
X5035956Y8255965D01*
X5049316Y8257743D01*
X5062270Y8261299D01*
X5074716Y8266582D01*
X5086299Y8273440D01*
X5096865Y8281771D01*
X5106263Y8291474D01*
X5114239Y8302294D01*
X5120690Y8314131D01*
X5125567Y8326729D01*
X5128666Y8339836D01*
X5130038Y8353247D01*
X5129580Y8366709D01*
X5127345Y8379968D01*
X5123332Y8392871D01*
X5117693Y8405063D01*
X5110429Y8416442D01*
X5101742Y8426754D01*
X5091734Y8435797D01*
X5080609Y8443417D01*
X5068570Y8449462D01*
X5055870Y8453882D01*
X5042662Y8456574D01*
X5029200Y8457488D01*
X5015738Y8456574D01*
X5002530Y8453882D01*
X4989830Y8449462D01*
X4977790Y8443417D01*
X4966665Y8435797D01*
X4956657Y8426754D01*
X4947970Y8416442D01*
X4940706Y8405063D01*
X4935067Y8392871D01*
X4931054Y8379968D01*
X4928819Y8366709D01*
X4928362Y8353247D01*
X4929733Y8339836D01*
X4932832Y8326729D01*
X4937709Y8314131D01*
X4944160Y8302294D01*
X4952136Y8291474D01*
X4961534Y8281771D01*
X4972100Y8273440D01*
X4983683Y8266582D01*
X4996129Y8261299D01*
X5009083Y8257743D01*
G37*
G36*
X3341674Y8357108D02*
G01*
X3407664Y8357108D01*
X3407664Y8423046D01*
X3401060Y8419693D01*
X3386937Y8410498D01*
X3373932Y8399780D01*
X3362198Y8387689D01*
X3351834Y8374380D01*
X3343046Y8360054D01*
G37*
G36*
X3547364Y8357108D02*
G01*
X3613251Y8357108D01*
X3607765Y8367369D01*
X3598164Y8381187D01*
X3587089Y8393887D01*
X3574694Y8405317D01*
X3561130Y8415274D01*
X3547364Y8423249D01*
G37*
G36*
X2259939Y8357158D02*
G01*
X2325928Y8357158D01*
X2325928Y8423046D01*
X2319375Y8419693D01*
X2305253Y8410498D01*
X2292248Y8399780D01*
X2280513Y8387689D01*
X2270150Y8374430D01*
X2261311Y8360054D01*
G37*
G36*
X1178255Y8357158D02*
G01*
X1244244Y8357158D01*
X1244244Y8423046D01*
X1237640Y8419693D01*
X1223568Y8410498D01*
X1210564Y8399780D01*
X1198778Y8387689D01*
X1188466Y8374430D01*
X1179626Y8360054D01*
G37*
G36*
X1383944Y8357158D02*
G01*
X1449882Y8357158D01*
X1444345Y8367369D01*
X1434744Y8381187D01*
X1423670Y8393887D01*
X1411274Y8405317D01*
X1397711Y8415274D01*
X1383944Y8423249D01*
G37*
G36*
X2465628Y8357158D02*
G01*
X2531567Y8357158D01*
X2526030Y8367369D01*
X2516428Y8381187D01*
X2505405Y8393887D01*
X2493010Y8405317D01*
X2479446Y8415274D01*
X2465628Y8423249D01*
G37*
G36*
X4985359Y8519871D02*
G01*
X4985359Y8566759D01*
X4938471Y8566759D01*
X4944160Y8556294D01*
X4952136Y8545474D01*
X4961534Y8535771D01*
X4972100Y8527440D01*
X4983683Y8520582D01*
G37*
G36*
X5073040Y8519871D02*
G01*
X5074716Y8520582D01*
X5086299Y8527440D01*
X5096865Y8535771D01*
X5106263Y8545474D01*
X5114239Y8556294D01*
X5119928Y8566759D01*
X5073040Y8566759D01*
G37*
G36*
X2402992Y8564168D02*
G01*
X2419807Y8565540D01*
X2436317Y8568791D01*
X2452420Y8573820D01*
X2467813Y8580577D01*
X2482443Y8589010D01*
X2496007Y8598966D01*
X2508402Y8610396D01*
X2519426Y8623096D01*
X2529027Y8636914D01*
X2537053Y8651748D01*
X2543403Y8667343D01*
X2547975Y8683548D01*
X2550769Y8700160D01*
X2551684Y8716975D01*
X2550769Y8733840D01*
X2547975Y8750452D01*
X2543403Y8766657D01*
X2537053Y8782253D01*
X2529027Y8797086D01*
X2519426Y8810904D01*
X2508402Y8823604D01*
X2496007Y8835034D01*
X2482443Y8844991D01*
X2467813Y8853424D01*
X2452420Y8860180D01*
X2436317Y8865209D01*
X2419807Y8868460D01*
X2402992Y8869832D01*
X2386177Y8869375D01*
X2369464Y8867038D01*
X2353157Y8862923D01*
X2337358Y8857030D01*
X2322372Y8849410D01*
X2308250Y8840216D01*
X2295245Y8829497D01*
X2283510Y8817406D01*
X2273147Y8804097D01*
X2264308Y8789771D01*
X2257145Y8774531D01*
X2251659Y8758580D01*
X2248001Y8742172D01*
X2246122Y8725408D01*
X2246122Y8708593D01*
X2248001Y8691829D01*
X2251659Y8675420D01*
X2257145Y8659469D01*
X2264308Y8644229D01*
X2273147Y8629904D01*
X2283510Y8616594D01*
X2295245Y8604504D01*
X2308250Y8593785D01*
X2322372Y8584590D01*
X2337358Y8576970D01*
X2353157Y8571077D01*
X2369464Y8566962D01*
X2386177Y8564626D01*
G37*
G36*
X3052013Y8564168D02*
G01*
X3068777Y8565540D01*
X3085338Y8568791D01*
X3101390Y8573820D01*
X3116834Y8580577D01*
X3131413Y8589010D01*
X3144977Y8598966D01*
X3157372Y8610396D01*
X3168446Y8623096D01*
X3178048Y8636914D01*
X3186074Y8651748D01*
X3192424Y8667343D01*
X3196996Y8683548D01*
X3199739Y8700160D01*
X3200704Y8716975D01*
X3199739Y8733840D01*
X3196996Y8750452D01*
X3192424Y8766657D01*
X3186074Y8782253D01*
X3178048Y8797086D01*
X3168446Y8810904D01*
X3157372Y8823604D01*
X3144977Y8835034D01*
X3131413Y8844991D01*
X3116834Y8853424D01*
X3101390Y8860180D01*
X3085338Y8865209D01*
X3068777Y8868460D01*
X3052013Y8869832D01*
X3035147Y8869375D01*
X3018485Y8867038D01*
X3002178Y8862923D01*
X2986379Y8857030D01*
X2971342Y8849410D01*
X2957220Y8840216D01*
X2944266Y8829497D01*
X2932480Y8817406D01*
X2922168Y8804097D01*
X2913329Y8789771D01*
X2906115Y8774531D01*
X2900680Y8758580D01*
X2896971Y8742172D01*
X2895142Y8725408D01*
X2895142Y8708593D01*
X2896971Y8691829D01*
X2900680Y8675420D01*
X2906115Y8659469D01*
X2913329Y8644229D01*
X2922168Y8629904D01*
X2932480Y8616594D01*
X2944266Y8604504D01*
X2957220Y8593785D01*
X2971342Y8584590D01*
X2986379Y8576970D01*
X3002178Y8571077D01*
X3018485Y8566962D01*
X3035147Y8564626D01*
G37*
G36*
X5073040Y8654440D02*
G01*
X5119827Y8654440D01*
X5117693Y8659063D01*
X5110429Y8670442D01*
X5101742Y8680754D01*
X5091734Y8689797D01*
X5080609Y8697417D01*
X5073040Y8701227D01*
G37*
G36*
X4938572Y8654440D02*
G01*
X4985359Y8654440D01*
X4985359Y8701227D01*
X4977790Y8697417D01*
X4966665Y8689797D01*
X4956657Y8680754D01*
X4947970Y8670442D01*
X4940706Y8659063D01*
G37*
G36*
X3052013Y9157157D02*
G01*
X3068777Y9158579D01*
X3085338Y9161780D01*
X3101390Y9166809D01*
X3116834Y9173565D01*
X3131413Y9181998D01*
X3144977Y9191955D01*
X3157372Y9203385D01*
X3168446Y9216085D01*
X3178048Y9229953D01*
X3186074Y9244736D01*
X3192424Y9260332D01*
X3196996Y9276588D01*
X3199739Y9293199D01*
X3200704Y9310014D01*
X3199739Y9326829D01*
X3196996Y9343440D01*
X3192424Y9359646D01*
X3186074Y9375241D01*
X3178048Y9390075D01*
X3168446Y9403892D01*
X3157372Y9416592D01*
X3144977Y9428022D01*
X3131413Y9437979D01*
X3116834Y9446412D01*
X3101390Y9453168D01*
X3085338Y9458198D01*
X3068777Y9461449D01*
X3052013Y9462820D01*
X3035147Y9462363D01*
X3018485Y9460077D01*
X3002178Y9455912D01*
X2986379Y9450019D01*
X2971342Y9442399D01*
X2957220Y9433204D01*
X2944266Y9422485D01*
X2932480Y9410395D01*
X2922168Y9397136D01*
X2913329Y9382760D01*
X2906115Y9367520D01*
X2900680Y9351619D01*
X2896971Y9335160D01*
X2895142Y9318396D01*
X2895142Y9301581D01*
X2896971Y9284817D01*
X2900680Y9268409D01*
X2906115Y9252458D01*
X2913329Y9237218D01*
X2922168Y9222892D01*
X2932480Y9209582D01*
X2944266Y9197492D01*
X2957220Y9186824D01*
X2971342Y9177578D01*
X2986379Y9169958D01*
X3002178Y9164066D01*
X3018485Y9159951D01*
X3035147Y9157614D01*
G37*
G36*
X2465628Y9180068D02*
G01*
X2479446Y9187992D01*
X2493010Y9198000D01*
X2505405Y9209379D01*
X2516428Y9222079D01*
X2526030Y9235948D01*
X2531567Y9246158D01*
X2465628Y9246158D01*
G37*
G36*
X2325928Y9180271D02*
G01*
X2325928Y9246158D01*
X2259939Y9246158D01*
X2261311Y9243212D01*
X2270150Y9228886D01*
X2280513Y9215577D01*
X2292248Y9203486D01*
X2305253Y9192818D01*
X2319375Y9183573D01*
G37*
G36*
X2259939Y9385858D02*
G01*
X2325928Y9385858D01*
X2325928Y9451746D01*
X2319375Y9448393D01*
X2305253Y9439198D01*
X2292248Y9428480D01*
X2280513Y9416389D01*
X2270150Y9403130D01*
X2261311Y9388754D01*
G37*
G36*
X2465628Y9385858D02*
G01*
X2531567Y9385858D01*
X2526030Y9396069D01*
X2516428Y9409887D01*
X2505405Y9422587D01*
X2493010Y9434017D01*
X2479446Y9443974D01*
X2465628Y9451949D01*
G37*

%LPD*%
D10*
G01*
X2395804Y7258583D03*
G01*
X2398801Y6659575D03*
G01*
X3047796Y7252563D03*
G01*
X3047796Y6659575D03*
G01*
X1314094Y8287308D03*
G01*
X1317091Y7688300D03*
G01*
X1966086Y8281288D03*
G01*
X1966086Y7688300D03*
G01*
X2395804Y8287308D03*
G01*
X2398801Y7688300D03*
G01*
X3047796Y8281288D03*
G01*
X3047796Y7688300D03*
G01*
X3477488Y8287283D03*
G01*
X3480485Y7688275D03*
G01*
X4129481Y8281263D03*
G01*
X4129481Y7688275D03*
G01*
X2395804Y9316008D03*
G01*
X2398801Y8717000D03*
G01*
X3047796Y9309988D03*
G01*
X3047796Y8717000D03*
D11*
G01*
X5029200Y7340600D03*
G01*
X5029200Y7594600D03*
G01*
X5029200Y7848600D03*
G01*
X5029200Y8102600D03*
G01*
X5029200Y8356600D03*
G01*
X5029200Y8610600D03*
M02*
