M48
METRIC,LZ,000.000
;FILE_FORMAT=3:3
;TYPE=PLATED
;Layer: PTH_Through
;EasyEDA v6.5.40, 2024-06-27 16:13:32
;238aab5cf2124ce88d5ddd1cd96433f3,df7e7e3c38a3447abd37b529b333d242,10
;Gerber Generator version 0.2
;Holesize 1 = 0.501 mm
T01C0.501
;Holesize 2 = 0.722 mm
T02C0.722
;Holesize 3 = 0.813 mm
T03C0.813
;Holesize 4 = 0.840 mm
T04C0.840
;Holesize 5 = 0.889 mm
T05C0.889
;Holesize 6 = 0.901 mm
T06C0.901
;Holesize 7 = 0.915 mm
T07C0.915
;Holesize 8 = 1.000 mm
T08C1.000
;Holesize 9 = 1.060 mm
T09C1.060
;Holesize 10 = 1.524 mm
T10C1.524
%
G05
G90
T01
X029207Y064516G85X029213Y064516
X039367Y064516G85X039373Y064516
X039373Y058166G85X039367Y058166
X029213Y058166G85X029207Y058166
T02
X028687Y033259
X028687Y035259
X028687Y037259
X028687Y039259
X028687Y041259
X028687Y043259
X028687Y045259
X028687Y047259
X042687Y047259
X042687Y045259
X042687Y043259
X042687Y041259
X042687Y039259
X042687Y037259
X042687Y035259
X042687Y033259
T03
X009271Y013335
X009271Y010541
X009271Y007493
T04
X014479Y055118
X014479Y066294
X022479Y056118
X022479Y065294
X020066Y011820
X022606Y011820
X025146Y011820
X027686Y011820
X030226Y011820
X032766Y011820
T05
X008001Y017653
X010541Y017653
T06
X042799Y017653
X042799Y020193
X042799Y022733
X042799Y025273
X042799Y027813
X042799Y030353
X042672Y010691G85X042672Y010645
X042672Y008131G85X042672Y008125
X042672Y005589G85X042672Y005587
X042672Y003051G85X042672Y003045
T07
X042926Y053086
X042926Y060706
X018796Y035814
X018796Y033274
X018796Y030734
X018796Y028194
X018796Y025654
X018796Y023114
X018796Y020574
X018796Y018034
X018796Y015494
X018796Y012954
X018796Y010414
X018796Y007874
X018796Y005334
X018796Y002794
X018796Y000254
X034036Y000254
X034036Y002794
X034036Y005334
X034036Y007874
X034036Y010414
X034036Y012954
X034036Y015494
X034036Y018034
X034036Y020574
X034036Y023114
X034036Y025654
X034036Y028194
X034036Y030734
X034036Y033274
X034036Y035814
T08
X018796Y038354
T09
X017526Y051922
X020066Y051922
X022606Y051922
X025146Y051922
X027686Y051922
X030226Y051922
X032766Y051922
X035306Y051922
T10
X034036Y038354
X018796Y-002286
X034036Y-002286
M30
