G04 Layer: BottomSilkscreenLayer*
G04 EasyEDA v6.5.46, 2024-09-10 09:59:28*
G04 729bfc0749884a30aca1d28ffb5e4962,df7e7e3c38a3447abd37b529b333d242,10*
G04 Gerber Generator version 0.2*
G04 Scale: 100 percent, Rotated: No, Reflected: No *
G04 Dimensions in millimeters *
G04 leading zeros omitted , absolute positions ,4 integer and 5 decimal *
%FSLAX45Y45*%
%MOMM*%

%ADD10C,0.1524*%
%ADD11C,0.2032*%
%ADD12C,0.2540*%
%ADD13C,0.2150*%

%LPD*%
D10*
X2625343Y319278D02*
G01*
X2614929Y308863D01*
X2599436Y303784D01*
X2578608Y303784D01*
X2563113Y308863D01*
X2552700Y319278D01*
X2552700Y329692D01*
X2557779Y340105D01*
X2563113Y345439D01*
X2573527Y350520D01*
X2604770Y360934D01*
X2614929Y366013D01*
X2620263Y371347D01*
X2625343Y381762D01*
X2625343Y397255D01*
X2614929Y407670D01*
X2599436Y412750D01*
X2578608Y412750D01*
X2563113Y407670D01*
X2552700Y397255D01*
X2659634Y303784D02*
G01*
X2659634Y412750D01*
X2659634Y303784D02*
G01*
X2696209Y303784D01*
X2711704Y308863D01*
X2722118Y319278D01*
X2727197Y329692D01*
X2732531Y345439D01*
X2732531Y371347D01*
X2727197Y386842D01*
X2722118Y397255D01*
X2711704Y407670D01*
X2696209Y412750D01*
X2659634Y412750D01*
X3186684Y1577086D02*
G01*
X3186684Y1519936D01*
X3228340Y1551178D01*
X3228340Y1535429D01*
X3233420Y1525270D01*
X3238500Y1519936D01*
X3254247Y1514855D01*
X3264661Y1514855D01*
X3280156Y1519936D01*
X3290570Y1530350D01*
X3295650Y1545844D01*
X3295650Y1561592D01*
X3290570Y1577086D01*
X3285490Y1582420D01*
X3275075Y1587500D01*
X3186684Y1480565D02*
G01*
X3295650Y1438910D01*
X3186684Y1397254D02*
G01*
X3295650Y1438910D01*
X3186684Y1352550D02*
G01*
X3186684Y1295400D01*
X3228340Y1326642D01*
X3228340Y1311147D01*
X3233420Y1300734D01*
X3238500Y1295400D01*
X3254247Y1290320D01*
X3264661Y1290320D01*
X3280156Y1295400D01*
X3290570Y1305813D01*
X3295650Y1321562D01*
X3295650Y1337055D01*
X3290570Y1352550D01*
X3285490Y1357884D01*
X3275075Y1362963D01*
X2018791Y1496821D02*
G01*
X2008377Y1502155D01*
X1997963Y1512570D01*
X1992884Y1522729D01*
X1992884Y1543557D01*
X1997963Y1553971D01*
X2008377Y1564386D01*
X2018791Y1569720D01*
X2034540Y1574800D01*
X2060447Y1574800D01*
X2075941Y1569720D01*
X2086356Y1564386D01*
X2096770Y1553971D01*
X2101850Y1543557D01*
X2101850Y1522729D01*
X2096770Y1512570D01*
X2086356Y1502155D01*
X2075941Y1496821D01*
X2060447Y1496821D01*
X2060447Y1522729D02*
G01*
X2060447Y1496821D01*
X1992884Y1462531D02*
G01*
X2101850Y1462531D01*
X1992884Y1462531D02*
G01*
X2101850Y1389887D01*
X1992884Y1389887D02*
G01*
X2101850Y1389887D01*
X1992884Y1355597D02*
G01*
X2101850Y1355597D01*
X1992884Y1355597D02*
G01*
X1992884Y1319276D01*
X1997963Y1303528D01*
X2008377Y1293113D01*
X2018791Y1288034D01*
X2034540Y1282700D01*
X2060447Y1282700D01*
X2075941Y1288034D01*
X2086356Y1293113D01*
X2096770Y1303528D01*
X2101850Y1319276D01*
X2101850Y1355597D01*
X4557453Y4098635D02*
G01*
X4567844Y4088244D01*
X4573038Y4072658D01*
X4573038Y4051876D01*
X4567844Y4036291D01*
X4557453Y4025900D01*
X4547062Y4025900D01*
X4536671Y4031094D01*
X4531474Y4036291D01*
X4526279Y4046682D01*
X4515888Y4077855D01*
X4510694Y4088244D01*
X4505497Y4093441D01*
X4495106Y4098635D01*
X4479521Y4098635D01*
X4469129Y4088244D01*
X4463935Y4072658D01*
X4463935Y4051876D01*
X4469129Y4036291D01*
X4479521Y4025900D01*
X4573038Y4132925D02*
G01*
X4463935Y4205663D01*
X4573038Y4205663D02*
G01*
X4463935Y4132925D01*
X4552256Y4239953D02*
G01*
X4557453Y4250344D01*
X4573038Y4265929D01*
X4463935Y4265929D01*
X4547062Y4305414D02*
G01*
X4552256Y4305414D01*
X4562647Y4310611D01*
X4567844Y4315805D01*
X4573038Y4326196D01*
X4573038Y4346978D01*
X4567844Y4357370D01*
X4562647Y4362564D01*
X4552256Y4367761D01*
X4541865Y4367761D01*
X4531474Y4362564D01*
X4515888Y4352175D01*
X4463935Y4300220D01*
X4463935Y4372955D01*
X4573038Y4479983D02*
G01*
X4463935Y4428027D01*
X4573038Y4407245D02*
G01*
X4573038Y4479983D01*
X4557453Y4576617D02*
G01*
X4567844Y4571423D01*
X4573038Y4555835D01*
X4573038Y4545444D01*
X4567844Y4529858D01*
X4552256Y4519467D01*
X4526279Y4514273D01*
X4500303Y4514273D01*
X4479521Y4519467D01*
X4469129Y4529858D01*
X4463935Y4545444D01*
X4463935Y4550641D01*
X4469129Y4566226D01*
X4479521Y4576617D01*
X4495106Y4581814D01*
X4500303Y4581814D01*
X4515888Y4576617D01*
X4526279Y4566226D01*
X4531474Y4550641D01*
X4531474Y4545444D01*
X4526279Y4529858D01*
X4515888Y4519467D01*
X4500303Y4514273D01*
D11*
X1990852Y6031737D02*
G01*
X1977390Y6038595D01*
X1963674Y6052312D01*
X1956815Y6066028D01*
X1956815Y6093205D01*
X1963674Y6106921D01*
X1977390Y6120384D01*
X1990852Y6127242D01*
X2011425Y6134100D01*
X2045461Y6134100D01*
X2066036Y6127242D01*
X2079497Y6120384D01*
X2093213Y6106921D01*
X2100072Y6093205D01*
X2100072Y6066028D01*
X2093213Y6052312D01*
X2079497Y6038595D01*
X2066036Y6031737D01*
X1977390Y5891276D02*
G01*
X1963674Y5904992D01*
X1956815Y5925565D01*
X1956815Y5952744D01*
X1963674Y5973318D01*
X1977390Y5986779D01*
X1990852Y5986779D01*
X2004568Y5979921D01*
X2011425Y5973318D01*
X2018284Y5959602D01*
X2031745Y5918707D01*
X2038604Y5904992D01*
X2045461Y5898134D01*
X2059177Y5891276D01*
X2079497Y5891276D01*
X2093213Y5904992D01*
X2100072Y5925565D01*
X2100072Y5952744D01*
X2093213Y5973318D01*
X2079497Y5986779D01*
X2210815Y6134100D02*
G01*
X2354072Y6134100D01*
X2210815Y6134100D02*
G01*
X2210815Y6086347D01*
X2217674Y6066028D01*
X2231390Y6052312D01*
X2244852Y6045454D01*
X2265425Y6038595D01*
X2299461Y6038595D01*
X2320036Y6045454D01*
X2333497Y6052312D01*
X2347213Y6066028D01*
X2354072Y6086347D01*
X2354072Y6134100D01*
X2244852Y5891276D02*
G01*
X2231390Y5898134D01*
X2217674Y5911850D01*
X2210815Y5925565D01*
X2210815Y5952744D01*
X2217674Y5966460D01*
X2231390Y5979921D01*
X2244852Y5986779D01*
X2265425Y5993637D01*
X2299461Y5993637D01*
X2320036Y5986779D01*
X2333497Y5979921D01*
X2347213Y5966460D01*
X2354072Y5952744D01*
X2354072Y5925565D01*
X2347213Y5911850D01*
X2333497Y5898134D01*
X2320036Y5891276D01*
X3514852Y6006337D02*
G01*
X3501390Y6013195D01*
X3487674Y6026912D01*
X3480815Y6040628D01*
X3480815Y6067805D01*
X3487674Y6081521D01*
X3501390Y6094984D01*
X3514852Y6101842D01*
X3535425Y6108700D01*
X3569461Y6108700D01*
X3590036Y6101842D01*
X3603497Y6094984D01*
X3617213Y6081521D01*
X3624072Y6067805D01*
X3624072Y6040628D01*
X3617213Y6026912D01*
X3603497Y6013195D01*
X3590036Y6006337D01*
X3569461Y6006337D01*
X3569461Y6040628D02*
G01*
X3569461Y6006337D01*
X3480815Y5961379D02*
G01*
X3624072Y5961379D01*
X3480815Y5961379D02*
G01*
X3624072Y5865876D01*
X3480815Y5865876D02*
G01*
X3624072Y5865876D01*
X3480815Y5820918D02*
G01*
X3624072Y5820918D01*
X3480815Y5820918D02*
G01*
X3480815Y5773165D01*
X3487674Y5752845D01*
X3501390Y5739129D01*
X3514852Y5732271D01*
X3535425Y5725413D01*
X3569461Y5725413D01*
X3590036Y5732271D01*
X3603497Y5739129D01*
X3617213Y5752845D01*
X3624072Y5773165D01*
X3624072Y5820918D01*
X3226815Y6108700D02*
G01*
X3370072Y6054089D01*
X3226815Y5999734D02*
G01*
X3370072Y6054089D01*
X3260852Y5852413D02*
G01*
X3247390Y5859271D01*
X3233674Y5872734D01*
X3226815Y5886450D01*
X3226815Y5913628D01*
X3233674Y5927344D01*
X3247390Y5941060D01*
X3260852Y5947918D01*
X3281425Y5954521D01*
X3315461Y5954521D01*
X3336036Y5947918D01*
X3349497Y5941060D01*
X3363213Y5927344D01*
X3370072Y5913628D01*
X3370072Y5886450D01*
X3363213Y5872734D01*
X3349497Y5859271D01*
X3336036Y5852413D01*
X3260852Y5705094D02*
G01*
X3247390Y5711952D01*
X3233674Y5725413D01*
X3226815Y5739129D01*
X3226815Y5766307D01*
X3233674Y5780023D01*
X3247390Y5793739D01*
X3260852Y5800597D01*
X3281425Y5807455D01*
X3315461Y5807455D01*
X3336036Y5800597D01*
X3349497Y5793739D01*
X3363213Y5780023D01*
X3370072Y5766307D01*
X3370072Y5739129D01*
X3363213Y5725413D01*
X3349497Y5711952D01*
X3336036Y5705094D01*
X2993390Y6013195D02*
G01*
X2979674Y6026912D01*
X2972815Y6047231D01*
X2972815Y6074663D01*
X2979674Y6094984D01*
X2993390Y6108700D01*
X3006852Y6108700D01*
X3020568Y6101842D01*
X3027425Y6094984D01*
X3034284Y6081521D01*
X3047745Y6040628D01*
X3054604Y6026912D01*
X3061461Y6020054D01*
X3075177Y6013195D01*
X3095497Y6013195D01*
X3109213Y6026912D01*
X3116072Y6047231D01*
X3116072Y6074663D01*
X3109213Y6094984D01*
X3095497Y6108700D01*
X3006852Y5865876D02*
G01*
X2993390Y5872734D01*
X2979674Y5886450D01*
X2972815Y5900165D01*
X2972815Y5927344D01*
X2979674Y5941060D01*
X2993390Y5954521D01*
X3006852Y5961379D01*
X3027425Y5968237D01*
X3061461Y5968237D01*
X3082036Y5961379D01*
X3095497Y5954521D01*
X3109213Y5941060D01*
X3116072Y5927344D01*
X3116072Y5900165D01*
X3109213Y5886450D01*
X3095497Y5872734D01*
X3082036Y5865876D01*
X2972815Y5820918D02*
G01*
X3116072Y5820918D01*
X3116072Y5820918D02*
G01*
X3116072Y5739129D01*
X2764790Y6038595D02*
G01*
X2751074Y6052312D01*
X2744215Y6072631D01*
X2744215Y6100063D01*
X2751074Y6120384D01*
X2764790Y6134100D01*
X2778252Y6134100D01*
X2791968Y6127242D01*
X2798825Y6120384D01*
X2805684Y6106921D01*
X2819145Y6066028D01*
X2826004Y6052312D01*
X2832861Y6045454D01*
X2846577Y6038595D01*
X2866897Y6038595D01*
X2880613Y6052312D01*
X2887472Y6072631D01*
X2887472Y6100063D01*
X2880613Y6120384D01*
X2866897Y6134100D01*
X2744215Y5993637D02*
G01*
X2887472Y5993637D01*
X2744215Y5993637D02*
G01*
X2744215Y5945886D01*
X2751074Y5925565D01*
X2764790Y5911850D01*
X2778252Y5904992D01*
X2798825Y5898134D01*
X2832861Y5898134D01*
X2853436Y5904992D01*
X2866897Y5911850D01*
X2880613Y5925565D01*
X2887472Y5945886D01*
X2887472Y5993637D01*
X2744215Y5798565D02*
G01*
X2887472Y5853176D01*
X2744215Y5798565D02*
G01*
X2887472Y5744210D01*
X2839720Y5832855D02*
G01*
X2839720Y5764529D01*
X2464815Y6134100D02*
G01*
X2608072Y6134100D01*
X2464815Y6134100D02*
G01*
X2464815Y6072631D01*
X2471674Y6052312D01*
X2478531Y6045454D01*
X2491993Y6038595D01*
X2505709Y6038595D01*
X2519425Y6045454D01*
X2526284Y6052312D01*
X2533141Y6072631D01*
X2533141Y6134100D01*
X2533141Y6086347D02*
G01*
X2608072Y6038595D01*
X2485390Y5898134D02*
G01*
X2471674Y5911850D01*
X2464815Y5932170D01*
X2464815Y5959602D01*
X2471674Y5979921D01*
X2485390Y5993637D01*
X2498852Y5993637D01*
X2512568Y5986779D01*
X2519425Y5979921D01*
X2526284Y5966460D01*
X2539745Y5925565D01*
X2546604Y5911850D01*
X2553461Y5904992D01*
X2567177Y5898134D01*
X2587497Y5898134D01*
X2601213Y5911850D01*
X2608072Y5932170D01*
X2608072Y5959602D01*
X2601213Y5979921D01*
X2587497Y5993637D01*
X2464815Y5805423D02*
G01*
X2608072Y5805423D01*
X2464815Y5853176D02*
G01*
X2464815Y5757671D01*
X1677415Y6134100D02*
G01*
X1820671Y6134100D01*
X1677415Y6134100D02*
G01*
X1677415Y6072631D01*
X1684273Y6052312D01*
X1691131Y6045454D01*
X1704594Y6038595D01*
X1718310Y6038595D01*
X1732026Y6045454D01*
X1738884Y6052312D01*
X1745742Y6072631D01*
X1745742Y6134100D02*
G01*
X1745742Y6072631D01*
X1752345Y6052312D01*
X1759204Y6045454D01*
X1772920Y6038595D01*
X1793239Y6038595D01*
X1806955Y6045454D01*
X1813813Y6052312D01*
X1820671Y6072631D01*
X1820671Y6134100D01*
X1677415Y5993637D02*
G01*
X1820671Y5993637D01*
X1820671Y5993637D02*
G01*
X1820671Y5911850D01*
X1677415Y5866892D02*
G01*
X1820671Y5866892D01*
X1677415Y5771387D02*
G01*
X1772920Y5866892D01*
X1738884Y5832855D02*
G01*
X1820671Y5771387D01*
D12*
X4418711Y3225901D02*
G01*
X4418711Y4825898D01*
X2718714Y4825898D01*
X2718714Y3225901D01*
X4418711Y3225901D01*
D13*
G75*
G01
X3541344Y6486220D02*
G03X3541344Y6486220I-10744J0D01*
M02*
